<svg xmlns="http://www.w3.org/2000/svg" viewBox="0 0 141.14 141.15"><defs><style>.cls-1{fill:#e49844;}</style></defs><title>Asset 4</title><g id="Layer_2" data-name="Layer 2"><g id="Слой_1" data-name="Слой 1"><path class="cls-1" d="M70.57,0a70.58,70.58,0,1,0,70.57,70.54A70.56,70.56,0,0,0,70.57,0Zm5,109.8a8.32,8.32,0,0,1-5.69,2.2,8.53,8.53,0,0,1-5.82-2.17,7.54,7.54,0,0,1-2.5-6A7.79,7.79,0,0,1,64,98a8.14,8.14,0,0,1,5.91-2.35,8,8,0,0,1,8.16,8.15A7.66,7.66,0,0,1,75.6,109.8ZM96,59.14a25.2,25.2,0,0,1-4.49,6q-2.6,2.55-9.33,8.56a39.42,39.42,0,0,0-3,3,11.65,11.65,0,0,0-1.67,2.35,11,11,0,0,0-.85,2.14c-.2.7-.5,2-.9,3.74q-1,5.7-6.51,5.69a6.62,6.62,0,0,1-4.79-1.86,7.28,7.28,0,0,1-1.94-5.52,20.33,20.33,0,0,1,1.42-8,20.06,20.06,0,0,1,3.78-5.91,85.39,85.39,0,0,1,6.34-6.05q3.51-3.06,5.07-4.62a15.81,15.81,0,0,0,2.62-3.48,8.32,8.32,0,0,0,1.07-4.16,9.65,9.65,0,0,0-3.26-7.38,11.87,11.87,0,0,0-8.4-3c-4,0-7,1-8.86,3a24.33,24.33,0,0,0-4.82,9q-1.86,6.18-7.06,6.18a7,7,0,0,1-5.17-2.16A6.61,6.61,0,0,1,43.21,52a19.83,19.83,0,0,1,3.33-10.54,25.72,25.72,0,0,1,9.74-8.83,30.6,30.6,0,0,1,14.94-3.51,31.93,31.93,0,0,1,14,2.93,22.68,22.68,0,0,1,9.38,8,19.53,19.53,0,0,1,3.31,11A16.82,16.82,0,0,1,96,59.14Z"/></g></g></svg>