<svg xmlns="http://www.w3.org/2000/svg" viewBox="0 0 92.95 168.47"><defs><style>.cls-1{fill:#e49844;}</style></defs><title>Asset 3</title><g id="Layer_2" data-name="Layer 2"><g id="Слой_1" data-name="Слой 1"><path class="cls-1" d="M90.05,81.33a2.91,2.91,0,0,0-2.91,2.91v17.42a40.67,40.67,0,1,1-81.33,0V84.24a2.91,2.91,0,1,0-5.81,0v17.42A46.49,46.49,0,0,0,43.57,148v14.67H29.05a2.91,2.91,0,1,0,0,5.81H63.9a2.91,2.91,0,1,0,0-5.81H49.38V148A46.49,46.49,0,0,0,93,101.66V84.24A2.9,2.9,0,0,0,90.05,81.33Z"/><path class="cls-1" d="M46.47,133.62a32,32,0,0,0,32-32V32a32,32,0,0,0-63.91,0v69.71A32,32,0,0,0,46.47,133.62Z"/></g></g></svg>