<svg xmlns="http://www.w3.org/2000/svg" viewBox="0 0 747.57 406.3"><defs><style>.cls-1,.cls-8{fill:#fff;}.cls-2{fill:#020608;}.cls-3{fill:#bcbdc0;}.cls-4{fill:#211c1d;}.cls-5{fill:#fae79f;}.cls-6{fill:#c3da9a;}.cls-7{fill:#94c7a1;}.cls-8{stroke:#020608;stroke-miterlimit:10;}.cls-9{fill:#dbd5ea;}.cls-10{fill:#e6e7e7;}.cls-11{fill:#d3cce6;}.cls-12{fill:#6595cc;stroke:#242122;stroke-linejoin:round;stroke-width:2px;}</style></defs><title>Asset 1</title><g id="Layer_2" data-name="Layer 2"><g id="Слой_1" data-name="Слой 1"><path class="cls-1" d="M639,149.61a4.42,4.42,0,1,1,4.42-4.42,4.41,4.41,0,0,1-4.42,4.42"/><path class="cls-2" d="M633.08,145.19a5.92,5.92,0,1,1,5.92,5.92A5.93,5.93,0,0,1,633.08,145.19Zm8.84,0a2.92,2.92,0,1,0-2.92,2.92A2.92,2.92,0,0,0,641.92,145.19Z"/><rect class="cls-1" x="628.05" y="164.4" width="15.37" height="17.56"/><path class="cls-2" d="M626.55,183.46V162.9h18.37v20.56Zm3-17.56v14.56h12.37V165.9Z"/><rect class="cls-1" x="628.05" y="188.86" width="15.37" height="10.05"/><path class="cls-2" d="M626.55,200.41v-13h18.37v13Zm3-10v7h12.37v-7Z"/><path class="cls-1" d="M138.67,53.05H118.89L93.24,30.84,67.6,53.05H47.83a13.64,13.64,0,0,0-13.6,13.59v90.85a13.63,13.63,0,0,0,13.6,13.59H67.61l25.63,22.21,25.65-22.21h19.78a13.62,13.62,0,0,0,13.59-13.59V66.64A13.63,13.63,0,0,0,138.67,53.05Z"/><path class="cls-2" d="M93.24,195a1.73,1.73,0,0,1-1.11-.41L67,172.78H47.83a15.3,15.3,0,0,1-15.29-15.29V66.64A15.3,15.3,0,0,1,47.83,51.35H67L92.13,29.56a1.68,1.68,0,0,1,2.22,0l25.17,21.79h19.15A15.31,15.31,0,0,1,154,66.64v90.85a15.31,15.31,0,0,1-15.29,15.29H119.53l-25.18,21.8A1.69,1.69,0,0,1,93.24,195ZM47.83,54.75a11.91,11.91,0,0,0-11.9,11.89v90.85a11.91,11.91,0,0,0,11.9,11.89H67.61a1.68,1.68,0,0,1,1.11.42L93.24,191l24.54-21.24a1.68,1.68,0,0,1,1.11-.42h19.78a11.9,11.9,0,0,0,11.89-11.89V66.64a11.91,11.91,0,0,0-11.89-11.89H118.89a1.73,1.73,0,0,1-1.11-.41L93.24,33.09,68.71,54.34a1.71,1.71,0,0,1-1.11.41Z"/><path class="cls-2" d="M66.62,132a1.7,1.7,0,0,1-1.2-.49L47.23,113.27a1.69,1.69,0,0,1,0-2.4L65.42,92.69a1.7,1.7,0,0,1,2.41,2.4l-17,17,17,17a1.7,1.7,0,0,1-1.21,2.9Z"/><path class="cls-2" d="M119.88,132a1.68,1.68,0,0,1-1.2-.49,1.7,1.7,0,0,1,0-2.41l17-17-17-17a1.7,1.7,0,1,1,2.4-2.4l18.18,18.18a1.7,1.7,0,0,1,0,2.4l-18.18,18.19A1.7,1.7,0,0,1,119.88,132Z"/><path class="cls-2" d="M103.76,132a1.68,1.68,0,0,1-1.44-.8l-21-33.77a1.7,1.7,0,1,1,2.89-1.79l21,33.77a1.7,1.7,0,0,1-.54,2.34A1.72,1.72,0,0,1,103.76,132Z"/><path class="cls-1" d="M731.12,52.31a36.5,36.5,0,0,0-2.48-4.22l5.12-11.41a45.6,45.6,0,0,0-18.12-12l-8.54,9.14a34.77,34.77,0,0,0-9.73-.62L690.06,23a45.74,45.74,0,0,0-19.49,9.67l3.66,12a34.61,34.61,0,0,0-5.39,8.13L656.4,54.05A45.48,45.48,0,0,0,655,75.76l12.19,2.82a36.39,36.39,0,0,0,1.85,4.52,33.78,33.78,0,0,0,2.49,4.21l-5.14,11.42a45.7,45.7,0,0,0,18.14,12l8.52-9.15a34.45,34.45,0,0,0,9.73.62l7.31,10.15a45.74,45.74,0,0,0,19.49-9.67l-3.66-12a34.34,34.34,0,0,0,5.4-8.13l12.44-1.27a45.73,45.73,0,0,0,1.38-21.71L733,56.82A37.93,37.93,0,0,0,731.12,52.31ZM710,87.68a22.3,22.3,0,1,1,10.07-29.89A22.29,22.29,0,0,1,710,87.68Z"/><path class="cls-2" d="M710.11,114.08a1.69,1.69,0,0,1-1.37-.71L702,104a36.68,36.68,0,0,1-8.3-.53l-7.88,8.46a1.7,1.7,0,0,1-1.82.44,47.68,47.68,0,0,1-18.81-12.48,1.7,1.7,0,0,1-.3-1.85l4.75-10.55a37.42,37.42,0,0,1-2.07-3.62A37.83,37.83,0,0,1,665.91,80l-11.28-2.6a1.72,1.72,0,0,1-1.29-1.36,47.48,47.48,0,0,1,1.44-22.52,1.71,1.71,0,0,1,1.45-1.18l11.5-1.17a36.75,36.75,0,0,1,4.6-6.93L669,33.2a1.7,1.7,0,0,1,.52-1.8A47.1,47.1,0,0,1,679,25.17a47.81,47.81,0,0,1,10.7-3.8,1.69,1.69,0,0,1,1.75.66l6.77,9.38a36.66,36.66,0,0,1,8.31.53l7.89-8.45a1.7,1.7,0,0,1,1.82-.44A47.5,47.5,0,0,1,735,35.53a1.7,1.7,0,0,1,.3,1.85l-4.74,10.55a36.25,36.25,0,0,1,2.07,3.62,39.31,39.31,0,0,1,1.63,3.83L745.54,58a1.69,1.69,0,0,1,1.29,1.36,47.6,47.6,0,0,1-1.43,22.52A1.7,1.7,0,0,1,744,83.05l-11.5,1.17a36.48,36.48,0,0,1-4.61,6.93l3.39,11.06a1.68,1.68,0,0,1-.53,1.79,47.42,47.42,0,0,1-9.5,6.25A48.16,48.16,0,0,1,710.49,114,2.45,2.45,0,0,1,710.11,114.08Zm-7.31-13.55a1.68,1.68,0,0,1,1.38.71l6.65,9.22a44.52,44.52,0,0,0,8.86-3.26,44,44,0,0,0,7.95-5.08l-3.32-10.88a1.71,1.71,0,0,1,.35-1.62,32.84,32.84,0,0,0,5.14-7.73,1.7,1.7,0,0,1,1.36-1l11.31-1.15A44.27,44.27,0,0,0,743.67,61L732.6,58.48a1.67,1.67,0,0,1-1.23-1.11,36.29,36.29,0,0,0-1.78-4.32,34.47,34.47,0,0,0-2.36-4,1.68,1.68,0,0,1-.14-1.65L731.75,37a44.21,44.21,0,0,0-15.64-10.38L708.35,35a1.7,1.7,0,0,1-1.59.51,33,33,0,0,0-9.26-.6,1.68,1.68,0,0,1-1.5-.7l-6.65-9.22a45.1,45.1,0,0,0-8.87,3.27,44.14,44.14,0,0,0-8,5.08l3.33,10.88a1.71,1.71,0,0,1-.36,1.63,33,33,0,0,0-5.13,7.72,1.72,1.72,0,0,1-1.36,1L657.7,55.63a43.91,43.91,0,0,0-1.19,18.73l11.08,2.56A1.72,1.72,0,0,1,668.82,78a32,32,0,0,0,1.77,4.3,31.39,31.39,0,0,0,2.36,4A1.73,1.73,0,0,1,673.1,88l-4.67,10.38a44.2,44.2,0,0,0,15.65,10.38l7.75-8.32a1.71,1.71,0,0,1,1.59-.5,33,33,0,0,0,9.25.59Zm-2.7-8.83a24,24,0,1,1,10.65-2.5A23.86,23.86,0,0,1,700.1,91.7Zm0-44.6a20.6,20.6,0,1,0,18.47,11.45A20.53,20.53,0,0,0,700.07,47.1Z"/><path class="cls-1" d="M690.18,47.73a22.3,22.3,0,1,0,29.88,10.06A22.3,22.3,0,0,0,690.18,47.73Z"/><path class="cls-2" d="M700.1,91.7h0a24,24,0,1,1,10.65-2.5A23.86,23.86,0,0,1,700.1,91.7Zm0-44.6a20.6,20.6,0,1,0,18.47,11.45A20.53,20.53,0,0,0,700.07,47.1Z"/><path class="cls-1" d="M95.12,263.43a42.67,42.67,0,0,0-3-5.1l6.21-13.83a55.33,55.33,0,0,0-22-14.58L66,241a41.85,41.85,0,0,0-11.79-.75L45.38,228a55.54,55.54,0,0,0-23.62,11.72l4.44,14.49A42.46,42.46,0,0,0,19.66,264L4.6,265.54a55.15,55.15,0,0,0-1.68,26.31l14.77,3.42a44.06,44.06,0,0,0,2.25,5.47,41,41,0,0,0,3,5.11l-6.22,13.83a55.38,55.38,0,0,0,22,14.57L49,323.17a41.92,41.92,0,0,0,11.79.75l8.86,12.29a55.09,55.09,0,0,0,12.51-4.42,55.89,55.89,0,0,0,11.1-7.29L88.86,310a42.52,42.52,0,0,0,6.54-9.85l15.06-1.53a55.43,55.43,0,0,0,1.68-26.32l-14.76-3.4A45.2,45.2,0,0,0,95.12,263.43ZM69.53,306.29a27,27,0,1,1,12.2-36.21A27,27,0,0,1,69.53,306.29Z"/><path class="cls-2" d="M69.68,338.27a2.05,2.05,0,0,1-1.67-.85l-8.2-11.37a44.56,44.56,0,0,1-10.05-.64L40.2,335.66a2.05,2.05,0,0,1-2.2.53,57.76,57.76,0,0,1-22.79-15.12,2.05,2.05,0,0,1-.36-2.24l5.75-12.78a45.85,45.85,0,0,1-2.51-4.39,47.17,47.17,0,0,1-2-4.64L2.46,293.86a2.07,2.07,0,0,1-1.57-1.64,57.49,57.49,0,0,1,1.75-27.29,2,2,0,0,1,1.75-1.43l13.93-1.42a44.92,44.92,0,0,1,5.58-8.4l-4.1-13.4a2,2,0,0,1,.64-2.17A56.9,56.9,0,0,1,32,230.55a58.35,58.35,0,0,1,13-4.6,2,2,0,0,1,2.12.8l8.21,11.37a43.85,43.85,0,0,1,10,.64l9.57-10.25a2.06,2.06,0,0,1,2.2-.53,57.64,57.64,0,0,1,22.78,15.13,2.09,2.09,0,0,1,.36,2.24l-5.75,12.78a43.1,43.1,0,0,1,4.48,9l13.66,3.16a2.05,2.05,0,0,1,1.57,1.64,57.74,57.74,0,0,1-1.74,27.29,2.08,2.08,0,0,1-1.76,1.44L96.74,302.1a44.91,44.91,0,0,1-5.58,8.4l4.1,13.4a2.05,2.05,0,0,1-.64,2.17,57.21,57.21,0,0,1-24.49,12.15A1.73,1.73,0,0,1,69.68,338.27Zm-8.86-16.41a2.06,2.06,0,0,1,1.67.86l8.05,11.17a53,53,0,0,0,20.38-10.11l-4-13.17a2,2,0,0,1,.43-2,40.25,40.25,0,0,0,6.22-9.36,2.09,2.09,0,0,1,1.65-1.17l13.7-1.39A53.62,53.62,0,0,0,110.34,274l-13.43-3.1a2,2,0,0,1-1.48-1.35,45.78,45.78,0,0,0-2.15-5.22,42.59,42.59,0,0,0-2.86-4.85,2.06,2.06,0,0,1-.18-2l5.65-12.56a53.47,53.47,0,0,0-19-12.59l-9.4,10.08a2.08,2.08,0,0,1-1.93.61,39.7,39.7,0,0,0-11.21-.72,2.06,2.06,0,0,1-1.83-.85l-8.06-11.17a53.46,53.46,0,0,0-20.37,10.11l4,13.18a2,2,0,0,1-.43,2,40.25,40.25,0,0,0-6.22,9.36,2,2,0,0,1-1.65,1.16L6.18,267.45a53.47,53.47,0,0,0-1.46,22.71l13.44,3.1a2,2,0,0,1,1.48,1.35,41.59,41.59,0,0,0,2.15,5.22,39.67,39.67,0,0,0,2.85,4.85,2,2,0,0,1,.18,2l-5.65,12.57a53.52,53.52,0,0,0,19,12.58l9.39-10.07a2.08,2.08,0,0,1,1.93-.62,39.79,39.79,0,0,0,11.21.72Zm-3.27-10.69a29.1,29.1,0,1,1,12.9-3A28.89,28.89,0,0,1,57.55,311.17Zm0-54a25,25,0,1,0,11.11,47.31,25,25,0,0,0-11.11-47.31Z"/><path class="cls-1" d="M45.52,257.89a27,27,0,1,0,36.21,12.19A27,27,0,0,0,45.52,257.89Z"/><path class="cls-2" d="M57.55,311.17h0a29.1,29.1,0,1,1,12.9-3A28.89,28.89,0,0,1,57.55,311.17Zm0-54a25,25,0,1,0,11.11,47.31,25,25,0,0,0-11.11-47.31Z"/><path class="cls-1" d="M713.4,313.69a24.91,24.91,0,0,0-2.24-2.55l2-8.45a31.78,31.78,0,0,0-13.92-5.87l-4.64,7.34a24,24,0,0,0-6.72.83l-6.3-6a32.14,32.14,0,0,0-6.57,3.83,31.58,31.58,0,0,0-5.48,5.28l4.05,7.69a24.24,24.24,0,0,0-2.64,6.24l-8.32,2.46a31.64,31.64,0,0,0,1.86,15l8.68.35a25.06,25.06,0,0,0,1.85,2.84,22,22,0,0,0,2.24,2.55l-2,8.45a31.73,31.73,0,0,0,13.92,5.87l4.64-7.34a24,24,0,0,0,6.72-.83l6.29,6a32,32,0,0,0,6.58-3.83,31.22,31.22,0,0,0,5.47-5.29l-4-7.68a24.39,24.39,0,0,0,2.64-6.24l8.32-2.47a31.89,31.89,0,0,0-1.86-15l-8.68-.34A25.67,25.67,0,0,0,713.4,313.69Zm-9.85,26.86a15.48,15.48,0,1,1,3-21.69A15.46,15.46,0,0,1,703.55,340.55Z"/><path class="cls-2" d="M707,358.54a1.17,1.17,0,0,1-1-.3l-5.82-5.53a25.18,25.18,0,0,1-5.73.71l-4.29,6.79a1.19,1.19,0,0,1-1.19.54,33.16,33.16,0,0,1-14.44-6.09,1.17,1.17,0,0,1-.44-1.22l1.88-7.81a24.17,24.17,0,0,1-1.88-2.21,25.73,25.73,0,0,1-1.61-2.4l-8-.32a1.17,1.17,0,0,1-1.05-.76,32.83,32.83,0,0,1-1.93-15.55,1.21,1.21,0,0,1,.84-1l7.69-2.28a25.44,25.44,0,0,1,2.25-5.32l-3.74-7.11a1.17,1.17,0,0,1,.13-1.29,32.68,32.68,0,0,1,5.67-5.48,33.89,33.89,0,0,1,6.82-4,1.19,1.19,0,0,1,1.28.23l5.83,5.53A24.7,24.7,0,0,1,694,303l4.29-6.79a1.19,1.19,0,0,1,1.19-.53,32.84,32.84,0,0,1,14.43,6.09,1.18,1.18,0,0,1,.45,1.22l-1.88,7.81a25,25,0,0,1,1.88,2.2,27.9,27.9,0,0,1,1.61,2.4l8,.32a1.18,1.18,0,0,1,1.06.76A33.09,33.09,0,0,1,727,332a1.21,1.21,0,0,1-.84,1l-7.69,2.28a25.75,25.75,0,0,1-2.25,5.33l3.73,7.11a1.19,1.19,0,0,1-.12,1.29,33.12,33.12,0,0,1-5.68,5.48,32.78,32.78,0,0,1-6.82,4A1,1,0,0,1,707,358.54Zm-6.73-8.29a1.19,1.19,0,0,1,1,.3l5.72,5.44a30.3,30.3,0,0,0,10.4-7.87l-3.67-7a1.18,1.18,0,0,1,0-1.15,23.3,23.3,0,0,0,2.51-5.93,1.16,1.16,0,0,1,.8-.83l7.56-2.25a30.75,30.75,0,0,0-1.6-12.94l-7.89-.32a1.15,1.15,0,0,1-1-.6,22.5,22.5,0,0,0-3.89-5.14,1.17,1.17,0,0,1-.31-1.11l1.84-7.67a30.52,30.52,0,0,0-12-5.07l-4.22,6.67a1.18,1.18,0,0,1-1,.55,23.08,23.08,0,0,0-6.39.79,1.19,1.19,0,0,1-1.12-.28l-5.73-5.43a30.44,30.44,0,0,0-5.62,3.37,30.79,30.79,0,0,0-4.78,4.49l3.68,7a1.2,1.2,0,0,1,0,1.16,22.85,22.85,0,0,0-2.51,5.93,1.17,1.17,0,0,1-.8.83l-7.57,2.24a30.73,30.73,0,0,0,1.6,12.94l7.9.32a1.15,1.15,0,0,1,1,.6A23,23,0,0,0,676,342a24.21,24.21,0,0,0,2.13,2.43,1.17,1.17,0,0,1,.31,1.11l-1.84,7.68a30.57,30.57,0,0,0,12,5.06l4.21-6.67a1.16,1.16,0,0,1,1-.55,22.62,22.62,0,0,0,6.39-.79Zm-3-5.68a16.66,16.66,0,1,1,6.94-3.08A16.54,16.54,0,0,1,697.33,344.57Zm-5.78-30.42a14.29,14.29,0,0,0-8.73,22.68,14.3,14.3,0,1,0,8.73-22.68Z"/><path class="cls-1" d="M684.88,315.86a15.48,15.48,0,1,0,21.69,3A15.47,15.47,0,0,0,684.88,315.86Z"/><path class="cls-2" d="M697.33,344.57h0a16.66,16.66,0,1,1,6.94-3.08A16.54,16.54,0,0,1,697.33,344.57Zm-5.78-30.42a14.29,14.29,0,0,0-8.73,22.68,14.3,14.3,0,1,0,8.73-22.68Z"/><path class="cls-3" d="M678.79,264V27A25.6,25.6,0,0,0,653.19,1.4h-402A25.59,25.59,0,0,0,225.62,27V264Z"/><path class="cls-4" d="M678.79,265.44H225.62a1.41,1.41,0,0,1-1.41-1.41V27a27,27,0,0,1,27-27h402a27,27,0,0,1,27,27V264A1.41,1.41,0,0,1,678.79,265.44ZM227,262.63H677.38V27A24.22,24.22,0,0,0,653.19,2.8h-402A24.22,24.22,0,0,0,227,27Z"/><rect class="cls-1" x="225" y="264.03" width="454.4" height="38.91"/><path class="cls-4" d="M679.4,304.35H225a1.4,1.4,0,0,1-1.4-1.4V264a1.4,1.4,0,0,1,1.4-1.4H679.4a1.4,1.4,0,0,1,1.4,1.4V303A1.4,1.4,0,0,1,679.4,304.35Zm-453-2.81H678v-36.1H226.4Z"/><rect class="cls-5" x="241.68" y="18.07" width="421.05" height="229.28"/><path class="cls-4" d="M662.73,248.76h-421a1.4,1.4,0,0,1-1.4-1.4V18.07a1.4,1.4,0,0,1,1.4-1.4H662.73a1.4,1.4,0,0,1,1.4,1.4V247.36A1.4,1.4,0,0,1,662.73,248.76ZM243.08,246H661.33V19.48H243.08Z"/><polygon class="cls-3" points="520.29 361.31 384.11 361.31 392.45 302.95 511.96 302.95 520.29 361.31"/><path class="cls-4" d="M520.35,362.71H384.11a1.42,1.42,0,0,1-1.06-.49,1.43,1.43,0,0,1-.33-1.11l8.34-58.36a1.41,1.41,0,0,1,1.39-1.21H512a1.39,1.39,0,0,1,1.38,1.21l8.29,58a1.37,1.37,0,0,1,.12.58A1.4,1.4,0,0,1,520.35,362.71ZM385.73,359.9H518.68l-7.94-55.55H393.67Z"/><path class="cls-4" d="M484.19,284.89h-64a1.4,1.4,0,0,1,0-2.8h64a1.4,1.4,0,0,1,0,2.8Z"/><path class="cls-4" d="M452.2,291.65a1.4,1.4,0,0,1-1.4-1.4V276.73a1.41,1.41,0,0,1,2.81,0v13.52A1.41,1.41,0,0,1,452.2,291.65Z"/><path class="cls-1" d="M563.29,382.22c0-.29,0-.56,0-.84a20.06,20.06,0,0,0-20.07-20.07H361.14a20.07,20.07,0,0,0-20.07,20.07c0,.28,0,.55,0,.84Z"/><path class="cls-4" d="M563.29,383.62H341.11a1.41,1.41,0,0,1-1.4-1.34c0-.48,0-.69,0-.9a21.51,21.51,0,0,1,21.48-21.48H543.26a21.5,21.5,0,0,1,21.47,21.48c0,.22,0,.43,0,.64A1.67,1.67,0,0,1,563.29,383.62Zm-220.81-2.81H561.92a18.69,18.69,0,0,0-18.66-18.1H361.14A18.69,18.69,0,0,0,342.48,380.81Z"/><polygon class="cls-1" points="407.61 382.95 196.07 382.95 196.07 393.07 205.66 405.22 407.61 405.22 609.55 405.22 619.14 393.07 619.14 382.95 407.61 382.95"/><path class="cls-2" d="M609.55,406.3H205.66a1.09,1.09,0,0,1-.85-.41l-9.58-12.15a1.07,1.07,0,0,1-.23-.67V383a1.07,1.07,0,0,1,1.07-1.08H619.14a1.08,1.08,0,0,1,1.08,1.08v10.12a1.13,1.13,0,0,1-.23.67l-9.59,12.15A1.09,1.09,0,0,1,609.55,406.3Zm-403.37-2.16H609l9-11.44V384H197.15v8.67Z"/><line class="cls-1" x1="196.07" y1="393.07" x2="340.17" y2="393.07"/><path class="cls-2" d="M340.17,394.15H196.07a1.08,1.08,0,0,1,0-2.15h144.1a1.08,1.08,0,1,1,0,2.15Z"/><path class="cls-1" d="M358,393.07a4.13,4.13,0,1,1-4.13-4.12A4.13,4.13,0,0,1,358,393.07Z"/><path class="cls-2" d="M353.82,398.28a5.21,5.21,0,1,1,5.21-5.21A5.22,5.22,0,0,1,353.82,398.28Zm0-8.25a3,3,0,1,0,3.05,3A3,3,0,0,0,353.82,390Z"/><path class="cls-1" d="M374.76,393.07a4.13,4.13,0,1,1-4.13-4.12A4.13,4.13,0,0,1,374.76,393.07Z"/><path class="cls-2" d="M370.63,398.28a5.21,5.21,0,1,1,5.2-5.21A5.21,5.21,0,0,1,370.63,398.28Zm0-8.25a3,3,0,1,0,3.05,3A3,3,0,0,0,370.63,390Z"/><path class="cls-6" d="M212.85,376.9l-1.11-.86Z"/><path class="cls-6" d="M214.08,377.82h0l-.33-.23Z"/><path class="cls-6" d="M218.56,376.05l-1.08.83Z"/><path class="cls-6" d="M216.23,377.82l.32-.24-.32.23Z"/><path class="cls-2" d="M132.61,240.69a.69.69,0,0,0,0,.1A.69.69,0,0,1,132.61,240.69Z"/><path class="cls-2" d="M132.65,240.79a1.28,1.28,0,0,1,0,.27A1.28,1.28,0,0,0,132.65,240.79Z"/><path class="cls-2" d="M132.4,240.37a1,1,0,0,1,.21.32A1,1,0,0,0,132.4,240.37Z"/><polygon class="cls-2" points="130.11 241.13 130.56 241.58 130.56 242.21 131.64 242.21 131.64 241.13 130.11 241.13"/><path class="cls-2" d="M212.62,378.11h-.13l-.07,0h-.54a1,1,0,0,0,1.07,0Z"/><path class="cls-2" d="M213.25,377.91h0l0,0a1,1,0,0,1-.61.19H213l.1-.05Z"/><path class="cls-2" d="M212.21,378.11h0a1.43,1.43,0,0,1-.61-.17s0,0,0,0l.12.09a.2.2,0,0,1,.08,0Z"/><path class="cls-2" d="M211.21,377l-.91,0,1.3.94,0,0A1.21,1.21,0,0,1,211.21,377Z"/><path class="cls-2" d="M212.25,378.11h.17l.07,0h-.12Z"/><path class="cls-2" d="M211.34,377v0h-.13a1.21,1.21,0,0,0,.43.93,1.43,1.43,0,0,0,.61.17l.12,0A1.22,1.22,0,0,1,211.34,377Z"/><path class="cls-2" d="M211.24,376.74a.83.83,0,0,0,0,.27h.13v-.47A1.24,1.24,0,0,0,211.24,376.74Z"/><path class="cls-2" d="M213.26,377.9l1.27-.92-.88,0A1,1,0,0,1,213.26,377.9Z"/><path class="cls-2" d="M212.49,378.1h0Z"/><path class="cls-2" d="M213.65,377h-.16v0a1.07,1.07,0,0,1-1,1.06h.11a1,1,0,0,0,.61-.19l0,0A1,1,0,0,0,213.65,377Z"/><path class="cls-2" d="M213.65,377a1.65,1.65,0,0,0-.06-.32.54.54,0,0,0-.1-.16V377Z"/><path class="cls-2" d="M213.49,376.53v-.13l-.05,0A.26.26,0,0,1,213.49,376.53Z"/><path class="cls-2" d="M211.34,376.4v.14l0-.1Z"/><path class="cls-2" d="M212.41,378.08h.1Z"/><path class="cls-2" d="M213.24,377.36a1.06,1.06,0,0,1-.83.72l.1,0a1.07,1.07,0,0,0,1-1.06v0h-.2A1,1,0,0,1,213.24,377.36Z"/><path class="cls-2" d="M213.2,376.61a1.16,1.16,0,0,1,.09.41h.2v-.48a.26.26,0,0,0-.05-.09Z"/><path class="cls-2" d="M211.59,377.36a1,1,0,0,1-.05-.34h-.2v0a1.22,1.22,0,0,0,1,1h0A1.06,1.06,0,0,1,211.59,377.36Z"/><path class="cls-2" d="M213.24,377.36a1,1,0,0,0,0-.34l-.67,0-.2.14-.21-.14-.67,0a1,1,0,0,0,.05.34.83.83,0,0,0,1.65,0Z"/><path class="cls-2" d="M213.29,377a1.16,1.16,0,0,0-.09-.41l-.58.43Z"/><path class="cls-2" d="M211.63,376.61l-.24-.17,0,.1V377h.2A1.16,1.16,0,0,1,211.63,376.61Z"/><path class="cls-2" d="M211.54,377l.67,0-.58-.43A1.16,1.16,0,0,0,211.54,377Z"/><path class="cls-2" d="M212.21,377l.21.14.2-.14h-.41Z"/><polygon class="cls-2" points="212.42 375.85 212.42 375.85 212.41 375.85 212.42 375.85"/><path class="cls-2" d="M212.21,376v0l.2-.14-1.08-.78h0v1.32l0,0A1,1,0,0,1,212.21,376Z"/><path class="cls-2" d="M212.22,376l.17.79,0,0v-.89h0Z"/><path class="cls-2" d="M212,376.15l.22-.16v0a1,1,0,0,0-.82.48l.24.17A1.16,1.16,0,0,1,212,376.15Z"/><path class="cls-2" d="M212.42,376.74l0,0-.17-.79-.22.16a1.16,1.16,0,0,0-.37.46l.58.43h.21Z"/><path class="cls-2" d="M213.49,375.07l-1.07.78h0l.17.13a1.22,1.22,0,0,1,.85.46l.05,0v-1.32Z"/><path class="cls-2" d="M212.44,376.71l0-.75.11,0-.17-.13v.89Z"/><path class="cls-2" d="M213.2,376.61l.24-.17a1.22,1.22,0,0,0-.85-.46l.24.17A1.16,1.16,0,0,1,213.2,376.61Z"/><path class="cls-2" d="M212.44,376.71l0,0v.3h.2l.58-.43a1.16,1.16,0,0,0-.37-.46l-.24-.17-.11,0Z"/><rect class="cls-3" x="92.18" y="135.22" width="144.22" height="230.5"/><path class="cls-2" d="M91.11,365.72V135.22a1.07,1.07,0,0,1,1.07-1.07H236.4a1.06,1.06,0,0,1,1.06,1.07v230.5a1.06,1.06,0,0,1-1.06,1.07H92.18A1.07,1.07,0,0,1,91.11,365.72Zm2.14-229.44V364.65H235.33V136.28Z"/><rect class="cls-7" x="102.14" y="151.13" width="124.31" height="198.68"/><path class="cls-2" d="M101.22,349.81V151.13a.92.92,0,0,1,.92-.92h124.3a.92.92,0,0,1,.92.92V349.81a.92.92,0,0,1-.92.92H102.14A.92.92,0,0,1,101.22,349.81Zm1.84-197.76V348.89H225.52V152.05Z"/><circle class="cls-8" cx="164.29" cy="357.27" r="5.21"/><polygon class="cls-1" points="684.04 220.91 580.72 220.91 580.72 213.24 580.72 209.26 585.03 203.4 591.42 199.07 671.7 199.07 681.87 206.74 684.04 220.91"/><path class="cls-2" d="M684,222.06H580.72a1.15,1.15,0,0,1-1.15-1.15v-7.24a14.94,14.94,0,0,1,14.93-14.92h75.76a14.93,14.93,0,0,1,14.92,14.92v7.24A1.14,1.14,0,0,1,684,222.06Zm-102.17-2.29h101v-6.1A12.65,12.65,0,0,0,670.26,201H594.5a12.65,12.65,0,0,0-12.63,12.63Z"/><path class="cls-2" d="M670.26,380.06H594.5a14.94,14.94,0,0,1-14.93-14.92v-10.3a1.16,1.16,0,0,1,1.15-1.15H684a1.15,1.15,0,0,1,1.14,1.15v10.3A14.93,14.93,0,0,1,670.26,380.06ZM581.87,356v9.15a12.65,12.65,0,0,0,12.63,12.63h75.76a12.65,12.65,0,0,0,12.63-12.63V356Z"/><rect class="cls-9" x="580.72" y="220.91" width="103.31" height="133.93"/><path class="cls-2" d="M684,356H580.72a1.15,1.15,0,0,1-1.15-1.15V220.91a1.15,1.15,0,0,1,1.15-1.14H684a1.14,1.14,0,0,1,1.14,1.14V354.84A1.14,1.14,0,0,1,684,356Zm-102.17-2.3h101V222.06h-101Z"/><rect class="cls-10" x="618.13" y="362.93" width="28.51" height="7.9"/><path class="cls-2" d="M646.63,372h-28.5a1.15,1.15,0,0,1-1.15-1.15v-7.9a1.15,1.15,0,0,1,1.15-1.15h28.5a1.15,1.15,0,0,1,1.15,1.15v7.9A1.15,1.15,0,0,1,646.63,372Zm-27.36-2.3h26.21v-5.6H619.27Z"/><path class="cls-2" d="M658.58,368h-12a1.15,1.15,0,0,1,0-2.3h12a1.15,1.15,0,0,1,0,2.3Z"/><path class="cls-2" d="M618.13,368h-12a1.15,1.15,0,0,1,0-2.3h12a1.15,1.15,0,0,1,0,2.3Z"/><path class="cls-2" d="M648.33,211.55h-31.9a1.15,1.15,0,1,1,0-2.29h31.9a1.15,1.15,0,1,1,0,2.29Z"/><path class="cls-2" d="M656.86,216.64a1.14,1.14,0,0,1-1.15-1.15V205.32a1.15,1.15,0,1,1,2.29,0v10.17A1.14,1.14,0,0,1,656.86,216.64Z"/><path class="cls-2" d="M665.08,216.64a1.15,1.15,0,0,1-1.15-1.15V205.32a1.15,1.15,0,1,1,2.3,0v10.17A1.14,1.14,0,0,1,665.08,216.64Z"/><rect class="cls-11" x="655.37" y="232.83" width="17.12" height="113.41"/><rect class="cls-11" x="623.82" y="310.16" width="17.12" height="36.08"/><path class="cls-1" d="M553,171.36H262.23a14.85,14.85,0,0,0-14.85,14.85V383H567.83V186.21A14.85,14.85,0,0,0,553,171.36Z"/><path class="cls-2" d="M567.83,384H247.38A1.09,1.09,0,0,1,246.3,383V186.21a16,16,0,0,1,15.93-15.93H553a16,16,0,0,1,15.93,15.93V383A1.08,1.08,0,0,1,567.83,384Zm-319.37-2.16H566.75V186.21A13.78,13.78,0,0,0,553,172.44H262.23a13.78,13.78,0,0,0-13.77,13.77Z"/><rect class="cls-12" x="261.35" y="184.97" width="293.23" height="184.37"/><path class="cls-12" d="M554.58,370.42H261.35a1.07,1.07,0,0,1-1.07-1.08V185a1.07,1.07,0,0,1,1.07-1.08H554.58a1.08,1.08,0,0,1,1.08,1.08V369.34A1.08,1.08,0,0,1,554.58,370.42Zm-292.15-2.16H553.5V186.05H262.43Z"/></g></g></svg>