<svg version="1" xmlns="http://www.w3.org/2000/svg" width="933.333" height="933.333" viewBox="0 0 700.000000 700.000000"><path d="M211.9 90.4c-.2.2-2.2.6-4.4.9-2.2.3-4.7.8-5.5 1-23.7 6.1-42.7 21.4-53 42.6-5.9 12-7.4 19.3-7.4 34.6.1 12.2.4 15.1 2.7 22.7 2.3 7.5 3.8 10.9 9.1 20.2 3.7 6.6 14.9 18 22.6 23.1 20.6 13.6 43 17.1 66.5 10.3 16.9-4.9 27.9-12.5 43-29.8 16.1-18.4 41.6-29.2 68.5-29.2 25.9.1 52.4 11.9 68 30.4 13.7 16.2 26.2 24.5 45 29.4 7.1 1.9 10.6 2.2 21 2 13.6-.3 20.5-1.8 30.8-6.6 42.5-19.8 59.1-70 36.6-110.9-20.5-37.2-66.9-51.5-104.9-32.4-10.3 5.2-15.9 9.5-23.4 17.8-18 20.1-30.4 28.1-52.6 33.7-30.7 7.7-68.4-3.4-88.2-26-8-9.1-11.5-12.7-17.3-17.3-12.4-10-28.7-15.8-46.1-16.5-5.8-.2-10.7-.2-11 0z"/><path d="M77.5 223.8c-35.4 3.3-64.9 30.1-71.6 64.7-1.4 7.1-1.3 21.8.1 29.5 1.7 9.4 6.5 21.1 12.1 29.4 5.4 8.2 16.7 19.4 23 22.8 2.3 1.3 5.6 3.1 7.3 4 5.7 3.2 14 6 21.6 7.3 17.9 3.1 33.5.6 51.3-8.3 8.8-4.4 14.3-9.2 30.7-26.6 11.7-12.4 28.4-21.1 48.5-25.1 5.3-1.1 22.8-1.3 30-.3 10 1.3 25.2 6.8 34.6 12.4 8.2 4.9 16 11.9 27.9 25.1 3.6 4 6.9 7.2 7.4 7.3.6 0 1.9.9 3 1.9 3.1 2.8 17.3 9.7 24.1 11.6 8.3 2.4 12.6 2.9 22.5 2.9 11.5 0 17.5-1.1 28.3-5.1 24.1-8.9 43.7-32.2 49.1-58.3 2.5-11.9 1.6-28.2-2.1-39.6-12.1-37-47.2-59.6-85.3-55.1-8.5 1-17.5 3.8-27 8.5-8.8 4.3-10.6 5.8-24.5 19.7-8.2 8.3-17.7 16.8-21 19-6.8 4.5-19.3 10.1-24.4 11-1.9.3-3.7.8-4.1 1-2.9 1.8-20.2 3.1-30.3 2.2-26.5-2.2-47.1-13.5-66.2-36.1-14.1-16.8-42.3-28-65-25.8zM613.8 223.5c-.2.1-3.4.5-7.3.9-23.1 2-45.2 15.6-57.9 35.4-4.7 7.4-10 19.5-11.1 25.7-.4 2.2-1 5.3-1.2 7-.8 4.4-.7 16.2.1 22.4 2.6 19 13.9 38.5 29.2 50.6 22.4 17.7 50.5 22 78 12.1 25.2-9.2 45.1-33.5 50.1-61.1.4-2.2.7-8.7.6-14.5-.2-21.1-7.6-38.9-22.7-54.4-12.4-12.8-29.8-21.4-46.6-23.2-3-.3-6.7-.7-8.2-.8-1.5-.2-2.9-.2-3-.1z"/><path d="M206.4 358.5c-38.5 6.8-67 42.3-65.1 81 .8 14.9 3.3 24.4 9.4 35.5 21.2 38.5 68.5 52.6 107.1 31.9 8.4-4.4 14.8-9.4 20.7-15.8 11.6-12.9 14.5-15.7 20.2-19.8 8.2-5.9 18.5-10.8 29.1-13.9 10.8-3.2 32.6-4.2 43.2-1.9 20.1 4.4 36.1 13.1 48.3 26.2 12.5 13.5 17.7 18.7 17.7 17.8 0-.5.6-.1 1.3.8 2.1 2.8 14.9 9.4 23.5 12.1 20.1 6.3 38.7 5.2 58.1-3.6 11.7-5.3 24.1-16 31.8-27.3 29.7-44 9-103.8-41.6-120.4-8.7-2.8-13.9-3.5-25.6-3.4-12.7.1-23 2.7-35.4 9-9.6 4.9-14.3 8.9-30.6 26.2-12.4 13.1-26.8 20.7-49 25.8-1.1.2-7.2.6-13.5.7-12 .4-24-1.2-32-4.1-19-6.9-28.6-13.7-45.5-32.4-10.8-11.9-25-19.9-42.5-24-6.8-1.6-21.6-1.8-29.6-.4zM142.5 608.7c-12.7 1.9-19.5 4.8-27.1 11.7-10.5 9.4-15.9 26-12.9 39.6 6.4 29.2 39.9 43.1 65 27.1 4.3-2.8 7.2-5.6 11.3-10.9 2.4-3.2 2.4-3.3.6-4.7-2.9-2.2-3.9-1.8-7 2.2-3.8 5-5.9 6.7-12.1 9.8-23.3 11.6-51.3-5.2-51.6-31-.2-9 1.5-14.6 6.2-21.4 10.3-15.1 30.1-19.9 46.6-11.3 4.3 2.2 10 7.3 12.5 11.1 1.4 2 1.8 2.2 4.3 1 1.5-.7 2.7-1.5 2.7-1.9 0-1.2-5.1-7.5-8.8-10.7-7.3-6.5-22-11.7-29.7-10.6zM65.3 610.3c-.5.8-.8 75-.4 81.5.1.9 1.2 1.2 3.3 1l3.2-.3.1-40.8c0-22.5-.2-41.2-.5-41.5-.8-1.1-5-1-5.7.1zM227 610c-.6.4-3.3 6.7-6 14.1-15.5 42.9-18.5 51.3-21.6 59.6L196 693h7.5l3.5-10 3.4-10h39.1l3.5 10c3.4 9.9 3.4 10 6.7 10 1.8 0 3.3-.3 3.3-.7 0-.8-3.8-11.9-5-14.8-.8-2-16.2-44.4-21.5-59.7-2.4-6.8-3-7.6-5.6-8-1.6-.3-3.3-.1-3.9.2zm6.2 16.7c1.5 4.3 5 14.3 7.8 22.3 2.9 8 5.3 15.2 5.4 16 .1 1.2-2.6 1.4-16.6 1.5-9.3 0-16.8-.2-16.8-.6 0-.3 3-8.8 6.6-19 3.6-10.1 7.3-20.5 8.2-23.2.8-2.6 1.8-4.7 2.1-4.7.4 0 1.9 3.5 3.3 7.7zM287.9 609.7c-1.5.4-1.6 4.4-1.6 41.8V693H293l.2-35.3.3-35.4 26.5 35.3c24.6 32.7 26.7 35.3 29.6 35.3l3 .1v-41.1c-.1-40.8-.1-41.2-2.2-41.9-1.1-.5-2.6-.5-3.2-.1-.8.5-1.2 10.7-1.4 35.7l-.3 35-26.5-35.2c-14.6-19.4-27.2-35.4-28-35.6-.8-.2-2.2-.2-3.1-.1zM373.5 610.1c-.2.3.3 2.8 1.1 5.5.9 2.7 3.7 12.3 6.4 21.4 2.7 9.1 7.5 25.4 10.7 36.2l5.8 19.8h15.1l9-32.9c4.9-18.1 9.2-32.4 9.5-31.7.4.6 4.4 14.6 8.9 31.1 4.6 16.5 8.5 30.8 8.8 31.7.4 1.5 1.7 1.8 8.2 1.8h7.8l1.2-4.8c.7-2.6 1.4-5.2 1.5-5.7.2-.6 1.9-6.6 4-13.5 2-6.9 4.8-16.3 6.2-21 1.3-4.7 4-13.9 6-20.5 1.9-6.6 3.6-12.8 3.8-13.8.2-.9.7-2.2 1-2.7.7-1.1.5-1.2-5-1.2-9 0-9.3.1-9.9 2.9-1.9 7.8-17 59.3-17.3 58.9-.2-.2-3.1-10-6.4-21.7-3.3-11.8-6.7-23.7-7.5-26.4-.7-2.8-1.9-6.9-2.5-9.3-.7-2.7-1.7-4.2-2.8-4.3-11-.5-13.3-.3-14 1.1-.5.8-4.6 14.9-9.2 31.3-4.6 16.5-8.5 29.3-8.8 28.5-.3-.7-4.3-14.7-9.1-31.2l-8.6-29.8-6.8-.2c-3.7 0-7 .2-7.1.5zM511.9 609.8l-3.6.3V693H556v-5.9c0-4.8-.3-5.9-1.7-6.3-1-.2-8.5-.3-16.8-.3l-15 .1-.5-7.5c-.3-4.2-.4-9.4-.2-11.6l.4-4 13.1.1c7.3.1 13.9 0 14.8-.2 1.2-.3 1.5-1.7 1.4-6.2l-.2-5.7-14.9-.5-14.9-.5.2-2.5c0-1.4.1-6.4.2-11.3l.1-8.7h34v-6c0-5.5-.2-6-2.2-6.1-8.5-.3-39-.3-41.9-.1zM585.8 609.8l-2.6.3v83.1l21.6-.4c19.9-.3 22-.5 25.7-2.5 8.4-4.5 12.5-11.7 12-20.9-.4-7.7-4.2-13.6-10.7-17l-3.2-1.6 2.5-1.3c5.5-2.9 8.9-10.4 8.4-18.8-.5-9.5-6.8-17.4-15.9-19.8-3.7-1-31.5-1.8-37.8-1.1zm31.9 13.1c1.2 0 3.5 1.5 5.2 3.2 4.1 4 4.3 9.7.6 14.5-2.9 3.9-5.9 4.6-18.2 4.8l-8.3.1-.1-2.7V634v-8.8l.1-2.8 9.3.2c5 .1 10.2.2 11.4.3zm4.8 35.8c3.6 2 5.7 5.2 6.2 9.3.6 5.2-3 10.5-7.9 11.6-4.8 1.1-22.9 1.1-23.6 0-.4-.8-.6-10.9-.3-19.7l.1-2.6 11.8.1c6.4.1 12.6.7 13.7 1.3z"/></svg>