<svg xmlns="http://www.w3.org/2000/svg" viewBox="0 0 368 337.19"><defs><style>.cls-1{fill:#d1d2d3;}.cls-2{fill:#6d6d70;}.cls-13,.cls-3{fill:#fff;}.cls-10,.cls-11,.cls-12,.cls-3,.cls-5,.cls-8,.cls-9{stroke:#242122;stroke-linejoin:round;}.cls-10,.cls-11,.cls-3,.cls-5,.cls-8{stroke-width:6px;}.cls-4{fill:#bbbcbf;}.cls-5{fill:#6595cc;}.cls-6{fill:#5f8ab9;}.cls-7{fill:#88898b;}.cls-12,.cls-8{fill:none;}.cls-9{fill:#929396;}.cls-12,.cls-9{stroke-width:5.86px;}.cls-10,.cls-14{fill:#f1f2f1;}.cls-11,.cls-15{fill:#ebc74f;}</style></defs><title>Asset 8</title><g id="Layer_2" data-name="Layer 2"><g id="Слой_1" data-name="Слой 1"><rect class="cls-1" x="145" y="276.19" width="69" height="45"/><path class="cls-2" d="M339,81.44c0-9.49-8-18.25-17.88-18.25H38.51C28.6,63.19,19,72,19,81.44V225.19H339Z"/><path class="cls-3" d="M19,225.19v35.66c0,9.49,9.6,15.34,19.51,15.34H321.12c9.91,0,17.88-5.85,17.88-15.34V225.19Z"/><path class="cls-4" d="M190.91,250.14a11.09,11.09,0,1,1-11.09-11.09A11.1,11.1,0,0,1,190.91,250.14Z"/><rect class="cls-3" x="132" y="321.19" width="94" height="13"/><rect class="cls-5" x="40" y="82.19" width="278" height="143"/><rect class="cls-6" x="59" y="102.19" width="242" height="36"/><rect class="cls-6" x="59" y="147.19" width="160" height="31"/><rect class="cls-6" x="235" y="147.19" width="64" height="31"/><rect class="cls-6" x="59" y="188.19" width="240" height="15"/><path class="cls-7" d="M180.27,82h10.87c0-23,19.74-39.37,19.74-39.37L180.27.25,149.65,42.7S169.39,59,169.39,82Z"/><line class="cls-8" x1="179.99" x2="179.99" y2="38"/><path class="cls-9" d="M187.34,47.47c0,4.55-3.1,8.23-6.92,8.23S173.5,52,173.5,47.47s3.1-8.22,6.92-8.22S187.34,42.93,187.34,47.47Z"/><rect class="cls-10" x="163.73" y="209.41" width="32.98" height="15.78"/><polygon class="cls-11" points="196.71 97.31 194.26 97.31 194.26 84.86 166.17 84.86 166.17 97.31 163.73 97.31 163.73 209.41 196.71 209.41 196.71 97.31"/><line class="cls-8" x1="171.17" y1="74.93" x2="189.67" y2="74.93"/><rect class="cls-3" x="3" y="102.19" width="129" height="99"/><rect class="cls-1" x="14.63" y="114.44" width="106.8" height="76.55"/><polyline class="cls-12" points="13.8 164.51 58.15 142.28 101.53 166.4"/><polyline class="cls-12" points="82.97 156.09 99.07 142.28 121.12 156.09"/><path class="cls-13" d="M87.31,128.8a10.05,10.05,0,1,1-10-9.7A9.88,9.88,0,0,1,87.31,128.8Z"/><rect class="cls-10" x="226" y="104.19" width="139" height="34"/><rect class="cls-14" x="226" y="150.19" width="73" height="48"/><rect class="cls-15" x="311" y="150.19" width="54" height="48"/><line class="cls-8" x1="233" y1="159.19" x2="267" y2="159.19"/><line class="cls-8" x1="233" y1="173.19" x2="290" y2="173.19"/><line class="cls-8" x1="233" y1="188.19" x2="290" y2="188.19"/><line class="cls-8" x1="277" y1="125.19" x2="286" y2="125.19"/><line class="cls-8" x1="290" y1="125.19" x2="299" y2="125.19"/><line class="cls-8" x1="305" y1="125.19" x2="314" y2="125.19"/><line class="cls-12" x1="317.08" y1="155.35" x2="358.94" y2="192.97"/><line class="cls-12" x1="319.2" y1="195.09" x2="356.82" y2="153.23"/></g></g></svg>