<svg xmlns="http://www.w3.org/2000/svg" viewBox="0 0 368 308.71"><defs><style>.cls-1,.cls-3{fill:#fff;}.cls-2{fill:#6d6d70;}.cls-12,.cls-13,.cls-3,.cls-5,.cls-8,.cls-9{stroke:#242122;stroke-linejoin:round;}.cls-12,.cls-13,.cls-3,.cls-5,.cls-9{stroke-width:6px;}.cls-13,.cls-4{fill:#bbbcbf;}.cls-5{fill:#6595cc;}.cls-6{fill:#5f8ab9;}.cls-7{fill:#d1d2d3;}.cls-12,.cls-8{fill:none;}.cls-8{stroke-width:5.86px;}.cls-10,.cls-9{fill:#f1f2f1;}.cls-11{fill:#ebc74f;}</style></defs><title>Asset 5</title><g id="Layer_2" data-name="Layer 2"><g id="Слой_1" data-name="Слой 1"><rect class="cls-1" x="145" y="247.71" width="69" height="45"/><path class="cls-2" d="M339,53c0-9.49-8-18.25-17.88-18.25H38.51C28.6,34.71,19,43.47,19,53V196.71H339Z"/><path class="cls-3" d="M19,196.71v35.66c0,9.49,9.6,15.34,19.51,15.34H321.12c9.91,0,17.88-5.85,17.88-15.34V196.71Z"/><path class="cls-4" d="M190.91,221.66a11.09,11.09,0,1,1-11.09-11.09A11.1,11.1,0,0,1,190.91,221.66Z"/><rect class="cls-3" x="132" y="292.71" width="94" height="13"/><rect class="cls-5" x="40" y="53.71" width="278" height="143"/><rect class="cls-6" x="59" y="73.71" width="242" height="36"/><rect class="cls-6" x="59" y="118.71" width="160" height="31"/><rect class="cls-6" x="235" y="118.71" width="64" height="31"/><rect class="cls-6" x="59" y="159.71" width="240" height="15"/><rect class="cls-3" x="3" y="75.71" width="122" height="97"/><rect class="cls-7" x="14" y="87.71" width="101" height="75"/><polyline class="cls-8" points="13.22 136.77 55.16 114.99 96.18 138.63"/><polyline class="cls-8" points="78.63 128.51 93.86 114.99 114.71 128.51"/><path class="cls-1" d="M82.74,101.78a9.51,9.51,0,1,1-9.5-9.5A9.5,9.5,0,0,1,82.74,101.78Z"/><rect class="cls-9" x="226" y="75.71" width="139" height="34"/><rect class="cls-10" x="226" y="121.71" width="73" height="48"/><rect class="cls-11" x="311" y="121.71" width="54" height="48"/><line class="cls-12" x1="233" y1="130.71" x2="267" y2="130.71"/><line class="cls-12" x1="233" y1="144.71" x2="290" y2="144.71"/><line class="cls-12" x1="233" y1="159.71" x2="290" y2="159.71"/><line class="cls-12" x1="277" y1="96.71" x2="286" y2="96.71"/><line class="cls-12" x1="290" y1="96.71" x2="299" y2="96.71"/><line class="cls-12" x1="305" y1="96.71" x2="314" y2="96.71"/><line class="cls-8" x1="317.08" y1="126.87" x2="358.94" y2="164.49"/><line class="cls-8" x1="319.2" y1="166.61" x2="356.82" y2="124.75"/><path class="cls-11" d="M214.65,36.14A36.23,36.23,0,0,0,178.4,0c-20,0-35.59,16.18-35.59,36.14,0,15.88,9.5,29.35,25,34.2V96h22.58V70.34C203.81,65.49,214.65,52,214.65,36.14Z"/><rect class="cls-13" x="167.83" y="95.96" width="22.57" height="14.11"/><line class="cls-12" x1="178.42" y1="95.96" x2="178.42" y2="36"/><line class="cls-12" x1="172.77" y1="36" x2="184.76" y2="36"/><path class="cls-8" d="M162.15,17.68s-12.23,8.55-7.57,24.87"/></g></g></svg>