<svg xmlns="http://www.w3.org/2000/svg" viewBox="0 0 413.48 395"><defs><style>.cls-1,.cls-16{fill:#ebc74f;}.cls-11,.cls-2{fill:#bbbcbf;}.cls-10,.cls-12,.cls-14,.cls-15,.cls-16,.cls-17,.cls-2,.cls-3,.cls-4,.cls-6{stroke:#242122;stroke-linejoin:round;}.cls-10,.cls-12,.cls-15,.cls-16,.cls-17,.cls-2,.cls-3,.cls-6{stroke-width:6px;}.cls-3,.cls-4{fill:none;}.cls-14,.cls-4{stroke-width:5.86px;}.cls-5{fill:#68ad8d;}.cls-6,.cls-8{fill:#d1d2d3;}.cls-7{fill:#a6a7aa;}.cls-9{fill:#6d6d70;}.cls-10,.cls-18{fill:#fff;}.cls-12{fill:#6595cc;}.cls-13{fill:#5f8ab9;}.cls-14,.cls-17{fill:#929396;}.cls-15,.cls-19{fill:#f1f2f1;}</style></defs><title>Asset 7</title><g id="Layer_2" data-name="Layer 2"><g id="Слой_1" data-name="Слой 1"><path class="cls-1" d="M101.84,91.2A51.36,51.36,0,0,0,50.45,40C22.16,40,0,62.9,0,91.2c0,22.51,13.48,41.61,35.48,48.48V176h32V139.68C86.48,132.81,101.84,113.71,101.84,91.2Z"/><rect class="cls-2" x="35.48" y="176" width="32" height="20"/><line class="cls-3" x1="50.48" y1="176" x2="50.48" y2="91"/><line class="cls-3" x1="42.48" y1="91" x2="59.48" y2="91"/><path class="cls-4" d="M27.43,65S10.08,77.15,16.69,100.28"/><path class="cls-5" d="M371.73,51h-1.41a25.27,25.27,0,0,0-23.27,15.06,25.62,25.62,0,0,0-23.33-15.29,25.88,25.88,0,0,0-19,9A25,25,0,0,0,287,53h-9.88c-14,0-25.64,10.48-25.64,24.52V207.44A25.73,25.73,0,0,0,277.12,233H287a25.59,25.59,0,0,0,25.48-25.56V159.58a24.73,24.73,0,0,0,11.44,2.67c13.88,0,25.56-11.25,25.56-25.14v-1.77c4,6.86,12,10.66,20.84,10.66h1.41a24.24,24.24,0,0,0,24.75-24.7V76.11C396.48,62.07,385.78,51,371.73,51Z"/><rect class="cls-6" x="252.48" y="34" width="144" height="36"/><polyline class="cls-3" points="396.48 53 410.48 53 410.48 101 324.48 101 324.48 180"/><rect class="cls-7" x="309.48" y="154" width="29" height="60"/><line class="cls-3" x1="309.48" y1="170" x2="327.48" y2="170"/><line class="cls-3" x1="309.48" y1="183" x2="327.48" y2="183"/><line class="cls-3" x1="309.48" y1="198" x2="327.48" y2="198"/><line class="cls-3" x1="311.48" y1="47" x2="322.48" y2="47"/><line class="cls-3" x1="330.48" y1="47" x2="385.48" y2="47"/><line class="cls-3" x1="110.48" y1="13" x2="306.48" y2="13"/><rect class="cls-8" x="171.48" y="334" width="69" height="45"/><path class="cls-9" d="M365.48,139.25c0-9.49-8-18.25-17.88-18.25H65c-9.91,0-19.51,8.76-19.51,18.25V283h320Z"/><path class="cls-10" d="M45.48,283v35.66c0,9.49,9.6,15.34,19.51,15.34H347.6c9.9,0,17.88-5.85,17.88-15.34V283Z"/><path class="cls-11" d="M217.38,308a11.09,11.09,0,1,1-11.09-11.09A11.09,11.09,0,0,1,217.38,308Z"/><rect class="cls-10" x="158.48" y="379" width="94" height="13"/><rect class="cls-12" x="66.48" y="140" width="278" height="143"/><rect class="cls-13" x="85.48" y="160" width="242" height="36"/><rect class="cls-13" x="85.48" y="205" width="160" height="31"/><rect class="cls-13" x="261.48" y="205" width="64" height="31"/><rect class="cls-13" x="85.48" y="246" width="240" height="15"/><path class="cls-8" d="M206.59,114h10.88c0-23,19.74-39.37,19.74-39.37L206.59,32.25,176,74.7S195.72,91,195.72,114Z"/><line class="cls-3" x1="206.32" y1="32" x2="206.32" y2="70"/><path class="cls-14" d="M213.66,79.47c0,4.55-3.1,8.23-6.92,8.23s-6.91-3.68-6.91-8.23,3.09-8.22,6.91-8.22S213.66,74.93,213.66,79.47Z"/><rect class="cls-15" x="190.21" y="264" width="32.98" height="19"/><polygon class="cls-16" points="223.18 129 220.74 129 220.74 114 192.65 114 192.65 129 190.21 129 190.21 264 223.18 264 223.18 129"/><line class="cls-3" x1="186.13" y1="129" x2="204.63" y2="129"/><rect class="cls-17" x="198.48" y="4" width="19" height="18"/><rect class="cls-17" x="306.48" y="3" width="19" height="17"/><rect class="cls-17" x="89.48" y="4" width="21" height="18"/><path class="cls-4" d="M198,13.26s-76.84-.48-76.84,76.85"/><path class="cls-4" d="M217.24,13.26s76.84-.48,76.84,76.85"/><rect class="cls-17" x="111.48" y="79" width="19" height="19"/><rect class="cls-17" x="283.48" y="80" width="20" height="18"/><rect class="cls-10" x="29.48" y="160" width="129" height="99"/><rect class="cls-8" x="41.11" y="172.25" width="106.8" height="76.55"/><polyline class="cls-4" points="40.28 222.32 84.63 200.09 128 224.21"/><polyline class="cls-4" points="109.45 213.9 125.55 200.09 147.6 213.9"/><path class="cls-18" d="M113.79,186.61a10.06,10.06,0,1,1-10.05-9.7A9.88,9.88,0,0,1,113.79,186.61Z"/><rect class="cls-15" x="252.48" y="162" width="139" height="34"/><rect class="cls-19" x="252.48" y="208" width="73" height="48"/><rect class="cls-1" x="337.48" y="208" width="54" height="48"/><line class="cls-3" x1="259.48" y1="217" x2="293.48" y2="217"/><line class="cls-3" x1="259.48" y1="231" x2="316.48" y2="231"/><line class="cls-3" x1="259.48" y1="246" x2="316.48" y2="246"/><line class="cls-3" x1="303.48" y1="183" x2="312.48" y2="183"/><line class="cls-3" x1="316.48" y1="183" x2="325.48" y2="183"/><line class="cls-3" x1="331.48" y1="183" x2="340.48" y2="183"/><line class="cls-4" x1="343.56" y1="213.16" x2="385.42" y2="250.78"/><line class="cls-4" x1="345.67" y1="252.9" x2="383.3" y2="211.04"/><line class="cls-3" x1="252.48" y1="70" x2="252.48" y2="99"/><line class="cls-3" x1="252.48" y1="105" x2="252.48" y2="113"/></g></g></svg>