<svg xmlns="http://www.w3.org/2000/svg" viewBox="0 0 443 344.23" class="about-teacher-bgn"><defs><style>.about-teacher-bgn {fill-opacity:0.4; stroke-opacity:0.4;}.cls-1,.cls-10,.cls-13{fill:none;}.cls-1,.cls-10,.cls-13,.cls-4,.cls-6,.cls-9{stroke:#242122;stroke-linejoin:round;}.cls-1,.cls-13{stroke-width:5.86px;}.cls-1{stroke-dasharray:10.26 10.26;}.cls-2{fill:#f1f2f1;}.cls-3{fill:#6d6d70;}.cls-11,.cls-4{fill:#fff;}.cls-10,.cls-4,.cls-6,.cls-9{stroke-width:6px;}.cls-5{fill:#bbbcbf;}.cls-6,.cls-8{fill:#6595cc;}.cls-7{fill:#5f8ab9;}.cls-12,.cls-9{fill:#d1d2d3;}</style></defs><title>Asset 2</title><g id="Layer_2" data-name="Layer 2"><g id="Слой_1" data-name="Слой 1"><path class="cls-1" d="M134.76,61.73A58.8,58.8,0,1,1,76,2.93,58.8,58.8,0,0,1,134.76,61.73Z"/><rect class="cls-2" x="189" y="278.23" width="75" height="50"/><path class="cls-3" d="M397,68c0-10.24-7.9-19.74-18.58-19.74H73.53C62.85,48.23,53,57.73,53,68V222.23H397Z"/><path class="cls-4" d="M53,222.23v39.29c0,10.24,9.85,16.71,20.53,16.71H378.42c10.68,0,18.58-6.47,18.58-16.71V222.23Z"/><path class="cls-5" d="M237.94,250a12,12,0,1,1-12-12A12,12,0,0,1,237.94,250Z"/><rect class="cls-4" x="175" y="328.23" width="101" height="13"/><rect class="cls-6" x="75" y="70.23" width="300" height="152"/><rect class="cls-7" x="97" y="89.23" width="259" height="40"/><rect class="cls-7" x="97" y="139.23" width="171" height="33"/><rect class="cls-7" x="284" y="139.23" width="71" height="33"/><rect class="cls-7" x="97" y="183.23" width="258" height="16"/><path class="cls-4" d="M236,170.8v-30c0-2.77-1-3.53-3.72-3.53H202.22c-2.76,0-7.22.76-7.22,3.53v4.47H85v22H195v3.57c0,2.77,4.46,6.43,7.22,6.43h30.06C235,177.23,236,173.57,236,170.8Z"/><rect class="cls-8" y="137.23" width="66" height="40"/><rect class="cls-9" x="66" y="124.23" width="19" height="63"/><line class="cls-10" x1="46" y1="153.23" x2="46" y2="137.23"/><line class="cls-10" x1="28" y1="153.23" x2="28" y2="137.23"/><rect class="cls-11" x="97" y="63.23" width="289" height="54"/><line class="cls-10" x1="217" y1="105.23" x2="226" y2="105.23"/><line class="cls-10" x1="233" y1="105.23" x2="242" y2="105.23"/><line class="cls-10" x1="251" y1="105.23" x2="261" y2="105.23"/><polyline class="cls-10" points="238 63.23 238 30.23 336 30.23 336 48.23"/><path class="cls-9" d="M87,103.64V93c1-.61,4.66-1.41,6.48-2.38l7.87,7.51a2.05,2.05,0,0,0,2.76,0L115,87.39a1.81,1.81,0,0,0,0-2.57l-7.48-6.68c1-1.82,1.79-3.91,2.4-4.91h10.62c1,0,1.46-2.49,1.46-3.5V54.52c0-1-.45-3.29-1.46-3.29H109.92a25.64,25.64,0,0,0-2.38-5l7.51-7.14a1.61,1.61,0,0,0,0-2.39L104.29,26a1.81,1.81,0,0,0-2.57,0l-8.24,7.53c-1.82-1-5.48-1.74-6.48-2.36V20.61c0-1,.64-3.38-.36-3.38H71.42c-1,0-2.42,2.38-2.42,3.38V31.23c-1,.62-3.63,1.42-5.44,2.38l-7.36-7.5a1.73,1.73,0,0,0-2.51,0L43,36.86a1.83,1.83,0,0,0,0,2.58l7.52,6.77a26.23,26.23,0,0,0-2.38,5H37.52c-1,0-2.52,2.28-2.52,3.29V69.73c0,1,1.51,3.5,2.52,3.5H48.13c.62,1,1.42,3.09,2.39,4.91L43,85.23a1.57,1.57,0,0,0,0,2.37L53.77,98.25a1.8,1.8,0,0,0,2.57,0l7.22-7.53C65.37,91.64,68,92.41,69,93v10.62c0,1,1.42,1.59,2.42,1.59H86.64C87.64,105.23,87,104.65,87,103.64Z"/><path class="cls-2" d="M78.64,76.28A13.65,13.65,0,1,1,92.29,62.63,13.65,13.65,0,0,1,78.64,76.28Z"/><path class="cls-9" d="M406,239.21V228.6c1-.62,3.84-1.42,5.66-2.39l7.46,7.51a1.8,1.8,0,0,0,2.56,0L432.42,223a1.81,1.81,0,0,0,0-2.57l-7.51-7c1-1.82,1.77-2.2,2.38-5.2H437.9c1,0,2.1-1.92,2.1-2.93V190.09c0-1-1.09-2.86-2.1-2.86H427.28c-.61-1-1.41-3.41-2.38-5.23l7.51-7.25a1.68,1.68,0,0,0,0-2.45l-10.76-10.68a1.8,1.8,0,0,0-2.57,0l-7.42,7.52c-1.82-1-4.66-1.75-5.66-2.37V156.18c0-1-1-3-2-3H388.78c-1,0-2.78,2-2.78,3V166.8a28.08,28.08,0,0,0-5.26,2.39l-7.27-7.51a1.67,1.67,0,0,0-2.46,0l-10.7,10.75a1.83,1.83,0,0,0,0,2.58l7.53,7c-1,1.82-1.77,4.23-2.38,5.23H354.88c-1,0-2.88,1.86-2.88,2.86V205.3c0,1,1.87,2.93,2.88,2.93h10.61c.61,3,1.42,3.38,2.39,5.2l-7.51,7.24a1.65,1.65,0,0,0,0,2.43l10.76,10.69a1.82,1.82,0,0,0,2.57,0l7-7.53A28,28,0,0,0,386,228.6v10.61c0,1,1.78,1,2.78,1H404C405,240.23,406,240.22,406,239.21Z"/><path class="cls-2" d="M396,211.85a13.65,13.65,0,1,1,13.65-13.65A13.65,13.65,0,0,1,396,211.85Z"/><rect class="cls-4" x="88" y="200.23" width="132" height="106"/><rect class="cls-12" x="100" y="214.23" width="108" height="80"/><polyline class="cls-13" points="99.57 266.55 144.82 243.06 189.07 268.55"/><polyline class="cls-13" points="170.14 257.65 186.57 243.06 209.07 257.65"/><path class="cls-11" d="M174.57,228.8a10.25,10.25,0,1,1-10.25-10.25A10.25,10.25,0,0,1,174.57,228.8Z"/><line class="cls-10" x1="284" y1="142.23" x2="342" y2="142.23"/><line class="cls-10" x1="284" y1="155.23" x2="330" y2="155.23"/><line class="cls-10" x1="284" y1="168.23" x2="301" y2="168.23"/></g></g></svg>