<svg xmlns="http://www.w3.org/2000/svg" viewBox="0 0 617.41 261.93"><defs><style>.cls-1{opacity:0.4;}.cls-2,.cls-3,.cls-4,.cls-5{fill:none;stroke:#ff6300;stroke-linejoin:round;}.cls-2,.cls-3,.cls-5{stroke-linecap:round;}.cls-3{stroke-width:0.5px;}.cls-5{stroke-width:0.3px;}</style></defs><title>Asset 311</title><g id="Layer_2" data-name="Layer 2"><g id="svg2"><g id="g25306" class="cls-1"><path id="path25203" class="cls-2" d="M91.13,107.89v2.86"/><path id="_2" data-name="2" class="cls-3" d="M29.94,92.87v39.67"/><path id="_3" data-name="3" class="cls-2" d="M.5,112.71c.44,3.26,4.05,4.81,6.44,6.59,8.05,5.43,16.32,10.58,25.38,14.15"/><path id="_4" data-name="4" class="cls-2" d="M.5,112.71c.43-3.27,4.08-4.82,6.45-6.63C15.44,100.35,24.26,95,33.86,91.33"/><path id="_5" data-name="5" class="cls-2" d="M48,86.28v52.08"/><path id="_9" data-name="9" class="cls-2" d="M50.12,86.5a315.89,315.89,0,0,1,58-8.42"/><path id="_10" data-name="10" class="cls-2" d="M107.6,79c2.71-5.21,9.87-3.8,14.74-4.78C159.08,70.89,196,72.06,232.78,74"/><path id="_11" data-name="11" class="cls-2" d="M107.6,79l82.77-2"/><path id="_12" data-name="12" class="cls-2" d="M190.37,77l2.66-.07,2.67-.14,2.66-.14,2.59-.14,2.67-.14,2.66-.21,2.67-.21,2.66-.21,5.26-.42,5.32-.42,5.26-.49,2.66-.21,2.67-.21"/><path id="_13" data-name="13" class="cls-2" d="M48,138.36c24.81,6.33,49.49,13.29,74.79,17.52"/><path id="_14" data-name="14" class="cls-2" d="M235.79,163.87l5.82,17.1"/><path id="_15" data-name="15" class="cls-2" d="M241.61,181l1.19.28,1.26.21,1.26.21,1.26.21,1.26.21,1.27.14,1.26.14,1.26.07,1.26.14,1.26.07,1.26.07,1.27.07,1.26.07,1.26.07,2.52.07h2.6l2.52.07h7.57L277,183l2.52-.07,2.53-.07,2.52-.14,1.26-.07,1.26-.07,1.27-.07,1.26-.14,1.26-.07,1.26-.14,2.52-.28,2.53-.28,2.45-.28,2.52-.35,2.53-.35,2.52-.42,2.45-.42,2.53-.42,2.52-.42,2.45-.49,2.53-.42,2.52-.49,2.45-.56,2.46-.49,2.52-.57,2.45-.49,2.52-.56,2.46-.56,2.45-.56,2.45-.56,2.53-.63L347,172l2.45-.63,2.46-.63,2.45-.63,2.45-.63,2.46-.7,2.45-.63,2.45-.71,2.39-.7L369,166l2.45-.7,2.45-.7,2.39-.7,2.45-.77,2.38-.77,2.46-.77,2.38-.77,2.45-.77,2.39-.78,2.38-.84,2.38-.77,2.39-.84,2.45-.84"/><path id="_16" data-name="16" class="cls-2" d="M50.12,85.79l-4.06.92"/><path id="_17" data-name="17" class="cls-2" d="M46.06,86.71v40.36"/><path id="_18" data-name="18" class="cls-2" d="M50.12,85.79V128"/><path id="_19" data-name="19" class="cls-2" d="M34,92.45a163.56,163.56,0,0,1-1.75-35.92c.51-15.69,2-31.34,3.38-47,.12-2.22.24-4.44.2-6.67"/><path id="_20" data-name="20" class="cls-2" d="M42.76,89.79c.65-11.2,2.74-22.31,2.32-33.57-.23-13.17-2-26.25-3.3-39.32C41.11,12.21,39.94,7.58,38.91,3"/><path id="_21" data-name="21" class="cls-2" d="M35.82,2.88V2.6l.08-.21V2.18L36,1.9,36,1.69l.07-.14.07-.21.14-.14L36.39,1l.14-.14L36.6.78l.14-.14.14-.07L37,.5h.42l.14.07h.14l.14.14.07.07.14.14.14.14.14.14.07.21.14.14.07.21L38.7,2l.07.28.07.21v.21l.07.28"/><path id="_22" data-name="22" class="cls-2" d="M81,80.68l.21-.42.21-.42.21-.42.14-.21L81.8,79l.14-.14.14-.21.14-.14.14-.21.14-.14.21-.15.14-.07.21-.14.22-.07.14-.07.21-.07.21-.07.21-.07h.49l.21-.07h.49l.49.07h.49l.49.07.49.14.42.07.49.07.49.07.91.21.91.15.85.21.84.21.84.21.91.28"/><path id="_23" data-name="23" class="cls-2" d="M33.09,91.61l.07.14v.07l.07.14V92l.07.14.07.07.07.07.14.07h.07l.07.07h.63l.28-.07.21-.07.49-.14.43-.21.42-.14.42-.14.42-.14.84-.21.77-.28.77-.28.84-.21.77-.28,1.68-.49,1.69-.49.84-.21.84-.28"/><path id="_24" data-name="24" class="cls-2" d="M42.83,88.32l.77-.21.85-.21.84-.21.77-.21"/><path id="_25" data-name="25" class="cls-2" d="M35,120.07a64.7,64.7,0,0,0-2,29.46c1,6.19.71,12.8,3.52,18.55.6,1.28,2.21,3.56,3.57,1.75,2.87-4.59,3.37-10.24,4.45-15.46,1.25-8.73,2.42-18.19-1.44-26.45a23.85,23.85,0,0,1-.84-6.73"/><path id="_26" data-name="26" class="cls-2" d="M45.57,137.8l1.19.28,1.26.28"/><path id="_27" data-name="27" class="cls-2" d="M46.06,120.56c-1.41-.2-2.83-.29-4.24-.5-1.21-.09-2.4-.37-3.6-.48a5.61,5.61,0,0,0-3.42.58,3.4,3.4,0,0,0-1.61,1.69,1.8,1.8,0,0,0-.09,1.23,2.41,2.41,0,0,0,.59,1.41l0,0,.06,0"/><path id="_28" data-name="28" class="cls-2" d="M40.17,119.86a4.16,4.16,0,0,1,1.27.58c.53.27.75.83,1.12,1.24a4.63,4.63,0,0,1,.41,2,2.53,2.53,0,0,1-.56,1.26"/><path id="_29" data-name="29" class="cls-2" d="M43,127.92l2.53.7,1.19.35.63.14.63.14"/><path id="_30" data-name="30" class="cls-2" d="M220.93,73.39l3.29-.07,3.3-.07,3.29-.07,3.23-.07"/><path id="_31" data-name="31" class="cls-2" d="M280.3,72.69l14.36-13.81"/><path id="_32" data-name="32" class="cls-2" d="M283.1,70.87l11.14-10.66"/><path id="_33" data-name="33" class="cls-2" d="M280.3,72.69l-.28.21-.28.28-.29.21-.28.21-.35.14-.28.21-.35.14-.35.14"/><path id="_34" data-name="34" class="cls-2" d="M294.66,58.88c2.23-1.88,5.34-2.09,8.11-2.48,7.26-.44,14.55,0,21.82-.12a201.42,201.42,0,0,1,28.31,1.63q6.83.9,13.68,1.74"/><path id="_35" data-name="35" class="cls-2" d="M366.58,59.65c26.66,2.69,53.08,7.23,79.62,10.84,11.67,1.71,23.12,4.56,34.56,7.34,10.09,1.72,21.7,1,29.91-5.77a12.87,12.87,0,0,0,2-2.32l36.8-54.94"/><path id="_37" data-name="37" class="cls-2" d="M549.44,14.8C554.53,5,567.13.33,577.2,5.18c15.5,7.24,22.27,24.32,29.4,38.72,8,17.54,12,37.24,9.63,56.47-3.65,14.23-19.7,18.9-32.18,22.39-51.64,13.67-104.32,22.93-157.21,30.18-8.79,1.32-17.62,2.39-26.48,3.08"/><path id="_55" data-name="55" class="cls-3" d="M189.18,72.27v61.88"/><path id="_92" data-name="92" class="cls-3" d="M274.9,71.64V85.79"/><path id="_93" data-name="93" class="cls-3" d="M189.18,85.79H295"/><path id="_94" data-name="94" class="cls-3" d="M295,85.79l3.23,1.2"/><path id="_95" data-name="95" class="cls-3" d="M298.24,87l59.57.56"/><path id="_96" data-name="96" class="cls-2" d="M360.83,87.55l52.28-20.12"/><path id="_97" data-name="97" class="cls-2" d="M413.11,67.43V65.75"/><path id="_99" data-name="99" class="cls-2" d="M303,56.36V87"/><path id="_100" data-name="100" class="cls-3" d="M303,164.85v16"/><path id="_105" data-name="105" class="cls-2" d="M305.46,56.22v3.57"/><path id="_106" data-name="106" class="cls-2" d="M363.21,59.23l-4,23.9"/><path id="_107" data-name="107" class="cls-2" d="M365.1,59.51l-3.78,22.36"/><path id="_108" data-name="108" class="cls-2" d="M359.43,81.87h5.46"/><path id="_109" data-name="109" class="cls-2" d="M365.8,81.66l34.56-13.32"/><path id="_110" data-name="110" class="cls-2" d="M400.36,68.34l.42-.21.42-.21.35-.21.35-.35.28-.28.28-.35.21-.35.21-.42.21-.35.14-.42.07-.42.07-.49"/><path id="_111" data-name="111" class="cls-2" d="M311.28,81.59l35,.35"/><path id="_112" data-name="112" class="cls-4" d="M353.05,87.55l5.68-3.65"/><path id="_113" data-name="113" class="cls-2" d="M358.73,83.9l.21-.14.14-.21.07-.21.07-.21"/><path id="_114" data-name="114" class="cls-2" d="M364.89,81.87l.28-.07.35-.07.28-.07"/><path id="_115" data-name="115" class="cls-2" d="M303,76.89h2.46"/><path id="_116" data-name="116" class="cls-2" d="M358.24,60.35,356,78.86"/><path id="_117" data-name="117" class="cls-2" d="M356.34,60.14l-.14.84"/><path id="_118" data-name="118" class="cls-2" d="M305.46,76.89l.14.49.14.49.21.43.28.42.28.42.28.42.42.35.35.35.42.28.42.28.42.21.49.21.49.14.49.07.49.07.5.07"/><path id="_119" data-name="119" class="cls-2" d="M354.1,78.86H356"/><path id="_120" data-name="120" class="cls-2" d="M346.25,81.94h.7l.7-.07.7-.14.7-.14.7-.21.71-.21.63-.28.7-.35.56-.35.63-.42.56-.42.56-.49"/><path id="_121" data-name="121" class="cls-2" d="M356,78.86l.07.42.14.42.14.42.21.42.21.35.28.35.35.35.35.28.35.28.36.21.42.21.42.14"/><path id="_124" data-name="124" class="cls-2" d="M298.24,80.19l-1.26-1-1.26-1-1.34-1-1.33-.91-1.33-.91-1.4-.84-1.4-.84-1.4-.77L286,72.2l-1.4-.7-1.54-.63"/><path id="_125" data-name="125" class="cls-2" d="M298.66,80.33h1.68"/><path id="_126" data-name="126" class="cls-2" d="M301,56.57V79.63"/><path id="_127" data-name="127" class="cls-2" d="M283.1,70.87h.07"/><path id="_129" data-name="129" class="cls-2" d="M298.24,80.19l.14.07.14.07h.14"/><path id="_130" data-name="130" class="cls-2" d="M300.34,80.33h.14l.14-.07.14-.07.14-.14.07-.14.07-.14v-.14"/><path id="_140" data-name="140" class="cls-2" d="M296.56,58.6H301"/><path id="_141" data-name="141" class="cls-2" d="M296.56,58.6h-.42l-.42.07-.43.14-.42.14-.42.21-.35.28-.35.28"/><path id="_142" data-name="142" class="cls-2" d="M296.56,59.23l-.35.07-.35.07-.35.07-.36.14-.35.21-.28.21-.28.21"/><path id="_143" data-name="143" class="cls-2" d="M296.56,59.23H301"/><path id="_172" data-name="172" class="cls-2" d="M309.31,60.49v2"/><path id="_173" data-name="173" class="cls-2" d="M352.35,61.47v2"/><path id="_174" data-name="174" class="cls-2" d="M309.31,60.49h10.8l5.32.07h2.74l2.66.07h2.73l2.67.07,2.66.14,2.73.07,2.67.14,2.66.14,2.73.14,2.67.14"/><path id="_175" data-name="175" class="cls-2" d="M309.31,60.49h10.8l5.32.07h2.74l2.66.07h2.73l2.67.07,2.66.14,2.73.07,2.67.14,2.66.14,2.73.14,2.67.14"/><path id="_176" data-name="176" class="cls-2" d="M309.31,62.53h16.12l2.74.07h2.66l2.73.07,2.67.07,2.66.07,2.73.14,2.67.07,2.66.14,2.73.21,2.67.14"/><path id="_177" data-name="177" class="cls-2" d="M303,59.79h2.46"/><path id="_178" data-name="178" class="cls-2" d="M303,64.14h2.46"/><path id="_179" data-name="179" class="cls-2" d="M305.46,64.14V76.89"/><path id="_180" data-name="180" class="cls-2" d="M305.46,59.79l3.85.7"/><path id="_181" data-name="181" class="cls-2" d="M305.46,64.14l3.85-1.61"/><path id="_182" data-name="182" class="cls-2" d="M356.2,61l1.89.21"/><path id="_183" data-name="183" class="cls-2" d="M355.71,65.19l1.89.21"/><path id="_184" data-name="184" class="cls-2" d="M355.71,65.19,354.1,78.86"/><path id="_185" data-name="185" class="cls-2" d="M352.35,61.47,356.2,61"/><path id="_186" data-name="186" class="cls-2" d="M352.35,63.51l3.36,1.68"/><path id="_187" data-name="187" class="cls-2" d="M364.82,60.84l1.34.07,1.26.14,1.26.14,1.26.07,2.45.28,2.46.29,2.45.28,2.38.28,2.46.28,2.38.28,2.31.28,2.38.35,2.32.28,2.31.35,4.63.63,4.62.7"/><path id="_188" data-name="188" class="cls-3" d="M373,93.36H357.81V87.55H373"/><path id="_189" data-name="189" class="cls-3" d="M373,93.36a3,3,0,0,0,2.78-3.56A3,3,0,0,0,373,87.55"/><path id="_190" data-name="190" class="cls-3" d="M357.81,93.36v3"/><path id="_191" data-name="191" class="cls-3" d="M357.81,96.38l-17.1,37.7"/><path id="_192" data-name="192" class="cls-3" d="M357.81,95.26l16.13-.07"/><path id="_193" data-name="193" class="cls-3" d="M364.12,86.28h9.82"/><path id="_194" data-name="194" class="cls-3" d="M373.93,95.19a5,5,0,0,0,2.25-.65,4.17,4.17,0,0,0,1.88-2.29,3.72,3.72,0,0,0,.3-1.61,4.57,4.57,0,0,0-.62-2.15,3.58,3.58,0,0,0-1.07-1.22,4.1,4.1,0,0,0-2.19-.9l-.54-.09"/><path id="_393" data-name="393" class="cls-3" d="M87.55,112.71V95.89"/><path id="_394" data-name="394" class="cls-3" d="M46.06,99.81c7.66-1,15.35-1.93,23-2.84,6.14-.54,12.29-1,18.46-1.08"/><path id="_395" data-name="395" class="cls-3" d="M87.55,95.89l101.63-.7"/><path id="_396" data-name="396" class="cls-2" d="M87.55,104l101.63-.7"/><path id="_397" data-name="397" class="cls-3" d="M87.55,106.19l101.63-.7"/><path id="_398" data-name="398" class="cls-3" d="M50.12,112.71H189.18"/><path id="_399" data-name="399" class="cls-2" d="M87.55,97.15l101.63-.77"/><path id="_400" data-name="400" class="cls-3" d="M114,96.94v6.87"/><path id="_401" data-name="401" class="cls-2" d="M124.77,100.3l5.25-.07"/><path id="_402" data-name="402" class="cls-2" d="M130.31,97.78v.07h-.07v.07l-.08.14v.14l-.07.14V99l-.07.21v2.1l.07.28v.56l.07.21v.14l.08.07v.08l.07.07.07-.07v-.08l.07-.07v-.35l.07-.14v-.42l.07-.28v-2.1l-.07-.21v-.42l-.07-.21v-.28l-.07-.14v-.07h-.07Z"/><path id="_403" data-name="403" class="cls-2" d="M125.05,97.85H125V98l-.07.07v.14l-.07.14v.42l-.07.21v2.59l.07.21v.42l.07.14v.14l.07.15v.07h.07"/><path id="_404" data-name="404" class="cls-2" d="M157.22,97.64h-.07v.21l-.07.14v.35l-.07.21v.7l-.07.28v1l.07.28v.7l.07.21v.35l.07.14v.14l.07.07h.07v-.07l.07-.07v-.07l.07-.14v-.35l.07-.21v-3l-.07-.21V98l-.07-.14v-.07l-.07-.14Z"/><path id="_405" data-name="405" class="cls-2" d="M181.26,97.43h-.07v.07l-.07.07v.28l-.07.14v.35l-.07.28v2.59l.07.21v.35l.07.21v.21l.07.07v.07h.07l.07-.07v-.21l.07-.07v-.21l.07-.14v-.7l.07-.21V99.11l-.07-.28v-.7L181.4,98v-.14l-.07-.14V97.5Z"/><path id="_406" data-name="406" class="cls-2" d="M125.05,97.85l5.26-.07"/><path id="_407" data-name="407" class="cls-2" d="M125.05,102.69h5.26"/><path id="_408" data-name="408" class="cls-2" d="M125.47,97.85l-.07-.21-.07-.21v-.14l-.07-.14-.07-.14v-.07l-.07-.07h-.21v.07l-.07.14-.07.14v.14l-.07.14-.07.21v.21l-.07.28v.28l-.07.28v3.08l.07.28v.28l.07.21v.22l.07.21.07.21v.14l.07.14.07.07.07.07.07.07.07-.07.07-.07v-.07l.07-.07.07-.14v-.21l.07-.14.07-.29"/><path id="_409" data-name="409" class="cls-2" d="M130.59,100.23l26.35-.21"/><path id="_410" data-name="410" class="cls-2" d="M157.22,97.64l-26.91.14"/><path id="_411" data-name="411" class="cls-2" d="M157.22,102.47h-6.66l-3.36-.07h-3.3l-3.36-.07h-1.68l-1.69-.07-1.68-.07h-.84l-.84-.07-.77-.07-.84-.07-.84-.07-.84-.07"/><path id="_412" data-name="412" class="cls-2" d="M157.5,100,181,99.88"/><path id="_413" data-name="413" class="cls-2" d="M157.22,97.64l24-.21"/><path id="_414" data-name="414" class="cls-2" d="M181.26,102.33H167.87l-1.54-.07-1.47-.07-1.47-.07-1.47-.07-1.48-.14-1.47-.14-1.54-.14"/><path id="_415" data-name="415" class="cls-3" d="M46.06,127.07a458.8,458.8,0,0,0,87.05,9.4c18.71,0,37.39-1.33,56.07-2.32"/><path id="_416" data-name="416" class="cls-3" d="M238.52,85.79v38.62"/><path id="_434" data-name="434" class="cls-3" d="M61.62,88v2.31"/><path id="_435" data-name="435" class="cls-3" d="M62.32,86.92l1.12-.42,1.19-.43,1.19-.35L67,85.37l1.2-.35,1.19-.35,1.26-.28,1.19-.28"/><path id="_436" data-name="436" class="cls-3" d="M63.16,91.26l2.1-1,1.12-.56,1.06-.49,1.12-.49,1.12-.49,1-.42,1.12-.42"/><path id="_437" data-name="437" class="cls-3" d="M71.85,84.11,72.2,84h.28l.35-.07h.42l.35-.07h1.12L75,84h.36l.14.07h.21l.14.07h.07l.07.07.07.07.07.07.07.07v.14l-.07.07v.14l-.07.07-.07.07-.07.07-.07.14-.14.07-.07.07-.14.14-.14.07-.29.21-.28.22-.28.21-.35.21-.35.14-.35.21-.35.21-.35.14-.28.14-.35.14-.14.07-.14.07"/><path id="_438" data-name="438" class="cls-3" d="M62.32,86.92l-.21.14L62,87.2l-.14.14-.14.21-.07.21V88"/><path id="_439" data-name="439" class="cls-3" d="M61.62,90.28v.21l.07.21.14.21.14.14.14.14.21.07.21.07H63l.21-.07"/><path id="_440" data-name="440" class="cls-3" d="M73.74,85h.07l.07.07H74l.07.07h.35l.14-.07h.14l.14-.07.14-.07.14-.07.08-.07.07-.07v-.21h-.07l-.08-.07h-.56l-.14.07h-.14l-.07.07-.14.07-.07.07-.07.07-.07.07-.07.07Z"/><path id="_441" data-name="441" class="cls-3" d="M62.6,87.9h.07l.07.07H63L63,87.9h.21l.14-.07.07-.07.14-.07h.07l.07-.07v-.07l.07-.07v-.07h-.07l-.07-.07h-.21l-.14.07h-.07l-.14.07H63l-.14.07-.07.07-.07.07-.07.07H62.6v.14Z"/><path id="_442" data-name="442" class="cls-3" d="M62.6,90.21l.07.07h.49l.07-.07.14-.07h.07l.14-.07.07-.07.07-.07v-.07h.07v-.14H63.3l-.07.07h-.14l-.14.07-.07.07-.07.07-.07.07h-.07l-.07.07v.07Z"/><path id="_445" data-name="445" class="cls-3" d="M53.63,128.69v4.76l2.59.42v-4.69"/><path id="_446" data-name="446" class="cls-3" d="M53.63,132.05l2.59.35"/><path id="_447" data-name="447" class="cls-3" d="M80.4,132.75v4.84L83,138v-5"/><path id="_448" data-name="448" class="cls-3" d="M80.4,136.19l2.59.42"/><path id="_449" data-name="449" class="cls-3" d="M109.49,135.63v4.9l2.66.28v-5"/><path id="_450" data-name="450" class="cls-3" d="M109.49,139.06l2.66.28"/><path id="_451" data-name="451" class="cls-3" d="M136,136.47v4.9h2.67v-4.9"/><path id="_452" data-name="452" class="cls-3" d="M136,139.9h2.67"/><path id="_453" data-name="453" class="cls-3" d="M53.63,98.83V93.08l2.59-.42v5.82"/><path id="_454" data-name="454" class="cls-3" d="M53.63,94.48l2.59-.35"/><path id="_455" data-name="455" class="cls-3" d="M91.9,95.89V89.72h2.59v6.1"/><path id="_456" data-name="456" class="cls-3" d="M91.9,91.19h2.59"/><path id="_457" data-name="457" class="cls-3" d="M136,95.61V89.44h2.67v6.1"/><path id="_458" data-name="458" class="cls-3" d="M136,90.91h2.67"/><path id="_459" data-name="459" class="cls-3" d="M177.26,95.26v-6.1h2.67v6.1"/><path id="_460" data-name="460" class="cls-3" d="M177.26,90.56h2.67"/><path id="_461" data-name="461" class="cls-3" d="M52.72,100.93v-.21l-.07-.14-.07-.14-.14-.07-.14-.07H52l-.14.07-.14.07-.07.14-.08.14v.35l.08.14.07.14.14.07.14.07.21.07.14-.07.14-.07.14-.07.07-.14.07-.14Z"/><path id="_462" data-name="462" class="cls-3" d="M85.45,98.27l-.07-.14L85.31,98l-.07-.14-.14-.07L85,97.71l-.14-.07-.21.07-.14.07-.07.07-.14.14-.07.14v.35l.07.14.14.14.07.07.14.07H85l.14-.07.14-.07.07-.14.07-.14Z"/><path id="_463" data-name="463" class="cls-3" d="M89.3,107.8a.63.63,0,1,0-.07.28A.45.45,0,0,1,89.3,107.8Z"/><path id="_464" data-name="464" class="cls-3" d="M104.58,107.38a.6.6,0,0,0-1.09-.35.62.62,0,0,0,.6,1C104.34,107.94,104.64,107.68,104.58,107.38Z"/><path id="_465" data-name="465" class="cls-3" d="M130,107.1V107l-.07-.14-.14-.14-.07-.07-.21-.07-.14-.07-.14.07-.14.07-.14.07-.14.14V107l-.07.14.07.21v.14l.14.07.14.14.14.07h.28l.21-.07.07-.14.14-.07.07-.14Z"/><path id="_466" data-name="466" class="cls-3" d="M158.06,107v-.14l-.07-.14-.07-.14-.14-.07-.14-.07-.21-.07-.14.07-.14.07-.14.07-.07.14-.07.14v.35l.07.14.07.14.14.07.14.07h.35l.14-.07.14-.07.07-.14.07-.14Z"/><path id="_468" data-name="468" class="cls-3" d="M105,111.52a.63.63,0,0,0-1.13-.36.65.65,0,0,0,.75,1C104.79,112,105.07,111.82,105,111.52Z"/><path id="_469" data-name="469" class="cls-3" d="M130.24,111v-.14l-.08-.15-.14-.14-.14-.07-.14-.07-.14-.07-.14.07-.14.07-.14.07-.14.14-.07.15v.35l.07.14.14.14.14.07.14.07h.28l.14-.07.14-.07.14-.14.08-.14Z"/><path id="_470" data-name="470" class="cls-3" d="M158.34,111.38v-.14l-.07-.14-.07-.14-.14-.07-.14-.08-.21-.07-.14.07-.14.08-.14.07-.07.14-.07.14-.07.14.07.14.07.21.07.07.14.14.14.07h.35l.14-.07.14-.14.07-.07.07-.21Z"/><path id="_471" data-name="471" class="cls-3" d="M187.5,106.68v-.14l-.07-.14-.07-.14-.14-.07-.14-.07-.21-.07-.14.07-.14.07-.14.07-.07.14-.07.14v.35l.07.14.07.14.14.07.14.07h.35l.14-.07.14-.07.07-.14.07-.14Z"/><path id="_472" data-name="472" class="cls-3" d="M187.78,111.24v-.14l-.07-.14-.07-.14-.14-.08-.14-.07-.21-.07-.14.07-.14.07-.14.08-.07.14-.07.14v.35l.07.14.07.14.14.07.14.07h.35l.14-.07.14-.07.07-.14.07-.14Z"/><path id="_473" data-name="473" class="cls-3" d="M192.75,84.25V84l-.07-.14-.14-.14-.07-.07-.21-.07H192l-.14.07-.14.07-.07.14-.07.14-.07.21.07.14.07.14.07.14.14.07.14.07.14.07.14-.07.21-.07.07-.07.14-.14.07-.14Z"/><path id="_474" data-name="474" class="cls-3" d="M213.85,84v-.21l-.07-.14-.14-.14-.07-.07-.21-.07h-.28l-.14.07-.14.07-.14.14v.14l-.07.21.07.14v.14l.14.14.14.07.14.07.14.07.14-.07.21-.07.07-.07.14-.14.07-.14Z"/><path id="_475" data-name="475" class="cls-3" d="M234.25,84.25V84l-.07-.14-.07-.14-.14-.07-.14-.07h-.35l-.14.07-.14.07-.07.14-.07.14-.07.21.07.14.07.14.07.14.14.07.14.07.14.07.21-.07.14-.07.14-.07.07-.14.07-.14Z"/><path id="_476" data-name="476" class="cls-3" d="M242.66,83.69v-.14l-.07-.21-.07-.07-.14-.14-.14-.07h-.35l-.14.07-.14.14-.07.07-.07.21-.07.14.07.14.07.14.07.14.14.14h.14l.14.07.21-.07h.14l.14-.14.07-.14.07-.14Z"/><path id="_477" data-name="477" class="cls-3" d="M258.5,84.53v-.21l-.07-.14-.07-.14-.14-.07-.14-.07h-.35l-.14.07-.14.07-.07.14-.07.14v.35l.07.14.07.14.14.07.14.07.14.07.21-.07.14-.07.14-.07.07-.14.07-.14Z"/><path id="_478" data-name="478" class="cls-3" d="M192.19,88.25V88l-.07-.14-.07-.14-.14-.07-.14-.07h-.35l-.14.07-.14.07-.07.14L191,88l-.07.21.07.14.07.14.07.14.14.07.14.07.14.07.21-.07.14-.07.14-.07.07-.14.07-.14Z"/><path id="_479" data-name="479" class="cls-3" d="M213.85,87.69v-.14l-.07-.21-.14-.07-.07-.14-.21-.07h-.28l-.14.07-.14.14-.14.07v.21l-.07.14.07.14V88l.14.14.14.14h.14l.14.07.14-.07h.21l.07-.14.14-.14.07-.14Z"/><path id="_480" data-name="480" class="cls-3" d="M234.11,87.41v-.14l-.07-.14L234,87l-.14-.14-.14-.07h-.35l-.14.07-.14.14-.07.14-.07.14-.07.14.07.14.07.14.07.14.14.14.14.07h.35l.14-.07.14-.14.07-.14.07-.14Z"/><path id="_481" data-name="481" class="cls-3" d="M242.66,88v-.14l-.07-.21-.07-.07-.14-.14-.14-.07h-.35l-.14.07-.14.14-.07.07-.07.21-.07.14.07.14.07.14.07.14.14.14h.14l.14.07.21-.07h.14l.14-.14.07-.14.07-.14Z"/><path id="_482" data-name="482" class="cls-3" d="M258.36,87.69v-.14l-.07-.21-.07-.07-.14-.14-.14-.07h-.35l-.14.07-.14.14-.07.07-.07.21v.28l.07.14.07.14.14.14h.14l.14.07.21-.07h.14l.14-.14.07-.14.07-.14Z"/><path id="_483" data-name="483" class="cls-3" d="M192.33,102.12V102l-.07-.14-.07-.14-.14-.07-.14-.07h-.35l-.14.07-.14.07-.07.14-.07.14-.07.14.07.21.07.14.07.14.14.08.14.07h.35l.14-.07.14-.08.07-.14.07-.14Z"/><path id="_484" data-name="484" class="cls-3" d="M192.05,118v-.21l-.07-.14-.07-.14-.14-.07-.14-.07h-.35l-.14.07-.14.07-.07.14-.07.14-.07.21.07.14.07.14.07.14.14.07.14.07h.35l.14-.07.14-.07.07-.14.07-.14Z"/><path id="_485" data-name="485" class="cls-3" d="M195.14,131.91l-.07-.14-.07-.14-.07-.14-.14-.07-.14-.07-.14-.07-.21.07-.14.07-.14.07-.07.14-.07.14v.35l.07.14.07.14.14.07.14.07h.35l.14-.07.14-.07.07-.14.07-.14Z"/><path id="_486" data-name="486" class="cls-3" d="M236.49,93.22l-.07-.21-.07-.14-.07-.14-.14-.07-.14-.07h-.35l-.14.07-.14.07-.07.14-.07.14v.35l.07.14.07.14.14.07.14.07H236l.14-.07.14-.07.07-.14.07-.14Z"/><path id="_487" data-name="487" class="cls-3" d="M235.93,104.51l-.07-.14v-.21l-.14-.07-.14-.14-.14-.07h-.28L235,104l-.07.14-.14.07-.07.21v.28l.07.14.14.14.07.14h.21l.14.07.14-.07h.14l.14-.14.14-.14v-.14Z"/><path id="_488" data-name="488" class="cls-3" d="M237,117.89v-.21l-.07-.14-.07-.14-.14-.07-.14-.07h-.35l-.14.07-.14.07-.07.14-.07.14V118l.07.14.07.14.14.07.14.07.21.07.14-.07.14-.07.14-.07.07-.14L237,118Z"/><path id="_489" data-name="489" class="cls-3" d="M189.47,92l49.05-.14"/><path id="_490" data-name="490" class="cls-3" d="M189.18,115.79l49.34.14"/><path id="_491" data-name="491" class="cls-3" d="M238.52,90.49l29-.07"/><path id="_492" data-name="492" class="cls-3" d="M269.85,90.7l26.92,7"/><path id="_493" data-name="493" class="cls-3" d="M269.85,90.7l-.56-.14-.63-.07-.63-.07h-.56"/><path id="_494" data-name="494" class="cls-3" d="M296.56,108.43l.49-.07.42-.21.42-.14.42-.28.42-.28.35-.28.35-.35.28-.35.28-.35.28-.42.21-.42.14-.49.14-.42.14-.49v-1.41l-.07-.49-.14-.49-.14-.42-.21-.42-.21-.42-.28-.42-.28-.35-.28-.35-.42-.35-.35-.28-.42-.28-.42-.21-.42-.14-.49-.14"/><path id="_495" data-name="495" class="cls-3" d="M270.34,114.11l26.22-5.68"/><path id="_496" data-name="496" class="cls-3" d="M268.38,114.32H238.52"/><path id="_497" data-name="497" class="cls-2" d="M268.38,114.32H269l.7-.07.63-.14"/><path id="_498" data-name="498" class="cls-3" d="M91.13,106.82v5.26"/><path id="_499" data-name="499" class="cls-3" d="M91.13,106.82l8,.91"/><path id="_500" data-name="500" class="cls-3" d="M100.59,109.41a1.72,1.72,0,0,0-1.47-1.68"/><path id="_501" data-name="501" class="cls-4" d="M91.13,108l7.85.91"/><path id="_502" data-name="502" class="cls-2" d="M99.47,109.41v-.07l-.07-.14-.07-.07-.07-.14h-.14l-.14-.07"/><path id="_504" data-name="504" class="cls-3" d="M91.13,112.08c2.75-.34,5.51-.69,8.27-1a1.64,1.64,0,0,0,1.19-1.66"/><path id="_505" data-name="505" class="cls-4" d="M91.13,110.89,99,110l.14-.07.14-.07.07-.07.07-.07.07-.14v-.14"/><path id="_506" data-name="506" class="cls-2" d="M72.69,115.79c1.17-1.42,3.27-1.34,4.87-.84a46.88,46.88,0,0,1,10.5,4.77c2.11,1.32,4.45,2.76,5.38,5.21.52,1.52.49,3.5-.78,4.65s-3.07,1-4.64,1.16a41.58,41.58,0,0,1-7.39-.54,8.69,8.69,0,0,1-2.4-.74"/><path id="_507" data-name="507" class="cls-2" d="M262.42,73.39v7.29"/><path id="_508" data-name="508" class="cls-2" d="M262.42,80.68l.42-.21.35-.21.28-.28.28-.28.29-.35.21-.35.21-.35.14-.42.07-.36.07-.42.07-.42-.07-.42-.07-.42-.07-.42-.14-.35-.21-.42-.21-.35-.29-.28-.28-.28-.28-.28-.35-.21-.42-.21"/><path id="_509" data-name="509" class="cls-2" d="M268.1,73.39v7.29"/><path id="_510" data-name="510" class="cls-2" d="M268.1,80.68l.42-.21.35-.21.28-.28.28-.28.28-.35.21-.35.21-.35.14-.42.14-.36.07-.42v-.84l-.07-.42-.14-.42-.14-.35-.21-.42-.21-.35-.28-.28-.28-.28-.28-.28-.35-.21-.42-.21"/><path id="_511" data-name="511" class="cls-3" d="M273.5,83.76v-.21l-.07-.14-.14-.14-.07-.07-.21-.07h-.28l-.14.07-.14.07-.14.14v.14l-.07.21.07.14V84l.14.14.14.07.14.07.14.07.14-.07.21-.07.07-.07.14-.14.07-.14Z"/><path id="_512" data-name="512" class="cls-2" d="M273.5,75.77v-.14l-.07-.14-.14-.14-.07-.14-.21-.07h-.28l-.14.07-.14.14-.14.14v.14l-.07.14.07.14v.14l.14.14.14.14.14.07H273l.21-.07.07-.14.14-.14.07-.14Z"/><path id="_513" data-name="513" class="cls-3" d="M270.06,103l-.07-.21v-.15l-.14-.14-.14-.07-.14-.07h-.28l-.21.07-.07.07-.14.14-.07.15v.35l.07.14.14.14.07.07.21.07.14.07.14-.07.14-.07.14-.07.14-.14v-.14Z"/><path id="_514" data-name="514" class="cls-3" d="M273.78,87.69v-.14l-.07-.21-.07-.07-.14-.14-.14-.07H273l-.14.07-.14.14-.07.07-.07.21-.07.14.07.14.07.14.07.14.14.14H273l.14.07.21-.07h.14l.14-.14.07-.14.07-.14Z"/><path id="_515" data-name="515" class="cls-3" d="M294,88.18V88l-.07-.14-.07-.14-.14-.07-.14-.07h-.35l-.14.07-.14.07-.07.14-.07.14-.07.21.07.14.07.14.07.14.14.07.14.07.14.07.21-.07.14-.07.14-.07.07-.14.07-.14Z"/><path id="_516" data-name="516" class="cls-3" d="M315.06,89.58v-.14L315,89.3l-.07-.14-.14-.07-.14-.07-.21-.07-.14.07-.14.07-.14.07-.07.14-.07.14-.07.14.07.21.07.14.07.14.14.07.14.07h.35l.14-.07.14-.07.07-.14.07-.14Z"/><path id="_517" data-name="517" class="cls-3" d="M304.48,103.25V103l-.07-.14-.07-.14-.14-.08-.14-.07h-.35l-.14.07-.14.08-.07.14-.07.14v.35l.07.14.07.14.14.07.14.07.21.07.14-.07.14-.07.14-.07.07-.14.07-.14Z"/><path id="_518" data-name="518" class="cls-3" d="M304.83,117.89l-.07-.14-.07-.14-.07-.14-.14-.07-.14-.07-.14-.07-.21.07-.14.07-.14.07-.07.14-.07.14v.35l.07.14.07.14.14.07.14.07h.35l.14-.07.14-.07.07-.14.07-.14Z"/><path id="_519" data-name="519" class="cls-3" d="M270.2,118.1V118l-.07-.14-.07-.14-.14-.14-.14-.07h-.35l-.14.07-.14.14-.07.14L269,118v.28l.07.21.07.07.14.14.14.07h.35l.14-.07.14-.14.07-.07.07-.21Z"/><path id="_520" data-name="520" class="cls-3" d="M310,131.77v-.14l-.07-.21-.14-.07-.14-.14-.14-.07h-.28l-.14.07-.14.14-.14.07-.07.21v.28l.07.14.14.14.14.14.14.07h.28l.14-.07.14-.14.14-.14.07-.14Z"/><path id="_521" data-name="521" class="cls-3" d="M336.79,132.26v-.21l-.07-.14-.14-.14-.07-.07-.21-.07H336l-.14.07-.14.07-.14.14v.14l-.07.21.07.14v.14l.14.14.14.07.14.07.14.07.14-.07.21-.07.07-.07.14-.14.07-.14Z"/><path id="_522" data-name="522" class="cls-3" d="M336.37,89.65l-.07-.21-.07-.14-.07-.14-.14-.07-.14-.07h-.35l-.14.07-.14.07-.07.14-.07.14v.35l.07.14.07.14.14.07.14.07h.35l.14-.07.14-.07.07-.14.07-.14Z"/><path id="_523" data-name="523" class="cls-3" d="M351.72,90l-.07-.14v-.14l-.14-.14-.14-.14-.14-.07H351l-.21.07-.07.14-.14.14-.07.14v.28l.07.14.14.14.07.14.21.07h.28l.14-.07.14-.14.14-.14v-.14Z"/><path id="_524" data-name="524" class="cls-3" d="M353.26,103.25l-.07-.14-.07-.14-.07-.14-.14-.14-.14-.08h-.35l-.14.08-.14.14-.07.14-.07.14v.28l.07.14.07.14.14.14.14.07h.35l.14-.07.14-.14.07-.14.07-.14Z"/><path id="_525" data-name="525" class="cls-3" d="M346.67,117.82v-.14l-.07-.14-.07-.14-.14-.07-.14-.07-.14-.07-.21.07-.14.07-.14.07-.07.14-.07.14V118l.07.14.07.07.14.14.14.07h.35l.14-.07.14-.14.07-.07.07-.14Z"/><path id="_526" data-name="526" class="cls-3" d="M367.07,122.8c0-.78-1.39-.7-1.27.09S367.16,123.58,367.07,122.8Z"/><path id="_527" data-name="527" class="cls-3" d="M77,112.71v2.1"/><path id="_528" data-name="528" class="cls-3" d="M87.83,131.21l.07,2.45"/><path id="_529" data-name="529" class="cls-2" d="M82.71,130.51l2.6.28,2.59.28,2.52.28,2.6.28,2.59.28,2.52.21,2.6.28,2.59.21,2.52.21,2.6.21,2.59.14,2.59.14,2.6.14,2.52.14,2.59.14,2.6.07,2.59.07H129l2.6.07h5.18l2.6-.07h2.52l2.59-.07,2.6-.07,2.59-.07,2.59-.14,2.6-.07,2.52-.14,2.59-.14,5.19-.21"/><path id="_530" data-name="530" class="cls-2" d="M55.17,137v-2.67"/><path id="_531" data-name="531" class="cls-2" d="M55.17,134.36l8,1"/><path id="_532" data-name="532" class="cls-2" d="M64.63,137v-.28l-.07-.28-.14-.21-.14-.28-.14-.21-.21-.14-.28-.14-.21-.07-.28-.07"/><path id="_533" data-name="533" class="cls-2" d="M55.17,135.56l7.85,1"/><path id="_534" data-name="534" class="cls-2" d="M63.44,137v-.28l-.07-.07-.14-.07-.07-.07H63"/><path id="_535" data-name="535" class="cls-2" d="M55.17,137v.7"/><path id="_536" data-name="536" class="cls-2" d="M64.49,137.73l.07-.21.07-.28V137"/><path id="_537" data-name="537" class="cls-2" d="M61.41,137.73l1.61-.21h.14l.07-.07.14-.07.07-.14V137"/><path id="_538" data-name="538" class="cls-2" d="M55.17,137.73h9.32"/><path id="_539" data-name="539" class="cls-2" d="M65.12,142.77l-1.19,4.07"/><path id="_540" data-name="540" class="cls-2" d="M63.93,146.84l18.22.35"/><path id="_541" data-name="541" class="cls-2" d="M103.39,152.1l.14.28.14.21.21.21.14.28.21.14.28.21.21.21.28.14.21.14.28.14.28.14.28.07.21.07.28.07.29.07.28.07h1.47l.28-.07h.28l.28-.07.63-.07.56-.14.56-.21.63-.14"/><path id="_542" data-name="542" class="cls-2" d="M122.81,155.88c2.49,6.17,12.64,5.42,16.05,5.12s3.94-.34,4.34-2"/><path id="_543" data-name="543" class="cls-3" d="M141.31,112.71v3.15"/><path id="_544" data-name="544" class="cls-3" d="M142.36,136.4,143.2,159"/><path id="_545" data-name="545" class="cls-3" d="M141.31,115.3v.56"/><path id="_546" data-name="546" class="cls-3" d="M78.65,115.3h86.56"/><path id="_547" data-name="547" class="cls-2" d="M140.26,115.86H170.4v16.33H140.26Z"/><path id="_548" data-name="548" class="cls-3" d="M141.31,132.19v4.21"/><path id="_549" data-name="549" class="cls-3" d="M141.31,132.19v4.21"/><path id="_550" data-name="550" class="cls-2" d="M170.4,115.86H171l.28.07h.28l.35.07.28.07.14.07.14.07h.14l.14.14"/><path id="_551" data-name="551" class="cls-2" d="M170.4,132.19h.91l.28-.07.35-.07.28-.07.14-.07h.14l.14-.07.14-.07"/><path id="_552" data-name="552" class="cls-2" d="M165.21,115.3v.56"/><path id="_553" data-name="553" class="cls-2" d="M165.21,132.19V133"/><path id="_554" data-name="554" class="cls-2" d="M122.81,155.88c.75-1.9,5.34-1.38,8.43-.8s11,1.26,12,3.95"/><path id="_555" data-name="555" class="cls-2" d="M143.2,159c47.59,6,95.67,4.22,143.51,5.82,34,1.14,67.77-3.38,101.06-9.71,4-.32,9.49-2.92,12.59.88"/><path id="_656" data-name="656" class="cls-2" d="M234.11,78.58v.14l.07.07.07.14.07.14.14.07.14.14.21.07.21.07.21.07.21.07.28.07h.21l.28.07h1.12l.28-.07.21-.07h.28l.21-.07.21-.14.21-.07.14-.07.14-.14.14-.07.07-.14.07-.14v-.21"/><path id="_657" data-name="657" class="cls-2" d="M236.14,18.3v-.21l-.07-.21-.07-.14-.14-.21-.21-.14-.14-.14-.21-.07-.21-.07h-.21l-.21.07-.21.07-.21.07-.14.14-.14.14-.14.21-.07.14-.07.21v.21"/><path id="_658" data-name="658" class="cls-2" d="M233.69,18.37l.42,60.21"/><path id="_659" data-name="659" class="cls-2" d="M236.14,18.3l3.15,60.21"/><path id="_660" data-name="660" class="cls-2" d="M239,73l5.26-.21,5.33-.21,10.58-.42,5.33-.21,2.66-.07,2.66-.07,2.67-.07,2.66-.07,2.59-.07h2.67"/><path id="_661" data-name="661" class="cls-2" d="M233.69,18.72h2.52"/><path id="_662" data-name="662" class="cls-2" d="M236.28,20.05h-2.59"/><path id="_663" data-name="663" class="cls-5" d="M236.21,19.49,558.62,5.55"/><path id="_664" data-name="664" class="cls-5" d="M544.88,6.11l-115.43,62"/><path id="_665" data-name="665" class="cls-2" d="M353.19,58v.21l.07.14.07.14.07.14.14.14.14.14.21.14.14.07.28.14.21.14.28.07.35.14.28.07"/><path id="_666" data-name="666" class="cls-2" d="M355.43,59.65l.14.07h.14l.14.07H356l.14.07.07.07.07.07.07.07v.07"/><path id="_667" data-name="667" class="cls-2" d="M359.15,60.07h-.56l-.14.07h-.14v.07h-.07v.14"/><path id="_668" data-name="668" class="cls-2" d="M359.15,60.07l.49-.07h.49l.49-.07.56-.07,1-.14,1-.21"/><path id="_759" data-name="759" class="cls-5" d="M558.2,145.72a6.85,6.85,0,0,0-1.14-3.66A6.62,6.62,0,0,0,545,146.63a6.61,6.61,0,0,0,11.54,3.5,6.34,6.34,0,0,0,1.62-4c0-.12,0-.24.05-.36Z"/><path id="_760" data-name="760" class="cls-3" d="M407.65,71.57v-.14l.07-.14.07-.14.07-.14.14-.14.14-.14.21-.14.21-.07.21-.07.21-.07h.91l.28.07.21.07.21.07.21.07.14.14.14.14.14.14.07.14.07.14v.49l-.07.14-.07.14-.14.14-.14.14-.14.14-.21.07-.21.07-.21.07-.28.07H409l-.21-.07-.21-.07-.21-.14-.21-.07-.14-.14-.14-.14-.07-.14-.07-.14-.07-.14v-.21Z"/><path id="_761" data-name="761" class="cls-2" d="M482,108.15v-.21l.07-.14.07-.07.07-.14.07-.07.07-.07.07-.07.21-.14.14-.07L483,107l.21-.07.42-.14.36-.14.42-.14.42-.07.77-.21.77-.14.84-.14.77-.14.84-.14.84-.14,1.61-.14,1.69-.21,1.61-.14,1.61-.14,1.68-.07,3.23-.21,3.29-.21,3.3-.14,3.29-.14,3.29-.14,3.3-.07,3.22-.07,3.3-.07h6.58l3.3.07,3.29.07,3.3.07,3.29.14,3.3.14,3.29.14,3.29.28,3.23.21,3.29.28,3.3.28,3.29.28,3.22.35,3.3.28,6.52.7,6.59.7"/><path id="_762" data-name="762" class="cls-2" d="M552.94,109.27V107"/><path id="_763" data-name="763" class="cls-2" d="M482,108.15v.21l.07.07.07.14.07.07.07.07.07.14.07.07.21.07.14.14.21.07.21.07.42.21.43.07.35.14.42.14.77.14.84.21.77.14.84.15.84.14.77.07,1.68.21L493,111l1.61.14,1.68.14,1.61.14,3.3.21,3.29.14,3.37.21,3.29.14,3.29.07,3.3.14,3.36.07h3.3l3.29.07,3.37-.07h3.29l3.29-.07,3.3-.14,3.36-.07,1.61-.07,1.69-.14,1.61-.07,1.68-.07,3.29-.28,3.3-.21,3.29-.28,3.3-.28,3.22-.29,3.23-.35,3.22-.35,3.22-.28,3.16-.35,3.15-.35,1.54-.14,1.62-.21"/><path id="_764" data-name="764" class="cls-2" d="M586.45,107.8l.07.07h.07l.07.07h.07v.14l.07.07"/><path id="_765" data-name="765" class="cls-2" d="M586.45,108.43h.07l.07-.07h.07l.07-.07v-.07l.07-.07"/><path id="_767" data-name="767" class="cls-3" d="M563.53,108.22c-2.84.34-5.69.61-8.53.87a120.37,120.37,0,0,1-14.59.32c-1.94-.11-4.21-.14-5.82-.34s-3.91-.35-3.94-.92,1.53-.74,3.37-.94a131.77,131.77,0,0,1,22.76.14c2.25.17,4.5.45,6.75.66"/><path id="_768" data-name="768" class="cls-2" d="M563.53,108l.07.07v.07"/><path id="_769" data-name="769" class="cls-2" d="M563.53,108.22h.07v-.07"/><path id="_770" data-name="770" class="cls-3" d="M545.37,110.74v7"/><path id="_771" data-name="771" class="cls-3" d="M505.14,104.44l36.45,2.38"/><path id="_772" data-name="772" class="cls-3" d="M505.14,111.87l36.45-2.46"/><path id="_773" data-name="773" class="cls-3" d="M558,103.67,553.36,100"/><path id="_774" data-name="774" class="cls-3" d="M487.41,101.35l59.43-3.43"/><path id="_775" data-name="775" class="cls-3" d="M558.41,104.51v.56"/><path id="_776" data-name="776" class="cls-3" d="M553.64,115.86l4.35-3.22"/><path id="_777" data-name="777" class="cls-3" d="M558,112.64l.21-.14.07-.14.14-.14V112l.07-.21"/><path id="_778" data-name="778" class="cls-3" d="M558.41,104.51v-.14l-.07-.21-.07-.21-.14-.14-.14-.14"/><path id="_779" data-name="779" class="cls-3" d="M558.48,111.24v.56"/><path id="_780" data-name="780" class="cls-3" d="M496.45,118.1l51.66-.42"/><path id="_781" data-name="781" class="cls-3" d="M553.36,100l-.56-.35-.49-.35-.56-.35-.56-.21-.63-.28L550,98.2l-.63-.14-.63-.07-.63-.07-.63-.07-.64.07"/><path id="_782" data-name="782" class="cls-3" d="M548.11,117.68h.63l.7-.07.63-.14.63-.14.63-.21.63-.28.56-.28.56-.35.56-.35"/><path id="_783" data-name="783" class="cls-3" d="M545.44,105.63V98"/><path id="_784" data-name="784" class="cls-2" d="M545.44,105.63l7.5,1.4"/><path id="_785" data-name="785" class="cls-2" d="M545.37,110.74l7.57-1.47"/><path id="_786" data-name="786" class="cls-3" d="M487.41,101.35c-2.13.21-4.27.23-6.38.61a30.15,30.15,0,0,0-6,1.6,12.41,12.41,0,0,0-4.26,2.66,3.29,3.29,0,0,0-.31,4.13c1.17,1.65,3.23,2.17,4.91,3.11a37.19,37.19,0,0,0,6.45,2.36,92.46,92.46,0,0,0,11.19,2c1.16.13,2.33.17,3.49.24"/><path id="_787" data-name="787" class="cls-3" d="M470.94,111c.71-.17,1.34-.54,2.05-.71a20.24,20.24,0,0,1,2.16-.58c1-.32,2.07-.45,3.1-.68s1.78-.18,2.67-.3c.41,0,.82,0,1.23,0"/><path id="_788" data-name="788" class="cls-2" d="M569.62,3.37l1.06,98.75"/><path id="_789" data-name="789" class="cls-2" d="M570.68,102.12l45,.14"/><path id="_790" data-name="790" class="cls-2" d="M614.76,68.27l-6.17.42"/><path id="_791" data-name="791" class="cls-2" d="M608.59,68.69,609.15,99"/><path id="_792" data-name="792" class="cls-2" d="M609.15,99l7.36-.21"/><path id="_793" data-name="793" class="cls-5" d="M569.62,6a23.38,23.38,0,0,1,12.53,5.2,49.09,49.09,0,0,1,10.44,11.77c4,6,7,12.56,10.2,19a148.11,148.11,0,0,1,5.8,14.19,80.67,80.67,0,0,1,3.09,10.44"/><path id="_794" data-name="794" class="cls-5" d="M611.68,66.59h-5.47"/><path id="_795" data-name="795" class="cls-5" d="M606.21,66.59v35.67"/><path id="_796" data-name="796" class="cls-3" d="M599.83,102.19V117.4"/><path id="_797" data-name="797" class="cls-3" d="M570.68,102.12c-.21,1.33-.37,2.66-.5,4"/><path id="_798" data-name="798" class="cls-3" d="M569.9,110.18a65,65,0,0,0,1.11,14.6l.3,1.31"/><path id="_799" data-name="799" class="cls-3" d="M574.46,102.12v-21h31.75"/><path id="_800" data-name="800" class="cls-3" d="M589.53,81.17v21"/><path id="_801" data-name="801" class="cls-3" d="M591,99h13.25"/><path id="_802" data-name="802" class="cls-3" d="M579.09,82.92h6.51"/><path id="_803" data-name="803" class="cls-3" d="M579.16,99h6.37"/><path id="_804" data-name="804" class="cls-2" d="M612.38,98.9l-.91,5.68"/><path id="_805" data-name="805" class="cls-2" d="M611.47,104.58h3.36"/><path id="_806" data-name="806" class="cls-5" d="M574.18,12.41h9.46"/><path id="_807" data-name="807" class="cls-5" d="M574.18,13.89h11.07"/><path id="_808" data-name="808" class="cls-5" d="M574.18,15.36h12.48"/><path id="_809" data-name="809" class="cls-5" d="M572.78,13.89l1.4-1.48"/><path id="_810" data-name="810" class="cls-5" d="M572.78,13.89l1.4,1.47"/><path id="_811" data-name="811" class="cls-5" d="M578.46,23.77h14.71"/><path id="_812" data-name="812" class="cls-5" d="M578.46,25.24h15.63"/><path id="_813" data-name="813" class="cls-5" d="M578.46,26.71h16.47"/><path id="_814" data-name="814" class="cls-5" d="M577.05,25.24l1.41-1.47"/><path id="_815" data-name="815" class="cls-5" d="M577.05,25.24l1.41,1.47"/><path id="_816" data-name="816" class="cls-5" d="M578.46,36.8h21.86"/><path id="_817" data-name="817" class="cls-5" d="M578.46,38.28H601"/><path id="_818" data-name="818" class="cls-5" d="M578.46,39.68h23.26"/><path id="_819" data-name="819" class="cls-5" d="M577.05,38.28l1.41-1.48"/><path id="_820" data-name="820" class="cls-5" d="M577.05,38.28l1.41,1.4"/><path id="_821" data-name="821" class="cls-5" d="M579.09,50.89h27.54"/><path id="_822" data-name="822" class="cls-5" d="M579.09,52.36h28.1"/><path id="_823" data-name="823" class="cls-5" d="M579.09,53.77h28.59"/><path id="_824" data-name="824" class="cls-5" d="M577.68,52.36l1.41-1.47"/><path id="_825" data-name="825" class="cls-5" d="M577.68,52.36l1.41,1.41"/><path id="_826" data-name="826" class="cls-5" d="M583.15,66.59h26.71"/><path id="_827" data-name="827" class="cls-5" d="M583.15,68.06h23.06"/><path id="_828" data-name="828" class="cls-5" d="M583.15,69.53h23.06"/><path id="_829" data-name="829" class="cls-5" d="M581.75,68.06l1.4-1.47"/><path id="_830" data-name="830" class="cls-5" d="M581.75,68.06l1.4,1.47"/><path id="_831" data-name="831" class="cls-3" d="M589.53,82.64h16.68"/><path id="_832" data-name="832" class="cls-3" d="M589.53,84h16.68"/><path id="_833" data-name="833" class="cls-2" d="M569.83,25.87h2.53v-2h-2.53"/><path id="_834" data-name="834" class="cls-2" d="M570.32,68.41h2v-2h-2.11"/><path id="_835" data-name="835" class="cls-3" d="M569.9,114.67H573v-2h-3.16"/><path id="_836" data-name="836" class="cls-3" d="M537.66,133.8l-.42-2.17,28.53-6.45.49,2.11"/><path id="_1118" data-name="1118" class="cls-2" d="M329.64,160.72c-26.66,1.48-53.32,3.8-80,3-14.44-.22-28.88-.61-43.31-.94-9.56-.32-19.34-1.37-28.18-5.16-2.43-1-4.16-4.45-2-6.52a15.82,15.82,0,0,1,4.21-3.22"/><path id="_1119" data-name="1119" class="cls-3" d="M185.54,158.54a40.6,40.6,0,0,1-4.95-1.68,6,6,0,0,1-3.29-2.68,3.42,3.42,0,0,1-.13-3.08,10.22,10.22,0,0,1,3.41-3.32l.07-.06,0,0"/><path id="_1120" data-name="1120" class="cls-2" d="M178.39,149.08l32-19.41"/><path id="_1121" data-name="1121" class="cls-2" d="M329.64,160.72,294.1,133.94"/><path id="_1122" data-name="1122" class="cls-2" d="M210.35,129.67l.56-.35.56-.28.63-.35.56-.28.63-.28.63-.21.63-.28.63-.21.63-.21.63-.22.64-.21.7-.21.63-.14.63-.21.7-.14.63-.14.7-.14.63-.07.7-.14.7-.14,1.33-.14,1.34-.21,1.33-.14,1.33-.07,1.33-.14,1.33-.07,1.34-.07,1.33-.07h1.33l1.4-.07,2.66-.07h12.13l1.33.07h1.33l1.33.07,1.27.07,1.33.07,1.33.07,1.26.07,1.26.07,1.33.07,1.27.14,1.19.14,1.26.07,1.26.14,1.19.21,1.19.14,1.19.21,1.27.21,1.19.21,1.19.21.63.14.63.14.63.15.63.21.7.14.63.14.63.21.71.21.7.21.7.21.7.21.7.21.7.21.77.28.7.28.77.28.7.28.7.28.71.28.77.28.63.35.7.35.7.35.63.35.63.35.56.35.63.42.56.42"/><path id="_1123" data-name="1123" class="cls-2" d="M189.67,162.82c-7.69-.14-15.22-2-22.6-4-1.87-.56-4.2-1.53-4.47-3.73a6.12,6.12,0,0,1,2.39-5.83c3.68-3.22,8.23-5.24,12.78-6.92a143.18,143.18,0,0,1,16.46-4.17c1-.19,2.06-.34,3.08-.53"/><path id="_1124" data-name="1124" class="cls-2" d="M329.64,160.72l.21.21.28.07.21.14.28.14.28.07.28.07.21.07h.28l.63.07.56.07,1.12.14,1.13.07,1.12.07,1.12.07h4.48l1.06-.07,1.12-.07h1.12l2.24-.14"/><path id="_1125" data-name="1125" class="cls-2" d="M347.37,161.7c-4.48-.75-9-1.41-13.46-2.12-2.36-.33-4.72-.63-7.07-1"/><path id="_1126" data-name="1126" class="cls-2" d="M359.08,160c2.71-.47,5.39-1.08,8.1-1.57a89,89,0,0,0,11.16-3,69.39,69.39,0,0,0,8.27-3.45q3.08-1.54,6.21-3a35.85,35.85,0,0,1,4.25-1.64c3-1,6-1.7,9-2.57l.46-.12"/><path id="_1127" data-name="1127" class="cls-2" d="M397.34,154.13c3.07-.76,5.54-3,7.7-5.17,2-2.17,2.09-6.06-.48-7.8-3.07-2-6.81-2.84-10.34-3.81-12.06-3-24.59-2.68-36.93-3.07-20.24-.41-40.48-.28-60.72-.22l-2.33,0"/><path id="_1128" data-name="1128" class="cls-3" d="M187.78,157.21a32.92,32.92,0,0,1-6.24-2.31,4.91,4.91,0,0,1-1.86-1.84,3.44,3.44,0,0,1-.34-3.18,9.34,9.34,0,0,1,2.93-3.07l.67-.46"/><path id="_1129" data-name="1129" class="cls-3" d="M185.54,158.54l2.24-1.33"/><path id="_1130" data-name="1130" class="cls-2" d="M181.26,147.4l-.28.14-.21.21-.28.14-.21.21-.21.21-.28.14-.07.14-.14.07-.14.14-.07.07-.14.07-.14.14-.07.07-.14.14-.07.07-.14.14-.14.14-.07.07-.14.14-.14.07-.07.14-.14.14-.07.14h-.07v.07l-.07.07-.07.07v.07l-.07.07-.08.07v.07l-.07.08V151l-.07.07v.07h-.07v.07l-.07.07v.14l-.07.07v.35l-.07.07v.56l.07.07v.35l.07.07v.14l.07.07v.07l.07.07v.14l.07.07v.07l.07.07v.07l.08.07.07.07v.07l.07.07v.07l.07.07.07.07v.07H178l.07.07.07.07v.07l.07.08h.07l.07.07v.07h.07l.07.07.07.07h.07l.07.07h.07l.07.07H179l.14.07h.35l.07-.07h.07v-.07h.07v-.14l.07-.07v-.5l-.07-.07V154l-.07-.07v-.07l-.07-.07v-.07l-.07-.07v-.07l-.14-.14-.07-.14-.07-.14v-.07l-.07-.07v-.07l-.07-.07v-.07l-.07-.07v-.07l-.07-.07v-.14l-.07-.07v-.21l-.07-.07v-1.33l.07-.07v-.22l.07-.07v-.14l.07-.07v-.14L179,150v-.07l.07-.07v-.07l.07-.07v-.07l.07-.07v-.07l.07-.07v-.07l.07-.07v-.07l.07-.07v-.07l.14-.07.07-.14.07-.14.14-.14.07-.07.14-.14.07-.07.14-.14.07-.07.14-.14.14-.07.07-.14.14-.07.14-.07.14-.14.07-.07.14-.07.14-.07"/><path id="_1131" data-name="1131" class="cls-2" d="M190.58,150.34a27.68,27.68,0,0,1-3.71-1.4,3.16,3.16,0,0,1-1.4-1.33,2.94,2.94,0,0,1-.28-1.61,3.41,3.41,0,0,1,1.05-1.4c.32-.47.9-.68,1.33-1.06"/><path id="_1132" data-name="1132" class="cls-2" d="M213.22,132.26a8.73,8.73,0,0,1-1.89-.7c-.32-.22-.65-.44-.7-.84a.93.93,0,0,1,.21-1.05,4.39,4.39,0,0,1,.91-.78"/><path id="_1133" data-name="1133" class="cls-2" d="M190.58,150.34l22.64-18.08"/><path id="_1134" data-name="1134" class="cls-2" d="M272.24,131l15.7-.42"/><path id="_1135" data-name="1135" class="cls-2" d="M314.78,149.5l-27.19.42"/><path id="_1136" data-name="1136" class="cls-2" d="M272.24,131l21.23,18.85"/><path id="_1137" data-name="1137" class="cls-2" d="M287.59,149.92l8.9,12.76"/><path id="_1138" data-name="1138" class="cls-3" d="M238.87,163.94l6,17.66"/><path id="_1139" data-name="1139" class="cls-3" d="M255.13,164.22v6.59H253v-6.66"/><path id="_1140" data-name="1140" class="cls-3" d="M296.77,164.92v6.87h-2.18v-6.87"/><path id="_1141" data-name="1141" class="cls-3" d="M257,182.79v-4.06"/><path id="_1142" data-name="1142" class="cls-3" d="M258.15,177.54h-.21l-.28.07-.21.14-.14.14-.14.14-.14.21-.07.28v.21"/><path id="_1143" data-name="1143" class="cls-3" d="M258.15,177.54h2.94"/><path id="_1144" data-name="1144" class="cls-3" d="M262.28,178.73v-.21l-.07-.28-.14-.21-.14-.14-.14-.14-.21-.14-.21-.07h-.28"/><path id="_1145" data-name="1145" class="cls-3" d="M262.28,178.73V183"/><path id="_1146" data-name="1146" class="cls-3" d="M259.06,178.73v-.14l-.07-.14-.14-.07-.07-.07h-.28l-.14.07-.07.07-.07.14-.07.14.07.14.07.14.07.07.14.07h.28l.07-.07L259,179l.07-.14Z"/><path id="_1147" data-name="1147" class="cls-3" d="M261.09,178.73l-.07-.14-.07-.14-.07-.07-.14-.07h-.28l-.07.07-.14.07-.07.14v.28l.07.14.14.07.07.07h.28l.14-.07L261,179l.07-.14Z"/><path id="_1148" data-name="1148" class="cls-3" d="M272.17,183.07v-4.34"/><path id="_1149" data-name="1149" class="cls-3" d="M273.36,177.54h-.21l-.21.07-.21.14-.21.14-.14.14-.07.21-.07.28-.07.21"/><path id="_1150" data-name="1150" class="cls-3" d="M273.36,177.54h3"/><path id="_1151" data-name="1151" class="cls-3" d="M277.56,178.73l-.07-.21-.07-.28-.07-.21-.14-.14-.21-.14-.21-.14-.21-.07h-.21"/><path id="_1152" data-name="1152" class="cls-3" d="M277.56,178.73V183"/><path id="_1153" data-name="1153" class="cls-3" d="M274.27,178.73v-.14l-.07-.14-.07-.07-.14-.07h-.28l-.07.07-.14.07-.07.14v.28l.07.14.14.07.07.07H274l.14-.07.07-.07.07-.14Z"/><path id="_1154" data-name="1154" class="cls-3" d="M276.3,178.73v-.14l-.07-.14-.07-.07-.14-.07h-.28l-.14.07-.07.07-.07.14v.28l.07.14.07.07.14.07H276l.14-.07.07-.07.07-.14Z"/><path id="_1155" data-name="1155" class="cls-2" d="M309.1,179.92q3.93-2.31,7.85-4.63"/><path id="_1156" data-name="1156" class="cls-2" d="M318.7,176.35v1.82"/><path id="_1157" data-name="1157" class="cls-2" d="M318.7,176.35a1.15,1.15,0,0,0-1.75-1.06"/><path id="_1158" data-name="1158" class="cls-2" d="M321,177.75a4,4,0,0,0,2.77,1.65,5,5,0,0,0,4.21-.61,6.41,6.41,0,0,0,2.55-3"/><path id="_1159" data-name="1159" class="cls-2" d="M143.13,157l25,2.1"/><path id="_1161" data-name="1161" class="cls-2" d="M146.15,147.82a29.89,29.89,0,0,1,5.43.23,28.94,28.94,0,0,1,5.39,1.09,4.63,4.63,0,0,1,2.1,1.43,7,7,0,0,1,1.4,3.65,11.67,11.67,0,0,0,.49,2c0,.74-.83,1-1.43,1.11l-2.05-.17-10.42-.88"/><path id="_1162" data-name="1162" class="cls-3" d="M157.36,145.44l.07.07h.07l.14.07.21-.07H158l.21-.07.21-.07.21-.14.21-.14.28-.14.28-.21.21-.14.28-.21.28-.28.28-.21.21-.28.28-.22.21-.28.28-.28.22-.28.21-.28.21-.28.14-.28.14-.21.14-.28.14-.21.07-.21.07-.21.07-.21v-.28l-.07-.14-.07-.14-.07-.07-.07-.07h-.42l-.21.07-.21.07-.22.14-.21.07-.28.21-.21.14-.28.21-.28.21L160,141l-.28.21-.28.28-.28.21L159,142l-.28.28-.21.28-.21.28-.21.28-.14.21-.21.29-.14.28-.14.21-.07.21-.07.28-.07.14v.49l.07.14.07.07Z"/><path id="_1163" data-name="1163" class="cls-3" d="M159.46,141.51l1.68,1.68"/><path id="_1164" data-name="1164" class="cls-3" d="M408.14,80.61v-.14l-.07-.21-.07-.07-.14-.14-.14-.07h-.35l-.14.07-.14.14-.07.07-.07.21v.28l.07.14.07.14.14.14h.14l.21.07.14-.07h.14L408,81l.07-.14.07-.14Z"/><path id="_1165" data-name="1165" class="cls-3" d="M363.42,119.3a3.89,3.89,0,0,0-3.73.46,3.73,3.73,0,0,0-1.53,2.69,4,4,0,0,0,.48,2.31,3.8,3.8,0,0,0,2.82,1.82,3,3,0,0,0,2-.28"/><path id="_1166" data-name="1166" class="cls-3" d="M367.21,124.69a1.9,1.9,0,0,0,1.26-2.07,2.07,2.07,0,0,0-1.26-1.71"/><path id="_1167" data-name="1167" class="cls-3" d="M363.42,119.3l3.79,1.61"/><path id="_1168" data-name="1168" class="cls-3" d="M363.42,126.3l3.79-1.61"/><path id="_1169" data-name="1169" class="cls-3" d="M224.79,125.25c.33,1.21,1.85,1.47,2.93,1.72a21,21,0,0,0,6.81.11,13.23,13.23,0,0,0,4.62-1.34c.44-.37,1.08-.69,1.06-1.33"/><path id="_1170" data-name="1170" class="cls-2" d="M227.17,125c-.08.8.8,1.15,1.4,1.47a12.68,12.68,0,0,0,4,.43,9.75,9.75,0,0,0,4.64-1.27,1.42,1.42,0,0,0,.63-1.12"/><path id="_1171" data-name="1171" class="cls-3" d="M243.85,155.46H254.5v1.61H243.85Z"/><path id="_1172" data-name="1172" class="cls-3" d="M245.32,155.46v1.61"/><path id="_1173" data-name="1173" class="cls-3" d="M253.17,155.46v1.61"/><path id="_1174" data-name="1174" class="cls-3" d="M268.45,141.65H279v1.61H268.45Z"/><path id="_1175" data-name="1175" class="cls-3" d="M269.92,141.65v1.61"/><path id="_1176" data-name="1176" class="cls-3" d="M277.77,141.65v1.61"/><path id="_1177" data-name="1177" class="cls-3" d="M278.54,153.43h10.59V155H278.54Z"/><path id="_1178" data-name="1178" class="cls-3" d="M280,153.43V155"/><path id="_1179" data-name="1179" class="cls-3" d="M287.87,153.43V155"/><path id="_1180" data-name="1180" class="cls-5" d="M212.59,224.49a23.69,23.69,0,1,0-.55,5.11A21,21,0,0,0,212.59,224.49Z"/><path id="_1181" data-name="1181" class="cls-5" d="M141,261.78l95.46-25.37"/><path id="_1182" data-name="1182" class="cls-5" d="M502.34,165.69l95.46-25.37"/><path id="path25197" class="cls-2" d="M87.55,103.44V97"/><path id="path25205" class="cls-3" d="M89.3,111.52a.63.63,0,1,0-.07.28A.47.47,0,0,1,89.3,111.52Z"/><path id="path25231" class="cls-2" d="M46.1,127.17l4.22.89"/><path id="path25238" class="cls-2" d="M189.22,96.27v6.64"/><path id="path25257" class="cls-2" d="M302.75,87l57.78.52"/><path id="path25300" class="cls-2" d="M563.53,108.22c-2.84.34-5.69.61-8.53.87l-2,.15m-.13-2.22,3.87.33c2.25.17,4.5.45,6.75.66"/><path id="path25302" class="cls-4" d="M545.37,110.74v1.56"/><path id="path25304" class="cls-4" d="M545.44,105.63V104"/></g></g></g></svg>