<svg xmlns="http://www.w3.org/2000/svg" viewBox="0 0 883.61 1225.82"><defs><style>.cls-1{opacity:0.4;}.cls-2,.cls-3,.cls-4,.cls-5,.cls-6,.cls-7,.cls-8{fill:none;stroke:#ff6300;stroke-linejoin:round;}.cls-2,.cls-3,.cls-4,.cls-6,.cls-8{stroke-linecap:round;}.cls-2{stroke-width:1.5px;}.cls-4,.cls-5{stroke-width:1.5px;}.cls-6,.cls-7{stroke-width:0.7px;}.cls-8{stroke-width:0.5px;}</style></defs><title>Asset 21101</title><g id="g6023" class="cls-1"><path id="_4" class="cls-2" d="M559.67 653.55l154.05-10.87"/><path id="_63" class="cls-3" d="M97.68 614h28.72"/><path id="_64" class="cls-4" d="M97 612.91l10.87 17.76"/><path id="_65" class="cls-3" d="M107.91 630.67h23.85"/><path id="_67" class="cls-5" d="M107.91 630.67l27.5 11.68"/><path id="_68" class="cls-3" d="M127.62 612.91l5.43 16.87"/><path id="_69" class="cls-3" d="M126.4 614l5.36 16.71"/><path id="_75" class="cls-3" d="M135.41 612.91v16.55"/><path id="_76" class="cls-3" d="M137.76 612.91l-.08 32"/><path id="_77" class="cls-5" d="M137.68 642.84h70.09"/><path id="_78" class="cls-6" d="M112.61 642.76l23.85 8.44"/><path id="_79" class="cls-6" d="M136.46 651.2l71.31-2.36"/><path id="_80" class="cls-3" d="M113.34 632.94h22.07"/><path id="_81" class="cls-3" d="M135.41 632.94v12"/><path id="_82" class="cls-3" d="M133.05 629.78a1.2 1.2 0 0 0 2.36-.32"/><path id="_83" class="cls-3" d="M140 612.91v20"/><path id="_84" class="cls-3" d="M141.41 612.91v17.68"/><path id="_85" class="cls-3" d="M205.9 613.47v29.37"/><path id="_86" class="cls-2" d="M207.77 613.47v29.37"/><path id="_87" class="cls-3" d="M203.87 613.47v16.47"/><path id="_88" class="cls-3" d="M140 632.94h31.47"/><path id="_89" class="cls-3" d="M141.65 634.4h45.43"/><path id="_90" class="cls-3" d="M141.41 630.59h27.82"/><path id="_91" class="cls-3" d="M169.23 612.91v17.68"/><path id="_92" class="cls-3" d="M171.42 612.91v20"/><path id="_93" class="cls-3" d="M173.53 612.91v17"/><path id="_94" class="cls-3" d="M175.24 631.65h26.93"/><path id="_95" class="cls-3" d="M203.87 636.11v6.73"/><path id="_96" class="cls-3" d="M163.56 634.4v8.44"/><path id="_97" class="cls-3" d="M164.93 634.4v8.44"/><path id="_98" class="cls-3" d="M188.78 636.11v6.73"/><path id="_99" class="cls-3" d="M191.06 636.11v6.73"/><path id="_100" class="cls-3" d="M192.76 634.4h9.41"/><path id="_101" class="cls-3" d="M188.78 636.11a1.78 1.78 0 0 0-1.7-1.71"/><path id="_102" class="cls-3" d="M192.76 634.4a1.94 1.94 0 0 0-1.7 1.71"/><path id="_103" class="cls-3" d="M203.87 636.11a1.78 1.78 0 0 0-1.7-1.71"/><path id="_104" class="cls-3" d="M173.53 629.94a1.94 1.94 0 0 0 1.71 1.71"/><path id="_105" class="cls-3" d="M202.17 631.65a3.93 3.93 0 0 0 1.11-.48 1.56 1.56 0 0 0 .45-.75l.14-.48"/><path id="_106" class="cls-3" d="M140 636.11v6.73"/><path id="_107" class="cls-3" d="M141.65 634.4a1.76 1.76 0 0 0-1.7 1.71"/><path id="_108" class="cls-3" d="M210 635.3a26.36 26.36 0 0 0 24.8 1.92 26.91 26.91 0 0 0 12.93-12 28.41 28.41 0 0 0 3-11.46"/><path id="_109" class="cls-2" d="M207.77 642.84l6.16-18.58"/><path id="_110" class="cls-3" d="M228.37 614a16.59 16.59 0 0 0-6.06 1.3 14.54 14.54 0 0 0-7.45 6.92c-.33.66-.64 1.33-.93 2"/><path id="_111" class="cls-3" d="M228.37 614h3"/><path id="_112" class="cls-3" d="M231.37 614l.81-.32.33-.81"/><path id="_113" class="cls-3" d="M224.88 638.62v-24.17"/><path id="_114" class="cls-3" d="M210.28 634.48a25.38 25.38 0 0 0 18.94 3.62 26 26 0 0 0 18.45-14.83 25.14 25.14 0 0 0 2.12-9.55"/><path id="_115" class="cls-3" d="M241 632.29l-14-17.36"/><path id="_116" class="cls-3" d="M214.09 623.78l8.6-8.6"/><path id="_117" class="cls-3" d="M224.88 615.83l-12.41 12.41"/><path id="_118" class="cls-3" d="M226.91 614.12v24.34"/><path id="_119" class="cls-3" d="M228.78 614l13.71 16.88"/><path id="_120" class="cls-3" d="M196.9 612.91v.56"/><path id="_121" class="cls-3" d="M215 612.91v.56"/><path id="_122" class="cls-3" d="M196.9 613.47h18.1"/><path id="_123" class="cls-3" d="M228.45 614h-17.6v-.57"/><path id="_151" class="cls-3" d="M277.94 612.91v1.21h3.57v-1.21"/><path id="_152" class="cls-3" d="M262.93 612.91v1.21h3.57v-1.21"/><path id="_153" class="cls-3" d="M262.93 613.72h-13.79"/><path id="_154" class="cls-3" d="M296.92 612.91v.81h-15.41"/><path id="_155" class="cls-3" d="M277.94 613.72h-11.44"/><path id="_156" class="cls-3" d="M249.46 617.45h-17.92"/><path id="_157" class="cls-3" d="M229.91 615.42h19.8"/><path id="_158" class="cls-3" d="M228.86 614.12h20.28v-1.21"/><path id="_161" class="cls-7" d="M135.41 643.41l-1.83.61a5.48 5.48 0 0 0-1.26.69 2.19 2.19 0 0 0-.61 1.21 1.81 1.81 0 0 0 0 1 2.39 2.39 0 0 0 .76 1.48 4.73 4.73 0 0 0 1.11.83c.62.16 1.12.64 1.79.61a14.09 14.09 0 0 0 1.82.41 15.51 15.51 0 0 1 1.66.15h1.79c.6-.1 1.22-.16 1.82-.28s1-.5 1.5-.61a5.21 5.21 0 0 0 1.22-1 2.82 2.82 0 0 0 .81-1.22 1.43 1.43 0 0 0-.2-.85 4.17 4.17 0 0 0-.63-.71c-.45-.42-1-.59-1.51-1a14.27 14.27 0 0 1-2-.88 7.48 7.48 0 0 0-1.9-.44 3.7 3.7 0 0 0-1.2-.16 2.33 2.33 0 0 1-.83-.09"/><path id="_162" class="cls-3" d="M135.41 645l.32.81.81.41.81-.41.33-.81"/><path id="_166" class="cls-6" d="M129.08 639.68v8.92"/><path id="_167" class="cls-6" d="M147.17 642.84v7.95"/><path id="_170" class="cls-6" d="M14.05 612.91v14.44"/><path id="_171" class="cls-6" d="M59 612.91v30"/><path id="_172" class="cls-2" d="M60 775.15l.9-.73.89-.81.89-.73.89-.73.9-.73.89-.73 1-.73.89-.74.9-.73 1-.64 1-.65.9-.73 1-.65 1-.65 1-.57 1-.65.57-.32.48-.25.49-.32.49-.24.48-.33.57-.24.49-.33.49-.24 1-.57 1-.48 1.06-.49 1-.49 1.06-.48 1-.41 1.14-.49 1-.4 1.14-.41 1.05-.4 1.14-.41 1-.32"/><path id="_173" class="cls-2" d="M104.5 742.54c.47-2 3-2.86 4.54-4.14 10-5.9 21.93-7.2 33.34-7.87 14.86-.76 29.75-.34 44.62.16"/><path id="_174" class="cls-2" d="M187 730.69l21.09.41"/><path id="_175" class="cls-2" d="M208.17 732.72l15.58-.16"/><path id="_176" class="cls-2" d="M60 777.34v-2.19h-4.82v2.19"/><path id="_177" class="cls-2" d="M60 779.53l.9.73.89.73.89.81.89.73.9.73.89.73 1 .73.89.73.9.65 1 .73 1 .65.9.65 1 .64 1 .65 1 .65 1 .65.57.25.48.32.49.32.49.25.48.32.57.25.49.24.38.33 1 .49 1 .57 1.06.48 1 .49 1.06.41 1 .48 1.14.41 1 .49 1.14.4 1.05.41 1.14.32 1 .41"/><path id="_178" class="cls-2" d="M60 777.34v2.19h-4.82v-2.19"/><path id="_179" class="cls-6" d="M102.63 753.24v48.19"/><path id="_180" class="cls-6" d="M85.19 758.76v37.07"/><path id="_181" class="cls-6" d="M98.66 754.3v46.08"/><path id="_182" class="cls-2" d="M104.5 742.54v34.8"/><path id="_183" class="cls-6" d="M107.82 739.21v38.13"/><path id="_184" class="cls-6" d="M136 731v46.32"/><path id="_185" class="cls-6" d="M187 730.69v46.65"/><path id="_186" class="cls-6" d="M136 773.85h51"/><path id="_187" class="cls-2" d="M208.09 731.1v38.53"/><path id="_188" class="cls-2" d="M187 771.9h26.12"/><path id="_189" class="cls-6" d="M189.51 730.77v41.13"/><path id="_190" class="cls-2" d="M213.12 771.9a63.87 63.87 0 0 1 10.95 1.1c3.08.33 6.11 1.07 9.17 1.54 2.68.46 5.31 1 7.95 1.54.88.35 2.09.21 2.68 1l.16.33"/><path id="_191" class="cls-2" d="M197.38 771.9l2.11-2"/><path id="_192" class="cls-2" d="M199.49 769.87c5.41-.06 10.81-.4 16.23-.32a91 91 0 0 1 9.61.89c3 .44 6 1.08 9.07 1.64 3.89.89 8 1.35 11.49 3.31.66.44 1.63.91 1.63 1.78l.08.09v.08"/><path id="_193" class="cls-6" d="M110 741.89v17.6"/><path id="_194" class="cls-6" d="M132.89 736.05v18.33"/><path id="_195" class="cls-6" d="M110.74 740.67c6.4-3.34 13.58-5 20.69-5.92"/><path id="_196" class="cls-6" d="M111.72 760.79l20.2-5"/><path id="_197" class="cls-6" d="M110.74 740.67l-.73 1.22"/><path id="_198" class="cls-6" d="M132.89 736.05a1.34 1.34 0 0 0-1.46-1.3"/><path id="_199" class="cls-6" d="M110 759.49a1.49 1.49 0 0 0 1.71 1.3"/><path id="_200" class="cls-6" d="M131.92 755.76a1.39 1.39 0 0 0 1-1.38"/><path id="_201" class="cls-2" d="M102.63 753.24h1.87"/><path id="_202" class="cls-6" d="M213.45 732.64l-2.36 36.91"/><path id="_203" class="cls-6" d="M212.47 747.57l53.14 3.4"/><path id="_204" class="cls-6" d="M223.75 740.27c17.67 1.32 35.54 1.79 52.89 5.59 11.29 2.77 22.66 7.71 30.42 16.63a22.58 22.58 0 0 1 5.19 18.09c-.88 8.36-7.32 14.85-14 19.23-13.37 8.91-29.76 10.94-45.39 12.49-9.68.86-19.39 1.39-29.08 2.11"/><path id="_205" class="cls-6" d="M265.61 743.83v33.51"/><path id="_206" class="cls-6" d="M214.74 747.73v6.41h1.63v-6.33"/><path id="_207" class="cls-6" d="M238.67 749.19v6.57h1.55v-6.41"/><path id="_208" class="cls-6" d="M261.39 750.65v6.41h1.54v-6.25"/><path id="_209" class="cls-6" d="M285 764.2h8v11.19h-8z"/><path id="_210" class="cls-2" d="M104.5 812.14c.39 1.84 2.59 2.63 4 3.73 9.3 5.82 20.5 7.26 31.24 8.07 15.74 1 31.53.57 47.29 0"/><path id="_211" class="cls-2" d="M187 824l21.09-.49"/><path id="_212" class="cls-2" d="M208.17 822l20.36.25"/><path id="_213" class="cls-2" d="M104.5 812.14v-34.8"/><path id="_214" class="cls-6" d="M107.82 815.46v-38.12"/><path id="_215" class="cls-6" d="M136 823.66v-46.32"/><path id="_216" class="cls-6" d="M187 824v-46.66"/><path id="_217" class="cls-6" d="M136 780.83h51"/><path id="_218" class="cls-2" d="M208.09 823.49v-38.49"/><path id="_219" class="cls-2" d="M187 782.77h26.12"/><path id="_220" class="cls-6" d="M189.51 823.9v-41.13"/><path id="_221" class="cls-2" d="M213.12 782.77c1.73-.17 3.49 0 5.21-.35a75 75 0 0 0 8.58-1.19c2.28-.26 4.54-.77 6.82-1.13 2.62-.47 5.19-1.07 7.78-1.55.87-.31 2.24-.22 2.52-1.21"/><path id="_222" class="cls-2" d="M197.38 782.77l2.11 2"/><path id="_223" class="cls-2" d="M199.49 784.8c5 0 9.93.42 14.9.32a86.63 86.63 0 0 0 12.85-1.21c3.65-.61 7.27-1.4 10.91-2.11a23.1 23.1 0 0 0 8.72-3.16 2.17 2.17 0 0 0 .73-1.3"/><path id="_224" class="cls-6" d="M110 812.79v-17.61"/><path id="_225" class="cls-6" d="M132.89 818.55v-18.34"/><path id="_226" class="cls-6" d="M110.74 814c6.44 3.35 13.57 4.91 20.69 5.92"/><path id="_227" class="cls-6" d="M111.72 793.89l20.2 5"/><path id="_228" class="cls-6" d="M110 812.79c.25.4.49.81.73 1.21"/><path id="_229" class="cls-6" d="M131.43 819.93a1.35 1.35 0 0 0 1.46-1.38"/><path id="_230" class="cls-6" d="M111.72 793.89a1.49 1.49 0 0 0-1.71 1.29"/><path id="_231" class="cls-6" d="M132.89 800.21a1.36 1.36 0 0 0-1-1.29"/><path id="_232" class="cls-2" d="M102.63 801.43h1.87"/><path id="_233" class="cls-6" d="M213.45 822l-2.36-36.91"/><path id="_234" class="cls-6" d="M212.47 807.11l53.14-3.41"/><path id="_235" class="cls-6" d="M265.61 810.84v-33.5"/><path id="_236" class="cls-6" d="M214.74 807v-6.41h1.63v6.32"/><path id="_237" class="cls-6" d="M238.67 805.4v-6.48h1.55v6.4"/><path id="_238" class="cls-6" d="M261.39 803.94v-6.4h1.54v6.32"/><path id="_239" class="cls-6" d="M285 790.48h8v-11.2h-8z"/><path id="_240" class="cls-6" d="M280.53 768.9a5.67 5.67 0 0 0-.4-2.19 5.48 5.48 0 0 0-1.22-1.78 5.54 5.54 0 0 0-1.78-1.22 5.76 5.76 0 0 0-6.17 1.22 5.48 5.48 0 0 0-1.22 1.78 5.76 5.76 0 0 0 1.22 6.17 5.79 5.79 0 0 0 1.87 1.21 5.62 5.62 0 0 0 2.11.41 5.68 5.68 0 0 0 2.19-.41 5.41 5.41 0 0 0 1.78-1.21 5.82 5.82 0 0 0 1.22-1.87 5.61 5.61 0 0 0 .4-2.11z"/><path id="_241" class="cls-6" d="M271.69 768.9a.92.92 0 0 0-.24-.65 1 1 0 0 0-.65-.24 1 1 0 0 0-.65.24.92.92 0 0 0-.24.65.87.87 0 0 0 .24.57.82.82 0 0 0 1.3 0 .87.87 0 0 0 .24-.57z"/><path id="_242" class="cls-6" d="M277.94 772.47a1 1 0 0 0-.33-.65.86.86 0 0 0-.56-.24.89.89 0 0 0-.65.24 1 1 0 0 0 0 1.3.89.89 0 0 0 .65.24.86.86 0 0 0 .56-.24 1 1 0 0 0 .33-.65z"/><path id="_243" class="cls-6" d="M277.94 765.33a1 1 0 0 0-.33-.65.86.86 0 0 0-.56-.24.89.89 0 0 0-.65.24.93.93 0 0 0-.25.65.86.86 0 0 0 .25.57.89.89 0 0 0 .65.24 1 1 0 0 0 .89-.81z"/><path id="_244" class="cls-2" d="M445.45 763.38l50.06 12.09"/><path id="_245" class="cls-2" d="M441.8 792.18l53.71-13"/><path id="_246" class="cls-2" d="M495.51 779.2l.81-.48.57-.9v-1l-.57-.89-.81-.49"/><path id="_247" class="cls-6" d="M444.72 768.23v23.22"/><path id="_248" class="cls-2" d="M205.09 823.58s2.67 1.18 4.06 1.62a26.48 26.48 0 0 0 4.21 1c1.45.21 4.38.24 4.38.24"/><path id="_249" class="cls-2" d="M209.15 822a40.15 40.15 0 0 0 4 1.06 39.74 39.74 0 0 0 4.22.24"/><path id="_250" class="cls-2" d="M217.74 826.41a2.92 2.92 0 0 0 1.06-.56 1.66 1.66 0 0 0 .32-1.14 1.58 1.58 0 0 0-.48-1.05 3.06 3.06 0 0 0-1.22-.41"/><path id="_298" class="cls-2" d="M223.75 661.58v78.69"/><path id="_299" class="cls-2" d="M223.75 740.27v.64c-.15.3-.1.64-.22.94a2.19 2.19 0 0 0-.22.73c-.27.23-.27.64-.45.93s-.25.46-.45.65-.34.34-.48.53c-.3.15-.49.44-.78.6a2.15 2.15 0 0 1-.75.39h-.06"/><path id="_300" class="cls-2" d="M438.8 816l16.39-129"/><path id="_301" class="cls-6" d="M377.23 670.26v145.74"/><path id="_302" class="cls-6" d="M438.8 816h-195.42"/><path id="_303" class="cls-6" d="M243.38 816v4.46"/><path id="_304" class="cls-6" d="M243.38 820.49h-14.85"/><path id="_305" class="cls-6" d="M269 670.26v74.14"/><path id="_306" class="cls-2" d="M438.8 816l-31.72 152.62"/><path id="_307" class="cls-2" d="M228.21 818.06l1.14 7.71"/><path id="_308" class="cls-2" d="M228.21 818.06c-.28-1.48-1.82-2.37-3.16-2.84"/><path id="_309" class="cls-6" d="M437.34 823.17l-208.81-1"/><path id="_310" class="cls-2" d="M284.67 1198.27c1.77 13 12.52 24.2 25.5 26.31a31.19 31.19 0 0 0 18.23-2.22"/><path id="_311" class="cls-2" d="M328.4 1222.36a60.92 60.92 0 0 0 26.2-22.14"/><path id="_312" class="cls-6" d="M285 1200.22h69.6"/><path id="_313" class="cls-2" d="M398.16 823l-44.05 290.73"/><path id="_314" class="cls-2" d="M341.29 1198.51h14.44"/><path id="_315" class="cls-2" d="M355.73 1198.51a59.76 59.76 0 0 0 7.71-19.55"/><path id="_316" class="cls-6" d="M345 968.62h62.05"/><path id="_317" class="cls-2" d="M375.69 971.3h30.91"/><path id="_318" class="cls-2" d="M406.6 971.3l-43.16 207.7"/><path id="_319" class="cls-6" d="M265.28 822.36l21.26 269.48"/><path id="_320" class="cls-6" d="M268.85 1091.84h20.77"/><path id="_321" class="cls-6" d="M289.62 1091.84q4.74 54.18 9.49 108.38"/><path id="_322" class="cls-6" d="M361.82 1062.8h25.71"/><path id="_323" class="cls-6" d="M334.32 1200.22l14.68-201.02"/><path id="_324" class="cls-6" d="M349 999.2h-35.13"/><path id="_325" class="cls-6" d="M281.91 1033.11h32"/><path id="_326" class="cls-6" d="M313.87 1033.11v-210.51"/><path id="_327" class="cls-6" d="M353.87 670.26v145.74"/><path id="_328" class="cls-6" d="M377.23 670.26h-153.48"/><path id="_329" class="cls-6" d="M377.23 670.26a192.82 192.82 0 0 1 50.13 7.15 248.93 248.93 0 0 1 27.83 9.59"/><path id="_330" class="cls-2" d="M455.19 687a23.85 23.85 0 0 1 2.84-8.68"/><path id="_331" class="cls-6" d="M240.05 634.16v36.1"/><path id="_332" class="cls-6" d="M303.73 670.26v-7.79"/><path id="_333" class="cls-6" d="M369.36 670.26v-57.35"/><path id="_334" class="cls-6" d="M372.44 661.82v-48.91"/><path id="_335" class="cls-6" d="M422.74 676.18v-15.49"/><path id="_336" class="cls-6" d="M426.39 677.15v138.85"/><path id="_337" class="cls-6" d="M313.87 816v-145.74"/><path id="_339" class="cls-6" d="M353.87 822.76l-1 16.23"/><path id="_340" class="cls-6" d="M323 835.66c-9.49.51-10.48 15.67-1.05 17.23l1.05.21"/><path id="_341" class="cls-6" d="M357.19 848.07a4 4 0 0 0 0-7.38"/><path id="_342" class="cls-6" d="M357.19 840.69a67.27 67.27 0 0 0-34.15-5"/><path id="_343" class="cls-6" d="M323 853.1a65.89 65.89 0 0 0 34.15-5"/><path id="_344" class="cls-6" d="M352.25 850l-9.09 149.2"/><path id="_345" class="cls-6" d="M242.41 913.62a20.89 20.89 0 0 0 5.57-7.49 19.88 19.88 0 0 0-.45-16.61 19.44 19.44 0 0 0-9.32-9.15l-.83-.42"/><path id="_346" class="cls-2" d="M241.84 910.05a17.24 17.24 0 0 0 4.49-8.7 16.32 16.32 0 0 0-1.11-9.75 16.9 16.9 0 0 0-6.93-7.92l-.35-.24"/><path id="_347" class="cls-6" d="M239.49 880.93h30.42"/><path id="_348" class="cls-6" d="M286.78 880.68h4.38v7.71h-4.38z"/><path id="_349" class="cls-6" d="M288.24 921.49h4.3v7.7h-4.3z"/><path id="_350" class="cls-6" d="M296 945.82a7.46 7.46 0 0 0-.33-2.19 6.92 6.92 0 0 0-1-1.94 6.87 6.87 0 0 0-5.68-2.84 7.2 7.2 0 0 0-2.11.32 7.11 7.11 0 0 0-1.95 1 7.3 7.3 0 0 0-1.54 1.55 6.89 6.89 0 0 0-1.05 1.94 7.17 7.17 0 0 0 0 4.3 6.94 6.94 0 0 0 1.05 2 7.25 7.25 0 0 0 1.54 1.54 7.41 7.41 0 0 0 1.95 1 6.64 6.64 0 0 0 2.11.41 6.85 6.85 0 0 0 2.19-.41 7.41 7.41 0 0 0 1.95-1 6.82 6.82 0 0 0 1.54-1.54 7.11 7.11 0 0 0 1-2 7.21 7.21 0 0 0 .33-2.14z"/><path id="_351" class="cls-6" d="M291.16 945.82a2.45 2.45 0 0 0-.24-1.13 2.17 2.17 0 0 0-.81-.81 2.13 2.13 0 0 0-2.28 0 2.17 2.17 0 0 0-.81.81 2.8 2.8 0 0 0 0 2.27 2.17 2.17 0 0 0 .81.81 2.83 2.83 0 0 0 2.28 0 2.17 2.17 0 0 0 .81-.81 2.46 2.46 0 0 0 .24-1.14z"/><path id="_352" class="cls-6" d="M363.68 990.93a1.36 1.36 0 0 0 1.38-.58 5.88 5.88 0 0 0 1.46-1.94c.29-.52.43-1.09.67-1.62s.31-1.15.55-1.7.31-1.31.41-2 .18-1.23.24-1.85a7.31 7.31 0 0 1 .08-1.62c0-.58-.14-1.12-.08-1.7-.14-.54-.1-1.09-.26-1.63a6 6 0 0 0-.88-2.1 1.25 1.25 0 0 0-1.17-.65 1.27 1.27 0 0 0-1.18.48 4.74 4.74 0 0 0-1.25 1.63 7 7 0 0 0-.86 1.78 16.48 16.48 0 0 0-.55 1.68c-.21.93-.41 1.87-.59 2.8l-.16 1.85v3c.08.57.18 1.14.31 1.7a4.56 4.56 0 0 0 .84 1.81c.3.33.56.65 1 .63z"/><path id="_353" class="cls-6" d="M291.24 1200.22a26.42 26.42 0 0 0 19.76 20.78c11.14 2.91 23.88-2.55 29.24-12.79a25.69 25.69 0 0 0 3-8"/><path id="_354" class="cls-6" d="M306.82 1156.9h9.57v7.54h-9.57z"/><path id="_355" class="cls-6" d="M354.68 1109.93c-3.35 0-8 1.08-8.92 4.78-.11 3.65 4.44 5 7.38 5.36"/><path id="_356" class="cls-2" d="M348.76 1113.74h8.35v2h-8.35z"/><path id="_357" class="cls-2" d="M353.79 1115.69l-12.79 84.53"/><path id="_358" class="cls-6" d="M359.47 936.66a1.6 1.6 0 0 0-.41-1.06 1.54 1.54 0 0 0-1.06-.48 1.58 1.58 0 0 0-1.05.48 1.62 1.62 0 0 0-.49 1.06 1.53 1.53 0 0 0 .49 1.05 1.59 1.59 0 0 0 1.05.41 1.53 1.53 0 0 0 1.06-.41 1.51 1.51 0 0 0 .41-1.05z"/><path id="_359" class="cls-6" d="M365.31 985.9a.86.86 0 0 0-.9-.9.93.93 0 0 0-.65.25 1 1 0 0 0-.24.65.83.83 0 0 0 .89.89 1 1 0 0 0 .65-.24.93.93 0 0 0 .25-.65z"/><path id="_360" class="cls-6" d="M364.33 773c1.72-.32 2.29-2.42 2.68-3.9a21.31 21.31 0 0 0-.24-10.87c-.49-1.2-1.33-3.22-2.92-2.76-1.8 1.08-2.14 3.45-2.6 5.36a24.35 24.35 0 0 0 .49 8.92c.51 1.18 1.04 3.05 2.59 3.25z"/><path id="_361" class="cls-6" d="M365.22 767.85a1 1 0 0 0-.24-.65.91.91 0 0 0-.65-.25.93.93 0 0 0-.65.25 1 1 0 0 0-.24.65.83.83 0 0 0 .89.89 1 1 0 0 0 .65-.24 1 1 0 0 0 .24-.65z"/><path id="_362" class="cls-6" d="M364.33 740.59c1.72-.31 2.29-2.42 2.68-3.89a21.31 21.31 0 0 0-.24-10.87c-.5-1.22-1.34-3.21-2.92-2.76-2 1.27-2.28 3.94-2.68 6.08a21.51 21.51 0 0 0 1 9.33c.47.85 1.04 2.07 2.16 2.11z"/><path id="_363" class="cls-6" d="M365.22 735.48a.83.83 0 0 0-.89-.89 1 1 0 0 0-.65.24 1 1 0 0 0-.24.65.83.83 0 0 0 .89.89 1 1 0 0 0 .65-.24 1 1 0 0 0 .24-.65z"/><path id="_364" class="cls-6" d="M305.19 687.29a7 7 0 0 0-5.25-6.69 6.87 6.87 0 0 0-6.29 1.43 7 7 0 0 0 7.81 11.44 7 7 0 0 0 3.73-6.18z"/><path id="_365" class="cls-6" d="M300.41 687.29a2.2 2.2 0 0 0-3.33-1.86 2.24 2.24 0 0 0 .13 3.88 2.2 2.2 0 0 0 3.2-2.02z"/><path id="_366" class="cls-6" d="M371.39 703.68c.06-4.31-4.34-8-8.57-6.79-4.71.89-6.9 7.1-4 10.85 2.62 3.93 9.2 3.71 11.49-.46a7.75 7.75 0 0 0 1.08-3.6z"/><path id="_454" class="cls-6" d="M257.17 613.79v30.27"/><path id="_455" class="cls-6" d="M559.84 612.91v40.64"/><path id="_458" class="cls-6" d="M207.77 648.84l32.28 1.54"/><path id="_459" class="cls-6" d="M240.05 650.38l17.12-6.32"/><path id="_460" class="cls-6" d="M257.17 644.06l112.19-2.6"/><path id="_461" class="cls-6" d="M202.58 649v-6.17"/><path id="_467" class="cls-6" d="M366.85 632.78l1.94-9.81.65-10.06"/><path id="_468" class="cls-6" d="M355.49 641.79a23.56 23.56 0 0 0 3.08-.49 12.12 12.12 0 0 0 2.84-1.22 12.32 12.32 0 0 0 2.44-1.94 11.93 11.93 0 0 0 1.86-2.44 21.37 21.37 0 0 0 1.14-2.92"/><path id="_475" class="cls-6" d="M546.05 654.52c-.5-1.27-2.32-1.24-3.49-1.7a85.68 85.68 0 0 0-23.77.57c-3.15.62-6.61 1-9.25 2.84-.2.21-.2.41-.32.64"/><path id="_476" class="cls-6" d="M425.26 625.56v7.71h36.5v-20.36"/><path id="_477" class="cls-6" d="M420 612.91v12.65h5.28"/><path id="_478" class="cls-6" d="M425.26 625.56l13.14-4.87v-7.78"/><path id="_479" class="cls-6" d="M461.76 612.91h-23.36"/><path id="_480" class="cls-6" d="M427.53 627.67v3.33h32v-16"/><path id="_481" class="cls-6" d="M427.53 627.67l13.62-5v-7.67"/><path id="_482" class="cls-6" d="M425.5 623.37l10.95-4v-6.41"/><path id="_483" class="cls-6" d="M422.17 612.91v10.46h3.33"/><path id="_484" class="cls-6" d="M459.49 615h-18.33"/><path id="_485" class="cls-6" d="M744.47 632.78l3.25 11.2"/><path id="_486" class="cls-6" d="M747.72 644l-26.72 3.22"/><path id="_487" class="cls-2" d="M721 647.22l38.4 133.85"/><path id="_488" class="cls-6" d="M759.4 781.07h40"/><path id="_489" class="cls-6" d="M799.39 781.07v3.16"/><path id="_490" class="cls-2" d="M759.4 781.07v4.14"/><path id="_491" class="cls-2" d="M879.05 612.91v1.46"/><path id="_492" class="cls-2" d="M882.86 612.91v1"/><path id="_493" class="cls-6" d="M712.51 642.68a10.44 10.44 0 0 1 4.22-4.06 23.91 23.91 0 0 1 8.6-2.84"/><path id="_494" class="cls-6" d="M725.33 635.78l19.14-3"/><path id="_495" class="cls-2" d="M712.51 642.68h1.21l.33.08h.32l.33.08h.3l.33.08.32.08.41.08.32.08.33.17.24.08.32.16.33.08.32.16.33.17.24.16.24.24.33.16.24.17.25.24.24.16.16.24.16.17.08.08.09.16.08.08.08.16.08.08.08.17.08.08.08.16.08.16v.08l.08.17.09.16v.16"/><path id="_496" class="cls-6" d="M746.66 640.41l56.54-4"/><path id="_497" class="cls-6" d="M745 634.65l58.28-3.65"/><path id="_498" class="cls-6" d="M803.28 631l-1.78 142.52"/><path id="_499" class="cls-2" d="M801.5 773.52h14.76"/><path id="_500" class="cls-2" d="M816.26 773.52l26.74-1.78"/><path id="_501" class="cls-6" d="M803.28 632.13a164.63 164.63 0 0 0 37.81-5.8c12.84-3.35 25.43-7.62 38-12"/><path id="_502" class="cls-2" d="M879.05 613.88h3.81"/><path id="_503" class="cls-2" d="M879.05 614.37l-10.14 20.36"/><path id="_504" class="cls-2" d="M868.91 634.73h-65.71"/><path id="_505" class="cls-2" d="M803.2 636.43h65.22"/><path id="_506" class="cls-2" d="M868.42 636.43c-.09 46.25-12.42 91.29-25.42 135.31"/><path id="_507" class="cls-2" d="M801.5 773.52v1.71"/><path id="_508" class="cls-2" d="M801.5 775.23h15.33"/><path id="_509" class="cls-2" d="M816.83 775.23l23.28-1.46"/><path id="_510" class="cls-2" d="M811.56 784.56l28.55-10.79"/><path id="_511" class="cls-6" d="M816.51 789h38.29"/><path id="_512" class="cls-2" d="M746 789c.19 1.07 1.74 1.11 2.6 1.62 9.9 3.13 20.43 2.76 30.7 3.25a504.54 504.54 0 0 0 57.4-2.11c6-.77 12.1-1.57 18.09-2.76"/><path id="_513" class="cls-2" d="M746 789c.45-1.21 2.29-1.27 3.33-1.87 10.43-2.93 21.41-2.63 32.16-3 21.42-.14 42.94.29 64.17 3.32 3.05.5 6.09 1 9.13 1.55"/><path id="_514" class="cls-6" d="M817.07 775.23v7.22"/><path id="_515" class="cls-6" d="M751 791.37h63.8"/><path id="_516" class="cls-2" d="M814.8 789v2.35"/><path id="_517" class="cls-2" d="M800.2 793.89l14.6-2.52"/><path id="_518" class="cls-2" d="M814.8 791.37l.43-.1a1.36 1.36 0 0 0 .32-.23.41.41 0 0 0 .31-.32 2.85 2.85 0 0 0 .38-.53 1.49 1.49 0 0 0 .23-.69c.07-.12 0-.27 0-.41v-.09"/><path id="_519" class="cls-6" d="M751 786.75h63.8"/><path id="_520" class="cls-2" d="M814.8 789v-2.27"/><path id="_521" class="cls-2" d="M800.2 784.23l14.6 2.52"/><path id="_522" class="cls-2" d="M814.8 786.75a2 2 0 0 1 .35 0l.38.23s.17.23.29.24.09.19.2.25c0 .23.22.33.31.52s.06.43.16.63a2.55 2.55 0 0 1 0 .39"/><path id="_523" class="cls-6" d="M758.26 639.6l22.47 141.47"/><path id="_524" class="cls-2" d="M855.61 636.43v32.57h10.87"/><path id="_525" class="cls-2" d="M810.83 692.73v-1.22h5v3.9h-5v-1"/><path id="_526" class="cls-2" d="M802.47 692.49l8.36.24"/><path id="_527" class="cls-2" d="M802.47 695.08l8.36-.65"/><path id="_528" class="cls-6" d="M815.13 699.22l-.25-1-.73-.82-1-.24-1.06.24-.73.82-.24 1 .24 1 .73.73 1.06.33 1-.33.73-.73z"/><path id="_529" class="cls-6" d="M816.1 663.36l-.32-1.13-.9-.89-1.13-.33-1.22.33-.81.89-.32 1.13.32 1.22.81.89 1.22.33 1.13-.33.9-.89z"/><path id="_573" class="cls-6" d="M140 824v-1.8h2.27v1.94"/><path id="_574" class="cls-6" d="M181.56 824.14v-1.94h2.19v1.86"/><path id="_575" class="cls-6" d="M206.14 771.9v10.87"/><path id="_576" class="cls-2" d="M217.74 728.26s-2.93 0-4.38.24a26.51 26.51 0 0 0-4.21 1c-1.39.43-4.06 1.62-4.06 1.62"/><path id="_577" class="cls-2" d="M217.42 731.34s-2.82.11-4.22.33l-4 1"/><path id="_578" class="cls-2" d="M217.42 731.34a2.83 2.83 0 0 0 1.22-.32 1.59 1.59 0 0 0 .48-1.06 1.62 1.62 0 0 0-.32-1.13 3 3 0 0 0-1.06-.57"/><path id="_579" class="cls-6" d="M140 730.69v1.79h2.27v-2"/><path id="_580" class="cls-6" d="M181.56 730.53v2h2.19v-1.87"/><path id="_581" class="cls-6" d="M308.76 1160.3h5v1.63h-5z"/><path id="_582" class="cls-2" d="M447.81 658.5v-4.63h8.27v4.55"/><path id="_583" class="cls-2" d="M454.22 658.74c2.51-.38 5.32-1 7-3 1.26-1.42 0-3.43-1.62-3.89-4.16-1.84-9.1-1.47-13.3.08-1.63.68-3.93 2.4-2.76 4.38 1.76 2.05 4.83 2.45 7.38 2.59"/><path id="_592" class="cls-2" d="M463 693.3l-5.52-16.63"/><path id="_593" class="cls-2" d="M464.92 692.65l-5.51-16.65"/><path id="_594" class="cls-2" d="M463 693.3l.08.08h.08l.08.08h.32l.09-.08h.24l.16-.08h.08l.16-.08.09-.09h.16l.08-.08.08-.08h.08l.08-.08v-.08l.08-.08v-.08l-.08-.08-.08-.08h-.57l-.16.08h-.05l-.16.08h-.08l-.17.08h-.08l-.16.08-.08.08-.08.08h-.08v.08l-.08.08v.17z"/><path id="_595" class="cls-2" d="M457 676.83l-7-20.83"/><path id="_596" class="cls-2" d="M459.89 675.86l-6.89-20.86"/><path id="_597" class="cls-2" d="M459.41 676v-.08h-.08l-.08-.08h-.49l-.16.08h-.25l-.08.08h-.16l-.08.08-.16.08h-.08l-.09.08-.08.08-.08.08-.08.08v.17"/><path id="_598" class="cls-2" d="M459.57 676.42l.08-.08.08-.08.08-.08.08-.08v-.33l-.08-.08-.08-.08h-.24l-.08-.08h-.41l-.16.08h-.32l-.17.08h-.16l-.16.08-.08.09-.16.08-.17.08h-.08l-.16.08-.08.08-.08.08-.08.08-.09.08-.08.08v.09l-.08.08v.08l.08.08v.08h.08v.09h.09l.08.08h.4"/><path id="_599" class="cls-2" d="M459.73 675.37a45.32 45.32 0 0 1 23.27-17.12"/><path id="_600" class="cls-2" d="M453 655v-.08h-.08l-.08-.08h-.08l-.09-.09h-.16l-.16-.08h-.16l-.08.08h-.33l-.16.09h-.16l-.16.08h-.17l-.13.08-.08.08-.16.08-.16.08-.09.08-.08.08-.16.09-.08.08v.08l-.08.08v.08h-.11v.19"/><path id="_601" class="cls-2" d="M454.46 659.55l6.65-.32 6.57-.25 6.57-.32 6.57-.24 6.57-.33 6.58-.4 6.57-.33 6.57-.32 6.57-.41 6.57-.4 6.57-.41 6.57-.41 6.57-.48 6.57-.41 6.57-.49 6.57-.48"/><path id="_612" class="cls-6" d="M735.14 612.91v21.33"/><path id="_613" class="cls-6" d="M799.31 612.91v18.33"/><path id="_617" class="cls-6" d="M208.09 734.26h-18.58"/><path id="_618" class="cls-6" d="M208.09 744.32h-18.58"/><path id="_619" class="cls-6" d="M208.09 759.49h-18.58"/><path id="_620" class="cls-6" d="M208.09 795.18h-18.58"/><path id="_621" class="cls-6" d="M208.09 810.27h-18.58"/><path id="_622" class="cls-6" d="M208.09 820.41h-18.58"/><path id="_683" class="cls-3" d="M131.43 612.91a3.59 3.59 0 0 0 .24.89 2 2 0 0 0 .65.65 1.79 1.79 0 0 0 1.79 0 2 2 0 0 0 .65-.65 3.59 3.59 0 0 0 .24-.89"/><path id="_684" class="cls-8" d="M135 612.91l639.49 176.09"/><path id="_809" class="cls-2" d="M13.07 590.68v4.87"/><path id="_810" class="cls-2" d="M13.07 595.55h7.06"/><path id="_811" class="cls-2" d="M13.07 590.68h19.23"/><path id="_814" class="cls-2" d="M13.07 594.17h-5.43v-2.11h5.43"/><path id="_876" class="cls-2" d="M232.75 832.17l5.19 34.89"/><path id="_877" class="cls-2" d="M232.75 832.17a11.17 11.17 0 0 0-3.4-6.4"/><path id="_878" class="cls-2" d="M236.65 874.92a15.07 15.07 0 0 0 1.31-7.43v-.43"/><path id="_879" class="cls-2" d="M236.65 874.92l48 323.35"/><path id="_940" class="cls-3" d="M124.37 632.94l7.06 7.71"/><path id="_941" class="cls-3" d="M128.67 632.94l3.65 8.12"/><path id="_942" class="cls-3" d="M132.65 632.94l.89 8.6"/><path id="_968" class="cls-2" d="M91.92 757.54a529.4 529.4 0 0 1 2.84-75.44c-.08-1.18 1.47-2.11 1.46-.48 2.7 17 6.14 34 6.33 51.26.09 6.19-1.7 12.13-3.65 17.93a40.93 40.93 0 0 0-.24 5.76"/><path id="_969" class="cls-2" d="M91.92 757.3v.41l.09.08.08.16.08.08.08.08.08.08.16.08.16.09.17.08.16.08.16.08.24.08h.17l.24.08h1.46l.24-.08h.25l.24-.08h.24l.17-.08.24-.08.24-.08.25-.09.16-.08.24-.08.16-.08.17-.16.16-.08.16-.16.08-.09.16-.16.09-.08.08-.16v-.08l.08-.17v-.32"/><path id="_970" class="cls-2" d="M98.66 754.3l1-.33 1.06-.24 1-.24 1-.25"/><path id="_971" class="cls-2" d="M91.92 797.29v-.29l.09-.08.08-.17.08-.08.08-.08.08-.16.16-.08.16-.08.17-.08h.18l.16-.08.24-.09h.17l.24-.08h1.7l.25.08h.24l.24.09.17.08.24.08.24.08.25.08.16.08.24.08.16.08.17.08.16.17.16.08.08.16.16.08.09.16.08.08v.17l.08.08v.4"/><path id="_972" class="cls-2" d="M98.66 800.38l1 .24 1.06.32 1 .25 1 .24"/><path id="_973" class="cls-6" d="M97.6 803.86c-1.1.12-1.76 1.25-2.1 2.2a16.92 16.92 0 0 0-1.22 3.94c-.23 1.17-.5 2.32-.63 3.51-.28 1.59-.34 3.21-.55 4.81-.11 2.09-.31 4.18-.31 6.28-.11 2.38 0 4.77-.06 7.16.18.9 0 1.83.17 2.74"/><path id="_975" class="cls-6" d="M115.61 643.81v9.49"/><path id="_976" class="cls-2" d="M91.92 797.13a542.85 542.85 0 0 0 2.76 75.12c-.15 1.15 1.5 2.57 1.55.81 2.58-15.94 5.64-32.11 6.32-48.35a50.74 50.74 0 0 0-3.49-20.28 27.83 27.83 0 0 1-.4-6.33"/><path id="_1114" class="cls-2" d="M559.67 572.35c-124.85-8.91-250.27-11.57-375.35-6.49-53.74 4-108.48 9-159.42 27.62-9.21 4.47-27.32 9.46-23.67 23 5.22 10.58 21.12 14.4 28.64 17.84 51.23 17.4 107.23 22.61 161.67 26 86.5 3.46 173.18 2.39 259.67-.73"/><path id="_1115" class="cls-2" d="M559.67 572.35l154.05 10.79"/><path id="_1116" class="cls-3" d="M97.68 611.85h28.72"/><path id="_1117" class="cls-4" d="M97 612.91l10.87-17.77"/><path id="_1118" class="cls-3" d="M107.91 595.14h23.85"/><path id="_1119" class="cls-6" d="M112.61 583.05c-4.14 1.34-8.61 2.5-11.7 5.78-3.49 3.24-5.09 7.82-6.7 12.16a17.42 17.42 0 0 1-5.27 7.63c-1.5 1.29-3.89 2.42-3.67 4.77.8 2.46 3.68 3.31 5.19 5.28 3 2.88 4 7.07 5.52 10.79a22.6 22.6 0 0 0 5.35 8 20.8 20.8 0 0 0 7.1 3.93c1.39.51 2.78.92 4.18 1.34"/><path id="_1120" class="cls-5" d="M107.91 595.14l27.5-11.68"/><path id="_1121" class="cls-3" d="M127.62 612.91l5.43-16.91"/><path id="_1122" class="cls-3" d="M126.4 611.85l5.36-16.71"/><path id="_1123" class="cls-3" d="M135.41 612.91v-16.55"/><path id="_1124" class="cls-3" d="M137.76 612.91l-.08-32"/><path id="_1125" class="cls-5" d="M137.68 583h70.09"/><path id="_1126" class="cls-6" d="M112.61 583.05l23.85-8.35"/><path id="_1127" class="cls-6" d="M136.46 574.7l71.31 2.35"/><path id="_1128" class="cls-3" d="M113.34 592.87h22.07"/><path id="_1129" class="cls-3" d="M135.41 592.87v-12"/><path id="_1130" class="cls-3" d="M135.41 596.36a1.22 1.22 0 0 0-2.36-.33"/><path id="_1131" class="cls-3" d="M140 612.91v-20"/><path id="_1132" class="cls-3" d="M141.41 612.91v-17.61"/><path id="_1133" class="cls-3" d="M205.9 612.42v-29.42"/><path id="_1134" class="cls-2" d="M207.77 612.42v-29.42"/><path id="_1135" class="cls-3" d="M203.87 612.42v-16.42"/><path id="_1136" class="cls-3" d="M140 592.87h31.47"/><path id="_1137" class="cls-3" d="M141.65 591.49h45.43"/><path id="_1138" class="cls-3" d="M141.41 595.3h27.82"/><path id="_1139" class="cls-3" d="M169.23 612.91v-17.61"/><path id="_1140" class="cls-3" d="M171.42 612.91v-20"/><path id="_1141" class="cls-3" d="M173.53 612.91v-16.91"/><path id="_1142" class="cls-3" d="M175.24 594.25h26.93"/><path id="_1143" class="cls-3" d="M203.87 589.79v-6.79"/><path id="_1144" class="cls-3" d="M163.56 591.49v-8.49"/><path id="_1145" class="cls-3" d="M164.93 591.49v-8.49"/><path id="_1146" class="cls-3" d="M188.78 589.79v-6.79"/><path id="_1147" class="cls-3" d="M191.06 589.79v-6.79"/><path id="_1148" class="cls-3" d="M192.76 591.49h9.41"/><path id="_1149" class="cls-3" d="M187.08 591.49a1.78 1.78 0 0 0 1.7-1.7"/><path id="_1150" class="cls-3" d="M191.06 589.79a1.93 1.93 0 0 0 1.7 1.7"/><path id="_1151" class="cls-3" d="M202.17 591.49a1.78 1.78 0 0 0 1.7-1.7"/><path id="_1152" class="cls-3" d="M175.24 594.25a1.78 1.78 0 0 0-1.71 1.7"/><path id="_1153" class="cls-3" d="M203.87 596l-.48-1.21-1.22-.49"/><path id="_1154" class="cls-3" d="M140 589.79v-6.79"/><path id="_1155" class="cls-3" d="M140 589.79a3.6 3.6 0 0 0 .4 1.11 1.42 1.42 0 0 0 .73.44l.57.15"/><path id="_1156" class="cls-3" d="M250.68 612.1a26.67 26.67 0 0 0-9.32-19.3 26 26 0 0 0-25.06-5.17 29.73 29.73 0 0 0-6.34 2.89"/><path id="_1157" class="cls-4" d="M207.77 583l6.16 18.58"/><path id="_1158" class="cls-3" d="M213.93 601.55a16.76 16.76 0 0 0 3.31 5.42 14.66 14.66 0 0 0 9.42 4.64c.57.06 1.14.12 1.71.16"/><path id="_1159" class="cls-3" d="M228.37 611.77h3"/><path id="_1160" class="cls-3" d="M232.51 612.91l-.33-.81-.81-.33"/><path id="_1161" class="cls-3" d="M224.88 587.27v24.1"/><path id="_1162" class="cls-3" d="M249.79 612.1a25.14 25.14 0 0 0-5.5-15.11 25.61 25.61 0 0 0-22.4-9.65 25.36 25.36 0 0 0-11.61 4"/><path id="_1163" class="cls-3" d="M241 593.52l-14 17.36"/><path id="_1164" class="cls-3" d="M214.09 602.12l8.6 8.6"/><path id="_1165" class="cls-3" d="M224.88 610l-12.41-12.41"/><path id="_1166" class="cls-3" d="M226.91 611.69v-24.34"/><path id="_1167" class="cls-3" d="M228.78 611.77l13.71-16.87"/><path id="_1168" class="cls-3" d="M196.9 612.91v-.49"/><path id="_1169" class="cls-3" d="M215 612.91v-.49"/><path id="_1170" class="cls-3" d="M196.9 612.42h18.1"/><path id="_1171" class="cls-3" d="M228.45 611.77h-17.6v.65"/><path id="_1172" class="cls-3" d="M277.94 612.91v-1.22h3.57v1.22"/><path id="_1173" class="cls-3" d="M262.93 612.91v-1.22h3.57v1.22"/><path id="_1174" class="cls-3" d="M262.93 612.1h-13.79"/><path id="_1175" class="cls-3" d="M296.92 612.91v-.81h-15.41"/><path id="_1176" class="cls-3" d="M277.94 612.1h-11.44"/><path id="_1177" class="cls-3" d="M249.46 608.36h-17.92"/><path id="_1178" class="cls-3" d="M229.91 610.39h19.8"/><path id="_1179" class="cls-3" d="M228.86 611.69h20.28v1.22"/><path id="_1180" class="cls-6" d="M135.41 582.41c-1.66-.39-4.1-1.13-3.74-3.33.51-2.32 3.12-3 5.15-3.37 2.7-.44 5.86-.55 8.1 1.28 1.69 1 1.07 2.84-.59 3.8a10.18 10.18 0 0 1-6.57 1.86"/><path id="_1181" class="cls-3" d="M137.68 580.86a2.07 2.07 0 0 0-.29-.76 1.16 1.16 0 0 0-1.36-.25.83.83 0 0 0-.45.45 2.78 2.78 0 0 0-.17.56"/><path id="_1182" class="cls-6" d="M129.08 586.14v-8.93"/><path id="_1183" class="cls-6" d="M147.17 583v-8"/><path id="_1184" class="cls-6" d="M14.05 612.91v-14.44"/><path id="_1185" class="cls-6" d="M59 612.91v-30"/><path id="_1186" class="cls-2" d="M60 450.67c9.14 8.17 19.58 15 31.32 18.72l.48.18"/><path id="_1187" class="cls-2" d="M104.5 483.36c2.2 3.5 6.61 5.25 10.32 6.91 15.54 5.91 32.49 5.21 48.84 5.44 7.78-.08 15.56-.35 23.34-.59"/><path id="_1188" class="cls-2" d="M187 495.12l21.09-.4"/><path id="_1189" class="cls-2" d="M208.17 493.17l15.58.17"/><path id="_1190" class="cls-2" d="M60 448.48v2.19h-4.82v-2.19"/><path id="_1191" class="cls-2" d="M60 446.29c8.92-7.75 18.81-14.58 30.16-18.23l1.16-.42.48-.17"/><path id="_1192" class="cls-2" d="M60 448.48v-2.19h-4.82v2.19"/><path id="_1193" class="cls-2" d="M102.63 472.57v-48.19"/><path id="_1194" class="cls-6" d="M85.19 467.05v-37.05"/><path id="_1195" class="cls-6" d="M98.66 471.6v-46.16"/><path id="_1196" class="cls-2" d="M104.5 483.36v-34.88"/><path id="_1197" class="cls-6" d="M107.82 486.6v-38.12"/><path id="_1198" class="cls-6" d="M136 494.88v-46.4"/><path id="_1199" class="cls-6" d="M187 495.12v-46.64"/><path id="_1200" class="cls-6" d="M136 452h51"/><path id="_1201" class="cls-2" d="M208.09 494.72v-38.54"/><path id="_1202" class="cls-2" d="M187 453.91h26.12"/><path id="_1203" class="cls-6" d="M189.51 495v-41.09"/><path id="_1204" class="cls-2" d="M213.12 453.91l4-.16 4.05-.41 3.9-.56 3.65-.65 6.73-1.22 1.95-.32 2.27-.49 2.51-.49 1.22-.4.49-.33.16-.4"/><path id="_1205" class="cls-6" d="M197.38 453.91l2.11 2"/><path id="_1206" class="cls-4" d="M199.49 455.94l12.41.41 6.17-.17 6.08-.65 6.09-1 6-1.22 6-1.38 3.09-1.21 1.54-1 .48-.56.25-.73"/><path id="_1207" class="cls-6" d="M110 483.93v-17.61"/><path id="_1208" class="cls-6" d="M132.89 489.77v-18.34"/><path id="_1209" class="cls-6" d="M110.74 485.14c6.39 3.43 13.58 4.9 20.69 5.92"/><path id="_1210" class="cls-6" d="M111.72 465l20.2 5.11"/><path id="_1211" class="cls-6" d="M110 483.93l.73 1.21"/><path id="_1212" class="cls-6" d="M131.43 491.06l1.06-.32.4-1"/><path id="_1213" class="cls-6" d="M111.72 465l-1.14.24-.57 1.05"/><path id="_1214" class="cls-6" d="M132.89 471.43l-.24-.81-.73-.48"/><path id="_1215" class="cls-2" d="M102.63 472.57h1.87"/><path id="_1216" class="cls-6" d="M213.45 493.17l-2.36-36.91"/><path id="_1217" class="cls-6" d="M212.47 478.25l53.14-3.33"/><path id="_1218" class="cls-6" d="M223.75 485.55l12.09-.81 11.76-.81 6-.57 6.08-.65 6.33-.81 6.49-1.06 6.57-1.46 6.49-2.11 3.25-1.21 3.19-1.46 3.17-1.71 3.08-1.86 3-2.11 2.76-2.35 2.51-2.6 2.11-2.76 1.79-2.92 1.21-3.16.65-3.33.25-3.32"/><path id="_1219" class="cls-6" d="M265.61 482v-33.5"/><path id="_1220" class="cls-6" d="M214.74 478.17v-6.41h1.63v6.24"/><path id="_1221" class="cls-6" d="M238.67 476.63v-6.49h1.55v6.4"/><path id="_1222" class="cls-6" d="M261.39 475.17v-6.41h1.54v6.32"/><path id="_1223" class="cls-6" d="M285 461.62h8v-11.2h-8z"/><path id="_1224" class="cls-2" d="M104.5 413.68c2.42-3.89 7.39-5.66 11.54-7.39 16.36-5.66 34-4.87 51-4.92 6.64.12 13.28.33 19.92.54"/><path id="_1225" class="cls-2" d="M187 401.91l21.09.41"/><path id="_1226" class="cls-2" d="M208.17 403.86l20.36-.24"/><path id="_1227" class="cls-2" d="M104.5 413.68v34.8"/><path id="_1228" class="cls-6" d="M107.82 410.35v38.13"/><path id="_1229" class="cls-6" d="M136 402.16v46.32"/><path id="_1230" class="cls-6" d="M187 401.91v46.57"/><path id="_1231" class="cls-6" d="M136 445h51"/><path id="_1232" class="cls-2" d="M208.09 402.32v38.45"/><path id="_1233" class="cls-2" d="M187 443.12h26.12"/><path id="_1234" class="cls-6" d="M189.51 401.91v41.21"/><path id="_1235" class="cls-2" d="M213.12 443.12l4 .16 4.05.41 3.9.57 3.65.65 6.73 1.13 1.95.41 2.27.49 2.51.48 1.22.41.49.24.16.41"/><path id="_1236" class="cls-6" d="M197.38 443.12l2.11-2.11"/><path id="_1237" class="cls-4" d="M199.49 441l12.41-.32 6.17.16 6.08.65 6.09 1 6 1.22 6 1.38 3.09 1.22 1.54.89.48.65.25.65"/><path id="_1238" class="cls-6" d="M110 413v17.6"/><path id="_1239" class="cls-6" d="M132.89 407.27v18.33"/><path id="_1240" class="cls-6" d="M110.74 411.89a60.2 60.2 0 0 1 20.69-5.89"/><path id="_1241" class="cls-6" d="M111.72 431.93l20.2-5"/><path id="_1242" class="cls-6" d="M110.74 411.89l-.74 1.11"/><path id="_1243" class="cls-6" d="M132.89 407.27l-.4-1-1.06-.32"/><path id="_1244" class="cls-6" d="M110 430.63l.57 1.05 1.14.25"/><path id="_1245" class="cls-6" d="M131.92 426.9l.73-.49.24-.81"/><path id="_1246" class="cls-4" d="M102.63 424.38h1.87"/><path id="_1247" class="cls-6" d="M213.45 403.78l-2.36 36.91"/><path id="_1248" class="cls-6" d="M212.47 418.71l53.14 3.4"/><path id="_1249" class="cls-6" d="M265.61 415.06v33.42"/><path id="_1250" class="cls-6" d="M214.74 418.87v6.41h1.63v-6.28"/><path id="_1251" class="cls-6" d="M238.67 420.41v6.49h1.55v-6.41"/><path id="_1252" class="cls-6" d="M261.39 421.87v6.41h1.54v-6.28"/><path id="_1253" class="cls-6" d="M285 435.42h8v11.19h-8z"/><path id="_1254" class="cls-6" d="M280.53 456.91l-.4-2.11-1.22-1.86-1.78-1.22-2.19-.4-2.11.4-1.83 1.22-1.22 1.86-.4 2.11.4 2.19 1.22 1.79 1.87 1.21 2.11.49 2.19-.49 1.78-1.21 1.22-1.79z"/><path id="_1255" class="cls-6" d="M271.69 456.91l-.24-.56-.65-.25-.65.25-.24.56.24.65.65.25.65-.25z"/><path id="_1256" class="cls-6" d="M277.94 453.34l-.33-.65-.56-.24-.65.24-.25.65.25.65.65.25.56-.25z"/><path id="_1257" class="cls-6" d="M277.94 460.56l-.33-.65-.56-.24-.65.24-.25.65.25.57.65.24.56-.24z"/><path id="_1258" class="cls-2" d="M445.45 462.43l50.06-12.09"/><path id="_1259" class="cls-2" d="M441.8 433.71l53.71 13"/><path id="_1260" class="cls-2" d="M495.51 450.34l.81-.48.57-.82v-1.04l-.57-.89-.81-.41"/><path id="_1261" class="cls-6" d="M444.72 456.75v-22.39"/><path id="_1262" class="cls-2" d="M217.74 399.4l-4.38.32-4.21.9-4.06 1.62"/><path id="_1263" class="cls-2" d="M217.42 402.56l-4.22.25-4 1.05"/><path id="_1264" class="cls-2" d="M217.42 402.56l1.22-.32.48-1.14-.32-1.1-1.06-.57"/><path id="_1265" class="cls-2" d="M223.75 564.23v-78.68"/><path id="_1266" class="cls-2" d="M223.75 485.55l-.25-1.62-.64-1.63-1.14-1.3-1.38-.9"/><path id="_1267" class="cls-2" d="M438.8 409.86l16.39 129"/><path id="_1268" class="cls-6" d="M377.23 555.56v-145.7"/><path id="_1269" class="cls-6" d="M438.8 409.86h-195.42"/><path id="_1270" class="cls-6" d="M243.38 409.86v-4.54"/><path id="_1271" class="cls-6" d="M243.38 405.32h-14.85"/><path id="_1272" class="cls-6" d="M269 555.56v-74.07"/><path id="_1273" class="cls-2" d="M438.8 409.86l-31.72-152.66"/><path id="_1274" class="cls-2" d="M228.21 407.84l1.14-7.79"/><path id="_1275" class="cls-2" d="M228.21 407.84l-.41.89-.73.81-1 .65-1 .4"/><path id="_1276" class="cls-6" d="M437.34 402.64l-208.81 1"/><path id="_1277" class="cls-2" d="M328.4 3.45a31.42 31.42 0 0 0-43.73 24.1"/><path id="_1278" class="cls-2" d="M354.6 25.6a61.24 61.24 0 0 0-26.2-22.15"/><path id="_1279" class="cls-6" d="M285 25.6h69.6"/><path id="_1280" class="cls-2" d="M398.16 402.81l-44.05-290.74"/><path id="_1281" class="cls-2" d="M341.29 27.3h14.44"/><path id="_1282" class="cls-2" d="M363.44 46.85a61.16 61.16 0 0 0-7.71-19.55"/><path id="_1283" class="cls-6" d="M345 257.2h62.05"/><path id="_1284" class="cls-2" d="M375.69 254.52h30.91"/><path id="_1285" class="cls-2" d="M406.6 254.52l-43.16-207.67"/><path id="_1286" class="cls-6" d="M265.28 403.46l21.26-269.46"/><path id="_1287" class="cls-6" d="M268.85 134h20.77"/><path id="_1288" class="cls-6" d="M289.62 134l9.49-108.4"/><path id="_1289" class="cls-6" d="M361.82 163.1h25.71"/><path id="_1290" class="cls-6" d="M334.32 25.6l14.68 201.09"/><path id="_1291" class="cls-6" d="M349 226.69h-35.13"/><path id="_1292" class="cls-6" d="M281.91 192.71h32"/><path id="_1293" class="cls-6" d="M313.87 192.71v210.5"/><path id="_1294" class="cls-6" d="M353.87 555.56v-145.7"/><path id="_1295" class="cls-6" d="M377.23 555.56h-153.48"/><path id="_1296" class="cls-6" d="M377.23 555.56l10-.33 10-.89 9.89-1.38 9.9-2 9.74-2.43 9.65-2.84 9.49-3.25 9.33-3.65"/><path id="_1297" class="cls-2" d="M455.19 538.84a24 24 0 0 0 3.14 9.24 40.79 40.79 0 0 0 9 10.79 48.38 48.38 0 0 0 11.37 7c1.42.63 2.89 1.14 4.35 1.65"/><path id="_1298" class="cls-6" d="M240.05 591.65v-36.09"/><path id="_1299" class="cls-6" d="M303.73 555.56v7.78"/><path id="_1300" class="cls-6" d="M369.36 555.56v57.35"/><path id="_1301" class="cls-6" d="M372.44 564v48.92"/><path id="_1302" class="cls-6" d="M422.74 549.63v15.58"/><path id="_1303" class="cls-6" d="M426.39 548.66v-138.8"/><path id="_1304" class="cls-6" d="M313.87 409.86v145.7"/><path id="_1305" class="cls-6" d="M223.75 411.49l12.09.73 11.76.89 6 .49 6.08.64 6.33.82 6.49 1.13 6.57 1.46 6.49 2 3.25 1.3 3.16 1.46 3.17 1.7 3.08 1.87 3 2.11 2.76 2.35 2.51 2.59 2.11 2.76 1.79 2.92 1.21 3.17.65 3.32.25 3.25"/><path id="_1306" class="cls-6" d="M353.87 403.05l-1-16.22"/><path id="_1307" class="cls-6" d="M323 372.71c-6 .46-9.79 7.63-6.81 12.82a8.65 8.65 0 0 0 6.81 4.62"/><path id="_1308" class="cls-6" d="M357.19 385.12a4 4 0 0 0 0-7.38"/><path id="_1309" class="cls-6" d="M323 390.15a66 66 0 0 0 34.15-5"/><path id="_1310" class="cls-6" d="M357.19 377.74a67.38 67.38 0 0 0-34.15-5"/><path id="_1311" class="cls-6" d="M352.25 375.79l-9.09-149.1"/><path id="_1314" class="cls-6" d="M238.22 344.89h31.69"/><path id="_1315" class="cls-6" d="M286.78 345.21c1.3-.34 4 .69 4.38-.53v-7.26c-1.3.34-4-.68-4.38.54z"/><path id="_1316" class="cls-6" d="M288.24 304.41h4.3v-7.79h-4.3z"/><path id="_1317" class="cls-6" d="M296 280a7.21 7.21 0 0 0-.33-2.11 7.11 7.11 0 0 0-1-1.95 7.25 7.25 0 0 0-1.54-1.54 7.11 7.11 0 0 0-1.95-1 7 7 0 0 0-2.19-.32 6.88 6.88 0 0 0-2.11.32 7.11 7.11 0 0 0-1.95 1 7.49 7.49 0 0 0-1.54 1.54 7.08 7.08 0 0 0-1.05 1.95 6.89 6.89 0 0 0-.34 2.11 6.77 6.77 0 0 0 .33 2.19 6.94 6.94 0 0 0 1.05 1.95 7.49 7.49 0 0 0 1.54 1.54 7.11 7.11 0 0 0 1.95 1 7.21 7.21 0 0 0 2.13.32 7.36 7.36 0 0 0 2.19-.33 7.11 7.11 0 0 0 1.95-1 7 7 0 0 0 1.54-1.54 7.11 7.11 0 0 0 1-1.95 7.36 7.36 0 0 0 .32-2.18z"/><path id="_1318" class="cls-6" d="M291.16 280a2.22 2.22 0 0 0-.24-1.05 2.27 2.27 0 0 0-.81-.82 2.19 2.19 0 0 0-2.28 0 2.27 2.27 0 0 0-.81.82 2.22 2.22 0 0 0-.24 1.05 2.46 2.46 0 0 0 .24 1.14 2.26 2.26 0 0 0 3.9 0 2.46 2.46 0 0 0 .24-1.14z"/><path id="_1319" class="cls-6" d="M363.68 234.89c.15-.12.39 0 .57.08a2.29 2.29 0 0 1 .73.32 4.09 4.09 0 0 1 .65.73 8.23 8.23 0 0 1 .65.9 8.9 8.9 0 0 1 .57 1.21c.18.45.33.92.48 1.38s.36 1 .49 1.54.24 1.08.33 1.63.1 1.13.16 1.7.15 1.08.16 1.62 0 1-.08 1.54-.09.92-.16 1.38a10.15 10.15 0 0 1-.25 1.22 5.83 5.83 0 0 1-.4 1 3.33 3.33 0 0 1-.49.73 1.66 1.66 0 0 1-.57.41 1.22 1.22 0 0 1-.57.08 1.92 1.92 0 0 1-.64-.24 4.09 4.09 0 0 1-.73-.57 5 5 0 0 1-.65-.81 9 9 0 0 1-.57-1.06c-.21-.42-.4-.86-.57-1.3s-.34-1-.49-1.46-.29-1.07-.4-1.62-.18-1.08-.24-1.62-.14-1.08-.17-1.62v-1.63s0-1 .08-1.46a9.29 9.29 0 0 1 .17-1.29 6.42 6.42 0 0 1 .4-1.14 4.73 4.73 0 0 1 .41-.81 2.05 2.05 0 0 1 .48-.57c.19-.13.52-.06.65-.24z"/><path id="_1320" class="cls-6" d="M343.16 25.6a26.41 26.41 0 0 0-44.52-13.9 26.06 26.06 0 0 0-7.4 13.9"/><path id="_1321" class="cls-6" d="M306.82 68.92h9.57v-7.47h-9.57z"/><path id="_1322" class="cls-6" d="M354.68 116a14.44 14.44 0 0 1-6.48-1.67 7.3 7.3 0 0 1-2.29-2.37 3.56 3.56 0 0 1-.06-2 5.26 5.26 0 0 1 2.43-2.75 8.83 8.83 0 0 1 3.27-1.16l1.59-.31"/><path id="_1323" class="cls-2" d="M348.76 112.07h8.35v-1.94h-8.35z"/><path id="_1324" class="cls-2" d="M353.79 110.13l-12.79-84.53"/><path id="_1325" class="cls-6" d="M359.47 289.16a1.53 1.53 0 0 0-.41-1.06 1.59 1.59 0 0 0-2.11 0 1.55 1.55 0 0 0-.49 1.06 1.59 1.59 0 0 0 .49 1 1.38 1.38 0 0 0 2.11 0 1.57 1.57 0 0 0 .41-1z"/><path id="_1326" class="cls-6" d="M365.31 239.92l-.25-.57-.65-.33-.65.33-.24.57.24.65.65.32.65-.32z"/><path id="_1327" class="cls-6" d="M364.33 452.86l.65.16.57.49.57.73.48 1.05.41 1.3.32 1.46.17 1.54.08 1.7v1.63l-.17 1.62-.24 1.54-.4 1.38-.41 1.13-.57.9-.57.65-.56.32h-.66l-.65-.32-.57-.65-.49-.9-.48-1.13-.33-1.38-.24-1.54-.16-1.62v-1.63l.08-1.7.16-1.54.33-1.46.4-1.3.49-1.05.57-.73.56-.49.65-.16z"/><path id="_1328" class="cls-6" d="M365.22 458.05l-.24-.65-.65-.32-.65.32-.24.65.24.57.65.32.65-.32z"/><path id="_1329" class="cls-6" d="M364.33 485.22l.65.17.57.48.57.73.48 1.06.4 1.34.32 1.46.17 1.54.08 1.7v1.62l-.17 1.63-.24 1.54-.4 1.38-.41 1.13-.57.89-.57.65-.56.33h-.65l-.65-.33-.57-.65-.49-.89-.48-1.13-.33-1.38-.24-1.54-.16-1.63v-1.62l.08-1.7.16-1.54.33-1.46.4-1.3.49-1.06.57-.73.56-.48.65-.17z"/><path id="_1330" class="cls-6" d="M365.22 490.33l-.24-.56-.65-.33-.65.33-.24.56.24.65.65.33.67-.31z"/><path id="_1331" class="cls-6" d="M305.19 538.52l-.32-2.19-1.05-2-1.55-1.54-1.94-1-2.11-.33-2.19.33-1.95 1-1.54 1.54-1 2-.33 2.19.33 2.19 1 1.87 1.54 1.54 1.95 1 2.19.33 2.11-.33 1.94-1 1.55-1.54 1.05-1.87z"/><path id="_1332" class="cls-6" d="M300.41 538.52l-.25-1.14-.81-.81-1.13-.24-1.14.24-.81.81-.24 1.14.24 1.14.81.81 1.14.24 1.13-.24.81-.81z"/><path id="_1333" class="cls-6" d="M371.39 522.21l-.39-2.21-1-1.94-1.54-1.54-1.87-1-2.19-.32-2.11.32-1.94 1-1.54 1.54-1 1.94-.32 2.19.32 2.11 1 1.95 1.54 1.54 1.94 1 2.11.32 2.19-.32 1.87-1 1.54-1.54 1-1.95z"/><path id="_1334" class="cls-6" d="M257.17 611.79v-30"/><path id="_1335" class="cls-6" d="M559.84 612.91v-40.56"/><path id="_1338" class="cls-6" d="M207.77 577.05l32.28-1.62"/><path id="_1339" class="cls-6" d="M240.05 575.43l17.12 6.33"/><path id="_1340" class="cls-6" d="M257.17 581.76l112.19 2.59"/><path id="_1341" class="cls-6" d="M202.58 576.81v6.19"/><path id="_1342" class="cls-6" d="M369.44 612.91l-.65-10-1.94-9.9"/><path id="_1343" class="cls-6" d="M366.85 593a22.14 22.14 0 0 0-1.14-2.84 12.1 12.1 0 0 0-4.3-4.46 12.12 12.12 0 0 0-2.84-1.22 24.8 24.8 0 0 0-3.08-.48"/><path id="_1344" class="cls-6" d="M329 610.64a7.35 7.35 0 0 0-6.77-5 7.26 7.26 0 0 0-7.57 7.73 7.39 7.39 0 0 0 6 6.81 7.53 7.53 0 0 0 6-1.58 7.5 7.5 0 0 0 2.33-7.93z"/><path id="_1345" class="cls-6" d="M546.05 571.29c-2.53 2.58-7 1.89-10.39 2.27-7.8 0-15.73-.41-23.26-2.58-1.15-.46-2.76-.67-3.18-2"/><path id="_1346" class="cls-6" d="M425.26 600.33v-7.7h36.5v20.28"/><path id="_1347" class="cls-6" d="M420 612.91v-12.58h5.28"/><path id="_1348" class="cls-6" d="M425.26 600.33l13.14 4.79v7.79"/><path id="_1349" class="cls-6" d="M461.76 612.91h-23.36"/><path id="_1350" class="cls-6" d="M427.53 598.22v-3.4h32v16"/><path id="_1351" class="cls-6" d="M427.53 598.22l13.62 4.95v7.63"/><path id="_1352" class="cls-6" d="M425.5 602.52l10.95 4v6.41"/><path id="_1353" class="cls-6" d="M422.17 612.91v-10.39h3.33"/><path id="_1354" class="cls-6" d="M459.49 610.8h-18.33"/><path id="_1355" class="cls-6" d="M744.47 593l3.25-11.19"/><path id="_1356" class="cls-6" d="M747.72 581.84l-26.72-3.17"/><path id="_1357" class="cls-2" d="M721 578.67l38.4-133.92"/><path id="_1358" class="cls-6" d="M759.4 444.75h40"/><path id="_1359" class="cls-6" d="M799.39 444.75v-3.09"/><path id="_1360" class="cls-2" d="M759.4 444.75v-4.14"/><path id="_1361" class="cls-2" d="M879.05 612.91v-1.46"/><path id="_1362" class="cls-2" d="M882.86 612.91v-1"/><path id="_1363" class="cls-6" d="M712.51 583.14c2.12 3.76 6.45 5.55 10.49 6.42.77.17 1.55.33 2.33.47"/><path id="_1364" class="cls-6" d="M725.33 590l19.14 3"/><path id="_1365" class="cls-2" d="M712.51 583.14h1.21l1.28-.14 1.38-.32 1.22-.49 1.13-.65 1.06-.81.73-1 .49-1.06"/><path id="_1366" class="cls-6" d="M746.66 585.49l56.54 4"/><path id="_1367" class="cls-6" d="M745 591.17l58.24 3.65"/><path id="_1368" class="cls-6" d="M803.28 594.82l-1.78-142.45"/><path id="_1369" class="cls-2" d="M801.5 452.37h14.76"/><path id="_1370" class="cls-2" d="M816.26 452.37l26.69 1.7"/><path id="_1371" class="cls-6" d="M803.28 593.68a173.91 173.91 0 0 1 41.94 7c11.45 3 22.63 7 33.83 10.82"/><path id="_1372" class="cls-2" d="M879.05 611.93h3.81"/><path id="_1373" class="cls-2" d="M879.05 611.45l-10.14-20.28"/><path id="_1374" class="cls-2" d="M868.91 591.17h-65.71"/><path id="_1375" class="cls-2" d="M803.2 589.46h65.22"/><path id="_1376" class="cls-2" d="M868.42 589.46c-.11-46.26-12.42-91.36-25.42-135.39"/><path id="_1377" class="cls-2" d="M801.5 452.37v-1.78"/><path id="_1378" class="cls-2" d="M801.5 450.59h15.33"/><path id="_1379" class="cls-2" d="M816.83 450.59l23.28 1.54"/><path id="_1380" class="cls-2" d="M811.56 441.26l28.55 10.87"/><path id="_1381" class="cls-6" d="M816.51 436.8h38.29"/><path id="_1382" class="cls-2" d="M746 436.8a1 1 0 0 1 .08-.41c.09-.13.27-.17.41-.24a7.68 7.68 0 0 1 .81-.41c.53-.24 1.07-.46 1.62-.65 1-.35 2.05-.63 3.08-.89s2.11-.46 3.17-.65 2.16-.36 3.24-.49c2.21-.26 4.43-.42 6.66-.56s4.54-.25 6.81-.33c4.68-.16 9.35-.3 14-.32s9.36.06 14 .16 9.14.23 13.71.4c2.24.09 4.49.19 6.73.33s4.38.32 6.57.49 4.33.28 6.49.48 4.39.45 6.57.73c2.33.31 4.65.71 7 1.06 1.27.19 2.54.35 3.81.57l4 .73"/><path id="_1383" class="cls-2" d="M746 436.8a.94.94 0 0 0 .08.4c.09.13.27.16.41.24a6.71 6.71 0 0 0 .81.49 15.56 15.56 0 0 0 1.62.57c1 .32 2.05.63 3.08.89s2.11.46 3.17.65 2.16.36 3.24.49c2.21.26 4.43.42 6.66.56s4.54.25 6.81.33c4.68.16 9.35.28 14 .32s9.36 0 14-.08 9.14-.29 13.71-.48c2.24-.1 4.49-.21 6.73-.33s4.38-.24 6.57-.4 4.33-.36 6.49-.57 4.39-.45 6.57-.73c2.33-.31 4.65-.71 7-1.06 1.27-.19 2.54-.35 3.81-.56l4-.73"/><path id="_1384" class="cls-6" d="M817.07 450.59v-7.22"/><path id="_1385" class="cls-6" d="M751 434.44h63.8"/><path id="_1386" class="cls-2" d="M814.8 436.8v-2.36"/><path id="_1387" class="cls-2" d="M800.2 432l14.6 2.43"/><path id="_1388" class="cls-4" d="M814.8 434.44a2.88 2.88 0 0 1 .65.25 2.17 2.17 0 0 1 .57.56 2.87 2.87 0 0 1 .41.82 4.9 4.9 0 0 1 .08.73"/><path id="_1389" class="cls-6" d="M751 439.15h63.8"/><path id="_1390" class="cls-2" d="M814.8 436.8v2.35"/><path id="_1391" class="cls-2" d="M800.2 441.58l14.6-2.43"/><path id="_1392" class="cls-4" d="M814.8 439.15a2.88 2.88 0 0 0 .65-.25 2.17 2.17 0 0 0 .57-.56 2.78 2.78 0 0 0 .41-.73 3.85 3.85 0 0 0 .08-.81"/><path id="_1393" class="cls-6" d="M758.26 586.3l22.47-141.55"/><path id="_1394" class="cls-2" d="M855.61 589.46v-32.69h10.87"/><path id="_1395" class="cls-2" d="M810.83 533.08v1.22h5v-3.89h-5v1"/><path id="_1396" class="cls-2" d="M802.47 533.41l8.36-.33"/><path id="_1397" class="cls-2" d="M802.47 530.73l8.36.65"/><path id="_1398" class="cls-6" d="M815.13 526.6a2.15 2.15 0 0 0-.25-1.06 1.83 1.83 0 0 0-.73-.73 2.22 2.22 0 0 0-1-.24 2.29 2.29 0 0 0-1.06.24 2 2 0 0 0-.73.73 2.44 2.44 0 0 0 0 2.11 2 2 0 0 0 .73.73 2.29 2.29 0 0 0 1.06.24 2.22 2.22 0 0 0 1-.24 1.83 1.83 0 0 0 .73-.73 2.14 2.14 0 0 0 .25-1.05z"/><path id="_1399" class="cls-6" d="M816.1 562.45a2.47 2.47 0 0 0-.32-1.22 2.43 2.43 0 0 0-.9-.81 2.31 2.31 0 0 0-2.35 0 2.25 2.25 0 0 0-.81.81 2.39 2.39 0 0 0-.32 1.22 2.45 2.45 0 0 0 .32 1.14 2.48 2.48 0 0 0 .81.89 2.31 2.31 0 0 0 2.35 0 2.64 2.64 0 0 0 .9-.89 2.31 2.31 0 0 0 .32-1.14z"/><path id="_1400" class="cls-6" d="M140 401.83v1.87h2.27v-1.95"/><path id="_1401" class="cls-6" d="M181.56 401.67v2h2.19v-1.95"/><path id="_1402" class="cls-6" d="M206.14 453.91v-10.79"/><path id="_1403" class="cls-2" d="M205.09 494.8l4.06 1.54 4.21 1 4.38.33"/><path id="_1404" class="cls-2" d="M209.15 493.17l4 1 4.22.32"/><path id="_1405" class="cls-2" d="M217.74 497.64l1.06-.57.32-1.22-.48-1.05-1.22-.33"/><path id="_1406" class="cls-6" d="M140 495.2v-1.86h2.27v1.94"/><path id="_1407" class="cls-6" d="M181.56 495.36v-2h2.19v1.94"/><path id="_1408" class="cls-6" d="M308.76 65.59h5v-1.7h-5z"/><path id="_1409" class="cls-2" d="M447.81 567.32v4.62h8.27v-4.54"/><path id="_1410" class="cls-2" d="M454.22 567.07c2.83.18 8.77 1.9 7.1 5.71-2.87 2.82-7.43 2.56-11.13 2.16-2.63-.43-7.51-1.57-6.74-5.13 2.45-3.35 7.08-3 10.77-2.74z"/><path id="_1421" class="cls-6" d="M735.14 612.91v-21.34"/><path id="_1422" class="cls-6" d="M799.31 612.91v-18.34"/><path id="_1423" class="cls-6" d="M208.09 491.55h-18.58"/><path id="_1424" class="cls-6" d="M208.09 481.49h-18.58"/><path id="_1425" class="cls-6" d="M208.09 466.32h-18.58"/><path id="_1426" class="cls-6" d="M208.09 430.63h-18.58"/><path id="_1427" class="cls-6" d="M208.09 415.54h-18.58"/><path id="_1428" class="cls-6" d="M208.09 405.4h-18.58"/><path id="_1429" class="cls-3" d="M135 612.91a3.63 3.63 0 0 0-.24-.9 1.9 1.9 0 0 0-.65-.64 1.73 1.73 0 0 0-1.79 0 1.9 1.9 0 0 0-.65.64 3.63 3.63 0 0 0-.24.9"/><path id="_1430" class="cls-8" d="M135 612.91l639.49-176.11"/><path id="_1431" class="cls-2" d="M232.75 393.64l5.19-34.8"/><path id="_1432" class="cls-2" d="M229.35 400.05l1.62-1.87 1.13-2.18.65-2.35"/><path id="_1433" class="cls-2" d="M237.94 358.84l-.08-4.06-1.21-3.89"/><path id="_1434" class="cls-2" d="M236.65 350.89l48-323.34"/><path id="_1435" class="cls-3" d="M124.37 592.87l7.06-7.71"/><path id="_1436" class="cls-3" d="M128.67 592.87l3.65-8.11"/><path id="_1437" class="cls-3" d="M132.65 592.87l.89-8.6"/><path id="_1438" class="cls-2" d="M91.92 468.27a500.39 500.39 0 0 0 .9 52.25c.59 8 .76 16 2.11 23.84 1.74 2.23 1.55-2.88 2-4 2.37-14.81 5.06-29.66 5.66-44.68.3-6.84-1.27-13.54-3.4-20-.57-2.08-.34-4.25-.49-6.38"/><path id="_1439" class="cls-2" d="M91.92 468.51v-.32l.17-.33.24-.24.41-.24.48-.16.57-.09.57-.08h.64l.65.08.65.17.56.16.57.24.49.33.32.24.25.32.16.33v.4"/><path id="_1440" class="cls-2" d="M98.66 471.6l4 1"/><path id="_1441" class="cls-2" d="M91.92 428.52v.33l.17.24.24.32.41.17.48.24.57.08.57.08.65-.08h.65l.65-.16.56-.16.57-.25.49-.32.32-.33.25-.32.16-.33v-.32"/><path id="_1442" class="cls-2" d="M98.66 425.44l4-1.06"/><path id="_1443" class="cls-6" d="M97.6 479.37a3.38 3.38 0 0 0-2.18 2.45 33.86 33.86 0 0 0-1.8 7.38 111.72 111.72 0 0 0-.9 12.79c0 2.68.07 5.36.18 8"/><path id="_1444" class="cls-6" d="M115.61 582v-9.49"/><path id="_1445" class="cls-2" d="M91.92 428.68a544.33 544.33 0 0 1 2.68-74.46c-.1-.84.76-3.2 1.54-2 2.6 16 5.72 32.45 6.41 48.83a51.3 51.3 0 0 1-3.49 20.36 26.62 26.62 0 0 0-.4 6.25"/><path id="_1448" class="cls-6" d="M63 581.92v8.84"/><path id="_1449" class="cls-6" d="M81.05 586.54v-8.35"/><path id="_1450" class="cls-6" d="M63 590.76l18.09-4.22"/><path id="_1451" class="cls-6" d="M32.06 590.76v3.49"/><path id="_1452" class="cls-6" d="M14.05 599.68l18-5.43"/><path id="path8163" class="cls-8" d="M451.78 565.84l42.52-50.76"/><path id="path5873" class="cls-2" d="M340.89 25.6h13.71"/><path id="path5875" class="cls-4" d="M375.83 257.2h31.25"/><path id="path5888" class="cls-4" d="M437.34 402.64l-39.12.19"/><path id="path5899" class="cls-4" d="M187 442.92v10.82"/><path id="path5939" class="cls-2" d="M803.24 634.58l-1.74 138.94"/><path id="path5941" class="cls-2" d="M803.24 591.27l-1.74-138.9"/><path id="path5973" class="cls-4" d="M187 772.19v10.22"/><path id="path6007" class="cls-4" d="M376 968.62h31.07"/><path id="path6017" class="cls-4" d="M341.37 1200.22h13.23"/><path id="path6019" class="cls-4" d="M437.34 823.17l-38.83-.17"/></g></svg>