<svg xmlns="http://www.w3.org/2000/svg" viewBox="0 0 1225.76 396.89"><defs><style>.cls-1{opacity:0.4;}.cls-11,.cls-2{fill:gray;}.cls-10,.cls-11,.cls-12,.cls-13,.cls-2,.cls-3,.cls-4,.cls-5,.cls-6,.cls-7,.cls-8,.cls-9{stroke:#ff6300;}.cls-2,.cls-3{stroke-miterlimit:10;}.cls-3{fill:#a0a0a0;}.cls-12,.cls-4,.cls-5,.cls-6,.cls-7,.cls-8,.cls-9{fill:none;}.cls-10,.cls-11,.cls-12,.cls-13,.cls-4,.cls-5,.cls-6,.cls-7,.cls-9{stroke-linecap:round;}.cls-10,.cls-11,.cls-12,.cls-13,.cls-4,.cls-5,.cls-6,.cls-7,.cls-8,.cls-9{stroke-linejoin:round;}.cls-10,.cls-11,.cls-13,.cls-4,.cls-8{stroke-width:1.5px;}.cls-5{stroke-width:0.7px;}.cls-7{stroke-width:1.5px;}.cls-9{stroke-width:0.1px;}.cls-10{fill:#b3b3b3;}.cls-12{stroke-width:0.5px;}.cls-13{fill:#999;}</style></defs><title>Asset 2110</title><g id="Layer_2" data-name="Layer 2"><g id="svg2"><g id="g7399" class="cls-1"><path id="path7391" class="cls-2" d="M872,256.08c-.55.17-42,7.37-42,7.3s-1-7.15-1.1-7.18c-4.9-1.18,43.94-5.08,44-5s-.75,4.25-.74,4.63c0,.12.94.75.86.78Z"/><path id="path7249" class="cls-3" d="M754.12,265.68c-.23.83-.48,1.75-.56,2.05l-.14.53H743V268a27.71,27.71,0,0,1,1.13-5.46c.37-1.18.7-2.21.74-2.29s.82.14,2.42.77c3,1.17,7.34,3,7.31,3.13s-.2.71-.43,1.55Z"/><path id="path7251" class="cls-3" d="M750.06,283.29l-4.6,2.63c-.21.08-1.86-5.44-2.19-7.31-.18-1-.32-1.94-.32-2.05s.43-.21,5.23-.21h5.24l.08.34c0,.19.3,1.13.57,2.08s.49,1.77.49,1.83-2,1.27-4.5,2.69Z"/><path id="path7253" class="cls-3" d="M759.25,295.38c-1.43,2.45-2.66,4.45-2.73,4.45-.34,0-2.63-2-4.24-3.65-1.92-2-2.71-3-2.54-3.2s2.12-1.27,4.57-2.68l4.46-2.58.27.35c.14.19.83.91,1.54,1.6l1.28,1.26Z"/><path id="path7255" class="cls-3" d="M773.16,305.93c0,.33-.12.63-.21.67a22.39,22.39,0,0,1-2.54-.4,25.27,25.27,0,0,1-4.55-1.22c-1.18-.42-2.16-.78-2.18-.8s1.78-3.21,4.79-8.41l.49-.85.53.24a18.47,18.47,0,0,0,2.15.58l1.61.34,0,4.62c0,2.54-.05,4.9-.07,5.23Z"/><path id="path7259" class="cls-3" d="M790.64,304.24l-1.42.57c-.81.33-5.9,1.71-6.31,1.71,0,0-.1-.52-.18-1.16s-.2-1.4-.26-1.68c-.14-.63-.93-7.52-.87-7.56a33.54,33.54,0,0,1,4.15-1c.12.13,5.18,8.89,5.18,9s-.13.1-.29.16Z"/><path id="path7261" class="cls-3" d="M803.21,295.2c-2.18,2.45-5,4.91-5.27,4.61-.13-.14-5.12-8.77-5.12-8.85s.7-.75,1.55-1.63l1.55-1.6,4.52,2.63C802.92,291.8,805,293,805,293a22.2,22.2,0,0,1-1.81,2.16Z"/><path id="path7263" class="cls-3" d="M811.43,278.18c-.39,2.5-2,7.64-2.35,7.64-.14,0-8.68-4.91-8.91-5.12s-.13-.22,0-.45a20.07,20.07,0,0,0,.55-2.07l.41-1.77,5.27,0,5.27,0,0,.35c0,.19-.09.86-.19,1.49Z"/><path id="path7265" class="cls-3" d="M806.39,268.26h-5.34l-.09-.66a18.34,18.34,0,0,0-.56-2.15l-.48-1.49.27-.17c1.15-.72,8-4.52,8.49-4.72l.63-.25.81,2.42a28.26,28.26,0,0,1,1.21,4.72l.4,2.3Z"/><path id="path7267" class="cls-3" d="M802.2,251.87c-2.39,1.86-3.54,2.73-5.12,3.87l-1.28.91-1.5-1.49-1.5-1.5,2.49-4.35c1.37-2.39,2.56-4.41,2.64-4.5.25-.27,2.55,1.62,4.46,3.67.91,1,1.67,1.82,1.67,1.87s-.84.72-1.86,1.52Z"/><path id="path7269" class="cls-3" d="M788.33,245c-1.41,2.4-2.58,4.4-2.6,4.45a13.08,13.08,0,0,1-2.16-.44l-2.11-.54v-5.33c0-2.94,0-5.34.06-5.34l2.87.63c2.74.62,6.42,1.8,6.48,2.09,0,.07-1.12,2.08-2.54,4.48Z"/><path id="path7271" class="cls-3" d="M772.84,248.57a13.32,13.32,0,0,0-2.12.55c-.93.3-1.71.54-1.72.53s-5.24-9-5.26-9.06a4.44,4.44,0,0,1,1.27-.67,43.51,43.51,0,0,1,7.45-1.9l.79-.09v10.64h-.41Z"/><path id="path7273" class="cls-3" d="M761.43,254.12a13.28,13.28,0,0,0-1.54,1.48,9.11,9.11,0,0,1-1.2,1.17c-.07,0-1.77-.95-3.79-2.11-3.45-2-5.14-3.06-5.14-3.28a44.48,44.48,0,0,1,5.06-5.35l1.7-1.46,2.65,4.55c1.46,2.5,2.67,4.58,2.68,4.61s-.17.22-.42.39Z"/><path id="path7176" class="cls-3" d="M425.68,264.15a22.41,22.41,0,0,0-.9,3.31l-.16.85h-5.28c-4.7,0-5.28,0-5.28-.19a32.76,32.76,0,0,1,1.21-5.87,21.34,21.34,0,0,1,1.21-3.34c.15-.15,1.65.61,5.28,2.69,2.12,1.21,3.89,2.24,3.94,2.28a.27.27,0,0,1,0,.27Z"/><path id="path7178" class="cls-3" d="M423,282.27l-4.58,2.66-1.79,1-.4-1a43.22,43.22,0,0,1-2.07-8l-.08-.53h10.59l.2,1c.12.54.37,1.5.56,2.13l.36,1.14L423,282.27Z"/><path id="path7180" class="cls-3" d="M430.37,295.56c-1.44,2.45-2.65,4.45-2.7,4.45a21.15,21.15,0,0,1-1.77-1.44,41.32,41.32,0,0,1-4.8-5l-.36-.49,1.3-.76,4.51-2.64,3.2-1.87,1.63,1.6c.89.88,1.61,1.63,1.61,1.65s-1.19,2.05-2.62,4.5Z"/><path id="path7182" class="cls-3" d="M444,298.37c-.44,3.72-1,7.89-1.13,8s-4.24-.76-6.56-1.64c-.66-.26-1.24-.5-1.3-.55s1.07-2.14,2.49-4.64l2.59-4.55,1.11.34c.61.19,1.55.45,2.09.58a2.27,2.27,0,0,1,1,.36C444.21,296.35,444.1,297.29,444,298.37Z"/><path id="path7184" class="cls-3" d="M461.81,304.35a29.35,29.35,0,0,1-4.28,1.47c-1.16.3-4.19.88-4.59.88-.23,0-.37-2.48-.37-6.34,0-4.12,0-4.27.24-4.27a21,21,0,0,0,3.26-.79,2.45,2.45,0,0,1,.83-.21l2.3,4c1.24,2.15,2.41,4.18,2.61,4.51l.35.6-.35.18Z"/><path id="path7186" class="cls-3" d="M475.31,294.2c-1.71,2.15-5.83,6-6.11,5.69-.06-.06-1.27-2.09-2.67-4.51L464,291l1.54-1.52c.84-.83,1.58-1.54,1.65-1.57s9,5.05,9,5.17a13.24,13.24,0,0,1-.86,1.14Z"/><path id="path7188" class="cls-3" d="M482.63,278.54a31.13,31.13,0,0,1-1.34,5c-.76,2.1-.86,2.34-1,2.34s-8.65-4.9-8.88-5.11-.05-.47.28-1.61a17.29,17.29,0,0,0,.51-2.12l.09-.63h10.57v.47a16.84,16.84,0,0,1-.23,1.67Z"/><path id="path7190" class="cls-3" d="M477.66,268.31h-5.34l-.22-1.08c-.12-.6-.36-1.52-.53-2.05a4.21,4.21,0,0,1-.24-1c.09-.15,4.85-2.15,9.48-4,.3-.12,1.57,4.31,1.93,6.71.08.49.16,1,.2,1.17l.06.28Z"/><path id="path7192" class="cls-3" d="M475.26,252c-.43.33-2.42,1.56-4.41,2.72l-3.63,2.12-1.62-1.61L464,253.59l2.56-4.41c1.42-2.43,2.62-4.46,2.67-4.51s1.74,1.13,3.49,2.86a29.94,29.94,0,0,1,3.24,3.69C476,251.31,475.77,251.58,475.26,252Z"/><path id="path7194" class="cls-3" d="M459.47,245.05c-2,3.44-2.72,4.56-2.86,4.5s-3.17-.88-3.69-1l-.35-.07v-5.31c0-4.34,0-5.3.17-5.3a46.7,46.7,0,0,1,4.88,1,39.08,39.08,0,0,1,4.24,1.45c.26.14.17.32-2.39,4.72Z"/><path id="path7196" class="cls-3" d="M443.26,248.67c-.61.12-1.58.37-2.15.55a5,5,0,0,1-1.08.27c-.18-.23-5.14-9-5.14-9.06a43.66,43.66,0,0,1,5.75-1.92,30.93,30.93,0,0,1,3.5-.63c.21,0,.22.34.22,5.28v5.28l-1.1.23Z"/><path id="path7198" class="cls-3" d="M431.46,255.2l-1.5,1.47-2.83-2.12c-1.55-1.16-3.42-2.59-4.15-3.17l-1.32-1.06.75-.84c1.43-1.61,5.19-5,5.34-4.88s5.24,9,5.23,9.06-.7.73-1.52,1.54Z"/><path id="path7108" class="cls-3" d="M396.12,260.33c-.22,1.82-.41,3.33-.42,3.34s-42.38-7.42-42.43-7.46.51-4.68.55-4.72,10.43.74,22.16,2l20.88,2.22-.35,1c0,.16-.16,1.79-.39,3.61Z"/><path id="_2" data-name="2" class="cls-4" d="M612.88,282.81l3.9-.16"/><path id="_685" data-name="685" class="cls-5" d="M634.22,272.27a40.89,40.89,0,0,0,10.46-60.68"/><path id="_686" data-name="686" class="cls-5" d="M643.79,241c.37-13.16-8.61-26-21.26-29.85a33.91,33.91,0,0,0-9.65-1.54"/><path id="_687" data-name="687" class="cls-5" d="M639.25,209.64A38.29,38.29,0,0,0,612.88,199"/><path id="_688" data-name="688" class="cls-5" d="M628.05,249c3.4-6.89,1.53-15.9-4.62-20.6a16.54,16.54,0,0,0-10.55-3.73"/><path id="_689" data-name="689" class="cls-5" d="M629.67,242.82l24.1-3.25"/><path id="_691" data-name="691" class="cls-5" d="M644.19,211.59H650"/><path id="_692" data-name="692" class="cls-5" d="M639.25,209.64a13.89,13.89,0,0,0,2.1,1.39,7.53,7.53,0,0,0,1.93.45l.91.11"/><path id="_693" data-name="693" class="cls-6" d="M633.32,259.85H613.85"/><path id="_694" data-name="694" class="cls-6" d="M633.24,266.75H613.85"/><path id="_695" data-name="695" class="cls-5" d="M594.47,279.4c-3.69-5.35-7.28-11.46-6.74-18.17a13.07,13.07,0,0,1,4.71-9.33,26.2,26.2,0,0,1,4.22-2.92"/><path id="_696" data-name="696" class="cls-5" d="M634.22,272.27c2.12-5.73,3-12.83-.65-18.09a17.71,17.71,0,0,0-5.76-5.2"/><path id="_698" data-name="698" class="cls-5" d="M596.66,249h31.39"/><path id="_699" data-name="699" class="cls-6" d="M626.43,250.93h-8.76"/><path id="_700" data-name="700" class="cls-6" d="M632.84,257.83a12.11,12.11,0,0,0-3.65-4.87,14.64,14.64,0,0,0-2.76-2"/><path id="_701" data-name="701" class="cls-6" d="M633.57,264.8a15.24,15.24,0,0,0-.25-4.95"/><path id="_702" data-name="702" class="cls-6" d="M632.19,270.72a18.31,18.31,0,0,0,.73-2.35,7.27,7.27,0,0,0,.32-1.62"/><path id="_703" data-name="703" class="cls-5" d="M581.08,211.59c-9.85,11.94-12,29.64-5.08,43.53A41.39,41.39,0,0,0,589.52,271"/><path id="_704" data-name="704" class="cls-6" d="M595.12,276.4a41.34,41.34,0,0,1-2.28-3.65"/><path id="_705" data-name="705" class="cls-6" d="M609.15,272.75H592.84"/><path id="_706" data-name="706" class="cls-4" d="M583,190.41A51.1,51.1,0,0,0,562,236c1.33,20.09,15.86,38.38,35.07,44.35a49.54,49.54,0,0,0,15.79,2.51"/><path id="_707" data-name="707" class="cls-6" d="M590,264.8h21.9"/><path id="_708" data-name="708" class="cls-6" d="M590.65,257.83h21.26"/><path id="_709" data-name="709" class="cls-6" d="M591.79,270.72h20.12"/><path id="_710" data-name="710" class="cls-6" d="M590.65,257.83a14.12,14.12,0,0,1,6.05-6.37,5,5,0,0,1,.85-.53"/><path id="_711" data-name="711" class="cls-6" d="M590,264.8a14.69,14.69,0,0,1,.08-4.95"/><path id="_712" data-name="712" class="cls-6" d="M591.79,270.72a20.08,20.08,0,0,1-1.38-4"/><path id="_713" data-name="713" class="cls-6" d="M595.12,276.4h14"/><path id="_714" data-name="714" class="cls-6" d="M609.15,276.4v-3.65"/><path id="_715" data-name="715" class="cls-6" d="M613.85,270.72v-4"/><path id="_716" data-name="716" class="cls-6" d="M608.1,250.93H597.55"/><path id="_717" data-name="717" class="cls-6" d="M611.91,257.83v-3.09"/><path id="_718" data-name="718" class="cls-6" d="M613.85,257.83h19"/><path id="_719" data-name="719" class="cls-6" d="M613.85,257.83v-3.09"/><path id="_720" data-name="720" class="cls-6" d="M611.91,259.85H590.09"/><path id="_721" data-name="721" class="cls-6" d="M613.85,264.8h19.72"/><path id="_722" data-name="722" class="cls-6" d="M611.91,266.75h-21.5"/><path id="_723" data-name="723" class="cls-6" d="M611.91,264.8v-4.95"/><path id="_724" data-name="724" class="cls-6" d="M613.85,264.8v-4.95"/><path id="_725" data-name="725" class="cls-6" d="M611.91,270.72v-4"/><path id="_726" data-name="726" class="cls-6" d="M613.85,270.72h18.34"/><path id="_727" data-name="727" class="cls-5" d="M612.88,209.56A30.93,30.93,0,0,0,582,241"/><path id="_728" data-name="728" class="cls-5" d="M612.88,224.65c-8.85-.17-16.88,7.6-16.87,16.48a17.79,17.79,0,0,0,1.78,7.85"/><path id="_729" data-name="729" class="cls-5" d="M596.09,242.82,572,239.57"/><path id="_730" data-name="730" class="cls-5" d="M612.88,199a38.42,38.42,0,0,0-26.36,10.63"/><path id="_731" data-name="731" class="cls-5" d="M581.65,211.59H573"/><path id="_732" data-name="732" class="cls-5" d="M581.65,211.59a13.3,13.3,0,0,0,2.43-.43,7.59,7.59,0,0,0,1.7-1c.25-.17.5-.35.74-.54"/><path id="_733" data-name="733" class="cls-5" d="M573,211.59V200"/><path id="_734" data-name="734" class="cls-5" d="M650,211.59V196.66"/><path id="_735" data-name="735" class="cls-6" d="M613.94,191.71V170.05"/><path id="_736" data-name="736" class="cls-6" d="M630.65,200.39V173.3"/><path id="_737" data-name="737" class="cls-6" d="M632.92,200.47v-26"/><path id="_738" data-name="738" class="cls-6" d="M614,161.05h9.57"/><path id="_739" data-name="739" class="cls-6" d="M642.81,190.41l-6.48-20.11"/><path id="_740" data-name="740" class="cls-6" d="M636.33,170.3a13.31,13.31,0,0,0-7.31-8,14.27,14.27,0,0,0-5.43-1.21"/><path id="_741" data-name="741" class="cls-6" d="M612.88,191.22l17.77,9.17"/><path id="_742" data-name="742" class="cls-6" d="M630.65,200.39l12.16.57"/><path id="_743" data-name="743" class="cls-6" d="M642.81,190.41V201"/><path id="_744" data-name="744" class="cls-6" d="M642.81,201l-8.76-27.83"/><path id="_745" data-name="745" class="cls-6" d="M612.88,164.13h8.76"/><path id="_746" data-name="746" class="cls-6" d="M634.13,173.3a13.09,13.09,0,0,0-6.71-7.83,13.91,13.91,0,0,0-5.78-1.34"/><path id="_747" data-name="747" class="cls-6" d="M613.94,170.05l16.71,3.25"/><path id="_748" data-name="748" class="cls-6" d="M612.88,168l17.6,3.41"/><path id="_749" data-name="749" class="cls-6" d="M612.88,165.83h8.76"/><path id="_750" data-name="750" class="cls-6" d="M631,170.7a11.38,11.38,0,0,0-8.32-4.78c-.33,0-.67-.06-1-.09"/><path id="_751" data-name="751" class="cls-6" d="M630.48,171.43l.33-.08.24-.32-.08-.33"/><path id="_752" data-name="752" class="cls-6" d="M632.92,170.62v-5"/><path id="_753" data-name="753" class="cls-6" d="M642.25,201l-8.36-26.69"/><path id="_754" data-name="754" class="cls-6" d="M642.81,192l-7-21.49"/><path id="_755" data-name="755" class="cls-6" d="M635.84,170.46a12.88,12.88,0,0,0-6.18-7.4,13.23,13.23,0,0,0-6.07-1.53"/><path id="_756" data-name="756" class="cls-6" d="M623.59,161.53H614"/><path id="_757" data-name="757" class="cls-6" d="M633.89,174.27l-.16-.24-.41-.08-.24.16-.16.32"/><path id="_758" data-name="758" class="cls-5" d="M643.3,201.53c-.45.18-.67.66-.94,1.05a10,10,0,0,0-.19,1.22,2.84,2.84,0,0,0,.08,1,4.68,4.68,0,0,0,.3,1.32c.21.45.4.91.58,1.36a13.9,13.9,0,0,0,.8,1.2c.31.37.6.72.91,1.07a8.21,8.21,0,0,0,1,.69,2.86,2.86,0,0,0,1.15.36,2.73,2.73,0,0,0,.76,0c.44,0,.66-.41,1-.6a4.17,4.17,0,0,0,.44-1.3,2.68,2.68,0,0,0,0-.75,2.45,2.45,0,0,0-.14-1.14,3.12,3.12,0,0,0-.38-1.36,5.62,5.62,0,0,0-.66-1.29,4.28,4.28,0,0,0-.84-1.22,3.54,3.54,0,0,0-.92-.93,10,10,0,0,0-1-.66,6,6,0,0,0-1.22-.24c-.26.09-.52,0-.77.21Z"/><path id="_759" data-name="759" class="cls-5" d="M642.81,201l1.79.4"/><path id="_760" data-name="760" class="cls-7" d="M622.45,275.59a5.79,5.79,0,0,0-4,10,5.53,5.53,0,0,0,4.31,1.6,5.8,5.8,0,0,0-.28-11.6Z"/><path id="_761" data-name="761" class="cls-5" d="M622.45,277.05a4.31,4.31,0,0,0-4.09,2.77,4.37,4.37,0,1,0,8.47,1.43,4.2,4.2,0,0,0-2.75-3.87,4.35,4.35,0,0,0-1.63-.33Z"/><path id="_762" data-name="762" class="cls-4" d="M628.21,280.46c19.52-5.78,34.22-24.37,35.6-44.64a51.15,51.15,0,0,0-21-45.41"/><path id="_763" data-name="763" class="cls-6" d="M622.13,271.78a1.67,1.67,0,1,0,.49.07,1.61,1.61,0,0,0-.49-.07Z"/><path id="_764" data-name="764" class="cls-6" d="M617.67,250.93a3.94,3.94,0,0,0-3.82,3.81"/><path id="_765" data-name="765" class="cls-6" d="M611.91,254.74a3.92,3.92,0,0,0-3.81-3.81"/><path id="_766" data-name="766" class="cls-5" d="M594.22,226.76a23.44,23.44,0,0,0-5.11,15.08"/><path id="_767" data-name="767" class="cls-5" d="M590.74,216.05a32.42,32.42,0,0,0-9.17,14.11"/><path id="_768" data-name="768" class="cls-5" d="M586.52,211.26a38.54,38.54,0,0,0-10.95,16.79"/><path id="_769" data-name="769" class="cls-5" d="M599.66,231.06l-5.44-4.3"/><path id="_770" data-name="770" class="cls-5" d="M590.74,216.05l-4.22-4.79"/><path id="_771" data-name="771" class="cls-5" d="M581.57,230.16l-6-2.11"/><path id="_772" data-name="772" class="cls-6" d="M613.45,164.13v-8.52"/><path id="_773" data-name="773" class="cls-8" d="M614,164.13V107.51"/><path id="_774" data-name="774" class="cls-6" d="M630.57,163.56v4.06"/><path id="_775" data-name="775" class="cls-6" d="M634.38,167.29V174"/><path id="_776" data-name="776" class="cls-6" d="M611.83,191.71V170.05"/><path id="_777" data-name="777" class="cls-6" d="M595.12,200.39V173.3"/><path id="_778" data-name="778" class="cls-6" d="M592.84,200.47v-26"/><path id="_779" data-name="779" class="cls-6" d="M611.75,161.05h-9.58"/><path id="_780" data-name="780" class="cls-6" d="M583,190.41l6.49-20.11"/><path id="_781" data-name="781" class="cls-6" d="M602.17,161.05a13.65,13.65,0,0,0-10.8,5.55,14,14,0,0,0-1.93,3.69"/><path id="_782" data-name="782" class="cls-6" d="M612.88,191.22l-17.76,9.17"/><path id="_783" data-name="783" class="cls-6" d="M595.12,200.39,583,201"/><path id="_784" data-name="784" class="cls-6" d="M583,190.41V201"/><path id="_785" data-name="785" class="cls-6" d="M583,201l8.76-27.83"/><path id="_786" data-name="786" class="cls-6" d="M612.88,164.13h-8.76"/><path id="_787" data-name="787" class="cls-6" d="M604.12,164.13a13.12,13.12,0,0,0-10.14,4.8,14.65,14.65,0,0,0-2.35,4.37"/><path id="_788" data-name="788" class="cls-6" d="M611.83,170.05l-16.71,3.25"/><path id="_789" data-name="789" class="cls-6" d="M612.88,168l-17.6,3.41"/><path id="_790" data-name="790" class="cls-6" d="M612.88,165.83h-8.76"/><path id="_791" data-name="791" class="cls-6" d="M604.12,165.83a11.59,11.59,0,0,0-9.13,4.64l-.2.23"/><path id="_792" data-name="792" class="cls-6" d="M594.79,170.7l-.08.33.24.32.33.08"/><path id="_793" data-name="793" class="cls-6" d="M592.84,170.62v-5"/><path id="_794" data-name="794" class="cls-6" d="M583.52,201l8.35-26.69"/><path id="_795" data-name="795" class="cls-6" d="M583,192l7-21.49"/><path id="_796" data-name="796" class="cls-6" d="M602.17,161.53a13.5,13.5,0,0,0-9.27,3.92,14.73,14.73,0,0,0-3,5"/><path id="_797" data-name="797" class="cls-6" d="M602.17,161.53h9.58"/><path id="_798" data-name="798" class="cls-6" d="M592.84,174.43l-.08-.32-.32-.16-.33.08-.24.24"/><path id="_799" data-name="799" class="cls-5" d="M582.46,201.53c.42.12.63.52.86.85a3.1,3.1,0,0,1,.28,1.2c0,.36,0,.73,0,1.09a10.5,10.5,0,0,1-.31,1.32,7.1,7.1,0,0,1-.52,1.32c-.29.56-.68,1.07-1,1.6a9.46,9.46,0,0,1-1,1,3.09,3.09,0,0,1-1.12.69,1.68,1.68,0,0,1-1,.25c-.25,0-.51.06-.73-.09-.43,0-.62-.46-.94-.68a4.84,4.84,0,0,1-.44-1.26c0-.37,0-.75,0-1.12a6.8,6.8,0,0,1,.3-1.32,9.34,9.34,0,0,1,.47-1.38c.24-.41.48-.84.75-1.25s.53-.81.94-1.07c.22-.36.65-.53.93-.84a4.28,4.28,0,0,1,1.23-.47,1.73,1.73,0,0,1,1.28.15Z"/><path id="_800" data-name="800" class="cls-5" d="M583,201l-1.79.4"/><path id="_801" data-name="801" class="cls-6" d="M612.39,164.13v-8.52"/><path id="_802" data-name="802" class="cls-6" d="M595.28,163.56v4.06"/><path id="_803" data-name="803" class="cls-6" d="M591.47,167.29V174"/><path id="_804" data-name="804" class="cls-4" d="M611.75,107.51H614"/><path id="_805" data-name="805" class="cls-8" d="M611.75,164.13V107.51"/><path id="_806" data-name="806" class="cls-6" d="M612.39,155.61h1.06"/><path id="_807" data-name="807" class="cls-4" d="M593.09,235a2.44,2.44,0,1,0,2.26,1.54,2.45,2.45,0,0,0-2.26-1.54Z"/><path id="_808" data-name="808" class="cls-5" d="M593.09,236.41a1.1,1.1,0,0,0-1.05,1.13,1.05,1.05,0,1,0,1.05-1.13Z"/><path id="_813" data-name="813" class="cls-4" d="M592,.75h2.11"/><path id="_815" data-name="815" class="cls-7" d="M777.31,270.08a2.24,2.24,0,0,0-2.09,1.48,2.65,2.65,0,0,0,.14,1.84,2,2,0,0,0,1.62,1,2.16,2.16,0,0,0,2.39-2.82,2.33,2.33,0,0,0-2.06-1.54Z"/><path id="_816" data-name="816" class="cls-5" d="M777.31,253.77c-11.27-.49-20.74,11.23-18.17,22.15,1.73,10.07,12.75,17.15,22.63,14.4,9.65-2.22,16.16-12.93,13.52-22.51-1.94-8-9.65-14.24-18-14Z"/><path id="_817" data-name="817" class="cls-5" d="M781.37,295c11.36-1.7,20.07-13,18.9-24.43a28,28,0,0,0-1.7-7.21"/><path id="_818" data-name="818" class="cls-7" d="M781.45,296c11.41-1.78,20.34-12.68,20-24.2a28,28,0,0,0-2-9"/><path id="_819" data-name="819" class="cls-7" d="M782.83,306.66c14.89-2.14,27.37-15,29-30a35,35,0,0,0-2.5-18.06"/><path id="_820" data-name="820" class="cls-5" d="M783.31,309.91c14.77-2.18,27.58-13.81,31-28.38a38.18,38.18,0,0,0-1.83-24"/><path id="_821" data-name="821" class="cls-4" d="M784.61,318c18.15-2.56,33.62-17.1,37.74-34.89a45.77,45.77,0,0,0-2.29-28.55"/><path id="_822" data-name="822" class="cls-4" d="M646.63,270.16H731"/><path id="_823" data-name="823" class="cls-5" d="M650,266.91h81.29"/><path id="_824" data-name="824" class="cls-5" d="M670.23,270.16V235.92"/><path id="_825" data-name="825" class="cls-4" d="M670.23,235.92h25.39"/><path id="_826" data-name="826" class="cls-5" d="M670.23,241.44H704.3"/><path id="_827" data-name="827" class="cls-5" d="M659.69,252.31h10.54"/><path id="_828" data-name="828" class="cls-4" d="M663.91,229.11a7.89,7.89,0,0,0,.92,3.25,7.65,7.65,0,0,0,3.41,3,7.89,7.89,0,0,0,2.8.56"/><path id="_829" data-name="829" class="cls-5" d="M670.23,241.44a2.64,2.64,0,0,1-1-.08,4.2,4.2,0,0,1-1.19-.32,2.82,2.82,0,0,1-.82-.35,6,6,0,0,1-1.26-.75c-.38-.39-.92-.61-1.19-1.1a3.36,3.36,0,0,1-.93-1.29,2.3,2.3,0,0,0-.21-.33"/><path id="_830" data-name="830" class="cls-4" d="M728.48,294.74l2.67,5"/><path id="_831" data-name="831" class="cls-4" d="M732.53,300.17l3.73-1.86"/><path id="_832" data-name="832" class="cls-4" d="M728.88,293.36l3.65-2.11"/><path id="_833" data-name="833" class="cls-4" d="M731.15,299.77l.57.48.81-.08"/><path id="_834" data-name="834" class="cls-4" d="M728.88,293.36l-.48.56.08.82"/><path id="_835" data-name="835" class="cls-4" d="M740.32,300.17h-.49l-.24-.08-.24-.08-.16-.08-.25-.08-.24-.08-.24-.08-.17-.09-.24-.08-.24-.16-.17-.08-.24-.16-.24-.08-.16-.17-.25-.16-.16-.16-.24-.16-.17-.16-.24-.17-.16-.16-.24-.16-.17-.16-.16-.17-.24-.24-.16-.16-.17-.16-.16-.25-.16-.16-.16-.24L734,296l-.16-.24-.16-.24-.16-.16-.17-.25-.08-.24-.16-.24-.08-.17-.08-.24-.08-.24-.16-.25v-.24l-.09-.16-.08-.25v-.24l-.08-.24v-1.22l.08-.24V291l.08-.25.09-.24.08-.24.16-.25.08-.16.16-.24.16-.25.09-.16.16-.16.16-.16.24-.17"/><path id="_836" data-name="836" class="cls-7" d="M781.29,237.71v10.87"/><path id="_837" data-name="837" class="cls-7" d="M823.47,299.77l2.68-5"/><path id="_838" data-name="838" class="cls-7" d="M822,300.17l-3.65-1.86"/><path id="_839" data-name="839" class="cls-7" d="M825.66,293.36l-3.57-2.11"/><path id="_840" data-name="840" class="cls-7" d="M822,300.17l.81.08.65-.48"/><path id="_841" data-name="841" class="cls-7" d="M826.15,294.74v-.81l-.49-.57"/><path id="_842" data-name="842" class="cls-7" d="M814.3,300.17h.49l.16-.08.24-.08.25-.08.24-.08.24-.08.17-.08.24-.09.24-.08.17-.16.24-.08.24-.16.16-.08.25-.17.16-.16.24-.16.17-.16.24-.16.16-.17.24-.16.17-.16.24-.16.16-.17.16-.24.25-.16.16-.16.16-.25.16-.16.17-.24.16-.17.16-.24.16-.24.17-.16.08-.25.16-.24.08-.24.16-.17.08-.24.09-.24.08-.25.08-.24.08-.16.08-.25v-.24l.08-.24v-1l-.08-.24v-.24L822,291l-.08-.25-.08-.24-.08-.24-.09-.25-.16-.16-.08-.24-.16-.25-.16-.16-.17-.16-.16-.16-.16-.17"/><path id="_843" data-name="843" class="cls-7" d="M773.34,248.58V237.71"/><path id="_844" data-name="844" class="cls-7" d="M763.44,240.38l5.44,9.33"/><path id="_845" data-name="845" class="cls-7" d="M762,253.69l-5.44-9.33"/><path id="_846" data-name="846" class="cls-9" d="M750.7,252.39l8,4.62"/><path id="_847" data-name="847" class="cls-7" d="M742.67,268.37h10.87"/><path id="_848" data-name="848" class="cls-7" d="M753.54,276.24H742.67"/><path id="_849" data-name="849" class="cls-7" d="M745.35,286.14l9.41-5.44"/><path id="_850" data-name="850" class="cls-7" d="M758.74,287.6,749.33,293"/><path id="_851" data-name="851" class="cls-7" d="M756.54,300.25l5.44-9.33"/><path id="_852" data-name="852" class="cls-7" d="M768.88,294.82l-5.44,9.41"/><path id="_853" data-name="853" class="cls-7" d="M773.34,305.28V296"/><path id="_854" data-name="854" class="cls-7" d="M791.18,304.23l-5.43-9.41"/><path id="_855" data-name="855" class="cls-7" d="M792.64,290.92l5.36,9.33"/><path id="_856" data-name="856" class="cls-7" d="M805.3,293l-9.41-5.43"/><path id="_857" data-name="857" class="cls-7" d="M799.86,280.7l9.41,5.44"/><path id="_858" data-name="858" class="cls-7" d="M811.87,276.24H801.08"/><path id="_859" data-name="859" class="cls-7" d="M801.08,268.37h10.79"/><path id="_860" data-name="860" class="cls-9" d="M809.27,258.47l-9.41,5.36"/><path id="_861" data-name="861" class="cls-7" d="M798,244.36l-5.36,9.33"/><path id="_862" data-name="862" class="cls-7" d="M785.75,249.71l5.43-9.33"/><path id="_863" data-name="863" class="cls-4" d="M771.88,226.27V215.72"/><path id="_864" data-name="864" class="cls-4" d="M782.75,226.27V215.72"/><path id="_865" data-name="865" class="cls-10" d="M777.31,223.43a4.67,4.67,0,0,0,1.79-.41,5.64,5.64,0,0,0,2-1.86,11.32,11.32,0,0,0,1-1.95c.09-.69.54-1.3.44-2a8.78,8.78,0,0,0,.09-2.29,6,6,0,0,0-.41-2.17,7.28,7.28,0,0,0-.89-2.07,5.22,5.22,0,0,0-1.3-1.58,4.87,4.87,0,0,0-2.39-1.06,8.34,8.34,0,0,0-1.42.09,4.92,4.92,0,0,0-2,1.22,7.25,7.25,0,0,0-1.26,1.54c-.34.59-.46,1.26-.77,1.86a7.65,7.65,0,0,0-.32,2.17,9.75,9.75,0,0,0,0,2.29,9.87,9.87,0,0,0,.73,2.52,4.66,4.66,0,0,0,1,1.79,6.37,6.37,0,0,0,1.73,1.54,5.74,5.74,0,0,0,1.86.4Z"/><path id="_866" data-name="866" class="cls-4" d="M823.63,270.48l377.29-46.24"/><path id="_867" data-name="867" class="cls-7" d="M809,238.6l11.36-.89"/><path id="_868" data-name="868" class="cls-4" d="M871.65,251.09l-42.26,4.38"/><path id="_869" data-name="869" class="cls-5" d="M1200.92,224.24l-1.46-14"/><path id="_870" data-name="870" class="cls-4" d="M1200.92,224.24l22.55-7.22"/><path id="_871" data-name="871" class="cls-4" d="M1199.46,210.21l23.52,2.27"/><path id="_872" data-name="872" class="cls-4" d="M1223.47,217l1-.73.56-1.13-.16-1.22-.73-1.06-1.14-.4"/><path id="_873" data-name="873" class="cls-4" d="M830.36,263.42l42-6.57"/><path id="_874" data-name="874" class="cls-11" d="M829.39,255.47a4,4,0,0,0-3.57,4.46,4,4,0,0,0,4.54,3.49"/><path id="_875" data-name="875" class="cls-11" d="M872.38,256.85a2.92,2.92,0,0,0,1.7-4.9,3.47,3.47,0,0,0-2.43-.86"/><path id="_880" data-name="880" class="cls-5" d="M825.42,267.56l375.26-45.35"/><path id="_881" data-name="881" class="cls-5" d="M1199.7,212.4,850.24,239.49"/><path id="_882" data-name="882" class="cls-5" d="M881.88,256.2l-.73-7.38"/><path id="_883" data-name="883" class="cls-4" d="M883.34,255c2.58,1.45,5.61,1.8,8.51,2a46.19,46.19,0,0,0,7.71-.41,32,32,0,0,0,10.06-3.08,22.87,22.87,0,0,0,2.27-1.63"/><path id="_884" data-name="884" class="cls-5" d="M881.88,256.2c2.15,1.55,4.81,2.11,7.38,2.6a37.71,37.71,0,0,0,6.28.24,37.13,37.13,0,0,0,9-1.42,23.24,23.24,0,0,0,4.58-1.74,18,18,0,0,0,4.46-3.08"/><path id="_885" data-name="885" class="cls-4" d="M883.34,255l-.57-5.2"/><path id="_886" data-name="886" class="cls-5" d="M882.36,260.66l-2.43-23.44"/><path id="_887" data-name="887" class="cls-5" d="M913.59,253l-.81-7.55"/><path id="_888" data-name="888" class="cls-4" d="M911.89,251.9l-.57-5.27"/><path id="_889" data-name="889" class="cls-4" d="M911.32,246.63a19.27,19.27,0,0,0-7.54-1.95,40.23,40.23,0,0,0-10,.61,34,34,0,0,0-6.49,1.75,15.58,15.58,0,0,0-4.54,2.75"/><path id="_890" data-name="890" class="cls-5" d="M913.19,249.15v-.09"/><path id="_891" data-name="891" class="cls-5" d="M912.78,245.41c-2.72-1.81-6-2.38-9.21-2.75a43.75,43.75,0,0,0-9.36.4,46,46,0,0,0-6.9,1.87,18.56,18.56,0,0,0-6.16,3.89"/><path id="_892" data-name="892" class="cls-5" d="M825.74,270.24,824,253"/><path id="_893" data-name="893" class="cls-5" d="M823.87,270.48l-1.7-16.71"/><path id="_894" data-name="894" class="cls-5" d="M816.25,240.79,816,238"/><path id="_895" data-name="895" class="cls-5" d="M1093.27,235.19l-1.46-14.44"/><path id="_896" data-name="896" class="cls-4" d="M791.35,228.14V131.52"/><path id="_897" data-name="897" class="cls-4" d="M786.72,226.92v-95.4"/><path id="_898" data-name="898" class="cls-4" d="M793.13,228.78l.81-25.22-.08-25.23-1-25.23L791,128"/><path id="_899" data-name="899" class="cls-4" d="M787.05,128l-1.87,24.66-1,24.66-.08,24.66.64,24.66"/><path id="_900" data-name="900" class="cls-4" d="M791,128l-.32-.89-.73-.65-1-.25-1,.25-.65.65-.32.89"/><path id="_901" data-name="901" class="cls-4" d="M665,232.6l18.25-2.84"/><path id="_902" data-name="902" class="cls-4" d="M662.61,220l18.09-1.94"/><path id="_903" data-name="903" class="cls-4" d="M781,207.45l.16-.08h.33l.16-.08.08-.08.16-.09L782,207l.16-.08.08-.08.16-.08.16-.08.09-.16.16-.08.08-.17.16-.08.08-.16.08-.16.17-.08.08-.16.08-.17.08-.16.08-.16.08-.16.08-.17v-.16l.08-.16.08-.16V204l.09-.16v-.24"/><path id="_904" data-name="904" class="cls-4" d="M784.45,217v-.16l-.08-.16v-.17l-.08-.16-.08-.08-.08-.16L784,216l-.08-.08-.16-.17-.16-.08-.08-.08-.16-.16-.17-.08-.16-.08-.16-.08-.24-.08"/><path id="_905" data-name="905" class="cls-12" d="M788.43,137.28,614,113.75"/><path id="_906" data-name="906" class="cls-4" d="M639.73,280.78c-8.94-.41-16.28,8.92-14,17.53,1.67,9,13.06,14.12,20.92,9.36,8.56-4.22,9.93-17.21,2.65-23.29a14.26,14.26,0,0,0-9.54-3.6Z"/><path id="_907" data-name="907" class="cls-4" d="M639.73,293.6a1.53,1.53,0,0,0-1.54,1.54,1.53,1.53,0,0,0,.41,1.06,1.59,1.59,0,0,0,1.13.4,1.38,1.38,0,0,0,1.46-1.46,1.61,1.61,0,0,0-.4-1.05A1.55,1.55,0,0,0,639.73,293.6Z"/><path id="_908" data-name="908" class="cls-4" d="M639.73,309.5v2.6"/><path id="_909" data-name="909" class="cls-4" d="M654,295.14h2.68"/><path id="_910" data-name="910" class="cls-4" d="M639.73,280.78v-2.67"/><path id="_911" data-name="911" class="cls-4" d="M625.37,295.14H622.7"/><path id="_912" data-name="912" class="cls-4" d="M677.13,278.92c-7.54-.34-13.25,8.74-9.51,15.36,3.12,7.23,14.32,7.91,18.39,1.21,4.25-5.94.43-15.23-6.8-16.4A11.23,11.23,0,0,0,677.13,278.92Z"/><path id="_913" data-name="913" class="cls-4" d="M677.13,288.08a1.53,1.53,0,0,0-1.06.41,1.56,1.56,0,0,0-.4,1.05,1.64,1.64,0,0,0,.4,1.06,1.55,1.55,0,0,0,1.06.49,1.69,1.69,0,0,0,1.54-1.55,1.49,1.49,0,0,0-.49-1.05A1.55,1.55,0,0,0,677.13,288.08Z"/><path id="_914" data-name="914" class="cls-4" d="M677.13,300.17V302"/><path id="_915" data-name="915" class="cls-4" d="M687.76,289.54h1.86"/><path id="_916" data-name="916" class="cls-4" d="M677.13,278.92v-1.87"/><path id="_917" data-name="917" class="cls-4" d="M666.5,289.54h-1.86"/><path id="_918" data-name="918" class="cls-4" d="M649.39,284.51l13.06-14.35"/><path id="_919" data-name="919" class="cls-4" d="M650.2,283.54l-8-9.9"/><path id="_920" data-name="920" class="cls-4" d="M642.17,273.64l-14,9.58"/><path id="_921" data-name="921" class="cls-4" d="M643.3,275l-14.19,9.74"/><path id="_922" data-name="922" class="cls-4" d="M629.11,284.76l-1-1.54"/><path id="_923" data-name="923" class="cls-4" d="M671.45,280.62l-6.65-10.46"/><path id="_924" data-name="924" class="cls-4" d="M683.37,281l7.87-10.79"/><path id="_925" data-name="925" class="cls-4" d="M677.94,275.27l-3.25-5.11"/><path id="_926" data-name="926" class="cls-4" d="M677.94,275.27l3.73-5.11"/><path id="_927" data-name="927" class="cls-4" d="M683.37,281l-5.43-5.68"/><path id="_928" data-name="928" class="cls-4" d="M677.94,275.27l-6.49,5.35"/><path id="_929" data-name="929" class="cls-4" d="M688.32,229.27l-11.68-3.89"/><path id="_930" data-name="930" class="cls-4" d="M691.57,232.52,676,227.32"/><path id="_931" data-name="931" class="cls-4" d="M676.8,224.89l-14.19-4.7"/><path id="_932" data-name="932" class="cls-4" d="M675.83,227.81l-12.49-4.14"/><path id="_933" data-name="933" class="cls-4" d="M676,227.32h-.08v-.08h-.08v-.65l.08-.08v-.16l.08-.08v-.16l.08-.08v-.17l.09-.08.08-.08.08-.08v-.08l.08-.08.08-.08h.16"/><path id="_934" data-name="934" class="cls-4" d="M676.4,227.49l-.08.08-.08.08-.08.08-.09.08H676l-.08.08-.08-.08h-.08l-.08-.08-.08-.08v-.16l-.08-.09v-.56l.08-.08v-.17l.08-.16v-.16l.08-.16v-.17l.08-.16.08-.16.08-.16.08-.08.09-.17.08-.08.08-.08.08-.08h.08l.08-.08h.33V225H677v.08l.08.16v.33"/><path id="_935" data-name="935" class="cls-4" d="M687.76,229.11l.32-.08"/><path id="_937" data-name="937" class="cls-6" d="M632.92,184.25l8.6,16.71"/><path id="_938" data-name="938" class="cls-6" d="M632.92,188.79l7,12.09"/><path id="_939" data-name="939" class="cls-6" d="M632.92,192.93l6,7.87"/><path id="_943" data-name="943" class="cls-7" d="M774.47,295.22c-1.61,17-5.86,33.72-5.27,50.87.32,12-.42,24.89,5.35,35.77,1.17,2.7,4.75,1.85,5.6-.65,6.85-12.06,7.65-26.27,6.65-39.83a261.69,261.69,0,0,0-3.89-33.83"/><path id="_944" data-name="944" class="cls-7" d="M782.91,307.55a11.58,11.58,0,0,0-.33-2.11,11.45,11.45,0,0,0-.3-2c-.15-1.13-.25-2.26-.4-3.38-.19-1.74-.39-3.48-.59-5.22"/><path id="_945" data-name="945" class="cls-5" d="M771.23,355.66c-.51-18.93,1.25-38.19,7.79-56.06"/><path id="_946" data-name="946" class="cls-7" d="M781.37,295a2.38,2.38,0,0,0-2-1.78,4.76,4.76,0,0,0-4.38.89,1.63,1.63,0,0,0-.49,1.13"/><path id="_947" data-name="947" class="cls-7" d="M798.57,263.34c16.37-7.53,34-12.49,49.23-22.39,9.53-6,20.69-11.68,26.21-22,1-3.29-3.46-4.19-5.84-3.49-19,1-34.73,13.23-49.73,23.69-8.06,5.93-15.45,12.71-23.69,18.41"/><path id="_948" data-name="948" class="cls-5" d="M852.51,235.84c-16.08,10-33.68,18-52.4,21.34"/><path id="_949" data-name="949" class="cls-7" d="M794.91,257.42c-1.85,2.22.53,6.11,3.23,6.05l.42-.13"/><path id="_950" data-name="950" class="cls-7" d="M758.9,258.39c-14.32-10.15-27.07-22.56-42.75-30.74C705.78,222.21,695,215,682.89,215.24c-3.06.36-2.52,4.57-.65,6.16,9.89,16.12,28.19,23.58,44.53,31.31,9.56,4.25,19.59,7.36,29,11.85"/><path id="_951" data-name="951" class="cls-5" d="M708.12,225.38c16.65,9,32.42,20.18,44.69,34.72"/><path id="_952" data-name="952" class="cls-7" d="M755.65,264.48c1.31.52,2.49-.74,3.25-1.71.55-1.09,1.16-2.45.56-3.65,0-.28-.37-.55-.56-.73"/><path id="_953" data-name="953" class="cls-7" d="M795.81,256.85c-7.13-8.84-20.74-11.26-30.48-5.41a25.58,25.58,0,0,0-7.32,6.39"/><path id="_954" data-name="954" class="cls-5" d="M794.91,257.42c-7.21-8.94-21.35-10.81-30.66-4.11a24.57,24.57,0,0,0-5.35,5.08"/><path id="_955" data-name="955" class="cls-7" d="M804.32,250.36a34.72,34.72,0,0,0-54.83,1.06"/><path id="_956" data-name="956" class="cls-5" d="M806.92,248.25c-8.59-10.47-22.85-16.08-36.24-13.45a38.27,38.27,0,0,0-23.79,14.51"/><path id="_957" data-name="957" class="cls-7" d="M813.25,243.14A46.43,46.43,0,0,0,770,226.54a47,47,0,0,0-29.51,17.58"/><path id="_958" data-name="958" class="cls-4" d="M857.3,235l342.16-24.82"/><path id="_959" data-name="959" class="cls-4" d="M693.19,216.7,781,207.45"/><path id="_960" data-name="960" class="cls-4" d="M712,225.3,771.88,216"/><path id="_961" data-name="961" class="cls-4" d="M729.45,235.92h19.23"/><path id="_962" data-name="962" class="cls-4" d="M737.16,241.44h5.59"/><path id="_963" data-name="963" class="cls-4" d="M734,255.72a46.37,46.37,0,0,0,37.32,62.54"/><path id="_964" data-name="964" class="cls-5" d="M741.7,258.72c-6.17,15.54-.58,34.77,13.16,44.38a36.93,36.93,0,0,0,17.75,7"/><path id="_965" data-name="965" class="cls-7" d="M744.78,259.85c-5.77,14.19-.5,31.75,12,40.56a33.18,33.18,0,0,0,16.32,6.41"/><path id="_966" data-name="966" class="cls-7" d="M754.68,264.07c-3.93,10.09.18,22.31,9.18,28.22a24.19,24.19,0,0,0,10.53,3.91"/><path id="_967" data-name="967" class="cls-5" d="M755.65,264.48a23,23,0,0,0,5.58,24.35,23.44,23.44,0,0,0,13.24,6.39"/><path id="_981" data-name="981" class="cls-7" d="M448.45,270.08c-2,0-3,2.83-1.29,4a2.2,2.2,0,1,0,1.29-4Z"/><path id="_982" data-name="982" class="cls-5" d="M448.45,253.77c-10.57-.37-19.76,9.87-18.42,20.33.7,10.56,11.75,18.76,22.07,16.42,10-1.82,17.16-12.82,14.41-22.71-2-8-9.69-14.29-18.06-14Z"/><path id="_983" data-name="983" class="cls-5" d="M427.28,263.34c-4.82,10.64.11,24.41,10.66,29.47a23.73,23.73,0,0,0,6.54,2.17"/><path id="_984" data-name="984" class="cls-7" d="M426.31,262.86a24.11,24.11,0,0,0,18,33.17"/><path id="_985" data-name="985" class="cls-7" d="M416.41,258.64C411.1,271,413.68,286.29,423,296a34.46,34.46,0,0,0,20,10.65"/><path id="_986" data-name="986" class="cls-5" d="M413.41,257.5C407,272,411.09,290.19,423,300.63a38.37,38.37,0,0,0,19.48,9.28"/><path id="_987" data-name="987" class="cls-4" d="M405.7,254.58c-6.91,15.87-3.56,35.35,7.91,48.25A46,46,0,0,0,441.23,318"/><path id="_988" data-name="988" class="cls-4" d="M579.14,270.16H494.77"/><path id="_989" data-name="989" class="cls-5" d="M575.81,266.91H494.53"/><path id="_990" data-name="990" class="cls-5" d="M555.53,270.16V235.92"/><path id="_991" data-name="991" class="cls-4" d="M555.53,235.92H530.14"/><path id="_992" data-name="992" class="cls-5" d="M555.53,241.44h-34"/><path id="_993" data-name="993" class="cls-5" d="M566.16,252.31H555.53"/><path id="_994" data-name="994" class="cls-4" d="M554.8,235.92a7.45,7.45,0,0,0,3.24-.8,6.85,6.85,0,0,0,3.69-5.13c0-.29.09-.59.13-.88"/><path id="_995" data-name="995" class="cls-5" d="M555.53,241.44a7.62,7.62,0,0,0,6.57-4.22"/><path id="_996" data-name="996" class="cls-4" d="M494.69,299.77l2.6-5"/><path id="_997" data-name="997" class="cls-4" d="M493.23,300.17l-3.65-1.86"/><path id="_998" data-name="998" class="cls-4" d="M496.88,293.36l-3.65-2.11"/><path id="_999" data-name="999" class="cls-4" d="M493.23,300.17l.81.08.65-.48"/><path id="_1000" data-name="1000" class="cls-4" d="M497.29,294.74l.08-.81-.49-.57"/><path id="_1001" data-name="1001" class="cls-4" d="M485.44,300.17c3.88-.71,7.48-4,7.95-8a4.62,4.62,0,0,0-1.54-3.41"/><path id="_1002" data-name="1002" class="cls-7" d="M444.48,237.71v10.87"/><path id="_1003" data-name="1003" class="cls-4" d="M399.62,294.74l2.67,5"/><path id="_1004" data-name="1004" class="cls-4" d="M403.75,300.17l3.65-1.86"/><path id="_1005" data-name="1005" class="cls-4" d="M400.1,293.36l3.57-2.11"/><path id="_1006" data-name="1006" class="cls-4" d="M402.29,299.77l.65.48.81-.08"/><path id="_1007" data-name="1007" class="cls-4" d="M400.1,293.36l-.48.56v.82"/><path id="_1008" data-name="1008" class="cls-4" d="M411.46,300.17c-3.95-.8-7.77-4.32-7.86-8.52a4.46,4.46,0,0,1,1.53-2.92"/><path id="_1009" data-name="1009" class="cls-7" d="M452.43,248.58V237.71"/><path id="_1010" data-name="1010" class="cls-7" d="M462.32,240.38l-5.43,9.33"/><path id="_1011" data-name="1011" class="cls-7" d="M463.78,253.69l5.44-9.33"/><path id="_1012" data-name="1012" class="cls-9" d="M475.06,252.39,467.11,257"/><path id="_1013" data-name="1013" class="cls-7" d="M483.09,268.37H472.22"/><path id="_1014" data-name="1014" class="cls-7" d="M472.22,276.24h10.87"/><path id="_1015" data-name="1015" class="cls-7" d="M480.41,286.14,471,280.7"/><path id="_1016" data-name="1016" class="cls-7" d="M467.11,287.6l9.33,5.43"/><path id="_1017" data-name="1017" class="cls-7" d="M469.22,300.25l-5.44-9.33"/><path id="_1018" data-name="1018" class="cls-7" d="M456.89,294.82l5.43,9.41"/><path id="_1019" data-name="1019" class="cls-7" d="M452.43,305.28V296"/><path id="_1020" data-name="1020" class="cls-7" d="M434.66,304.23l5.35-9.41"/><path id="_1021" data-name="1021" class="cls-7" d="M433.2,290.92l-5.43,9.33"/><path id="_1022" data-name="1022" class="cls-7" d="M420.55,293l9.32-5.43"/><path id="_1023" data-name="1023" class="cls-7" d="M425.9,280.7l-9.33,5.44"/><path id="_1024" data-name="1024" class="cls-7" d="M413.89,276.24h10.79"/><path id="_1025" data-name="1025" class="cls-7" d="M424.68,268.37H413.89"/><path id="_1026" data-name="1026" class="cls-9" d="M416.57,258.47l9.33,5.36"/><path id="_1027" data-name="1027" class="cls-7" d="M427.77,244.36l5.43,9.33"/><path id="_1028" data-name="1028" class="cls-7" d="M440,249.71l-5.35-9.33"/><path id="_1029" data-name="1029" class="cls-4" d="M453.89,226.27V215.72"/><path id="_1030" data-name="1030" class="cls-4" d="M443.1,226.27V215.72"/><path id="_1031" data-name="1031" class="cls-13" d="M448.45,223.43a5.25,5.25,0,0,1-4.38-3.24,11.81,11.81,0,0,1-.93-5.95,9.46,9.46,0,0,1,2.09-4.71A5.12,5.12,0,0,1,448.1,208a4.65,4.65,0,0,1,2.87.83,7.11,7.11,0,0,1,2.44,3.77,10.75,10.75,0,0,1,.21,5.43,7.59,7.59,0,0,1-1.63,3.53,4.73,4.73,0,0,1-3.54,1.87Z"/><path id="_1032" data-name="1032" class="cls-4" d="M402.21,270.48,24.92,224.24"/><path id="_1033" data-name="1033" class="cls-4" d="M416.73,238.6l-11.35-.89"/><path id="_1034" data-name="1034" class="cls-13" d="M354.11,251.09l42.34,4.38"/><path id="_1035" data-name="1035" class="cls-5" d="M24.92,224.24l1.38-14"/><path id="_1036" data-name="1036" class="cls-4" d="M24.92,224.24,2.37,217"/><path id="_1037" data-name="1037" class="cls-4" d="M26.3,210.21,2.86,212.48"/><path id="_1038" data-name="1038" class="cls-4" d="M2.86,212.48l-1.22.4-.73,1.06-.16,1.22.57,1.13,1.05.73"/><path id="_1039" data-name="1039" class="cls-13" d="M395.4,263.42l-42-6.57"/><path id="_1040" data-name="1040" class="cls-13" d="M395.4,263.42c2.85.51,5.61-2.71,4.33-5.42a4.1,4.1,0,0,0-3.28-2.53"/><path id="_1041" data-name="1041" class="cls-13" d="M354.11,251.09a3,3,0,0,0-2.84,4.38,3.11,3.11,0,0,0,2.11,1.38"/><path id="_1042" data-name="1042" class="cls-5" d="M400.35,267.56,25.09,222.21"/><path id="_1043" data-name="1043" class="cls-5" d="M26.14,212.4l349.38,27.09"/><path id="_1048" data-name="1048" class="cls-5" d="M343.48,260.66q1.18-11.72,2.35-23.44"/><path id="_1054" data-name="1054" class="cls-5" d="M400.1,270.24l1.79-17.2"/><path id="_1055" data-name="1055" class="cls-5" d="M401.89,270.48l1.7-16.71"/><path id="_1056" data-name="1056" class="cls-5" d="M409.51,240.79l.33-2.76"/><path id="_1057" data-name="1057" class="cls-5" d="M132.49,235.19,134,220.75"/><path id="_1058" data-name="1058" class="cls-5" d="M434.42,228.14V131.52"/><path id="_1059" data-name="1059" class="cls-5" d="M439.12,226.92v-95.4"/><path id="_1060" data-name="1060" class="cls-4" d="M434.74,128,433,153.1l-1,25.23-.08,25.23.81,25.22"/><path id="_1061" data-name="1061" class="cls-4" d="M441,226.59l.73-24.66-.16-24.66-1-24.66L438.8,128"/><path id="_1062" data-name="1062" class="cls-4" d="M438.8,128a2.36,2.36,0,0,0-.56-1.18,2.09,2.09,0,0,0-2.3-.43,1.87,1.87,0,0,0-1.07,1.15c-.05.15-.09.31-.13.46"/><path id="_1063" data-name="1063" class="cls-4" d="M560.72,232.6c-7.57-1.18-15.13-2.39-22.71-3.49l-.33-.08"/><path id="_1064" data-name="1064" class="cls-4" d="M563.15,220l-18-1.94"/><path id="_1065" data-name="1065" class="cls-4" d="M444.8,207.45a4.25,4.25,0,0,1-1.65-.81,4.54,4.54,0,0,1-1.35-2.29c-.06-.24-.11-.48-.16-.71"/><path id="_1066" data-name="1066" class="cls-4" d="M441.39,217l.08-.65.41-.48,1.22-.82"/><path id="_1067" data-name="1067" class="cls-12" d="M437.34,137.28l174.41-23.53"/><path id="_1068" data-name="1068" class="cls-4" d="M586.11,280.78c-8.94-.41-16.28,8.92-14,17.53,1.72,9.37,13.82,14.34,21.66,8.95,7.69-4.5,9-16.23,2.49-22.32a14,14,0,0,0-10.12-4.16Z"/><path id="_1069" data-name="1069" class="cls-4" d="M586.11,293.6a1.7,1.7,0,0,0-1.54,1.54,1.51,1.51,0,0,0,.49,1.06,1.61,1.61,0,0,0,1.05.4,1.38,1.38,0,0,0,1.46-1.46,1.61,1.61,0,0,0-.4-1.05A1.51,1.51,0,0,0,586.11,293.6Z"/><path id="_1070" data-name="1070" class="cls-4" d="M586.11,309.5v2.6"/><path id="_1071" data-name="1071" class="cls-4" d="M571.75,295.14h-2.67"/><path id="_1072" data-name="1072" class="cls-4" d="M586.11,280.78v-2.67"/><path id="_1073" data-name="1073" class="cls-4" d="M600.47,295.14h2.6"/><path id="_1074" data-name="1074" class="cls-4" d="M548.63,278.92c-7.32-.33-12.87,8.07-9.86,14.72,2.59,7.14,13.14,8.84,17.89,2.94,5-5.29,2.42-15-4.59-17.12A9.8,9.8,0,0,0,548.63,278.92Z"/><path id="_1075" data-name="1075" class="cls-4" d="M548.63,288.08a1.57,1.57,0,0,0-1,.41,1.53,1.53,0,0,0-.49,1.05,1.62,1.62,0,0,0,.49,1.06,1.38,1.38,0,0,0,2.11,0,1.62,1.62,0,0,0,.49-1.06,1.53,1.53,0,0,0-.49-1.05A1.6,1.6,0,0,0,548.63,288.08Z"/><path id="_1076" data-name="1076" class="cls-4" d="M548.63,300.17V302"/><path id="_1077" data-name="1077" class="cls-4" d="M538,289.54h-1.87"/><path id="_1078" data-name="1078" class="cls-4" d="M548.63,278.92v-1.87"/><path id="_1079" data-name="1079" class="cls-4" d="M559.26,289.54h1.87"/><path id="_1080" data-name="1080" class="cls-4" d="M576.46,284.51l-13.14-14.35"/><path id="_1081" data-name="1081" class="cls-4" d="M575.57,283.54l8.11-9.9"/><path id="_1082" data-name="1082" class="cls-4" d="M583.68,273.64l14,9.58"/><path id="_1083" data-name="1083" class="cls-4" d="M582.54,275l14.12,9.74"/><path id="_1084" data-name="1084" class="cls-4" d="M596.66,284.76l1.05-1.54"/><path id="_1085" data-name="1085" class="cls-4" d="M554.31,280.62,561,270.16"/><path id="_1086" data-name="1086" class="cls-4" d="M542.39,281l-7.87-10.79"/><path id="_1087" data-name="1087" class="cls-4" d="M547.82,275.27l3.25-5.11"/><path id="_1088" data-name="1088" class="cls-4" d="M547.82,275.27l-3.73-5.11"/><path id="_1089" data-name="1089" class="cls-4" d="M542.39,281l5.43-5.68"/><path id="_1090" data-name="1090" class="cls-4" d="M547.82,275.27l6.49,5.35"/><path id="_1092" data-name="1092" class="cls-7" d="M451.29,295.22c1.78,17.44,6,34.69,5.32,52.34-.35,11.79.26,24.63-6,35.11-7.18,2.44-8.28-10.83-10.4-15.76-3.09-15.38-1-31.23.69-46.67,1.23-8.47,2.73-16.9,3.55-25.42"/><path id="_1093" data-name="1093" class="cls-5" d="M440.26,355.66c-.53-18.92,1.23-38.2,7.79-56.06"/><path id="_1094" data-name="1094" class="cls-7" d="M444.48,295c.33-2,3-2.14,4.66-1.79.93.29,2.27.86,2.15,2"/><path id="_1095" data-name="1095" class="cls-7" d="M427.28,263.34c-12.88-6.16-26.8-9.92-39.36-16.81-10.82-6.13-22.16-11.88-31.13-20.67-2.24-2.56-8.31-8.26-2.74-10.4a55.39,55.39,0,0,1,18.7,3.06c11.35,4.23,21.28,11.37,31.17,18.21,8.91,6.08,16.79,13.48,25.57,19.73l1.52,1.12"/><path id="_1096" data-name="1096" class="cls-7" d="M430.85,257.42c1.51,1.52.31,4-1.06,5.19a2.3,2.3,0,0,1-2.51.73"/><path id="_1097" data-name="1097" class="cls-7" d="M466.87,258.39c14-9.81,26.32-21.93,41.5-30,10.4-5.76,21.11-12.54,33.29-13.2,8.66,1.85-2.38,11.53-5,14.91-11.14,11.2-26.19,17.15-40.28,23.7-8.76,3.74-17.78,6.84-26.46,10.78"/><path id="_1098" data-name="1098" class="cls-7" d="M470.19,264.48c-1.87.6-3.31-1.38-3.89-2.92a2.89,2.89,0,0,1,.57-3.17"/><path id="_1099" data-name="1099" class="cls-7" d="M467.76,257.83c-6.61-9-19.71-12.25-29.7-7.25a22.83,22.83,0,0,0-8,6.27"/><path id="_1100" data-name="1100" class="cls-5" d="M466.87,258.39a23.3,23.3,0,0,0-28.37-6.9,23.66,23.66,0,0,0-7.65,5.93"/><path id="_1101" data-name="1101" class="cls-7" d="M476.28,251.42c-8.65-12.11-25.56-17.08-39.45-11.91a35,35,0,0,0-15.39,10.85"/><path id="_1102" data-name="1102" class="cls-5" d="M478.87,249.31c-9.49-13-27.65-18.46-42.75-13.06a38.8,38.8,0,0,0-17.2,12"/><path id="_1103" data-name="1103" class="cls-4" d="M485.28,244.12c-9.28-12.08-24.65-19.23-39.89-18a46.23,46.23,0,0,0-32.87,17"/><path id="_1104" data-name="1104" class="cls-7" d="M368.47,235,26.3,210.21"/><path id="_1105" data-name="1105" class="cls-4" d="M532.57,216.7l-87.77-9.25"/><path id="_1106" data-name="1106" class="cls-4" d="M513.83,225.3,453.89,216"/><path id="_1107" data-name="1107" class="cls-4" d="M496.39,235.92h-19.3"/><path id="_1108" data-name="1108" class="cls-5" d="M488.69,241.44h-5.6"/><path id="_1109" data-name="1109" class="cls-4" d="M454.54,318.26a46.37,46.37,0,0,0,37.23-62.54"/><path id="_1110" data-name="1110" class="cls-5" d="M453.16,310.07c17.19-1.67,31.7-16.66,33.26-33.79a37.73,37.73,0,0,0-2.36-17.56"/><path id="_1111" data-name="1111" class="cls-7" d="M452.67,306.82c15.5-1.46,28.62-14.77,30.35-30.16a34,34,0,0,0-2-16.81"/><path id="_1112" data-name="1112" class="cls-7" d="M451.37,296.2a24,24,0,0,0,21.07-21.53,23.77,23.77,0,0,0-1.36-10.6"/><path id="_1113" data-name="1113" class="cls-5" d="M451.29,295.22c10.41-1.18,19.27-10.13,20.12-20.59a22.9,22.9,0,0,0-1.22-10.15"/><path id="_1446" data-name="1446" class="cls-12" d="M565.18,213.61,521.05,126"/><path id="_1447" data-name="1447" class="cls-12" d="M634.38,167.29l-9.9-52.16"/><path id="_1453" data-name="1453" class="cls-12" d="M770.42,385.27V344.55"/><path id="_1454" data-name="1454" class="cls-12" d="M770.42,385.27a11.34,11.34,0,0,0,22.3,2.92,19.18,19.18,0,0,0,.41-2.92"/><path id="_1455" data-name="1455" class="cls-12" d="M793.13,344.55a11.34,11.34,0,0,0-22.48-2.07c-.11.69-.18,1.37-.23,2.07"/><path id="_1456" data-name="1456" class="cls-12" d="M793.13,344.55v40.72"/><path id="_1457" data-name="1457" class="cls-12" d="M808.71,396.63H754.84"/><path id="_1460" data-name="1460" class="cls-12" d="M455.35,385.27V344.55"/><path id="_1461" data-name="1461" class="cls-12" d="M432.63,385.27a11.35,11.35,0,0,0,22.31,2.92,20.52,20.52,0,0,0,.41-2.92"/><path id="_1462" data-name="1462" class="cls-12" d="M455.35,344.55a11.35,11.35,0,0,0-22.49-2.07c-.1.69-.17,1.37-.23,2.07"/><path id="_1463" data-name="1463" class="cls-12" d="M432.63,344.55v40.72"/><path id="_1464" data-name="1464" class="cls-12" d="M417.06,396.63h53.86"/><path id="_1465" data-name="1465" class="cls-5" d="M524.79,237.71c-16.07,10-33.68,18-52.41,21.33"/><path id="_1466" data-name="1466" class="cls-5" d="M380.39,223.51c16.67,9,32.42,20.18,44.7,34.72"/></g></g></g></svg>