<svg xmlns="http://www.w3.org/2000/svg" viewBox="0 0 273.79 287.24"><defs><style>.cls-1,.cls-2,.cls-3,.cls-4{fill:none;}.cls-1,.cls-2,.cls-4{stroke:#7d7d7d;}.cls-1,.cls-3{stroke-linecap:round;}.cls-1,.cls-2,.cls-3{stroke-linejoin:round;stroke-width:0.5px;}.cls-3{stroke:#000;}.cls-4{stroke-width:2px;stroke-dasharray:5;}</style></defs><title>Asset 11101</title><g id="Layer_2" data-name="Layer 2"><g id="Layer_1-2" data-name="Layer 1"><path id="_4" data-name=" 4" class="cls-1" d="M210.72,191.78l11.63-14.39"/><path id="_63" data-name=" 63" class="cls-1" d="M169.4,228.9l2.31-2.51"/><path id="_64" data-name=" 64" class="cls-1" d="M169.31,228.87l2.37.52"/><path id="_65" data-name=" 65" class="cls-1" d="M171.68,229.39l1.94-2.13"/><path id="_67" data-name=" 67" class="cls-2" d="M171.68,229.39l3.29-1.47"/><path id="_68" data-name=" 68" class="cls-1" d="M171.79,226.2l1.91.88"/><path id="_69" data-name=" 69" class="cls-1" d="M171.8,226.42l1.91.88"/><path id="_75" data-name=" 75" class="cls-1" d="M172.4,225.48l1.5,1.36"/><path id="_76" data-name=" 76" class="cls-1" d="M172.57,225.33l2.81,2.65"/><path id="_77" data-name=" 77" class="cls-2" d="M175.24,227.81l5.7-6.11"/><path id="_78" data-name=" 78" class="cls-1" d="M173.17,230l2.71-1.38"/><path id="_79" data-name=" 79" class="cls-1" d="M175.88,228.61l5.63-6.46"/><path id="_80" data-name=" 80" class="cls-1" d="M172.37,229l1.86-1.94"/><path id="_81" data-name=" 81" class="cls-1" d="M174.2,227.17l1,1"/><path id="_82" data-name=" 82" class="cls-1" d="M173.7,227.08c.09,0,.18.07.22,0s.07-.18,0-.22"/><path id="_83" data-name=" 83" class="cls-1" d="M172.77,225.09l1.71,1.66"/><path id="_84" data-name=" 84" class="cls-1" d="M172.9,225l1.56,1.49"/><path id="_85" data-name=" 85" class="cls-1" d="M178.2,219.41l2.57,2.44"/><path id="_86" data-name=" 86" class="cls-1" d="M178.37,219.26l2.57,2.44"/><path id="_87" data-name=" 87" class="cls-1" d="M178.12,219.59l1.41,1.33"/><path id="_88" data-name=" 88" class="cls-1" d="M174.57,226.78l2.61-2.72"/><path id="_89" data-name=" 89" class="cls-1" d="M174.79,226.77l3.77-4"/><path id="_90" data-name=" 90" class="cls-1" d="M174.5,226.43l2.27-2.42"/><path id="_91" data-name=" 91" class="cls-1" d="M175.18,222.61l1.55,1.49"/><path id="_92" data-name=" 92" class="cls-1" d="M175.38,222.37l1.71,1.66"/><path id="_93" data-name=" 93" class="cls-1" d="M175.55,222.22l1.5,1.36"/><path id="_94" data-name=" 94" class="cls-1" d="M177.27,223.56l2.24-2.33"/><path id="_95" data-name=" 95" class="cls-1" d="M180.07,221.46l.63.57"/><path id="_96" data-name=" 96" class="cls-1" d="M176.66,224.82l.68.71"/><path id="_97" data-name=" 97" class="cls-1" d="M176.69,224.73l.69.71"/><path id="_98" data-name=" 98" class="cls-1" d="M178.78,222.77l.63.58"/><path id="_99" data-name=" 99" class="cls-1" d="M179,222.53l.63.58"/><path id="_100" data-name=" 100" class="cls-1" d="M179,222.21l.78-.87"/><path id="_101" data-name=" 101" class="cls-1" d="M178.78,222.77a.33.33,0,0,0-.31,0"/><path id="_102" data-name=" 102" class="cls-1" d="M179,222.21a.36.36,0,0,0,0,.32"/><path id="_103" data-name=" 103" class="cls-1" d="M180.07,221.46a.36.36,0,0,0-.32,0"/><path id="_104" data-name=" 104" class="cls-1" d="M177.05,223.58a.35.35,0,0,0,.32,0"/><path id="_105" data-name=" 105" class="cls-1" d="M179.51,221.23l0-.09a.1.1,0,0,0-.06-.13l-.09,0"/><path id="_106" data-name=" 106" class="cls-1" d="M174.81,227l.63.58"/><path id="_107" data-name=" 107" class="cls-1" d="M174.79,226.77a.4.4,0,0,0,0,.31"/><path id="_108" data-name=" 108" class="cls-1" d="M180.51,220.88a3.1,3.1,0,0,0,2.22-2,3.2,3.2,0,0,0,0-2.16,2.89,2.89,0,0,0-.72-1.15"/><path id="_109" data-name=" 109" class="cls-1" d="M181,221.61l-1.11-2.07"/><path id="_110" data-name=" 110" class="cls-1" d="M180.15,217.5a1.79,1.79,0,0,0-.35.61,2.12,2.12,0,0,0,0,1.17l.11.26"/><path id="_111" data-name=" 111" class="cls-1" d="M180.15,217.5l.21-.24"/><path id="_112" data-name=" 112" class="cls-1" d="M180.36,217.26l0-.09-.06-.13"/><path id="_113" data-name=" 113" class="cls-1" d="M182,219.77l-2.09-2"/><path id="_114" data-name=" 114" class="cls-1" d="M180.46,220.75a2.82,2.82,0,0,0,1.86-1.4,3,3,0,0,0,.18-2.84,2.11,2.11,0,0,0-.7-.93"/><path id="_115" data-name=" 115" class="cls-1" d="M182.79,217.92l-2.62-.2"/><path id="_116" data-name=" 116" class="cls-1" d="M179.87,219.54l-.07-1.43"/><path id="_117" data-name=" 117" class="cls-1" d="M180,218l.12,2.1"/><path id="_118" data-name=" 118" class="cls-1" d="M180,217.65l2.13,1.94"/><path id="_119" data-name=" 119" class="cls-1" d="M180.15,217.5l2.62.2"/><path id="_120" data-name=" 120" class="cls-1" d="M177.45,220.18h0"/><path id="_121" data-name=" 121" class="cls-1" d="M179,218.54h0"/><path id="_122" data-name=" 122" class="cls-1" d="M177.55,220.22l1.49-1.55"/><path id="_123" data-name=" 123" class="cls-1" d="M180.15,217.5l-1.49,1.56-.09,0"/><path id="_151" data-name=" 151" class="cls-1" d="M184.11,213.06l0,.13.24-.34-.05-.13"/><path id="_152" data-name=" 152" class="cls-1" d="M182.82,214.37l.06.13.33-.29-.09,0"/><path id="_153" data-name=" 153" class="cls-1" d="M182.91,214.41l-1.11,1.17"/><path id="_154" data-name=" 154" class="cls-1" d="M185.64,211.41h0l-1.2,1.35"/><path id="_155" data-name=" 155" class="cls-1" d="M184.2,213.1l-.95,1"/><path id="_156" data-name=" 156" class="cls-1" d="M182.18,216l-1.49,1.55"/><path id="_157" data-name=" 157" class="cls-1" d="M180.38,217.48l1.66-1.7"/><path id="_158" data-name=" 158" class="cls-1" d="M180.15,217.5l1.7-1.79-.09,0"/><path id="_161" data-name=" 161" class="cls-2" d="M175.16,228l-.07.19-.08.18a.11.11,0,0,0,.06.14l.09,0,.18.08a.1.1,0,0,0,.13-.06c0-.09.13-.05.17-.15s.13-.05.17-.14.13-.06.17-.15,0-.09.16-.15,0-.09.17-.15l.08-.18c0-.1,0-.1,0-.23s-.06-.13-.06-.13l-.09,0-.09,0c-.09,0-.13.05-.22,0l-.26.11c-.13,0-.13,0-.17.15l-.13.05a.11.11,0,0,1-.13.06"/><path id="_162" data-name=" 162" class="cls-1" d="M175.22,228.12h.22l0-.1-.06-.13"/><path id="_166" data-name=" 166" class="cls-1" d="M174.29,228.29l.77.74"/><path id="_167" data-name=" 167" class="cls-1" d="M176,226.94l.68.71"/><path id="_170" data-name=" 170" class="cls-1" d="M162.49,236.14l1.25,1.15"/><path id="_171" data-name=" 171" class="cls-1" d="M166.21,232.25l2.58,2.44"/><path id="_172" data-name=" 172" class="cls-1" d="M180.45,245.34l0-.09,0-.1-.05-.13.07-.18,0-.1-.06-.13,0-.09,0-.09,0-.09,0-.1,0-.09,0-.09,0-.1,0-.09,0-.09,0-.09.22-.56,0-.09.56-1.39"/><path id="_173" data-name=" 173" class="cls-1" d="M181.23,238.86c-.15-.17,0-.54,0-.76a9.5,9.5,0,0,1,2.09-3.58c1.19-1.35,2.35-2.61,3.63-3.92"/><path id="_174" data-name=" 174" class="cls-1" d="M186.94,230.6l1.7-1.8"/><path id="_175" data-name=" 175" class="cls-1" d="M188.88,229l1.19-1.35"/><path id="_176" data-name=" 176" class="cls-1" d="M180.69,245.54l-.15-.16-.37.38.15.17"/><path id="_177" data-name=" 177" class="cls-1" d="M180.84,245.71l.13-.05.13-.06.13-.06.13,0,.13-.06.13-.05.13-.06.13,0,.13-.06.13-.05.13-.06.13,0,.13-.06.13-.05.13-.06.13,0h0l.09,0,.1,0h0l.09,0,0-.09.09,0,.09,0,.13,0,.13-.06.13-.05.13-.06.13-.06.13,0,.13-.06.13-.05.13-.06.13,0,.13-.06.13-.05"/><path id="_178" data-name=" 178" class="cls-1" d="M180.69,245.54l.15.17-.38.39-.14-.17"/><path id="_179" data-name=" 179" class="cls-1" d="M182,239.83l4.22,4"/><path id="_180" data-name=" 180" class="cls-1" d="M181.11,241.83l3.2,3"/><path id="_181" data-name=" 181" class="cls-1" d="M181.84,240.29l4,3.77"/><path id="_182" data-name=" 182" class="cls-1" d="M181.23,238.86l3.06,2.85"/><path id="_183" data-name=" 183" class="cls-1" d="M181.27,238.23l3.3,3.06"/><path id="_184" data-name=" 184" class="cls-1" d="M182.86,235.1l4.07,3.8"/><path id="_185" data-name=" 185" class="cls-1" d="M186.94,230.6l4.07,3.8"/><path id="_186" data-name=" 186" class="cls-1" d="M186.51,238.62l4.17-4.46"/><path id="_187" data-name=" 187" class="cls-1" d="M188.73,228.84l3.35,3.19"/><path id="_188" data-name=" 188" class="cls-1" d="M190.53,234l2.11-2.28"/><path id="_189" data-name=" 189" class="cls-1" d="M187.11,230.45l3.59,3.39"/><path id="_190" data-name=" 190" class="cls-1" d="M192.64,231.71l1-.89a9,9,0,0,0,.93-.7l.76-.55c.13-.06.17-.15.26-.11h0"/><path id="_191" data-name=" 191" class="cls-1" d="M191.41,233.16l0-.32"/><path id="_192" data-name=" 192" class="cls-1" d="M191.37,232.71a13.43,13.43,0,0,1,1.33-1.41c.29-.2.54-.53.84-.74l.89-.61a3.15,3.15,0,0,1,1.25-.68c.09,0,.22,0,.31,0h0"/><path id="_193" data-name=" 193" class="cls-1" d="M181.59,238.25l1.55,1.49"/><path id="_194" data-name=" 194" class="cls-1" d="M183,235.8l1.64,1.53"/><path id="_195" data-name=" 195" class="cls-1" d="M181.62,238.16a7.76,7.76,0,0,1,1.16-2.34"/><path id="_196" data-name=" 196" class="cls-1" d="M183.4,239.63l1.22-2.21"/><path id="_197" data-name=" 197" class="cls-1" d="M181.62,238.16l.06.13"/><path id="_198" data-name=" 198" class="cls-1" d="M183,235.8c-.1,0-.19-.07-.23,0h0"/><path id="_199" data-name=" 199" class="cls-1" d="M183.14,239.74c.09,0,.19.07.22,0"/><path id="_200" data-name=" 200" class="cls-1" d="M184.58,237.52c0-.1,0-.1,0-.23"/><path id="_201" data-name=" 201" class="cls-1" d="M182,239.83l.16-.15"/><path id="_202" data-name=" 202" class="cls-1" d="M189.29,228.53l3,3.26"/><path id="_203" data-name=" 203" class="cls-1" d="M190.51,229.77l4.68-4.36"/><path id="_204" data-name=" 204" class="cls-1" d="M190.79,228.27a45.3,45.3,0,0,1,4.83-4.2,7.66,7.66,0,0,1,4-1.3,2.4,2.4,0,0,1,2,1,3.21,3.21,0,0,1,.49,2.78,10.65,10.65,0,0,1-2.65,5c-.69.91-1.47,1.78-2.16,2.69"/><path id="_205" data-name=" 205" class="cls-1" d="M194.56,224.83l2.9,2.68"/><path id="_206" data-name=" 206" class="cls-1" d="M190.68,229.63l.54.54.16-.15-.53-.54"/><path id="_207" data-name=" 207" class="cls-1" d="M192.77,227.67l.53.54.17-.15-.54-.54"/><path id="_208" data-name=" 208" class="cls-1" d="M194.72,225.76l.54.54.17-.15-.54-.54"/><path id="_209" data-name=" 209" class="cls-1" d="M197.92,224.79l.61-.73.93.92-.62.72Z"/><path id="_210" data-name=" 210" class="cls-1" d="M187.34,244.56c.19.08.45,0,.67-.05a7.43,7.43,0,0,0,3.2-2,47.54,47.54,0,0,0,3.84-4.17"/><path id="_211" data-name=" 211" class="cls-1" d="M195.05,238.29l1.73-1.88"/><path id="_212" data-name=" 212" class="cls-1" d="M196.64,236.24l1.69-1.8"/><path id="_213" data-name=" 213" class="cls-1" d="M187.34,244.56l-3.05-2.85"/><path id="_214" data-name=" 214" class="cls-1" d="M187.92,244.47l-3.39-3.09"/><path id="_215" data-name=" 215" class="cls-1" d="M190.91,242.66l-4.07-3.8"/><path id="_216" data-name=" 216" class="cls-1" d="M195.05,238.29l-4.07-3.8"/><path id="_217" data-name=" 217" class="cls-1" d="M187.14,239.2l4.17-4.46"/><path id="_218" data-name=" 218" class="cls-1" d="M196.78,236.41l-3.38-3.1"/><path id="_219" data-name=" 219" class="cls-1" d="M191.46,234.9l2.11-2.27"/><path id="_220" data-name=" 220" class="cls-1" d="M195.25,238.05l-3.59-3.39"/><path id="_221" data-name=" 221" class="cls-1" d="M193.66,232.66c.17-.14.24-.33.41-.48a3.57,3.57,0,0,0,.56-.85c.2-.24.28-.43.48-.67s.32-.52.53-.76c0-.09.2-.24.11-.27"/><path id="_222" data-name=" 222" class="cls-1" d="M192.37,234l.32,0"/><path id="_223" data-name=" 223" class="cls-1" d="M192.69,234c.41-.48.87-.84,1.25-1.22a8.44,8.44,0,0,0,.93-1.25,5.61,5.61,0,0,0,.67-1.13,2,2,0,0,0,.41-1,.1.1,0,0,0,0-.13"/><path id="_224" data-name=" 224" class="cls-1" d="M187.84,244.12l-1.55-1.49"/><path id="_225" data-name=" 225" class="cls-1" d="M190.19,242.59l-1.56-1.49"/><path id="_226" data-name=" 226" class="cls-1" d="M188,244.06a10.16,10.16,0,0,0,2.24-1.25"/><path id="_227" data-name=" 227" class="cls-1" d="M186.27,242.41l2-1.33"/><path id="_228" data-name=" 228" class="cls-1" d="M187.84,244.12l.19.07"/><path id="_229" data-name=" 229" class="cls-1" d="M190.21,242.81c0-.09.07-.19,0-.22h0"/><path id="_230" data-name=" 230" class="cls-1" d="M186.27,242.41c0,.09-.07.18,0,.22h0"/><path id="_231" data-name=" 231" class="cls-1" d="M188.54,241.06c-.09,0-.09,0-.22,0"/><path id="_232" data-name=" 232" class="cls-1" d="M186.25,243.8l.16-.15"/><path id="_233" data-name=" 233" class="cls-1" d="M197.14,235.8,193.73,233"/><path id="_234" data-name=" 234" class="cls-1" d="M195.75,234.69l4.05-4.94"/><path id="_235" data-name=" 235" class="cls-1" d="M200.43,230.33l-2.91-2.69"/><path id="_236" data-name=" 236" class="cls-1" d="M195.86,234.42l-.54-.54.17-.15.54.54"/><path id="_237" data-name=" 237" class="cls-1" d="M197.71,232.25l-.54-.54.17-.15.54.54"/><path id="_238" data-name=" 238" class="cls-1" d="M199.42,230.14l-.53-.54.16-.15.54.54"/><path id="_239" data-name=" 239" class="cls-1" d="M200.16,227l.71-.69-.93-.91-.71.68Z"/><path id="_240" data-name=" 240" class="cls-1" d="M197.93,225.55l-.27-.11c-.1,0-.19-.08-.23,0a.4.4,0,0,0-.22,0c-.13.06-.13.06-.17.15s-.16.15-.16.15a.33.33,0,0,0,0,.31.38.38,0,0,0,0,.23c.06.13.06.13.15.16s.19.08.15.17a.35.35,0,0,0,.32,0,.32.32,0,0,0,.22,0c.13,0,.13,0,.17-.15l.11-.27c0-.1.07-.19,0-.23a.22.22,0,0,0-.11-.26C198,225.77,198,225.68,197.93,225.55Z"/><path id="_241" data-name=" 241" class="cls-1" d="M197.19,226.32h0c-.09,0-.09,0-.13.06l0,.09.06.13.09,0,.13,0-.11-.27C197.24,226.45,197.28,226.36,197.19,226.32Z"/><path id="_242" data-name=" 242" class="cls-1" d="M198,226.12h0c-.1,0-.1,0-.13.06l0,.09,0,.13.1,0,.13-.06-.11-.26Z"/><path id="_243" data-name=" 243" class="cls-1" d="M197.4,225.55h0l-.13,0,0,.13.09,0,.13-.06,0-.09Z"/><path id="_244" data-name=" 244" class="cls-1" d="M210.93,210.74l5.16-3.42"/><path id="_245" data-name=" 245" class="cls-1" d="M213.2,213.38l3.31-5.78"/><path id="_246" data-name=" 246" class="cls-1" d="M216.38,207.65l0-.09-.06-.13-.09,0-.09,0-.13,0"/><path id="_247" data-name=" 247" class="cls-1" d="M211.28,211.2l2,1.9"/><path id="_248" data-name=" 248" class="cls-1" d="M196.58,236.65l.52-.22c.13-.06.3-.21.43-.26s.29-.21.37-.39"/><path id="_249" data-name=" 249" class="cls-1" d="M196.77,236.18c.13-.05.29-.2.42-.25a.85.85,0,0,0,.38-.39"/><path id="_250" data-name=" 250" class="cls-1" d="M197.81,235.74l0-.09-.05-.13-.09,0-.13.06"/><path id="_298" data-name=" 298" class="cls-1" d="M183.91,221.82l6.88,6.45"/><path id="_299" data-name=" 299" class="cls-1" d="M190.79,228.27h0c.1,0,.1,0,.15.17l.06.13.05.13.06.13,0,.09,0,.09,0,.1h0"/><path id="_300" data-name=" 300" class="cls-1" d="M215,215.62l-9.93-12"/><path id="_301" data-name=" 301" class="cls-1" d="M197.25,209.09,210,221"/><path id="_302" data-name=" 302" class="cls-1" d="M215,215.62l-16,17.06"/><path id="_303" data-name=" 303" class="cls-1" d="M199,232.68l.39.37"/><path id="_304" data-name=" 304" class="cls-1" d="M199.43,233.05l-1.19,1.36"/><path id="_305" data-name=" 305" class="cls-1" d="M188.36,218.55l6.5,6.08"/><path id="_306" data-name=" 306" class="cls-1" d="M215,215.62l10.77,15.24"/><path id="_307" data-name=" 307" class="cls-1" d="M197.91,234.16l.75.53"/><path id="_308" data-name=" 308" class="cls-1" d="M197.91,234.16a.83.83,0,0,0-.54,0"/><path id="_309" data-name=" 309" class="cls-1" d="M215.46,216.34l-17.17,18.2"/><path id="_310" data-name=" 310" class="cls-1" d="M235.75,260.35a3.86,3.86,0,0,0,4.35-.08,3.17,3.17,0,0,0,1.25-1.76"/><path id="_311" data-name=" 311" class="cls-1" d="M241.48,258.46a7.85,7.85,0,0,0,.25-4.11"/><path id="_312" data-name=" 312" class="cls-1" d="M236,260.46l5.7-6.11"/><path id="_313" data-name=" 313" class="cls-1" d="M212.27,219.69l21.86,27.6"/><path id="_314" data-name=" 314" class="cls-1" d="M240.43,255.44l1.16-1.26"/><path id="_315" data-name=" 315" class="cls-1" d="M241.59,254.18a6.32,6.32,0,0,0-1.13-2.28"/><path id="_316" data-name=" 316" class="cls-1" d="M220.65,236.34l5.08-5.39"/><path id="_317" data-name=" 317" class="cls-1" d="M223.4,233.79l2.48-2.67"/><path id="_318" data-name=" 318" class="cls-1" d="M225.88,231.12l14.58,20.78"/><path id="_319" data-name=" 319" class="cls-1" d="M201.35,231.24l25.3,20.14"/><path id="_320" data-name=" 320" class="cls-1" d="M225.21,253.07l1.7-1.8"/><path id="_321" data-name=" 321" class="cls-1" d="M226.94,251.18l10.25,8"/><path id="_322" data-name=" 322" class="cls-1" d="M230.24,242.48l2.11-2.27"/><path id="_323" data-name=" 323" class="cls-1" d="M240,256.15l-16.36-17.72"/><path id="_324" data-name=" 324" class="cls-1" d="M223.68,238.43l-2.85,3.06"/><path id="_325" data-name=" 325" class="cls-1" d="M221.15,247.11l2.64-2.81"/><path id="_326" data-name=" 326" class="cls-1" d="M223.79,244.3l-18.38-17.24"/><path id="_327" data-name=" 327" class="cls-1" d="M195.35,211.13l12.75,12"/><path id="_328" data-name=" 328" class="cls-1" d="M197.25,209.09l-12.53,13.38"/><path id="_329" data-name=" 329" class="cls-1" d="M197.25,209.09A25,25,0,0,1,202,205.3c1-.57,2.06-1.1,3.14-1.64"/><path id="_330" data-name=" 330" class="cls-1" d="M205.07,203.62a4.59,4.59,0,0,1-.57-1"/><path id="_331" data-name=" 331" class="cls-1" d="M182.81,218.14l3.11,3"/><path id="_332" data-name=" 332" class="cls-1" d="M191.21,215.5l-.72-.62"/><path id="_333" data-name=" 333" class="cls-1" d="M196.54,209.78l-5-4.72"/><path id="_334" data-name=" 334" class="cls-1" d="M196.06,208.83l-4.31-4"/><path id="_335" data-name=" 335" class="cls-1" d="M201.46,205.62l-1.32-1.29"/><path id="_336" data-name=" 336" class="cls-1" d="M201.89,205.36,214,216.73"/><path id="_337" data-name=" 337" class="cls-1" d="M204.75,226.57,192,214.63"/><path id="_339" data-name=" 339" class="cls-1" d="M208.64,223.62,210,225"/><path id="_340" data-name=" 340" class="cls-1" d="M207.23,227.36a1.05,1.05,0,0,0,1.43,1.55l.13-.06"/><path id="_341" data-name=" 341" class="cls-1" d="M211.06,225.35a.46.46,0,0,0-.27-.65c-.09,0-.22,0-.32,0"/><path id="_342" data-name=" 342" class="cls-1" d="M210.44,224.77a7.21,7.21,0,0,0-3.21,2.59"/><path id="_343" data-name=" 343" class="cls-1" d="M208.73,228.72a6.9,6.9,0,0,0,2.33-3.37"/><path id="_344" data-name=" 344" class="cls-1" d="M210.93,226l12.34,13"/><path id="_345" data-name=" 345" class="cls-1" d="M207.45,240.71a1.48,1.48,0,0,0-.22-1.05,2.35,2.35,0,0,0-3.06-1.24l-.13.05"/><path id="_346" data-name=" 346" class="cls-1" d="M207.11,240.47a1.75,1.75,0,0,0-.4-1.13,2.05,2.05,0,0,0-.91-.69,2.77,2.77,0,0,0-1.26-.08h0"/><path id="_347" data-name=" 347" class="cls-1" d="M204.39,238.4l2.48-2.66"/><path id="_348" data-name=" 348" class="cls-1" d="M208.23,234.24l.37-.39.72.61-.37.39Z"/><path id="_349" data-name=" 349" class="cls-1" d="M211.9,237.44l.37-.39.72.62-.37.39Z"/><path id="_350" data-name=" 350" class="cls-1" d="M214.64,238.66l-.28-.11-.28-.11a.34.34,0,0,0-.22,0c-.09,0-.13.06-.26.11s-.13.06-.17.15-.07.19-.17.15l-.11.28a.32.32,0,0,0,0,.22c0,.09.06.13.11.26s.06.13.15.17a.39.39,0,0,1,.15.17l.27.11a.34.34,0,0,0,.23,0c.09,0,.13-.05.26-.11s.13-.06.17-.15a.35.35,0,0,1,.2-.24l.11-.28a.34.34,0,0,0,0-.22l-.12-.26C214.75,238.92,214.69,238.79,214.64,238.66Z"/><path id="_351" data-name=" 351" class="cls-1" d="M214.23,239.14l-.09,0a.1.1,0,0,0-.13.06l-.13.05,0,.1a.1.1,0,0,0,0,.13l.06.13.09,0a.1.1,0,0,0,.13,0l.13-.06,0-.09,0-.09C214.32,239.18,214.32,239.18,214.23,239.14Z"/><path id="_352" data-name=" 352" class="cls-1" d="M224.15,236.46l.08-.18a.22.22,0,0,0-.11-.26c0-.09-.06-.13-.06-.13a.34.34,0,0,0-.14-.17l-.15-.17c-.09,0-.06-.13-.15-.16s-.09,0-.15-.17-.09,0-.15-.17l-.18-.07-.28-.12c-.09,0-.09,0-.13.06l0,.09a.4.4,0,0,0,0,.22c0,.1.06.13.11.26s.06.13.15.17l.2.3.15.17.24.2.19.08.18.07c.09,0,.19.08.22,0Z"/><path id="_353" data-name=" 353" class="cls-1" d="M236.48,259.89a3.32,3.32,0,0,0,3.45,0,3.16,3.16,0,0,0,1.24-3.6,2.75,2.75,0,0,0-.48-.95"/><path id="_354" data-name=" 354" class="cls-1" d="M234,255l.78-.87.63.58-.79.87Z"/><path id="_355" data-name=" 355" class="cls-1" d="M233.79,247.05c-.24.33-.52.75-.35,1.15s.85,0,1.06-.22"/><path id="_356" data-name=" 356" class="cls-1" d="M233.59,247.82l.7-.68.15.17-.71.68Z"/><path id="_357" data-name=" 357" class="cls-1" d="M234.24,247.55l6.34,8.06"/><path id="_358" data-name=" 358" class="cls-1" d="M219,232.44l-.1,0a.1.1,0,0,0-.13,0l0,.1a.1.1,0,0,0,.05.13l.1,0,.13-.05c0-.09,0-.09,0-.22Z"/><path id="_359" data-name=" 359" class="cls-1" d="M223.84,235.91h0c-.09,0-.09,0-.13.05l0,.09.06.13.09,0,0-.09c-.06-.13-.06-.13,0-.22Z"/><path id="_360" data-name=" 360" class="cls-1" d="M205.15,218.65a.86.86,0,0,0-.1-.58,1.88,1.88,0,0,0-1-.82c-.09,0-.37-.15-.44,0s.12.48.27.65a1.78,1.78,0,0,0,.82.65A.62.62,0,0,0,205.15,218.65Z"/><path id="_361" data-name=" 361" class="cls-1" d="M204.74,218.05h0c-.09,0-.09,0-.13.06l0,.09.06.13.09,0,0-.1a.35.35,0,0,0,0-.22Z"/><path id="_362" data-name=" 362" class="cls-1" d="M202.33,216a.8.8,0,0,0-.09-.58,2.85,2.85,0,0,0-1-.82c-.19-.07-.37-.15-.45,0s.13.48.33.78a2.05,2.05,0,0,0,.91.69C202,216,202.2,216.05,202.33,216Z"/><path id="_363" data-name=" 363" class="cls-1" d="M201.89,215.5h0c-.09,0-.09,0-.13.05l0,.09.06.13.09,0,.13-.05c-.06-.13,0-.23-.11-.26Z"/><path id="_364" data-name=" 364" class="cls-1" d="M192.84,216.8a.86.86,0,1,0,0,1.21.58.58,0,0,0,.24-.33A1.07,1.07,0,0,0,192.84,216.8Z"/><path id="_365" data-name=" 365" class="cls-1" d="M192.47,217.19c-.06-.13-.28-.11-.36.07l0,.1c0,.09.11.26.2.29a.1.1,0,0,0,.13-.05.3.3,0,0,0,.15-.37C192.43,217.28,192.47,217.19,192.47,217.19Z"/><path id="_366" data-name=" 366" class="cls-1" d="M199.62,212.31a.82.82,0,0,0-1.21.05.79.79,0,0,0,.05,1.21.81.81,0,0,0,1.21,0,.76.76,0,0,0,.2-.78A1.42,1.42,0,0,0,199.62,212.31Z"/><path id="_454" data-name=" 454" class="cls-1" d="M182.47,215l2.66,2.48"/><path id="_455" data-name=" 455" class="cls-1" d="M207.13,188.38l3.49,3.36"/><path id="_458" data-name=" 458" class="cls-1" d="M181.51,222.15l2.8-2.65"/><path id="_459" data-name=" 459" class="cls-1" d="M184.21,219.46l.83-2"/><path id="_460" data-name=" 460" class="cls-1" d="M185.13,217.46l8.89-10"/><path id="_461" data-name=" 461" class="cls-1" d="M181.1,222.63l-.53-.54"/><path id="_467" data-name=" 467" class="cls-1" d="M193.08,206.87l-.7-.93-.84-.88"/><path id="_468" data-name=" 468" class="cls-1" d="M193,208.67c0-.09.17-.15.24-.33l.15-.38c0-.09,0-.22.06-.4a.51.51,0,0,0-.08-.36l-.16-.39"/><path id="_475" data-name=" 475" class="cls-1" d="M209.65,193.07c-.18-.07-.26.11-.39.17a7.82,7.82,0,0,0-1.94,2.13,4.33,4.33,0,0,0-.5,1l0,.09"/><path id="_476" data-name=" 476" class="cls-1" d="M197.2,201.2l.72.62,3-3.21-1.79-1.69"/><path id="_477" data-name=" 477" class="cls-1" d="M195.68,200.69l1.11,1,.41-.48"/><path id="_478" data-name=" 478" class="cls-1" d="M197.2,201.2l.64-1.58-.72-.61"/><path id="_479" data-name=" 479" class="cls-1" d="M199.11,197l-1.9,2"/><path id="_480" data-name=" 480" class="cls-1" d="M197.65,201.16l.33.25,2.65-2.82-1.41-1.32"/><path id="_481" data-name=" 481" class="cls-1" d="M197.65,201.16l.63-1.57-.72-.62"/><path id="_482" data-name=" 482" class="cls-1" d="M197.05,201l.53-1.3-.54-.54"/><path id="_483" data-name=" 483" class="cls-1" d="M195.89,200.45l1,.82.24-.33"/><path id="_484" data-name=" 484" class="cls-1" d="M199.09,197.33,197.56,199"/><path id="_485" data-name=" 485" class="cls-1" d="M224,173.94l1.26.62"/><path id="_486" data-name=" 486" class="cls-1" d="M225.22,174.56l-1.9,2.57"/><path id="_487" data-name=" 487" class="cls-1" d="M223.32,177.13l14.83,7.61"/><path id="_488" data-name=" 488" class="cls-1" d="M238.15,184.74l3.26-3.53"/><path id="_489" data-name=" 489" class="cls-1" d="M241.41,181.21l.34.24"/><path id="_490" data-name=" 490" class="cls-1" d="M238.15,184.74l.39.37"/><path id="_491" data-name=" 491" class="cls-3" d="M233.26,160.55l.14.16"/><path id="_492" data-name=" 492" class="cls-3" d="M233.5,160.21l.05.13"/><path id="_493" data-name=" 493" class="cls-1" d="M222.19,177.54a1.76,1.76,0,0,1-.06-.67,4.43,4.43,0,0,1,.51-1"/><path id="_494" data-name=" 494" class="cls-1" d="M222.68,175.79l1.32-1.94"/><path id="_495" data-name=" 495" class="cls-1" d="M222.19,177.54l0-.1h0l.28.12"/><path id="_496" data-name=" 496" class="cls-1" d="M224.76,174.37l4.29-5.28"/><path id="_497" data-name=" 497" class="cls-1" d="M224.15,174l4.46-5.42"/><path id="_498" data-name=" 498" class="cls-1" d="M228.61,168.59,241,180.39"/><path id="_499" data-name=" 499" class="cls-1" d="M241,180.48l1.16-1.26"/><path id="_500" data-name=" 500" class="cls-1" d="M242.14,179.13l2.09-2.5"/><path id="_501" data-name=" 501" class="cls-1" d="M228.75,168.76a21.25,21.25,0,0,0,2.62-3.8c.78-1.41,1.38-2.89,2.07-4.34"/><path id="_502" data-name=" 502" class="cls-3" d="M233.35,160.58l.33-.29"/><path id="_503" data-name=" 503" class="cls-1" d="M233.31,160.68l.92,2.52"/><path id="_504" data-name=" 504" class="cls-1" d="M234.32,163.24,229,169"/><path id="_505" data-name=" 505" class="cls-1" d="M229.05,169.09l5.33-5.72"/><path id="_506" data-name=" 506" class="cls-1" d="M234.38,163.37c4.07,3.8,7,8.55,9.72,13.31"/><path id="_507" data-name=" 507" class="cls-1" d="M241,180.48l.15.17"/><path id="_508" data-name=" 508" class="cls-1" d="M241.1,180.65l1.28-1.32"/><path id="_509" data-name=" 509" class="cls-1" d="M242.33,179.2l1.75-2.2"/><path id="_510" data-name=" 510" class="cls-1" d="M242.7,180.43l1.34-3.34"/><path id="_511" data-name=" 511" class="cls-1" d="M243.46,180.41l3.09-3.38"/><path id="_512" data-name=" 512" class="cls-1" d="M237.75,186.52c.1,0,.23,0,.36-.07a13.15,13.15,0,0,0,2.81-2.42,49.32,49.32,0,0,0,4.47-5.21,14.08,14.08,0,0,0,1.25-1.76"/><path id="_513" data-name=" 513" class="cls-1" d="M237.75,186.52c-.05-.13.12-.28.06-.41a15.4,15.4,0,0,1,2.31-3.05,63,63,0,0,1,5.5-5.33,8.37,8.37,0,0,0,.93-.7"/><path id="_514" data-name=" 514" class="cls-1" d="M242.33,179.2l.63.58"/><path id="_515" data-name=" 515" class="cls-1" d="M238.37,186.34l5.25-5.54"/><path id="_516" data-name=" 516" class="cls-1" d="M243.38,180.6l.24.2"/><path id="_517" data-name=" 517" class="cls-1" d="M242.62,182.23l.91-1.46"/><path id="_518" data-name=" 518" class="cls-1" d="M243.53,180.77h0l0-.1,0-.09-.06-.13-.09,0h0"/><path id="_519" data-name=" 519" class="cls-1" d="M238,186l5.25-5.54"/><path id="_520" data-name=" 520" class="cls-1" d="M243.38,180.6l-.15-.17"/><path id="_521" data-name=" 521" class="cls-1" d="M241.75,181.45l1.39-1.06"/><path id="_522" data-name=" 522" class="cls-1" d="M243.14,180.39h0l.19.08.09,0h0"/><path id="_523" data-name=" 523" class="cls-1" d="M225.66,173.22l14.22,9.63"/><path id="_524" data-name=" 524" class="cls-1" d="M233.39,164.48l2.82,2.65.91-.93"/><path id="_525" data-name=" 525" class="cls-1" d="M234.66,173.09l0-.13.41-.49.29.34-.41.48-.09,0"/><path id="_526" data-name=" 526" class="cls-1" d="M234,173.77l.71-.68"/><path id="_527" data-name=" 527" class="cls-1" d="M234.1,173.94l.65-.82"/><path id="_528" data-name=" 528" class="cls-1" d="M235.57,173.24l-.09,0-.19-.08-.13.06,0,.09.05.13.06.13.09,0,.13,0,.13-.06,0-.09,0-.1Z"/><path id="_529" data-name=" 529" class="cls-1" d="M232.5,170.16l-.09,0-.13.05-.13.06,0,.09,0,.13.06.13.09,0,.13-.06.13,0,0-.1-.06-.13Z"/><path id="_573" data-name=" 573" class="cls-1" d="M191.25,242.37l-.15-.17.2-.24.15.17"/><path id="_574" data-name=" 574" class="cls-1" d="M194.64,238.78l-.15-.17.17-.15.15.17"/><path id="_575" data-name=" 575" class="cls-1" d="M192.06,232.34l.93.92"/><path id="_576" data-name=" 576" class="cls-1" d="M189.27,227.76a3.25,3.25,0,0,1-.37.39c-.07.19-.2.24-.28.43l-.19.46"/><path id="_577" data-name=" 577" class="cls-1" d="M189.48,228.06a1.8,1.8,0,0,0-.28.43,2.35,2.35,0,0,1-.28.42"/><path id="_578" data-name=" 578" class="cls-1" d="M189.48,228.06l0-.09,0-.13-.09,0-.13.06"/><path id="_579" data-name=" 579" class="cls-1" d="M183.1,234.76l.15.17.17-.15-.15-.17"/><path id="_580" data-name=" 580" class="cls-1" d="M186.53,231.08l.15.17.17-.15-.15-.17"/><path id="_581" data-name=" 581" class="cls-1" d="M234.4,255.16l.41-.48.14.17-.41.48Z"/><path id="_582" data-name=" 582" class="cls-1" d="M202,201.94l-.39-.37.71-.69.39.38"/><path id="_583" data-name=" 583" class="cls-1" d="M202.51,201.4a1.34,1.34,0,0,0,.34-.83c0-.22-.33-.24-.46-.19a2,2,0,0,0-1.12,1.17.44.44,0,0,0,.18.61,1.06,1.06,0,0,0,.82-.42"/><path id="_597" data-name=" 597" class="cls-1" d="M204.48,202.41h0"/><path id="_598" data-name=" 598" class="cls-1" d="M204.48,202.41h0"/><path id="_599" data-name=" 599" class="cls-1" d="M204.42,202.28a5.07,5.07,0,0,1,.4-3.39"/><path id="_600" data-name=" 600" class="cls-1" d="M202.05,201.22h0l-.13.05h0l0,.09h0"/><path id="_601" data-name=" 601" class="cls-1" d="M202.61,201.44l.48-.67.58-.62.45-.58.48-.67.49-.66.48-.67L206,197l.48-.67.49-.67.48-.66.49-.67.48-.67.49-.66.48-.67.49-.67.48-.66"/><path id="_612" data-name=" 612" class="cls-1" d="M221.48,173.15l1.89,1.73"/><path id="_613" data-name=" 613" class="cls-1" d="M226.68,167.49l1.65,1.53"/><path id="_617" data-name=" 617" class="cls-1" d="M189,229l-1.53,1.65"/><path id="_618" data-name=" 618" class="cls-1" d="M189.8,229.92l-1.52,1.65"/><path id="_619" data-name=" 619" class="cls-1" d="M191.16,231.11l-1.53,1.65"/><path id="_620" data-name=" 620" class="cls-1" d="M194.27,234.1l-1.53,1.64"/><path id="_621" data-name=" 621" class="cls-1" d="M195.62,235.29l-1.53,1.65"/><path id="_622" data-name=" 622" class="cls-1" d="M196.45,236.16l-1.53,1.65"/><path id="_683" data-name=" 683" class="cls-1" d="M172.12,225.9l.09,0,.1,0,.13-.06,0-.09,0-.09,0-.13"/><path id="_809" data-name=" 809" class="cls-1" d="M160.51,234.37l.48.41"/><path id="_810" data-name=" 810" class="cls-1" d="M160.89,234.74l.58-.63"/><path id="_811" data-name=" 811" class="cls-1" d="M160.51,234.37l1.52-1.65"/><path id="_814" data-name=" 814" class="cls-1" d="M160.8,234.7l-.41.48-.15-.16.41-.48"/><path id="_876" data-name=" 876" class="cls-1" d="M199.54,234.93,203,237.3"/><path id="_877" data-name=" 877" class="cls-1" d="M199.54,234.93a1.46,1.46,0,0,0-.88-.24"/><path id="_878" data-name=" 878" class="cls-1" d="M203.65,238.1a2.14,2.14,0,0,0-.56-.76l-.09,0"/><path id="_879" data-name=" 879" class="cls-1" d="M203.65,238.1l32.19,22.29"/><path id="_940" data-name=" 940" class="cls-1" d="M173.28,228.1l1.27.08"/><path id="_941" data-name=" 941" class="cls-1" d="M173.66,227.71l1.05.32"/><path id="_942" data-name=" 942" class="cls-1" d="M174,227.41l.82.66"/><path id="_968" data-name=" 968" class="cls-1" d="M181.5,241.13a66.64,66.64,0,0,1-6.34-6.45c-.06-.13-.08-.35.07-.19,1.7,1.12,3.37,2.34,5,3.64a7.53,7.53,0,0,1,1.31,1.83l.45.5"/><path id="_969" data-name=" 969" class="cls-1" d="M181.5,241.13l.1,0h0l.07-.18h0l.15-.37h0"/><path id="_970" data-name=" 970" class="cls-1" d="M181.84,240.29l0-.09,0-.09,0-.1,0-.09"/><path id="_971" data-name=" 971" class="cls-1" d="M185,244.39h0l.11-.28h0l0-.09h0l.09,0"/><path id="_972" data-name=" 972" class="cls-1" d="M185.82,244.06,186,244l.13-.05.13-.06.13,0"/><path id="_973" data-name=" 973" class="cls-1" d="M186,244.45c0,.09,0,.22,0,.31a1.42,1.42,0,0,0,.25.43l.3.34c.15.16.2.29.35.46a4.56,4.56,0,0,0,.54.54c.24.21.39.37.63.58.09,0,.14.17.24.2"/><path id="_975" data-name=" 975" class="cls-1" d="M173.46,229.79l.87.78"/><path id="_976" data-name=" 976" class="cls-1" d="M185,244.35a63.91,63.91,0,0,0,6.79,5.87c.06.13.41.06.22,0-1.2-1.57-2.4-3.13-3.68-4.51a6.83,6.83,0,0,0-2-1.36c-.15-.17-.43-.28-.58-.45"/><path id="_1114" data-name=" 1114" class="cls-1" d="M203.59,185.12a424.08,424.08,0,0,0-31.25,32.24c-4.09,5-8.12,10.21-10.64,16.2-.36,1.15-1.41,3.2.13,3.93,1.34.43,3-.64,3.87-1,5.67-3.1,10.7-7.54,15.51-12,7.36-7.28,14.33-14.92,21.15-22.73"/><path id="_1115" data-name=" 1115" class="cls-1" d="M203.59,185.12l13.49-12.56"/><path id="_1116" data-name=" 1116" class="cls-1" d="M169.25,228.73l2.31-2.51"/><path id="_1117" data-name=" 1117" class="cls-1" d="M169.31,228.87l-.64-2.42"/><path id="_1118" data-name=" 1118" class="cls-1" d="M168.67,226.45l1.93-2.13"/><path id="_1119" data-name=" 1119" class="cls-1" d="M167.93,225.07a4.48,4.48,0,0,0-.51,1.52,3.4,3.4,0,0,0,.53,1.62,1.75,1.75,0,0,1,.22,1.06c0,.22-.09.5.15.71s.58-.1.89-.08a3.47,3.47,0,0,1,1.34.44,3.58,3.58,0,0,0,1.09.22c.35-.07.62-.18,1-.25.13-.06.3-.21.43-.26"/><path id="_1120" data-name=" 1120" class="cls-2" d="M168.67,226.45l1.25-3.38"/><path id="_1121" data-name=" 1121" class="cls-1" d="M171.79,226.2l-1-1.81"/><path id="_1122" data-name=" 1122" class="cls-1" d="M171.56,226.22l-1-1.81"/><path id="_1123" data-name=" 1123" class="cls-1" d="M172.4,225.48l-1.4-1.33"/><path id="_1124" data-name=" 1124" class="cls-1" d="M172.57,225.33l-2.81-2.65"/><path id="_1125" data-name=" 1125" class="cls-2" d="M170,222.89l5.7-6.11"/><path id="_1126" data-name=" 1126" class="cls-1" d="M167.93,225.07l1.21-2.74"/><path id="_1127" data-name=" 1127" class="cls-1" d="M169.14,222.33l6-6.09"/><path id="_1128" data-name=" 1128" class="cls-1" d="M168.93,225.8l1.86-1.94"/><path id="_1129" data-name=" 1129" class="cls-1" d="M170.66,223.91l-1-.95"/><path id="_1130" data-name=" 1130" class="cls-1" d="M171,224.15c-.1,0-.32,0-.17.15"/><path id="_1131" data-name=" 1131" class="cls-1" d="M172.77,225.09l-1.7-1.66"/><path id="_1132" data-name=" 1132" class="cls-1" d="M172.9,225l-1.55-1.49"/><path id="_1133" data-name=" 1133" class="cls-1" d="M178.14,219.28l-2.61-2.35"/><path id="_1134" data-name=" 1134" class="cls-1" d="M178.31,219.13l-2.57-2.44"/><path id="_1135" data-name=" 1135" class="cls-1" d="M177.94,219.52l-1.41-1.33"/><path id="_1136" data-name=" 1136" class="cls-1" d="M171,223.52l2.61-2.72"/><path id="_1137" data-name=" 1137" class="cls-1" d="M171.05,223.21l3.77-4"/><path id="_1138" data-name=" 1138" class="cls-1" d="M171.35,223.54l2.27-2.42"/><path id="_1139" data-name=" 1139" class="cls-1" d="M175.18,222.61l-1.56-1.49"/><path id="_1140" data-name=" 1140" class="cls-1" d="M175.38,222.37l-1.7-1.66"/><path id="_1141" data-name=" 1141" class="cls-1" d="M175.55,222.22l-1.5-1.36"/><path id="_1142" data-name=" 1142" class="cls-1" d="M174.07,220.54l2.24-2.33"/><path id="_1143" data-name=" 1143" class="cls-1" d="M176,217.65l-.62-.57"/><path id="_1144" data-name=" 1144" class="cls-1" d="M172.88,221.36l-.68-.71"/><path id="_1145" data-name=" 1145" class="cls-1" d="M173,221.17l-.69-.71"/><path id="_1146" data-name=" 1146" class="cls-1" d="M174.8,219l-.63-.58"/><path id="_1147" data-name=" 1147" class="cls-1" d="M175,218.76l-.63-.57"/><path id="_1148" data-name=" 1148" class="cls-1" d="M175.23,218.75l.78-.87"/><path id="_1149" data-name=" 1149" class="cls-1" d="M174.82,219.23a.39.39,0,0,0,0-.32"/><path id="_1150" data-name=" 1150" class="cls-1" d="M175,218.76a.33.33,0,0,0,.31,0"/><path id="_1151" data-name=" 1151" class="cls-1" d="M176,218a.35.35,0,0,0,0-.32"/><path id="_1152" data-name=" 1152" class="cls-1" d="M174.07,220.54a.39.39,0,0,0,0,.32"/><path id="_1153" data-name=" 1153" class="cls-1" d="M176.53,218.19l-.18-.07-.13,0"/><path id="_1154" data-name=" 1154" class="cls-1" d="M170.83,223.23l-.63-.58"/><path id="_1155" data-name=" 1155" class="cls-1" d="M170.83,223.23l.09,0s.1,0,.13,0l0-.1"/><path id="_1156" data-name=" 1156" class="cls-1" d="M181.78,215.35a3.39,3.39,0,0,0-2.49-.79,3.2,3.2,0,0,0-2.55,1.78,2.12,2.12,0,0,0-.21.78"/><path id="_1157" data-name=" 1157" class="cls-1" d="M175.7,216.78l2.1.95"/><path id="_1158" data-name=" 1158" class="cls-1" d="M177.89,217.77a2.25,2.25,0,0,0,.78.21,2,2,0,0,0,1.17-.5l.17-.15"/><path id="_1159" data-name=" 1159" class="cls-1" d="M179.91,217.3l.21-.24"/><path id="_1160" data-name=" 1160" class="cls-1" d="M180.34,217l-.09,0-.13.06"/><path id="_1161" data-name=" 1161" class="cls-1" d="M177.49,215.56l2.13,1.94"/><path id="_1162" data-name=" 1162" class="cls-1" d="M181.74,215.45a3.11,3.11,0,0,0-5.06,1.83"/><path id="_1163" data-name=" 1163" class="cls-1" d="M179.35,214.69l.34,2.62"/><path id="_1164" data-name=" 1164" class="cls-1" d="M177.89,217.77l1.43-.07"/><path id="_1165" data-name=" 1165" class="cls-1" d="M179.52,217.46l-2.1.12"/><path id="_1166" data-name=" 1166" class="cls-1" d="M179.75,217.44l-2.1-2"/><path id="_1167" data-name=" 1167" class="cls-1" d="M180,217.2l-.29-2.49"/><path id="_1168" data-name=" 1168" class="cls-1" d="M177.45,220.18h0"/><path id="_1169" data-name=" 1169" class="cls-1" d="M179,218.54h0"/><path id="_1170" data-name=" 1170" class="cls-1" d="M177.4,220.05l1.49-1.55"/><path id="_1171" data-name=" 1171" class="cls-1" d="M179.91,217.3l-1.49,1.55.1,0"/><path id="_1172" data-name=" 1172" class="cls-1" d="M184.11,213.06l-.06-.13.24-.34.06.13"/><path id="_1173" data-name=" 1173" class="cls-1" d="M182.82,214.37l-.09,0L183,214l.06.13"/><path id="_1174" data-name=" 1174" class="cls-1" d="M182.82,214.37l-1.12,1.17"/><path id="_1175" data-name=" 1175" class="cls-1" d="M185.64,211.41h0l-1.38,1.28"/><path id="_1176" data-name=" 1176" class="cls-1" d="M184,213l-.95,1"/><path id="_1177" data-name=" 1177" class="cls-1" d="M181.41,215.2l-1.49,1.56"/><path id="_1178" data-name=" 1178" class="cls-1" d="M179.9,217.07l1.65-1.7"/><path id="_1179" data-name=" 1179" class="cls-1" d="M180,217.2l1.7-1.79,0,.13"/><path id="_1180" data-name=" 1180" class="cls-1" d="M169.74,223c-.17.15-.43.26-.58.09s0-.54.08-.72a1.35,1.35,0,0,1,.8-.65c.22,0,.37.15.29.33a1.06,1.06,0,0,1-.39.71"/><path id="_1181" data-name=" 1181" class="cls-1" d="M169.85,222.72h0a.32.32,0,0,0-.22,0l0,.09,0,.13"/><path id="_1182" data-name=" 1182" class="cls-1" d="M169.58,223.91l-.77-.75"/><path id="_1183" data-name=" 1183" class="cls-1" d="M170.78,222l-.68-.71"/><path id="_1184" data-name=" 1184" class="cls-1" d="M162.49,236.14,161.23,235"/><path id="_1185" data-name=" 1185" class="cls-1" d="M166.21,232.25l-2.66-2.48"/><path id="_1186" data-name=" 1186" class="cls-1" d="M152.09,218.89a9.94,9.94,0,0,0,4.16-1.23h0"/><path id="_1187" data-name=" 1187" class="cls-1" d="M158.63,217.65a2.74,2.74,0,0,0,1.45-.39,17.11,17.11,0,0,0,4.45-3.81c.62-.72,1.23-1.44,1.81-2.07"/><path id="_1188" data-name=" 1188" class="cls-1" d="M166.34,211.38l1.73-1.89"/><path id="_1189" data-name=" 1189" class="cls-1" d="M167.89,209.42l1.29-1.32"/><path id="_1190" data-name=" 1190" class="cls-1" d="M151.85,218.68l.15.17-.41.48-.15-.16"/><path id="_1191" data-name=" 1191" class="cls-1" d="M151.7,218.52a9.79,9.79,0,0,1,.93-4.16l.07-.19"/><path id="_1192" data-name=" 1192" class="cls-1" d="M151.85,218.68l-.15-.16-.37.39.15.16"/><path id="_1193" data-name=" 1193" class="cls-1" d="M157.54,216.88l-4.22-4"/><path id="_1194" data-name=" 1194" class="cls-1" d="M155.6,217.94l-3.2-3"/><path id="_1195" data-name=" 1195" class="cls-1" d="M157.11,217.14l-4.07-3.8"/><path id="_1196" data-name=" 1196" class="cls-1" d="M158.63,217.65l-3-2.85"/><path id="_1197" data-name=" 1197" class="cls-1" d="M159.17,217.65l-3.29-3.06"/><path id="_1198" data-name=" 1198" class="cls-1" d="M162.17,215.84l-4.08-3.8"/><path id="_1199" data-name=" 1199" class="cls-1" d="M166.34,211.38l-4.07-3.8"/><path id="_1200" data-name=" 1200" class="cls-1" d="M158.43,212.28l4.17-4.46"/><path id="_1201" data-name=" 1201" class="cls-1" d="M168.07,209.49l-3.35-3.18"/><path id="_1202" data-name=" 1202" class="cls-1" d="M162.75,208l2.11-2.28"/><path id="_1203" data-name=" 1203" class="cls-1" d="M166.55,211.14,163,207.75"/><path id="_1204" data-name=" 1204" class="cls-1" d="M164.86,205.71l.33-.29.28-.43.28-.43.24-.33.49-.67.07-.18.12-.28.11-.28.07-.18,0-.1h0"/><path id="_1205" data-name=" 1205" class="cls-1" d="M163.63,207.16l.31,0"/><path id="_1206" data-name=" 1206" class="cls-1" d="M164,207.08l1.08-1.07.45-.57.45-.58.44-.57.36-.61.35-.62.15-.37.08-.18,0-.09-.06-.14"/><path id="_1207" data-name=" 1207" class="cls-1" d="M159,217.17l-1.55-1.49"/><path id="_1208" data-name=" 1208" class="cls-1" d="M161.48,215.67l-1.55-1.49"/><path id="_1209" data-name=" 1209" class="cls-1" d="M159.23,217.24a8.12,8.12,0,0,0,2.27-1.35"/><path id="_1210" data-name=" 1210" class="cls-1" d="M157.56,215.49l2.05-1.33"/><path id="_1211" data-name=" 1211" class="cls-1" d="M159,217.17l.19.07"/><path id="_1212" data-name=" 1212" class="cls-1" d="M161.5,215.89l0-.09-.06-.13"/><path id="_1213" data-name=" 1213" class="cls-1" d="M157.56,215.49l0,.09.06.13"/><path id="_1214" data-name=" 1214" class="cls-1" d="M159.83,214.14h0l-.22,0"/><path id="_1215" data-name=" 1215" class="cls-1" d="M157.54,216.88l.17-.14"/><path id="_1216" data-name=" 1216" class="cls-1" d="M168.3,208.94l-3.41-2.78"/><path id="_1217" data-name=" 1217" class="cls-1" d="M167,207.74,171,202.8"/><path id="_1218" data-name=" 1218" class="cls-1" d="M168.49,207.4l.9-1.15.85-1.06.45-.57.45-.58.45-.57.48-.67.39-.7.3-.74.15-.37.15-.37.06-.41.06-.41.06-.41,0-.41,0-.44,0-.45-.07-.35-.17-.39-.2-.3-.3-.34"/><path id="_1219" data-name=" 1219" class="cls-1" d="M171.59,203.47l-2.91-2.68"/><path id="_1220" data-name=" 1220" class="cls-1" d="M167.12,207.6l-.54-.55.17-.14.53.54"/><path id="_1221" data-name=" 1221" class="cls-1" d="M169,205.34l-.54-.54.17-.15.54.54"/><path id="_1222" data-name=" 1222" class="cls-1" d="M170.71,203.23l-.53-.55.17-.14.53.54"/><path id="_1223" data-name=" 1223" class="cls-1" d="M171.45,200.07l.62-.72-.93-.91-.62.72Z"/><path id="_1224" data-name=" 1224" class="cls-1" d="M152.52,212a2.33,2.33,0,0,1,.32-1.6,18.23,18.23,0,0,1,3.79-4.83c.54-.54,1.12-1.17,1.66-1.71"/><path id="_1225" data-name=" 1225" class="cls-1" d="M158.2,203.78l1.69-1.8"/><path id="_1226" data-name=" 1226" class="cls-1" d="M160.08,202.06l1.6-1.84"/><path id="_1227" data-name=" 1227" class="cls-1" d="M152.52,212l3.06,2.85"/><path id="_1228" data-name=" 1228" class="cls-1" d="M152.43,211.37l3.39,3.09"/><path id="_1229" data-name=" 1229" class="cls-1" d="M154,208.24l4.07,3.8"/><path id="_1230" data-name=" 1230" class="cls-1" d="M158.2,203.78l4.07,3.8"/><path id="_1231" data-name=" 1231" class="cls-1" d="M157.8,211.7l4.17-4.46"/><path id="_1232" data-name=" 1232" class="cls-1" d="M160,201.93l3.35,3.18"/><path id="_1233" data-name=" 1233" class="cls-1" d="M161.79,207.17l2.1-2.28"/><path id="_1234" data-name=" 1234" class="cls-1" d="M158.4,203.54l3.59,3.39"/><path id="_1235" data-name=" 1235" class="cls-1" d="M163.93,204.8l.34-.3.33-.29.34-.3.33-.3.64-.49.16-.15.26-.11.3-.21.13-.05h0"/><path id="_1236" data-name=" 1236" class="cls-1" d="M162.7,206.24l-.07-.35"/><path id="_1237" data-name=" 1237" class="cls-1" d="M162.63,205.89l1-1.11.54-.54.5-.44.59-.41.6-.4.6-.41.39-.17h.22l.09,0,.1,0"/><path id="_1238" data-name=" 1238" class="cls-1" d="M152.84,211.43l1.56,1.49"/><path id="_1239" data-name=" 1239" class="cls-1" d="M154.26,209l1.56,1.49"/><path id="_1240" data-name=" 1240" class="cls-1" d="M152.82,211.2a7.82,7.82,0,0,1,1.16-2.33"/><path id="_1241" data-name=" 1241" class="cls-1" d="M154.66,212.81l1.21-2.21"/><path id="_1242" data-name=" 1242" class="cls-1" d="M152.82,211.2l.06.13"/><path id="_1243" data-name=" 1243" class="cls-1" d="M154.26,209l-.09,0L154,209"/><path id="_1244" data-name=" 1244" class="cls-1" d="M154.43,212.83l.1,0,.13-.05"/><path id="_1245" data-name=" 1245" class="cls-1" d="M155.87,210.6l0-.09-.06-.13"/><path id="_1246" data-name=" 1246" class="cls-1" d="M153.28,213l.17-.15"/><path id="_1247" data-name=" 1247" class="cls-1" d="M160.58,201.61l3,3.26"/><path id="_1248" data-name=" 1248" class="cls-1" d="M161.77,203l4.67-4.36"/><path id="_1249" data-name=" 1249" class="cls-1" d="M165.81,198l2.91,2.68"/><path id="_1250" data-name=" 1250" class="cls-1" d="M162,202.71l.54.54.16-.15-.53-.54"/><path id="_1251" data-name=" 1251" class="cls-1" d="M164.06,200.75l.53.54.17-.15-.54-.54"/><path id="_1252" data-name=" 1252" class="cls-1" d="M166,198.85l.54.54.17-.15-.54-.54"/><path id="_1253" data-name=" 1253" class="cls-1" d="M169.17,198l.62-.72.92.92-.61.72Z"/><path id="_1254" data-name=" 1254" class="cls-1" d="M170.69,200.09l-.15-.17-.31,0-.23,0-.17.15-.07.18-.11.28.11.26.15.17.27.11.23,0,.26-.11.16-.15.12-.28,0-.22,0-.22Z"/><path id="_1255" data-name=" 1255" class="cls-1" d="M169.94,200.86h0l-.13.06h0l.1,0,0-.1Z"/><path id="_1256" data-name=" 1256" class="cls-1" d="M170.19,200h0l-.13.06.09,0,.09,0,.13-.05,0-.1Z"/><path id="_1257" data-name=" 1257" class="cls-1" d="M170.82,200.57h0l-.13.06.09,0,.09,0,.13,0,0-.1-.19-.07Z"/><path id="_1258" data-name=" 1258" class="cls-1" d="M184.65,186.1l3-5.36"/><path id="_1259" data-name=" 1259" class="cls-1" d="M181.79,184.08l5.55-3.58"/><path id="_1260" data-name=" 1260" class="cls-1" d="M187.67,180.74l0-.09-.06-.13-.09,0-.09,0-.13.06"/><path id="_1261" data-name=" 1261" class="cls-1" d="M184,185.74l-1.94-1.86"/><path id="_1262" data-name=" 1262" class="cls-1" d="M160.57,200.85l-.38.39-.28.43-.18.46"/><path id="_1263" data-name=" 1263" class="cls-1" d="M160.77,201.15l-.37.39-.28.42"/><path id="_1264" data-name=" 1264" class="cls-1" d="M160.77,201.15l0-.09-.06-.13-.09,0-.13.05"/><path id="_1265" data-name=" 1265" class="cls-1" d="M175.38,213.84l-6.89-6.44"/><path id="_1266" data-name=" 1266" class="cls-1" d="M168.49,207.4l-.18-.08-.19-.07h-.22l-.23,0"/><path id="_1267" data-name=" 1267" class="cls-1" d="M179.46,182.38l12.61,9.09"/><path id="_1268" data-name=" 1268" class="cls-1" d="M187.22,199.75l-12.76-11.94"/><path id="_1269" data-name=" 1269" class="cls-1" d="M179.46,182.38l-16,17.07"/><path id="_1270" data-name=" 1270" class="cls-1" d="M163.5,199.45l-.38-.37"/><path id="_1271" data-name=" 1271" class="cls-1" d="M163.12,199.08l-1.2,1.35"/><path id="_1272" data-name=" 1272" class="cls-1" d="M178.36,209.12,171.87,203"/><path id="_1273" data-name=" 1273" class="cls-1" d="M179.46,182.38l-15.94-9.67"/><path id="_1274" data-name=" 1274" class="cls-1" d="M162.07,200.6l-.55-.77"/><path id="_1275" data-name=" 1275" class="cls-1" d="M162.07,200.6h0l0,.22,0,.09,0,.09"/><path id="_1276" data-name=" 1276" class="cls-1" d="M178.75,182l-17,18.36"/><path id="_1277" data-name=" 1277" class="cls-1" d="M135,158.79a3.69,3.69,0,0,0-2.28,3.51,3.51,3.51,0,0,0,.81,2.26"/><path id="_1278" data-name=" 1278" class="cls-1" d="M139,158.38a7,7,0,0,0-4.08.51"/><path id="_1279" data-name=" 1279" class="cls-1" d="M133.34,164.4l5.7-6.11"/><path id="_1280" data-name=" 1280" class="cls-1" d="M175.57,185.34l-29-19.89"/><path id="_1281" data-name=" 1281" class="cls-1" d="M138.07,159.62l1.16-1.26"/><path id="_1282" data-name=" 1282" class="cls-1" d="M141.64,159.34a10.36,10.36,0,0,0-2.32-.94"/><path id="_1283" data-name=" 1283" class="cls-1" d="M158.53,178.13l5.09-5.38"/><path id="_1284" data-name=" 1284" class="cls-1" d="M160.77,175.26l2.47-2.66"/><path id="_1285" data-name=" 1285" class="cls-1" d="M163.28,172.5l-21.64-13.16"/><path id="_1286" data-name=" 1286" class="cls-1" d="M164.79,197.06,143,173.14"/><path id="_1287" data-name=" 1287" class="cls-1" d="M141.47,174.69l1.7-1.79"/><path id="_1288" data-name=" 1288" class="cls-1" d="M143.17,172.9l-8.71-9.67"/><path id="_1289" data-name=" 1289" class="cls-1" d="M151.65,169l2.11-2.28"/><path id="_1290" data-name=" 1290" class="cls-1" d="M137.35,160.08l18.79,15.15"/><path id="_1291" data-name=" 1291" class="cls-1" d="M156.14,175.23l-2.85,3.05"/><path id="_1292" data-name=" 1292" class="cls-1" d="M147.64,178.37l2.65-2.81"/><path id="_1293" data-name=" 1293" class="cls-1" d="M150.29,175.56l18.38,17.24"/><path id="_1294" data-name=" 1294" class="cls-1" d="M185.32,201.79l-12.76-11.95"/><path id="_1295" data-name=" 1295" class="cls-1" d="M187.22,199.75l-12.53,13.39"/><path id="_1296" data-name=" 1296" class="cls-1" d="M187.22,199.75l.78-.87.69-.9.73-1,.63-1,.54-1.08.55-1.07.45-1.11.45-1.12"/><path id="_1297" data-name=" 1297" class="cls-1" d="M192.17,191.51a4.89,4.89,0,0,0,1.07.54,8.18,8.18,0,0,0,1.67.14,6.37,6.37,0,0,0,1.58-.44l.52-.23"/><path id="_1298" data-name=" 1298" class="cls-1" d="M179.16,214.62l-3.11-3"/><path id="_1299" data-name=" 1299" class="cls-1" d="M181.18,206.16l.72.61"/><path id="_1300" data-name=" 1300" class="cls-1" d="M186.55,200.35l5,4.71"/><path id="_1301" data-name=" 1301" class="cls-1" d="M187.53,200.85l4.31,4"/><path id="_1302" data-name=" 1302" class="cls-1" d="M190.45,195.23l1.31,1.29"/><path id="_1303" data-name=" 1303" class="cls-1" d="M190.59,194.86l-12.12-11.37"/><path id="_1304" data-name=" 1304" class="cls-1" d="M169.3,193.38l12.75,12"/><path id="_1305" data-name=" 1305" class="cls-1" d="M162.09,201.36l1-1,1-1,.51-.45.54-.53.63-.5.63-.5.64-.5.68-.37.39-.17.4-.16.39-.17.39-.16.44,0,.45,0,.44,0,.41.06.41,0,.37.15.33.25.34.24"/><path id="_1306" data-name=" 1306" class="cls-1" d="M171.93,189.27,170.49,188"/><path id="_1307" data-name=" 1307" class="cls-1" d="M166.79,189.45a1.11,1.11,0,0,0,0,1.52,1.14,1.14,0,0,0,1.52,0"/><path id="_1308" data-name=" 1308" class="cls-1" d="M170.68,187.57a.47.47,0,0,0-.28-.65c-.09,0-.22,0-.32,0"/><path id="_1309" data-name=" 1309" class="cls-1" d="M168.34,190.94a7.88,7.88,0,0,0,2.34-3.37"/><path id="_1310" data-name=" 1310" class="cls-1" d="M170,186.86a7.24,7.24,0,0,0-3.2,2.59"/><path id="_1311" data-name=" 1311" class="cls-1" d="M169.43,187.18,155.69,175.8"/><path id="_1314" data-name=" 1314" class="cls-1" d="M157.37,194.6l2.61-2.72"/><path id="_1315" data-name=" 1315" class="cls-1" d="M161.44,190.42c.07-.19.33-.3.28-.43l-.63-.58c-.08.19-.34.3-.28.43Z"/><path id="_1316" data-name=" 1316" class="cls-1" d="M158,187l.37-.39-.72-.61-.38.38Z"/><path id="_1317" data-name=" 1317" class="cls-1" d="M156.46,184.31l-.46-.19a.42.42,0,0,0-.48.13.34.34,0,0,0-.17.15.39.39,0,0,1-.17.15l-.11.27a.34.34,0,0,0,0,.23c0,.09,0,.13.11.26s.05.13.15.17.14.16.24.2l.27.11a.34.34,0,0,0,.23,0c.09,0,.13-.05.26-.11s.13,0,.16-.14a.35.35,0,0,1,.21-.24l.07-.19a.34.34,0,0,0,0-.22c0-.1-.06-.13-.11-.26a.86.86,0,0,1-.21-.3Z"/><path id="_1318" data-name=" 1318" class="cls-1" d="M156.09,184.7l-.09,0a.1.1,0,0,0-.13.06l-.13.05,0,.09a.09.09,0,0,0,.06.13l.05.13.09,0s.1,0,.13,0l.13-.06,0-.09,0-.09A.34.34,0,0,0,156.09,184.7Z"/><path id="_1319" data-name=" 1319" class="cls-1" d="M158.08,174.71h0l.13-.05.09,0,.09,0,.19.08.37.15.18.07.15.17.15.17.15.17,0,.13.06.13.05.13a.1.1,0,0,0,.06.13l0,.09,0,.09-.13.06-.13,0-.09,0-.19-.08-.27-.11-.28-.11-.19-.08-.15-.17-.14-.16-.15-.17-.06-.13-.05-.13-.06-.13,0-.1a.71.71,0,0,0,.21-.24Z"/><path id="_1320" data-name=" 1320" class="cls-1" d="M138.09,159.31a3.16,3.16,0,0,0-4.4,1,3.69,3.69,0,0,0-.49,1.74,3.3,3.3,0,0,0,.59,1.75"/><path id="_1321" data-name=" 1321" class="cls-1" d="M138.9,166.11l.79-.87-.63-.58-.79.87Z"/><path id="_1322" data-name=" 1322" class="cls-1" d="M147,165.69a1.06,1.06,0,0,1-.69.37,1.85,1.85,0,0,1-.45,0c-.09,0-.18-.07-.15-.17a.51.51,0,0,1,0-.44l.15-.37.07-.19"/><path id="_1323" data-name=" 1323" class="cls-1" d="M146.11,165.89l.61-.72-.14-.17-.71.68Z"/><path id="_1324" data-name=" 1324" class="cls-1" d="M146.33,165.33l-8.44-5.78"/><path id="_1325" data-name=" 1325" class="cls-1" d="M162.4,179.48l-.09,0-.13.05,0,.09.06.13.09,0c.09,0,.13,0,.17-.15h0C162.5,179.52,162.5,179.52,162.4,179.48Z"/><path id="_1326" data-name=" 1326" class="cls-1" d="M158.63,174.94h0l-.09,0,0,.09,0,.1.1,0,.07-.18Z"/><path id="_1327" data-name=" 1327" class="cls-1" d="M177.12,192.44h0l.22,0,.28.11.19.08.15.17.14.16.15.17.15.17.15.17,0,.13.06.13.05.13.06.13,0,.09,0,.09-.13.06-.09,0-.18-.07-.1,0L178,194l-.19-.07-.15-.17-.14-.17-.15-.16-.15-.17,0-.13-.06-.13-.06-.13-.05-.13,0-.09.07-.19Z"/><path id="_1328" data-name=" 1328" class="cls-1" d="M177.73,192.79h0l-.13.06,0,.09.05.13.09,0,.13-.05-.11-.27Z"/><path id="_1329" data-name=" 1329" class="cls-1" d="M180,195.12h.22l.28.11.18.07.19.08.15.17.15.16.14.17.15.17.06.13,0,.13.06.13,0,.09,0,.1,0,.09-.14,0-.09,0-.28-.12-.18-.07-.19-.08-.14-.16-.15-.17-.15-.17-.15-.17-.05-.13-.06-.13-.05-.13-.06-.13.17-.15Z"/><path id="_1330" data-name=" 1330" class="cls-1" d="M180.55,195.44h0l-.13.06,0,.09h0l.09,0,.08-.19Z"/><path id="_1331" data-name=" 1331" class="cls-1" d="M179.85,204.65l-.24-.21-.28-.11-.23,0-.26.11-.16.15-.17.15-.11.27v.23l.11.26.15.17.24.2.19.08.22,0,.26-.11.17-.15.07-.19.12-.27,0-.23-.11-.26Z"/><path id="_1332" data-name=" 1332" class="cls-1" d="M179.38,205l-.09,0-.13.06-.13,0,0,.1.06.13,0,.13.09,0,.1,0,.13-.05,0-.1,0-.13Z"/><path id="_1333" data-name=" 1333" class="cls-1" d="M183.81,197.51l-.24-.2-.28-.11h-.22l-.26.11-.17.15-.17.15-.11.28,0,.22.11.26.14.17.15.17.28.11.22,0,.26-.11.17-.15.21-.24.07-.18,0-.23-.11-.26Z"/><path id="_1334" data-name=" 1334" class="cls-1" d="M182.32,214.82l-2.67-2.48"/><path id="_1335" data-name=" 1335" class="cls-1" d="M207.13,188.38l-3.54-3.26"/><path id="_1338" data-name=" 1338" class="cls-1" d="M175.26,216.28l2.5-3"/><path id="_1339" data-name=" 1339" class="cls-1" d="M177.76,213.3l1.89-1"/><path id="_1340" data-name=" 1340" class="cls-1" d="M179.65,212.34l9.38-9.59"/><path id="_1341" data-name=" 1341" class="cls-1" d="M174.75,216.72l.54.54"/><path id="_1342" data-name=" 1342" class="cls-1" d="M191.54,205.06l-.87-.78-1-.64"/><path id="_1343" data-name=" 1343" class="cls-1" d="M189.64,203.64l-.37-.15a.86.86,0,0,0-.41-.05.5.5,0,0,0-.36.07c-.13.05-.26.11-.29.2s-.17.15-.3.21"/><path id="_1344" data-name=" 1344" class="cls-1" d="M188,208.39a1.06,1.06,0,0,0-1,.13.83.83,0,0,0-.26.65.92.92,0,0,0,1,.82c.13-.06.35-.08.48-.13s.38-.39.36-.61-.09-.58-.28-.65a.38.38,0,0,0-.24-.21Z"/><path id="_1345" data-name=" 1345" class="cls-1" d="M202.38,186.25c0,.45-.43.8-.64,1a8.46,8.46,0,0,1-2.14,1.83c-.13,0-.3.2-.48.13"/><path id="_1346" data-name=" 1346" class="cls-1" d="M195,199.13l-.72-.61,3-3.21,1.79,1.7"/><path id="_1347" data-name=" 1347" class="cls-1" d="M195.68,200.69l-1.07-1.08.41-.48"/><path id="_1348" data-name=" 1348" class="cls-1" d="M195,199.13l1.51-.79.72.61"/><path id="_1349" data-name=" 1349" class="cls-1" d="M199.11,197l-1.9,2"/><path id="_1350" data-name=" 1350" class="cls-1" d="M195,198.82l-.34-.25,2.65-2.81,1.41,1.32"/><path id="_1351" data-name=" 1351" class="cls-1" d="M195,198.82l1.5-.8.73.62"/><path id="_1352" data-name=" 1352" class="cls-1" d="M195.26,199.34l1.21-.59.53.54"/><path id="_1353" data-name=" 1353" class="cls-1" d="M195.89,200.45l-1-.82.25-.33"/><path id="_1354" data-name=" 1354" class="cls-1" d="M198.76,197.08l-1.53,1.65"/><path id="_1355" data-name=" 1355" class="cls-1" d="M220.52,170.72l-.72-1.16"/><path id="_1356" data-name=" 1356" class="cls-1" d="M219.74,169.43l-2.44,2"/><path id="_1357" data-name=" 1357" class="cls-1" d="M217.36,171.6l-8.55-14.35"/><path id="_1358" data-name=" 1358" class="cls-1" d="M208.72,157.21l3.26-3.53"/><path id="_1359" data-name=" 1359" class="cls-1" d="M212,153.81l-.34-.25"/><path id="_1360" data-name=" 1360" class="cls-1" d="M208.72,157.21l-.3-.33"/><path id="_1361" data-name=" 1361" class="cls-3" d="M233.26,160.55l-.15-.17"/><path id="_1362" data-name=" 1362" class="cls-3" d="M233.5,160.21l-.09,0"/><path id="_1363" data-name=" 1363" class="cls-1" d="M217,172.65a1.76,1.76,0,0,0,1.45-.38l.17-.15"/><path id="_1364" data-name=" 1364" class="cls-1" d="M218.66,172.12l1.86-1.4"/><path id="_1365" data-name=" 1365" class="cls-1" d="M217,172.65l.13-.05.08-.19,0-.09.08-.19.07-.18-.05-.13-.06-.13,0-.13"/><path id="_1366" data-name=" 1366" class="cls-1" d="M220,169.86l5-4.57"/><path id="_1367" data-name=" 1367" class="cls-1" d="M220.41,170.45l5.09-4.84"/><path id="_1368" data-name=" 1368" class="cls-1" d="M225.46,165.7l-12.63-11.46"/><path id="_1369" data-name=" 1369" class="cls-1" d="M212.87,154.14l1.16-1.26"/><path id="_1370" data-name=" 1370" class="cls-1" d="M214.12,152.92l2.29-2.2"/><path id="_1371" data-name=" 1371" class="cls-1" d="M225.4,165.57a20,20,0,0,1,4.06-3.11c1.16-.72,2.5-1.36,3.74-2"/><path id="_1372" data-name=" 1372" class="cls-3" d="M233.16,160.51l.34-.3"/><path id="_1373" data-name=" 1373" class="cls-3" d="M233.11,160.38l-2.62-.73"/><path id="_1374" data-name=" 1374" class="cls-1" d="M230.49,159.65l-5.33,5.71"/><path id="_1375" data-name=" 1375" class="cls-1" d="M225,165.29l5.33-5.72"/><path id="_1376" data-name=" 1376" class="cls-1" d="M230.31,159.57c-4.07-3.8-8.95-6.42-13.9-8.85"/><path id="_1377" data-name=" 1377" class="cls-1" d="M212.87,154.14l-.15-.16"/><path id="_1378" data-name=" 1378" class="cls-1" d="M212.69,154.07l1.28-1.32"/><path id="_1379" data-name=" 1379" class="cls-1" d="M214,152.75l2.05-1.86"/><path id="_1380" data-name=" 1380" class="cls-1" d="M212.73,152.36l3.24-1.6"/><path id="_1381" data-name=" 1381" class="cls-1" d="M212.71,151.6l3.1-3.39"/><path id="_1382" data-name=" 1382" class="cls-1" d="M207,157.8h0l.08-.19.07-.18.15-.37.24-.34.25-.33c.2-.24.28-.43.48-.67s.37-.38.58-.63c.37-.38.78-.87,1.16-1.25s.74-.78,1.15-1.26.75-.78,1.12-1.17c.17-.15.37-.39.54-.54l.54-.53.54-.54a2.48,2.48,0,0,1,.63-.5,2.54,2.54,0,0,0,.64-.5c.16-.14.2-.24.33-.29l.34-.3"/><path id="_1383" data-name=" 1383" class="cls-1" d="M207,157.8h0c.09,0,.09,0,.13-.06l.13-.05.3-.2.3-.21c.13-.05.17-.15.3-.2a2.32,2.32,0,0,1,.63-.5c.17-.15.37-.39.54-.54.37-.39.74-.77,1.15-1.26s.75-.77,1.16-1.25a9.74,9.74,0,0,0,1.06-1.3l.49-.67.48-.66.49-.67c.2-.24.28-.43.48-.67a8.12,8.12,0,0,1,.49-.66.78.78,0,0,0,.24-.34l.28-.42"/><path id="_1384" data-name=" 1384" class="cls-1" d="M214,152.66l-.63-.58"/><path id="_1385" data-name=" 1385" class="cls-1" d="M207.14,157.11l5.26-5.53"/><path id="_1386" data-name=" 1386" class="cls-1" d="M212.64,151.78l-.24-.2"/><path id="_1387" data-name=" 1387" class="cls-1" d="M211,152.63l1.4-1"/><path id="_1388" data-name=" 1388" class="cls-1" d="M212.4,151.58h0l.13-.06.09,0,.09,0"/><path id="_1389" data-name=" 1389" class="cls-1" d="M207.62,157.52l5.26-5.53"/><path id="_1390" data-name=" 1390" class="cls-1" d="M212.64,151.78l.24.21"/><path id="_1391" data-name=" 1391" class="cls-1" d="M211.87,153.42l1-1.43"/><path id="_1392" data-name=" 1392" class="cls-1" d="M212.79,152h0l.07-.18-.05-.13-.1,0"/><path id="_1393" data-name=" 1393" class="cls-1" d="M221.05,168.88l-10.5-13.52"/><path id="_1394" data-name=" 1394" class="cls-1" d="M229.32,160.68,226.51,158l.91-.92"/><path id="_1395" data-name=" 1395" class="cls-1" d="M220.65,160l.06.13.41-.48-.3-.33-.41.48.05.13"/><path id="_1396" data-name=" 1396" class="cls-1" d="M220,160.7l.62-.72"/><path id="_1397" data-name=" 1397" class="cls-1" d="M219.79,160.5l.71-.69"/><path id="_1398" data-name=" 1398" class="cls-1" d="M220.49,159.05l-.1,0a.1.1,0,0,0-.13,0l-.13.06,0,.09,0,.09.05.13.1,0a.1.1,0,0,0,.13-.06l.13,0,0-.09,0-.1Z"/><path id="_1399" data-name=" 1399" class="cls-1" d="M223.63,161.94l-.09,0a.1.1,0,0,0-.13.05l-.13.06,0,.09a.22.22,0,0,0,.11.26l.1,0a.11.11,0,0,0,.13-.06l.13,0,0-.1c0-.09,0-.09-.05-.13Z"/><path id="_1400" data-name=" 1400" class="cls-1" d="M154.39,207.85l.15.17.17-.15-.15-.17"/><path id="_1401" data-name=" 1401" class="cls-1" d="M157.79,204.26l.14.17.17-.15-.15-.17"/><path id="_1402" data-name=" 1402" class="cls-1" d="M164.28,206.34l-.93-.91"/><path id="_1403" data-name=" 1403" class="cls-1" d="M167.83,209.83l.43-.26.43-.26.33-.3"/><path id="_1404" data-name=" 1404" class="cls-1" d="M168.06,209.27l.43-.26.37-.39"/><path id="_1405" data-name=" 1405" class="cls-1" d="M169.06,208.92l0-.09-.06-.13-.09,0-.13.06"/><path id="_1406" data-name=" 1406" class="cls-1" d="M162.54,215.45l-.15-.16.17-.15.15.16"/><path id="_1407" data-name=" 1407" class="cls-1" d="M165.93,211.86l-.15-.17.17-.14.15.16"/><path id="_1408" data-name=" 1408" class="cls-1" d="M138.78,165.62l.41-.48L139,165l-.41.48Z"/><path id="_1409" data-name=" 1409" class="cls-1" d="M194,194.5l.38.38.71-.69-.39-.37"/><path id="_1410" data-name=" 1410" class="cls-1" d="M194.52,194c.2-.24.89-.61,1.06-.22a1.83,1.83,0,0,1-.68,1.13c-.29.2-.76.55-1,.12-.07-.35.3-.74.64-1Z"/><path id="_1421" data-name=" 1421" class="cls-1" d="M221.48,173.15l-1.89-1.73"/><path id="_1422" data-name=" 1422" class="cls-1" d="M226.68,167.49,225,166"/><path id="_1423" data-name=" 1423" class="cls-1" d="M167.74,209.25l-1.53,1.65"/><path id="_1424" data-name=" 1424" class="cls-1" d="M166.87,208.47l-1.53,1.64"/><path id="_1425" data-name=" 1425" class="cls-1" d="M165.56,207.18,164,208.83"/><path id="_1426" data-name=" 1426" class="cls-1" d="M162.41,204.29l-1.53,1.65"/><path id="_1427" data-name=" 1427" class="cls-1" d="M161.1,203l-1.53,1.64"/><path id="_1428" data-name=" 1428" class="cls-1" d="M160.23,202.22l-1.53,1.65"/><path id="_1429" data-name=" 1429" class="cls-1" d="M172.36,225.57l-.09,0c-.09,0-.13.06-.22,0l0,.09,0,.1.06.13"/><path id="_1431" data-name=" 1431" class="cls-1" d="M161.28,199.09l-2.65-3.33"/><path id="_1432" data-name=" 1432" class="cls-1" d="M161.48,199.92l0-.31-.11-.26-.11-.26"/><path id="_1433" data-name=" 1433" class="cls-1" d="M158.63,195.76l-.29-.34-.47-.19"/><path id="_1434" data-name=" 1434" class="cls-1" d="M157.78,195.2l-24.29-30.64"/><path id="_1435" data-name=" 1435" class="cls-1" d="M169.75,224.84l-.15-1.25"/><path id="_1436" data-name=" 1436" class="cls-1" d="M170.12,224.45l-.44-1"/><path id="_1437" data-name=" 1437" class="cls-1" d="M170.46,224.15l-.65-.8"/><path id="_1438" data-name=" 1438" class="cls-1" d="M156.2,217.53a60.11,60.11,0,0,0,4.68,4.16,25,25,0,0,0,2.3,1.79c.32,0-.17-.39-.22-.52a52.35,52.35,0,0,0-3.48-4.21,6.56,6.56,0,0,0-2-1.36c-.14-.17-.42-.29-.57-.45"/><path id="_1439" data-name=" 1439" class="cls-1" d="M156.2,217.53h0l.07-.19,0-.09,0-.09,0-.09,0-.1,0-.09,0-.09.13-.06h0"/><path id="_1440" data-name=" 1440" class="cls-1" d="M157.11,217.14l.43-.26"/><path id="_1441" data-name=" 1441" class="cls-1" d="M152.79,214.21l.1,0h0l0-.09,0-.1,0-.09,0-.09,0-.09.12-.28h0"/><path id="_1442" data-name=" 1442" class="cls-1" d="M153,213.43l.19-.46"/><path id="_1443" data-name=" 1443" class="cls-1" d="M157.67,217.91a.76.76,0,0,0,0,.44,3,3,0,0,0,.46.73c.3.33.69.71,1.08,1.08l.72.61"/><path id="_1444" data-name=" 1444" class="cls-1" d="M168.08,224.7l-.78-.74"/><path id="_1445" data-name=" 1445" class="cls-1" d="M152.76,214.3a83.22,83.22,0,0,1-6.29-6.31c-.1,0-.21-.3-.08-.36,1.61,1.09,3.23,2.17,4.76,3.44a5.7,5.7,0,0,1,1.46,2,4.56,4.56,0,0,0,.54.54"/><path id="_1448" data-name=" 1448" class="cls-1" d="M163.83,229.35l.78.74"/><path id="_1449" data-name=" 1449" class="cls-1" d="M165.71,228.17l-.69-.71"/><path id="_1450" data-name=" 1450" class="cls-1" d="M164.61,230.09l1.1-1.92"/><path id="_1451" data-name=" 1451" class="cls-1" d="M162,232.72l.34.24"/><path id="_1452" data-name=" 1452" class="cls-1" d="M161.32,235l1-2"/><path id="path5873" class="cls-1" d="M137.89,159.55l1.11-1.17"/><path id="path5875" class="cls-1" d="M161,175.47l2.51-2.76"/><path id="path5888" class="cls-1" d="M178.75,182l-3.22,3.44"/><path id="path5899" class="cls-1" d="M161.79,207.17l.92.91"/><path id="path5939" class="cls-1" d="M228.9,168.92l12,11.56"/><path id="path5941" class="cls-1" d="M225.16,165.36l-12.29-11.22"/><path id="path5973" class="cls-1" d="M190.63,234l.87.78"/><path id="path6007" class="cls-1" d="M223.16,233.58l2.52-2.76"/><path id="path6017" class="cls-1" d="M240.62,255.52l1.11-1.17"/><path id="path6019" class="cls-1" d="M215.46,216.34l-3.19,3.35"/><path class="cls-4" d="M195.87.81C260.15,47.27,310.14,89,235.44,158.62"/><path class="cls-4" d="M159.39,240.6C95.83,309.83,74.21,224.52.64,286.48"/></g></g></svg>