<?xml version="1.0" encoding="utf-8"?>
<!-- Generator: Adobe Illustrator 22.1.0, SVG Export Plug-In . SVG Version: 6.00 Build 0)  -->
<svg version="1.1" id="Layer_1" xmlns="http://www.w3.org/2000/svg" xmlns:xlink="http://www.w3.org/1999/xlink" x="0px" y="0px"
	 viewBox="0 0 762.1 622.1" style="enable-background:new 0 0 762.1 622.1;" xml:space="preserve">
<style type="text/css">
	.st0{opacity:0.4;}
	.st1{fill:none;stroke:#09A059;stroke-width:0.5;stroke-linecap:round;stroke-linejoin:round;}
	.st2{fill:none;stroke:#09A059;stroke-linecap:round;stroke-linejoin:round;}
	.st3{fill:none;stroke:#09A059;stroke-linejoin:round;}
	.st4{fill:none;stroke:#09A059;stroke-width:0.3;stroke-linecap:round;stroke-linejoin:round;}
</style>
<title>Asset 111012</title>
<g id="Layer_2_1_" class="st0">
	<g id="Layer_1-2">
		<g id="g26749">
			<path id="_6" class="st1" d="M400.8,30h-39.6"/>
			<path id="_7" class="st2" d="M381.1,0.5c-1.5-0.1-2.5,1.3-3.6,2.2c-2.7,3.4-4.9,7.2-7.3,10.8c-3.1,4.8-5.8,9.7-8.2,14.9
				c-1.2,2.5-2.1,5.1-3.1,7.7c-1.3,3.2-2.1,6.6-3.1,10"/>
			<path id="_8" class="st2" d="M381.1,0.5c1.5-0.1,2.5,1.2,3.5,2.1c2.9,3.8,5.6,7.8,8,11.9c3.4,5.2,6.2,10.7,8.6,16.4
				c1.6,3.8,2.9,7.7,4.1,11.6c0.4,1.2,0.7,2.4,1,3.6"/>
			<path id="_38" class="st2" d="M375.9,38.2v7.9"/>
			<path id="_39" class="st2" d="M381.1,43.3c0.8,0,1.6-0.1,2.4-0.5c1-0.6,1.8-1.4,2.3-2.5c0.3-0.9,0.5-1.8,0.4-2.8
				c-0.1-0.9-0.5-1.8-1.1-2.5c-0.8-1-2-1.7-3.3-1.8c-0.5-0.1-0.9-0.1-1.4,0c-2.3,0.3-4,2-4.3,4.3c-0.1,1,0,1.9,0.4,2.8
				c0.7,1.5,2,2.6,3.6,2.9C380.4,43.3,380.7,43.3,381.1,43.3L381.1,43.3z"/>
			<path id="_40" class="st2" d="M354.7,50.2c-2.3,8.9-4.1,17.9-5.9,26.8c-0.7,3.8-1.2,7.6-1.5,11.4"/>
			<path id="_41" class="st2" d="M407.9,48.1h-26.9"/>
			<path id="_42" class="st2" d="M408.4,50.2l-0.9-4.1"/>
			<path id="_43" class="st2" d="M408.4,50.2h-27.4"/>
			<path id="_44" class="st2" d="M407.5,46.1h-26.5"/>
			<path id="_45" class="st2" d="M354.1,48.1h26.9"/>
			<path id="_46" class="st2" d="M353.6,50.2h27.4"/>
			<path id="_47" class="st2" d="M354.6,46.1h26.4"/>
			<path id="_48" class="st2" d="M353.6,50.2l1-4.1"/>
			<path id="_49" class="st2" d="M347.3,88.4l-1.2,100.8"/>
			<path id="_50" class="st2" d="M347.3,87.6h-5.5"/>
			<path id="_51" class="st2" d="M341.8,87.6l-3.9,37.5"/>
			<path id="_52" class="st2" d="M338.1,130.1l4.9,0.6"/>
			<path id="_53" class="st2" d="M337.9,125.1l4,0.5"/>
			<path id="_54" class="st2" d="M343.4,127.3v5"/>
			<path id="_56" class="st2" d="M343.4,127.3l-0.1-0.3v-0.3l-0.1-0.2l-0.1-0.3l-0.2-0.2l-0.2-0.1l-0.2-0.1l-0.3-0.1l-0.3-0.1"/>
			<path id="_57" class="st2" d="M343.4,132.4c-1.8,4.2-3.2,8.6-4.3,13.1c-0.9,3.8-1.6,7.7-2,11.6"/>
			<path id="_58" class="st2" d="M343.3,158c-0.8,1.3-1.6,2.7-2.2,4.2c-1.3,2.7-2.3,5.6-3,8.5c-0.6,2.8-1.1,5.6-1.3,8.4
				c-0.1,0.6-0.1,1.3,0,1.9"/>
			<path id="_59" class="st2" d="M337.1,157l4.1,0.5"/>
			<path id="_60" class="st2" d="M336.9,181l4.3,0.6"/>
			<path id="_61" class="st2" d="M343.3,151.9l-0.4,0.8l-0.4,0.8l-0.4,0.8l-0.3,0.8l-0.3,0.8l-0.2,0.8l-0.2,0.8"/>
			<path id="_62" class="st2" d="M343.3,172.3c-1.1,2.9-1.8,6-2.1,9.1v0.2"/>
			<path id="_63" class="st2" d="M336.7,170.9c-0.2,0.8,0.2,1.7,1,2"/>
			<path id="_64" class="st2" d="M336.7,170.9c2.2-5.8,4.4-11.6,6.6-17.5"/>
			<path id="_65" class="st2" d="M352.8,481.8l-97.5,48.9"/>
			<path id="_66" class="st1" d="M360.3,46.2l-0.8,3.9"/>
			<path id="_67" class="st1" d="M359.5,50.2c-4.2,8.3-7.5,17.1-9.8,26.2c-0.9,3.7-1.8,7.4-2.4,11.2"/>
			<path id="_68" class="st1" d="M359.1,71.9v-9.2"/>
			<path id="_69" class="st1" d="M360.1,61.7h-0.2l-0.2,0.1l-0.2,0.1l-0.1,0.1l-0.1,0.1l-0.1,0.1l-0.1,0.2v0.2"/>
			<path id="_70" class="st1" d="M360.1,61.7h6.4"/>
			<path id="_71" class="st1" d="M367.5,62.7v-0.2l-0.1-0.2l-0.1-0.1l-0.1-0.1L367,62l-0.1-0.1l-0.2-0.1h-0.2"/>
			<path id="_72" class="st1" d="M367.5,62.7v9.2"/>
			<path id="_73" class="st1" d="M359.1,71.9c0,2.4,1.9,4.3,4.3,4.3c0.4,0,0.9-0.1,1.3-0.2c1.7-0.6,2.9-2.3,2.9-4.1"/>
			<path id="_74" class="st1" d="M363.3,75.3l0.1-0.1h0.1l0.1-0.1l0.1-0.1l0.1-0.1l0.1-0.2l0.1-0.1l-0.1-0.1l-0.1-0.2l-0.1-0.1
				l-0.1-0.1l-0.1-0.1l-0.1-0.1h-0.3L363,74l-0.1,0.1l-0.1,0.1l-0.1,0.1l-0.1,0.2v0.2l0.1,0.2l0.1,0.1l0.1,0.1l0.1,0.1h0.1
				L363.3,75.3z"/>
			<path id="_75" class="st1" d="M365.2,63.8h0.1l0.1-0.1l0.1-0.1l0.1-0.1l0.1-0.1l0.1-0.1l-0.1-0.2l-0.1-0.1l-0.1-0.1l-0.1-0.1
				l-0.1-0.1H365l-0.1,0.1l-0.1,0.1l-0.1,0.1l-0.1,0.1v0.3l0.1,0.1l0.1,0.1l0.1,0.1l0.1,0.1H365.2z"/>
			<path id="_76" class="st1" d="M361.3,63.9l0.2-0.1l0.1-0.1l0.1-0.1l0.1-0.1l0.1-0.1v-0.3l-0.1-0.1l-0.1-0.1l-0.1-0.1l-0.1-0.1
				h-0.3l-0.1,0.1l-0.1,0.1l-0.1,0.1l-0.1,0.1l-0.1,0.2l0.1,0.1l0.1,0.1l0.1,0.1l0.1,0.1L361.3,63.9L361.3,63.9z"/>
			<path id="_77" class="st1" d="M357.8,53.7h3.6v2.6h-4.8"/>
			<path id="_78" class="st1" d="M359.9,53.7v2.6"/>
			<path id="_79" class="st1" d="M400.1,80.1v-9.2"/>
			<path id="_80" class="st1" d="M401.1,69.9h-0.2l-0.1,0.1l-0.2,0.1l-0.1,0.1l-0.1,0.1l-0.1,0.2v0.2l-0.1,0.2"/>
			<path id="_81" class="st1" d="M401.1,69.9h6.5"/>
			<path id="_82" class="st1" d="M408.6,70.9l-0.1-0.2v-0.2l-0.1-0.2l-0.1-0.1l-0.1-0.1L408,70l-0.1-0.1h-0.2"/>
			<path id="_83" class="st1" d="M408.6,70.9v9.2"/>
			<path id="_84" class="st1" d="M400.1,80.1c0.1,2.3,1.8,4.1,4.1,4.3c2.3,0.1,4.3-1.7,4.5-4V80"/>
			<path id="_85" class="st1" d="M404.3,83.5h0.2l0.1-0.1l0.1-0.1l0.1-0.1l0.1-0.1l0.1-0.1v-0.3l-0.1-0.1l-0.1-0.1l-0.1-0.1
				l-0.1-0.1l-0.1-0.1h-0.3l-0.1,0.1l-0.1,0.1l-0.1,0.1l-0.1,0.1v0.1l-0.1,0.2l0.1,0.1v0.1l0.1,0.1l0.1,0.1l0.1,0.1L404.3,83.5
				L404.3,83.5z"/>
			<path id="_86" class="st1" d="M406.2,72h0.2l0.1-0.1l0.1-0.1l0.1-0.1l0.1-0.1v-0.3l-0.1-0.1l-0.1-0.1l-0.1-0.1l-0.1-0.1l-0.2-0.1
				l-0.1,0.1L406,71l-0.1,0.1l-0.1,0.1l-0.1,0.1l-0.1,0.1l0.1,0.2l0.1,0.1l0.1,0.1l0.1,0.1l0.1,0.1L406.2,72z"/>
			<path id="_87" class="st1" d="M402.3,72h0.1l0.1-0.1l0.1-0.1l0.1-0.1v-0.1l0.1-0.2l-0.1-0.1v-0.1l-0.1-0.1l-0.1-0.1l-0.1-0.1
				h-0.2L402,71l-0.1,0.1l-0.1,0.1l-0.1,0.1v0.3l0.1,0.1l0.1,0.1l0.1,0.1l0.2,0.1L402.3,72z"/>
			<path id="_88" class="st1" d="M381.1,189.2h-37.7"/>
			<path id="_89" class="st1" d="M348.1,189.2l1.1,49.3"/>
			<path id="_90" class="st1" d="M349.1,238.6h-6.6"/>
			<path id="_91" class="st1" d="M349.1,189.2l3.8,107.4"/>
			<path id="_98" class="st1" d="M381.1,274.9h-28.9"/>
			<path id="_101" class="st2" d="M381.1,303h-29.3"/>
			<path id="_102" class="st1" d="M351.7,303l1.2-6.4"/>
			<path id="_103" class="st2" d="M351.7,303l2.2,59.5"/>
			<path id="_104" class="st2" d="M381.1,301.1h-25.7"/>
			<path id="_122" class="st2" d="M381.1,305.5H370"/>
			<path id="_123" class="st2" d="M378.3,413.2h2.7"/>
			<path id="_128" class="st2" d="M381.1,283.8h-2.3"/>
			<path id="_131" class="st2" d="M372.6,283.8V301"/>
			<path id="_132" class="st2" d="M371.7,283.8V301"/>
			<path id="_133" class="st2" d="M371.7,283.8c-6.6,3.6-12.4,8.5-17,14.5"/>
			<path id="_134" class="st2" d="M354.6,298.8v1.5"/>
			<path id="_135" class="st2" d="M354.7,298.3l-0.1,0.1l-0.1,0.2v0.1"/>
			<path id="_136" class="st2" d="M354.6,300.4v0.1l0.1,0.1l0.1,0.1l0.1,0.1l0.1,0.1l0.1,0.1h0.1"/>
			<path id="_137" class="st2" d="M354.1,309.4l1.5,37.5"/>
			<path id="_138" class="st2" d="M356.3,303v2.5"/>
			<path id="_139" class="st2" d="M357.1,352.9l0.1,1.9"/>
			<path id="_144" class="st2" d="M356.3,305.5c-2.5,0.7-2.3,3.8-2.1,5.8"/>
			<path id="_145" class="st2" d="M353.9,362.8l20,46.2"/>
			<path id="_146" class="st2" d="M357.1,365.1l14.6,33.6"/>
			<path id="_147" class="st2" d="M381.1,403.4c-1.1,0-2.2-0.2-3.3-0.4c-0.9-0.2-1.8-0.5-2.6-0.9c-1.1-0.4-2.1-1.2-2.8-2.1l-0.8-1.2
				"/>
			<path id="_148" class="st2" d="M378.3,413.2H378l-0.2-0.1h-0.1l-0.2-0.1l-0.1-0.1l-0.2-0.1l-0.1-0.1l-0.2-0.1l-0.1-0.1l-0.1-0.1
				l-0.2-0.1l-0.1-0.1l-0.1-0.1l-0.3-0.3l-0.3-0.4l-0.3-0.4l-0.2-0.4l-0.2-0.4l-0.2-0.4l-0.2-0.4l-0.2-0.4l-0.1-0.4"/>
			<path id="_149" class="st2" d="M356.8,359.5l0.2,5.7"/>
			<path id="_150" class="st2" d="M353.5,351.7c0.3,2.8,1,5.9,3.3,7.8"/>
			<path id="_151" class="st2" d="M381.1,363.3c-8.2-0.1-16.4-1.3-24.2-3.8"/>
			<path id="_152" class="st2" d="M381.1,365.1c-8.2-0.1-16.3-1.4-24.1-3.8"/>
			<path id="_153" class="st3" d="M379.4,365.1v38.2"/>
			<path id="_154" class="st2" d="M367.2,309.4h2.1"/>
			<path id="_155" class="st2" d="M369.3,309.4l1.1,43"/>
			<path id="_156" class="st2" d="M370.3,352.4h-2"/>
			<path id="_157" class="st2" d="M367.2,309.4l1.1,43"/>
			<path id="_158" class="st2" d="M369.8,303l0.1,2.5"/>
			<path id="_159" class="st2" d="M366.5,303l0.1,2.5"/>
			<path id="_160" class="st2" d="M367.6,355.3v2"/>
			<path id="_161" class="st2" d="M371.4,356l0.1,1.9"/>
			<path id="_162" class="st2" d="M366.6,305.5h-10.3"/>
			<path id="_163" class="st2" d="M369.9,305.5l-0.6,3.9"/>
			<path id="_164" class="st2" d="M366.6,305.5l0.6,3.9"/>
			<path id="_165" class="st2" d="M374.6,356.3c-1.1-0.1-2.1-0.2-3.2-0.4"/>
			<path id="_167" class="st2" d="M355.7,346.3c0.1,2.2,0.1,4.7,1.5,6.6"/>
			<path id="_168" class="st2" d="M357.2,354.8l-0.1,0.2l-0.1,0.2l-0.1,0.2l-0.1,0.2l-0.1,0.2l-0.1,0.3l-0.2,0.4l-0.1,0.5l-0.1,0.2
				l-0.1,0.2v0.2l-0.1,0.1v0.7"/>
			<path id="_169" class="st2" d="M367.6,355.3c-3.5-0.6-7-1.4-10.4-2.5"/>
			<path id="_170" class="st2" d="M370.3,352.4l1.1,3.6"/>
			<path id="_171" class="st2" d="M368.3,352.4l-0.7,2.9"/>
			<path id="_195" class="st2" d="M381.1,353.2c-1.3,0.1-2.6,0.7-3.4,1.7"/>
			<path id="_196" class="st2" d="M374.6,356.3c1.2,0.1,2.3-0.5,3-1.4"/>
			<path id="_197" class="st2" d="M379.9,363.3l-3.3-3.9c-0.6-0.6-1.4-1-2.2-1.1c-5.8-0.6-11.5-1.7-17.1-3.4"/>
			<path id="_199" class="st3" d="M353.9,357.9h-2.2"/>
			<path id="_200" class="st1" d="M353.9,357.9v18"/>
			<path id="_201" class="st1" d="M351.7,357.9v17"/>
			<path id="_202" class="st1" d="M355.5,366.3v8.5"/>
			<path id="_203" class="st1" d="M351.7,374.8c0,1.4,0.5,3.4,2.2,3.6"/>
			<path id="_204" class="st1" d="M353.9,378.4c1.2-0.2,1.3-1.6,1.5-2.6c0-0.3,0.1-0.6,0.1-1"/>
			<path id="_205" class="st2" d="M351.7,357.9c-2.5-2.4-4.5-5.3-6-8.5"/>
			<path id="_206" class="st1" d="M377.5,274.9v5.9"/>
			<path id="_207" class="st2" d="M366.3,262.5h-11.5"/>
			<path id="_208" class="st2" d="M354.8,262.5c2.6,2.6,6.5,3.1,9.7,1.4c0.7-0.4,1.3-0.8,1.8-1.4"/>
			<path id="_209" class="st2" d="M366.3,268.1h-11.5"/>
			<path id="_210" class="st2" d="M354.8,268.1c1.7,1.7,4,2.6,6.4,2.4c1.9-0.2,3.7-1,5.1-2.4"/>
			<path id="_211" class="st2" d="M370.6,407.7c-1.9,0.3-1.6,4.1,0.4,3.6C372.3,410.6,372.1,407.9,370.6,407.7z"/>
			<path id="_212" class="st2" d="M367.1,216.8v-97.4"/>
			<path id="_213" class="st2" d="M367.1,216.8c-0.2,3.1,0.4,19.4,4.8,12.5c1.1-4.1,1.5-8.3,1.4-12.5"/>
			<path id="_214" class="st2" d="M371.5,84.9v22.7"/>
			<path id="_215" class="st2" d="M370.2,80.9c-0.6,0-1.1,0.4-1.2,1c-0.3,0.5-0.4,1-0.5,1.5l-0.2,1.3v0.1"/>
			<path id="_216" class="st2" d="M371.5,84.9c0-0.5,0-0.9-0.1-1.4c0-0.6-0.2-1.1-0.4-1.6c-0.2-0.4-0.4-0.8-0.8-0.9"/>
			<path id="_217" class="st2" d="M370.1,105c-2.9,0.5-1.6,6.7,1,4.5C372.1,108.2,371.7,105.5,370.1,105z"/>
			<path id="_218" class="st2" d="M367.1,119.3c-0.1-4.2,0.3-8.4,1.4-12.5"/>
			<path id="_219" class="st2" d="M373.2,119.3v97.4"/>
			<path id="_220" class="st2" d="M368.4,107.6V84.9"/>
			<path id="_221" class="st2" d="M371.5,106.1c1.5,4.2,1.6,8.8,1.7,13.2"/>
			<path id="_222" class="st1" d="M367.1,108.1c0,1,0.6,2,1.5,2.5c1.1,0.6,2.4,0.4,3.3-0.4c0.6-0.6,0.8-1.3,0.8-2.1"/>
			<path id="_223" class="st1" d="M372.8,108.1V69.4"/>
			<path id="_224" class="st1" d="M367.1,108.1V85"/>
			<path id="_225" class="st1" d="M370.2,79c-1,0.2-1.8,0.8-2.2,1.7c-0.6,1.3-1,2.7-1,4.1v0.1"/>
			<path id="_226" class="st1" d="M372.8,84.9c0.1-1.8-0.4-3.5-1.3-5c-0.3-0.4-0.8-0.7-1.3-0.8"/>
			<path id="_227" class="st2" d="M338.8,125.2l-0.7,4.8"/>
			<path id="_228" class="st2" d="M343.4,129.1l-0.4,1.5"/>
			<path id="_229" class="st2" d="M343.4,132.4l-0.1,56.8"/>
			<path id="_230" class="st2" d="M407.3,50.2c2.3,8.2,3.8,16.6,5.5,24.9c0.9,4.4,1.6,8.9,2,13.4"/>
			<path id="_231" class="st2" d="M414.8,88.4l1.2,100.8"/>
			<path id="_232" class="st2" d="M414.7,87.6h5.5"/>
			<path id="_233" class="st2" d="M420.2,87.6l3.9,37.5"/>
			<path id="_234" class="st2" d="M423.9,130.1l-4.8,0.6"/>
			<path id="_235" class="st2" d="M424.1,125.1l-4,0.5"/>
			<path id="_236" class="st2" d="M418.6,127.3v5"/>
			<path id="_237" class="st2" d="M420.1,125.6l-0.3,0.1l-0.2,0.1l-0.3,0.1l-0.2,0.1l-0.1,0.2l-0.2,0.3l-0.1,0.2l-0.1,0.3v0.3"/>
			<path id="_238" class="st2" d="M424.9,157.1c-0.9-8.5-3-16.8-6.3-24.7"/>
			<path id="_239" class="st2" d="M425.1,181c-0.2-8.1-2.4-16-6.4-23.1"/>
			<path id="_240" class="st2" d="M424.9,157l-4.2,0.5"/>
			<path id="_241" class="st2" d="M425.1,181l-4.3,0.6"/>
			<path id="_242" class="st2" d="M420.7,157.5l-2.1-5.6"/>
			<path id="_243" class="st2" d="M420.8,181.6l-2.1-9.3"/>
			<path id="_244" class="st2" d="M424.2,172.9l0.3-0.1l0.2-0.1l0.2-0.1l0.2-0.3l0.1-0.2l0.1-0.3l0.1-0.3l-0.1-0.2l-0.1-0.3"/>
			<path id="_245" class="st2" d="M425.2,170.9l-6.6-17.5"/>
			<path id="_246" class="st2" d="M418.7,175c0.4,19.5,0.8,39.1,0.8,58.7 M419.5,236.3c0.1,40-0.7,80.1-3.8,120
				c-2.8,38.8-6.9,77.4-12.4,115.9c-0.4,4,1.6,8.6,5.9,9.5"/>
			<path id="_247" class="st1" d="M401.7,46.2l0.7,3.9"/>
			<path id="_248" class="st1" d="M402.4,50.2c3.4,6.4,6.1,13.1,8.1,20.1c1.7,5.7,3.2,11.5,4.2,17.3"/>
			<path id="_249" class="st1" d="M404.2,53.7h-3.7v2.6h4.9"/>
			<path id="_250" class="st1" d="M402.1,53.7v2.6"/>
			<path id="_251" class="st1" d="M381.1,189.2h37.8"/>
			<path id="_252" class="st1" d="M414.1,189.2l-1,44.6"/>
			<path id="_253" class="st1" d="M413.1,238.6h6.5"/>
			<path id="_254" class="st1" d="M412.9,189.2l-1.5,44.7"/>
			<path id="_255" class="st1" d="M381.1,274.9H410"/>
			<path id="_256" class="st2" d="M381.1,303h29.4"/>
			<path id="_257" class="st1" d="M410.3,303l-1.3-6.4"/>
			<path id="_258" class="st2" d="M410.3,303l-2.3,59.6"/>
			<path id="_259" class="st2" d="M381.1,301.1h25.7"/>
			<path id="_260" class="st2" d="M381.1,305.5h11.1"/>
			<path id="_261" class="st2" d="M383.6,413.2h-2.7"/>
			<path id="_262" class="st2" d="M381.1,283.8h2.4"/>
			<path id="_263" class="st2" d="M389.3,283.8V301"/>
			<path id="_264" class="st2" d="M390.3,283.8V301"/>
			<path id="_265" class="st2" d="M407.3,298.3c-4.5-6-10.3-11-17-14.5"/>
			<path id="_266" class="st2" d="M407.4,298.8v1.5"/>
			<path id="_267" class="st2" d="M407.4,298.8v-0.1l-0.1-0.2l-0.1-0.1"/>
			<path id="_268" class="st2" d="M406.7,301.1h0.1l0.2-0.1l0.1-0.1l0.1-0.1l0.1-0.1l0.1-0.1v-0.1"/>
			<path id="_269" class="st2" d="M407.9,309.4l-1.6,37.5"/>
			<path id="_270" class="st2" d="M405.7,303v2.5"/>
			<path id="_271" class="st2" d="M404.9,352.9l-0.1,1.9"/>
			<path id="_272" class="st2" d="M405.7,305.5c2.4,0.8,2.3,3.8,2,5.8"/>
			<path id="_273" class="st2" d="M408.1,362.8l-20,46.2"/>
			<path id="_274" class="st2" d="M404.9,365.1l-14.5,33.6"/>
			<path id="_275" class="st2" d="M381.1,403.4c1.1,0,2.3-0.2,3.4-0.4c1-0.2,1.9-0.6,2.8-1.1c1-0.5,2-1.2,2.7-2.1
				c0.2-0.3,0.4-0.7,0.6-1.1"/>
			<path id="_276" class="st2" d="M383.6,413.2h0.3l0.2-0.1h0.3l0.1-0.1l0.2-0.1l0.1-0.1l0.2-0.1l0.1-0.1l0.1-0.1l0.2-0.1l0.1-0.1
				l0.1-0.1l0.1-0.1l0.3-0.3l0.3-0.4l0.3-0.4l0.2-0.4l0.3-0.4l0.2-0.4l0.2-0.4l0.1-0.4l0.1-0.4"/>
			<path id="_277" class="st2" d="M405.2,359.5l-0.3,5.7"/>
			<path id="_278" class="st2" d="M408.5,351.7c-0.3,2.8-1.1,5.8-3.3,7.8"/>
			<path id="_279" class="st2" d="M381.1,363.3c8.2-0.1,16.4-1.3,24.2-3.8"/>
			<path id="_280" class="st2" d="M381.1,365.1c8.2-0.1,16.3-1.4,24.1-3.8"/>
			<path id="_281" class="st3" d="M382.5,365.1v38.2"/>
			<path id="_282" class="st2" d="M394.8,309.4h-2"/>
			<path id="_283" class="st2" d="M392.7,309.4l-1.1,43"/>
			<path id="_284" class="st2" d="M391.6,352.4h2.1"/>
			<path id="_285" class="st2" d="M394.8,309.4l-1.1,43"/>
			<path id="_286" class="st2" d="M392.2,303l-0.1,2.5"/>
			<path id="_287" class="st2" d="M395.4,303l-0.1,2.5"/>
			<path id="_288" class="st2" d="M394.4,355.3l-0.1,2"/>
			<path id="_289" class="st2" d="M390.6,356v1.9"/>
			<path id="_290" class="st2" d="M395.3,305.5h10.4"/>
			<path id="_291" class="st2" d="M392.1,305.5l0.6,3.9"/>
			<path id="_292" class="st2" d="M395.3,305.5l-0.6,3.9"/>
			<path id="_293" class="st2" d="M387.4,356.3c1.1-0.1,2.1-0.2,3.2-0.4"/>
			<path id="_294" class="st2" d="M387.7,358.1c5.8-0.5,11.5-1.7,17.1-3.4"/>
			<path id="_295" class="st2" d="M406.3,346.3c-0.2,2.2-0.2,4.6-1.5,6.6"/>
			<path id="_296" class="st2" d="M404.8,354.8l0.1,0.2l0.1,0.2l0.1,0.2l0.1,0.2l0.1,0.2l0.1,0.3l0.1,0.4l0.1,0.5l0.1,0.2l0.1,0.2
				l0.1,0.2v0.2l0.1,0.1v0.5"/>
			<path id="_297" class="st2" d="M394.4,355.3c3.5-0.6,7-1.4,10.4-2.5"/>
			<path id="_298" class="st2" d="M391.6,352.4l-1.1,3.6"/>
			<path id="_299" class="st2" d="M393.7,352.4l0.7,2.9"/>
			<path id="_300" class="st2" d="M384.3,354.9c-0.8-1-2.1-1.7-3.4-1.7"/>
			<path id="_301" class="st2" d="M384.3,354.9c0.7,0.9,1.8,1.4,3,1.4"/>
			<path id="_302" class="st2" d="M385.4,359.3l-3.3,3.9"/>
			<path id="_303" class="st2" d="M387.7,358.1c-0.9,0.1-1.7,0.5-2.3,1.2"/>
			<path id="_304" class="st3" d="M408.1,357.9h2.2"/>
			<path id="_305" class="st1" d="M408.1,357.9v18"/>
			<path id="_306" class="st1" d="M410.3,357.9v17"/>
			<path id="_307" class="st1" d="M406.5,366.3v8.5"/>
			<path id="_308" class="st1" d="M410.3,374.8c-0.1,1.4-0.5,3.2-2,3.6h-0.2"/>
			<path id="_309" class="st1" d="M408.1,378.4c-1-0.2-1.2-1.4-1.5-2.2l-0.1-1.3"/>
			<path id="_310" class="st2" d="M410.3,357.9c2.5-2.5,4.4-5.3,5.9-8.5"/>
			<path id="_311" class="st1" d="M384.5,274.9v5.9"/>
			<path id="_312" class="st2" d="M395.8,262.5h11.4"/>
			<path id="_313" class="st2" d="M395.8,262.5c3.2,3.1,8.2,3.1,11.4,0"/>
			<path id="_314" class="st2" d="M395.8,268.1h11.4"/>
			<path id="_315" class="st2" d="M395.8,268.1c3.1,3.1,8.2,3.2,11.3,0.1c0,0,0,0,0,0l0.1-0.1"/>
			<path id="_316" class="st2" d="M391.3,407.7c1.8,0.3,1.7,3.6-0.1,3.7C389.7,411,389.7,408,391.3,407.7z"/>
			<path id="_317" class="st2" d="M395.1,216.8v-97.4"/>
			<path id="_318" class="st2" d="M395.1,216.8c0,2.6-0.2,5.1-0.5,7.7c-0.1,2.4-0.8,4.7-1.9,6.8c-1,1.2-2.1-0.4-2.3-1.4
				c-0.7-2.1-1.2-4.3-1.3-6.5c-0.2-2.2-0.3-4.4-0.3-6.6"/>
			<path id="_319" class="st2" d="M390.4,84.9v22.7"/>
			<path id="_320" class="st2" d="M391.8,80.9c1,0.1,1.3,1.2,1.6,2c0.2,0.6,0.2,1.3,0.2,1.9"/>
			<path id="_321" class="st2" d="M390.4,84.9c-0.1-1.2,0.2-2.4,0.7-3.5c0.2-0.2,0.4-0.4,0.6-0.5"/>
			<path id="_322" class="st2" d="M392.1,105c3,0.6,1.3,7.1-1.2,4.3C390.1,107.9,390.3,105.4,392.1,105z"/>
			<path id="_323" class="st2" d="M395.1,119.3c-0.2-4.2-0.2-8.5-1.5-12.5"/>
			<path id="_324" class="st2" d="M388.8,119.3v97.4"/>
			<path id="_325" class="st2" d="M393.6,107.6V84.9"/>
			<path id="_326" class="st2" d="M390.4,106.1c-1.5,4.2-1.6,8.8-1.7,13.2"/>
			<path id="_327" class="st1" d="M389.2,108.1c0,1.6,1.3,2.8,2.9,2.8c0,0,0,0,0,0h0.3c1.4-0.1,2.5-1.4,2.5-2.8"/>
			<path id="_328" class="st1" d="M394.8,108.1V85"/>
			<path id="_329" class="st1" d="M391.8,79c1.1,0.2,2,1,2.3,2c0.6,1.2,0.8,2.6,0.8,3.9"/>
			<path id="_330" class="st1" d="M389.2,84.9c0-1,0.1-2.1,0.4-3.1c0.2-0.8,0.5-1.5,1-2.1c0.3-0.3,0.7-0.5,1.2-0.6"/>
			<path id="_331" class="st2" d="M423.2,125.2l0.7,4.8"/>
			<path id="_332" class="st2" d="M418.6,129.1l0.4,1.5"/>
			<path id="_333" class="st2" d="M418.6,132.4l0.1,56.8"/>
			<path id="_334" class="st1" d="M389.2,83.1v25"/>
			<path id="_335" class="st2" d="M386.1,38.2v7.9"/>
			<path id="_336" class="st2" d="M377.1,283.8h-0.4v-3h8.7v3H385"/>
			<path id="_337" class="st2" d="M383.1,281.5v1.3h-4v-1.3H383.1z"/>
			<path id="_338" class="st2" d="M378.7,283.8v0.8h-1.6v-0.8"/>
			<path id="_339" class="st2" d="M377.1,283.8h-5.4"/>
			<path id="_340" class="st2" d="M383.4,283.8v0.8h1.5v-0.8"/>
			<path id="_341" class="st2" d="M383.4,283.8h-4.7"/>
			<path id="_342" class="st2" d="M384.9,283.8h5.4"/>
			<path id="_343" class="st1" d="M349.6,253.4v9.7"/>
			<path id="_344" class="st1" d="M349.6,253.4l-0.1-0.3l-0.1-0.2l-0.1-0.2l-0.1-0.2l-0.1-0.2l-0.2-0.1l-0.2-0.1l-0.2-0.1l-0.2-0.1
				l-0.3-0.1l-0.2,0.1l-0.3,0.1l-0.2,0.1l-0.2,0.1l-0.2,0.1l-0.1,0.2l-0.1,0.2l-0.1,0.2l-0.1,0.2v0.3"/>
			<path id="_345" class="st1" d="M346.5,263.1v0.3l0.1,0.2l0.1,0.2l0.1,0.2l0.1,0.2l0.2,0.1l0.2,0.1l0.2,0.1l0.3,0.1h0.5l0.2-0.1
				l0.2-0.1l0.2-0.1l0.2-0.1l0.1-0.2l0.1-0.2l0.1-0.2l0.1-0.2l0.1-0.3"/>
			<path id="_346" class="st1" d="M346.5,263.1v-9.7"/>
			<path id="_347" class="st1" d="M348.6,238.6v13.3"/>
			<path id="_348" class="st1" d="M348.6,273.9l-2,24.1"/>
			<path id="_349" class="st1" d="M342.7,278.4l0.8,19.6"/>
			<path id="_350" class="st1" d="M343.5,298.1c0,1.8,3.2,1.8,3.1-0.1"/>
			<path id="_351" class="st1" d="M348.6,264.6v9.3"/>
			<path id="_352" class="st2" d="M378.3,69.7v42.8c-1.8,0.9-4.4,0.2-4.3-2.2c-0.1-2.4,0.3-4.7,0.1-7.1V69.7"/>
			<path id="_353" class="st1" d="M379.6,104.4v-35"/>
			<path id="_354" class="st2" d="M378.3,69.7v-0.3l-0.1-0.3l-0.1-0.3l-0.1-0.3l-0.1-0.3l-0.1-0.3l-0.1-0.2l-0.2-0.2l-0.1-0.2
				l-0.1-0.2l-0.2-0.1l-0.2-0.1l-0.2-0.1l-0.2-0.1h-0.6l-0.2,0.1l-0.3,0.1l-0.1,0.1l-0.2,0.1l-0.2,0.2l-0.1,0.2l-0.1,0.2l-0.1,0.2
				l-0.1,0.3l-0.1,0.3l-0.1,0.3l-0.1,0.3v0.6"/>
			<path id="_355" class="st1" d="M379.6,69.7c0.1-1.6-0.7-3.2-2-4.2c-0.9-0.6-2.1-0.5-2.9,0.1c-1.1,0.9-1.8,2.2-1.8,3.6v0.5"/>
			<path id="_356" class="st1" d="M379.6,104.4l-1.3,1"/>
			<path id="_357" class="st1" d="M378.3,104.1h-4.2"/>
			<path id="_358" class="st2" d="M376.2,105.3c-3.8,0.1-1.7,6.9,1.4,4.2C378.9,108.1,378.3,105.3,376.2,105.3z"/>
			<path id="_359" class="st2" d="M383.1,93.5V84"/>
			<path id="_360" class="st2" d="M383.1,93.5v0.3l0.1,0.3l0.1,0.4l0.1,0.2l0.2,0.3l0.2,0.2l0.2,0.2l0.3,0.1l0.3,0.1l0.4,0.1
				l0.3,0.1l0.3-0.1l0.4-0.1l0.3-0.1l0.3-0.1l0.2-0.2L387,95l0.2-0.3l0.1-0.2l0.1-0.4l0.1-0.3l0.1-0.3"/>
			<path id="_361" class="st1" d="M387.4,84c-0.1-1.2-0.4-2.6-1.6-3.1s-2.4,0.8-2.5,2c-0.1,0.4-0.2,0.7-0.2,1.1"/>
			<path id="_362" class="st2" d="M387.4,84v9.5"/>
			<path id="_363" class="st2" d="M387.4,84.1h-4.3"/>
			<path id="_364" class="st1" d="M381.2,83.1v10.4"/>
			<path id="_365" class="st2" d="M383.1,84.1h4.4"/>
			<path id="_366" class="st1" d="M389.2,83.1h-2"/>
			<path id="_367" class="st1" d="M381.2,83.1h1.9"/>
			<path id="_369" class="st1" d="M381.2,93.5c0.1,2.2,1.9,3.9,4.1,3.9c1.7-0.1,3.1-1.2,3.7-2.8c0.2-0.3,0.2-0.7,0.2-1.1"/>
			<path id="_370" class="st1" d="M347.2,91.9h1.7V94h-1.7"/>
			<path id="_371" class="st1" d="M346.7,136h1.8v2.1h-1.8"/>
			<path id="_372" class="st1" d="M346.2,177.3h1.9v2.1h-2"/>
			<path id="_373" class="st2" d="M348.3,79.5c-1.7,2.4-2.7,5.2-2.9,8.1"/>
			<path id="_375" class="st1" d="M401.2,194.3l-1,7.9"/>
			<path id="_376" class="st1" d="M398.6,203.8l0.3-0.1l0.3-0.1l0.2-0.1l0.3-0.1l0.1-0.2l0.2-0.2l0.1-0.2l0.1-0.3l0.1-0.3"/>
			<path id="_377" class="st2" d="M400.1,194.3l-1,7.8"/>
			<path id="_378" class="st2" d="M398.6,202.6h0.1l0.1-0.1l0.1-0.1l0.1-0.1l0.1-0.1v-0.1"/>
			<path id="_379" class="st1" d="M395.9,194.3h5.3"/>
			<path id="_380" class="st1" d="M395.9,194.3l1,7.9l0.1,0.3l0.1,0.3l0.1,0.2l0.2,0.2l0.2,0.2l0.2,0.1l0.2,0.1l0.3,0.1l0.3,0.1"/>
			<path id="_381" class="st2" d="M397.1,194.3l1,7.8v0.1l0.1,0.1l0.1,0.1l0.1,0.1l0.1,0.1h0.1"/>
			<path id="_383" class="st1" d="M378.7,194.3l-0.9,7.9"/>
			<path id="_384" class="st1" d="M376.1,203.8l0.2-0.1l0.3-0.1l0.3-0.1l0.2-0.1l0.2-0.2l0.1-0.2l0.1-0.2l0.1-0.3l0.1-0.3"/>
			<path id="_385" class="st2" d="M377.5,194.3l-0.9,7.8"/>
			<path id="_386" class="st2" d="M376.1,202.6l0.2-0.1l0.1-0.1l0.1-0.1v-0.1l0.1-0.1"/>
			<path id="_387" class="st1" d="M373.4,194.3h5.3"/>
			<path id="_388" class="st1" d="M373.4,194.3l1,7.9v0.3l0.1,0.3l0.1,0.2l0.1,0.2l0.2,0.2l0.2,0.1l0.3,0.1l0.3,0.1l0.3,0.1"/>
			<path id="_389" class="st2" d="M374.6,194.3l0.9,7.8l0.1,0.1l0.1,0.1l0.1,0.1l0.1,0.1l0.1,0.1h0.1"/>
			<path id="_390" class="st1" d="M414.8,91.9h-1.7V94h1.8"/>
			<path id="_391" class="st1" d="M415.3,136h-1.8v2.1h1.8"/>
			<path id="_392" class="st1" d="M415.8,177.3h-1.9v2.1h1.9"/>
			<path id="_417" class="st1" d="M406.6,247c-2.7-3.1-7.5-3.3-10.5-0.6c0,0,0,0,0,0c-0.2,0.2-0.4,0.4-0.6,0.6"/>
			<path id="_418" class="st1" d="M407.1,257.3v-9"/>
			<path id="_419" class="st1" d="M395.1,248.3v9"/>
			<path id="_420" class="st1" d="M395.1,257.3h12.1"/>
			<path id="_421" class="st1" d="M395.5,247c-0.3,0.4-0.5,0.8-0.5,1.3"/>
			<path id="_422" class="st1" d="M407.1,248.3c0-0.5-0.2-0.9-0.5-1.3"/>
			<path id="_423" class="st1" d="M401.1,246.6h0.2l0.1-0.1l0.1-0.1l0.1-0.1l0.1-0.1l0.1-0.2l-0.1-0.1l-0.1-0.1l-0.1-0.1l-0.1-0.1
				l-0.1-0.1H401l-0.1,0.1l-0.1,0.1l-0.1,0.1l-0.1,0.1l-0.1,0.1l0.1,0.2l0.1,0.1l0.1,0.1l0.1,0.1L401.1,246.6L401.1,246.6z"/>
			<path id="_424" class="st1" d="M405.4,256.3h0.2l0.1-0.1l0.1-0.1l0.1-0.1l0.1-0.1v-0.3l-0.1-0.1l-0.1-0.1l-0.1-0.1h-0.1l-0.2-0.1
				l-0.1,0.1h-0.1l-0.1,0.1l-0.1,0.1l-0.1,0.1v0.3l0.1,0.1l0.1,0.1l0.1,0.1l0.1,0.1H405.4z"/>
			<path id="_425" class="st1" d="M396.7,256.3h0.1l0.1-0.1l0.1-0.1l0.1-0.1v-0.1l0.1-0.2l-0.1-0.1v-0.1l-0.1-0.1l-0.1-0.1h-0.1
				l-0.1-0.1l-0.2,0.1h-0.1l-0.1,0.1l-0.1,0.1l-0.1,0.1l-0.1,0.1l0.1,0.2l0.1,0.1l0.1,0.1l0.1,0.1l0.1,0.1H396.7z"/>
			<path id="_426" class="st1" d="M354.6,285.7l2.5,2.8"/>
			<path id="_427" class="st1" d="M358.3,283.3l1.5,1.7"/>
			<path id="_428" class="st1" d="M360.2,286.5l-0.4,1.4"/>
			<path id="_429" class="st1" d="M356.9,282.9l-1.4,0.3"/>
			<path id="_430" class="st1" d="M357.1,288.5l0.2,0.1l0.2,0.1l0.2,0.1l0.2,0.1h0.6l0.2-0.1l0.2-0.1l0.2-0.1l0.2-0.2l0.1-0.1
				l0.1-0.3l0.1-0.2"/>
			<path id="_431" class="st1" d="M360.2,286.5l0.1-0.2v-0.5l-0.1-0.2l-0.1-0.2l-0.1-0.1l-0.1-0.2"/>
			<path id="_432" class="st1" d="M358.3,283.3l-0.1-0.1l-0.2-0.1l-0.1-0.1l-0.2-0.1l-0.3-0.1h-0.2l-0.2,0.1"/>
			<path id="_433" class="st1" d="M355.5,283.2l-0.3,0.1l-0.2,0.1l-0.2,0.1l-0.2,0.2l-0.1,0.2l-0.1,0.2l-0.1,0.2v0.8l0.1,0.2
				l0.1,0.3l0.2,0.1"/>
			<path id="_556" class="st2" d="M343.3,175c-2.7,92.8,0.2,185.8,12.7,277.8c1.7,19.2,5.4,25.2-3.2,28.9"/>
			<path id="_557" class="st1" d="M413.4,238.6v26"/>
			<path id="_558" class="st1" d="M413.4,273.9l1.9,24.1"/>
			<path id="_559" class="st1" d="M419.2,278.6l-0.8,19.5"/>
			<path id="_560" class="st1" d="M415.3,298c0.1,0.5,0.3,1,0.7,1.3c0.4,0.2,0.9,0.2,1.3,0.1c0.6-0.2,1-0.7,1.1-1.3"/>
			<path id="_561" class="st1" d="M413.4,264.6v9.3"/>
			<path id="_562" class="st2" d="M336.8,164.1L52.9,208.4"/>
			<path id="_563" class="st2" d="M303.6,336.6L51.8,290.1"/>
			<path id="_564" class="st2" d="M52.9,208.4c-17.4,2.5-38.3,8.5-47.9,21.4s-2.6,30.1,8.1,39.8c10.4,10.5,24.3,17.1,38.6,20.5"/>
			<path id="_565" class="st2" d="M201.1,195v-9.7"/>
			<path id="_566" class="st2" d="M41.1,210.6v6.7"/>
			<path id="_567" class="st2" d="M1.4,237.1c1.4-0.6,2.6-1.5,3.6-2.6c0.7-0.7,1.2-1.5,1.7-2.4c0.5-1,0.8-2.1,1-3.2
				c0.1-0.7,0.2-1.3,0.1-2"/>
			<path id="_568" class="st1" d="M0.7,240.2c4.9-1.4,8.6-5.5,9.5-10.5c0.3-1.6,0.3-3.3-0.1-4.9"/>
			<path id="_569" class="st2" d="M198.6,197.8L44.4,220.1"/>
			<path id="_570" class="st2" d="M198.6,197.8l0.3-0.1l0.4-0.1l0.3-0.1l0.3-0.1l0.3-0.2l0.2-0.3l0.2-0.2l0.1-0.4l0.1-0.3l0.1-0.3
				l0.1-0.4l0.1-0.4"/>
			<path id="_571" class="st2" d="M41.1,217.3l0.1,0.4l0.1,0.4l0.1,0.4l0.1,0.3l0.2,0.3l0.2,0.3l0.2,0.2l0.3,0.2l0.3,0.2l0.4,0.1
				l0.3,0.1l0.4,0.1h0.6"/>
			<path id="_572" class="st2" d="M185.6,314.8v-24"/>
			<path id="_573" class="st2" d="M185.6,290.8L38.6,272"/>
			<path id="_574" class="st2" d="M38.7,272.1v14"/>
			<path id="_575" class="st2" d="M169.3,314.6l-25.5-4.7"/>
			<path id="_576" class="st2" d="M169.3,311.8v2.8"/>
			<path id="_577" class="st2" d="M142.8,306.9l1,3"/>
			<path id="_578" class="st4" d="M185.6,312.8l-134-24.7"/>
			<path id="_579" class="st4" d="M38.7,283.9l0.8,0.4l0.8,0.4l0.8,0.4l0.8,0.3l0.8,0.4l0.8,0.3l0.8,0.3l0.8,0.3l0.8,0.2l0.8,0.3
				l0.8,0.2l0.8,0.3l0.8,0.2L50,288l0.8,0.2l0.8,0.1"/>
			<path id="_580" class="st4" d="M184.1,290.6v21.9"/>
			<path id="_581" class="st4" d="M170.8,293.4v16.7"/>
			<path id="_582" class="st4" d="M169.3,293.2v16.6"/>
			<path id="_583" class="st4" d="M167.9,293v16.5"/>
			<path id="_584" class="st4" d="M169.3,291.9l1.5,1.5"/>
			<path id="_585" class="st4" d="M169.3,291.9l-1.4,1.1"/>
			<path id="_586" class="st4" d="M157.9,291.7v16"/>
			<path id="_587" class="st4" d="M156.4,291.5v15.9"/>
			<path id="_588" class="st4" d="M154.9,291.3v15.8"/>
			<path id="_589" class="st4" d="M156.4,290.3l1.5,1.4"/>
			<path id="_590" class="st4" d="M156.4,290.3l-1.5,1.1"/>
			<path id="_591" class="st4" d="M144.9,290v15.3"/>
			<path id="_592" class="st4" d="M143.5,289.9V305"/>
			<path id="_593" class="st4" d="M142.1,289.7v15.1"/>
			<path id="_594" class="st4" d="M143.5,288.6l1.5,1.4"/>
			<path id="_595" class="st4" d="M143.5,288.6l-1.5,1.1"/>
			<path id="_596" class="st4" d="M132.1,288.4v14.5"/>
			<path id="_597" class="st4" d="M130.5,288.2v14.4"/>
			<path id="_598" class="st4" d="M129.1,288v14.3"/>
			<path id="_599" class="st4" d="M130.5,287l1.5,1.4"/>
			<path id="_600" class="st4" d="M130.5,287l-1.4,1.1"/>
			<path id="_601" class="st4" d="M98.9,284.2v12.5"/>
			<path id="_602" class="st4" d="M97.4,284v12.5"/>
			<path id="_603" class="st4" d="M95.9,283.8v12.5"/>
			<path id="_604" class="st4" d="M97.4,282.7l1.5,1.5"/>
			<path id="_605" class="st4" d="M97.4,282.7l-1.5,1.1"/>
			<path id="_606" class="st4" d="M85.6,282.4v11.9"/>
			<path id="_607" class="st4" d="M84.2,282.3v11.8"/>
			<path id="_608" class="st4" d="M82.7,282.1v11.7"/>
			<path id="_609" class="st4" d="M84.2,281l1.5,1.4"/>
			<path id="_610" class="st4" d="M84.2,281l-1.5,1.1"/>
			<path id="_611" class="st4" d="M72.4,280.8v11.1"/>
			<path id="_612" class="st4" d="M70.9,280.6v11"/>
			<path id="_613" class="st4" d="M69.4,280.4v10.9"/>
			<path id="_614" class="st4" d="M70.9,279.4l1.5,1.4"/>
			<path id="_615" class="st4" d="M70.9,279.4l-1.5,1.1"/>
			<path id="_616" class="st4" d="M59.1,279.1v10.4"/>
			<path id="_617" class="st4" d="M57.7,278.9v10.3"/>
			<path id="_618" class="st4" d="M56.2,278.7v10.2"/>
			<path id="_619" class="st4" d="M57.7,277.7l1.5,1.4"/>
			<path id="_620" class="st4" d="M57.7,277.7l-1.5,1.1"/>
			<path id="_621" class="st4" d="M113.1,281.7v17.9"/>
			<path id="_622" class="st4" d="M114.7,281.9v17.9"/>
			<path id="_623" class="st4" d="M112.1,281.5v17.7"/>
			<path id="_624" class="st4" d="M110.5,281.2v17.7"/>
			<path id="_625" class="st4" d="M40.5,272.3v12.4"/>
			<path id="_626" class="st4" d="M110.5,287.4l-8.3,10"/>
			<path id="_627" class="st4" d="M110.5,285.2l-10,11.9"/>
			<path id="_628" class="st4" d="M110.5,282.9l-11.6,13.8"/>
			<path id="_629" class="st4" d="M114.7,283.5l14.4,18.9"/>
			<path id="_630" class="st4" d="M114.7,285.9l12.2,16.1"/>
			<path id="_631" class="st4" d="M114.7,288.3l10.1,13.2"/>
			<path id="_632" class="st1" d="M266.1,175.1v154.6"/>
			<path id="_633" class="st1" d="M256.2,176.6v151.3"/>
			<path id="_634" class="st2" d="M334.2,164.5c4.7,30.4-1.4,61.1-2.8,91.5c-3.6,28.1-10.3,57.6-27.7,80.6"/>
			<path id="_635" class="st2" d="M303.6,336.6c11.6,2.4,20.4,11.1,28.2,19.5c6.3,7,11.7,14.7,16.3,22.9"/>
			<path id="_636" class="st1" d="M332.8,238.4h-66.7"/>
			<path id="_637" class="st1" d="M321.6,301l-55.6-7"/>
			<path id="_638" class="st1" d="M342.9,191.7h-6.9"/>
			<path id="_639" class="st1" d="M342.5,230.6h-9.3"/>
			<path id="_640" class="st1" d="M343.3,303l-2.5-0.8l-2.6-0.7l-2.5-0.8l-2.6-0.6l-2.6-0.6l-2.7-0.6l-2.6-0.6l-2.6-0.5"/>
			<path id="_641" class="st1" d="M318.7,336.7l0.2,0.1h0.2l0.2,0.1l0.2-0.1l0.2-0.1l0.1-0.1l0.2-0.1l0.1-0.2"/>
			<path id="_642" class="st1" d="M318.7,336.7l-2.9-1.8"/>
			<path id="_643" class="st1" d="M315.4,333.3l-0.1,0.2l-0.1,0.2v0.4l0.1,0.2l0.1,0.2l0.1,0.1l0.2,0.1"/>
			<path id="_644" class="st1" d="M315.4,333.3l3.4-5.4"/>
			<path id="_645" class="st1" d="M320.3,327.6l-0.2-0.1l-0.2-0.1h-0.4l-0.2,0.1l-0.2,0.1l-0.1,0.1l-0.1,0.1"/>
			<path id="_646" class="st1" d="M320.3,327.6l2.9,1.8"/>
			<path id="_647" class="st1" d="M323.6,330.9l0.1-0.2l0.1-0.2v-0.4l-0.1-0.2l-0.1-0.2l-0.1-0.1l-0.1-0.1"/>
			<path id="_648" class="st1" d="M323.6,330.9l-3.4,5.4"/>
			<path id="_649" class="st1" d="M340.1,246.2l0.1-0.4v-0.9l-0.1-0.4l-0.1-0.4l-0.2-0.4l-0.2-0.4l-0.2-0.4l-0.3-0.3l-0.3-0.3
				l-0.4-0.2l-0.4-0.2l-0.4-0.2l-0.4-0.1l-0.4-0.1l-0.4-0.1H336l-0.4,0.1l-0.4,0.1l-0.4,0.1l-0.4,0.2l-0.4,0.2l-0.4,0.2l-0.3,0.3
				L333,243l-0.3,0.3l-0.2,0.4l-0.1,0.4l-0.1,0.4l-0.1,0.4v0.8l0.1,0.4"/>
			<path id="_650" class="st1" d="M334.4,252.3l0.1,0.3l0.2,0.2l0.2,0.2l0.2,0.1l0.3,0.1l0.3,0.1h0.9l0.3-0.1l0.2-0.1l0.3-0.2
				l0.2-0.1l0.1-0.2l0.1-0.3"/>
			<path id="_651" class="st1" d="M337.9,252.3l0.4-0.8l0.4-0.8l0.4-0.8l0.4-0.9l0.2-0.8l0.2-0.9l0.2-0.9"/>
			<path id="_652" class="st1" d="M332.3,246.2l0.2,0.9l0.2,0.9l0.3,0.9l0.3,0.8l0.4,0.8l0.4,0.9l0.4,0.8"/>
			<path id="_653" class="st1" d="M337.9,244.2h0.2l0.1-0.1l0.1-0.1l0.1-0.1l0.1-0.1l0.1-0.1l-0.1-0.2l-0.1-0.1l-0.1-0.1l-0.1-0.1
				l-0.1-0.1h-0.3l-0.1,0.1l-0.1,0.1l-0.1,0.1v0.1l-0.1,0.2l0.1,0.1v0.1l0.1,0.1l0.1,0.1L337.9,244.2L337.9,244.2z"/>
			<path id="_654" class="st1" d="M336.2,252.1l0.1-0.1l0.1-0.1l0.1-0.1l0.1-0.1v-0.1l0.1-0.1l-0.1-0.2v-0.1l-0.1-0.1l-0.1-0.1
				l-0.1-0.1l-0.1-0.1l-0.2,0.1l-0.1,0.1l-0.1,0.1l-0.1,0.1l-0.1,0.1l-0.1,0.2l0.1,0.1l0.1,0.1l0.1,0.1l0.1,0.1l0.1,0.1L336.2,252.1
				z"/>
			<path id="_655" class="st1" d="M334.3,244.2h0.2l0.1-0.1l0.1-0.1l0.1-0.1l0.1-0.1l0.1-0.1l-0.1-0.1l-0.1-0.2l-0.1-0.1l-0.1-0.1
				l-0.1-0.1h-0.3l-0.1,0.1l-0.1,0.1l-0.1,0.1v0.2l-0.1,0.1l0.1,0.1v0.1l0.1,0.1l0.1,0.1L334.3,244.2L334.3,244.2z"/>
			<path id="_669" class="st2" d="M404.4,234.1c-1.2,0.5-1.1,2.1-1.1,3.3c0.1,0.7,0.3,1.8,1.1,1.9"/>
			<path id="_670" class="st2" d="M419.9,236.2h0.2l0.2-0.1l0.1-0.1l0.2-0.1l0.1-0.2l0.1-0.1l0.1-0.2v-0.2l0.1-0.2l-0.1-0.2
				l-0.1-0.2l-0.1-0.2l-0.1-0.1l-0.1-0.1l-0.1-0.3l-0.1-0.1l-0.2-0.1h-0.3"/>
			<path id="_671" class="st2" d="M419.7,233.7l-15.3,0.4"/>
			<path id="_672" class="st2" d="M419.9,236.2l-15.4,3.2"/>
			<path id="_674" class="st2" d="M418.1,236.3v-2.6"/>
			<path id="_675" class="st4" d="M381.1,558.5l15.8-148.4"/>
			<path id="_676" class="st2" d="M396.7,410.8h0.2l0.1-0.1l0.1-0.1l0.1-0.1l0.1-0.1l0.1-0.1v-0.4l-0.1-0.1l-0.1-0.1l-0.1-0.1
				l-0.1-0.1l-0.1-0.1h-0.3l-0.1,0.1l-0.1,0.1l-0.1,0.1l-0.1,0.1l-0.1,0.1v0.3l0.1,0.1l0.1,0.1l0.1,0.1l0.1,0.1l0.1,0.1h0.1
				L396.7,410.8z"/>
			<path id="_677" class="st4" d="M381.1,558.5c13-107.4,26-214.8,38.9-322.3"/>
			<path id="_678" class="st1" d="M413.1,237.6v1"/>
			<path id="_679" class="st1" d="M411.2,238l-2.1,58.7"/>
			<path id="_680" class="st2" d="M255.3,530.7c-7.4,3.6-12.2,12.4-10.2,20.5c2.5,8.3,9.8,14.1,17.1,18.1
				c9.9,5.2,20.6,8.4,31.3,11.3c13.6,3.5,27.5,6.2,41.6,6.3l24.4-0.1c2.8,0.3,5.4-1.7,5.9-4.5c1.8-6.5,3.7-14.8,2.7-20
				c-0.3-2.3-0.3-4.2-0.6-7.1c0.5-0.6,1.2-0.9,2-0.8"/>
			<path id="_681" class="st1" d="M360.4,474.3l12,71.1"/>
			<path id="_682" class="st2" d="M372.4,545.4l-44.2-0.6"/>
			<path id="_683" class="st2" d="M328.3,544.9l-51.9,3.5"/>
			<path id="_684" class="st2" d="M276.3,548.4l-9.4,1.4"/>
			<path id="_685" class="st1" d="M352.3,482.1l9.5,63.2"/>
			<path id="_686" class="st1" d="M355.8,505.2l-100.5,36.6"/>
			<path id="_687" class="st1" d="M255.3,530.7l-0.2,20.9"/>
			<path id="_688" class="st4" d="M247.6,552.7c2.4,5.7,7.4,10,12.5,13.3c9.5,5.7,20.3,9,30.9,12.1c14.6,3.9,29.5,7,44.6,7l23.8-0.1
				c1.8,0.2,3.5-0.9,3.9-2.7c1.6-5.7,3.7-11.5,3.2-17.5"/>
			<path id="_690" class="st2" d="M375.4,569.6l-0.5-5c-0.5-4.9-1.1-9.8-1.4-14.7c-0.5-6.9-0.9-13.7-0.8-20.6
				c0.1-2.9,0.2-5.9,0.4-8.8c0.2-5.9,1.1-11.7,2.7-17.4c0.5-1.4,1.1-3.9,2.2-3.9s1.9,2.4,2.6,3.8c1.8,4.6,3,9.4,3.8,14.3
				c0.8,4.5,1.4,9,1.9,13.5c0.6,6,0.7,12,0.9,18c0,6.6,0,13.2-0.1,19.9v1.1"/>
			<path id="_691" class="st2" d="M370.3,561.1l9.2,54.1"/>
			<path id="_692" class="st2" d="M379.5,615.2v4.8"/>
			<path id="_693" class="st2" d="M379.5,620v0.3l0.1,0.2l0.1,0.3l0.2,0.2l0.1,0.2l0.2,0.1l0.3,0.1l0.2,0.1l0.3,0.1"/>
			<path id="_694" class="st2" d="M390.2,569.6h-18.4"/>
			<path id="_695" class="st2" d="M365.1,545.3l0.6,3.4"/>
			<path id="_696" class="st2" d="M368.1,557.2c2.3-3.5,2.1-8.2-0.5-11.5l-0.3-0.4"/>
			<path id="_697" class="st2" d="M369.5,550h-2.5"/>
			<path id="_698" class="st2" d="M365.6,548.7l0.1,0.3l0.1,0.2l0.1,0.2l0.1,0.2l0.2,0.1l0.3,0.1l0.2,0.1l0.3,0.1"/>
			<path id="_699" class="st2" d="M371.9,545.4l-0.4,13.1"/>
			<path id="_700" class="st2" d="M371.4,558.5l-0.1,0.3v0.3l-0.2,0.5c0,0.1,0,0.2-0.1,0.3c-0.1,0.1-0.2,0.2-0.2,0.3
				s-0.1,0.2-0.1,0.3c-0.1,0.2-0.2,0.4-0.4,0.5"/>
			<path id="_701" class="st2" d="M367.7,554.8l1.9,11.1"/>
			<path id="_702" class="st2" d="M329.8,544.9l-1.1,5.6"/>
			<path id="_703" class="st2" d="M328.8,550.5l-1.2-5.6"/>
			<path id="_704" class="st2" d="M266.1,548.5L266.1,548.5l-0.2,0.1l-0.1,0.1l-0.1,0.1l-0.1,0.1l-0.1,0.2l-0.1,0.1l-0.1,0.2
				l-0.1,0.2l-0.1,0.2v0.6l0.1,0.3l0.1,0.2l0.1,0.1l0.1,0.2l0.1,0.1l0.1,0.1l0.1,0.1l0.1,0.1l0.1,0.1h0.2l0.1-0.1l0.1-0.1l0.1-0.1
				l0.1-0.1l0.1-0.1l0.1-0.2l0.1-0.1l0.1-0.2v-1.1l-0.1-0.2l-0.1-0.2l-0.1-0.1l-0.1-0.2l-0.1-0.1l-0.1-0.1l-0.1-0.1l-0.1-0.1H266.1z
				"/>
			<path id="_705" class="st2" d="M264.9,550.1l-19.3,2.9"/>
			<path id="_706" class="st4" d="M355.7,554.7v30.2"/>
			<path id="_707" class="st4" d="M354.3,554.7v30.2"/>
			<path id="_708" class="st4" d="M352.8,554.7v30.2"/>
			<path id="_709" class="st4" d="M354.3,553.2l1.5,1.5"/>
			<path id="_710" class="st4" d="M354.3,553.2l-1.5,1.5"/>
			<path id="_711" class="st4" d="M342.9,554.7V585"/>
			<path id="_712" class="st4" d="M341.4,554.7V585"/>
			<path id="_713" class="st4" d="M340.1,554.7V585"/>
			<path id="_714" class="st4" d="M341.4,553.2l1.5,1.5"/>
			<path id="_715" class="st4" d="M341.4,553.2l-1.4,1.5"/>
			<path id="_716" class="st4" d="M330.2,559.3v25.6"/>
			<path id="_717" class="st4" d="M328.7,559.3v25.5"/>
			<path id="_718" class="st4" d="M327.2,559.3v25.4"/>
			<path id="_719" class="st4" d="M328.7,557.9l1.5,1.4"/>
			<path id="_720" class="st4" d="M328.7,557.9l-1.5,1.4"/>
			<path id="_721" class="st4" d="M317.3,554.7v29"/>
			<path id="_722" class="st4" d="M315.9,554.7v28.8"/>
			<path id="_723" class="st4" d="M314.5,554.7v28.6"/>
			<path id="_724" class="st4" d="M315.9,553.2l1.5,1.5"/>
			<path id="_725" class="st4" d="M315.9,553.2l-1.4,1.5"/>
			<path id="_726" class="st4" d="M304.6,554.7v26.7"/>
			<path id="_727" class="st4" d="M303.1,554.7v26.4"/>
			<path id="_728" class="st4" d="M301.6,554.7v26.1"/>
			<path id="_729" class="st4" d="M303.1,553.2l1.5,1.5"/>
			<path id="_730" class="st4" d="M303.1,553.2l-1.5,1.5"/>
			<path id="_731" class="st4" d="M291.8,554.7v23.6"/>
			<path id="_732" class="st4" d="M290.3,554.7v23.2"/>
			<path id="_733" class="st4" d="M288.9,554.7v22.8"/>
			<path id="_734" class="st4" d="M290.3,553.2l1.5,1.5"/>
			<path id="_735" class="st4" d="M290.3,553.2l-1.4,1.5"/>
			<path id="_736" class="st4" d="M279.1,554.7v19.7"/>
			<path id="_737" class="st4" d="M277.5,554.7v19.2"/>
			<path id="_738" class="st4" d="M276.1,554.7v18.7"/>
			<path id="_739" class="st4" d="M277.5,553.2l1.5,1.5"/>
			<path id="_740" class="st4" d="M277.5,553.2l-1.5,1.5"/>
			<path id="_741" class="st4" d="M267.6,554.7v15.2"/>
			<path id="_742" class="st4" d="M266.2,554.7v14.6"/>
			<path id="_743" class="st4" d="M264.7,554.7v13.9"/>
			<path id="_744" class="st4" d="M266.2,553.2l1.4,1.5"/>
			<path id="_745" class="st4" d="M266.2,553.2l-1.5,1.5"/>
			<path id="_746" class="st4" d="M256.8,554.7v9"/>
			<path id="_747" class="st4" d="M255.3,554.7v7.8"/>
			<path id="_748" class="st4" d="M253.8,554.7v6.5"/>
			<path id="_749" class="st4" d="M255.3,553.2l1.5,1.5"/>
			<path id="_750" class="st4" d="M255.3,553.2l-1.5,1.5"/>
			<path id="_751" class="st4" d="M184.1,298.1l-10,12.5"/>
			<path id="_752" class="st4" d="M184.1,295.8l-11.7,14.5"/>
			<path id="_753" class="st4" d="M184.1,293.5l-13.3,16.6"/>
			<path id="_754" class="st1" d="M253.9,188.8l-10.6,1.7"/>
			<path id="_755" class="st1" d="M240.3,187.9v-8.8"/>
			<path id="_756" class="st2" d="M243.3,178.6c0.3,1.8,1.4,3.2,3.1,3.9c1.6,0.6,3.3,0.4,4.7-0.5c1.6-1.1,2.4-2.9,2.2-4.8V177"/>
			<path id="_757" class="st1" d="M240.3,187.9c0,0.6,0.1,1.1,0.5,1.6c0.5,0.7,1.3,1,2.1,1h0.4"/>
			<path id="_758" class="st1" d="M253.9,188.8l0.4-0.1l0.4-0.1l0.3-0.2l0.3-0.1l0.2-0.3l0.3-0.2l0.1-0.3l0.1-0.4l0.1-0.3l0.1-0.4
				V186"/>
			<path id="_1117" class="st2" d="M336.8,164.1h0.4l0.2,0.1l0.1,0.1l0.1,0.1l0.1,0.1l0.1,0.1l0.1,0.1l0.1,0.1l0.1,0.1l0.1,0.1
				l0.1,0.1l0.1,0.1l0.1,0.1v0.1"/>
			<path id="_1183" class="st2" d="M409.2,481.8l97.5,48.9"/>
			<path id="_1184" class="st2" d="M506.7,530.7c7.8,3.8,12.7,13.4,9.8,21.8c-3.1,8.1-10.5,13.6-18,17.5
				c-11.8,5.8-24.6,9.4-37.4,12.4c-11.4,2.8-23.1,4.3-34.8,4.5c-7.9,0-15.9-0.2-23.8-0.1c-2.7,0.2-5.2-1.6-5.8-4.3
				c-1.8-6.8-4.5-13.8-2.6-20.9c0.1-2.2,1.3-4.7,0.2-6.8c-0.5-0.4-1.1-0.6-1.7-0.6"/>
			<path id="_1185" class="st1" d="M401.5,474.3l-12,71.1"/>
			<path id="_1186" class="st2" d="M389.9,545.4l44.2-0.6"/>
			<path id="_1187" class="st2" d="M433.7,544.9l51.9,3.5"/>
			<path id="_1188" class="st2" d="M485.6,548.4l9.4,1.4"/>
			<path id="_1189" class="st1" d="M409.7,482.1l-9.6,63.2"/>
			<path id="_1190" class="st1" d="M406.2,505.2l100.6,36.6"/>
			<path id="_1191" class="st1" d="M506.7,530.7l0.1,20.9"/>
			<path id="_1192" class="st4" d="M514.4,552.7c-3,6.7-9.2,11.5-15.5,15c-9.3,4.9-19.5,8-29.6,10.8c-14.1,3.7-28.6,6.6-43.3,6.5
				l-23.5-0.1c-1.9,0.2-3.6-1-4-2.9c-1.4-5.6-3.8-11.3-3-17.2"/>
			<path id="_1193" class="st2" d="M391.6,561.1l-9.1,54.1"/>
			<path id="_1194" class="st2" d="M382.5,615.2v4.8"/>
			<path id="_1195" class="st2" d="M381.1,621.5l0.3-0.1l0.3-0.1l0.2-0.1l0.2-0.1l0.2-0.2l0.1-0.2l0.1-0.3l0.1-0.2v-0.3"/>
			<path id="_1196" class="st2" d="M397.1,545.3l-0.6,3.4"/>
			<path id="_1197" class="st2" d="M394.6,545.3l-0.4,0.6l-0.4,0.5l-0.4,0.6l-0.3,0.6l-0.3,0.6l-0.2,0.6l-0.2,0.6l-0.1,0.7l-0.1,0.6
				v2l0.1,0.6l0.1,0.7l0.2,0.6l0.2,0.6l0.3,0.6l0.3,0.6l0.4,0.6"/>
			<path id="_1198" class="st2" d="M392.4,550h2.5"/>
			<path id="_1199" class="st2" d="M394.9,550l0.2-0.1l0.3-0.1l0.2-0.1l0.2-0.1l0.2-0.2l0.1-0.2l0.1-0.2l0.1-0.3"/>
			<path id="_1200" class="st2" d="M390.2,545.4l0.4,13.1"/>
			<path id="_1201" class="st2" d="M390.6,558.5v0.4l0.1,0.4l0.1,0.4l0.1,0.4l0.1,0.3l0.2,0.4l0.1,0.3l0.2,0.3"/>
			<path id="_1202" class="st2" d="M394.3,554.8l-1.9,11.1"/>
			<path id="_1203" class="st2" d="M432.1,544.9l1.1,5.6"/>
			<path id="_1204" class="st2" d="M433.3,550.5l1.1-5.6"/>
			<path id="_1205" class="st2" d="M496.1,548.5h0.1l0.1,0.1l0.2,0.1l0.1,0.1l0.1,0.1l0.1,0.2l0.1,0.3l0.1,0.2v0.3l0.1,0.3l-0.1,0.2
				v0.3l-0.1,0.2l-0.1,0.3l-0.1,0.1l-0.1,0.2l-0.1,0.1l-0.2,0.1h-0.4l-0.1-0.1l-0.1-0.1l-0.1-0.2l-0.1-0.1l-0.1-0.3l-0.1-0.2
				l-0.1-0.3v-0.5l0.1-0.3v-0.2l0.1-0.3l0.1-0.2l0.1-0.1l0.1-0.1l0.1-0.1l0.1-0.1H496.1z"/>
			<path id="_1206" class="st2" d="M497.1,550.1l19.3,2.9"/>
			<path id="_1207" class="st4" d="M406.3,554.7v30.2"/>
			<path id="_1208" class="st4" d="M407.7,554.7v30.2"/>
			<path id="_1209" class="st4" d="M409.1,554.7v30.2"/>
			<path id="_1210" class="st4" d="M407.7,553.2l-1.5,1.5"/>
			<path id="_1211" class="st4" d="M407.7,553.2l1.4,1.5"/>
			<path id="_1212" class="st4" d="M419.1,554.7V585"/>
			<path id="_1213" class="st4" d="M420.5,554.7V585"/>
			<path id="_1214" class="st4" d="M422.1,554.7V585"/>
			<path id="_1215" class="st4" d="M420.5,553.2l-1.5,1.5"/>
			<path id="_1216" class="st4" d="M420.5,553.2l1.5,1.5"/>
			<path id="_1217" class="st4" d="M431.9,559.3v25.6"/>
			<path id="_1218" class="st4" d="M433.3,559.3v25.5"/>
			<path id="_1219" class="st4" d="M434.7,559.3v25.4"/>
			<path id="_1220" class="st4" d="M433.3,557.9l-1.5,1.4"/>
			<path id="_1221" class="st4" d="M433.3,557.9l1.4,1.4"/>
			<path id="_1222" class="st4" d="M444.6,554.7v29"/>
			<path id="_1223" class="st4" d="M446.1,554.7v28.8"/>
			<path id="_1224" class="st4" d="M447.6,554.7v28.6"/>
			<path id="_1225" class="st4" d="M446.1,553.2l-1.5,1.5"/>
			<path id="_1226" class="st4" d="M446.1,553.2l1.5,1.5"/>
			<path id="_1227" class="st4" d="M457.4,554.7v26.7"/>
			<path id="_1228" class="st4" d="M458.9,554.7v26.4"/>
			<path id="_1229" class="st4" d="M460.3,554.7v26.1"/>
			<path id="_1230" class="st4" d="M458.9,553.2l-1.5,1.5"/>
			<path id="_1231" class="st4" d="M458.9,553.2l1.4,1.5"/>
			<path id="_1232" class="st4" d="M470.2,554.7v23.6"/>
			<path id="_1233" class="st4" d="M471.7,554.7v23.2"/>
			<path id="_1234" class="st4" d="M473.1,554.7v22.8"/>
			<path id="_1235" class="st4" d="M471.7,553.2l-1.5,1.5"/>
			<path id="_1236" class="st4" d="M471.7,553.2l1.5,1.5"/>
			<path id="_1237" class="st4" d="M483.1,554.7v19.7"/>
			<path id="_1238" class="st4" d="M484.5,554.7v19.2"/>
			<path id="_1239" class="st4" d="M485.9,554.7v18.7"/>
			<path id="_1240" class="st4" d="M484.5,553.2l-1.5,1.5"/>
			<path id="_1241" class="st4" d="M484.5,553.2l1.4,1.5"/>
			<path id="_1242" class="st4" d="M494.4,554.7v15.2"/>
			<path id="_1243" class="st4" d="M495.8,554.7v14.6"/>
			<path id="_1244" class="st4" d="M497.3,554.7v13.9"/>
			<path id="_1245" class="st4" d="M495.8,553.2l-1.5,1.5"/>
			<path id="_1246" class="st4" d="M495.8,553.2l1.5,1.5"/>
			<path id="_1247" class="st4" d="M505.2,554.7v9"/>
			<path id="_1248" class="st4" d="M506.7,554.7v7.8"/>
			<path id="_1249" class="st4" d="M508.1,554.7v6.5"/>
			<path id="_1250" class="st4" d="M506.7,553.2l-1.5,1.5"/>
			<path id="_1251" class="st4" d="M506.7,553.2l1.4,1.5"/>
			<path id="_1252" class="st2" d="M425.1,164.1l283.9,44.3"/>
			<path id="_1253" class="st2" d="M458.4,336.6l251.8-46.5"/>
			<path id="_1254" class="st2" d="M709.1,208.4c11.7,1.4,23,5.1,33.3,10.9c7.5,3.6,15.4,8.7,18.1,17.2c3.1,9.5-0.5,19.8-6.3,27.4
				c-8.6,11.5-21.5,18.9-34.7,23.9c-3,1-6,1.9-9.1,2.5"/>
			<path id="_1255" class="st2" d="M561.1,195v-9.7"/>
			<path id="_1256" class="st2" d="M720.8,210.6v6.7"/>
			<path id="_1257" class="st2" d="M754.3,226.9c-0.1,1.2,0,2.4,0.4,3.5c0.3,0.8,0.6,1.6,1.1,2.4c0.4,0.7,0.9,1.3,1.4,1.9
				c0.8,0.8,1.7,1.5,2.7,2c0.2,0.1,0.5,0.2,0.7,0.3"/>
			<path id="_1258" class="st1" d="M751.9,224.8c-0.3,1.1-0.4,2.3-0.2,3.5c0.1,2.3,0.9,4.6,2.2,6.5c0.7,1.1,1.6,2.1,2.6,2.9
				c1.2,0.9,2.6,1.7,4,2.3l0.9,0.3"/>
			<path id="_1259" class="st2" d="M563.4,197.8l154.3,22.4"/>
			<path id="_1260" class="st2" d="M561.1,195v0.4l0.1,0.4l0.1,0.3l0.1,0.3l0.2,0.4l0.2,0.2l0.2,0.3l0.3,0.2l0.2,0.1l0.4,0.1
				l0.3,0.1l0.4,0.1"/>
			<path id="_1261" class="st2" d="M717.7,220.1h0.7l0.4-0.1l0.4-0.1l0.3-0.1l0.3-0.2l0.3-0.2l0.3-0.2l0.2-0.3l0.1-0.3l0.1-0.3
				l0.1-0.4l0.1-0.4v-0.4"/>
			<path id="_1262" class="st2" d="M576.3,314.8v-24"/>
			<path id="_1263" class="st2" d="M576.3,290.8l147-18.8"/>
			<path id="_1264" class="st2" d="M723.3,272.1v14"/>
			<path id="_1265" class="st4" d="M576.3,312.8l134-24.7"/>
			<path id="_1266" class="st4" d="M723.3,283.9l-1.7,0.7l-1.7,0.6l-0.8,0.4l-0.8,0.3l-0.8,0.3l-0.8,0.3l-0.8,0.2l-0.8,0.3l-0.9,0.2
				l-0.8,0.3l-0.8,0.2l-0.8,0.1L711,288l-0.9,0.1"/>
			<path id="_1267" class="st4" d="M577.9,290.6v21.9"/>
			<path id="_1268" class="st4" d="M591.2,293.4v16.7"/>
			<path id="_1269" class="st4" d="M592.6,293.2v16.6"/>
			<path id="_1270" class="st4" d="M594.1,293v16.5"/>
			<path id="_1271" class="st4" d="M592.6,291.9l-1.5,1.5"/>
			<path id="_1272" class="st4" d="M592.6,291.9l1.5,1.1"/>
			<path id="_1273" class="st4" d="M604.1,291.7v16"/>
			<path id="_1274" class="st4" d="M605.6,291.5v15.9"/>
			<path id="_1275" class="st4" d="M607.1,291.3v15.8"/>
			<path id="_1276" class="st4" d="M605.6,290.3l-1.5,1.4"/>
			<path id="_1277" class="st4" d="M605.6,290.3l1.4,1.1"/>
			<path id="_1278" class="st4" d="M617.1,290v15.3"/>
			<path id="_1279" class="st4" d="M618.5,289.9V305"/>
			<path id="_1280" class="st4" d="M620.1,289.7v15.1"/>
			<path id="_1281" class="st4" d="M618.5,288.6l-1.4,1.4"/>
			<path id="_1282" class="st4" d="M618.5,288.6l1.5,1.1"/>
			<path id="_1283" class="st4" d="M630.1,288.4v14.5"/>
			<path id="_1284" class="st4" d="M631.5,288.2v14.4"/>
			<path id="_1285" class="st4" d="M632.9,288v14.3"/>
			<path id="_1286" class="st4" d="M631.5,287l-1.5,1.4"/>
			<path id="_1287" class="st4" d="M631.5,287l1.5,1.1"/>
			<path id="_1288" class="st4" d="M663.1,284.2v12.5"/>
			<path id="_1289" class="st4" d="M664.5,284v12.5"/>
			<path id="_1290" class="st4" d="M666.1,283.8v12.5"/>
			<path id="_1291" class="st4" d="M664.5,282.7l-1.5,1.5"/>
			<path id="_1292" class="st4" d="M664.5,282.7l1.5,1.1"/>
			<path id="_1293" class="st4" d="M676.3,282.4v11.9"/>
			<path id="_1294" class="st4" d="M677.8,282.3v11.8"/>
			<path id="_1295" class="st4" d="M679.3,282.1v11.7"/>
			<path id="_1296" class="st4" d="M677.8,281l-1.5,1.4"/>
			<path id="_1297" class="st4" d="M677.8,281l1.5,1.1"/>
			<path id="_1298" class="st4" d="M689.6,280.8v11.1"/>
			<path id="_1299" class="st4" d="M691.1,280.6v11"/>
			<path id="_1300" class="st4" d="M692.5,280.4v10.9"/>
			<path id="_1301" class="st4" d="M691.1,279.4l-1.5,1.4"/>
			<path id="_1302" class="st4" d="M691.1,279.4l1.5,1.1"/>
			<path id="_1303" class="st4" d="M702.8,279.1v10.4"/>
			<path id="_1304" class="st4" d="M704.3,278.9v10.3"/>
			<path id="_1305" class="st4" d="M705.8,278.7v10.2"/>
			<path id="_1306" class="st4" d="M704.3,277.7l-1.5,1.4"/>
			<path id="_1307" class="st4" d="M704.3,277.7l1.5,1.1"/>
			<path id="_1308" class="st4" d="M648.8,281.7v17.9"/>
			<path id="_1309" class="st4" d="M647.3,281.9v17.9"/>
			<path id="_1310" class="st4" d="M649.8,281.5v17.7"/>
			<path id="_1311" class="st4" d="M651.4,281.2v17.7"/>
			<path id="_1312" class="st4" d="M721.4,272.3v12.4"/>
			<path id="_1313" class="st4" d="M651.4,287.4l8.4,10"/>
			<path id="_1314" class="st4" d="M651.4,285.2l10,11.9"/>
			<path id="_1315" class="st4" d="M651.4,282.9l11.7,13.8"/>
			<path id="_1316" class="st4" d="M647.3,283.5l-14.4,18.9"/>
			<path id="_1317" class="st4" d="M647.3,285.9L635.1,302"/>
			<path id="_1318" class="st4" d="M647.3,288.3l-10.1,13.2"/>
			<path id="_1319" class="st1" d="M496.1,175.1v154.6"/>
			<path id="_1320" class="st1" d="M505.8,176.6v151.3"/>
			<path id="_1321" class="st2" d="M427.9,164.5c-4.6,26.6,0.8,53.4,1.7,80c1.6,24,6.5,47.8,15.7,70c3.5,7.9,7.9,15.3,13.1,22.1"/>
			<path id="_1322" class="st2" d="M458.4,336.6c-11.2,2.2-19.8,10.6-27.4,18.6c-6.6,7.3-12.4,15.3-17.1,23.9"/>
			<path id="_1323" class="st1" d="M429.2,238.4h66.8"/>
			<path id="_1324" class="st1" d="M440.3,301l55.6-7"/>
			<path id="_1325" class="st1" d="M419.1,191.7h6.9"/>
			<path id="_1326" class="st1" d="M419.5,230.6h9.2"/>
			<path id="_1327" class="st1" d="M439.4,297.9c-7,1.3-13.9,3-20.7,5.2"/>
			<path id="_1328" class="st1" d="M441.8,336.3l0.1,0.2l0.1,0.1l0.2,0.1l0.2,0.1l0.2,0.1l0.2-0.1h0.2l0.2-0.1"/>
			<path id="_1329" class="st1" d="M443.3,336.7l2.9-1.8"/>
			<path id="_1330" class="st1" d="M446.2,334.9l0.1-0.1l0.1-0.1l0.1-0.2l0.1-0.2v-0.4l-0.1-0.2l-0.1-0.2"/>
			<path id="_1331" class="st1" d="M446.6,333.3l-3.4-5.4"/>
			<path id="_1332" class="st1" d="M443.2,327.9l-0.1-0.1l-0.2-0.1l-0.1-0.1l-0.2-0.1h-0.5l-0.2,0.1l-0.1,0.1"/>
			<path id="_1333" class="st1" d="M441.7,327.6l-2.9,1.8"/>
			<path id="_1334" class="st1" d="M438.7,329.4l-0.1,0.1l-0.1,0.1l-0.1,0.2l-0.1,0.2v0.4l0.1,0.2l0.1,0.2"/>
			<path id="_1335" class="st1" d="M438.4,330.9l3.4,5.4"/>
			<path id="_1336" class="st1" d="M429.7,246.2c0.5-2.6-2.2-5.3-4.8-4.5c-2,0.5-3.2,2.5-2.9,4.5"/>
			<path id="_1337" class="st1" d="M424.1,252.3c0.6,1.4,2.9,1.5,3.4,0"/>
			<path id="_1338" class="st1" d="M422.1,246.2l0.2,0.9l0.2,0.9l0.3,0.8l0.3,0.9l0.4,0.8l0.4,0.8l0.4,0.8"/>
			<path id="_1339" class="st1" d="M427.5,252.3l0.4-0.8l0.4-0.9l0.3-0.8l0.4-0.8l0.3-0.9l0.2-0.9l0.2-0.9"/>
			<path id="_1340" class="st1" d="M424.1,244.2h0.1l0.2-0.1l0.1-0.1l0.1-0.1l0.1-0.1v-0.3l-0.1-0.1l-0.1-0.1l-0.1-0.1l-0.2-0.1H424
				l-0.2,0.1l-0.1,0.1l-0.1,0.1l-0.1,0.1v0.3l0.1,0.1l0.1,0.1l0.1,0.1L424.1,244.2L424.1,244.2z"/>
			<path id="_1341" class="st1" d="M425.8,252.1l0.1-0.1l0.1-0.1l0.1-0.1l0.1-0.1l0.1-0.1v-0.3l-0.1-0.1l-0.1-0.1L426,251l-0.1-0.1
				l-0.1-0.1l-0.2,0.1l-0.1,0.1l-0.1,0.1l-0.1,0.1l-0.1,0.1v0.3l0.1,0.1l0.1,0.1l0.1,0.1l0.1,0.1L425.8,252.1z"/>
			<path id="_1342" class="st1" d="M427.7,244.2h0.1l0.2-0.1l0.1-0.1l0.1-0.1l0.1-0.1v-0.2l-0.1-0.2l-0.1-0.1l-0.1-0.1l-0.2-0.1
				h-0.2l-0.2,0.1l-0.1,0.1l-0.1,0.1l-0.1,0.2v0.2l0.1,0.1l0.1,0.1l0.1,0.1l0.2,0.1H427.7z"/>
			<path id="_1343" class="st4" d="M577.9,298.1l10,12.5"/>
			<path id="_1344" class="st4" d="M577.9,295.8l11.6,14.5"/>
			<path id="_1345" class="st4" d="M577.9,293.5l13.3,16.6"/>
			<path id="_1346" class="st1" d="M508.1,188.8l10.6,1.7"/>
			<path id="_1347" class="st1" d="M521.7,187.9v-8.8"/>
			<path id="_1348" class="st2" d="M508.7,177.1c-0.1,1,0.1,2,0.5,2.9c0.3,0.6,0.7,1.2,1.3,1.6c0.6,0.5,1.3,0.9,2,1.1
				c1.4,0.3,2.9,0.1,4.2-0.7c0.7-0.5,1.3-1.2,1.7-2c0.2-0.4,0.3-0.9,0.4-1.4"/>
			<path id="_1349" class="st1" d="M518.6,190.5c0.3,0,0.7,0,1-0.1c0.2,0,0.5-0.1,0.7-0.2c0.3-0.2,0.6-0.4,0.8-0.7l0.3-0.6l0.2-0.9"
				/>
			<path id="_1350" class="st1" d="M505.8,186.2c0,0.5,0.2,1,0.4,1.4c0.2,0.2,0.4,0.5,0.6,0.7c0.2,0.1,0.4,0.2,0.5,0.3l0.6,0.2"/>
			<path id="_1351" class="st2" d="M425.1,164.1h-0.4l-0.1,0.1l-0.1,0.1l-0.2,0.1l-0.1,0.1l-0.1,0.1l-0.1,0.1l-0.1,0.1l-0.1,0.1
				l-0.1,0.1l-0.1,0.1l-0.1,0.1v0.1l-0.1,0.1"/>
			<path id="_1352" class="st2" d="M657.1,200.2v-21.3h-1.9v21"/>
			<path id="_1353" class="st2" d="M369.5,565.9l0.1,0.2v0.2l0.1,0.1v0.1l0.1,0.1v0.1l0.1,0.1l0.1,0.1v0.1l0.1,0.1l0.1,0.1l0.1,0.1
				l0.1,0.1l0.1,0.1l0.1,0.1v0.1l0.1,0.1l0.1,0.1h0.1l0.1,0.1l0.1,0.1l0.1,0.1h0.1l0.1,0.1h0.1l0.1,0.1h0.2l0.1,0.1h0.1"/>
			<path id="_1354" class="st2" d="M392.4,565.9v0.2l-0.1,0.1l-0.1,0.2l-0.1,0.2l-0.1,0.1l-0.1,0.2l-0.1,0.1l-0.1,0.1l-0.1,0.2
				l-0.1,0.1l-0.1,0.1l-0.2,0.1l-0.1,0.1l-0.1,0.1h-0.2l-0.1,0.1"/>
			<path id="path26455" class="st2" d="M415.9,189.2h2.9"/>
			<path id="path26461" class="st2" d="M397.1,194.3h2.8"/>
			<path id="path26504" class="st2" d="M374.6,194.3h2.9"/>
			<path id="path26741" class="st2" d="M365.3,545.3l-37.1-0.5"/>
			<path id="path26743" class="st2" d="M397.2,545.3l36.5-0.5"/>
		</g>
	</g>
</g>
</svg>
