<?xml version="1.0" encoding="utf-8"?>
<!-- Generator: Adobe Illustrator 22.1.0, SVG Export Plug-In . SVG Version: 6.00 Build 0)  -->
<svg version="1.1" id="Layer_1" xmlns="http://www.w3.org/2000/svg" xmlns:xlink="http://www.w3.org/1999/xlink" x="0px" y="0px"
	 viewBox="0 0 249.4 761.9" style="enable-background:new 0 0 249.4 761.9;" xml:space="preserve">
<style type="text/css">
	.st0{opacity:0.3;}
	.st1{fill:#CCCCCC;stroke:#09A059;stroke-width:0.5;}
	.st2{fill:#CCCCCC;stroke:#09A059;stroke-width:0.5;stroke-miterlimit:10;}
	.st3{fill:none;stroke:#09A059;stroke-width:0.5;stroke-linecap:round;stroke-linejoin:round;}
	.st4{fill:#999999;stroke:#09A059;stroke-width:0.5;stroke-linecap:round;stroke-linejoin:round;}
	
		.st5{fill:none;stroke:#09A059;stroke-width:0.5;stroke-linecap:round;stroke-linejoin:round;stroke-dasharray:2.4,0.6,0.3,0.6;stroke-dashoffset:3;}
</style>
<title>Asset 211012</title>
<g id="Layer_2_1_" class="st0">
	<g id="svg2">
		<g id="g27950">
			<path id="path9108" class="st1" d="M171.4,369.4c-0.6-0.3-0.9-1-0.7-1.6s0.6-0.8,1.3-0.8s1.2,0.6,1.2,1.3c0,0.3-0.1,0.6-0.3,0.8
				C172.5,369.6,171.9,369.7,171.4,369.4z"/>
			<path id="path9084" class="st2" d="M94.5,422.9c-1.7-0.7-2.2-3-1.7-7.5c0.3-2.4,0.5-4.8,0.5-5.3c0.3-0.9,0.8-1.8,1.5-2.5
				c2-2,4.8-2.1,6.6-0.2s1.9,2.7,0.2,8.3C99.7,422.3,97.8,424.2,94.5,422.9z"/>
			<path id="path9096" class="st2" d="M126.2,416.8c-1.1-0.3-2-0.9-2.8-1.7c-1.2-1.4-2-3.2-2.4-5c0-1,0.4-1.9,0.9-1.9
				c0.2,0,0.4-0.2,0.4-0.4c0.2-0.9,2.9-1,5.2-0.2c1.1,0.4,2.3,0.7,3.5,1c0.9,0.2,1.8,0.4,2.6,0.8c0.9,0.4,1.8,1.4,1.8,1.9
				c0,1.2-2.1,3.7-4,4.7C129.9,417.1,127.9,417.4,126.2,416.8L126.2,416.8z"/>
			<path id="path9098" class="st2" d="M114.5,399c-1.2-0.4-2.2-2.6-1.5-3.2c0.2-0.2,0.4,0,2.1,2.2
				C116.1,399.2,115.9,399.5,114.5,399z"/>
			<path id="path9086" class="st2" d="M105.4,385.6c-2.3-2.2-2.1-7.3,0.4-9.7l1.9-1.9v6.5c0,3.6-0.2,6.5-0.4,6.5
				S106.2,386.4,105.4,385.6z"/>
			<path id="path9102" class="st2" d="M113.1,366.1c-0.7-0.6,0.3-2.4,1.5-3c1.4-0.7,1.4-0.3,0,1.5
				C113.9,365.5,113.2,366.2,113.1,366.1z"/>
			<path id="path9082" class="st2" d="M122.8,354.5c-2.2-0.8-2.7-2.7-1.4-5.2c1.1-2.3,3.3-3.9,5.9-4.1c2.1-0.2,2.8,0,4.7,1.3
				c1.2,0.7,2.2,1.7,3.1,2.7c0.8,1.1,0.8,1.2-0.2,2.2c-1.8,1.1-3.7,1.8-5.7,2.3C124.4,354.9,124.1,355,122.8,354.5L122.8,354.5z"/>
			<path id="path9080" class="st2" d="M95.2,354c-1.3-1.2-1.5-2-1.9-5.4c-0.7-7.1-0.6-7.9,0.7-8.9c1.5-1.3,3.8-1.2,5.2,0.2
				c0.6,0.6,1.8,3.4,2.7,6.1c1.8,5.5,1.7,6.6-0.7,8.4C99.4,355.8,96.8,355.7,95.2,354L95.2,354z"/>
			<path id="path9110" class="st2" d="M72.5,404.6c-0.3-0.3-0.3-2.8-0.3-23.6c0-18.8,0.1-23.2,0.3-23.5c0.5-0.5,1.2-0.6,5.5-0.6h4.2
				v48h-4.7C72.9,405,72.8,405,72.5,404.6z"/>
			<path id="_837" class="st3" d="M164.3,381c0.3-12.5-9.6-24.3-22-26.1c-12.3-2.4-25.6,5.5-29.4,17.4c-1,2.8-1.5,5.7-1.5,8.7"/>
			<path id="_838" class="st3" d="M156.7,381c0-10.4-8.4-18.8-18.8-18.8c-7,0-13.3,3.8-16.6,9.9c-1.5,2.7-2.2,5.8-2.2,8.9"/>
			<path id="_839" class="st3" d="M177.7,381c0-3.6-0.5-7.1-1.4-10.6"/>
			<path id="_840" class="st3" d="M135.1,339.4v9.7"/>
			<path id="_841" class="st3" d="M114.8,347.5c-10.1,5.4-17.7,14.4-21.4,25.2"/>
			<path id="_842" class="st3" d="M118.4,348.2c0.2-0.4,0.6-0.7,0.8-1.1c0.3-0.4,0.7-0.7,1.1-1c0.5-0.4,1-0.8,1.6-1.1
				c0.9-0.6,1.9-1.2,3-1.6c0.7-0.3,1.4-0.5,2.2-0.7c0.9-0.2,1.7-0.2,2.6-0.2c0.4,0,0.8,0.1,1.2,0.1c0.6,0,1.1,0.1,1.7,0.3
				c0.5,0.2,1,0.3,1.4,0.5s0.7,0.3,0.9,0.6c0,0.1,0.1,0.1,0.2,0.1"/>
			<path id="_843" class="st3" d="M165.5,381v-1.1l-0.1-1.1l-0.1-1.1l-0.1-1.1l-0.2-1.1l-0.2-1.1l-0.3-1.1l-0.4-1.1l-0.4-1.1
				l-0.4-1.1l-0.4-1l-0.5-1l-0.6-1l-0.6-1l-0.6-0.9l-0.6-0.9l-0.6-0.8l-0.8-0.8l-0.7-0.8l-0.8-0.8l-0.8-0.8l-0.8-0.7l-0.8-0.7
				l-0.9-0.6l-0.9-0.6L152,357l-1-0.6l-1-0.5l-1-0.5l-1.1-0.4l-1.1-0.4l-1.1-0.4l-1.1-0.3l-1.1-0.3l-1.1-0.2l-1.1-0.1l-1.1-0.1
				l-1.1-0.1L138,353h-1.1l-1.1,0.1l-1.1,0.1l-1.1,0.1l-1.1,0.2l-1.1,0.2l-1.1,0.3l-1.1,0.4l-1.1,0.4l-1,0.4l-1.1,0.5l-1,0.4l-1,0.6
				l-1,0.6l-0.9,0.6l-0.9,0.6l-0.8,0.7l-0.9,0.7l-0.8,0.7l-0.8,0.8l-0.8,0.8"/>
			<path id="_844" class="st3" d="M152.2,337.6v-0.4l-0.1-0.4l-0.1-0.4l-0.1-0.4l-0.1-0.3l-0.3-0.3l-0.2-0.3l-0.3-0.2l-0.4-0.1
				l-0.3-0.2l-0.4-0.1l-0.4-0.1h-0.8l-0.4,0.1l-0.4,0.1l-0.4,0.2l-0.3,0.1l-0.3,0.2l0.1,0.5l-0.2,0.3l-0.2,0.3l-0.1,0.4l-0.1,0.4
				l-0.1,0.4l-0.1,0.4"/>
			<path id="_845" class="st3" d="M152.2,343.8c3.4,0,6.8-0.4,10.1-0.1c3.9,0.8,5.2,5,6.8,8.1c2.4,4.2,4.3,8.7,5.6,13.4l0.2,0.5"/>
			<path id="_846" class="st3" d="M146.2,343.3l-3.5-0.1l-3.4-0.1l-3.5-0.1l-3.5-0.1"/>
			<path id="_847" class="st3" d="M152.2,337.6v6.4"/>
			<path id="_848" class="st3" d="M146.2,344.2v-6.6"/>
			<path id="_849" class="st3" d="M118.7,342.8l-0.3,5.4"/>
			<path id="_850" class="st3" d="M120.9,352.5c0.2,0.6,0.5,1.1,1,1.5c0.5,0.3,1,0.6,1.5,0.8c0.4,0.1,0.8,0.1,1.2,0.2
				c0.5,0,0.9,0,1.4-0.1c0.6-0.1,1.1-0.2,1.7-0.4c1.2-0.4,2.4-0.8,3.7-1c0.6-0.1,1.2-0.2,1.7-0.5c0.3-0.2,0.6-0.2,0.8-0.4
				c0.4-0.2,0.8-0.5,1.1-0.8s0.5-0.6,0.5-1c0-0.5-0.1-0.9-0.3-1.3c-0.3-0.5-0.6-1-1-1.4s-0.9-0.8-1.3-1.2s-0.9-0.6-1.3-0.9
				s-0.8-0.4-1.3-0.6s-0.9-0.3-1.4-0.3c-0.6-0.1-1.1-0.1-1.7,0c-0.8,0.1-1.5,0.4-2.2,0.7c-0.5,0.1-0.8,0.5-1.2,0.7
				c-0.3,0.2-0.6,0.5-0.8,0.8c-0.3,0.3-0.5,0.6-0.7,1c-0.4,0.7-0.8,1.4-1.2,2.2c-0.1,0.4-0.2,0.8-0.2,1.2
				C120.7,351.9,120.9,352.1,120.9,352.5L120.9,352.5z"/>
			<path id="_851" class="st3" d="M118.4,348.2c-0.3,0.2-0.2,0.6-0.3,0.8c0,0.5,0,1,0.2,1.5c0.2,0.2,0.3,0.5,0.5,0.7
				s0.6,0.5,0.9,0.8c0.5,0.2,0.8,0.7,1.2,0.9l0.2,0.2"/>
			<path id="_853" class="st3" d="M159.7,375.9h4.1"/>
			<path id="_854" class="st3" d="M126.1,360.5c-0.9,0.5-1.7,1.1-2.4,1.8c-0.5,0.4-0.9,1-1.1,1.6c-0.4,0.7,0.3,1.3,1,1.3
				c0.6,0,1.2-0.1,1.8-0.2c0.7-0.2,1.3-0.5,1.9-0.8c0.2-0.1,0.5-0.3,0.7-0.4"/>
			<path id="_855" class="st3" d="M122.6,364.6l-2.1-3.6"/>
			<path id="_856" class="st3" d="M126.1,360.5c0.7-0.5,1.5-0.9,2.3-1.1c0.8-0.3,1.7-0.3,2.5-0.2c0.7,0.1,0.6,1,0.4,1.5
				c-0.4,0.6-0.8,1.1-1.3,1.6l-1.5,1.2c-0.2,0.1-0.4,0.2-0.6,0.4"/>
			<path id="_857" class="st3" d="M131.4,359.5l-2-3.6"/>
			<path id="_858" class="st3" d="M114.8,347.5c0.3,0.7,0.6,1.4,1,2.1l1.8,3c0.5,0.8,1,1.6,1.7,2.3c0.5,0.6,1,1.2,1.5,1.7l1.6,1.6"
				/>
			<path id="_859" class="st3" d="M117.5,362.2l0.9,0.8"/>
			<path id="_860" class="st3" d="M137,345.8v7.6"/>
			<path id="_861" class="st3" d="M153.1,346.8l0.1-0.4l-0.1-0.4l-0.1-0.4l-0.1-0.4l-0.1-0.4l-0.2-0.4l-0.2-0.4l-0.3-0.3l-0.3-0.3
				l-0.4-0.3l-0.3-0.2l-0.4-0.1l-0.4-0.1l-0.4-0.1l-0.4-0.1h-0.8l-0.4,0.1l-0.4,0.1l-0.4,0.1l-0.4,0.2l-0.4,0.2l-0.3,0.3l-0.3,0.3
				l-0.3,0.3l-0.2,0.4l-0.1,0.4l-0.1,0.4l-0.1,0.4"/>
			<path id="_862" class="st3" d="M153.1,346.8l-1.5-0.3l-1.6-0.3l-1.6-0.2l-1.6-0.1l-1.6-0.1l-1.6-0.1l-1.7-0.1h-1.6l-1.6,0.1
				l-1.6,0.1"/>
			<path id="_863" class="st3" d="M153.1,346.8c0,0.7-0.1,1.4-0.1,2.1s-0.2,1.5-0.3,2.2c-0.2,1.2-0.4,2.4-0.8,3.5
				c-0.1,0.8-0.4,1.5-0.7,2.2c-0.1,0.4-0.3,0.7-0.4,1.1"/>
			<path id="_864" class="st3" d="M153.1,346.8c0.8-0.3,1.7-0.5,2.6-0.7c1-0.2,1.9-0.3,2.9-0.3h1.4"/>
			<path id="_865" class="st3" d="M93.3,372.6c-2.8,1.9-4.5,5-4.5,8.4"/>
			<path id="_866" class="st3" d="M95.7,381c0-3-0.8-5.9-2.4-8.4"/>
			<path id="_867" class="st3" d="M95.2,381v-0.4l-0.1-0.3L95,380l-0.1-0.3l-0.2-0.3l-0.2-0.3l-0.2-0.2l-0.3-0.1l-0.3-0.1l-0.3-0.1
				l-0.4-0.1l-0.3-0.1l-0.4,0.1l-0.3,0.1l-0.3,0.1l-0.3,0.1l-0.3,0.1l-0.2,0.2l-0.2,0.3l-0.2,0.3l-0.1,0.3l-0.1,0.3l-0.1,0.3
				l-0.1,0.4"/>
			<path id="_868" class="st3" d="M94.2,381v-0.3l-0.1-0.2l-0.1-0.2l-0.1-0.2l-0.2-0.2l-0.2-0.1l-0.2-0.1l-0.3-0.1l-0.2-0.1
				l-0.3,0.1l-0.2,0.1l-0.2,0.1l-0.2,0.1l-0.2,0.2l-0.1,0.2l-0.1,0.2l-0.1,0.2v0.3"/>
			<path id="_869" class="st3" d="M101.2,381v-0.4c-0.1-0.1-0.1-0.3-0.1-0.4l-0.3-0.3c-0.1-0.1-0.1-0.2-0.2-0.2s-0.2-0.1-0.3-0.2
				s-0.2-0.1-0.4-0.1h-0.5c-0.2,0-0.3,0.1-0.5,0.2s-0.2,0-0.2,0.1s-0.1,0.2-0.2,0.2s-0.1,0.1-0.2,0.2s-0.1,0.3-0.2,0.4
				s-0.1,0.2,0,0.3v0.1"/>
			<path id="_870" class="st3" d="M107.5,373.9c-2.3,1.7-3.6,4.3-3.6,7.1"/>
			<path id="_871" class="st3" d="M107.5,373.9v7.1"/>
			<path id="_872" class="st3" d="M113.1,367.2l1.1-1.5l1.1-1.4l1.1-1.5"/>
			<path id="_873" class="st3" d="M113.1,367.2c0-0.3-0.1-0.6-0.2-0.9c0-0.3-0.1-0.7-0.2-1c0-0.3,0-0.5,0.1-0.8s0.2-0.6,0.4-0.8
				c0.1-0.2,0.3-0.4,0.6-0.5c0.2-0.2,0.6-0.4,0.9-0.4c0.2,0,0.4,0,0.6-0.1c0.2,0,0.5,0,0.7,0.1h0.4"/>
			<path id="_874" class="st3" d="M163.3,354.4h1.9"/>
			<path id="_875" class="st3" d="M166.6,361.8h1.5"/>
			<path id="_876" class="st3" d="M162.4,354.7l0.2,0.4l0.3,0.4l0.4,0.8l0.5,0.8l0.4,0.8l0.5,0.8l0.4,0.8l0.2,0.4l0.2,0.4l0.2,0.5
				l0.2,0.4"/>
			<path id="_877" class="st3" d="M173.9,368.3c-0.1-0.3,0-0.6-0.2-0.8s-0.2-0.5-0.5-0.7s-0.4-0.4-0.6-0.4c-0.6-0.2-1.2-0.1-1.7,0.2
				c-0.1,0.2-0.4,0.3-0.5,0.5s-0.2,0.5-0.3,0.7c-0.1,0.4,0,0.9,0.2,1.3c0.1,0.2,0.2,0.5,0.5,0.6c0.2,0.2,0.5,0.3,0.8,0.4
				c0.4,0.1,0.9,0,1.3-0.1c0.2-0.2,0.5-0.4,0.6-0.6c0.2-0.2,0.3-0.5,0.3-0.8C173.8,368.5,173.9,368.4,173.9,368.3L173.9,368.3z"/>
			<path id="_878" class="st3" d="M175.1,368.3c0-0.6-0.2-1.3-0.5-1.8c-0.5-0.7-1.3-1.2-2.2-1.4c-0.6-0.1-1.2,0-1.8,0.3
				c-0.4,0.2-0.8,0.5-1.1,0.8c-0.4,0.5-0.6,1.1-0.7,1.7c0,0.5,0,0.9,0.1,1.4c0.2,0.5,0.5,1,1,1.4c0.4,0.3,0.8,0.5,1.3,0.7
				c0.6,0.1,1.3,0.1,1.9-0.1c0.7-0.3,1.2-0.8,1.6-1.4C174.9,369.4,175.1,368.9,175.1,368.3z"/>
			<path id="_879" class="st3" d="M176,370.5c0.3-0.1,0.6-0.2,0.9-0.4c0.2-0.3,0.5-0.5,0.7-0.8c0.1-0.2,0.2-0.5,0.3-0.7
				c0-0.2,0.1-0.4,0-0.6c0-0.2,0-0.5-0.1-0.7c-0.2-0.4-0.4-0.7-0.6-1c-0.2-0.1-0.3-0.3-0.6-0.4s-0.5-0.1-0.8-0.2"/>
			<path id="_880" class="st3" d="M172.5,365.1l3.4,0.6"/>
			<path id="_881" class="st3" d="M172.7,371.3l3.4-0.8"/>
			<path id="_882" class="st3" d="M176.3,370.4l0.1,0.3"/>
			<path id="_883" class="st3" d="M119.5,355.2l2.7-1.3"/>
			<path id="_884" class="st3" d="M116.2,350.5c-1.9,0.9-3.8,1.9-5.5,3.2"/>
			<path id="_885" class="st3" d="M118.3,353.6c-1.8,1-3.6,2.1-5.2,3.4"/>
			<path id="_886" class="st3" d="M168.7,361.3c0-0.3,0.1-0.5,0.1-0.8v-1.1c0-0.4-0.1-0.7-0.2-1.1l-0.3-0.9
				c-0.1-0.2-0.1-0.4-0.2-0.5c-0.2-0.3-0.4-0.5-0.5-0.8c-0.2-0.3-0.4-0.6-0.7-0.8c-0.1-0.1-0.3-0.2-0.4-0.3"/>
			<path id="_887" class="st3" d="M165.2,354.4h0.1l0.2,0.1h0.1l0.1,0.1l0.1,0.1l0.1,0.1l0.1,0.1l0.1,0.1"/>
			<path id="_888" class="st3" d="M168.7,361.3l-0.1,0.1v0.1l-0.1,0.1l-0.1,0.1l-0.1,0.1h-0.1l-0.1,0.1H168"/>
			<path id="_889" class="st3" d="M162.4,354.7L162.4,354.7l-0.1-0.1l0.1-0.1h0.1l0.1-0.1h0.1l0.1-0.1h0.5"/>
			<path id="_890" class="st3" d="M165.9,361.5L165.9,361.5l0.1,0.1l0.1,0.1l0.1,0.1h0.1l0.1,0.1h0.2"/>
			<path id="_891" class="st3" d="M194.3,381c0-2.2-0.4-4.4-1.2-6.5c-0.8-2.3-2.1-4.3-3.7-6.1c-0.9-1-2-1.9-3.1-2.7"/>
			<path id="_892" class="st3" d="M182.8,372.7h8.3"/>
			<path id="_893" class="st3" d="M182.8,371.7h7.7"/>
			<path id="_894" class="st3" d="M169.6,352.6l0.7,0.8l0.7,0.9l0.7,0.8l0.7,0.9"/>
			<path id="_895" class="st3" d="M172.2,355.9l0.3,0.2"/>
			<path id="_896" class="st3" d="M193.2,381c0-2.2-0.4-4.4-1.2-6.5c-0.7-1.7-1.6-3.2-2.8-4.6c-1-1.2-2.2-2.3-3.5-3.2"/>
			<path id="_897" class="st3" d="M176.1,360l9.6,6.7"/>
			<path id="_898" class="st3" d="M191.6,381c-0.1-2.6-1.4-5-3.5-6.5"/>
			<path id="_899" class="st3" d="M172.2,355.9l0.2,0.2"/>
			<path id="_900" class="st3" d="M182.8,371.7v11.4"/>
			<path id="_901" class="st3" d="M157.8,360.3l-0.8-0.8l-0.8-0.7l-0.8-0.6l-0.8-0.6l-0.9-0.6l-0.9-0.6l-1-0.6"/>
			<path id="_902" class="st3" d="M157.8,360.3l-0.8,0.8"/>
			<path id="_903" class="st3" d="M118.4,348.2l-0.8,0.1l-0.7,0.2l-0.8,0.2l-0.7,0.3"/>
			<path id="_904" class="st3" d="M115.5,349c-1.9,0.9-3.8,1.9-5.5,3.2"/>
			<path id="_905" class="st3" d="M87.1,381V269.9"/>
			<path id="_906" class="st3" d="M87.1,269.9l33.3-248.1"/>
			<path id="_907" class="st3" d="M125.9,22.4L109.8,265"/>
			<path id="_908" class="st3" d="M109.9,265l2.9,71.6"/>
			<path id="_909" class="st3" d="M112.8,336.5c0,0.8,0.2,1.7,0.4,2.5c0.4,1.1,1,2.2,1.8,3.1c0.6,0.6,1.2,1.2,1.9,1.6
				c1.1,0.7,2.3,1.1,3.5,1.3"/>
			<path id="_910" class="st3" d="M114.8,347.5c0.7-0.4,1.5-0.7,2.3-1.1s1.6-0.8,2.5-1.1c1-0.4,2-0.8,3.1-1.2s2-0.7,3-0.9
				c0.2,0,0.3-0.1,0.5-0.1"/>
			<path id="_911" class="st3" d="M88.9,256.2h21.5"/>
			<path id="_912" class="st3" d="M87.6,266H110"/>
			<path id="_914" class="st3" d="M125.9,22.4c0.1-1.3,0.2-2.7,0.3-4c0.2-2.3,0.2-4.6,0.4-6.9c0.1-2.6,0-5.3-0.2-7.9
				c0-0.7-0.3-1.4-0.3-2.2c-0.1-0.6-0.8-1.4-1.3-0.5c-0.5,0.8-0.9,1.7-1.1,2.6c-0.4,1.3-0.8,2.6-1,4c-0.4,1.4-0.6,2.8-0.8,4.2
				c-0.3,1.3-0.4,2.5-0.6,3.8c-0.2,1.6-0.5,3.2-0.6,4.9c-0.1,0.5-0.2,1-0.2,1.5"/>
			<path id="_915" class="st3" d="M125.2,1.2L125.2,1.2L125,1.3l-0.1,0.1l-0.1,0.1l-0.1,0.2l-0.1,0.1L124.5,2l-0.1,0.2l-0.1,0.3
				l-0.1,0.2L124.1,3L124,3.4l-0.1,0.3L123.8,4v0.4l0.2,0.2v1.6l0.1,0.3v0.3l0.1,0.2v0.2l0.1,0.1l0.1,0.2l0.1,0.1l0.1,0.1l0.1,0.1
				h0.3l0.1-0.1l0.1-0.1l0.1-0.1l0.1-0.1l0.1-0.2l0.1-0.1l0.1-0.2l0.1-0.3l0.1-0.2l0.1-0.3l0.1-0.3l0.1-0.3l0.1-0.4V4.8l0.1-0.4V2.5
				l-0.1-0.3V2l-0.1-0.2V1.6l-0.1-0.1L126,1.4l-0.1-0.1l-0.1-0.1L125.2,1.2z"/>
			<path id="_916" class="st3" d="M123.5,41.3l-12.6,159.5"/>
			<path id="_917" class="st3" d="M110.3,201.3l-11.6-0.6"/>
			<path id="_918" class="st3" d="M98.2,200.1l20.3-159.5"/>
			<path id="_919" class="st3" d="M119.1,40.1l3.9,0.5"/>
			<path id="_920" class="st3" d="M123.5,41.3L123.5,41.3l-0.1-0.2l-0.1-0.1l-0.1-0.1l-0.1-0.1H123"/>
			<path id="_921" class="st3" d="M119.1,40.1h-0.2l-0.1,0.1l-0.1,0.1l-0.1,0.1l-0.1,0.1"/>
			<path id="_922" class="st3" d="M110.3,201.3L110.3,201.3l0.2-0.1l0.1-0.1l0.1-0.1l0.1-0.1l0.1-0.1"/>
			<path id="_923" class="st3" d="M98.2,200.1v0.1l0.1,0.1l0.1,0.1l0.1,0.1h0.1l0.1,0.1"/>
			<path id="_924" class="st3" d="M87.6,266l2.5,110.2"/>
			<path id="_925" class="st3" d="M88.3,365.3h1.1v10.2h-1.1V365.3z"/>
			<path id="_926" class="st3" d="M93.8,371.1c-0.9-2.8-1.8-5.5-2.9-8.2c-0.3-0.8-0.5-1.7-0.7-2.6c-0.3-2.7-0.3-5.4-0.2-8.1
				c-0.1-1.8,0-3.6-0.1-5.4c0.1-1.6,0.1-3.1,0.3-4.7c0.1-1.1,0.4-2.2,0.7-3.3c0.4-1.3,1-2.5,1.9-3.5c0.6-0.8,1.3-1.4,2.2-1.8
				c0.9-0.5,1.9-0.6,2.9-0.5c1.2,0.1,2.4,0.4,3.6,0.8c1.7,0.4,3.4,0.6,5.1,0.6c1.7,0.2,3.4,0,5.1,0.2h1.1"/>
			<path id="_927" class="st3" d="M100.4,342c-0.2-0.9-0.8-1.7-1.5-2.2c-0.6-0.3-1.2-0.6-1.9-0.7c-0.7-0.1-1.4,0.1-2,0.4
				c-0.6,0.2-1,0.5-1.4,1c-0.7,0.8-1.1,1.8-1.1,2.9v0.3"/>
			<path id="_928" class="st3" d="M93.5,354.5l-1.1-10.9"/>
			<path id="_929" class="st3" d="M102.4,348.1l-2-6.1"/>
			<path id="_930" class="st3" d="M93.5,354.5c0.2,0.6,0.2,1.3,0.4,1.9c0.4,1.2,0.9,2.2,1.7,3.2c0.5,0.6,1,1.1,1.6,1.5"/>
			<path id="_931" class="st3" d="M102.4,348.1c0.2,0.8,0.5,1.5,1,2.1c0.5,0.7,1.1,1.3,1.8,1.9l0.9,0.6"/>
			<path id="_932" class="st3" d="M93.3,351.1c0,0.7,0.3,1.4,0.6,2c0.3,0.5,0.7,0.9,1.1,1.3s1,0.7,1.6,0.9c0.8,0.2,1.7,0.3,2.6,0.1
				c1-0.3,1.8-0.8,2.5-1.5c0.3-0.4,0.6-0.9,0.9-1.4c0.1-0.3,0.2-0.7,0.3-1.1c0.1-0.7,0-1.5-0.2-2.2c-0.1-0.1-0.1-0.2-0.2-0.4"/>
			<path id="_933" class="st3" d="M67.3,381v-24.4"/>
			<path id="_934" class="st3" d="M69.9,381v-21.9"/>
			<path id="_935" class="st3" d="M72.2,381v-22.5"/>
			<path id="_936" class="st3" d="M81.8,381v-24.1"/>
			<path id="_937" class="st3" d="M82.7,381v-24.1"/>
			<path id="_938" class="st3" d="M73.8,356.9H87"/>
			<path id="_939" class="st3" d="M73.4,355.5h13.7"/>
			<path id="_940" class="st3" d="M71.1,352.4l16-2"/>
			<path id="_941" class="st3" d="M73.8,356.9l-0.3,0.1l-0.2,0.1l-0.2,0.1l-0.2,0.1l-0.2,0.1l-0.1,0.2l-0.1,0.2l-0.1,0.2l-0.1,0.3
				v0.2"/>
			<path id="_942" class="st3" d="M73.4,355.5H73l-0.4,0.1l-0.4,0.1l-0.4,0.1l-0.4,0.2l-0.3,0.2l-0.4,0.3l-0.2,0.3l-0.3,0.4
				l-0.1,0.4l-0.2,0.4l-0.1,0.4l-0.1,0.4v0.4"/>
			<path id="_943" class="st3" d="M71.1,352.4c-0.3,0.1-0.6,0.1-0.9,0.2l-0.6,0.3c-0.3,0.1-0.5,0.3-0.7,0.5
				c-0.3,0.2-0.5,0.4-0.7,0.7c-0.2,0.2-0.3,0.4-0.4,0.6c-0.1,0.3-0.2,0.6-0.3,0.9c-0.1,0.4-0.2,0.8-0.2,1.2"/>
			<path id="_944" class="st3" d="M79.9,351.7v2.7H87"/>
			<path id="_945" class="st3" d="M81.3,352.1v1.5h5.1v-2.1"/>
			<path id="_946" class="st3" d="M79.9,351.7l7.1-0.8"/>
			<path id="_947" class="st3" d="M81.3,352.1l5.1-0.6"/>
			<path id="_948" class="st3" d="M105.1,105.9v-0.2l-0.1-0.2l-0.1-0.2l-0.1-0.2l-0.2-0.2l-0.2-0.1l-0.2-0.1l-0.2-0.1h-0.5l-0.2,0.1
				l-0.2,0.1l-0.2,0.1l-0.2,0.2l-0.1,0.2l-0.1,0.2l-0.1,0.2v0.5l0.1,0.2l0.1,0.2l0.1,0.2l0.2,0.2l0.2,0.1l0.2,0.1l0.2,0.1h0.5
				l0.2-0.1l0.2-0.1l0.2-0.1l0.2-0.2l0.1-0.2l0.1-0.2l0.1-0.2V105.9z"/>
			<path id="_949" class="st3" d="M104.6,105.9L104.6,105.9l-0.1-0.3l-0.1-0.1l-0.1-0.1l-0.1-0.1l-0.2-0.1h-0.3l-0.2,0.1l-0.1,0.1
				l-0.1,0.1l-0.1,0.1l-0.1,0.2v0.3l0.1,0.2l0.1,0.1l0.1,0.1l0.1,0.1l0.2,0.1h0.3l0.2-0.1l0.1-0.1l0.1-0.1l0.1-0.1l0.1-0.2V105.9z"
				/>
			<path id="_950" class="st3" d="M105,105.4h4.2"/>
			<path id="_951" class="st3" d="M105,106.6h4.1"/>
			<path id="_952" class="st3" d="M40.1,286.1H8.3"/>
			<path id="_953" class="st3" d="M8.3,269.9c-1.8,0.1-3.5,0.6-4.9,1.6c-2.1,1.6-3.3,4.2-3.2,6.9c0.2,3.1,2.1,5.8,4.9,7
				c1,0.4,2,0.7,3.1,0.7"/>
			<path id="_954" class="st3" d="M40.1,286.1c3.1,0,5.8-1.8,7.2-4.5c1.1-2.2,1.1-4.7,0.1-6.9c-1.3-2.8-4-4.6-7-4.7h-0.3"/>
			<path id="_955" class="st3" d="M8.3,269.9h31.8"/>
			<path id="_956" class="st3" d="M109.9,264h1.2v-2.2H110"/>
			<path id="_957" class="st3" d="M139.3,343l2.5-88.7"/>
			<path id="_958" class="st3" d="M144.8,254.3l4,80.3"/>
			<path id="_959" class="st3" d="M141.8,254.3h2.9"/>
			<path id="_960" class="st3" d="M144.8,254.6v-1.2l-0.1-0.6v-0.6l-0.1-0.6V251l-0.1-0.6v-0.6l-0.1-0.5v-0.5l-0.1-0.5l-0.1-0.5
				l-0.1-0.4L144,247v-0.4l-0.1-0.4l-0.1-0.4l-0.1-0.4l-0.1-0.3l-0.1-0.3l-0.1-0.3l-0.1-0.2l-0.1-0.2l-0.1-0.1l-0.1-0.1l-0.1-0.1
				l-0.1-0.1h-0.1l-0.1-0.1l-0.1,0.1h0.5l-0.1,0.1l-0.1,0.1l-0.1,0.1l-0.1,0.1l-0.1,0.2l-0.1,0.2l-0.1,0.3l-0.1,0.3l-0.1,0.3
				l-0.1,0.4v0.4l-0.1,0.4l-0.1,0.4l-0.1,0.4v0.4l-0.1,0.5l-0.1,0.5v0.5l-0.1,0.5v1.2l-0.1,0.6v1.8l-0.1,0.6v0.6"/>
			<path id="_961" class="st3" d="M193.6,375.9l53.1,3.9"/>
			<path id="_962" class="st3" d="M247.8,381l-0.1-0.2v-0.2l-0.1-0.2l-0.1-0.2l-0.1-0.1l-0.2-0.1l-0.2-0.1l-0.2-0.1"/>
			<path id="_963" class="st3" d="M0.2,303v-50.1"/>
			<path id="_964" class="st3" d="M111.4,381c0,14.6,11.9,26.4,26.5,26.4c14.6,0,26.4-11.9,26.4-26.5l0,0"/>
			<path id="_965" class="st3" d="M119,381c0,10.4,8.4,18.8,18.7,18.8c7.1,0,13.6-4,16.8-10.3c1.4-2.7,2.1-5.6,2.1-8.6"/>
			<path id="_966" class="st3" d="M176.3,391.5c0.9-3.4,1.4-7,1.4-10.5"/>
			<path id="_967" class="st3" d="M135.1,422.7V413"/>
			<path id="_968" class="st3" d="M93.3,389.4l0.5,1.3l0.5,1.3l0.6,1.3l0.6,1.3l0.6,1.3l0.7,1.3l0.7,1.2l0.8,1.2l0.8,1.2l0.8,1.1
				l0.8,1.1l0.9,1.1l0.9,1.1l1,1.1l1,1l1.1,1l1.1,0.9l1.1,0.9l1.1,0.8l1.1,0.8l1.1,0.8l1.2,0.8l1.3,0.8l1.2,0.6"/>
			<path id="_969" class="st3" d="M118.4,413.9c1.9,2.4,4.5,4.1,7.4,5c2.1,0.8,4.4,0.9,6.6,0.2c1-0.1,1.9-0.5,2.7-1.2"/>
			<path id="_970" class="st3" d="M117.5,399.7c8.6,9.7,24.3,11.8,35.2,4.7c8-5.1,12.8-13.9,12.8-23.4"/>
			<path id="_971" class="st3" d="M146.2,424.4c0,0.6,0.2,1.1,0.4,1.6c0.2,0.4,0.5,0.7,0.9,0.9c0.3,0.3,0.7,0.4,1.1,0.5
				c0.6,0.1,1.2,0.1,1.7-0.2c0.5-0.2,1-0.6,1.3-1.1s0.4-1,0.5-1.6v-0.1"/>
			<path id="_972" class="st3" d="M152.2,418.2c3.3-0.1,6.6,0.3,9.9,0.1c2.9-0.5,4.7-3.2,5.8-5.8c2.2-4.5,4.9-8.9,6.3-13.8
				c0.3-0.8,0.5-1.5,0.7-2.3"/>
			<path id="_973" class="st3" d="M132.3,419.2l3.5-0.1l3.5-0.1l3.4-0.1l3.5-0.1"/>
			<path id="_974" class="st3" d="M152.2,424.4V418"/>
			<path id="_975" class="st3" d="M146.2,417.8v6.6"/>
			<path id="_976" class="st3" d="M118.7,419.3l-0.3-5.4"/>
			<path id="_977" class="st3" d="M120.9,409.6c0.5-1.9,2.7-2.7,4.5-2.4c2,0.2,3.8,1.3,5.8,1.5c1.6,0.3,3.6,0.9,4.1,2.7
				c0,1.7-1.5,3-2.7,4c-2.3,2-5.7,2.3-8.3,0.7c-1.7-1.2-2.9-2.9-3.4-4.9C120.8,410.7,120.8,410.1,120.9,409.6z"/>
			<path id="_978" class="st3" d="M118.4,413.9c-0.9-1.6,0.3-3.3,1.7-4.1c0.4-0.3,0.7-0.6,1.1-0.9"/>
			<path id="_979" class="st3" d="M158.6,385c2,3.4,2.7-2.1,2.7-3.8s-0.6-7.7-2.7-4.3c-0.5,1.3-0.8,2.7-0.7,4.1
				C157.8,382.4,158.1,383.7,158.6,385z"/>
			<path id="_980" class="st3" d="M159.7,386.1h4.1"/>
			<path id="_981" class="st3" d="M125.3,397.2c-4.3-1.5-3.1,2.5,0.9,4.4c4,1.9,6.8,1.5,4.7-0.9c-0.8-1-1.8-1.8-2.9-2.3
				C127.2,397.8,126.2,397.4,125.3,397.2z"/>
			<path id="_982" class="st3" d="M122.6,397.4l-2.1,3.6"/>
			<path id="_984" class="st3" d="M131.4,402.5l-2,3.6"/>
			<path id="_985" class="st3" d="M122.3,403.9c-1.6,1.5-3,3.1-4.3,4.8c-0.7,1-1.3,2.1-2,3.2c-0.5,0.8-0.8,1.8-1.3,2.6"/>
			<path id="_986" class="st3" d="M117.5,399.7l0.9-0.8"/>
			<path id="_987" class="st3" d="M137,416.3v-7.7"/>
			<path id="_988" class="st3" d="M145.6,416.2c0.4,2.1,2.4,3.4,4.4,3.1c0.5-0.1,0.9-0.2,1.3-0.5c1.2-0.7,2-2.2,1.8-3.6"/>
			<path id="_989" class="st3" d="M137,416.3c2.5,0.2,5.1,0.2,7.6,0s5-0.5,7.4-0.9c0.4-0.1,0.8-0.1,1.2-0.2"/>
			<path id="_990" class="st3" d="M153.1,415.2c0-1.4-0.1-2.9-0.4-4.3c-0.2-1.7-0.6-3.4-1.2-5c-0.2-0.6-0.5-1.2-0.8-1.8"/>
			<path id="_991" class="st3" d="M153.1,415.2c0.6,0.1,1.1,0.3,1.7,0.4c0.4,0.1,0.7,0.2,1.1,0.2c0.7,0.2,1.3,0.2,2,0.2
				s1.4,0.1,2.1,0.1"/>
			<path id="_992" class="st3" d="M88.8,381v0.6l0.1,0.7l0.1,0.6l0.1,0.6l0.2,0.6l0.2,0.6l0.3,0.6l0.3,0.6l0.4,0.6l0.4,0.6l0.4,0.5
				l0.4,0.5l0.5,0.4l0.5,0.4l0.6,0.4"/>
			<path id="_993" class="st3" d="M93.3,389.4c1.6-2.5,2.4-5.4,2.4-8.4"/>
			<path id="_994" class="st3" d="M90.4,381l0.1,0.3l0.1,0.4l0.1,0.3l0.1,0.3l0.2,0.3l0.2,0.2l0.2,0.2l0.3,0.2l0.3,0.1l0.3,0.1
				l0.3,0.1h0.7l0.4-0.1l0.3-0.1l0.3-0.1l0.3-0.2l0.2-0.2l0.2-0.2l0.2-0.3l0.1-0.3l0.1-0.3l0.1-0.4V381"/>
			<path id="_995" class="st3" d="M91.4,381v0.2l0.1,0.3l0.1,0.2l0.1,0.2l0.2,0.1l0.2,0.1l0.2,0.1l0.2,0.1H93l0.3-0.1l0.2-0.1
				l0.2-0.1l0.2-0.1l0.1-0.2l0.1-0.2l0.1-0.3V381"/>
			<path id="_996" class="st3" d="M98.1,381v0.4c0,0.2,0.1,0.3,0.2,0.5s0.3,0.3,0.4,0.4s0.2,0.1,0.3,0.2s0.5,0.1,0.7,0.2
				s0.2-0.1,0.3-0.1c0.2,0,0.4-0.1,0.5-0.2s0.2-0.1,0.3-0.2s0.2-0.3,0.3-0.4c0.1-0.2,0.1-0.3,0.1-0.5v-0.2"/>
			<path id="_997" class="st3" d="M103.9,381c0,2.8,1.3,5.4,3.6,7"/>
			<path id="_998" class="st3" d="M107.5,388v-7"/>
			<path id="_999" class="st3" d="M116.3,399.2l-1.1-1.5l-1.1-1.5l-1.1-1.4"/>
			<path id="_1000" class="st3" d="M113.1,394.9c-0.1,0.4-0.2,0.9-0.3,1.3c-0.1,0.3-0.2,0.7-0.1,1c0,0.3,0.1,0.5,0.2,0.8
				c0.2,0.2,0.3,0.5,0.5,0.7s0.5,0.4,0.8,0.5s0.6,0.3,0.9,0.2c0.4,0,0.8,0,1.2-0.1"/>
			<path id="_1001" class="st3" d="M160,404.4h1.9"/>
			<path id="_1002" class="st3" d="M163.3,396.9h1.5"/>
			<path id="_1003" class="st3" d="M159.1,404l0.2-0.4l0.3-0.4l0.4-0.8l0.5-0.8l0.4-0.8l0.5-0.8l0.4-0.8l0.2-0.5l0.2-0.4l0.2-0.4
				l0.2-0.4"/>
			<path id="_1004" class="st4" d="M173.9,393.8c0-0.4-0.2-0.9-0.5-1.2c-0.3-0.3-0.7-0.6-1.1-0.7c-0.4-0.1-0.9,0-1.3,0.1
				c-0.6,0.3-1,0.8-1.1,1.5c0,0.5,0.1,0.9,0.3,1.3s0.6,0.7,1,0.8c0.4,0.1,0.9,0.1,1.3,0c0.4-0.2,0.7-0.4,0.9-0.8
				C173.9,394.5,173.8,394.1,173.9,393.8L173.9,393.8z"/>
			<path id="_1005" class="st3" d="M175.1,393.8c0-0.7-0.3-1.3-0.6-1.9c-0.5-0.7-1.3-1.1-2.1-1.3c-0.7-0.1-1.4,0.1-2,0.5
				c-0.4,0.2-0.8,0.6-1,1c-0.3,0.5-0.5,1.1-0.5,1.7c0,1,0.4,2,1.3,2.6c0.5,0.4,1.2,0.6,1.8,0.6c0.8,0,1.6-0.3,2.2-0.9
				c0.5-0.6,0.9-1.2,1-2v-0.2C175.1,393.9,175.1,393.9,175.1,393.8L175.1,393.8L175.1,393.8z"/>
			<path id="_1006" class="st3" d="M175.9,396.4c0.5-0.1,0.9-0.3,1.3-0.6c0.5-0.4,0.8-1,0.8-1.7c0-0.3,0-0.6-0.1-0.9
				c-0.1-0.4-0.4-0.8-0.7-1.1c-0.2-0.2-0.5-0.4-0.8-0.4c-0.1,0-0.1,0-0.2-0.1"/>
			<path id="_1007" class="st3" d="M172.5,396.9c1.1-0.2,2.3-0.3,3.4-0.5"/>
			<path id="_1008" class="st3" d="M172.7,390.7l3.4,0.8"/>
			<path id="_1009" class="st3" d="M176.3,391.5l0.1-0.3"/>
			<path id="_1010" class="st3" d="M119.5,406.8c0.9,0.5,1.8,0.9,2.7,1.4"/>
			<path id="_1011" class="st3" d="M110.8,408.4l0.8,0.6l0.9,0.6l0.9,0.6l0.9,0.5l1,0.5l0.9,0.4"/>
			<path id="_1012" class="st3" d="M113.1,405l1.3,0.9l1.3,0.8l1.3,0.8l1.3,0.8"/>
			<path id="_1013" class="st3" d="M163.1,403.8c0.4-0.3,0.8-0.7,1-1.2c0.3-0.5,0.6-1,0.8-1.5s0.4-1,0.4-1.5
				c0.1-0.4,0.1-0.7,0.1-1.1s0-0.8-0.1-1.2"/>
			<path id="_1014" class="st3" d="M161.9,404.4l0.1-0.1h0.2l0.1-0.1l0.1-0.1l0.1-0.1l0.1-0.1l0.1-0.1l0.1-0.1"/>
			<path id="_1015" class="st3" d="M165.4,397.4L165.4,397.4l-0.1-0.1l-0.1-0.1l-0.1-0.1L165,397l-0.1-0.1l0,0"/>
			<path id="_1016" class="st3" d="M159.1,404L159.1,404l-0.1,0.1h0.1l0.1,0.1h0.1l0.1,0.1h0.3l0.2,0.1h0.2"/>
			<path id="_1017" class="st3" d="M162.6,397.3L162.6,397.3l0.1-0.1l0.1-0.1l0.1-0.1l0.1-0.1h0.3"/>
			<path id="_1018" class="st3" d="M186.4,396.2c1.8-1.3,3.4-2.9,4.7-4.8c1.5-2.2,2.5-4.8,3-7.4c0.1-1,0.2-2,0.2-3"/>
			<path id="_1019" class="st3" d="M182.8,389.4h8.3"/>
			<path id="_1020" class="st3" d="M182.8,390.3h7.7"/>
			<path id="_1021" class="st3" d="M169.6,409.4c3.7-4.5,7.3-9.3,9.5-14.8c1.8-4.3,2.5-9,2.3-13.6"/>
			<path id="_1022" class="st3" d="M172.2,406l14.2-9.8"/>
			<path id="_1023" class="st3" d="M185.7,395.3c2-1.4,3.7-3.3,5-5.4c1.6-2.6,2.4-5.5,2.5-8.5V381"/>
			<path id="_1024" class="st3" d="M176.1,402l9.6-6.7"/>
			<path id="_1025" class="st3" d="M188.2,387.5c1.7-1.2,2.9-3,3.3-5.1c0.1-0.4,0-0.9,0.1-1.3"/>
			<path id="_1026" class="st3" d="M172.2,406c1.7-1.6,3.3-3.4,4.8-5.3c1.7-2,3.1-4.2,4.3-6.5c0.6-1.1,1-2.4,1.2-3.6
				c0-0.1,0.1-0.2,0.1-0.3"/>
			<path id="_1027" class="st3" d="M182.8,390.3v-11.4"/>
			<path id="_1028" class="st3" d="M151.6,406.3l1-0.6l0.9-0.6l0.9-0.6l0.8-0.6l0.8-0.7l0.8-0.7l0.8-0.7"/>
			<path id="_1029" class="st3" d="M157.8,401.8L157,401"/>
			<path id="_1030" class="st3" d="M115.5,413.1c0.7,0.3,1.5,0.5,2.2,0.6c0.3,0.1,0.5,0.1,0.8,0.2"/>
			<path id="_1031" class="st3" d="M110,409.9l1.1,0.7l1.1,0.6l1.1,0.6l1.1,0.6l1.1,0.6"/>
			<path id="_1032" class="st3" d="M87.1,381v111.1"/>
			<path id="_1033" class="st3" d="M87.1,492.1l33.3,248.1"/>
			<path id="_1034" class="st3" d="M125.9,739.6l-16.1-242.5"/>
			<path id="_1035" class="st3" d="M109.9,497.1l2.9-71.6"/>
			<path id="_1036" class="st3" d="M120.4,417.1c-1.8,0.2-3.5,1-4.8,2.2c-1,0.9-1.7,2.1-2.3,3.3c-0.3,0.9-0.5,1.8-0.6,2.7v0.1"/>
			<path id="_1037" class="st3" d="M114.8,414.5l0.7,0.4l0.7,0.4l0.7,0.3l0.6,0.4l0.7,0.3l0.7,0.4l0.7,0.3l0.7,0.3l0.8,0.3l0.7,0.3
				l0.7,0.2l0.7,0.3l0.8,0.2l0.7,0.3l1.5,0.4"/>
			<path id="_1038" class="st3" d="M88.9,505.8h21.5"/>
			<path id="_1039" class="st3" d="M87.6,496H110"/>
			<path id="_1040" class="st3" d="M125.9,739.6c0.2,2.1,0.3,4.1,0.4,6.2s0.2,4.4,0.2,6.6c0,2.8,0.1,5.7-0.7,8.4
				c-0.2,1-1.3,0.7-1.4-0.2c-0.6-1.5-1.2-3-1.5-4.6c-0.4-1.8-0.8-3.6-1.1-5.4c-0.6-3.3-1.1-6.7-1.5-10v-0.4"/>
			<path id="_1041" class="st3" d="M125.2,760.8L125.2,760.8L125.2,760.8l-0.2-0.2l-0.1-0.1l-0.1-0.1l-0.1-0.1l-0.1-0.2l-0.1-0.1
				l-0.1-0.3l-0.1-0.2l-0.1-0.3l-0.1-0.3l-0.1-0.3l-0.1-0.3l-0.1-0.4v-0.3l-0.1-0.4v-1.6l0.1-0.3v-0.2l0.1-0.2v-0.2l0.1-0.2l0.1-0.1
				l0.1-0.1l0.1-0.1l0.1-0.1l0.1-0.1h0.2l0.1,0.1l0.1,0.1l0.1,0.1l0.1,0.1l0.1,0.1l0.1,0.2l0.1,0.2l0.1,0.2l0.1,0.3l0.1,0.3l0.1,0.3
				l0.1,0.3l0.1,0.3v0.4l0.1,0.3v2l-0.1,0.2v0.3l-0.1,0.2v0.2l-0.1,0.1l-0.1,0.1l-0.1,0.1l-0.1,0.1L125.2,760.8L125.2,760.8z"/>
			<path id="_1042" class="st3" d="M123.5,720.8l-12.6-159.5"/>
			<path id="_1043" class="st3" d="M110.3,560.7l-11.6,0.6"/>
			<path id="_1044" class="st3" d="M98.2,562l20.3,159.4"/>
			<path id="_1045" class="st3" d="M119.1,721.9l3.9-0.5"/>
			<path id="_1046" class="st3" d="M123,721.4L123,721.4l0.2-0.2l0.1-0.1l0.1-0.1l0.1-0.1v-0.1"/>
			<path id="_1047" class="st3" d="M118.5,721.4L118.5,721.4l0.2,0.2l0.1,0.1l0.1,0.1l0.1,0.1h0.1"/>
			<path id="_1048" class="st3" d="M110.9,561.3L110.9,561.3l-0.2-0.2l-0.1-0.1l-0.1-0.1l-0.1-0.1h-0.1"/>
			<path id="_1049" class="st3" d="M98.7,561.4L98.7,561.4l-0.2,0.1l-0.1,0.1l-0.1,0.1l-0.1,0.2v0.1"/>
			<path id="_1050" class="st3" d="M87.6,496c0.8-36.7,1.6-73.4,2.5-110.2"/>
			<path id="_1051" class="st3" d="M88.3,396.8h1.1v-10.2h-1.1V396.8z"/>
			<path id="_1052" class="st3" d="M93.8,390.9c-1,3.5-2.6,6.9-3.5,10.4c-0.6,4-0.2,8-0.4,12c-0.1,4.6-0.2,9.8,2.9,13.6
				c1.8,2.4,5.1,2.6,7.8,1.7c3.6-1.3,7.6-0.9,11.4-1.1h0.8"/>
			<path id="_1053" class="st3" d="M92.5,418.5c-0.2,2.3,1.4,4.3,3.7,4.5c0.1,0,0.1,0,0.2,0c1.8,0.1,3.5-1.1,4-2.8"/>
			<path id="_1054" class="st3" d="M93.5,407.6l-1.1,10.9"/>
			<path id="_1055" class="st3" d="M102.4,414l-2,6.1"/>
			<path id="_1056" class="st3" d="M97.3,400.9c-2.1,1.6-3.5,4-3.8,6.7"/>
			<path id="_1057" class="st3" d="M106,409.3c-1.7,1-3,2.7-3.6,4.6"/>
			<path id="_1058" class="st3" d="M102.6,413.3c1-2.5-0.1-5.3-2.6-6.3c-2-0.9-4.4-0.2-5.7,1.5c-0.6,0.7-0.9,1.6-1,2.5"/>
			<path id="_1059" class="st3" d="M67.3,381v24.3"/>
			<path id="_1060" class="st3" d="M69.9,381v21.9"/>
			<path id="_1061" class="st3" d="M72.2,381v22.4"/>
			<path id="_1062" class="st3" d="M81.8,381v24"/>
			<path id="_1063" class="st3" d="M82.7,381v24"/>
			<path id="_1064" class="st3" d="M73.8,405.1H87"/>
			<path id="_1065" class="st3" d="M73.4,406.5h13.7"/>
			<path id="_1066" class="st3" d="M71.1,409.6l16,2"/>
			<path id="_1067" class="st3" d="M72.2,403.5v0.3l0.1,0.2l0.1,0.3l0.1,0.2l0.1,0.1l0.2,0.2l0.2,0.1l0.2,0.1l0.2,0.1h0.3"/>
			<path id="_1068" class="st3" d="M69.9,403v0.4l0.1,0.4l0.1,0.4l0.2,0.4l0.1,0.4l0.3,0.4l0.2,0.3l0.4,0.3l0.3,0.2l0.4,0.2l0.4,0.1
				l0.4,0.1l0.4,0.1l0.4,0.1"/>
			<path id="_1069" class="st3" d="M67.3,405.3c0,0.8,0.3,1.7,0.7,2.4c0.4,0.5,0.8,0.9,1.3,1.2c0.5,0.4,1.1,0.6,1.8,0.7"/>
			<path id="_1070" class="st3" d="M79.9,410.3v-2.7H87"/>
			<path id="_1071" class="st3" d="M81.3,409.9v-1.4h5.1v2"/>
			<path id="_1072" class="st3" d="M79.9,410.3l7.1,0.9"/>
			<path id="_1073" class="st3" d="M81.3,409.9l5.1,0.6"/>
			<path id="_1074" class="st3" d="M40.1,476H8.3"/>
			<path id="_1075" class="st3" d="M8.3,476c-2.2,0-4.3,0.9-5.8,2.5c-1.8,1.8-2.5,4.3-2.1,6.8c0.2,1.7,1,3.2,2.3,4.4
				c1.5,1.5,3.6,2.4,5.7,2.4"/>
			<path id="_1076" class="st3" d="M40.1,492.1c1.9,0,3.7-0.6,5.1-1.8c1.3-1.1,2.2-2.5,2.7-4.1c0.3-1.2,0.3-2.5,0.1-3.8
				c-0.4-1.8-1.3-3.4-2.7-4.6c-1.4-1.3-3.3-1.9-5.2-1.9"/>
			<path id="_1077" class="st3" d="M8.3,492.1h31.8"/>
			<path id="_1078" class="st3" d="M109.9,498.1h1.2v2.1H110"/>
			<path id="_1079" class="st3" d="M139.3,419.1l2.5,88.6"/>
			<path id="_1080" class="st3" d="M144.8,507.7l4-80.3"/>
			<path id="_1081" class="st3" d="M141.8,507.7h2.9"/>
			<path id="_1082" class="st3" d="M144.8,507.5c0,0.6,0,1.3-0.1,1.9c0,0.6-0.1,1.2-0.1,1.9s-0.1,1.5-0.2,2.3s-0.2,1.3-0.3,2
				c-0.1,0.8-0.3,1.7-0.7,2.4c-0.3,0.4-0.8,0-0.8-0.4c-0.2-0.6-0.4-1.3-0.4-1.9c-0.1-0.5-0.2-1.1-0.2-1.6c-0.1-0.7-0.2-1.5-0.2-2.2
				c0-0.5,0-1.1-0.1-1.6c0-0.8,0-1.5-0.1-2.3v-0.5"/>
			<path id="_1083" class="st3" d="M193.6,386.1l53.1-4"/>
			<path id="_1084" class="st3" d="M246.7,382.1h0.2l0.2-0.1l0.2-0.1l0.1-0.1l0.1-0.1l0.1-0.2v-0.2l0.1-0.2"/>
			<path id="_1085" class="st3" d="M0.2,459v50.2"/>
			<path id="_1086" class="st3" d="M171.9,386.5c0-0.2-0.1-0.5-0.1-0.7c-0.2-0.3-0.5-0.6-0.8-0.8c-0.2-0.1-0.5-0.1-0.8-0.2
				c-0.3,0-0.5,0.1-0.8,0.2c-0.3,0.2-0.6,0.4-0.8,0.7c-0.1,0.3-0.2,0.5-0.3,0.8c0,0.2,0.1,0.5,0.2,0.7c0.1,0.4,0.5,0.6,0.8,0.8
				c0.3,0.2,0.7,0.3,1,0.2c0.5-0.1,0.9-0.3,1.2-0.6C171.8,387.3,171.9,386.9,171.9,386.5L171.9,386.5z"/>
			<path id="_1087" class="st3" d="M173.7,386.5c0-1.2-0.7-2.4-1.7-3c-1.6-0.9-3.6-0.5-4.6,1c-1.1,1.5-0.9,3.6,0.5,4.8
				c1.2,1.2,3.2,1.2,4.5,0.2C173.1,388.7,173.6,387.6,173.7,386.5z"/>
			<path id="_1088" class="st3" d="M169.5,380c0.1-1,0.2-1.9,0.2-2.9c0-1.5-0.2-2.9-0.6-4.3c-0.1-0.5-0.3-1-0.4-1.5"/>
			<path id="_1089" class="st3" d="M171.6,375.4c-0.1-1-0.2-2-0.5-3v-0.1"/>
			<path id="_1090" class="st3" d="M168.7,371.3l0.3,0.1l0.4,0.2l0.3,0.1l0.4,0.1l0.4,0.1h0.4"/>
			<path id="_1091" class="st3" d="M171.1,372.3v-0.1l-0.1-0.1l-0.1-0.1h-0.1"/>
			<path id="_1092" class="st3" d="M171.7,378.5c0-1.1,0-2.1-0.1-3.2"/>
			<path id="_1093" class="st3" d="M171.3,378.9c-0.2,0.1-0.4,0.2-0.6,0.2l-0.6,0.3c-0.2,0.1-0.4,0.2-0.5,0.4l-0.1,0.1"/>
			<path id="_1094" class="st3" d="M171.3,378.9c0.1,0,0.2-0.1,0.3-0.2s0.1-0.1,0.1-0.2"/>
			<path id="_1095" class="st3" d="M126.5,756.5l-0.1-0.4l-0.1-0.4l-0.1-0.5l-0.1-0.4l-0.1-0.4l-0.1-0.4l-0.1-0.3l-0.1-0.4l-0.1-0.3
				l-0.1-0.3l-0.1-0.2l-0.1-0.2l-0.1-0.1l-0.1-0.1L125,752l-0.1-0.1l-0.1-0.1h-0.2l-0.1,0.1l-0.1,0.1l-0.1,0.1l-0.1,0.1l-0.1,0.2
				l-0.1,0.1l-0.1,0.2l-0.1,0.3l-0.1,0.3l-0.1,0.3v0.4l-0.1,0.4l-0.1,0.4v0.4l-0.1,0.4v0.8l-0.1,0.5"/>
			<path id="_1096" class="st3" d="M172.1,356.2l60.1-15.3"/>
			<path id="_1097" class="st3" d="M172.9,358.1l59.9-15.3"/>
			<path id="_1098" class="st3" d="M232.7,342.8l0.1-0.1l0.1-0.1l0.1-0.1l0.1-0.1l0.1-0.2l0.1-0.1v-0.2l-0.1-0.2v-0.1l-0.1-0.1
				l-0.1-0.1l-0.1-0.1l-0.1-0.1l-0.2-0.1h-0.3"/>
			<path id="_1099" class="st3" d="M231.2,342.3l14.9,37.9"/>
			<path id="_1100" class="st3" d="M245.1,377.6l-55-8.5"/>
			<path id="_1101" class="st5" d="M249.2,381c0.8-47.8-33-93.5-79-106.6c-41.6-13-90.2,1.1-117.7,35.1
				c-27.7,32.5-34.1,81.3-15,119.6c17.7,38.3,58.7,63.9,100.9,63.3c13.2,0,26.2-2.4,38.5-7.1"/>
			<path id="_1102" class="st3" d="M176.9,485.3l2.1-0.8l2-0.8l2-0.8l2-0.9l2-1l2-1l2-1.1l2-1.1l1.9-1.1l1.9-1.2l1.9-1.2l1.8-1.2
				l1.8-1.3l1.8-1.3l1.8-1.3l1.8-1.3l1.7-1.4l1.7-1.5l1.7-1.5l1.6-1.5l1.6-1.5l1.5-1.6l1.5-1.5l1.5-1.7l1.5-1.6l1.5-1.7l1.4-1.8
				l1.3-1.8l1.3-1.8l1.3-1.8l1.3-1.8l1.2-1.9l1.2-1.8l1.2-1.9l1.1-2l1.1-1.9l1.1-2l1-2l1-2l0.9-2l0.8-2l0.8-2l0.8-2l0.7-2.1l0.8-2.1
				l0.6-2.1l0.6-2.1l0.6-2.2l0.5-2.2l0.5-2.1l0.5-2.2l0.4-2.2l0.4-2.2l0.4-2.2l0.3-2.2l0.2-2.2l0.2-2.2l0.1-2.2l0.1-2.2l0.1-2.2
				v-2.2"/>
			<path id="_1103" class="st3" d="M172.9,358.1l-0.1-0.5l-0.2-0.5l-0.2-0.5l-0.3-0.4"/>
			<path id="_1104" class="st3" d="M173.7,357.9c4.7,6.4,8.1,14.3,7.7,22.4v0.7"/>
			<path id="_1105" class="st3" d="M174.1,357.8c2.2,2.3,4.3,4.9,6,7.6c1,1.6,1.8,3.4,2.4,5.2c0,0.4,0.1,0.7,0.2,1.1"/>
			<path id="_1106" class="st3" d="M174.7,357.6l11.7,8.1"/>
			<path id="_1107" class="st3" d="M108.5,508.1l0.6,11"/>
			<path id="_1108" class="st3" d="M106.6,521.7h-9.3"/>
			<path id="_1109" class="st3" d="M96.3,516.9c0.4,0.5,0.8,0.9,1.3,1.2c0.9,0.6,1.9,0.8,3,0.8c1.2-0.1,2.4-0.7,3.3-1.5
				c0.8-0.8,1.2-1.9,1.4-3c0.1-0.8,0-1.6-0.3-2.3c-0.2-0.5-0.4-1-0.8-1.4c-0.8-0.9-1.9-1.5-3.1-1.7c-0.7-0.1-1.5-0.1-2.2,0.2
				c-0.8,0.2-1.5,0.7-2.1,1.3c-0.4,0.5-0.8,1-1,1.6"/>
			<path id="_1110" class="st3" d="M108.5,508.1l-0.1-0.4l-0.1-0.4l-0.1-0.3l-0.2-0.3l-0.2-0.2l-0.3-0.3l-0.3-0.1l-0.3-0.1l-0.4-0.1
				l-0.4-0.1h-0.3"/>
			<path id="_1111" class="st3" d="M106.6,521.7h0.3l0.4-0.1l0.3-0.1l0.4-0.1l0.2-0.2l0.3-0.2l0.2-0.2l0.1-0.3l0.1-0.4l0.1-0.3v-0.4
				l0.1-0.4"/>
			<path id="_1112" class="st3" d="M93.3,508.7l1.5,10.9"/>
			<path id="_1113" class="st3" d="M94.8,519.6l0.1,0.3l0.1,0.4l0.1,0.3l0.1,0.2l0.2,0.3l0.3,0.2l0.3,0.1l0.3,0.1l0.3,0.1l0.4,0.1
				h0.3"/>
			<path id="_1114" class="st3" d="M95.8,505.8h-0.3l-0.4,0.1l-0.3,0.1l-0.3,0.1l-0.3,0.1l-0.2,0.4l-0.2,0.3l-0.1,0.3l-0.1,0.3
				l-0.1,0.3l-0.1,0.4v0.7"/>
			<path id="_1115" class="st3" d="M95.7,511.9l0.6,5"/>
			<path id="_1116" class="st3" d="M102,513.6c-0.1-0.8-0.6-1.5-1.4-1.8c-1-0.2-2,0.4-2.2,1.5l0,0c-0.1,0.7,0.1,1.3,0.6,1.8
				c0.6,0.4,1.3,0.5,1.9,0.3c0.6-0.3,1-0.8,1.2-1.4C102,513.9,102,513.7,102,513.6L102,513.6z"/>
			<path id="path9104" class="st1" d="M169.3,387.2c-0.4-0.4-0.3-1,0.1-1.4l0.1-0.1c0.4-0.4,1.1-0.4,1.6,0.1c0.4,0.4,0.4,1,0,1.4
				c-0.2,0.3-0.6,0.4-0.9,0.4C169.8,387.6,169.5,387.5,169.3,387.2z"/>
			<path id="path27900" class="st4" d="M173.6,393.8c0-0.4-0.2-0.7-0.4-1s-0.5-0.5-0.9-0.5c-0.3-0.1-0.7,0-1,0.1
				c-0.5,0.2-0.9,0.7-0.9,1.3c-0.1,0.3,0,0.7,0.2,1c0.2,0.4,0.5,0.5,0.8,0.7c0.4,0.1,0.7,0.1,1.1,0c0.3-0.2,0.6-0.4,0.8-0.7
				C173.4,394.4,173.5,394.1,173.6,393.8L173.6,393.8z"/>
		</g>
	</g>
</g>
</svg>
