<?xml version="1.0" encoding="utf-8"?>
<!-- Generator: Adobe Illustrator 22.1.0, SVG Export Plug-In . SVG Version: 6.00 Build 0)  -->
<svg class="base-plane" version="1.1" id="Layer_1" xmlns="http://www.w3.org/2000/svg" xmlns:xlink="http://www.w3.org/1999/xlink" x="0px" y="0px"
	 viewBox="0 0 510.4 549.4" style="enable-background:new 0 0 342.4 149.4;" xml:space="preserve">
<style type="text/css">
	.base-plane {
		transform: rotate(18deg);
	}
	.st0{fill:none;stroke:#7D7D7D;stroke-width:0.5;}
	.st1{fill:none;stroke:#7D7D7D;stroke-width:2;stroke-dasharray:5;}
</style>
<g id="g26749">
	<path id="_x36_" class="st0" d="M282.1,111.5c1.3-1.6,2.5-3.3,3.8-4.8"/>
	<path id="_x37_" class="st0" d="M287.6,112c0.1-0.2,0.1-0.5,0.1-0.6c-0.2-0.7-0.4-1.3-0.5-1.9c-0.3-0.9-0.7-1.6-1-2.5
		c-0.2-0.4-0.5-0.7-0.7-1.2c-0.3-0.4-0.6-0.9-1-1.3"/>
	<path id="_x38_" class="st0" d="M287.6,112c-0.1,0.2-0.4,0.2-0.6,0.2c-0.7,0-1.5-0.1-2.3-0.2c-0.9-0.1-2-0.4-2.9-0.6
		c-0.6-0.1-1.2-0.4-1.8-0.7c-0.2-0.1-0.3-0.1-0.6-0.3"/>
	<path id="_x33_8" class="st0" d="M283.5,107.7l-0.9-0.9"/>
	<path id="_x33_9" class="st0" d="M282.3,107.8c-0.1,0.2-0.1,0.2-0.1,0.3c0,0.1,0,0.3,0,0.6c0,0.1,0.2,0.3,0.3,0.3
		c0.2,0.1,0.3,0.1,0.5,0.1c0.1,0,0.4,0,0.6-0.2l0.1-0.2c0.1-0.2,0.1-0.3,0.1-0.5c0-0.1-0.2-0.3-0.2-0.4c-0.2-0.1-0.3-0.1-0.3-0.3
		C282.9,107.4,282.8,107.4,282.3,107.8C282.5,107.8,282.5,107.8,282.3,107.8L282.3,107.8z"/>
	<path id="_x34_0" class="st0" d="M284.1,103.9c-0.8-1.2-1.8-2.3-2.7-3.3c-0.5-0.4-0.8-0.9-1.3-1.3"/>
	<path id="_x34_1" class="st0" d="M279.2,110.6l2.7-3.3"/>
	<path id="_x34_2" class="st0" d="M278.9,110.5l0.6,0.3"/>
	<path id="_x34_3" class="st0" d="M278.9,110.5l2.7-3.4"/>
	<path id="_x34_4" class="st0" d="M279.5,110.7l2.5-3.3"/>
	<path id="_x34_5" class="st0" d="M284.4,104.1l-2.7,3.3"/>
	<path id="_x34_6" class="st0" d="M284.2,103.8l-2.7,3.4"/>
	<path id="_x34_7" class="st0" d="M284.7,104.2l-2.5,3.3"/>
	<path id="_x34_8" class="st0" d="M284.2,103.8l0.5,0.6"/>
	<path id="_x34_9" class="st0" d="M280.1,99.2L267.8,89"/>
	<path id="_x35_0" class="st0" d="M280.3,99.3l0.6-0.6"/>
	<path id="_x35_1" class="st0" d="M280.7,98.6l-4.2-4.1"/>
	<path id="_x35_2" class="st0" d="M275.8,94l-0.6,0.5"/>
	<path id="_x35_3" class="st0" d="M276.4,94.4l-0.4,0.5"/>
	<path id="_x35_4" class="st0" d="M275.7,94.9l-0.6-0.6"/>
	<path id="_x35_6" class="st0" d="M275.7,94.9L275.7,94.9L275.7,94.9L275.7,94.9h0.1l0,0l0,0l0,0l0,0l0,0"/>
	<path id="_x35_7" class="st0" d="M275.1,94.4c-0.3-0.6-0.8-1.3-1.1-1.9c-0.3-0.4-0.8-1-1.3-1.4"/>
	<path id="_x35_8" class="st0" d="M271.8,91.8c0-0.3-0.2-0.4-0.3-0.7c-0.2-0.4-0.5-0.9-0.8-1.2c-0.3-0.3-0.6-0.7-0.9-1l-0.2-0.1"/>
	<path id="_x35_9" class="st0" d="M272.6,91.2l-0.4,0.5"/>
	<path id="_x36_0" class="st0" d="M269.6,88.8l-0.4,0.5"/>
	<path id="_x36_1" class="st0" d="M272.6,92.4L272.6,92.4l-0.2-0.3V92v-0.1v-0.1l-0.2-0.1l-0.2-0.1"/>
	<path id="_x36_2" class="st0" d="M270.1,90.4c-0.3-0.4-0.5-0.9-1-1.2l0,0l0,0"/>
	<path id="_x36_3" class="st0" d="M271,89.8c0-0.1-0.2-0.1-0.3-0.1"/>
	<path id="_x36_4" class="st0" d="M271,89.8c0.5,0.9,1,1.7,1.5,2.5"/>
	<path id="_x36_5" class="st0" d="M230.9,61.1l3.5-16.8"/>
	<path id="_x36_6" class="st0" d="M284,105l-0.3-0.6"/>
	<path id="_x36_7" class="st0" d="M283.7,104.4c-0.5-1.3-1.5-2.6-2.3-3.8c-0.3-0.4-0.8-1-1.1-1.4"/>
	<path id="_x36_8" class="st0" d="M281,102.3l1.1,0.8"/>
	<path id="_x36_9" class="st0" d="M282.1,103.4L282.1,103.4L282.1,103.4L282.1,103.4L282.1,103.4L282.1,103.4L282.1,103.4
		L282.1,103.4L282.1,103.4"/>
	<path id="_x37_0" class="st0" d="M282.1,103.4l-0.6,0.8"/>
	<path id="_x37_1" class="st0" d="M281.3,104.2L281.3,104.2L281.3,104.2L281.3,104.2L281.3,104.2h0.1l0,0l0,0l0,0"/>
	<path id="_x37_2" class="st0" d="M281.3,104.2l-1.1-0.8"/>
	<path id="_x37_3" class="st0" d="M281,102.3c-0.3-0.3-0.9-0.1-1,0.3c-0.1,0.3,0,0.6,0.2,0.7"/>
	<path id="_x37_4" class="st0" d="M280.1,102.5L280.1,102.5L280.1,102.5L280.1,102.5L280.1,102.5L280.1,102.5L280.1,102.5
		L280.1,102.5L280.1,102.5L280.1,102.5L280.1,102.5L280.1,102.5L280.1,102.5L280.1,102.5L280.1,102.5L280.1,102.5L280.1,102.5
		L280.1,102.5L280.1,102.5L280.1,102.5L280.1,102.5L280.1,102.5L280.1,102.5L280.1,102.5L280.1,102.5L280.1,102.5L280.1,102.5
		L280.1,102.5L280.1,102.5z"/>
	<path id="_x37_5" class="st0" d="M281.4,103.8L281.4,103.8L281.4,103.8L281.4,103.8L281.4,103.8L281.4,103.8L281.4,103.8
		L281.4,103.8L281.4,103.8L281.4,103.8L281.4,103.8L281.4,103.8L281.4,103.8l0.2,0.1l0,0l0,0l0,0l0,0L281.4,103.8L281.4,103.8
		L281.4,103.8L281.4,103.8L281.4,103.8L281.4,103.8L281.4,103.8z"/>
	<path id="_x37_6" class="st0" d="M281.8,103.3L281.8,103.3L281.8,103.3L281.8,103.3L281.8,103.3L281.8,103.3L281.8,103.3
		L281.8,103.3L281.8,103.3L281.8,103.3L281.8,103.3L281.8,103.3L281.8,103.3L281.8,103.3L281.8,103.3L281.8,103.3L281.8,103.3
		L281.8,103.3L281.8,103.3L281.8,103.3L281.8,103.3L281.8,103.3L281.8,103.3L281.8,103.3L281.8,103.3z"/>
	<path id="_x37_7" class="st0" d="M283.3,104l-0.4,0.5l-0.3-0.3l0.4-0.6"/>
	<path id="_x37_8" class="st0" d="M283.2,104.1l-0.3-0.3"/>
	<path id="_x37_9" class="st0" d="M276,106.4l1.1,0.8"/>
	<path id="_x38_0" class="st0" d="M277.1,107.6L277.1,107.6L277.1,107.6L277.1,107.6L277.1,107.6L277.1,107.6L277.1,107.6
		L277.1,107.6L277.1,107.6"/>
	<path id="_x38_1" class="st0" d="M277.1,107.6l-0.7,0.8"/>
	<path id="_x38_2" class="st0" d="M276.2,108.4L276.2,108.4L276.2,108.4L276.2,108.4L276.2,108.4h0.1l0,0l0,0l0,0"/>
	<path id="_x38_3" class="st0" d="M276.2,108.4l-1.1-0.8"/>
	<path id="_x38_4" class="st0" d="M276,106.4c-0.3-0.3-0.8-0.1-0.9,0c-0.3,0.3-0.3,0.8,0,0.9l0,0l0,0"/>
	<path id="_x38_5" class="st0" d="M275.1,106.6L275.1,106.6L275.1,106.6L275.1,106.6L275.1,106.6L275.1,106.6L275.1,106.6
		L275.1,106.6L275.1,106.6L275.1,106.6L275.1,106.6L275.1,106.6L275.1,106.6L275.1,106.6L275.1,106.6L275.1,106.6L275.1,106.6
		L275.1,106.6L275.1,106.6L275.1,106.6L275.1,106.6L275.1,106.6L275.1,106.6L275.1,106.6L275.1,106.6L275.1,106.6L275.1,106.6
		L275.1,106.6L275.1,106.6z"/>
	<path id="_x38_6" class="st0" d="M276.4,108.1L276.4,108.1L276.4,108.1L276.4,108.1L276.4,108.1L276.4,108.1L276.4,108.1
		L276.4,108.1L276.4,108.1L276.4,108.1L276.4,108.1L276.4,108.1L276.4,108.1L276.4,108.1L276.4,108.1L276.4,108.1L276.4,108.1
		L276.4,108.1L276.4,108.1L276.4,108.1L276.4,108.1L276.4,108.1L276.4,108.1L276.4,108.1L276.4,108.1z"/>
	<path id="_x38_7" class="st0" d="M276.8,107.6L276.8,107.6L276.8,107.6L276.8,107.6L276.8,107.6L276.8,107.6L276.8,107.6
		L276.8,107.6L276.8,107.6L276.8,107.6L276.8,107.6L276.8,107.6L276.8,107.6l0.2,0.1l0,0l0,0l0,0l0,0L276.8,107.6L276.8,107.6
		L276.8,107.6L276.8,107.6L276.8,107.6L276.8,107.6L276.8,107.6z"/>
	<path id="_x38_8" class="st0" d="M264.3,93.4l3.7-4.7"/>
	<path id="_x38_9" class="st0" d="M267.5,89.3l-6.2-4.8"/>
	<path id="_x39_0" class="st0" d="M261.3,84.6l0.7-0.8"/>
	<path id="_x39_1" class="st0" d="M267.4,89.5l-13.7-10.1"/>
	<path id="_x39_8" class="st0" d="M253.7,84.9l2.8-3.6"/>
	<path id="_x31_01" class="st0" d="M250.3,82.1l2.8-3.6"/>
	<path id="_x31_02" class="st0" d="M253.1,78.5l0.6,0.7"/>
	<path id="_x31_03" class="st0" d="M253.1,78.5l-7.6-5.6"/>
	<path id="_x31_04" class="st0" d="M250.4,82.2l2.5-3.1"/>
	<path id="_x31_22" class="st0" d="M250,81.8l1.1-1.4"/>
	<path id="_x31_23" class="st0" d="M236.9,70.9l-0.3,0.3"/>
	<path id="_x31_28" class="st0" d="M252.6,83.9l0.3-0.3"/>
	<path id="_x31_31" class="st0" d="M253.5,83l-2.2-1.7"/>
	<path id="_x31_32" class="st0" d="M253.4,82.9l-2.2-1.7"/>
	<path id="_x31_33" class="st0" d="M253.4,82.9c0.2-1.2,0.2-2.4-0.2-3.6"/>
	<path id="_x31_34" class="st0" d="M253.3,79.3l-0.2-0.1"/>
	<path id="_x31_35" class="st0" d="M253.4,79.4L253.4,79.4L253.4,79.4L253.4,79.4"/>
	<path id="_x31_36" class="st0" d="M253.1,79.1L253.1,79.1L253.1,79.1L253.1,79.1L253.1,79.1L253.1,79.1L253.1,79.1H253"/>
	<path id="_x31_37" class="st0" d="M252,78.1l-4.8-3.5"/>
	<path id="_x31_38" class="st0" d="M252.7,79.1l-0.3-0.3"/>
	<path id="_x31_39" class="st0" d="M246.4,74.2l-0.3-0.1"/>
	<path id="_x31_44" class="st0" d="M252.4,78.9c0.1-0.3-0.2-0.6-0.5-0.9"/>
	<path id="_x31_45" class="st0" d="M245.5,72.9l-7.7-2.2"/>
	<path id="_x31_46" class="st0" d="M244.9,73.1l-5.6-1.5"/>
	<path id="_x31_47" class="st0" d="M237.8,72.2c0.1-0.2,0.3-0.3,0.4-0.3c0.1-0.2,0.3-0.2,0.4-0.2c0.1-0.2,0.3-0.2,0.6-0.2
		c0.1,0,0.1,0,0.3,0"/>
	<path id="_x31_48" class="st0" d="M236.9,70.9L236.9,70.9L236.9,70.9L236.9,70.9L236.9,70.9L236.9,70.9L236.9,70.9l0.1-0.2l0,0l0,0
		l0,0l0,0l0,0l0,0l0,0l0,0l0,0l0,0l0,0l0,0l0,0l0,0l0,0l0,0"/>
	<path id="_x31_49" class="st0" d="M245.7,73.5l-0.8-0.6"/>
	<path id="_x31_50" class="st0" d="M246.9,73.9c-0.3-0.3-0.8-0.4-1.2-0.4"/>
	<path id="_x31_51" class="st0" d="M242.8,76.2c0.9-0.9,1.7-1.9,2.9-2.5"/>
	<path id="_x31_52" class="st0" d="M242.5,76.1c0.9-0.9,1.7-1.9,2.9-2.5"/>
	<path id="_x31_53" class="st0" d="M242.6,75.7l-4.7-3.8"/>
	<path id="_x31_54" class="st0" d="M250.8,79.8l-0.1,0.3"/>
	<path id="_x31_55" class="st0" d="M250.6,80l-5.4-4.1"/>
	<path id="_x31_56" class="st0" d="M245.2,75.9l0.1-0.3"/>
	<path id="_x31_57" class="st0" d="M250.8,79.8l-5.4-4.1"/>
	<path id="_x31_58" class="st0" d="M251.3,80.7l-0.3-0.3"/>
	<path id="_x31_59" class="st0" d="M251.7,80.4l-0.3-0.3"/>
	<path id="_x31_60" class="st0" d="M245,75.3l-0.3-0.1"/>
	<path id="_x31_61" class="st0" d="M244.6,75.7l-0.3-0.1"/>
	<path id="_x31_62" class="st0" d="M251.4,80.1l1-1.2"/>
	<path id="_x31_63" class="st0" d="M250.9,80.6l-0.5-0.4"/>
	<path id="_x31_64" class="st0" d="M251.4,80.1l-0.5-0.3"/>
	<path id="_x31_65" class="st0" d="M244.3,76.1c0.1-0.2,0.3-0.3,0.4-0.3"/>
	<path id="_x31_67" class="st0" d="M247.4,74.8c-0.3-0.3-0.6-0.4-0.9-0.4"/>
	<path id="_x31_68" class="st0" d="M246.1,74.1L246.1,74.1L246.1,74.1L246.1,74.1L246.1,74.1L246.1,74.1L246.1,74.1L246.1,74.1
		L246.1,74.1L246.1,74.1L246.1,74.1L246.1,74.1L246.1,74.1L246.1,74.1L246.1,74.1L246.1,74.1L246.1,74.1L246.1,74.1L246.1,74.1
		L246.1,74.1"/>
	<path id="_x31_69" class="st0" d="M245,75.3c0.4-0.3,0.9-0.8,1.3-1.1"/>
	<path id="_x31_70" class="st0" d="M245.2,75.9l-0.6-0.3"/>
	<path id="_x31_71" class="st0" d="M245.3,75.6l-0.3-0.4"/>
	<path id="_x31_95" class="st0" d="M244.1,77.2c0.1-0.2,0.1-0.3,0.1-0.6"/>
	<path id="_x31_96" class="st0" d="M244.3,76.1c-0.1,0.2-0.1,0.3-0.1,0.5"/>
	<path id="_x31_97" class="st0" d="M242.9,76h0.7c0.1,0,0.3-0.2,0.3-0.2c0.7-0.6,1.3-1.3,2.2-1.8"/>
	<path id="_x31_99" class="st0" d="M246.1,73.3l0.3-0.3"/>
	<path id="_x32_00" class="st0" d="M246.1,73.3c-0.8-0.6-1.6-1.1-2.2-1.8"/>
	<path id="_x32_01" class="st0" d="M246.2,73.2c-0.6-0.6-1.4-1.1-2-1.7"/>
	<path id="_x32_02" class="st0" d="M244.9,72.8c-0.3-0.3-0.6-0.6-1.1-0.8"/>
	<path id="_x32_03" class="st0" d="M244.2,71.5c-0.2-0.1-0.5-0.3-0.6-0.1"/>
	<path id="_x32_04" class="st0" d="M243.6,71.4c-0.1,0.2,0,0.3,0.2,0.4c0,0,0,0.1,0.2,0.1"/>
	<path id="_x32_05" class="st0" d="M246.2,73.2c0.6,0,1-0.1,1.6,0.1"/>
	<path id="_x32_06" class="st0" d="M254.1,84.5l-0.8-0.6"/>
	<path id="_x32_07" class="st0" d="M256.7,84.3l1.1-1.4"/>
	<path id="_x32_08" class="st0" d="M257.8,82.9c-0.6,0-1,0.5-1.1,1.1c0,0.1,0,0.3,0,0.3"/>
	<path id="_x32_09" class="st0" d="M256,83.8l1.1-1.4"/>
	<path id="_x32_10" class="st0" d="M257.2,82.4c-0.3,0-0.7,0.2-0.9,0.5c-0.1,0.3-0.3,0.6-0.3,0.9"/>
	<path id="_x32_11" class="st0" d="M238.3,70.6c0.1-0.3-0.3-0.6-0.5-0.3C237.7,70.5,238.1,70.7,238.3,70.6z"/>
	<path id="_x32_12" class="st0" d="M262.3,88.9l12.1,9.6"/>
	<path id="_x32_13" class="st0" d="M262.3,88.9c-0.3-0.3-2.5-1.8-2-0.7c0.3,0.6,0.9,1,1.4,1.4"/>
	<path id="_x32_14" class="st0" d="M278.2,102.6l-2.8-2.3"/>
	<path id="_x32_15" class="st0" d="M278.8,102.7c0,0,0-0.1,0-0.3c0-0.1-0.2-0.1-0.2-0.1l-0.2-0.1l0,0"/>
	<path id="_x32_16" class="st0" d="M278.2,102.6l0.2,0.1c0,0,0.2,0.1,0.3,0.1h0.1"/>
	<path id="_x32_17" class="st0" d="M275.8,100.3c0.3-0.5-0.6-0.9-0.6-0.3C275.2,100.3,275.5,100.5,275.8,100.3z"/>
	<path id="_x32_18" class="st0" d="M274.4,98.6c0.5,0.4,1.1,0.8,1.4,1.4"/>
	<path id="_x32_19" class="st0" d="M273.7,99.4l-12.1-9.6"/>
	<path id="_x32_20" class="st0" d="M275.7,99.9l2.8,2.3"/>
	<path id="_x32_21" class="st0" d="M275.5,100.5c-0.6-0.3-1.2-0.7-1.8-1.1"/>
	<path id="_x32_22" class="st0" d="M275.8,99.7c-0.2-0.1-0.3-0.1-0.5-0.1c-0.1,0-0.3,0.3-0.3,0.5c0,0.1,0,0.3,0.2,0.3"/>
	<path id="_x32_23" class="st0" d="M275.2,100.3l4.8,3.8"/>
	<path id="_x32_24" class="st0" d="M275.8,99.7c0.9,0.7,1.9,1.6,2.8,2.3"/>
	<path id="_x32_25" class="st0" d="M279,103c0.1-0.2,0.1-0.3,0-0.4c0-0.1-0.2-0.4-0.5-0.6l0,0"/>
	<path id="_x32_26" class="st0" d="M278,102.6c0.2,0.1,0.5,0.3,0.8,0.4c0.1,0,0.1,0,0.3,0"/>
	<path id="_x32_27" class="st0" d="M276.3,94.5l-0.5-0.6"/>
	<path id="_x32_28" class="st0" d="M275.4,94.6l-0.2-0.1"/>
	<path id="_x32_29" class="st0" d="M275.1,94.4l-7-5.6"/>
	<path id="_x32_30" class="st0" d="M279,110.3c-1.2-0.5-2.5-1.2-3.7-1.8c-0.6-0.3-1.2-0.7-1.8-1.1"/>
	<path id="_x32_31" class="st0" d="M273.5,107.4l-12.6-9.9"/>
	<path id="_x32_32" class="st0" d="M273.6,107.6l-0.6,0.6"/>
	<path id="_x32_33" class="st0" d="M273.1,108.2L268,105"/>
	<path id="_x32_34" class="st0" d="M267.5,104.5l0.4-0.6"/>
	<path id="_x32_35" class="st0" d="M268,105l0.3-0.5"/>
	<path id="_x32_36" class="st0" d="M268.2,104.1l-0.6-0.6"/>
	<path id="_x32_37" class="st0" d="M268.4,104.4L268.4,104.4L268.4,104.4L268.4,104.4L268.4,104.4L268.4,104.4L268.4,104.4
		L268.4,104.4L268.4,104.4L268.4,104.4"/>
	<path id="_x32_38" class="st0" d="M263.9,101.9c1.1,0.7,2.5,1.2,3.7,1.6"/>
	<path id="_x32_39" class="st0" d="M261,99.5c1.1,0.7,2.2,1.2,3.5,1.5"/>
	<path id="_x32_40" class="st0" d="M263.9,101.9l0.4-0.6"/>
	<path id="_x32_41" class="st0" d="M261,99.5l0.4-0.6"/>
	<path id="_x32_42" class="st0" d="M264.4,101.3c0.3,0.1,0.6,0.3,0.9,0.3"/>
	<path id="_x32_43" class="st0" d="M261.4,98.9c0.5,0.3,0.9,0.4,1.4,0.7"/>
	<path id="_x32_44" class="st0" d="M262.1,100.2L262.1,100.2L262.1,100.2L262.1,100.2L262.1,100.2L262.1,100.2L262.1,100.2
		L262.1,100.2L262.1,100.2L262.1,100.2"/>
	<path id="_x32_45" class="st0" d="M262.2,100.5l2.7,0.9"/>
	<path id="_x32_46" class="st0" d="M262.3,99.3c-2.5-1.8-5-3.8-7.3-5.6 M254.7,93.4c-5-3.9-9.8-8-14.5-12.3
		c-4.5-4.1-8.9-8.5-13.2-13c-0.5-0.4-1.2-0.7-1.8-0.2"/>
	<path id="_x32_47" class="st0" d="M280,110l-0.6-0.3"/>
	<path id="_x32_48" class="st0" d="M279.4,109.7c-1.1-0.2-2.3-0.6-3.3-1c-0.9-0.4-1.7-0.8-2.6-1.2"/>
	<path id="_x32_49" class="st0" d="M278.8,109.6l0.4-0.5l-0.3-0.3l-0.4,0.6"/>
	<path id="_x32_50" class="st0" d="M279.1,109.3l-0.3-0.3"/>
	<path id="_x32_51" class="st0" d="M264.3,93.4l-3.7,4.7"/>
	<path id="_x32_52" class="st0" d="M261,97.4l-5.5-4.5"/>
	<path id="_x32_53" class="st0" d="M255.1,92.3l-0.7,0.8"/>
	<path id="_x32_54" class="st0" d="M261.2,97.3l-5.5-4.7"/>
	<path id="_x32_55" class="st0" d="M253.7,84.9l-2.8,3.6"/>
	<path id="_x32_56" class="st0" d="M250.3,82.1l-2.8,3.6"/>
	<path id="_x32_57" class="st0" d="M247.3,85.7l0.9,0.4"/>
	<path id="_x32_58" class="st0" d="M247.3,85.7l-7.2-6.2"/>
	<path id="_x32_59" class="st0" d="M250.4,82.2l-2.5,3.1"/>
	<path id="_x32_60" class="st0" d="M250,81.8l-1.1,1.4"/>
	<path id="_x32_61" class="st0" d="M236.3,71.6l0.3-0.3"/>
	<path id="_x32_62" class="st0" d="M252.6,83.9l-0.3,0.3"/>
	<path id="_x32_63" class="st0" d="M251.8,85l-2.2-1.7"/>
	<path id="_x32_64" class="st0" d="M251.8,85.2l-2.2-1.7"/>
	<path id="_x32_65" class="st0" d="M248.2,85.8c1.2,0.1,2.4-0.1,3.4-0.6"/>
	<path id="_x32_66" class="st0" d="M248.2,85.8l-0.2-0.1"/>
	<path id="_x32_67" class="st0" d="M248.2,85.8L248.2,85.8L248.2,85.8L248.2,85.8"/>
	<path id="_x32_68" class="st0" d="M247.9,85.5L247.9,85.5L247.9,85.5L247.9,85.5L247.9,85.5L247.9,85.5L247.9,85.5L247.9,85.5"/>
	<path id="_x32_69" class="st0" d="M246.8,84.8l-4.5-4"/>
	<path id="_x32_70" class="st0" d="M247.9,85.2l-0.3-0.3"/>
	<path id="_x32_71" class="st0" d="M241.8,80.1l-0.2-0.1"/>
	<path id="_x32_72" class="st0" d="M247.6,84.9c-0.3,0.2-0.8-0.1-0.9-0.3"/>
	<path id="_x32_73" class="st0" d="M240.1,79.5l-3.8-7"/>
	<path id="_x32_74" class="st0" d="M240.2,78.9l-2.8-5.1"/>
	<path id="_x32_75" class="st0" d="M237.8,72.2c-0.1,0.2-0.3,0.3-0.3,0.5c0,0.1-0.1,0.3-0.1,0.5c0,0.1,0,0.3,0,0.6v0.1"/>
	<path id="_x32_76" class="st0" d="M236.3,71.6L236.3,71.6L236.3,71.6L236.3,71.6L236.3,71.6L236.3,71.6l-0.1,0.2l0,0l0,0l0,0l0,0
		l0,0l0,0l0,0l0,0l0,0l0,0l0,0l0,0l0,0l0,0l0,0l0,0l0,0"/>
	<path id="_x32_77" class="st0" d="M240.9,79.6l-0.6-0.6"/>
	<path id="_x32_78" class="st0" d="M241.5,80.7c-0.3-0.3-0.6-0.7-0.7-1.2"/>
	<path id="_x32_79" class="st0" d="M242.8,76.2c-0.9,0.9-1.4,2.2-1.9,3.4"/>
	<path id="_x32_80" class="st0" d="M242.5,76.1c-0.9,0.9-1.4,2.2-1.9,3.4"/>
	<path id="_x32_81" class="st0" d="M242.4,76.2l-4.7-3.8"/>
	<path id="_x32_82" class="st0" d="M248.1,83.1l0.1-0.3"/>
	<path id="_x32_83" class="st0" d="M248.4,82.9l-5.1-4.4"/>
	<path id="_x32_84" class="st0" d="M243.1,78.6l-0.1,0.3"/>
	<path id="_x32_85" class="st0" d="M248.1,83.1l-5.3-4.4"/>
	<path id="_x32_86" class="st0" d="M249.1,83.5l-0.3-0.3"/>
	<path id="_x32_87" class="st0" d="M248.9,83.8l-0.3-0.3"/>
	<path id="_x32_88" class="st0" d="M242.5,78.6l-0.3-0.1"/>
	<path id="_x32_89" class="st0" d="M242.8,78.1l-0.3-0.1"/>
	<path id="_x32_90" class="st0" d="M248.6,83.7l-1,1.2"/>
	<path id="_x32_91" class="st0" d="M248.8,83.2l-0.6-0.3"/>
	<path id="_x32_92" class="st0" d="M248.6,83.7l-0.5-0.4"/>
	<path id="_x32_93" class="st0" d="M243,77.7c-0.1,0.2-0.1,0.3-0.3,0.5"/>
	<path id="_x32_94" class="st0" d="M242.7,77.5c-0.6,0.8-1,1.5-1.2,2.5"/>
	<path id="_x32_95" class="st0" d="M242.4,81c-0.3-0.3-0.6-0.4-0.6-0.9"/>
	<path id="_x32_96" class="st0" d="M241.5,80L241.5,80L241.5,80L241.5,80h-0.1l0,0l0,0l0,0l0,0l0,0l0,0l0,0l0,0l0,0l0,0l0,0l0,0l0,0
		l0,0l0,0"/>
	<path id="_x32_97" class="st0" d="M242.5,78.6c-0.3,0.5-0.5,1.1-0.7,1.5"/>
	<path id="_x32_98" class="st0" d="M243.1,78.6l-0.3-0.4"/>
	<path id="_x32_99" class="st0" d="M242.9,78.7l-0.5-0.3"/>
	<path id="_x33_00" class="st0" d="M243.5,77.4c0.1,0,0.4-0.2,0.6-0.2"/>
	<path id="_x33_01" class="st0" d="M243.5,77.4c-0.1,0-0.3,0-0.4,0.2"/>
	<path id="_x33_02" class="st0" d="M242.8,77.1l-0.2-0.7"/>
	<path id="_x33_03" class="st0" d="M242.7,77.5c0.1-0.2,0.1-0.3,0.1-0.5"/>
	<path id="_x33_04" class="st0" d="M240.7,80l-0.3,0.3"/>
	<path id="_x33_05" class="st0" d="M240.7,80c-0.8-0.6-1.6-1.1-2.2-1.8"/>
	<path id="_x33_06" class="st0" d="M240.6,80.3c-0.6-0.6-1.4-1.1-2-1.7"/>
	<path id="_x33_07" class="st0" d="M240,79c-0.3-0.3-0.6-0.6-1.1-0.8"/>
	<path id="_x33_08" class="st0" d="M238.4,78.6c-0.2-0.1-0.3-0.4-0.2-0.6l0,0l0,0"/>
	<path id="_x33_09" class="st0" d="M238.3,78.1c0.1-0.2,0.3,0,0.4,0l0.2,0.1"/>
	<path id="_x33_10" class="st0" d="M240.6,80.3c0,0.6,0.2,1,0.5,1.6"/>
	<path id="_x33_11" class="st0" d="M253.4,85.2l-0.8-0.6"/>
	<path id="_x33_12" class="st0" d="M253.8,87.9l-1.1,1.4"/>
	<path id="_x33_13" class="st0" d="M253.8,87.9c-0.7,0-1.2,0.7-1.1,1.4"/>
	<path id="_x33_14" class="st0" d="M253.1,87.4l-1.1,1.4"/>
	<path id="_x33_15" class="st0" d="M253.1,87.4c-0.7,0-1.2,0.7-1.1,1.4"/>
	<path id="_x33_16" class="st0" d="M236.2,73.1c-0.1,0.2-0.6-0.1-0.5-0.4C236,72.5,236.4,72.8,236.2,73.1z"/>
	<path id="_x33_17" class="st0" d="M259.6,92.4l12,9.6"/>
	<path id="_x33_18" class="st0" d="M259.6,92.4c-0.3-0.3-0.6-0.6-0.9-0.9s-0.5-0.6-0.6-0.9c0-0.3,0.3-0.2,0.4-0.2
		c0.3,0.1,0.6,0.3,0.9,0.6c0.3,0.1,0.6,0.4,0.8,0.6"/>
	<path id="_x33_19" class="st0" d="M276.4,104.8l-2.8-2.3"/>
	<path id="_x33_20" class="st0" d="M276.7,105.4c-0.1,0.2-0.3,0-0.4,0s-0.2-0.1-0.3-0.1"/>
	<path id="_x33_21" class="st0" d="M276.4,104.8c0.2,0.1,0.3,0.3,0.3,0.4v0.1"/>
	<path id="_x33_22" class="st0" d="M273.7,103.1c-0.4,0.3-1.1-0.5-0.5-0.6C273.5,102.5,273.9,102.8,273.7,103.1z"/>
	<path id="_x33_23" class="st0" d="M271.6,102c0.5,0.4,1.1,0.8,1.7,1.1"/>
	<path id="_x33_24" class="st0" d="M272.3,101.2l-12.1-9.6"/>
	<path id="_x33_25" class="st0" d="M273.3,103l2.8,2.3"/>
	<path id="_x33_26" class="st0" d="M273.7,102.8c-0.3-0.6-0.9-1-1.4-1.6"/>
	<path id="_x33_27" class="st0" d="M273.5,102.4c-0.2-0.1-0.6-0.1-0.6,0.2c-0.1,0.2-0.1,0.5,0,0.6"/>
	<path id="_x33_28" class="st0" d="M273,103.1c0.9,0.7,1.9,1.6,2.8,2.3"/>
	<path id="_x33_29" class="st0" d="M277,105.6c-0.1,0.2-0.3,0.2-0.4,0c-0.1,0-0.5-0.1-0.6-0.3"/>
	<path id="_x33_30" class="st0" d="M276.5,104.6c0.2,0.1,0.3,0.3,0.3,0.3c0,0.1,0.2,0.1,0.2,0.3v0.1"/>
	<path id="_x33_31" class="st0" d="M268.1,104.9l-0.6-0.4"/>
	<path id="_x33_32" class="st0" d="M268.1,104l-0.3-0.1"/>
	<path id="_x33_33" class="st0" d="M267.6,103.5c-2.3-1.8-4.7-3.7-7-5.6"/>
	<path id="_x33_34" class="st0" d="M276.7,104.9c-1.1-0.8-2-1.7-3.1-2.4"/>
	<path id="_x33_35" class="st0" d="M282.5,109l-0.9-0.9"/>
	<path id="_x33_36" class="st0" d="M253,83.5L253,83.5l0.5,0.3l-0.8,1.1l-0.3-0.3l0,0"/>
	<path id="_x33_37" class="st0" d="M252.6,84.5l-0.2-0.1l0.4-0.5L253,84L252.6,84.5z"/>
	<path id="_x33_38" class="st0" d="M252.9,83.8L252.9,83.8l0.1-0.3l0.2,0.1"/>
	<path id="_x33_39" class="st0" d="M253,83.5l0.6-0.6"/>
	<path id="_x33_40" class="st0" d="M252.3,84.3L252.3,84.3l-0.3,0.2l0.2,0.1"/>
	<path id="_x33_41" class="st0" d="M252.3,84.3l0.4-0.6"/>
	<path id="_x33_42" class="st0" d="M252.2,84.6l-0.6,0.6"/>
	<path id="_x33_43" class="st0" d="M259.4,83.2l-1.2-1"/>
	<path id="_x33_44" class="st0" d="M259.4,83.2L259.4,83.2L259.4,83.2L259.4,83.2L259.4,83.2h0.1l0,0l0,0l0,0l0,0l0,0l0,0l0,0l0,0
		l0,0l0,0l0,0l0,0l0,0l0,0l0,0"/>
	<path id="_x33_45" class="st0" d="M258.5,81.9L258.5,81.9L258.5,81.9L258.5,81.9L258.5,81.9h-0.1l0,0l0,0l0,0l0,0l0,0l0,0l0,0l0,0
		l0,0l0,0l0,0l0,0l0,0l0,0l0,0"/>
	<path id="_x33_46" class="st0" d="M258.5,81.9l1.2,1"/>
	<path id="_x33_47" class="st0" d="M261.5,84.6l-1.7-1.3"/>
	<path id="_x33_48" class="st0" d="M257,81c-0.9-0.9-1.9-1.7-2.8-2.6"/>
	<path id="_x33_49" class="st0" d="M257,79.8l-2.5-1.8"/>
	<path id="_x33_50" class="st0" d="M254.6,78c-0.2-0.1-0.6,0.2-0.3,0.3"/>
	<path id="_x33_51" class="st0" d="M258.2,82c-0.3-0.3-0.8-0.6-1.1-1"/>
	<path id="_x33_52" class="st0" d="M279.3,104.8c-1.7-1.4-3.6-2.8-5.3-4.2c0.1-0.3,0.4-0.6,0.7-0.3c0.3,0.3,0.6,0.6,0.9,0.7
		c1.4,1.1,2.8,2.3,4.2,3.2"/>
	<path id="_x33_53" class="st0" d="M275,101.5c1.6,1.1,2.8,2.3,4.4,3.5"/>
	<path id="_x33_54" class="st0" d="M279.3,104.8L279.3,104.8L279.3,104.8L279.3,104.8l0.2,0.1l0,0l0,0l0,0l0,0l0,0l0,0l0,0l0,0l0,0
		l0,0l0,0l0,0l0,0l0,0l0,0l0,0l0,0l0,0l0,0l0,0l0,0l0,0l0,0l0,0l0,0l0,0l0,0"/>
	<path id="_x33_55" class="st0" d="M279.2,104.9c0.2,0.1,0.5,0.3,0.8,0.1c0.1,0,0.3-0.2,0.3-0.3c0-0.1-0.2-0.4-0.3-0.6l0,0"/>
	<path id="_x33_56" class="st0" d="M275,101.5v-0.3"/>
	<path id="_x33_57" class="st0" d="M275.1,101.4l0.4-0.5"/>
	<path id="_x33_58" class="st0" d="M275.1,101.1c0.4-0.5-0.6-0.9-0.6-0.3C274.5,101.1,275,101.4,275.1,101.1z"/>
	<path id="_x33_59" class="st0" d="M276,103.1l1.2,1"/>
	<path id="_x33_60" class="st0" d="M276,103.1L276,103.1L276,103.1L276,103.1l-0.2-0.1l0,0l0,0l0,0l0,0l0,0l0,0l0,0l0,0l0,0l0,0l0,0
		l0,0l0,0l0,0l0,0l0,0l0,0l0,0"/>
	<path id="_x33_61" class="st0" d="M276.8,104.6c0.2,0.1,0.3,0.1,0.6,0.1c0.1-0.2,0.1-0.3,0-0.4c0,0,0-0.1-0.2-0.1"/>
	<path id="_x33_62" class="st0" d="M276.8,104.6l-1.2-1"/>
	<path id="_x33_63" class="st0" d="M276.8,104.6l0.4-0.5"/>
	<path id="_x33_64" class="st0" d="M277.5,103.8c-0.5-0.3-0.9-0.7-1.2-1"/>
	<path id="_x33_65" class="st0" d="M277.2,104l-0.4,0.5"/>
	<path id="_x33_66" class="st0" d="M276.7,104.9l0.1-0.3"/>
	<path id="_x33_67" class="st0" d="M277.5,103.8l-0.1,0.2"/>
	<path id="_x33_69" class="st0" d="M276.1,102.8c-0.2-0.1-0.6-0.1-0.7,0c-0.3,0.2-0.3,0.6-0.1,0.9c0,0,0,0.1,0.2,0.1"/>
	<path id="_x33_70" class="st0" d="M279.6,98.8l-0.1,0.2l-0.3-0.1l0.1-0.2"/>
	<path id="_x33_71" class="st0" d="M274.2,94.4l-0.1,0.2l-0.3-0.1l0.1-0.2"/>
	<path id="_x33_72" class="st0" d="M269.2,90.3l-0.1,0.2l-0.3-0.1l0.1-0.3"/>
	<path id="_x33_73" class="st0" d="M281.1,100.2c-0.2-0.4-0.3-0.9-0.7-1.2"/>
	<path id="_x33_75" class="st0" d="M261.7,95.3l-0.9-0.9"/>
	<path id="_x33_76" class="st0" d="M260.9,94L260.9,94L260.9,94L260.9,94L260.9,94L260.9,94L260.9,94L260.9,94L260.9,94L260.9,94"/>
	<path id="_x33_77" class="st0" d="M261.8,95.2l-0.9-0.9"/>
	<path id="_x33_78" class="st0" d="M260.9,94.2L260.9,94.2L260.9,94.2L260.9,94.2L260.9,94.2L260.9,94.2L260.9,94.2"/>
	<path id="_x33_79" class="st0" d="M262.3,94.7l-0.6,0.6"/>
	<path id="_x33_80" class="st0" d="M262.3,94.7l-1.1-0.7l0,0l0,0l0,0l0,0l0,0l0,0l0,0l0,0l0,0"/>
	<path id="_x33_81" class="st0" d="M262.1,94.8l-1.1-0.7l0,0l0,0l0,0l0,0l0,0l0,0"/>
	<path id="_x33_83" class="st0" d="M263.9,92.5l-0.9-0.9"/>
	<path id="_x33_84" class="st0" d="M263,91.4L263,91.4L263,91.4L263,91.4L263,91.4L263,91.4L263,91.4L263,91.4L263,91.4L263,91.4"/>
	<path id="_x33_85" class="st0" d="M264.1,92.4l-0.9-0.9"/>
	<path id="_x33_86" class="st0" d="M263.1,91.5L263.1,91.5L263.1,91.5L263.1,91.5L263.1,91.5L263.1,91.5L263.1,91.5"/>
	<path id="_x33_87" class="st0" d="M264.4,91.9l-0.6,0.6"/>
	<path id="_x33_88" class="st0" d="M264.4,91.9l-1.1-0.7l0,0l0,0l0,0l0,0l0,0l0,0l0,0l0,0l0,0"/>
	<path id="_x33_89" class="st0" d="M264.4,92l-1.1-0.7l0,0l0,0l0,0l0,0l0,0l0,0"/>
	<path id="_x33_90" class="st0" d="M273,107.2l0.1-0.2l-0.3-0.1l-0.1,0.2"/>
	<path id="_x33_91" class="st0" d="M267.6,102.8l0.1-0.2l-0.3-0.1l-0.1,0.2"/>
	<path id="_x33_92" class="st0" d="M262.5,98.9l0.1-0.2l-0.3-0.1l-0.1,0.2"/>
	<path id="_x34_17" class="st0" d="M254.7,90.7c0.7,0,1.2-0.7,1.1-1.4"/>
	<path id="_x34_18" class="st0" d="M253.3,89.9l1.1,0.8"/>
	<path id="_x34_19" class="st0" d="M255.7,89.2l-1.1-0.8"/>
	<path id="_x34_20" class="st0" d="M254.5,88.3l-1.1,1.6"/>
	<path id="_x34_21" class="st0" d="M255.7,89.5c0,0,0-0.1-0.2-0.1"/>
	<path id="_x34_22" class="st0" d="M254.4,90.7h0.1"/>
	<path id="_x34_23" class="st0" d="M255.3,90.1L255.3,90.1L255.3,90.1L255.3,90.1L255.3,90.1L255.3,90.1L255.3,90.1L255.3,90.1
		L255.3,90.1L255.3,90.1L255.3,90.1L255.3,90.1L255.3,90.1L255.3,90.1L255.3,90.1L255.3,90.1L255.3,90.1L255.3,90.1L255.3,90.1
		L255.3,90.1L255.3,90.1L255.3,90.1L255.3,90.1L255.3,90.1L255.3,90.1z"/>
	<path id="_x34_24" class="st0" d="M253.6,89.7L253.6,89.7L253.6,89.7L253.6,89.7L253.6,89.7L253.6,89.7L253.6,89.7L253.6,89.7
		L253.6,89.7L253.6,89.7L253.6,89.7L253.6,89.7L253.6,89.7L253.6,89.7L253.6,89.7L253.6,89.7L253.6,89.7L253.6,89.7L253.6,89.7
		L253.6,89.7L253.6,89.7L253.6,89.7L253.6,89.7L253.6,89.7L253.6,89.7z"/>
	<path id="_x34_25" class="st0" d="M254.5,88.6L254.5,88.6L254.5,88.6L254.5,88.6L254.5,88.6L254.5,88.6L254.5,88.6L254.5,88.6
		L254.5,88.6L254.5,88.6L254.5,88.6L254.5,88.6l0.2,0.1l0,0l0,0l0,0l0,0l0,0L254.5,88.6L254.5,88.6L254.5,88.6L254.5,88.6
		L254.5,88.6L254.5,88.6L254.5,88.6z"/>
	<path id="_x34_26" class="st0" d="M255,80.5h-0.6"/>
	<path id="_x34_27" class="st0" d="M254.9,81.3h-0.3"/>
	<path id="_x34_28" class="st0" d="M254.3,81.2l-0.2-0.1"/>
	<path id="_x34_29" class="st0" d="M255,81.1l0.1-0.2"/>
	<path id="_x34_30" class="st0" d="M254.4,80.6L254.4,80.6L254.4,80.6L254.4,80.6L254.4,80.6l-0.1,0.2l0,0l0,0l0,0l0,0l0,0l0,0l0,0
		l0,0"/>
	<path id="_x34_31" class="st0" d="M254.3,81.2L254.3,81.2L254.3,81.2L254.3,81.2L254.3,81.2L254.3,81.2l0.2,0.1l0,0"/>
	<path id="_x34_32" class="st0" d="M254.9,81.3L254.9,81.3L254.9,81.3L254.9,81.3L254.9,81.3h0.1l0,0l0,0"/>
	<path id="_x34_33" class="st0" d="M255.2,81L255.2,81L255.2,81L255.2,81L255.2,81L255.2,81L255.2,81L255.2,81L255.2,81L255.2,81
		L255.2,81L255.2,81L255.2,81L255.2,81"/>
	<path id="_x35_56" class="st0" d="M269.8,90.1c-11.2-9.5-23-18.3-35.7-25.9c-2.5-1.7-3.7-1.8-3.3-3.3"/>
	<path id="_x35_57" class="st0" d="M255.1,92.5l-3.3-2.5"/>
	<path id="_x35_58" class="st0" d="M250.6,89c-1.1-0.7-2.2-1.4-3.1-2.1"/>
	<path id="_x35_59" class="st0" d="M249.6,89.2l-2.3-2"/>
	<path id="_x35_60" class="st0" d="M247.5,86.9h-0.1c0,0-0.1,0-0.1,0.2c0,0.1,0,0.1,0,0.3"/>
	<path id="_x35_61" class="st0" d="M251.9,90c-0.3-0.3-0.8-0.6-1.1-1"/>
	<path id="_x35_62" class="st0" d="M271.8,90.5l22.3-39.2"/>
	<path id="_x35_63" class="st0" d="M253.7,69.4L284,43.1"/>
	<path id="_x35_64" class="st0" d="M294.1,51.3c1.4-2.3,2.7-5.5,2-8c-0.7-2.4-3.4-3.3-5.7-3c-2.4,0.3-4.4,1.3-6.3,2.7"/>
	<path id="_x35_65" class="st0" d="M281.3,70.7l1.2,1"/>
	<path id="_x35_66" class="st0" d="M294.9,49.6l-0.8-0.7"/>
	<path id="_x35_67" class="st0" d="M295.4,42.1c0,0.1-0.1,0.5,0,0.7c0,0.1,0,0.3,0.2,0.4c0.2,0.1,0.2,0.3,0.3,0.4
		c0,0.1,0.2,0.1,0.3,0.1"/>
	<path id="_x35_68" class="st0" d="M295.1,41.8c-0.3,0.8-0.2,1.7,0.4,2.2c0.2,0.1,0.3,0.4,0.6,0.4"/>
	<path id="_x35_69" class="st0" d="M281.1,70.1L293.4,49"/>
	<path id="_x35_70" class="st0" d="M281.1,70.1L281.1,70.1L281.1,70.1L281.1,70.1L281.1,70.1L281.1,70.1L281.1,70.1L281.1,70.1
		L281.1,70.1L281.1,70.1L281.1,70.1L281.1,70.1L281.1,70.1"/>
	<path id="_x35_71" class="st0" d="M294.1,49L294.1,49L294.1,49L294.1,49l-0.2-0.1l0,0l0,0l0,0l0,0l0,0l0,0l0,0l0,0l0,0l0,0"/>
	<path id="_x35_72" class="st0" d="M267.9,57l3,2.4"/>
	<path id="_x35_73" class="st0" d="M270.9,59.4l16.7-16.2"/>
	<path id="_x35_74" class="st0" d="M287.6,43.2l-1.7-1.4"/>
	<path id="_x35_75" class="st0" d="M269.4,55l3-2.7"/>
	<path id="_x35_76" class="st0" d="M269.9,55.3l-0.3-0.3"/>
	<path id="_x35_77" class="st0" d="M273.1,52.6l-0.5-0.1"/>
	<path id="_x35_78" class="st0" d="M268.1,57.2l16.2-14"/>
	<path id="_x35_79" class="st0" d="M286,42.1L286,42.1l-0.3,0.2h-0.1h-0.1h-0.1h-0.1h-0.1h-0.1l-0.1,0.2h-0.1l-0.1,0.2h-0.1
		l-0.1,0.2l-0.1,0.2l-0.1,0.2l-0.1,0.2"/>
	<path id="_x35_80" class="st0" d="M271,59.3l-2.6-2.1"/>
	<path id="_x35_81" class="st0" d="M271.9,57.3l-2-1.7"/>
	<path id="_x35_82" class="st0" d="M272.1,57.1l-2-1.7"/>
	<path id="_x35_83" class="st0" d="M272.4,57l-2-1.7"/>
	<path id="_x35_84" class="st0" d="M272.2,57.3h-0.3"/>
	<path id="_x35_85" class="st0" d="M272.2,57.3V57"/>
	<path id="_x35_86" class="st0" d="M273.4,55.9l-2-1.5"/>
	<path id="_x35_87" class="st0" d="M273.7,55.7l-2-1.5"/>
	<path id="_x35_88" class="st0" d="M273.8,55.5l-2-1.5"/>
	<path id="_x35_89" class="st0" d="M273.8,55.8h-0.3"/>
	<path id="_x35_90" class="st0" d="M273.8,55.8v-0.3"/>
	<path id="_x35_91" class="st0" d="M274.9,54.4l-1.9-1.6"/>
	<path id="_x35_92" class="st0" d="M275.1,54.3l-1.9-1.6"/>
	<path id="_x35_93" class="st0" d="M275.2,54.1l-1.9-1.6"/>
	<path id="_x35_94" class="st0" d="M275.2,54.4h-0.3"/>
	<path id="_x35_95" class="st0" d="M275.2,54.4v-0.3"/>
	<path id="_x35_96" class="st0" d="M276.4,53l-1.9-1.4"/>
	<path id="_x35_97" class="st0" d="M276.5,52.9l-1.7-1.4"/>
	<path id="_x35_98" class="st0" d="M276.7,52.7l-1.7-1.4"/>
	<path id="_x35_99" class="st0" d="M276.7,53h-0.3"/>
	<path id="_x36_00" class="st0" d="M276.7,53v-0.3"/>
	<path id="_x36_01" class="st0" d="M280.1,49.4l-1.6-1.3"/>
	<path id="_x36_02" class="st0" d="M280.4,49.2l-1.6-1.3"/>
	<path id="_x36_03" class="st0" d="M280.5,49.1l-1.6-1.3"/>
	<path id="_x36_04" class="st0" d="M280.5,49.4h-0.3"/>
	<path id="_x36_05" class="st0" d="M280.5,49.4v-0.3"/>
	<path id="_x36_06" class="st0" d="M281.7,48l-1.4-1.1"/>
	<path id="_x36_07" class="st0" d="M281.8,47.8l-1.4-1.1"/>
	<path id="_x36_08" class="st0" d="M281.9,47.7l-1.4-1.1"/>
	<path id="_x36_09" class="st0" d="M282,48h-0.3"/>
	<path id="_x36_10" class="st0" d="M282,48v-0.3"/>
	<path id="_x36_11" class="st0" d="M283.1,46.6l-1.4-1.1"/>
	<path id="_x36_12" class="st0" d="M283.4,46.4l-1.4-1.1"/>
	<path id="_x36_13" class="st0" d="M283.5,46.2l-1.4-1.1"/>
	<path id="_x36_14" class="st0" d="M283.5,46.5h-0.3"/>
	<path id="_x36_15" class="st0" d="M283.5,46.5v-0.3"/>
	<path id="_x36_16" class="st0" d="M284.7,45.1l-1.2-1"/>
	<path id="_x36_17" class="st0" d="M284.8,44.8l-1.2-1"/>
	<path id="_x36_18" class="st0" d="M284.9,44.7l-1.2-1"/>
	<path id="_x36_19" class="st0" d="M285,45h-0.3"/>
	<path id="_x36_20" class="st0" d="M285,45v-0.3"/>
	<path id="_x36_21" class="st0" d="M279,51.4l-2.2-1.8"/>
	<path id="_x36_22" class="st0" d="M278.8,51.6l-2.2-1.8"/>
	<path id="_x36_23" class="st0" d="M279.1,51.4l-2.2-1.7"/>
	<path id="_x36_24" class="st0" d="M279.4,51.1l-2.2-1.7"/>
	<path id="_x36_25" class="st0" d="M287.3,43.5l-1.6-1.3"/>
	<path id="_x36_26" class="st0" d="M278.6,50.5l-0.4-2.1"/>
	<path id="_x36_27" class="st0" d="M278.8,50.8l-0.6-2.4"/>
	<path id="_x36_28" class="st0" d="M279.1,50.9l-0.6-2.8"/>
	<path id="_x36_29" class="st0" d="M278.7,51.4l-3.7-0.1"/>
	<path id="_x36_30" class="st0" d="M278.4,51.1l-3.1-0.1"/>
	<path id="_x36_31" class="st0" d="M278.1,51h-2.7"/>
	<path id="_x36_32" class="st0" d="M277.3,80.6l-19.1-15.2"/>
	<path id="_x36_33" class="st0" d="M278.1,79.3l-18.7-14.9"/>
	<path id="_x36_34" class="st0" d="M271.9,90c-4.2-2.5-7.5-6.2-11.1-9.3c-3.2-3.3-6.2-6.9-7.3-11.3"/>
	<path id="_x36_35" class="st0" d="M253.7,69.4c-1.4,1.1-3.4,1.4-5.2,1.6c-1.5,0.1-3,0-4.5-0.2"/>
	<path id="_x36_36" class="st0" d="M263,82.5l6.5-8.2"/>
	<path id="_x36_37" class="st0" d="M256.4,75.1l6.3-6.1"/>
	<path id="_x36_38" class="st0" d="M267.8,88.4l0.7-0.8"/>
	<path id="_x36_39" class="st0" d="M263,84.5l0.8-1.1"/>
	<path id="_x36_40" class="st0" d="M253.9,77.4l0.3-0.2l0.3-0.3l0.3-0.2l0.3-0.3l0.3-0.3l0.3-0.3l0.3-0.3l0.3-0.3"/>
	<path id="_x36_41" class="st0" d="M252.1,71.1L252.1,71.1L252.1,71.1L252.1,71.1L252.1,71.1L252.1,71.1L252.1,71.1l-0.1,0.2l0,0"/>
	<path id="_x36_42" class="st0" d="M252.1,71.1l0.4-0.2"/>
	<path id="_x36_43" class="st0" d="M252.9,71.1L252.9,71.1L252.9,71.1L252.9,71.1L252.9,71.1L252.9,71.1l-0.2-0.1l0,0l0,0"/>
	<path id="_x36_44" class="st0" d="M252.9,71.1l0.3,0.9"/>
	<path id="_x36_45" class="st0" d="M253.1,72.2L253.1,72.2L253.1,72.2L253.1,72.2L253.1,72.2L253.1,72.2l0.1-0.2l0,0l0,0"/>
	<path id="_x36_46" class="st0" d="M253.1,72.2l-0.4,0.2"/>
	<path id="_x36_47" class="st0" d="M252.3,72.3L252.3,72.3L252.3,72.3L252.3,72.3L252.3,72.3L252.3,72.3l0.2,0.1l0,0l0,0"/>
	<path id="_x36_48" class="st0" d="M252.3,72.3l-0.3-0.9"/>
	<path id="_x36_49" class="st0" d="M261.2,82.8L261.2,82.8L261.2,82.8L261.2,82.8l0.2,0.1l0,0l0,0l0,0l0,0l0,0l0,0l0,0l0,0l0,0l0,0
		l0,0l0,0l0,0l0,0l0,0l0,0l0,0l0,0l0,0l0,0l0,0l0,0l0,0l0,0l0,0l0,0l0,0l0,0l0,0"/>
	<path id="_x36_50" class="st0" d="M261,81.4L261,81.4L261,81.4L261,81.4h-0.1l0,0l0,0l0,0l0,0l0,0l0,0l0,0l0,0l0,0l0,0l0,0"/>
	<path id="_x36_51" class="st0" d="M260.7,81.9L260.7,81.9l0.2,0.3v0.1v0.1l0.2,0.1l0.2,0.1l0.2,0.1"/>
	<path id="_x36_52" class="st0" d="M262.1,81.8L262.1,81.8l-0.3-0.1h-0.1h-0.1h-0.1h-0.1h-0.1"/>
	<path id="_x36_53" class="st0" d="M261.7,82.6L261.7,82.6L261.7,82.6L261.7,82.6L261.7,82.6L261.7,82.6L261.7,82.6L261.7,82.6
		L261.7,82.6L261.7,82.6L261.7,82.6L261.7,82.6L261.7,82.6L261.7,82.6L261.7,82.6L261.7,82.6L261.7,82.6L261.7,82.6L261.7,82.6
		L261.7,82.6L261.7,82.6L261.7,82.6L261.7,82.6L261.7,82.6L261.7,82.6z"/>
	<path id="_x36_54" class="st0" d="M260.9,81.6L260.9,81.6L260.9,81.6L260.9,81.6L260.9,81.6L260.9,81.6L260.9,81.6L260.9,81.6
		L260.9,81.6L260.9,81.6L260.9,81.6L260.9,81.6l0.2,0.1l0,0l0,0l0,0l0,0l0,0L260.9,81.6L260.9,81.6L260.9,81.6L260.9,81.6
		L260.9,81.6L260.9,81.6L260.9,81.6z"/>
	<path id="_x36_55" class="st0" d="M262.1,82.3L262.1,82.3L262.1,82.3L262.1,82.3L262.1,82.3L262.1,82.3L262.1,82.3L262.1,82.3
		L262.1,82.3L262.1,82.3L262.1,82.3L262.1,82.3L262.1,82.3L262.1,82.3L262.1,82.3L262.1,82.3L262.1,82.3L262.1,82.3L262.1,82.3
		L262.1,82.3L262.1,82.3L262.1,82.3L262.1,82.3L262.1,82.3L262.1,82.3z"/>
	<path id="_x36_69" class="st0" d="M256.4,91.8c0-0.1-0.2-0.3-0.3-0.4c-0.1,0-0.3-0.1-0.3,0"/>
	<path id="_x36_70" class="st0" d="M254.7,93.6L254.7,93.6L254.7,93.6L254.7,93.6L254.7,93.6L254.7,93.6L254.7,93.6L254.7,93.6
		L254.7,93.6L254.7,93.6L254.7,93.6L254.7,93.6L254.7,93.6L254.7,93.6L254.7,93.6L254.7,93.6L254.7,93.6L254.7,93.6L254.7,93.6"/>
	<path id="_x36_71" class="st0" d="M255,93.7l1.4-1.9"/>
	<path id="_x36_72" class="st0" d="M254.7,93.6l1.1-2.1"/>
	<path id="_x36_74" class="st0" d="M254.9,93.3l0.3,0.3"/>
	<path id="_x36_75" class="st0" d="M218.5,56.9l16.8,16.5"/>
	<path id="_x36_76" class="st0" d="M235.3,73.4L235.3,73.4L235.3,73.4L235.3,73.4L235.3,73.4L235.3,73.4L235.3,73.4L235.3,73.4
		L235.3,73.4L235.3,73.4L235.3,73.4L235.3,73.4L235.3,73.4L235.3,73.4L235.3,73.4L235.3,73.4L235.3,73.4L235.3,73.4L235.3,73.4
		L235.3,73.4L235.3,73.4L235.3,73.4L235.3,73.4L235.3,73.4L235.3,73.4L235.3,73.4L235.3,73.4L235.3,73.4L235.3,73.4z"/>
	<path id="_x36_77" class="st0" d="M218.5,56.9c12.1,12.3,24.1,24.4,36.2,36.7"/>
	<path id="_x36_78" class="st0" d="M255.3,92.5L255.3,92.5"/>
	<path id="_x36_79" class="st0" d="M255.4,92.2l-7-6.1"/>
	<path id="_x36_80" class="st0" d="M234.4,44.3c0.2-1.2-0.3-2.7-1.5-3.2s-2.7-0.2-3.9,0.3c-1.6,0.7-3.1,1.6-4.5,2.8
		c-1.7,1.3-3.5,2.7-4.9,4.4c-0.9,0.9-1.5,2-2.4,3c-0.3,0.3-0.3,0.8,0.1,1.2c0.6,0.9,1.4,1.9,2.2,2.3c0.3,0.1,0.6,0.4,0.9,0.7
		c0,0.1,0,0.3-0.1,0.3"/>
	<path id="_x36_81" class="st0" d="M231.1,62.7l-10-5.5"/>
	<path id="_x36_82" class="st0" d="M221.1,57.1l4.4-5.3"/>
	<path id="_x36_83" class="st0" d="M225.5,51.8l4.6-6.7"/>
	<path id="_x36_84" class="st0" d="M230.1,45.1l0.7-1.2"/>
	<path id="_x36_85" class="st0" d="M230.8,60.9l-8.8-5.1"/>
	<path id="_x36_86" class="st0" d="M227.6,59.1l5.4-16"/>
	<path id="_x36_87" class="st0" d="M234.4,44.3l-2.5-2.1"/>
	<path id="_x36_88" class="st0" d="M232.4,41.1c-0.9-0.3-1.9-0.1-2.8,0.3c-1.6,0.5-3.1,1.6-4.5,2.6c-1.9,1.4-3.7,2.9-5.2,4.7
		c-0.9,0.9-1.5,2-2.2,3c-0.1,0.2-0.3,0.5-0.1,0.8c0.5,0.7,1.1,1.6,1.9,2.2"/>
	<path id="_x36_90" class="st0" d="M217.9,55.1c0.2,0.1,0.5,0.3,0.6,0.4c0.6,0.4,1.4,0.8,2,1.2c0.9,0.6,1.9,1.3,2.6,2
		c0.3,0.3,0.8,0.6,1.1,1c0.6,0.6,1.4,1.3,1.9,2c0.2,0.1,0.3,0.6,0.3,0.6c-0.1,0.2-0.4,0-0.8-0.1c-0.8-0.3-1.5-0.5-2.1-0.9
		c-0.6-0.3-1.2-0.7-1.8-1.1c-0.8-0.6-1.6-1.1-2.3-1.7c-0.8-0.7-1.7-1.3-2.5-2l-0.2-0.1"/>
	<path id="_x36_91" class="st0" d="M219.4,55.3l-7.5-4.3"/>
	<path id="_x36_92" class="st0" d="M211.7,51.1l-0.6-0.4"/>
	<path id="_x36_93" class="st0" d="M211.2,50.7L211.2,50.7L211.2,50.7L211.2,50.7h-0.1l0,0l0,0l0,0l0,0l0,0"/>
	<path id="_x36_94" class="st0" d="M216.3,57l1.8-2.3"/>
	<path id="_x36_95" class="st0" d="M221.8,56.3l-0.5-0.3"/>
	<path id="_x36_96" class="st0" d="M220,55.5c0.2,0.6,0.8,1,1.4,1.1c0,0,0,0,0.1,0"/>
	<path id="_x36_97" class="st0" d="M220.8,56.3L221,56"/>
	<path id="_x36_98" class="st0" d="M221.3,56L221.3,56L221.3,56L221.3,56h-0.1l0,0l0,0l0,0l0,0"/>
	<path id="_x36_99" class="st0" d="M221.1,57.1l-1.6-1.4"/>
	<path id="_x37_00" class="st0" d="M219.5,55.6L219.5,55.6L219.5,55.6L219.5,55.6c-0.2-0.1-0.2-0.1-0.2-0.1l0,0l0,0c0,0,0,0,0-0.1"
		/>
	<path id="_x37_01" class="st0" d="M220.4,55.6l-1.5-0.8"/>
	<path id="_x37_02" class="st0" d="M225.3,51.9l-0.6-0.7"/>
	<path id="_x37_03" class="st0" d="M224.7,51.3l0.8,0.4"/>
	<path id="_x37_04" class="st0" d="M231.1,43.7L231.1,43.7L231.1,43.7L231.1,43.7L231.1,43.7L231.1,43.7L231.1,43.7L231.1,43.7
		L231.1,43.7L231.1,43.7L231.1,43.7L231.1,43.7L231.1,43.7L231.1,43.7L231.1,43.7L231.1,43.7L231.1,43.7L231.1,43.7L231.1,43.7
		L231.1,43.7L231.1,43.7L231.1,43.7L231.1,43.7L231.1,43.7L231.1,43.7L231.1,43.7L231.1,43.7L231.1,43.7L231.1,43.7L231.1,43.7
		L231.1,43.7L231.1,43.7L231.1,43.7L231.1,43.7L231.1,43.7L231.1,43.7L231.1,43.7L231.1,43.7L231.1,43.7L231.1,43.7L231.1,43.7
		L231.1,43.7L231.1,43.7L231.1,43.7L231.1,43.7L231.1,43.7L231.1,43.7z"/>
	<path id="_x37_05" class="st0" d="M231,43.6l1.5-2.6"/>
	<path id="_x37_06" class="st0" d="M221.5,54.2l-3.7-3"/>
	<path id="_x37_07" class="st0" d="M221.7,54l-3.7-3"/>
	<path id="_x37_08" class="st0" d="M221.8,53.9l-3.7-3"/>
	<path id="_x37_09" class="st0" d="M221.8,54.2h-0.3"/>
	<path id="_x37_10" class="st0" d="M221.8,54.2v-0.3"/>
	<path id="_x37_11" class="st0" d="M222.8,52.6l-3.7-3"/>
	<path id="_x37_12" class="st0" d="M223,52.5l-3.7-3"/>
	<path id="_x37_13" class="st0" d="M223.1,52.2l-3.7-3"/>
	<path id="_x37_14" class="st0" d="M223.1,52.6h-0.3"/>
	<path id="_x37_15" class="st0" d="M223.1,52.6v-0.3"/>
	<path id="_x37_16" class="st0" d="M223.5,50.5l-3.1-2.5"/>
	<path id="_x37_17" class="st0" d="M223.6,50.4l-3.1-2.5"/>
	<path id="_x37_18" class="st0" d="M223.7,50.2l-3.1-2.5"/>
	<path id="_x37_19" class="st0" d="M223.8,50.5h-0.3"/>
	<path id="_x37_20" class="st0" d="M223.8,50.5v-0.3"/>
	<path id="_x37_21" class="st0" d="M225.4,49.5l-3.6-2.8"/>
	<path id="_x37_22" class="st0" d="M225.5,49.2l-3.6-2.8"/>
	<path id="_x37_23" class="st0" d="M225.6,49.1l-3.6-2.8"/>
	<path id="_x37_24" class="st0" d="M225.6,49.4h-0.3"/>
	<path id="_x37_25" class="st0" d="M225.6,49.4v-0.3"/>
	<path id="_x37_26" class="st0" d="M226.6,48l-3.3-2.7"/>
	<path id="_x37_27" class="st0" d="M226.8,47.7l-3.3-2.5"/>
	<path id="_x37_28" class="st0" d="M226.9,47.5l-3.3-2.5"/>
	<path id="_x37_29" class="st0" d="M226.9,47.8h-0.3"/>
	<path id="_x37_30" class="st0" d="M226.9,47.8v-0.3"/>
	<path id="_x37_31" class="st0" d="M227.7,46.3l-3-2.4"/>
	<path id="_x37_32" class="st0" d="M227.9,46.1l-2.8-2.3"/>
	<path id="_x37_33" class="st0" d="M228,45.9l-2.8-2.3"/>
	<path id="_x37_34" class="st0" d="M228.2,46.2h-0.3"/>
	<path id="_x37_35" class="st0" d="M228.2,46.2v-0.3"/>
	<path id="_x37_36" class="st0" d="M229,44.7l-2.5-2"/>
	<path id="_x37_37" class="st0" d="M229.2,44.5l-2.3-1.8"/>
	<path id="_x37_38" class="st0" d="M229.3,44.4l-2.3-1.8"/>
	<path id="_x37_39" class="st0" d="M229.3,44.7H229"/>
	<path id="_x37_40" class="st0" d="M229.3,44.7v-0.3"/>
	<path id="_x37_41" class="st0" d="M230.1,43.3l-1.9-1.6"/>
	<path id="_x37_42" class="st0" d="M230.3,43.1l-1.9-1.4"/>
	<path id="_x37_43" class="st0" d="M230.4,43l-1.7-1.4"/>
	<path id="_x37_44" class="st0" d="M230.4,43.3h-0.3"/>
	<path id="_x37_45" class="st0" d="M230.4,43.3V43"/>
	<path id="_x37_46" class="st0" d="M231.3,42.1l-1.1-0.8"/>
	<path id="_x37_47" class="st0" d="M231.4,41.9l-0.9-0.9"/>
	<path id="_x37_48" class="st0" d="M231.6,41.7l-0.8-0.7"/>
	<path id="_x37_49" class="st0" d="M231.6,42h-0.3"/>
	<path id="_x37_50" class="st0" d="M231.6,42v-0.3"/>
	<path id="_x37_51" class="st0" d="M270.1,58.6l-0.6-2.5"/>
	<path id="_x37_52" class="st0" d="M270.4,58.7l-0.6-2.8"/>
	<path id="_x37_53" class="st0" d="M270.7,59l-0.8-3.3"/>
	<path id="_x37_54" class="st0" d="M276.8,77.8l0.8-1.5"/>
	<path id="_x37_55" class="st0" d="M278.3,76.3l1.1,0.8"/>
	<path id="_x37_56" class="st0" d="M279.1,77.6c-0.3-0.1-0.6-0.1-0.7,0c-0.3,0.2-0.4,0.3-0.4,0.6c0,0.3,0.2,0.6,0.3,0.7l0,0"/>
	<path id="_x37_57" class="st0" d="M278.3,76.3c0,0-0.2-0.1-0.3-0.1c-0.1,0-0.3,0-0.3,0.2l0,0"/>
	<path id="_x37_58" class="st0" d="M276.8,77.8L276.8,77.8L276.8,77.8L276.8,77.8L276.8,77.8L276.8,77.8L276.8,77.8L276.8,77.8
		L276.8,77.8L276.8,77.8L276.8,77.8L276.8,77.8"/>
	<path id="_x31_117" class="st0" d="M271.8,90.5L271.8,90.5L271.8,90.5L271.8,90.5L271.8,90.5L271.8,90.5L271.8,90.5l-0.1,0.2l0,0
		l0,0l0,0l0,0l0,0l0,0l0,0l0,0l0,0"/>
	<path id="_x31_183" class="st0" d="M225.4,67.9l-15.7,7"/>
	<path id="_x31_184" class="st0" d="M209.7,75c-1.2,0.5-3,0.3-3.6-1c-0.7-1.2-0.6-2.7-0.3-3.9c0.5-2,1.3-4,2.1-5.8
		c0.8-1.7,1.6-3.2,2.9-4.8c0.7-0.9,1.6-1.9,2.4-3c0.3-0.3,0.7-0.5,1-0.3c1.1,0.4,2.1,0.8,2.8,1.8c0.3,0.3,0.5,0.6,0.8,0.7
		c0.1,0,0.1,0,0.3-0.2"/>
	<path id="_x31_185" class="st0" d="M227,67.7l-7.6-8.5"/>
	<path id="_x31_186" class="st0" d="M219.4,59.2l-4.2,5.4"/>
	<path id="_x31_187" class="st0" d="M215.2,64.7l-5.5,6"/>
	<path id="_x31_188" class="st0" d="M209.6,70.6l-1.2,1"/>
	<path id="_x31_189" class="st0" d="M225.2,67.9l-6.9-7.4"/>
	<path id="_x31_190" class="st0" d="M222.7,65.2L208.3,74"/>
	<path id="_x31_191" class="st0" d="M209.7,75l-2.6-2.1"/>
	<path id="_x31_192" class="st0" d="M206.3,73.8c-0.5-1-0.6-2.2-0.3-3.4c0.4-1.7,0.9-3.2,1.6-4.7c0.9-2.1,2-4.1,3.4-6
		c0.7-0.9,1.6-1.9,2.3-2.8c0.1-0.3,0.4-0.3,0.7-0.2c0.8,0.4,1.8,0.7,2.5,1.4"/>
	<path id="_x31_193" class="st0" d="M217.2,58l-5.8-6.4"/>
	<path id="_x31_194" class="st0" d="M211.4,51.4l-0.6-0.4"/>
	<path id="_x31_195" class="st0" d="M210.8,50.7L210.8,50.7L210.8,50.7L210.8,50.7L210.8,50.7L210.8,50.7L210.8,50.7L210.8,50.7
		L210.8,50.7L210.8,50.7"/>
	<path id="_x31_196" class="st0" d="M218.7,60.2l-0.3-0.4"/>
	<path id="_x31_197" class="st0" d="M219,59.8L219,59.8L219,59.8v-0.2v-0.1v-0.1v-0.1v-0.1v-0.1l0,0h-0.1h-0.1h-0.1h-0.1h-0.1h-0.1
		h-0.1h-0.1h-0.1H218"/>
	<path id="_x31_198" class="st0" d="M218.5,59.1l-0.3,0.3"/>
	<path id="_x31_199" class="st0" d="M218.4,59.4L218.4,59.4L218.4,59.4L218.4,59.4L218.4,59.4L218.4,59.4L218.4,59.4L218.4,59.4
		L218.4,59.4"/>
	<path id="_x31_200" class="st0" d="M219.4,59.2l-1.7-1.3"/>
	<path id="_x31_201" class="st0" d="M217.7,58.1L217.7,58.1L217.7,58.1L217.7,58.1l-0.2-0.1l0,0l0,0l0,0l0,0"/>
	<path id="_x31_202" class="st0" d="M217.7,58.9l-1.3-1.3"/>
	<path id="_x31_203" class="st0" d="M215.3,64.5l-0.8-0.4"/>
	<path id="_x31_204" class="st0" d="M214.5,64.1l0.6,0.7"/>
	<path id="_x31_205" class="st0" d="M208.7,72L208.7,72L208.7,72L208.7,72L208.7,72L208.7,72h-0.1l0,0l0,0l0,0l0,0l0,0l0,0l0,0l0,0
		l0,0l0,0l0,0l0,0l0,0l0,0l0,0l0,0l0,0l0,0l0,0l0,0l0,0l0,0l0,0l0,0l0,0l0,0l0,0H208.7L208.7,72L208.7,72L208.7,72L208.7,72
		L208.7,72z"/>
	<path id="_x31_206" class="st0" d="M208.3,71.9L206,74"/>
	<path id="_x31_207" class="st0" d="M216.6,60.4l-3.7-3"/>
	<path id="_x31_208" class="st0" d="M216.5,60.6l-3.7-3"/>
	<path id="_x31_209" class="st0" d="M216.3,60.7l-3.7-3"/>
	<path id="_x31_210" class="st0" d="M216.6,60.7v-0.3"/>
	<path id="_x31_211" class="st0" d="M216.6,60.7h-0.3"/>
	<path id="_x31_212" class="st0" d="M215.3,62l-3.7-3"/>
	<path id="_x31_213" class="st0" d="M215.2,62.1l-3.7-3"/>
	<path id="_x31_214" class="st0" d="M215.1,62.3l-3.7-3"/>
	<path id="_x31_215" class="st0" d="M215.4,62.3V62"/>
	<path id="_x31_216" class="st0" d="M215.4,62.3h-0.3"/>
	<path id="_x31_217" class="st0" d="M213.6,63l-3.1-2.5"/>
	<path id="_x31_218" class="st0" d="M213.5,63.3l-3.1-2.5"/>
	<path id="_x31_219" class="st0" d="M213.3,63.4l-3.1-2.5"/>
	<path id="_x31_220" class="st0" d="M213.6,63.4v-0.3"/>
	<path id="_x31_221" class="st0" d="M213.6,63.4h-0.3"/>
	<path id="_x31_222" class="st0" d="M212.8,65.1l-3.6-2.8"/>
	<path id="_x31_223" class="st0" d="M212.7,65.2l-3.6-2.8"/>
	<path id="_x31_224" class="st0" d="M212.5,65.4l-3.6-2.8"/>
	<path id="_x31_225" class="st0" d="M213,65.4v-0.3"/>
	<path id="_x31_226" class="st0" d="M213,65.4h-0.3"/>
	<path id="_x31_227" class="st0" d="M211.7,66.6l-3.3-2.7"/>
	<path id="_x31_228" class="st0" d="M211.5,66.8l-3.3-2.5"/>
	<path id="_x31_229" class="st0" d="M211.4,66.9l-3.3-2.5"/>
	<path id="_x31_230" class="st0" d="M211.7,66.9v-0.3"/>
	<path id="_x31_231" class="st0" d="M211.7,66.9h-0.3"/>
	<path id="_x31_232" class="st0" d="M210.4,68.2l-3-2.4"/>
	<path id="_x31_233" class="st0" d="M210.3,68.3l-2.8-2.3"/>
	<path id="_x31_234" class="st0" d="M210.1,68.5l-2.8-2.3"/>
	<path id="_x31_235" class="st0" d="M210.4,68.5v-0.3"/>
	<path id="_x31_236" class="st0" d="M210.4,68.5h-0.3"/>
	<path id="_x31_237" class="st0" d="M209.1,69.8l-2.5-2"/>
	<path id="_x31_238" class="st0" d="M209,69.9l-2.3-1.8"/>
	<path id="_x31_239" class="st0" d="M208.9,70.1l-2.3-1.8"/>
	<path id="_x31_240" class="st0" d="M209.2,70v-0.3"/>
	<path id="_x31_241" class="st0" d="M209.2,70h-0.3"/>
	<path id="_x31_242" class="st0" d="M208,71.2l-1.9-1.6"/>
	<path id="_x31_243" class="st0" d="M207.9,71.3l-1.9-1.4"/>
	<path id="_x31_244" class="st0" d="M207.7,71.5l-1.7-1.4"/>
	<path id="_x31_245" class="st0" d="M208,71.5v-0.3"/>
	<path id="_x31_246" class="st0" d="M208,71.5h-0.3"/>
	<path id="_x31_247" class="st0" d="M206.9,72.6l-1.1-0.8"/>
	<path id="_x31_248" class="st0" d="M206.7,72.7l-0.9-0.9"/>
	<path id="_x31_249" class="st0" d="M206.6,72.9l-0.8-0.7"/>
	<path id="_x31_250" class="st0" d="M207,72.8v-0.3"/>
	<path id="_x31_251" class="st0" d="M207,72.8h-0.3"/>
	<path id="_x31_252" class="st0" d="M263.2,101.2L230,131.5"/>
	<path id="_x31_253" class="st0" d="M238.5,88.2l-18.9,35.5"/>
	<path id="_x31_254" class="st0" d="M230,131.7c-1.3,1.3-2.9,2.4-4.6,3.1c-1.2,0.5-2.6,1-3.9,0.5c-1.5-0.5-2.3-2-2.7-3.5
		c-0.6-2.2-0.2-4.5,0.4-6.6c0.1-0.5,0.4-0.9,0.5-1.4"/>
	<path id="_x31_255" class="st0" d="M246,114.9l1.2,1"/>
	<path id="_x31_256" class="st0" d="M228.5,132.8l-0.8-0.7"/>
	<path id="_x31_257" class="st0" d="M223.1,135.3c-0.2-0.1-0.3-0.3-0.5-0.3s-0.3-0.1-0.5-0.1c-0.1,0-0.3,0-0.3,0
		c-0.1,0-0.3,0-0.4,0.2c0,0,0,0-0.1,0"/>
	<path id="_x31_258" class="st0" d="M223.7,135.3c-0.2-0.1-0.3-0.3-0.5-0.4c-0.3-0.1-0.6-0.4-1.1-0.4c-0.1,0-0.4,0-0.6,0
		c-0.3,0-0.4,0.2-0.7,0.3h-0.1"/>
	<path id="_x31_259" class="st0" d="M245.4,114.8l-17.9,16.7"/>
	<path id="_x31_260" class="st0" d="M246,114.9L246,114.9L246,114.9L246,114.9l-0.2-0.1l0,0l0,0l0,0l0,0l0,0l0,0l0,0l0,0"/>
	<path id="_x31_261" class="st0" d="M227.6,131.5L227.6,131.5L227.6,131.5L227.6,131.5l-0.1,0.2l0,0l0,0l0,0l0,0l0,0l0,0l0,0l0,0
		l0,0l0,0"/>
	<path id="_x31_262" class="st0" d="M229.7,104.9l3,2.4"/>
	<path id="_x31_263" class="st0" d="M232.6,107.2l-12,19.9"/>
	<path id="_x31_264" class="st0" d="M220.6,127.1l-1.7-1.4"/>
	<path id="_x31_265" class="st0" d="M230,105.1L219.9,124"/>
	<path id="_x31_266" class="st0" d="M219.2,125.9l0.1-0.3l0.1-0.3v-0.1v-0.1V125v-0.1v-0.1v-0.1v-0.1v-0.1v-0.1v-0.1v-0.1l0.1-0.2"
		/>
	<path id="_x31_267" class="st0" d="M232.5,107.5l-2.6-2.1"/>
	<path id="_x31_268" class="st0" d="M230.9,108.8l-2-1.7"/>
	<path id="_x31_269" class="st0" d="M230.8,109.1l-2-1.7"/>
	<path id="_x31_270" class="st0" d="M230.7,109.2l-2-1.7"/>
	<path id="_x31_271" class="st0" d="M230.9,109.1v-0.3"/>
	<path id="_x31_272" class="st0" d="M230.9,109.1h-0.3"/>
	<path id="_x31_273" class="st0" d="M229.8,110.6l-2-1.5"/>
	<path id="_x31_274" class="st0" d="M229.7,110.8l-2-1.5"/>
	<path id="_x31_275" class="st0" d="M229.5,110.9l-2-1.5"/>
	<path id="_x31_276" class="st0" d="M229.8,110.9v-0.3"/>
	<path id="_x31_277" class="st0" d="M229.8,110.9h-0.3"/>
	<path id="_x31_278" class="st0" d="M228.7,112.3l-1.9-1.6"/>
	<path id="_x31_279" class="st0" d="M228.7,112.5l-1.9-1.6"/>
	<path id="_x31_280" class="st0" d="M228.6,112.8l-1.9-1.6"/>
	<path id="_x31_281" class="st0" d="M228.9,112.6v-0.3"/>
	<path id="_x31_282" class="st0" d="M228.9,112.6h-0.3"/>
	<path id="_x31_283" class="st0" d="M227.7,114l-1.9-1.4"/>
	<path id="_x31_284" class="st0" d="M227.6,114.3l-1.7-1.4"/>
	<path id="_x31_285" class="st0" d="M227.5,114.5l-1.7-1.4"/>
	<path id="_x31_286" class="st0" d="M227.8,114.3V114"/>
	<path id="_x31_287" class="st0" d="M227.8,114.3h-0.3"/>
	<path id="_x31_288" class="st0" d="M225,118.5l-1.6-1.3"/>
	<path id="_x31_289" class="st0" d="M224.8,118.8l-1.6-1.3"/>
	<path id="_x31_290" class="st0" d="M224.7,118.9l-1.6-1.3"/>
	<path id="_x31_291" class="st0" d="M225,118.8v-0.3"/>
	<path id="_x31_292" class="st0" d="M225,118.8h-0.3"/>
	<path id="_x31_293" class="st0" d="M223.9,120.3l-1.4-1.1"/>
	<path id="_x31_294" class="st0" d="M223.7,120.5l-1.4-1.1"/>
	<path id="_x31_295" class="st0" d="M223.7,120.8l-1.4-1.1"/>
	<path id="_x31_296" class="st0" d="M223.9,120.6v-0.3"/>
	<path id="_x31_297" class="st0" d="M223.9,120.6h-0.3"/>
	<path id="_x31_298" class="st0" d="M222.9,122.2l-1.4-1.1"/>
	<path id="_x31_299" class="st0" d="M222.8,122.3l-1.4-1.1"/>
	<path id="_x31_300" class="st0" d="M222.6,122.5l-1.4-1.1"/>
	<path id="_x31_301" class="st0" d="M222.9,122.5v-0.3"/>
	<path id="_x31_302" class="st0" d="M222.9,122.5h-0.3"/>
	<path id="_x31_303" class="st0" d="M221.8,123.9l-1.2-1"/>
	<path id="_x31_304" class="st0" d="M221.7,124l-1.2-1"/>
	<path id="_x31_305" class="st0" d="M221.5,124.3l-1.2-1"/>
	<path id="_x31_306" class="st0" d="M221.8,124.2v-0.3"/>
	<path id="_x31_307" class="st0" d="M221.8,124.2h-0.3"/>
	<path id="_x31_308" class="st0" d="M226.7,117.1l-2.2-1.8"/>
	<path id="_x31_309" class="st0" d="M226.8,116.9l-2.2-1.8"/>
	<path id="_x31_310" class="st0" d="M226.7,117.2l-2.2-1.7"/>
	<path id="_x31_311" class="st0" d="M226.6,117.4l-2.2-1.7"/>
	<path id="_x31_312" class="st0" d="M220.7,126.9l-1.6-1.3"/>
	<path id="_x31_313" class="st0" d="M225.8,116.8l-2.1,0.1"/>
	<path id="_x31_314" class="st0" d="M225.9,116.9l-2.4,0.1"/>
	<path id="_x31_315" class="st0" d="M226.3,117.2l-2.8,0.1"/>
	<path id="_x31_316" class="st0" d="M226.7,116.6l-0.9-3.7"/>
	<path id="_x31_317" class="st0" d="M226.4,116.5l-0.7-3.1"/>
	<path id="_x31_318" class="st0" d="M226.1,116.2l-0.7-2.5"/>
	<path id="_x31_319" class="st0" d="M254.9,108.8l-19.1-15.2"/>
	<path id="_x31_320" class="st0" d="M253.7,109.9L235,95"/>
	<path id="_x31_321" class="st0" d="M262.7,101.5c-2.8-3.2-6.7-5.2-10.1-7.7c-3.1-2.2-6.6-3.9-10.3-5c-1.4-0.4-2.7-0.5-4.1-0.6"/>
	<path id="_x31_322" class="st0" d="M238.5,88.2c0.8-1.5,0.6-3.5,0.3-5.3c-0.2-1.5-0.6-3-1.3-4.4"/>
	<path id="_x31_323" class="st0" d="M253.6,94.4l-6.5,8.2"/>
	<path id="_x31_324" class="st0" d="M244.7,89.6c-1.5,2.5-3.1,4.9-4.6,7.6"/>
	<path id="_x31_325" class="st0" d="M260.3,97.8l-0.7,0.8"/>
	<path id="_x31_326" class="st0" d="M255.5,94l-0.8,1.1"/>
	<path id="_x31_327" class="st0" d="M245.1,89.8c0.6-0.9,1-2,1.3-3.1"/>
	<path id="_x31_328" class="st0" d="M240.2,86.3L240.2,86.3L240.2,86.3L240.2,86.3L240.2,86.3h-0.1l0,0l0,0l0,0"/>
	<path id="_x31_329" class="st0" d="M240,86.5l-0.1,0.6"/>
	<path id="_x31_330" class="st0" d="M239.9,86.9L239.9,86.9L239.9,86.9L239.9,86.9L239.9,86.9L239.9,86.9L239.9,86.9L239.9,86.9
		L239.9,86.9"/>
	<path id="_x31_331" class="st0" d="M240,87.1l1.1,0.1"/>
	<path id="_x31_332" class="st0" d="M241.1,87.3L241.1,87.3L241.1,87.3L241.1,87.3L241.1,87.3h0.1l0,0l0,0l0,0"/>
	<path id="_x31_333" class="st0" d="M241.2,87.2l0.1-0.6"/>
	<path id="_x31_334" class="st0" d="M241.4,86.6L241.4,86.6L241.4,86.6L241.4,86.6L241.4,86.6L241.4,86.6L241.4,86.6L241.4,86.6
		L241.4,86.6"/>
	<path id="_x31_335" class="st0" d="M241.2,86.4l-1.1-0.1"/>
	<path id="_x31_336" class="st0" d="M252.5,93.7c0.3,0.3,0.9,0.3,1-0.2c0.1-0.3,0-0.6-0.3-0.7"/>
	<path id="_x31_337" class="st0" d="M252.3,92.5c-0.1,0-0.4,0.2-0.3,0.5"/>
	<path id="_x31_338" class="st0" d="M253.3,92.7L253.3,92.7l-0.3-0.1h-0.1h-0.1h-0.1h-0.1h-0.1"/>
	<path id="_x31_339" class="st0" d="M252,92.8L252,92.8l0.2,0.3v0.1v0.1l0.2,0.1l0.2,0.1l0.2,0.1"/>
	<path id="_x31_340" class="st0" d="M253.4,93.2L253.4,93.2L253.4,93.2L253.4,93.2L253.4,93.2L253.4,93.2L253.4,93.2L253.4,93.2
		L253.4,93.2L253.4,93.2L253.4,93.2L253.4,93.2l0.2,0.1l0,0l0,0l0,0l0,0l0,0L253.4,93.2L253.4,93.2L253.4,93.2L253.4,93.2
		L253.4,93.2L253.4,93.2L253.4,93.2z"/>
	<path id="_x31_341" class="st0" d="M252.1,92.6L252.1,92.6L252.1,92.6L252.1,92.6L252.1,92.6L252.1,92.6L252.1,92.6L252.1,92.6
		L252.1,92.6L252.1,92.6L252.1,92.6L252.1,92.6l0.2,0.1l0,0l0,0l0,0l0,0l0,0L252.1,92.6L252.1,92.6L252.1,92.6L252.1,92.6
		L252.1,92.6L252.1,92.6L252.1,92.6z"/>
	<path id="_x31_342" class="st0" d="M252.9,93.6L252.9,93.6L252.9,93.6L252.9,93.6L252.9,93.6L252.9,93.6L252.9,93.6L252.9,93.6
		L252.9,93.6L252.9,93.6L252.9,93.6L252.9,93.6l0.2,0.1l0,0l0,0l0,0l0,0l0,0L252.9,93.6L252.9,93.6L252.9,93.6L252.9,93.6
		L252.9,93.6L252.9,93.6L252.9,93.6z"/>
	<path id="_x31_343" class="st0" d="M231.6,106.6h-2.5"/>
	<path id="_x31_344" class="st0" d="M231.9,106.9h-3"/>
	<path id="_x31_345" class="st0" d="M232.2,107.2h-3.3"/>
	<path id="_x31_346" class="st0" d="M252,108.9l-1.3,1.1"/>
	<path id="_x31_347" class="st0" d="M250.8,110.8l1.1,0.8"/>
	<path id="_x31_348" class="st0" d="M253.3,110.2c-0.2-0.1-0.3-0.1-0.5-0.3c-0.1,0-0.1,0-0.3,0c-0.1,0-0.3,0-0.3,0.2
		c-0.1,0.2-0.3,0.3-0.3,0.6c0,0.1,0,0.3,0,0.4l0.2,0.1"/>
	<path id="_x31_349" class="st0" d="M250.7,110.1C250.7,110.2,250.6,110.2,250.7,110.1c-0.1,0.2-0.1,0.2-0.1,0.3v0.1c0,0,0,0,0,0.1
		c0,0,0,0.1,0.2,0.1"/>
	<path id="_x31_350" class="st0" d="M252.5,108.9l-0.2-0.1h-0.1c0,0,0,0-0.1,0c0,0,0,0-0.1,0l0,0"/>
	<path id="_x31_351" class="st0" d="M263.2,101.2L263.2,101.2L263.2,101.2L263.2,101.2L263.2,101.2L263.2,101.2L263.2,101.2l0.1-0.2
		l0,0l0,0l0,0l0,0l0,0l0,0l0,0l0,0l0,0"/>
	<path id="_x31_352" class="st0" d="M236,126l2.6,2.1l0.1-0.2l-2.6-2.1"/>
	<path id="_x31_353" class="st0" d="M218.9,54.8L218.9,54.8L218.9,54.8L218.9,54.8L218.9,54.8L218.9,54.8L218.9,54.8L218.9,54.8
		L218.9,54.8L218.9,54.8L218.9,54.8h-0.1l0,0l0,0l0,0l0,0l0,0l0,0l0,0l0,0l0,0l0,0l0,0l0,0l0,0l0,0l0,0l0,0l0,0l0,0l0,0l0,0l0,0"/>
	<path id="_x31_354" class="st0" d="M216.6,57.6L216.6,57.6L216.6,57.6L216.6,57.6L216.6,57.6L216.6,57.6l-0.2-0.1l0,0l0,0l0,0l0,0
		l0,0l0,0l0,0l0,0l0,0l0,0"/>
	<path id="path26455" class="st0" d="M260.9,97.6l-0.3,0.3"/>
	<path id="path26461" class="st0" d="M262.1,94.8l-0.3,0.3"/>
	<path id="path26504" class="st0" d="M264.4,92l-0.3,0.3"/>
	<path id="path26741" class="st0" d="M221.8,56.3l3.7-4.5"/>
	<path id="path26743" class="st0" d="M218.7,60.2l-3.5,4.5"/>
</g>
<path class="st1" d="M-1.4,52.3c53-58.1,147-59.4,210.2-3"/>
<path class="st1" d="M289.2,113.5c14.3,11.8,32,27.2,39.6,34.4"/>
</svg>
