<svg xmlns="http://www.w3.org/2000/svg" viewBox="0 0 290.13 1224.14"><defs><style>.cls-1{opacity:0.4;}.cls-11,.cls-2{fill:gray;}.cls-10,.cls-11,.cls-12,.cls-13,.cls-2,.cls-3,.cls-4,.cls-5,.cls-6,.cls-7,.cls-8,.cls-9{stroke:#09a059;}.cls-2,.cls-3{stroke-miterlimit:10;}.cls-3{fill:#a0a0a0;}.cls-12,.cls-4,.cls-5,.cls-6,.cls-7,.cls-8,.cls-9{fill:none;}.cls-10,.cls-11,.cls-12,.cls-13,.cls-4,.cls-5,.cls-6,.cls-7,.cls-9{stroke-linecap:round;}.cls-10,.cls-11,.cls-12,.cls-13,.cls-4,.cls-5,.cls-6,.cls-7,.cls-8,.cls-9{stroke-linejoin:round;}.cls-10,.cls-11,.cls-13,.cls-4,.cls-8{stroke-width:1.5px;}.cls-5{stroke-width:0.7px;}.cls-7{stroke-width:1.5px;}.cls-9{stroke-width:0.1px;}.cls-10{fill:#b3b3b3;}.cls-12{stroke-width:0.5px;}.cls-13{fill:#999;}</style></defs><title>Asset 11</title><g id="Layer_2" data-name="Layer 2"><g id="svg2"><g class="cls-1"><path id="path7391" class="cls-2" d="M140.81,870.39c-.17-.54-7.37-42-7.3-42s7.14-1,7.17-1.1c1.18-4.91,5.09,43.94,5,44s-4.26-.75-4.63-.74c-.12,0-.75.94-.78.85Z"/><path id="path7249" class="cls-3" d="M131.21,752.5l-2.05-.56-.54-.15V741.32h.29a27.28,27.28,0,0,1,5.46,1.14c1.18.36,2.21.7,2.29.74s-.14.81-.77,2.41c-1.17,3-3,7.35-3.13,7.32l-1.55-.43Z"/><path id="path7251" class="cls-3" d="M113.6,748.43c-1.43-2.47-2.61-4.54-2.63-4.59-.08-.21,5.43-1.86,7.31-2.19,1-.18,1.93-.33,2-.33s.21.44.21,5.24v5.24l-.35.08c-.19,0-1.12.3-2.07.57s-1.77.49-1.83.48-1.27-2-2.69-4.5Z"/><path id="path7253" class="cls-3" d="M101.51,757.63c-2.45-1.43-4.45-2.66-4.46-2.73,0-.35,2-2.63,3.66-4.24,2-1.93,3-2.71,3.19-2.54s1.27,2.12,2.69,4.57l2.57,4.46-.34.26c-.19.15-.92.84-1.61,1.55L106,760.24Z"/><path id="path7255" class="cls-3" d="M91,771.53c-.34,0-.64-.11-.67-.2a21.48,21.48,0,0,1,.39-2.55,25.38,25.38,0,0,1,1.22-4.54c.43-1.18.79-2.16.81-2.19s3.21,1.78,8.41,4.8l.84.49-.23.53a16.61,16.61,0,0,0-.58,2.15l-.35,1.61-4.62,0c-2.54,0-4.89,0-5.22-.07Z"/><path id="path7259" class="cls-3" d="M92.65,789l-.57-1.42a64.59,64.59,0,0,1-1.72-6.31,10.27,10.27,0,0,1,1.17-.18c.64-.09,1.4-.2,1.67-.26.64-.14,7.52-.93,7.56-.87a33.66,33.66,0,0,1,1,4.15c-.13.12-8.89,5.18-9,5.18s-.1-.13-.16-.29Z"/><path id="path7261" class="cls-3" d="M101.68,801.59c-2.45-2.18-4.91-5-4.61-5.27.14-.13,8.78-5.12,8.86-5.12s.75.7,1.63,1.55l1.59,1.54-2.62,4.52c-1.44,2.49-2.65,4.55-2.69,4.58a22.17,22.17,0,0,1-2.16-1.8Z"/><path id="path7263" class="cls-3" d="M118.71,809.81c-2.5-.39-7.64-2-7.64-2.36,0-.13,4.91-8.67,5.11-8.9s.23-.13.46,0,1.1.32,2.07.55l1.77.41,0,5.27,0,5.26h-.35c-.19,0-.86-.09-1.48-.19Z"/><path id="path7265" class="cls-3" d="M128.62,804.77v-5.34l.66-.09a18.36,18.36,0,0,0,2.16-.57l1.49-.47.17.27c.72,1.14,4.52,8,4.72,8.49l.25.63-2.42.81a28.7,28.7,0,0,1-4.72,1.2l-2.31.41v-5.34Z"/><path id="path7267" class="cls-3" d="M145,800.58c-1.85-2.4-2.72-3.55-3.86-5.13l-.92-1.27,1.5-1.5,1.5-1.5,4.34,2.49c2.39,1.37,4.42,2.55,4.51,2.63.27.25-1.63,2.56-3.67,4.46-1,.92-1.83,1.67-1.87,1.68s-.73-.84-1.52-1.86Z"/><path id="path7269" class="cls-3" d="M151.86,786.71l-4.45-2.61a10.83,10.83,0,0,1,.44-2.15l.53-2.11h5.34c2.93,0,5.33,0,5.33.06s-.28,1.33-.63,2.87c-.61,2.74-1.8,6.41-2.08,6.48-.07,0-2.09-1.13-4.48-2.54Z"/><path id="path7271" class="cls-3" d="M148.31,771.22a13.32,13.32,0,0,0-.55-2.12l-.53-1.72c0-.06,9-5.24,9.07-5.26a4.88,4.88,0,0,1,.66,1.27,44.23,44.23,0,0,1,1.91,7.45l.08.79H148.32v-.41Z"/><path id="path7273" class="cls-3" d="M142.77,759.8a14.45,14.45,0,0,0-1.49-1.54,9.46,9.46,0,0,1-1.17-1.19c0-.07.95-1.77,2.12-3.8,2-3.45,3.06-5.13,3.28-5.13a44.41,44.41,0,0,1,5.35,5.06l1.46,1.7-4.55,2.65-4.62,2.68s-.21-.17-.38-.43Z"/><path id="_2" data-name="2" class="cls-4" d="M114.07,611.26l.17,3.89"/><path id="_685" data-name="685" class="cls-5" d="M124.62,632.59a40.88,40.88,0,0,0,60.68,10.47"/><path id="_686" data-name="686" class="cls-5" d="M155.93,642.17c13.17.36,26-8.61,29.86-21.26a34.27,34.27,0,0,0,1.54-9.65"/><path id="_687" data-name="687" class="cls-5" d="M187.25,637.62a38.19,38.19,0,0,0,10.62-26.36"/><path id="_688" data-name="688" class="cls-5" d="M147.9,626.43c6.89,3.4,15.91,1.53,20.61-4.63a16.57,16.57,0,0,0,3.73-10.54"/><path id="_689" data-name="689" class="cls-5" d="M154.07,628.05l3.24,24.09"/><path id="_691" data-name="691" class="cls-5" d="M185.3,642.57v5.76"/><path id="_692" data-name="692" class="cls-5" d="M187.25,637.62a12.82,12.82,0,0,0-1.39,2.11,7.47,7.47,0,0,0-.46,1.92c0,.31-.07.61-.1.92"/><path id="_693" data-name="693" class="cls-6" d="M137,631.7V612.23"/><path id="_694" data-name="694" class="cls-6" d="M130.14,631.62V612.23"/><path id="_696" data-name="696" class="cls-5" d="M124.62,632.59c5.73,2.13,12.82,3.06,18.09-.65a17.43,17.43,0,0,0,5.19-5.75"/><path id="_699" data-name="699" class="cls-6" d="M146,624.81v-8.76"/><path id="_700" data-name="700" class="cls-6" d="M139.06,631.21a12,12,0,0,0,4.87-3.65,14.21,14.21,0,0,0,2-2.75"/><path id="_701" data-name="701" class="cls-6" d="M132.08,631.94a15.21,15.21,0,0,0,4.95-.24"/><path id="_702" data-name="702" class="cls-6" d="M126.16,630.57a21.3,21.3,0,0,0,2.35.73,8.15,8.15,0,0,0,1.62.32"/><path id="_714" data-name="714" class="cls-6" d="M120.48,607.53h3.65"/><path id="_715" data-name="715" class="cls-6" d="M126.16,612.23h4"/><path id="_717" data-name="717" class="cls-6" d="M139.06,610.29h3.08"/><path id="_718" data-name="718" class="cls-6" d="M139.06,612.23v19"/><path id="_719" data-name="719" class="cls-6" d="M139.06,612.23h3.08"/><path id="_721" data-name="721" class="cls-6" d="M132.08,612.23v19.71"/><path id="_723" data-name="723" class="cls-6" d="M132.08,610.29H137"/><path id="_724" data-name="724" class="cls-6" d="M132.08,612.23H137"/><path id="_725" data-name="725" class="cls-6" d="M126.16,610.29h4"/><path id="_726" data-name="726" class="cls-6" d="M126.16,612.23v18.34"/><path id="_734" data-name="734" class="cls-5" d="M185.3,648.33h14.93"/><path id="_735" data-name="735" class="cls-6" d="M205.17,612.31h21.66"/><path id="_736" data-name="736" class="cls-6" d="M196.49,629h27.1"/><path id="_737" data-name="737" class="cls-6" d="M196.41,631.3h26"/><path id="_738" data-name="738" class="cls-6" d="M235.84,612.39V622"/><path id="_739" data-name="739" class="cls-6" d="M206.47,641.19l20.12-6.49"/><path id="_740" data-name="740" class="cls-6" d="M226.59,634.7a13.24,13.24,0,0,0,8-7.3,14.28,14.28,0,0,0,1.22-5.43"/><path id="_741" data-name="741" class="cls-6" d="M205.66,611.26,196.49,629"/><path id="_742" data-name="742" class="cls-6" d="M196.49,629l-.56,12.17"/><path id="_743" data-name="743" class="cls-6" d="M206.47,641.19H195.93"/><path id="_744" data-name="744" class="cls-6" d="M195.93,641.19l27.82-8.76"/><path id="_745" data-name="745" class="cls-6" d="M232.76,611.26V620"/><path id="_746" data-name="746" class="cls-6" d="M223.59,632.51a13.15,13.15,0,0,0,7.83-6.71,13.91,13.91,0,0,0,1.34-5.78"/><path id="_747" data-name="747" class="cls-6" d="M226.83,612.31,223.59,629"/><path id="_748" data-name="748" class="cls-6" d="M228.86,611.26l-3.41,17.6"/><path id="_749" data-name="749" class="cls-6" d="M231.05,611.26V620"/><path id="_750" data-name="750" class="cls-6" d="M226.18,629.35A11.39,11.39,0,0,0,231,621c0-.34.06-.67.08-1"/><path id="_751" data-name="751" class="cls-6" d="M225.45,628.86l.09.33.32.24.32-.08"/><path id="_752" data-name="752" class="cls-6" d="M226.27,631.3h5"/><path id="_753" data-name="753" class="cls-6" d="M195.93,640.62l26.69-8.35"/><path id="_754" data-name="754" class="cls-6" d="M204.93,641.19l21.5-7"/><path id="_755" data-name="755" class="cls-6" d="M226.43,634.22a13,13,0,0,0,7.4-6.18,13.09,13.09,0,0,0,1.52-6.07"/><path id="_756" data-name="756" class="cls-6" d="M235.35,622v-9.58"/><path id="_757" data-name="757" class="cls-6" d="M222.62,632.27l.24-.16.08-.41-.16-.24-.33-.16"/><path id="_758" data-name="758" class="cls-5" d="M195.36,641.68c-.18-.45-.66-.67-1.05-.94-.41,0-.8-.19-1.22-.2a3.43,3.43,0,0,0-1.06.08,5.17,5.17,0,0,0-1.32.31c-.44.21-.9.39-1.36.58a11.78,11.78,0,0,0-1.19.8c-.37.3-.73.59-1.08.91a11.26,11.26,0,0,0-.69,1,2.92,2.92,0,0,0-.36,1.15,3.21,3.21,0,0,0,0,.76c0,.44.41.66.61,1a4.1,4.1,0,0,0,1.3.45,2.66,2.66,0,0,0,.75,0,2.41,2.41,0,0,0,1.13-.15,2.81,2.81,0,0,0,1.36-.38,5.45,5.45,0,0,0,1.3-.65,4.53,4.53,0,0,0,1.22-.85,3.5,3.5,0,0,0,.93-.91c.24-.33.45-.65.65-1a5.4,5.4,0,0,0,.25-1.22c-.1-.26,0-.53-.21-.77Z"/><path id="_759" data-name="759" class="cls-5" d="M195.93,641.19l-.41,1.79"/><path id="_760" data-name="760" class="cls-7" d="M121.29,620.83a5.8,5.8,0,1,0-11.59.28,5.73,5.73,0,0,0,4,5.23,5.8,5.8,0,0,0,6.22-1.69A5.71,5.71,0,0,0,121.29,620.83Z"/><path id="_761" data-name="761" class="cls-5" d="M119.83,620.83a4.29,4.29,0,0,0-2.77-4.09,4.39,4.39,0,1,0,2.45,5.71,4.45,4.45,0,0,0,.32-1.62Z"/><path id="_762" data-name="762" class="cls-4" d="M116.43,626.59c5.78,19.52,24.36,34.22,44.63,35.6a51.13,51.13,0,0,0,45.41-21"/><path id="_763" data-name="763" class="cls-6" d="M125.11,620.51a1.67,1.67,0,1,0-.07.49,2.07,2.07,0,0,0,.07-.49Z"/><path id="_764" data-name="764" class="cls-6" d="M146,616.05a3.94,3.94,0,0,0-3.82-3.82"/><path id="_765" data-name="765" class="cls-6" d="M142.14,610.29a4,4,0,0,0,3.82-3.82"/><path id="_772" data-name="772" class="cls-6" d="M232.76,611.83h8.51"/><path id="_773" data-name="773" class="cls-8" d="M232.76,612.39h56.62"/><path id="_774" data-name="774" class="cls-6" d="M233.32,628.94h-4"/><path id="_775" data-name="775" class="cls-6" d="M229.59,632.76h-6.65"/><path id="_776" data-name="776" class="cls-6" d="M205.17,610.2h21.66"/><path id="_786" data-name="786" class="cls-6" d="M232.76,611.26V602.5"/><path id="_790" data-name="790" class="cls-6" d="M231.05,611.26V602.5"/><path id="_801" data-name="801" class="cls-6" d="M232.76,610.77h8.51"/><path id="_804" data-name="804" class="cls-4" d="M289.38,610.12v2.27"/><path id="_805" data-name="805" class="cls-8" d="M232.76,610.12h56.62"/><path id="_806" data-name="806" class="cls-6" d="M241.27,610.77v1.06"/><path id="_815" data-name="815" class="cls-7" d="M126.81,775.69a2.24,2.24,0,0,0-1.48-2.09,2.68,2.68,0,0,0-1.85.14,2,2,0,0,0-1,1.62,2.23,2.23,0,0,0,.53,1.79,2.16,2.16,0,0,0,2.3.6,2.35,2.35,0,0,0,1.54-2.06Z"/><path id="_816" data-name="816" class="cls-5" d="M143.12,775.69c.48-11.28-11.23-20.75-22.15-18.17-10.08,1.73-17.15,12.75-14.41,22.63,2.23,9.65,12.93,16.16,22.52,13.51,8-1.93,14.24-9.64,14-18Z"/><path id="_817" data-name="817" class="cls-5" d="M101.91,779.75c1.7,11.36,13,20.07,24.42,18.9a28,28,0,0,0,7.21-1.71"/><path id="_818" data-name="818" class="cls-7" d="M100.85,779.83c1.78,11.41,12.69,20.34,24.21,20a28,28,0,0,0,9-2"/><path id="_819" data-name="819" class="cls-7" d="M90.22,781.21c2.14,14.89,15,27.37,30,29a34.93,34.93,0,0,0,18.06-2.49"/><path id="_820" data-name="820" class="cls-5" d="M87,781.69c2.18,14.77,13.81,27.57,28.37,31a38.18,38.18,0,0,0,24-1.84"/><path id="_821" data-name="821" class="cls-4" d="M78.87,783c2.55,18.15,17.1,33.62,34.88,37.74a45.75,45.75,0,0,0,28.55-2.29"/><path id="_822" data-name="822" class="cls-4" d="M126.73,645v84.36"/><path id="_823" data-name="823" class="cls-5" d="M130,648.33v81.28"/><path id="_824" data-name="824" class="cls-5" d="M126.73,668.61H161"/><path id="_825" data-name="825" class="cls-4" d="M161,668.61V694"/><path id="_826" data-name="826" class="cls-5" d="M155.45,668.61v34.07"/><path id="_827" data-name="827" class="cls-5" d="M144.58,658.07v10.54"/><path id="_828" data-name="828" class="cls-4" d="M167.78,662.28a7.82,7.82,0,0,0-3.25.93,7.65,7.65,0,0,0-3,3.41,7.86,7.86,0,0,0-.57,2.8"/><path id="_829" data-name="829" class="cls-5" d="M155.45,668.61a2.61,2.61,0,0,1,.08-1,4.18,4.18,0,0,1,.31-1.19,2.73,2.73,0,0,1,.36-.82,6.4,6.4,0,0,1,.74-1.26c.39-.38.62-.92,1.1-1.19a3.32,3.32,0,0,1,1.3-.93,3.53,3.53,0,0,0,.32-.21"/><path id="_830" data-name="830" class="cls-4" d="M102.15,726.86l-5,2.67"/><path id="_831" data-name="831" class="cls-4" d="M96.71,730.91l1.87,3.73"/><path id="_832" data-name="832" class="cls-4" d="M103.53,727.26l2.11,3.65"/><path id="_833" data-name="833" class="cls-4" d="M97.12,729.53l-.49.57.08.81"/><path id="_834" data-name="834" class="cls-4" d="M103.53,727.26l-.57-.49-.81.09"/><path id="_835" data-name="835" class="cls-4" d="M96.71,738.7v-.49l.09-.24.08-.24.08-.17.08-.24.08-.24.08-.25.08-.16.08-.24.16-.25.09-.16.16-.24.08-.24.16-.17.16-.24.17-.16.16-.25.16-.16.16-.24.16-.16.17-.25.16-.16.16-.16.25-.25.16-.16L100,733l.24-.16.17-.16.24-.17.16-.16.24-.16.25-.16.16-.17.24-.16.25-.08.24-.16.16-.08.25-.08.24-.08.24-.17h.25l.16-.08.24-.08H104l.25-.08h1.21l.25.08h.16l.24.08.25.08.24.08.24.17.17.08.24.16.24.16.17.08.16.17.16.16.16.24"/><path id="_836" data-name="836" class="cls-7" d="M159.18,779.66H148.31"/><path id="_837" data-name="837" class="cls-7" d="M97.12,821.85l5,2.67"/><path id="_838" data-name="838" class="cls-7" d="M96.71,820.39l1.87-3.65"/><path id="_839" data-name="839" class="cls-7" d="M103.53,824l2.11-3.57"/><path id="_840" data-name="840" class="cls-7" d="M96.71,820.39l-.08.81.49.65"/><path id="_841" data-name="841" class="cls-7" d="M102.15,824.52H103l.57-.48"/><path id="_842" data-name="842" class="cls-7" d="M96.71,812.68v.49l.09.16.08.24.08.25.08.24.08.24.08.16.08.25.08.24.16.16.09.25.16.24.08.16L98,816l.16.16.17.24.16.16.16.25.16.16.16.24.17.16.16.25.16.16.25.16.16.25.16.16.24.16.17.16.24.16.16.17.24.16.25.16.16.16.24.08.25.17.24.08.16.16.25.08.24.08.24.08.25.08.16.09.24.08H104l.25.08h1l.24-.08h.25l.16-.08.24-.09.25-.08.24-.08.24-.08.17-.16.24-.08.24-.16.17-.17.16-.16.16-.16.16-.16"/><path id="_843" data-name="843" class="cls-7" d="M148.31,771.71h10.87"/><path id="_844" data-name="844" class="cls-7" d="M156.5,761.82l-9.33,5.43"/><path id="_845" data-name="845" class="cls-7" d="M143.2,760.36l9.33-5.44"/><path id="_846" data-name="846" class="cls-9" d="M144.5,749.08l-4.63,8"/><path id="_847" data-name="847" class="cls-7" d="M128.51,741.05v10.87"/><path id="_848" data-name="848" class="cls-7" d="M120.65,751.92V741.05"/><path id="_849" data-name="849" class="cls-7" d="M110.75,743.73l5.43,9.41"/><path id="_850" data-name="850" class="cls-7" d="M109.29,757.11l-5.44-9.41"/><path id="_851" data-name="851" class="cls-7" d="M96.63,754.92l9.33,5.44"/><path id="_852" data-name="852" class="cls-7" d="M102.07,767.25l-9.41-5.43"/><path id="_853" data-name="853" class="cls-7" d="M91.6,771.71h9.25"/><path id="_854" data-name="854" class="cls-7" d="M92.66,789.56l9.41-5.43"/><path id="_855" data-name="855" class="cls-7" d="M106,791l-9.33,5.35"/><path id="_856" data-name="856" class="cls-7" d="M103.85,803.68l5.44-9.41"/><path id="_857" data-name="857" class="cls-7" d="M116.18,798.24l-5.43,9.41"/><path id="_858" data-name="858" class="cls-7" d="M120.65,810.25V799.46"/><path id="_859" data-name="859" class="cls-7" d="M128.51,799.46v10.79"/><path id="_860" data-name="860" class="cls-9" d="M138.41,807.65l-5.35-9.41"/><path id="_861" data-name="861" class="cls-7" d="M152.53,796.37,143.2,791"/><path id="_862" data-name="862" class="cls-7" d="M147.17,784.13l9.33,5.43"/><path id="_863" data-name="863" class="cls-4" d="M170.62,770.25h10.54"/><path id="_864" data-name="864" class="cls-4" d="M170.62,781.12h10.54"/><path id="_865" data-name="865" class="cls-10" d="M173.46,775.69a4.57,4.57,0,0,0,.4,1.78,5.61,5.61,0,0,0,1.87,2,10.87,10.87,0,0,0,1.94,1c.7.09,1.31.54,2,.44A8.38,8.38,0,0,0,182,781a6,6,0,0,0,2.17-.4,7.32,7.32,0,0,0,2.07-.89,5.12,5.12,0,0,0,1.58-1.3,4.69,4.69,0,0,0,1.06-2.4,8.4,8.4,0,0,0-.08-1.42,5,5,0,0,0-1.22-1.94,7.25,7.25,0,0,0-1.54-1.26c-.59-.34-1.26-.47-1.87-.77a7.27,7.27,0,0,0-2.17-.32,9.24,9.24,0,0,0-2.29,0,9.52,9.52,0,0,0-2.51.73,4.66,4.66,0,0,0-1.79,1,6.33,6.33,0,0,0-1.54,1.72,5.86,5.86,0,0,0-.4,1.87Z"/><path id="_866" data-name="866" class="cls-4" d="M126.4,822l46.24,377.29"/><path id="_867" data-name="867" class="cls-7" d="M158.29,807.41l.89,11.35"/><path id="_868" data-name="868" class="cls-4" d="M145.79,870l-4.38-42.26"/><path id="_869" data-name="869" class="cls-5" d="M172.64,1199.3l14-1.46"/><path id="_870" data-name="870" class="cls-4" d="M172.64,1199.3l7.22,22.55"/><path id="_871" data-name="871" class="cls-4" d="M186.68,1197.84l-2.27,23.52"/><path id="_872" data-name="872" class="cls-4" d="M179.86,1221.85l.73,1,1.14.57,1.22-.16,1.05-.73.41-1.14"/><path id="_873" data-name="873" class="cls-4" d="M133.46,828.74l6.57,42"/><path id="_874" data-name="874" class="cls-11" d="M141.41,827.77A4,4,0,0,0,137,824.2a4,4,0,0,0-3.49,4.54"/><path id="_875" data-name="875" class="cls-11" d="M140,870.76a2.92,2.92,0,0,0,4.91,1.69,3.47,3.47,0,0,0,.85-2.42"/><path id="_880" data-name="880" class="cls-5" d="M129.33,823.79l45.34,375.26"/><path id="_881" data-name="881" class="cls-5" d="M184.49,1198.08l-27.1-349.46"/><path id="_882" data-name="882" class="cls-5" d="M140.68,880.25l7.38-.73"/><path id="_883" data-name="883" class="cls-4" d="M141.9,881.71c-1.45,2.58-1.81,5.62-2,8.52a45.14,45.14,0,0,0,.41,7.71A31.49,31.49,0,0,0,143.36,908a24,24,0,0,0,1.62,2.27"/><path id="_884" data-name="884" class="cls-5" d="M140.68,880.25c-1.55,2.16-2.11,4.81-2.59,7.38a37.79,37.79,0,0,0-.24,6.29,37.12,37.12,0,0,0,1.41,9,23.51,23.51,0,0,0,1.75,4.58,18,18,0,0,0,3.08,4.46"/><path id="_885" data-name="885" class="cls-4" d="M141.9,881.71l5.19-.56"/><path id="_886" data-name="886" class="cls-5" d="M136.22,880.74l23.45-2.43"/><path id="_887" data-name="887" class="cls-5" d="M143.93,912l7.54-.81"/><path id="_888" data-name="888" class="cls-4" d="M145,910.27l5.27-.57"/><path id="_889" data-name="889" class="cls-4" d="M150.25,909.7a19.1,19.1,0,0,0,1.95-7.54,39.3,39.3,0,0,0-.61-10,34,34,0,0,0-1.74-6.49,15.61,15.61,0,0,0-2.76-4.54"/><path id="_890" data-name="890" class="cls-5" d="M147.74,911.57h.08"/><path id="_891" data-name="891" class="cls-5" d="M151.47,911.16c1.82-2.72,2.39-6,2.76-9.21a43.87,43.87,0,0,0-.41-9.37,46.15,46.15,0,0,0-1.86-6.89,18.63,18.63,0,0,0-3.9-6.17"/><path id="_892" data-name="892" class="cls-5" d="M126.65,824.12l17.2-1.79"/><path id="_893" data-name="893" class="cls-5" d="M126.4,822.25l16.72-1.7"/><path id="_894" data-name="894" class="cls-5" d="M156.1,814.63l2.75-.25"/><path id="_895" data-name="895" class="cls-5" d="M161.69,1091.65l14.44-1.46"/><path id="_896" data-name="896" class="cls-4" d="M168.75,789.72h96.62"/><path id="_897" data-name="897" class="cls-4" d="M170,785.1h95.4"/><path id="_898" data-name="898" class="cls-4" d="M168.1,791.51l25.23.81,25.23-.08,25.23-1,25.15-1.86"/><path id="_899" data-name="899" class="cls-4" d="M268.94,785.42l-24.66-1.86-24.67-1L195,782.5l-24.66.65"/><path id="_900" data-name="900" class="cls-4" d="M268.94,789.4l.89-.33.65-.73.24-1-.24-1-.65-.65-.89-.33"/><path id="_901" data-name="901" class="cls-4" d="M164.29,663.42l2.84,18.25"/><path id="_902" data-name="902" class="cls-4" d="M176.86,661l1.95,18.09"/><path id="_903" data-name="903" class="cls-4" d="M189.44,779.34l.08.16v.33l.08.16.08.08.08.16.08.16.08.17.08.08.09.16.08.16.16.08.08.17.16.08.08.16.16.08.17.08.08.16.16.08.16.09.16.08.17.08.16.08.16.08h.16l.17.08.16.08h.32l.17.08h.24"/><path id="_904" data-name="904" class="cls-4" d="M179.86,782.83H180l.16-.08h.16l.16-.08.08-.09.17-.08.16-.08.08-.08.16-.16.08-.16.08-.08.17-.17.08-.16.08-.16.08-.16.08-.25"/><path id="_905" data-name="905" class="cls-12" d="M259.61,786.8l23.52-174.41"/><path id="_906" data-name="906" class="cls-4" d="M116.1,638.11c.42-8.94-8.91-16.28-17.52-14-9,1.67-14.13,13.06-9.37,20.92,4.23,8.56,17.22,9.93,23.29,2.65a14.23,14.23,0,0,0,3.6-9.54Z"/><path id="_907" data-name="907" class="cls-4" d="M103.29,638.11a1.61,1.61,0,0,0-.49-1.14,1.57,1.57,0,0,0-1.06-.4,1.5,1.5,0,0,0-1,.4,1.68,1.68,0,0,0-.41,1.14,1.49,1.49,0,0,0,.41,1,1.53,1.53,0,0,0,1,.41,1.6,1.6,0,0,0,1.06-.41A1.55,1.55,0,0,0,103.29,638.11Z"/><path id="_908" data-name="908" class="cls-4" d="M87.39,638.11h-2.6"/><path id="_909" data-name="909" class="cls-4" d="M101.74,652.39v2.67"/><path id="_910" data-name="910" class="cls-4" d="M116.1,638.11h2.68"/><path id="_911" data-name="911" class="cls-4" d="M101.74,623.75v-2.68"/><path id="_912" data-name="912" class="cls-4" d="M118,675.51c.34-7.55-8.75-13.25-15.36-9.51-7.23,3.12-7.92,14.32-1.21,18.38,5.94,4.26,15.23.44,16.4-6.79A12.16,12.16,0,0,0,118,675.51Z"/><path id="_913" data-name="913" class="cls-4" d="M108.8,675.51a1.38,1.38,0,0,0-1.46-1.46,1.54,1.54,0,0,0-1,.4,1.51,1.51,0,0,0-.49,1.06,1.55,1.55,0,0,0,.49,1,1.57,1.57,0,0,0,1,.49,1.55,1.55,0,0,0,1.06-.49A1.61,1.61,0,0,0,108.8,675.51Z"/><path id="_914" data-name="914" class="cls-4" d="M96.71,675.51H94.85"/><path id="_915" data-name="915" class="cls-4" d="M107.34,686.13V688"/><path id="_916" data-name="916" class="cls-4" d="M118,675.51h1.86"/><path id="_917" data-name="917" class="cls-4" d="M107.34,664.88V663"/><path id="_918" data-name="918" class="cls-4" d="M112.37,647.76l14.36,13.06"/><path id="_919" data-name="919" class="cls-4" d="M113.34,648.57l9.9-8"/><path id="_920" data-name="920" class="cls-4" d="M123.24,640.54l-9.57-14"/><path id="_921" data-name="921" class="cls-4" d="M121.86,641.68l-9.73-14.2"/><path id="_922" data-name="922" class="cls-4" d="M112.13,627.48l1.54-1"/><path id="_923" data-name="923" class="cls-4" d="M116.26,669.83l10.47-6.65"/><path id="_924" data-name="924" class="cls-4" d="M115.94,681.75l10.79,7.87"/><path id="_925" data-name="925" class="cls-4" d="M121.62,676.32l5.11-3.25"/><path id="_926" data-name="926" class="cls-4" d="M121.62,676.32l5.11,3.73"/><path id="_927" data-name="927" class="cls-4" d="M115.94,681.75l5.68-5.43"/><path id="_928" data-name="928" class="cls-4" d="M121.62,676.32l-5.36-6.49"/><path id="_929" data-name="929" class="cls-4" d="M167.61,686.7l3.9-11.68"/><path id="_930" data-name="930" class="cls-4" d="M164.37,690l5.19-15.58"/><path id="_931" data-name="931" class="cls-4" d="M172,675.18,176.7,661"/><path id="_932" data-name="932" class="cls-4" d="M169.08,674.21l4.13-12.49"/><path id="_933" data-name="933" class="cls-4" d="M169.56,674.37v-.08h.08v-.08h.65l.08.08h.16l.09.08h.16l.08.08H171l.08.08.08.08.08.08h.09l.08.09.08.08V675"/><path id="_934" data-name="934" class="cls-4" d="M169.4,674.78l-.08-.09-.08-.08-.08-.08-.08-.08v-.08l-.09-.08.09-.08v-.08l.08-.08.08-.09h.16l.08-.08h.57l.08.08h.16l.16.09h.17l.16.08h.16l.16.08.17.08.16.08.08.08.16.08.08.08.08.08.08.09v.08l.09.08v.32h-.09v.08h-.08l-.16.08h-.32"/><path id="_935" data-name="935" class="cls-4" d="M167.78,686.13l.08.33"/><path id="_937" data-name="937" class="cls-6" d="M212.64,631.3l-16.71,8.59"/><path id="_938" data-name="938" class="cls-6" d="M208.09,631.3l-12.08,7"/><path id="_939" data-name="939" class="cls-6" d="M204,631.3l-7.87,6"/><path id="_943" data-name="943" class="cls-7" d="M101.66,772.85c-17-1.62-33.72-5.86-50.86-5.27-12,.31-24.89-.42-35.78,5.35-2.7,1.17-1.85,4.75.65,5.6,12.07,6.85,26.28,7.65,39.83,6.65a261.48,261.48,0,0,0,33.83-3.89"/><path id="_944" data-name="944" class="cls-7" d="M89.33,781.29a13.62,13.62,0,0,0,2.11-.33,10.71,10.71,0,0,0,2-.31c1.12-.14,2.25-.24,3.38-.39l5.22-.6"/><path id="_945" data-name="945" class="cls-5" d="M41.23,769.61c18.92-.52,38.19,1.25,56.05,7.78"/><path id="_946" data-name="946" class="cls-7" d="M101.91,779.75a2.39,2.39,0,0,0,1.78-2,4.78,4.78,0,0,0-.89-4.38,1.65,1.65,0,0,0-1.14-.49"/><path id="_947" data-name="947" class="cls-7" d="M133.54,796.94c7.53,16.38,12.49,34,22.39,49.24,6,9.53,11.68,20.69,22,26.2,3.29,1,4.18-3.45,3.48-5.84-.94-19-13.22-34.72-23.68-49.72-5.94-8.06-12.71-15.46-18.42-23.69"/><path id="_948" data-name="948" class="cls-5" d="M161,850.89c-10-16.08-18-33.69-21.33-52.41"/><path id="_949" data-name="949" class="cls-7" d="M139.47,793.29c-2.23-1.86-6.11.53-6.05,3.22l.13.43"/><path id="_950" data-name="950" class="cls-7" d="M138.49,757.28c10.16-14.33,22.57-27.07,30.75-42.76,5.44-10.36,12.68-21.13,12.41-33.25-.36-3.06-4.57-2.53-6.17-.65-16.12,9.89-23.57,28.18-31.31,44.53-4.25,9.56-7.35,19.58-11.84,29"/><path id="_951" data-name="951" class="cls-5" d="M171.51,706.49c-9,16.66-20.18,32.43-34.72,44.7"/><path id="_952" data-name="952" class="cls-7" d="M132.41,754c-.53,1.31.74,2.49,1.7,3.24,1.1.55,2.46,1.16,3.65.57.28,0,.56-.38.73-.57"/><path id="_953" data-name="953" class="cls-7" d="M140,794.18a24.21,24.21,0,0,0,5.42-30.47,25.92,25.92,0,0,0-6.39-7.33"/><path id="_954" data-name="954" class="cls-5" d="M139.47,793.29c8.94-7.21,10.8-21.35,4.11-30.66a24.38,24.38,0,0,0-5.09-5.35"/><path id="_955" data-name="955" class="cls-7" d="M146.52,802.7a34.71,34.71,0,0,0-1.05-54.83"/><path id="_956" data-name="956" class="cls-5" d="M148.63,805.3c10.48-8.59,16.09-22.85,13.45-36.25a38.23,38.23,0,0,0-14.5-23.78"/><path id="_957" data-name="957" class="cls-7" d="M153.74,811.63a46.41,46.41,0,0,0,16.61-43.26,47,47,0,0,0-17.58-29.51"/><path id="_958" data-name="958" class="cls-4" d="M161.86,855.67l24.82,342.17"/><path id="_959" data-name="959" class="cls-4" d="M180.19,691.57l9.25,87.85"/><path id="_960" data-name="960" class="cls-4" d="M171.59,710.39l9.33,59.86"/><path id="_961" data-name="961" class="cls-4" d="M161,727.83v19.22"/><path id="_962" data-name="962" class="cls-4" d="M155.45,735.53v5.6"/><path id="_963" data-name="963" class="cls-4" d="M141.17,732.37a46.38,46.38,0,0,0-62.55,37.32"/><path id="_964" data-name="964" class="cls-5" d="M138.17,740.08c-15.54-6.17-34.78-.58-44.38,13.16a36.84,36.84,0,0,0-7,17.74"/><path id="_965" data-name="965" class="cls-7" d="M137,743.16c-14.19-5.77-31.74-.5-40.55,12a33.22,33.22,0,0,0-6.42,16.32"/><path id="_966" data-name="966" class="cls-7" d="M132.81,753.06c-10.08-3.93-22.31.18-28.21,9.18a24.19,24.19,0,0,0-3.91,10.53"/><path id="_967" data-name="967" class="cls-5" d="M132.41,754a23,23,0,0,0-24.36,5.57,23.53,23.53,0,0,0-6.39,13.25"/><path id="_1447" data-name="1447" class="cls-12" d="M229.59,632.76l52.16-9.9"/><path id="_1453" data-name="1453" class="cls-12" d="M11.62,768.79H52.34"/><path id="_1454" data-name="1454" class="cls-12" d="M11.62,768.79A11.35,11.35,0,0,0,8.7,791.1a20.32,20.32,0,0,0,2.92.41"/><path id="_1455" data-name="1455" class="cls-12" d="M52.34,791.51A11.34,11.34,0,0,0,54.4,769c-.68-.11-1.37-.18-2.06-.24"/><path id="_1456" data-name="1456" class="cls-12" d="M52.34,791.51H11.62"/><path id="_1457" data-name="1457" class="cls-12" d="M.26,807.08V753.22"/><path id="path7176" class="cls-3" d="M132.74,424.06a23.72,23.72,0,0,0-3.32-.91l-.85-.15v-5.28c0-4.7,0-5.29.2-5.29a33.61,33.61,0,0,1,5.86,1.21,23.54,23.54,0,0,1,3.35,1.21c.15.15-.62,1.65-2.69,5.29-1.21,2.11-2.24,3.89-2.28,3.93s-.17,0-.27,0Z"/><path id="path7178" class="cls-3" d="M114.62,421.35,112,416.77l-1-1.79,1-.4a42.08,42.08,0,0,1,8-2.07l.54-.08V423l-1,.2c-.54.12-1.49.37-2.12.56l-1.15.35-1.62-2.78Z"/><path id="path7180" class="cls-3" d="M101.33,428.75c-2.45-1.44-4.45-2.66-4.45-2.71s.65-.84,1.44-1.77a41.22,41.22,0,0,1,5-4.79l.49-.37.76,1.3,2.63,4.51,1.88,3.21-1.61,1.62c-.88.9-1.62,1.62-1.65,1.61s-2-1.18-4.49-2.61Z"/><path id="path7182" class="cls-3" d="M98.52,442.35c-3.72-.44-7.89-1-8-1.14s.76-4.23,1.65-6.55a11,11,0,0,1,.55-1.3c0-.05,2.13,1.07,4.64,2.49l4.55,2.59-.35,1.11c-.19.61-.45,1.55-.57,2.08s-.29,1-.37,1Z"/><path id="path7184" class="cls-3" d="M92.54,460.19a29.22,29.22,0,0,1-1.48-4.28,46.28,46.28,0,0,1-.87-4.6c0-.22,2.47-.36,6.34-.36,4.12,0,4.26,0,4.26.24a20.66,20.66,0,0,0,.79,3.25,3,3,0,0,1,.22.83s-1.82,1.07-4,2.31l-4.51,2.6-.6.35-.17-.34Z"/><path id="path7186" class="cls-3" d="M102.69,473.69c-2.15-1.72-6-5.83-5.7-6.12.06-.06,2.09-1.26,4.51-2.67l4.4-2.56,1.52,1.53c.84.85,1.55,1.59,1.57,1.66s-5,9-5.17,9-.54-.39-1.13-.86Z"/><path id="path7188" class="cls-3" d="M118.34,481a30,30,0,0,1-5-1.33c-2.1-.76-2.34-.86-2.34-1s4.9-8.66,5.1-8.88.48-.05,1.62.28a19.93,19.93,0,0,0,2.11.51l.64.09v10.57H120a14.93,14.93,0,0,1-1.68-.24Z"/><path id="path7190" class="cls-3" d="M128.57,476V470.7l1.09-.22c.6-.13,1.52-.36,2-.53a4.08,4.08,0,0,1,1.05-.25c.14.09,2.15,4.86,4,9.49.12.29-4.31,1.57-6.72,1.93-.48.07-1,.16-1.16.2l-.29.06V476Z"/><path id="path7192" class="cls-3" d="M144.92,473.64c-.34-.43-1.57-2.42-2.73-4.42l-2.11-3.63,1.61-1.61,1.6-1.62,4.42,2.57c2.42,1.42,4.45,2.61,4.51,2.67s-1.13,1.74-2.86,3.49a31.48,31.48,0,0,1-3.69,3.24C145.58,474.39,145.31,474.14,144.92,473.64Z"/><path id="path7194" class="cls-3" d="M151.84,457.84c-3.44-2-4.56-2.71-4.51-2.85s.88-3.18,1-3.7l.08-.34h5.3c4.34,0,5.3,0,5.3.17a46.7,46.7,0,0,1-1,4.88,40.36,40.36,0,0,1-1.44,4.24c-.14.26-.32.17-4.72-2.4Z"/><path id="path7196" class="cls-3" d="M148.22,441.63c-.13-.6-.38-1.57-.55-2.14a5.13,5.13,0,0,1-.27-1.08c.22-.18,9-5.14,9-5.14a43.11,43.11,0,0,1,1.93,5.74,30.81,30.81,0,0,1,.62,3.51c0,.2-.33.22-5.28.22h-5.27l-.23-1.11Z"/><path id="path7198" class="cls-3" d="M141.69,429.84l-1.47-1.5,2.11-2.83c1.17-1.56,2.6-3.42,3.18-4.15l1.05-1.32.85.75c1.61,1.43,5.05,5.19,4.88,5.34s-9,5.24-9.06,5.22-.74-.69-1.54-1.51Z"/><path id="path7108" class="cls-3" d="M136.55,394.5c-1.82-.22-3.32-.41-3.33-.43s7.42-42.37,7.45-42.42,4.68.51,4.73.55-.75,10.42-2,22.16l-2.22,20.87-1-.34c-.17,0-1.79-.17-3.62-.39Z"/><path id="_695" data-name="695" class="cls-5" d="M117.48,592.84c5.36-3.68,11.47-7.27,18.17-6.73a13,13,0,0,1,9.33,4.71A25.5,25.5,0,0,1,147.9,595"/><path id="_698" data-name="698" class="cls-5" d="M147.9,595v31.39"/><path id="_703" data-name="703" class="cls-5" d="M185.3,579.46c-12-9.86-29.65-12-43.54-5.08a41.44,41.44,0,0,0-15.84,13.52"/><path id="_704" data-name="704" class="cls-6" d="M120.48,593.49a42.75,42.75,0,0,1,3.65-2.27"/><path id="_705" data-name="705" class="cls-6" d="M124.13,607.53V591.22"/><path id="_706" data-name="706" class="cls-4" d="M206.47,581.33a51.11,51.11,0,0,0-45.53-20.94c-20.09,1.34-38.39,15.87-44.35,35.08a49.28,49.28,0,0,0-2.52,15.79"/><path id="_707" data-name="707" class="cls-6" d="M132.08,588.38v21.91"/><path id="_708" data-name="708" class="cls-6" d="M139.06,589v21.26"/><path id="_709" data-name="709" class="cls-6" d="M126.16,590.17v20.12"/><path id="_710" data-name="710" class="cls-6" d="M139.06,589a14.07,14.07,0,0,1,6.37,6.05,6.08,6.08,0,0,1,.53.85"/><path id="_711" data-name="711" class="cls-6" d="M132.08,588.38a15.22,15.22,0,0,1,4.95.08"/><path id="_712" data-name="712" class="cls-6" d="M126.16,590.17a20,20,0,0,1,4-1.38"/><path id="_713" data-name="713" class="cls-6" d="M120.48,593.49v14"/><path id="_716" data-name="716" class="cls-6" d="M146,606.47V595.93"/><path id="_720" data-name="720" class="cls-6" d="M137,610.29V588.46"/><path id="_722" data-name="722" class="cls-6" d="M130.14,610.29v-21.5"/><path id="_727" data-name="727" class="cls-5" d="M187.33,611.26a30.91,30.91,0,0,0-31.4-30.91"/><path id="_728" data-name="728" class="cls-5" d="M172.24,611.26c.17-8.86-7.61-16.88-16.49-16.87a17.68,17.68,0,0,0-7.85,1.78"/><path id="_729" data-name="729" class="cls-5" d="M154.07,594.47l3.24-24.1"/><path id="_730" data-name="730" class="cls-5" d="M197.87,611.26a38.39,38.39,0,0,0-10.62-26.36"/><path id="_731" data-name="731" class="cls-5" d="M185.3,580v-8.68"/><path id="_732" data-name="732" class="cls-5" d="M185.3,580a13.3,13.3,0,0,0,.43,2.43,7.55,7.55,0,0,0,1,1.7l.55.74"/><path id="_733" data-name="733" class="cls-5" d="M185.3,571.35h11.6"/><path id="_766" data-name="766" class="cls-5" d="M170.13,592.6A23.45,23.45,0,0,0,155,587.49"/><path id="_767" data-name="767" class="cls-5" d="M180.84,589.11A32.58,32.58,0,0,0,166.72,580"/><path id="_768" data-name="768" class="cls-5" d="M185.62,584.9a38.5,38.5,0,0,0-16.79-11"/><path id="_769" data-name="769" class="cls-5" d="M165.83,598l4.3-5.44"/><path id="_770" data-name="770" class="cls-5" d="M180.84,589.11l4.78-4.21"/><path id="_771" data-name="771" class="cls-5" d="M166.72,580l2.11-6"/><path id="_777" data-name="777" class="cls-6" d="M196.49,593.49h27.1"/><path id="_778" data-name="778" class="cls-6" d="M196.41,591.22h26"/><path id="_779" data-name="779" class="cls-6" d="M235.84,610.12v-9.57"/><path id="_780" data-name="780" class="cls-6" d="M206.47,581.33l20.12,6.49"/><path id="_781" data-name="781" class="cls-6" d="M235.84,600.55a13.67,13.67,0,0,0-9.25-12.73"/><path id="_782" data-name="782" class="cls-6" d="M205.66,611.26l-9.17-17.77"/><path id="_783" data-name="783" class="cls-6" d="M196.49,593.49l-.56-12.16"/><path id="_784" data-name="784" class="cls-6" d="M206.47,581.33H195.93"/><path id="_785" data-name="785" class="cls-6" d="M195.93,581.33l27.82,8.76"/><path id="_787" data-name="787" class="cls-6" d="M232.76,602.5a13.18,13.18,0,0,0-4.8-10.14,14.9,14.9,0,0,0-4.37-2.35"/><path id="_788" data-name="788" class="cls-6" d="M226.83,610.2l-3.24-16.71"/><path id="_789" data-name="789" class="cls-6" d="M228.86,611.26l-3.41-17.6"/><path id="_791" data-name="791" class="cls-6" d="M231.05,602.5a11.63,11.63,0,0,0-4.63-9.14l-.24-.19"/><path id="_792" data-name="792" class="cls-6" d="M226.18,593.17l-.32-.08-.32.24-.09.33"/><path id="_793" data-name="793" class="cls-6" d="M226.27,591.22h5"/><path id="_794" data-name="794" class="cls-6" d="M195.93,581.89l26.69,8.36"/><path id="_795" data-name="795" class="cls-6" d="M204.93,581.33l21.5,7"/><path id="_796" data-name="796" class="cls-6" d="M235.35,600.55a13.43,13.43,0,0,0-3.91-9.27,14.57,14.57,0,0,0-5-3"/><path id="_797" data-name="797" class="cls-6" d="M235.35,600.55v9.57"/><path id="_798" data-name="798" class="cls-6" d="M222.45,591.22l.33-.08.16-.32-.08-.33-.24-.24"/><path id="_799" data-name="799" class="cls-5" d="M195.36,580.84c-.12.41-.53.63-.85.86a3,3,0,0,1-1.2.27c-.37,0-.74,0-1.1,0a10.36,10.36,0,0,1-1.31-.31,6.62,6.62,0,0,1-1.32-.53,16.57,16.57,0,0,1-1.6-1,9.63,9.63,0,0,1-1-1,3.19,3.19,0,0,1-.69-1.11,1.75,1.75,0,0,1-.24-1c0-.25-.06-.52.08-.73,0-.43.47-.62.69-.94a4.5,4.5,0,0,1,1.26-.44c.37,0,.75,0,1.11,0a7.66,7.66,0,0,1,1.32.31,8.94,8.94,0,0,1,1.38.46c.42.25.85.49,1.26.76s.81.53,1.07.94c.36.22.52.64.83.92a4.07,4.07,0,0,1,.47,1.24,1.68,1.68,0,0,1-.14,1.28Z"/><path id="_800" data-name="800" class="cls-5" d="M195.93,581.33l-.41-1.79"/><path id="_802" data-name="802" class="cls-6" d="M233.32,593.66h-4"/><path id="_803" data-name="803" class="cls-6" d="M229.59,589.84h-6.65"/><path id="_807" data-name="807" class="cls-4" d="M161.86,591.47a2.44,2.44,0,1,0-1.54,2.26,2.46,2.46,0,0,0,1.54-2.26Z"/><path id="_808" data-name="808" class="cls-5" d="M160.48,591.47a1.06,1.06,0,1,0-1,1A1.13,1.13,0,0,0,160.48,591.47Z"/><path id="_981" data-name="981" class="cls-7" d="M126.81,446.83c0-2-2.83-3-4-1.3a2.2,2.2,0,1,0,4,1.3Z"/><path id="_982" data-name="982" class="cls-5" d="M143.12,446.83c.36-10.57-9.88-19.76-20.33-18.42-10.56.7-18.77,11.75-16.42,22.07,1.82,10,12.81,17.16,22.71,14.41,8-2,14.29-9.69,14-18.06Z"/><path id="_983" data-name="983" class="cls-5" d="M133.54,425.66c-10.63-4.83-24.41.11-29.46,10.65a24,24,0,0,0-2.17,6.54"/><path id="_984" data-name="984" class="cls-7" d="M134,424.68a24.14,24.14,0,0,0-33.18,18"/><path id="_985" data-name="985" class="cls-7" d="M138.25,414.79c-12.36-5.31-27.66-2.73-37.38,6.62a34.57,34.57,0,0,0-10.65,20"/><path id="_986" data-name="986" class="cls-5" d="M139.38,411.79c-14.48-6.46-32.68-2.33-43.12,9.56A38.25,38.25,0,0,0,87,440.83"/><path id="_987" data-name="987" class="cls-4" d="M142.3,404.08c-15.87-6.91-35.35-3.56-48.24,7.91a46,46,0,0,0-15.19,27.62"/><path id="_988" data-name="988" class="cls-4" d="M126.73,577.51V493.15"/><path id="_989" data-name="989" class="cls-5" d="M130,574.19V492.91"/><path id="_990" data-name="990" class="cls-5" d="M126.73,553.91H161"/><path id="_991" data-name="991" class="cls-4" d="M161,553.91V528.52"/><path id="_992" data-name="992" class="cls-5" d="M155.45,553.91v-34"/><path id="_993" data-name="993" class="cls-5" d="M144.58,564.53V553.91"/><path id="_994" data-name="994" class="cls-4" d="M161,553.18a7.74,7.74,0,0,0,.8,3.24,6.9,6.9,0,0,0,5.13,3.69c.3,0,.59.09.89.12"/><path id="_995" data-name="995" class="cls-5" d="M155.45,553.91a8.31,8.31,0,0,0,.88,3.31,8.42,8.42,0,0,0,3.33,3.26"/><path id="_996" data-name="996" class="cls-4" d="M97.12,493.07l5,2.59"/><path id="_997" data-name="997" class="cls-4" d="M96.71,491.61,98.58,488"/><path id="_998" data-name="998" class="cls-4" d="M103.53,495.26l2.11-3.65"/><path id="_999" data-name="999" class="cls-4" d="M96.71,491.61l-.08.81.49.65"/><path id="_1000" data-name="1000" class="cls-4" d="M102.15,495.66l.81.08.57-.48"/><path id="_1001" data-name="1001" class="cls-4" d="M96.71,483.82c.72,3.88,4,7.48,8,7.95a4.64,4.64,0,0,0,3.4-1.54"/><path id="_1002" data-name="1002" class="cls-7" d="M159.18,442.85H148.31"/><path id="_1003" data-name="1003" class="cls-4" d="M102.15,398l-5,2.68"/><path id="_1004" data-name="1004" class="cls-4" d="M96.71,402.13l1.87,3.65"/><path id="_1005" data-name="1005" class="cls-4" d="M103.53,398.48l2.11,3.57"/><path id="_1006" data-name="1006" class="cls-4" d="M97.12,400.67l-.49.65.08.81"/><path id="_1007" data-name="1007" class="cls-4" d="M103.53,398.48,103,398h-.81"/><path id="_1008" data-name="1008" class="cls-4" d="M96.71,409.84c.81-3.95,4.32-7.78,8.52-7.86a4.46,4.46,0,0,1,2.92,1.53"/><path id="_1009" data-name="1009" class="cls-7" d="M148.31,450.8h10.87"/><path id="_1010" data-name="1010" class="cls-7" d="M156.5,460.7l-9.33-5.43"/><path id="_1011" data-name="1011" class="cls-7" d="M143.2,462.16l9.33,5.44"/><path id="_1012" data-name="1012" class="cls-9" d="M144.5,473.44l-4.63-7.95"/><path id="_1013" data-name="1013" class="cls-7" d="M128.51,481.47V470.6"/><path id="_1014" data-name="1014" class="cls-7" d="M120.65,470.6v10.87"/><path id="_1015" data-name="1015" class="cls-7" d="M110.75,478.79l5.43-9.41"/><path id="_1016" data-name="1016" class="cls-7" d="M109.29,465.49l-5.44,9.33"/><path id="_1017" data-name="1017" class="cls-7" d="M96.63,467.6l9.33-5.44"/><path id="_1018" data-name="1018" class="cls-7" d="M102.07,455.27l-9.41,5.43"/><path id="_1019" data-name="1019" class="cls-7" d="M91.6,450.8h9.25"/><path id="_1020" data-name="1020" class="cls-7" d="M92.66,433l9.41,5.35"/><path id="_1021" data-name="1021" class="cls-7" d="M106,431.58l-9.33-5.44"/><path id="_1022" data-name="1022" class="cls-7" d="M103.85,418.92l5.44,9.33"/><path id="_1023" data-name="1023" class="cls-7" d="M116.18,424.28,110.75,415"/><path id="_1024" data-name="1024" class="cls-7" d="M120.65,412.27v10.79"/><path id="_1025" data-name="1025" class="cls-7" d="M128.51,423.06V412.27"/><path id="_1026" data-name="1026" class="cls-9" d="M138.41,415l-5.35,9.33"/><path id="_1027" data-name="1027" class="cls-7" d="M152.53,426.14l-9.33,5.44"/><path id="_1028" data-name="1028" class="cls-7" d="M147.17,438.39,156.5,433"/><path id="_1029" data-name="1029" class="cls-4" d="M170.62,452.26h10.54"/><path id="_1030" data-name="1030" class="cls-4" d="M170.62,441.47h10.54"/><path id="_1031" data-name="1031" class="cls-13" d="M173.46,446.83a5.21,5.21,0,0,1,3.24-4.38,11.78,11.78,0,0,1,6-.94,9.68,9.68,0,0,1,4.71,2.09,5.31,5.31,0,0,1,1.53,2.87,4.68,4.68,0,0,1-.83,2.87,7.1,7.1,0,0,1-3.77,2.45,10.75,10.75,0,0,1-5.43.21,7.59,7.59,0,0,1-3.53-1.63,4.7,4.7,0,0,1-1.87-3.54Z"/><path id="_1032" data-name="1032" class="cls-4" d="M126.4,400.59,172.64,23.3"/><path id="_1033" data-name="1033" class="cls-4" d="M158.29,415.11l.89-11.36"/><path id="_1034" data-name="1034" class="cls-13" d="M145.79,352.49l-4.38,42.34"/><path id="_1035" data-name="1035" class="cls-5" d="M172.64,23.3l14,1.38"/><path id="_1036" data-name="1036" class="cls-4" d="M172.64,23.3,179.86.75"/><path id="_1037" data-name="1037" class="cls-4" d="M186.68,24.68,184.41,1.24"/><path id="_1039" data-name="1039" class="cls-13" d="M133.46,393.78l6.57-42"/><path id="_1040" data-name="1040" class="cls-13" d="M133.46,393.78c-.51,2.84,2.71,5.61,5.42,4.33a4.08,4.08,0,0,0,2.53-3.28"/><path id="_1041" data-name="1041" class="cls-13" d="M145.79,352.49a3,3,0,0,0-4.38-2.84,3.1,3.1,0,0,0-1.38,2.11"/><path id="_1042" data-name="1042" class="cls-5" d="M129.33,398.72,174.67,23.46"/><path id="_1043" data-name="1043" class="cls-5" d="M184.49,24.52,157.39,373.9"/><path id="_1048" data-name="1048" class="cls-5" d="M136.22,341.86l23.45,2.35"/><path id="_1054" data-name="1054" class="cls-5" d="M126.65,398.48l17.2,1.79"/><path id="_1055" data-name="1055" class="cls-5" d="M126.4,400.27l16.72,1.7"/><path id="_1056" data-name="1056" class="cls-5" d="M156.1,407.89l2.75.33"/><path id="_1057" data-name="1057" class="cls-5" d="M161.69,130.87l14.44,1.46"/><path id="_1058" data-name="1058" class="cls-5" d="M168.75,432.8h96.62"/><path id="_1059" data-name="1059" class="cls-5" d="M170,437.5h95.4"/><path id="_1060" data-name="1060" class="cls-4" d="M268.94,433.12l-25.15-1.79-25.23-1-25.23-.08-25.23.81"/><path id="_1061" data-name="1061" class="cls-4" d="M170.29,439.37l24.66.73,24.66-.17,24.67-1,24.66-1.78"/><path id="_1062" data-name="1062" class="cls-4" d="M268.94,437.18a2.29,2.29,0,0,0,1.17-.56,2.09,2.09,0,0,0,.44-2.3,1.89,1.89,0,0,0-1.16-1.07l-.45-.13"/><path id="_1063" data-name="1063" class="cls-4" d="M164.29,559.1c1.17-7.57,2.38-15.13,3.49-22.71l.08-.33"/><path id="_1064" data-name="1064" class="cls-4" d="M176.86,561.53l1.95-18"/><path id="_1065" data-name="1065" class="cls-4" d="M189.44,443.18a4.16,4.16,0,0,1,.8-1.65,4.5,4.5,0,0,1,2.3-1.35l.71-.17"/><path id="_1066" data-name="1066" class="cls-4" d="M179.86,439.77l.65.08.49.41.81,1.21"/><path id="_1067" data-name="1067" class="cls-12" d="M259.61,435.72l23.52,174.4"/><path id="_1068" data-name="1068" class="cls-4" d="M116.1,584.49c.42-8.94-8.91-16.28-17.52-14-9.38,1.72-14.34,13.82-9,21.66,4.5,7.69,16.24,9,22.33,2.49a14,14,0,0,0,4.15-10.12Z"/><path id="_1069" data-name="1069" class="cls-4" d="M103.29,584.49a1.67,1.67,0,0,0-1.55-1.54,1.52,1.52,0,0,0-1,.48,1.6,1.6,0,0,0-.41,1.06,1.49,1.49,0,0,0,.41,1,1.53,1.53,0,0,0,1,.41,1.6,1.6,0,0,0,1.06-.41A1.51,1.51,0,0,0,103.29,584.49Z"/><path id="_1070" data-name="1070" class="cls-4" d="M87.39,584.49h-2.6"/><path id="_1071" data-name="1071" class="cls-4" d="M101.74,570.13v-2.68"/><path id="_1072" data-name="1072" class="cls-4" d="M116.1,584.49h2.68"/><path id="_1073" data-name="1073" class="cls-4" d="M101.74,598.85v2.59"/><path id="_1074" data-name="1074" class="cls-4" d="M118,547c.33-7.32-8.08-12.87-14.72-9.86-7.14,2.59-8.85,13.14-3,17.88,5.3,5,15,2.42,17.13-4.58A9.83,9.83,0,0,0,118,547Z"/><path id="_1075" data-name="1075" class="cls-4" d="M108.8,547a1.61,1.61,0,0,0-.4-1,1.51,1.51,0,0,0-1.06-.49A1.7,1.7,0,0,0,105.8,547a1.67,1.67,0,0,0,1.54,1.54,1.54,1.54,0,0,0,1.06-.48A1.64,1.64,0,0,0,108.8,547Z"/><path id="_1076" data-name="1076" class="cls-4" d="M96.71,547H94.85"/><path id="_1077" data-name="1077" class="cls-4" d="M107.34,536.39v-1.87"/><path id="_1078" data-name="1078" class="cls-4" d="M118,547h1.86"/><path id="_1079" data-name="1079" class="cls-4" d="M107.34,557.64v1.86"/><path id="_1080" data-name="1080" class="cls-4" d="M112.37,574.84l14.36-13.15"/><path id="_1081" data-name="1081" class="cls-4" d="M113.34,573.94l9.9,8.12"/><path id="_1082" data-name="1082" class="cls-4" d="M123.24,582.06l-9.57,14"/><path id="_1083" data-name="1083" class="cls-4" d="M121.86,580.92,112.13,595"/><path id="_1084" data-name="1084" class="cls-4" d="M112.13,595l1.54,1.05"/><path id="_1085" data-name="1085" class="cls-4" d="M116.26,552.69l10.47,6.65"/><path id="_1086" data-name="1086" class="cls-4" d="M115.94,540.77l10.79-7.87"/><path id="_1087" data-name="1087" class="cls-4" d="M121.62,546.2l5.11,3.25"/><path id="_1088" data-name="1088" class="cls-4" d="M121.62,546.2l5.11-3.73"/><path id="_1089" data-name="1089" class="cls-4" d="M115.94,540.77l5.68,5.43"/><path id="_1090" data-name="1090" class="cls-4" d="M121.62,546.2l-5.36,6.49"/><path id="_1092" data-name="1092" class="cls-7" d="M101.66,449.67c-17.44,1.77-34.68,6-52.33,5.32-11.79-.35-24.64.25-35.12-6C11.77,441.83,25,440.74,30,438.62c15.38-3.09,31.23-1,46.66.69,8.47,1.23,16.9,2.72,25.43,3.54"/><path id="_1093" data-name="1093" class="cls-5" d="M41.23,438.64c18.91-.53,38.19,1.22,56.05,7.78"/><path id="_1094" data-name="1094" class="cls-7" d="M101.91,442.85c2,.34,2.14,3.06,1.79,4.67-.3.92-.86,2.27-2,2.15"/><path id="_1095" data-name="1095" class="cls-7" d="M133.54,425.66c6.17-12.88,9.93-26.8,16.81-39.36,6.14-10.82,11.89-22.16,20.67-31.14,2.57-2.23,8.26-8.31,10.4-2.73a54.94,54.94,0,0,1-3.06,18.7c-4.22,11.34-11.37,21.28-18.21,31.16-6.07,8.91-13.47,16.8-19.72,25.58-.38.5-.75,1-1.13,1.52"/><path id="_1096" data-name="1096" class="cls-7" d="M139.47,429.23c-1.53,1.51-4,.31-5.2-1.06a2.3,2.3,0,0,1-.73-2.51"/><path id="_1097" data-name="1097" class="cls-7" d="M138.49,465.24c9.82,14,21.94,26.33,30,41.51,5.76,10.4,12.55,21.11,13.21,33.29-1.85,8.66-11.53-2.39-14.91-5-11.2-11.14-17.16-26.19-23.7-40.28-3.75-8.76-6.84-17.78-10.78-26.46"/><path id="_1098" data-name="1098" class="cls-7" d="M132.41,468.57c-.6-1.87,1.38-3.31,2.92-3.89a2.87,2.87,0,0,1,3.16.56"/><path id="_1099" data-name="1099" class="cls-7" d="M139.06,466.14c9-6.62,12.25-19.71,7.24-29.7a22.75,22.75,0,0,0-6.27-8"/><path id="_1100" data-name="1100" class="cls-5" d="M138.49,465.24a23.28,23.28,0,0,0,6.91-28.36,23.66,23.66,0,0,0-5.93-7.65"/><path id="_1101" data-name="1101" class="cls-7" d="M145.47,474.65c12.1-8.64,17.08-25.55,11.91-39.44a35,35,0,0,0-10.86-15.39"/><path id="_1102" data-name="1102" class="cls-5" d="M147.58,477.25c12.95-9.49,18.45-27.66,13.06-42.75a38.69,38.69,0,0,0-12-17.2"/><path id="_1103" data-name="1103" class="cls-4" d="M152.77,483.66c12.08-9.28,19.23-24.65,18-39.89a46.18,46.18,0,0,0-17-32.88"/><path id="_1104" data-name="1104" class="cls-7" d="M161.86,366.84,186.68,24.68"/><path id="_1105" data-name="1105" class="cls-4" d="M180.19,531l9.25-87.77"/><path id="_1106" data-name="1106" class="cls-4" d="M171.59,512.21l9.33-60"/><path id="_1107" data-name="1107" class="cls-4" d="M161,494.77V475.46"/><path id="_1108" data-name="1108" class="cls-5" d="M155.45,487.06v-5.59"/><path id="_1109" data-name="1109" class="cls-4" d="M78.62,452.91a46.37,46.37,0,0,0,62.55,37.24"/><path id="_1110" data-name="1110" class="cls-5" d="M86.82,451.53c1.66,17.2,16.66,31.71,33.78,33.27a37.77,37.77,0,0,0,17.57-2.36"/><path id="_1111" data-name="1111" class="cls-7" d="M90.06,451.05c1.47,15.5,14.78,28.61,30.17,30.35a33.93,33.93,0,0,0,16.8-2"/><path id="_1112" data-name="1112" class="cls-7" d="M100.69,449.75a24,24,0,0,0,21.53,21.06,23.72,23.72,0,0,0,10.59-1.35"/><path id="_1113" data-name="1113" class="cls-5" d="M101.66,449.67c1.18,10.41,10.13,19.27,20.6,20.11a22.9,22.9,0,0,0,10.15-1.21"/><path id="_1446" data-name="1446" class="cls-12" d="M183.27,563.56l87.61-44.13"/><path id="_1460" data-name="1460" class="cls-12" d="M11.62,453.72H52.34"/><path id="_1461" data-name="1461" class="cls-12" d="M11.62,431A11.35,11.35,0,0,0,8.7,453.32a19,19,0,0,0,2.92.4"/><path id="_1462" data-name="1462" class="cls-12" d="M52.34,453.72a11.34,11.34,0,0,0,2.06-22.48c-.68-.1-1.37-.18-2.06-.23"/><path id="_1463" data-name="1463" class="cls-12" d="M52.34,431H11.62"/><path id="_1464" data-name="1464" class="cls-12" d="M.26,415.44V469.3"/><path id="_1465" data-name="1465" class="cls-5" d="M159.18,523.16c-10-16.06-18-33.67-21.34-52.4"/><path id="_1466" data-name="1466" class="cls-5" d="M173.37,378.77c-9,16.66-20.18,32.41-34.72,44.7"/></g></g></g></svg>