<?xml version="1.0" encoding="utf-8"?>
<!-- Generator: Adobe Illustrator 22.1.0, SVG Export Plug-In . SVG Version: 6.00 Build 0)  -->
<svg version="1.1" id="Layer_1" xmlns="http://www.w3.org/2000/svg" xmlns:xlink="http://www.w3.org/1999/xlink" x="0px" y="0px"
	 viewBox="0 0 214 339.4" style="enable-background:new 0 0 214 339.4;" xml:space="preserve">
<style type="text/css">
	.st0{fill:none;stroke:#7D7D7D;stroke-width:0.5;stroke-linecap:round;stroke-linejoin:round;}
	.st1{fill:none;stroke:#7D7D7D;stroke-width:0.5;stroke-linejoin:round;}
	.st2{fill:none;stroke:#000000;stroke-width:0.5;stroke-linecap:round;stroke-linejoin:round;}
	.st3{fill:none;stroke:#7D7D7D;stroke-width:2;stroke-dasharray:5;}
</style>
<title>Asset 2</title>
<path id="_4" class="st0" d="M160.2,172.5l5.4-17.7"/>
<path id="_63" class="st0" d="M135.8,222.4l1.2-3.2"/>
<path id="_64" class="st0" d="M135.7,222.4l2.4-0.4"/>
<path id="_65" class="st0" d="M138.1,222l1-2.7"/>
<path id="_67" class="st1" d="M138.1,222l2.5-2.6"/>
<path id="_68" class="st0" d="M137,219l2.1,0.1"/>
<path id="_69" class="st0" d="M137.1,219.2l2.1,0.1"/>
<path id="_75" class="st0" d="M137.3,218.1l1.9,0.7"/>
<path id="_76" class="st0" d="M137.4,217.9l3.6,1.4"/>
<path id="_77" class="st1" d="M140.8,219.2l3-7.8"/>
<path id="_78" class="st0" d="M139.7,222l2-2.3"/>
<path id="_79" class="st0" d="M141.7,219.7l2.8-8.1"/>
<path id="_80" class="st0" d="M138.6,221.4l1-2.5"/>
<path id="_81" class="st0" d="M139.6,219l1.3,0.5"/>
<path id="_82" class="st0" d="M139.1,219.1c0.1,0,0.2,0,0.2-0.1s0-0.2-0.1-0.2"/>
<path id="_83" class="st0" d="M137.5,217.6l2.2,0.9"/>
<path id="_84" class="st0" d="M137.6,217.5l2,0.8"/>
<path id="_85" class="st0" d="M140.4,210.3l3.3,1.3"/>
<path id="_86" class="st0" d="M140.5,210.1l3.3,1.3"/>
<path id="_87" class="st0" d="M140.4,210.5l1.8,0.7"/>
<path id="_88" class="st0" d="M139.8,218.5l1.4-3.5"/>
<path id="_89" class="st0" d="M140,218.4l2-5.1"/>
<path id="_90" class="st0" d="M139.6,218.2l1.2-3.1"/>
<path id="_91" class="st0" d="M138.8,214.4l2,0.8"/>
<path id="_92" class="st0" d="M138.9,214.1l2.2,0.9"/>
<path id="_93" class="st0" d="M139,213.9l1.9,0.7"/>
<path id="_94" class="st0" d="M141.1,214.5l1.2-3"/>
<path id="_95" class="st0" d="M142.9,211.5l0.8,0.3"/>
<path id="_96" class="st0" d="M141,215.9l0.9,0.4"/>
<path id="_97" class="st0" d="M141,215.8l0.9,0.4"/>
<path id="_98" class="st0" d="M142.2,213.2l0.8,0.3"/>
<path id="_99" class="st0" d="M142.3,212.9l0.8,0.3"/>
<path id="_100" class="st0" d="M142.2,212.6l0.4-1.1"/>
<path id="_101" class="st0" d="M142.2,213.2c-0.1,0-0.2,0-0.3,0.1"/>
<path id="_102" class="st0" d="M142.2,212.6c0,0.1,0,0.2,0.1,0.3"/>
<path id="_103" class="st0" d="M142.9,211.5c-0.1,0-0.2,0-0.3,0.1"/>
<path id="_104" class="st0" d="M140.9,214.6c0.1,0,0.2,0,0.3-0.1"/>
<path id="_105" class="st0" d="M142.3,211.5c0,0,0-0.1,0-0.1c0,0,0-0.1-0.1-0.1h-0.1"/>
<path id="_106" class="st0" d="M140.1,218.6l0.8,0.3"/>
<path id="_107" class="st0" d="M140,218.4c0,0.1,0,0.2,0.1,0.3"/>
<path id="_108" class="st0" d="M143.1,210.8c0.9-0.6,1.3-1.6,1.3-2.7c0-0.7-0.3-1.4-0.8-2c-0.3-0.4-0.7-0.6-1.1-0.8"/>
<path id="_109" class="st0" d="M143.8,211.3l-1.8-1.5"/>
<path id="_110" class="st0" d="M141.5,207.8c-0.1,0.2-0.1,0.5-0.1,0.7c0,0.4,0.2,0.8,0.4,1.1l0.2,0.2"/>
<path id="_111" class="st0" d="M141.5,207.8l0.1-0.3"/>
<path id="_112" class="st0" d="M141.6,207.5v-0.1l-0.1-0.1"/>
<path id="_113" class="st0" d="M144.1,209.2l-2.7-1.1"/>
<path id="_114" class="st0" d="M143,210.7c0.7-0.5,1.1-1.2,1.2-2c0.2-1-0.2-2-0.9-2.7c-0.3-0.3-0.6-0.5-1-0.6"/>
<path id="_115" class="st0" d="M144.1,207.2l-2.5,0.8"/>
<path id="_116" class="st0" d="M142,209.8l-0.6-1.3"/>
<path id="_117" class="st0" d="M141.5,208.3l0.9,1.9"/>
<path id="_118" class="st0" d="M141.4,208l2.7,1"/>
<path id="_119" class="st0" d="M141.5,207.8l2.5-0.8"/>
<path id="_120" class="st0" d="M140,211.3L140,211.3"/>
<path id="_121" class="st0" d="M140.8,209.2L140.8,209.2"/>
<path id="_122" class="st0" d="M140.1,211.3l0.8-2"/>
<path id="_123" class="st0" d="M141.5,207.8l-0.8,2h-0.1"/>
<path id="_151" class="st0" d="M143.5,202.2l0.1,0.1l0.1-0.4l-0.1-0.1"/>
<path id="_152" class="st0" d="M142.8,203.9l0.1,0.1l0.2-0.4H143"/>
<path id="_153" class="st0" d="M142.9,203.9l-0.6,1.5"/>
<path id="_154" class="st0" d="M144.3,200.1L144.3,200.1l-0.6,1.7"/>
<path id="_155" class="st0" d="M143.6,202.2l-0.5,1.3"/>
<path id="_156" class="st0" d="M142.8,205.6l-0.8,2"/>
<path id="_157" class="st0" d="M141.7,207.7l0.9-2.2"/>
<path id="_158" class="st0" d="M141.5,207.8l0.9-2.3h-0.1"/>
<path id="_161" class="st1" d="M140.8,219.4c0,0.1,0,0.2,0,0.2c0,0.1,0,0.1,0,0.2c0,0.1,0.1,0.1,0.1,0.1c0,0,0.1,0,0.1,0
	c0.1,0,0.1,0,0.2,0c0.1,0,0.1-0.1,0.1-0.1c0-0.1,0.1-0.1,0.1-0.2c0-0.1,0.1-0.1,0.1-0.2c0-0.1,0.1-0.1,0.1-0.2c0-0.1,0-0.1,0.1-0.2
	c0-0.1,0-0.1,0.1-0.2c0-0.1,0-0.1,0-0.2c0-0.1,0-0.1-0.1-0.2c0-0.1-0.1-0.1-0.1-0.1h-0.1h-0.1c-0.1,0-0.1,0.1-0.2,0.1
	c-0.1,0.1-0.1,0.1-0.2,0.2c-0.1,0.1-0.1,0.1-0.1,0.2c0,0-0.1,0.1-0.1,0.1c0,0,0,0.1-0.1,0.1"/>
<path id="_162" class="st0" d="M140.9,219.5L140.9,219.5l0.2-0.1v-0.1l-0.1-0.1"/>
<path id="_166" class="st0" d="M140.1,220l1,0.4"/>
<path id="_167" class="st0" d="M141.2,218.1l0.9,0.4"/>
<path id="_170" class="st0" d="M132.1,231.7l1.6,0.6"/>
<path id="_171" class="st0" d="M134.1,226.7l3.3,1.3"/>
<path id="_172" class="st0" d="M152.2,233.5v-0.1v-0.1l-0.1-0.1V233v-0.1l-0.1-0.1v-0.1v-0.1v-0.1v-0.1v-0.1v-0.1v-0.1v-0.1v-0.1
	v-0.1v-0.6v-0.1v-1.5"/>
<path id="_173" class="st0" d="M150.5,227.2c-0.2-0.1-0.2-0.5-0.3-0.7c-0.1-1.4,0.1-2.8,0.6-4.1c0.6-1.7,1.2-3.3,1.9-5"/>
<path id="_174" class="st0" d="M152.7,217.4l0.9-2.3"/>
<path id="_175" class="st0" d="M153.9,215.2l0.6-1.7"/>
<path id="_176" class="st0" d="M152.5,233.6l-0.2-0.1l-0.2,0.5l0.2,0.1"/>
<path id="_177" class="st0" d="M152.7,233.7l0.1-0.1l0.1-0.1l0.1-0.1l0.1-0.1l0.1-0.1l0.1-0.1l0.1-0.1l0.1-0.1l0.1-0.1l0.1-0.1
	l0.1-0.1l0.1-0.1l0.1-0.1l0.1-0.1l0.1-0.1l0.1-0.1l0,0h0.1h0.1l0,0h0.1v-0.1h0.1h0.1l0.1-0.1l0.1-0.1l0.1-0.1l0.1-0.1l0.1-0.1
	l0.1-0.1l0.1-0.1l0.1-0.1l0.1-0.1l0.1-0.1l0.1-0.1l0.1-0.1"/>
<path id="_178" class="st0" d="M152.5,233.6l0.2,0.1l-0.2,0.5l-0.2-0.1"/>
<path id="_179" class="st0" d="M151.6,227.8l5.4,2.1"/>
<path id="_180" class="st0" d="M151.5,230l4.1,1.6"/>
<path id="_181" class="st0" d="M151.6,228.3l5.1,2"/>
<path id="_182" class="st0" d="M150.5,227.2l3.9,1.5"/>
<path id="_183" class="st0" d="M150.3,226.6l4.2,1.6"/>
<path id="_184" class="st0" d="M150.6,223.1l5.2,2"/>
<path id="_185" class="st0" d="M152.7,217.4l5.2,2"/>
<path id="_186" class="st0" d="M155.3,225l2.2-5.7"/>
<path id="_187" class="st0" d="M153.7,215.1l4.3,1.7"/>
<path id="_188" class="st0" d="M157.3,219.2l1.1-2.9"/>
<path id="_189" class="st0" d="M152.8,217.2l4.6,1.8"/>
<path id="_190" class="st0" d="M158.4,216.3c0.2-0.4,0.4-0.8,0.6-1.2c0.2-0.3,0.4-0.6,0.6-1l0.5-0.8c0.1-0.1,0.1-0.2,0.2-0.2
	s0,0,0,0"/>
<path id="_191" class="st0" d="M157.8,218.1l-0.1-0.3"/>
<path id="_192" class="st0" d="M157.6,217.7c0.2-0.6,0.4-1.2,0.7-1.8c0.2-0.3,0.3-0.7,0.5-1c0.2-0.3,0.4-0.6,0.6-0.9
	c0.2-0.4,0.5-0.8,0.9-1.1c0.1,0,0.2-0.1,0.3-0.1l0,0"/>
<path id="_193" class="st0" d="M150.6,226.5l2,0.8"/>
<path id="_194" class="st0" d="M151,223.7l2.1,0.8"/>
<path id="_195" class="st0" d="M150.6,226.4c-0.1-0.9,0-1.7,0.2-2.6"/>
<path id="_196" class="st0" d="M152.8,227.1l0.3-2.5"/>
<path id="_197" class="st0" d="M150.6,226.4l0.1,0.1"/>
<path id="_198" class="st0" d="M151,223.7c-0.1,0-0.2,0-0.2,0.1c0,0,0,0,0,0"/>
<path id="_199" class="st0" d="M152.6,227.3c0.1,0,0.2,0,0.2-0.1"/>
<path id="_200" class="st0" d="M153.1,224.7c0-0.1,0-0.1-0.1-0.2"/>
<path id="_201" class="st0" d="M151.6,227.8l0.1-0.2"/>
<path id="_202" class="st0" d="M154.1,214.6l4,1.9"/>
<path id="_203" class="st0" d="M155.7,215.3l2.7-5.8"/>
<path id="_204" class="st0" d="M155.4,213.8c0.8-2,1.8-3.8,2.9-5.7c0.8-1.2,1.9-2.1,3.2-2.7c0.7-0.3,1.6-0.2,2.2,0.2
	c0.8,0.5,1.4,1.4,1.5,2.4c0.3,1.9,0.1,3.8-0.6,5.6c-0.3,1.1-0.7,2.2-1,3.3"/>
<path id="_205" class="st0" d="M157.6,209.2l3.7,1.4"/>
<path id="_206" class="st0" d="M155.8,215.1l0.7,0.3l0.1-0.2l-0.7-0.3"/>
<path id="_207" class="st0" d="M157,212.5l0.7,0.3l0.1-0.2l-0.7-0.3"/>
<path id="_208" class="st0" d="M158.1,210l0.7,0.3l0.1-0.2l-0.7-0.3"/>
<path id="_209" class="st0" d="M160.7,207.9l0.3-0.9l1.2,0.5l-0.3,0.9L160.7,207.9z"/>
<path id="_210" class="st0" d="M158.3,230.2c0.2,0,0.4-0.2,0.6-0.3c1-0.9,1.8-1.9,2.2-3.1c0.8-1.7,1.4-3.5,2-5.3"/>
<path id="_211" class="st0" d="M163.1,221.5l0.9-2.4"/>
<path id="_212" class="st0" d="M163.8,219l0.9-2.3"/>
<path id="_213" class="st0" d="M158.3,230.2l-3.9-1.5"/>
<path id="_214" class="st0" d="M158.8,229.9l-4.3-1.6"/>
<path id="_215" class="st0" d="M160.9,227.1l-5.2-2"/>
<path id="_216" class="st0" d="M163.1,221.5l-5.2-2"/>
<path id="_217" class="st0" d="M156.1,225.3l2.2-5.7"/>
<path id="_218" class="st0" d="M164,219.1l-4.3-1.6"/>
<path id="_219" class="st0" d="M158.5,219.7l1.1-2.9"/>
<path id="_220" class="st0" d="M163.2,221.2l-4.6-1.8"/>
<path id="_221" class="st0" d="M159.7,216.8c0.1-0.2,0.1-0.4,0.2-0.6c0.1-0.3,0.2-0.7,0.2-1c0.1-0.3,0.1-0.5,0.2-0.8
	s0.1-0.6,0.2-0.9c0-0.1,0.1-0.3,0-0.3"/>
<path id="_222" class="st0" d="M159,218.5l0.3-0.1"/>
<path id="_223" class="st0" d="M159.3,218.4c0.2-0.6,0.5-1.1,0.7-1.6c0.2-0.5,0.3-1,0.4-1.5c0.1-0.4,0.2-0.9,0.2-1.3
	c0.1-0.4,0.1-0.7,0-1.1c0-0.1-0.1-0.1-0.1-0.1"/>
<path id="_224" class="st0" d="M158.6,229.6l-2-0.8"/>
<path id="_225" class="st0" d="M160.2,227.3l-2-0.8"/>
<path id="_226" class="st0" d="M158.7,229.5c0.6-0.6,1.2-1.3,1.6-2"/>
<path id="_227" class="st0" d="M156.5,228.6l1.4-2"/>
<path id="_228" class="st0" d="M158.6,229.6h0.2"/>
<path id="_229" class="st0" d="M160.3,227.5c0-0.1,0-0.2-0.1-0.2c0,0,0,0,0,0"/>
<path id="_230" class="st0" d="M156.5,228.6c0,0.1,0,0.2,0.1,0.2c0,0,0,0,0,0"/>
<path id="_231" class="st0" d="M158.1,226.5c-0.1,0-0.1,0-0.2,0.1"/>
<path id="_232" class="st0" d="M157,229.9l0.1-0.2"/>
<path id="_233" class="st0" d="M164.1,218.4l-4.2-1.3"/>
<path id="_234" class="st0" d="M162.4,217.9l1.9-6.1"/>
<path id="_235" class="st0" d="M165.1,212.1l-3.7-1.4"/>
<path id="_236" class="st0" d="M162.4,217.6l-0.7-0.3l0.1-0.2l0.7,0.3"/>
<path id="_237" class="st0" d="M163.3,214.9l-0.7-0.3l0.1-0.2l0.7,0.3"/>
<path id="_238" class="st0" d="M164.1,212.3l-0.7-0.3l0.1-0.2l0.7,0.3"/>
<path id="_239" class="st0" d="M163.6,209.1l0.4-0.9l-1.2-0.5l-0.4,0.9L163.6,209.1z"/>
<path id="_240" class="st0" d="M161,208.6c-0.1,0-0.2,0-0.3,0c-0.1,0-0.2,0-0.2,0.1c-0.1,0-0.2,0.1-0.2,0.1
	c-0.1,0.1-0.1,0.1-0.1,0.2c0,0.1-0.1,0.2-0.1,0.2c0,0.1,0,0.2,0.1,0.3c0,0.1,0.1,0.2,0.1,0.2c0.1,0.1,0.1,0.1,0.2,0.1
	c0.1,0,0.2,0,0.2,0.1c0.1,0,0.2,0,0.3-0.1c0.1,0,0.2-0.1,0.2-0.1c0.1-0.1,0.1-0.1,0.1-0.2c0-0.1,0-0.2,0-0.3c0-0.1,0-0.2-0.1-0.2
	c0-0.1-0.1-0.2-0.2-0.2C161.1,208.8,161.1,208.7,161,208.6z"/>
<path id="_241" class="st0" d="M160.6,209.6L160.6,209.6c-0.1,0-0.1,0-0.1,0.1c0,0,0,0.1,0,0.1c0,0,0,0,0.1,0.1h0.1c0,0,0,0,0.1-0.1
	C160.7,209.7,160.7,209.7,160.6,209.6C160.7,209.7,160.7,209.6,160.6,209.6z"/>
<path id="_242" class="st0" d="M161.3,209.1C161.3,209.1,161.2,209.1,161.3,209.1c-0.1,0-0.1,0-0.1,0.1c0,0,0,0.1,0,0.1
	c0,0,0,0,0.1,0.1c0,0,0.1,0,0.1,0c0,0,0,0,0.1-0.1C161.4,209.2,161.4,209.2,161.3,209.1C161.3,209.1,161.3,209.1,161.3,209.1z"/>
<path id="_243" class="st0" d="M160.5,208.8C160.5,208.8,160.4,208.8,160.5,208.8C160.4,208.8,160.4,208.8,160.5,208.8
	c-0.1,0.1-0.1,0.1-0.1,0.1c0,0,0,0,0.1,0.1c0,0,0.1,0,0.1,0c0,0,0,0,0.1-0.1c0,0,0,0,0-0.1C160.6,208.8,160.5,208.8,160.5,208.8z"/>
<path id="_244" class="st0" d="M167.5,190l3.5-5.1"/>
<path id="_245" class="st0" d="M170.6,191.6l0.9-6.6"/>
<path id="_246" class="st0" d="M171.4,185.1V185l-0.1-0.1h-0.1h-0.1l-0.1,0.1"/>
<path id="_247" class="st0" d="M168,190.3l2.6,1"/>
<path id="_248" class="st0" d="M163.9,219.4c0,0,0.2-0.2,0.4-0.4c0.1-0.1,0.2-0.3,0.3-0.4c0.1-0.2,0.2-0.3,0.2-0.5"/>
<path id="_249" class="st0" d="M163.9,218.9c0.1-0.1,0.2-0.3,0.3-0.4c0.1-0.1,0.2-0.3,0.2-0.5"/>
<path id="_250" class="st0" d="M164.7,218.1c0,0,0-0.1,0-0.1c0,0-0.1-0.1-0.1-0.1c0,0-0.1,0-0.1,0c0,0-0.1,0.1-0.1,0.1"/>
<path id="_298" class="st0" d="M146.6,210.4l8.8,3.4"/>
<path id="_299" class="st0" d="M155.4,213.8L155.4,213.8c0.1,0,0.1,0,0.2,0.1c0,0,0,0,0.1,0.1c0,0,0.1,0.1,0.1,0.1s0,0,0.1,0.1v0.1
	c0,0,0,0.1,0,0.1c0,0,0,0.1,0,0.1l0,0"/>
<path id="_300" class="st0" d="M173.1,193l-13.7-7.4"/>
<path id="_301" class="st0" d="M154.2,193.6l16.3,6.3"/>
<path id="_302" class="st0" d="M173.1,193l-8.4,21.8"/>
<path id="_303" class="st0" d="M164.7,214.8l0.5,0.2"/>
<path id="_304" class="st0" d="M165.2,215l-0.6,1.7"/>
<path id="_305" class="st0" d="M149.5,205.7l8.3,3.2"/>
<path id="_306" class="st0" d="M173.1,193l15.7,10.1"/>
<path id="_307" class="st0" d="M164.2,216.6l0.9,0.2"/>
<path id="_308" class="st0" d="M164.2,216.6c-0.2,0-0.4,0.1-0.5,0.2"/>
<path id="_309" class="st0" d="M173.8,193.5l-9.1,23.3"/>
<path id="_310" class="st0" d="M209.1,226.7c1.6,0.3,3.2-0.4,4-1.7c0.4-0.6,0.6-1.4,0.5-2.1"/>
<path id="_311" class="st0" d="M213.7,222.8c-0.1-1.4-0.5-2.7-1.3-3.9"/>
<path id="_312" class="st0" d="M209.4,226.7l3-7.8"/>
<path id="_313" class="st0" d="M172.1,197.8l30.6,17.4"/>
<path id="_314" class="st0" d="M211.6,220.4l0.6-1.6"/>
<path id="_315" class="st0" d="M212.2,218.8c-0.5-0.7-1.1-1.2-1.9-1.7"/>
<path id="_316" class="st0" d="M186.1,210.1l2.7-6.9"/>
<path id="_317" class="st0" d="M187.7,206.7l1.3-3.4"/>
<path id="_318" class="st0" d="M189,203.3l21.3,13.8"/>
<path id="_319" class="st0" d="M166.3,212.6l31,9.2"/>
<path id="_320" class="st0" d="M196.6,223.9l0.9-2.3"/>
<path id="_321" class="st0" d="M197.5,221.5l12.5,3.6"/>
<path id="_322" class="st0" d="M197.3,212.2l1.1-2.9"/>
<path id="_323" class="st0" d="M211.5,221.2l-21.8-10.3"/>
<path id="_324" class="st0" d="M189.7,210.9l-1.5,3.9"/>
<path id="_325" class="st0" d="M190.6,219.9l1.4-3.6"/>
<path id="_326" class="st0" d="M192,216.3l-23.5-9.1"/>
<path id="_327" class="st0" d="M153.2,196.2l16.3,6.3"/>
<path id="_328" class="st0" d="M154.2,193.6l-6.6,17.1"/>
<path id="_329" class="st0" d="M154.2,193.6c0.8-1.9,1.8-3.7,3-5.3c0.7-0.9,1.5-1.8,2.3-2.7"/>
<path id="_330" class="st0" d="M159.4,185.6c-0.3-0.2-0.6-0.4-0.9-0.7"/>
<path id="_331" class="st0" d="M144.2,207.4l4,1.6"/>
<path id="_332" class="st0" d="M151,201.8l-0.9-0.3"/>
<path id="_333" class="st0" d="M153.8,194.5l-6.4-2.5"/>
<path id="_334" class="st0" d="M153,193.8l-5.5-2.1"/>
<path id="_335" class="st0" d="M156.8,188.8l-1.7-0.7"/>
<path id="_336" class="st0" d="M157.1,188.4l15.5,6"/>
<path id="_337" class="st0" d="M167.7,207l-16.3-6.3"/>
<path id="_339" class="st0" d="M170.2,202.8l1.8,0.8"/>
<path id="_340" class="st0" d="M170.3,206.8c-0.2,0.5,0,1.1,0.5,1.4c0.5,0.2,1.1,0,1.4-0.5l0.1-0.1"/>
<path id="_341" class="st0" d="M173.1,203.5c0-0.3-0.2-0.5-0.5-0.5c-0.1,0-0.2,0.1-0.3,0.1"/>
<path id="_342" class="st0" d="M172.3,203.2c-1,1-1.7,2.2-2,3.6"/>
<path id="_343" class="st0" d="M172.2,207.5c0.7-1.2,1-2.6,0.9-4"/>
<path id="_344" class="st0" d="M173.2,204.1l16.3,7.4"/>
<path id="_345" class="st0" d="M175.5,219.1c-0.1-0.4-0.3-0.7-0.6-0.9c-0.9-0.9-2.4-0.9-3.3,0c0,0-0.1,0.1-0.1,0.1"/>
<path id="_346" class="st0" d="M175.1,219c-0.2-0.4-0.4-0.7-0.8-0.9c-0.3-0.2-0.7-0.3-1.1-0.3c-0.4,0-0.8,0.2-1.2,0.4l0,0"/>
<path id="_347" class="st0" d="M171.8,218.1l1.3-3.4"/>
<path id="_348" class="st0" d="M173.8,212.8l0.2-0.5l0.9,0.3l-0.2,0.5L173.8,212.8z"/>
<path id="_349" class="st0" d="M178.4,214.4l0.2-0.5l0.9,0.3l-0.2,0.5L178.4,214.4z"/>
<path id="_350" class="st0" d="M181.4,214.5c-0.1,0-0.2,0-0.3,0c-0.1,0-0.2,0-0.3,0c-0.1,0-0.2,0.1-0.2,0.1c-0.1,0-0.1,0.1-0.2,0.2
	c-0.1,0.1-0.1,0.1-0.1,0.2c0,0.1,0,0.2-0.1,0.2c0,0.1,0,0.2,0,0.3c0,0.1,0.1,0.2,0.1,0.2c0,0.1,0.1,0.1,0.2,0.2
	c0.1,0.1,0.1,0.1,0.2,0.1c0.1,0,0.2,0.1,0.2,0.1c0.1,0,0.2,0,0.3,0c0.1,0,0.2-0.1,0.2-0.1c0.1,0,0.1-0.1,0.2-0.2
	c0.1-0.1,0.1-0.1,0.1-0.2c0-0.1,0-0.2,0.1-0.3c0-0.1,0-0.2,0-0.3c0-0.1-0.1-0.2-0.1-0.2c-0.1-0.1-0.1-0.1-0.2-0.2
	C181.6,214.7,181.5,214.6,181.4,214.5z"/>
<path id="_351" class="st0" d="M181.2,215.1c0,0-0.1,0-0.1,0c0,0-0.1,0-0.1,0.1c0,0-0.1,0.1-0.1,0.1c0,0,0,0.1,0,0.1
	c0,0,0,0.1,0.1,0.1c0,0,0.1,0.1,0.1,0.1c0,0,0.1,0,0.1,0c0,0,0.1,0,0.1-0.1c0,0,0.1-0.1,0.1-0.1c0,0,0-0.1,0-0.1c0,0,0-0.1,0-0.1
	C181.3,215.1,181.3,215.1,181.2,215.1z"/>
<path id="_352" class="st0" d="M189.4,208.9c0-0.1,0-0.1,0-0.2c0-0.1-0.1-0.2-0.2-0.2c0-0.1-0.1-0.1-0.1-0.1c0,0-0.1-0.1-0.2-0.1
	l-0.2-0.1c-0.1,0-0.1-0.1-0.2-0.1c-0.1,0-0.1,0-0.2-0.1c-0.1,0-0.1,0-0.2-0.1c-0.1,0-0.1,0-0.2,0c-0.1,0-0.2,0-0.3,0
	c-0.1,0-0.1,0-0.1,0.1c0,0,0,0.1,0,0.1c0,0.1,0.1,0.2,0.1,0.2c0,0.1,0.1,0.1,0.2,0.2c0.1,0,0.1,0.1,0.2,0.1l0.3,0.2l0.2,0.1l0.3,0.1
	h0.2c0.1,0,0.2,0,0.2,0C189.3,209,189.4,209,189.4,208.9L189.4,208.9z"/>
<path id="_353" class="st0" d="M209.6,226c1.2,0.2,2.5-0.3,3.2-1.3c0.8-1.2,0.7-2.7-0.2-3.8c-0.2-0.3-0.5-0.5-0.8-0.7"/>
<path id="_354" class="st0" d="M205.5,222.4l0.4-1.1l0.8,0.3l-0.4,1.1L205.5,222.4z"/>
<path id="_355" class="st0" d="M202.3,215.1c-0.1,0.4-0.2,0.9,0.1,1.2s0.8-0.3,0.9-0.6"/>
<path id="_356" class="st0" d="M202.4,215.9l0.4-0.9l0.2,0.1l-0.4,0.9L202.4,215.9z"/>
<path id="_357" class="st0" d="M202.9,215.4l8.9,5.1"/>
<path id="_358" class="st0" d="M183.1,207.1c0,0-0.1,0-0.1,0c0,0-0.1,0-0.1,0.1c0,0,0,0.1,0,0.1c0,0,0,0.1,0.1,0.1c0,0,0.1,0,0.1,0
	c0,0,0.1-0.1,0.1-0.1C183.2,207.2,183.2,207.2,183.1,207.1C183.2,207.1,183.2,207.1,183.1,207.1z"/>
<path id="_359" class="st0" d="M188.9,208.5C188.9,208.5,188.8,208.5,188.9,208.5c-0.1,0-0.1,0-0.1,0.1c0,0,0,0.1,0,0.1
	c0,0,0,0,0.1,0.1c0,0,0.1,0,0.1,0c0,0,0,0,0-0.1C188.9,208.6,188.9,208.6,188.9,208.5C188.9,208.6,188.9,208.5,188.9,208.5z"/>
<path id="_360" class="st0" d="M165.1,199.5c0-0.2-0.2-0.4-0.3-0.5c-0.4-0.3-0.8-0.4-1.2-0.4c-0.1,0-0.4,0-0.4,0.2s0.3,0.4,0.5,0.5
	c0.3,0.2,0.6,0.3,1,0.3C164.8,199.6,165,199.6,165.1,199.5z"/>
<path id="_361" class="st0" d="M164.5,199.1L164.5,199.1c-0.1,0-0.1,0-0.1,0.1c0,0,0,0.1,0,0.1c0,0,0,0,0.1,0.1h0.1c0,0,0,0,0-0.1
	C164.6,199.3,164.6,199.2,164.5,199.1C164.6,199.2,164.6,199.2,164.5,199.1z"/>
<path id="_362" class="st0" d="M161.5,198.1c0-0.2-0.2-0.4-0.3-0.5c-0.4-0.2-0.8-0.4-1.2-0.4c-0.2,0-0.4,0-0.4,0.2s0.3,0.4,0.6,0.6
	c0.3,0.2,0.7,0.3,1.1,0.3C161.2,198.2,161.4,198.2,161.5,198.1z"/>
<path id="_363" class="st0" d="M160.9,197.8L160.9,197.8c-0.1,0-0.1,0-0.1,0.1c0,0,0,0.1,0,0.1c0,0,0,0,0.1,0.1c0,0,0.1,0,0.1,0
	c0,0,0,0,0.1-0.1C161,197.9,161,197.8,160.9,197.8C161,197.8,161,197.8,160.9,197.8z"/>
<path id="_364" class="st0" d="M153,202.4c-0.4-0.2-0.9,0-1.1,0.5c-0.2,0.4,0,0.9,0.5,1.1c0.4,0.2,0.9,0,1.1-0.5
	c0.1-0.1,0.1-0.3,0.1-0.4C153.5,202.8,153.3,202.5,153,202.4z"/>
<path id="_365" class="st0" d="M152.8,202.9c-0.1-0.1-0.3,0-0.3,0.2c0,0,0,0.1,0,0.1c0,0.1,0.2,0.2,0.3,0.2c0,0,0.1,0,0.1-0.1
	c0.1-0.1,0.1-0.3,0-0.4C152.8,203,152.8,202.9,152.8,202.9z"/>
<path id="_366" class="st0" d="M157.6,195.7c-0.4-0.2-0.9,0-1.1,0.5s0,0.9,0.5,1.1c0.4,0.2,0.9,0,1.1-0.5c0.1-0.3,0.1-0.6-0.1-0.8
	C157.9,195.9,157.8,195.8,157.6,195.7z"/>
<path id="_454" class="st0" d="M142.7,204.6l3.4,1.3"/>
<path id="_455" class="st0" d="M155.6,170.7l4.5,1.8"/>
<path id="_458" class="st0" d="M144.5,211.6l1.6-3.5"/>
<path id="_459" class="st0" d="M146,208.1v-2.2"/>
<path id="_460" class="st0" d="M146.1,205.9l4.5-12.6"/>
<path id="_461" class="st0" d="M144.3,212.2l-0.7-0.3"/>
<path id="_467" class="st0" d="M149.5,193.1l-1-0.6l-1.1-0.5"/>
<path id="_468" class="st0" d="M150.1,194.8c0-0.1,0.1-0.2,0.1-0.4c0-0.1,0-0.2,0-0.4c0-0.1-0.1-0.2-0.1-0.4c0-0.1-0.1-0.2-0.2-0.3
	c-0.1-0.1-0.2-0.2-0.3-0.3"/>
<path id="_475" class="st0" d="M159.7,174.1c-0.2,0-0.2,0.2-0.3,0.3c-0.5,0.8-0.8,1.7-1,2.7c-0.1,0.4-0.1,0.8-0.1,1.1c0,0,0,0,0,0.1
	"/>
<path id="_476" class="st0" d="M151.2,186.3l0.9,0.3l1.6-4.1l-2.3-0.9"/>
<path id="_477" class="st0" d="M149.6,186.4l1.4,0.5l0.2-0.6"/>
<path id="_478" class="st0" d="M151.2,186.3v-1.7l-0.9-0.3"/>
<path id="_479" class="st0" d="M151.4,181.7l-1,2.6"/>
<path id="_480" class="st0" d="M151.6,186.1l0.4,0.1l1.4-3.6l-1.8-0.7"/>
<path id="_481" class="st0" d="M151.6,186.1v-1.7l-0.9-0.3"/>
<path id="_482" class="st0" d="M151,186.2v-1.4l-0.7-0.3"/>
<path id="_483" class="st0" d="M149.7,186.1l1.2,0.4l0.1-0.4"/>
<path id="_484" class="st0" d="M151.5,182l-0.8,2.1"/>
<path id="_485" class="st0" d="M165.8,151l1.4,0.1"/>
<path id="_486" class="st0" d="M167.2,151.1l-0.8,3.1"/>
<path id="_487" class="st0" d="M166.4,154.2l16.6,1.5"/>
<path id="_488" class="st0" d="M183,155.7l1.7-4.5"/>
<path id="_489" class="st0" d="M184.7,151.2l0.4,0.1"/>
<path id="_490" class="st0" d="M183,155.7l0.5,0.2"/>
<path id="_491" class="st2" d="M169.4,135.1l0.2,0.1"/>
<path id="_492" class="st2" d="M169.5,134.7l0.1,0.1"/>
<path id="_493" class="st0" d="M165.5,155c-0.2-0.2-0.2-0.4-0.3-0.6c0-0.4,0-0.7,0.1-1.1"/>
<path id="_494" class="st0" d="M165.3,153.2l0.5-2.3"/>
<path id="_495" class="st0" d="M165.5,155v-0.1l0,0l0,0l0,0l0,0l0,0l0,0l0,0l0,0l0,0l0,0l0,0l0,0l0,0l0,0l0,0l0,0l0,0l0,0l0,0l0,0
	l0,0h0.3"/>
<path id="_496" class="st0" d="M166.7,151.1l2-6.5"/>
<path id="_497" class="st0" d="M166,151l2.1-6.7"/>
<path id="_498" class="st0" d="M168.1,144.3l15.9,6.3"/>
<path id="_499" class="st0" d="M184,150.7l0.6-1.6"/>
<path id="_500" class="st0" d="M184.6,149l1-3.1"/>
<path id="_501" class="st0" d="M168.3,144.4c0.5-1.4,0.8-2.9,1-4.5c0.2-1.6,0.2-3.2,0.3-4.8"/>
<path id="_502" class="st2" d="M169.5,135.1l0.2-0.4"/>
<path id="_503" class="st0" d="M169.5,135.2l1.8,2"/>
<path id="_504" class="st0" d="M171.4,137.2l-2.8,7.3"/>
<path id="_505" class="st0" d="M168.7,144.6l2.8-7.3"/>
<path id="_506" class="st0" d="M171.5,137.3c5.2,2,9.7,5.3,14,8.7"/>
<path id="_507" class="st0" d="M184,150.7l0.2,0.1"/>
<path id="_508" class="st0" d="M184.2,150.8l0.7-1.7"/>
<path id="_509" class="st0" d="M184.8,149l0.8-2.7"/>
<path id="_510" class="st0" d="M185.6,150v-3.6"/>
<path id="_511" class="st0" d="M186.3,149.7l1.6-4.3"/>
<path id="_512" class="st0" d="M183.3,157.5c0.1,0,0.2-0.1,0.3-0.2c0.7-1,1.3-2.1,1.7-3.3c0.9-2.1,1.6-4.3,2.2-6.5
	c0.2-0.7,0.4-1.4,0.5-2.1"/>
<path id="_513" class="st0" d="M183.3,157.5c-0.1-0.1,0-0.3-0.1-0.4c0.2-1.3,0.5-2.5,1-3.7c0.9-2.4,1.9-4.7,3.1-7
	c0.2-0.3,0.4-0.6,0.6-1"/>
<path id="_514" class="st0" d="M184.8,149l0.8,0.3"/>
<path id="_515" class="st0" d="M183.8,157.1l2.8-7.1"/>
<path id="_516" class="st0" d="M186.3,149.9l0.3,0.1"/>
<path id="_517" class="st0" d="M186.2,151.7l0.3-1.7"/>
<path id="_518" class="st0" d="M186.5,150C186.5,150,186.5,150,186.5,150L186.5,150c0-0.1,0-0.1,0-0.1v-0.1c0,0,0,0-0.1-0.1h-0.1
	l0,0"/>
<path id="_519" class="st0" d="M183.3,156.9l2.8-7.1"/>
<path id="_520" class="st0" d="M186.3,149.9l-0.2-0.1"/>
<path id="_521" class="st0" d="M185.1,151.3l0.9-1.5"/>
<path id="_522" class="st0" d="M186,149.8L186,149.8C186,149.8,186,149.8,186,149.8L186,149.8h0.2c0,0,0.1,0,0.1,0l0,0"/>
<path id="_523" class="st0" d="M167.1,149.7l16.8,3.6"/>
<path id="_524" class="st0" d="M171,138.7l3.6,1.4l0.5-1.2"/>
<path id="_525" class="st0" d="M175.4,146.2l-0.1-0.1l0.2-0.6l0.4,0.2l-0.2,0.6h-0.1"/>
<path id="_526" class="st0" d="M175,147.1l0.4-0.9"/>
<path id="_527" class="st0" d="M175.2,147.2l0.3-1"/>
<path id="_528" class="st0" d="M176.3,146h-0.1H176l-0.1,0.1v0.1l0.1,0.1l0.1,0.1h0.1l0.1-0.1l0.1-0.1v-0.1V146L176.3,146z"/>
<path id="_529" class="st0" d="M172.3,144.3h-0.1l-0.1,0.1l-0.1,0.1v0.1l0.1,0.1l0.1,0.1h0.1l0.1-0.1l0.1-0.1v-0.1l-0.1-0.1
	L172.3,144.3z"/>
<path id="_573" class="st0" d="M161.1,226.7l-0.2-0.1l0.1-0.3l0.2,0.1"/>
<path id="_574" class="st0" d="M162.9,222.1l-0.2-0.1l0.1-0.2l0.2,0.1"/>
<path id="_575" class="st0" d="M158.1,217.1l1.2,0.5"/>
<path id="_576" class="st0" d="M153.8,213.9c0,0-0.1,0.3-0.2,0.5c0,0.2-0.1,0.3-0.1,0.5c0,0.2,0,0.5,0,0.5"/>
<path id="_577" class="st0" d="M154.1,214.1c0,0-0.1,0.3-0.1,0.5s-0.1,0.5-0.1,0.5"/>
<path id="_578" class="st0" d="M154.1,214.1c0,0,0-0.1,0-0.1c0,0-0.1-0.1-0.1-0.1c0,0-0.1,0-0.1,0l-0.1,0.1"/>
<path id="_579" class="st0" d="M150.7,222.7l0.2,0.1l0.1-0.2l-0.2-0.1"/>
<path id="_580" class="st0" d="M152.5,218l0.2,0.1l0.1-0.2l-0.2-0.1"/>
<path id="_581" class="st0" d="M205.9,222.4l0.2-0.6l0.2,0.1l-0.2,0.6L205.9,222.4z"/>
<path id="_582" class="st0" d="M155.9,185.2l-0.5-0.2l0.4-0.9l0.5,0.2"/>
<path id="_583" class="st0" d="M156.2,184.5c0.1-0.3,0.1-0.6,0-0.9c-0.1-0.2-0.4-0.1-0.5,0c-0.4,0.4-0.6,0.9-0.6,1.5
	c0,0.2,0.1,0.5,0.4,0.5c0.3-0.1,0.5-0.4,0.6-0.7"/>
<path id="_597" class="st0" d="M158.4,184.7L158.4,184.7L158.4,184.7L158.4,184.7L158.4,184.7L158.4,184.7L158.4,184.7L158.4,184.7
	L158.4,184.7L158.4,184.7L158.4,184.7L158.4,184.7L158.4,184.7L158.4,184.7"/>
<path id="_598" class="st0" d="M158.4,184.7L158.4,184.7L158.4,184.7L158.4,184.7L158.4,184.7L158.4,184.7L158.4,184.7L158.4,184.7
	L158.4,184.7L158.4,184.7L158.4,184.7L158.4,184.7L158.4,184.7L158.4,184.7L158.4,184.7L158.4,184.7L158.4,184.7L158.4,184.7
	L158.4,184.7L158.4,184.7L158.4,184.7L158.4,184.7"/>
<path id="_599" class="st0" d="M158.3,184.6c-0.7-1-1-2.2-0.9-3.3"/>
<path id="_600" class="st0" d="M155.7,184.5L155.7,184.5L155.7,184.5L155.7,184.5l-0.1,0.1l0,0v0.1l0,0l0,0l0,0"/>
<path id="_601" class="st0" d="M156.3,184.5l0.2-0.8l0.3-0.8l0.2-0.7l0.2-0.8l0.2-0.8l0.2-0.8l0.2-0.7l0.2-0.8l0.2-0.8l0.2-0.8
	l0.2-0.8l0.2-0.8l0.2-0.8l0.2-0.8l0.2-0.8l0.2-0.8"/>
<path id="_612" class="st0" d="M163.2,151.2l2.4,0.9"/>
<path id="_613" class="st0" d="M165.9,144l2.1,0.8"/>
<path id="_617" class="st0" d="M154,215.2l-0.8,2.1"/>
<path id="_618" class="st0" d="M155.1,215.7l-0.8,2.1"/>
<path id="_619" class="st0" d="M156.8,216.3l-0.8,2.1"/>
<path id="_620" class="st0" d="M160.8,217.9l-0.8,2.1"/>
<path id="_621" class="st0" d="M162.5,218.5l-0.8,2.1"/>
<path id="_622" class="st0" d="M163.6,219l-0.8,2.1"/>
<path id="_683" class="st0" d="M137.2,218.6c0,0,0.1,0,0.1,0c0,0,0.1,0,0.1,0c0,0,0.1-0.1,0.1-0.1c0,0,0-0.1,0-0.1c0,0,0-0.1,0-0.1
	l-0.1-0.1"/>
<path id="_809" class="st0" d="M129.6,230.8l0.6,0.2"/>
<path id="_810" class="st0" d="M130.1,231l0.3-0.8"/>
<path id="_811" class="st0" d="M129.6,230.8l0.8-2.1"/>
<path id="_814" class="st0" d="M130,231l-0.2,0.6l-0.2-0.1l0.2-0.6"/>
<path id="_876" class="st0" d="M166,216.7l4.1,0.9"/>
<path id="_877" class="st0" d="M166,216.7c-0.3-0.1-0.6,0-0.9,0.1"/>
<path id="_878" class="st0" d="M171,218.1c-0.2-0.2-0.5-0.4-0.8-0.5h-0.1"/>
<path id="_879" class="st0" d="M171,218.1l38.2,8.6"/>
<path id="_940" class="st0" d="M139.1,220.2l1.2-0.4"/>
<path id="_941" class="st0" d="M139.3,219.7l1.1-0.1"/>
<path id="_942" class="st0" d="M139.5,219.3l1,0.3"/>
<path id="_968" class="st0" d="M151.6,229.2c-2.8-1-5.6-2.2-8.3-3.6c-0.1-0.1-0.2-0.3,0-0.2c2,0.4,4,0.9,6,1.5
	c0.7,0.3,1.3,0.7,1.9,1.2c0.2,0.1,0.4,0.2,0.6,0.3"/>
<path id="_969" class="st0" d="M151.6,229.2h0.1l0,0l0,0l0,0l0,0l0,0l0,0l0,0l0,0V229l0,0v-0.4l0,0l0,0l0,0l0,0l0,0l0,0l0,0"/>
<path id="_970" class="st0" d="M151.6,228.3v-0.1v-0.1V228v-0.1"/>
<path id="_971" class="st0" d="M156.1,230.9L156.1,230.9L156.1,230.9L156.1,230.9v-0.3l0,0l0,0l0,0v-0.1l0,0l0,0l0,0l0,0l0,0l0,0
	l0,0l0,0l0,0l0,0l0,0l0,0h0.1"/>
<path id="_972" class="st0" d="M156.7,230.3l0.1-0.1l0.1-0.1l0.1-0.1l0.1-0.1"/>
<path id="_973" class="st0" d="M157,230.6c0,0.1,0.1,0.2,0.1,0.3c0.1,0.1,0.2,0.2,0.4,0.3l0.4,0.2c0.2,0.1,0.3,0.2,0.5,0.3
	s0.4,0.2,0.7,0.3s0.5,0.2,0.8,0.3c0.1,0,0.2,0.1,0.3,0.1"/>
<path id="_975" class="st0" d="M139.9,221.7l1.1,0.4"/>
<path id="_976" class="st0" d="M156,230.9c2.8,1.2,5.6,2.1,8.5,2.9c0.1,0.1,0.4-0.1,0.2-0.1c-1.7-1-3.4-2-5.1-2.8
	c-0.8-0.3-1.6-0.5-2.4-0.5c-0.2-0.1-0.5-0.1-0.7-0.2"/>
<path id="_1114" class="st0" d="M151.1,169c-6.4,13.6-12,27.5-16.9,41.6c-1.9,6.2-3.7,12.5-3.8,19c0.1,1.2-0.1,3.5,1.6,3.6
	c1.4-0.1,2.5-1.7,3.2-2.4c4.1-5,7.1-11,9.9-16.9c4.1-9.5,7.7-19.2,11.1-29"/>
<path id="_1115" class="st0" d="M151.1,169l7.8-16.7"/>
<path id="_1116" class="st0" d="M135.6,222.3l1.2-3.2"/>
<path id="_1117" class="st0" d="M135.7,222.4l-1.5-2"/>
<path id="_1118" class="st0" d="M134.2,220.4l1-2.7"/>
<path id="_1119" class="st0" d="M133,219.4c-0.1,0.5,0,1.1,0.1,1.6c0.2,0.5,0.6,0.9,1.1,1.3c0.3,0.2,0.5,0.6,0.6,0.9
	c0.1,0.2,0.1,0.5,0.4,0.6s0.5-0.3,0.8-0.4c0.5-0.1,1-0.2,1.4-0.1c0.4,0,0.8-0.1,1.1-0.2c0.3-0.2,0.5-0.4,0.8-0.6
	c0.1-0.1,0.2-0.3,0.3-0.4"/>
<path id="_1120" class="st1" d="M134.2,220.4l-0.1-3.6"/>
<path id="_1121" class="st0" d="M137,219l-1.6-1.3"/>
<path id="_1122" class="st0" d="M136.8,219.1l-1.6-1.3"/>
<path id="_1123" class="st0" d="M137.3,218.1l-1.8-0.7"/>
<path id="_1124" class="st0" d="M137.4,217.9l-3.6-1.4"/>
<path id="_1125" class="st1" d="M134.1,216.6l3-7.8"/>
<path id="_1126" class="st0" d="M133,219.4l0.1-3"/>
<path id="_1127" class="st0" d="M133.1,216.4l3.3-7.9"/>
<path id="_1128" class="st0" d="M134.2,219.7l1-2.5"/>
<path id="_1129" class="st0" d="M135.1,217.3l-1.3-0.5"/>
<path id="_1130" class="st0" d="M135.5,217.4c-0.1,0-0.3,0.1-0.1,0.2"/>
<path id="_1131" class="st0" d="M137.5,217.6l-2.2-0.9"/>
<path id="_1132" class="st0" d="M137.6,217.5l-2-0.8"/>
<path id="_1133" class="st0" d="M140.3,210.2L137,209"/>
<path id="_1134" class="st0" d="M140.4,210l-3.3-1.3"/>
<path id="_1135" class="st0" d="M140.2,210.5l-1.8-0.7"/>
<path id="_1136" class="st0" d="M135.3,216.8l1.4-3.5"/>
<path id="_1137" class="st0" d="M135.2,216.5l2-5.1"/>
<path id="_1138" class="st0" d="M135.6,216.7l1.2-3.1"/>
<path id="_1139" class="st0" d="M138.8,214.4l-2-0.8"/>
<path id="_1140" class="st0" d="M138.9,214.1l-2.2-0.9"/>
<path id="_1141" class="st0" d="M139,213.9l-1.9-0.7"/>
<path id="_1142" class="st0" d="M137,212.9l1.2-3"/>
<path id="_1143" class="st0" d="M137.7,209.5l-0.8-0.3"/>
<path id="_1144" class="st0" d="M136.2,214.1l-0.9-0.4"/>
<path id="_1145" class="st0" d="M136.2,213.9l-0.9-0.4"/>
<path id="_1146" class="st0" d="M137.1,211.2l-0.8-0.3"/>
<path id="_1147" class="st0" d="M137.2,210.9l-0.8-0.3"/>
<path id="_1148" class="st0" d="M137.4,210.8l0.4-1.1"/>
<path id="_1149" class="st0" d="M137.2,211.4c0-0.1,0-0.2-0.1-0.3"/>
<path id="_1150" class="st0" d="M137.2,210.9c0.1,0,0.2,0,0.3-0.1"/>
<path id="_1151" class="st0" d="M137.8,209.8c0-0.1,0-0.2-0.1-0.3"/>
<path id="_1152" class="st0" d="M137,212.9c0,0.1,0,0.2,0.1,0.3"/>
<path id="_1153" class="st0" d="M138.4,209.8h-0.2l-0.1,0.1"/>
<path id="_1154" class="st0" d="M135,216.6l-0.8-0.3"/>
<path id="_1155" class="st0" d="M135,216.6c0,0,0.1,0,0.1,0c0,0,0.1,0,0.1-0.1v-0.1"/>
<path id="_1156" class="st0" d="M142.2,205.2c-0.8-0.3-1.8-0.2-2.6,0.2c-1,0.5-1.6,1.5-1.7,2.6c0,0.3,0,0.6,0.1,0.8"/>
<path id="_1157" class="st0" d="M137.1,208.8l2.3,0.1"/>
<path id="_1158" class="st0" d="M139.5,208.9c0.3,0,0.5,0,0.8-0.1c0.4-0.2,0.7-0.5,0.9-0.9l0.1-0.2"/>
<path id="_1159" class="st0" d="M141.2,207.7l0.1-0.3"/>
<path id="_1160" class="st0" d="M141.5,207.3h-0.1l-0.1,0.1"/>
<path id="_1161" class="st0" d="M138.3,207l2.7,1"/>
<path id="_1162" class="st0" d="M142.2,205.3c-0.6-0.2-1.3-0.2-1.9,0c-1.5,0.4-2.5,2-2.1,3.6"/>
<path id="_1163" class="st0" d="M139.7,205.5l1.3,2.3"/>
<path id="_1164" class="st0" d="M139.5,208.9l1.3-0.6"/>
<path id="_1165" class="st0" d="M140.9,208l-1.9,0.9"/>
<path id="_1166" class="st0" d="M141.1,207.9l-2.7-1.1"/>
<path id="_1167" class="st0" d="M141.2,207.6l-1.2-2.2"/>
<path id="_1168" class="st0" d="M140,211.3L140,211.3"/>
<path id="_1169" class="st0" d="M140.8,209.2L140.8,209.2"/>
<path id="_1170" class="st0" d="M139.9,211.2l0.8-2"/>
<path id="_1171" class="st0" d="M141.2,207.7l-0.8,2h0.1"/>
<path id="_1172" class="st0" d="M143.5,202.2l-0.1-0.1l0.1-0.4l0.1,0.1"/>
<path id="_1173" class="st0" d="M142.8,203.9h-0.1l0.1-0.4l0.1,0.1"/>
<path id="_1174" class="st0" d="M142.8,203.9l-0.6,1.5"/>
<path id="_1175" class="st0" d="M144.3,200.1L144.3,200.1l-0.8,1.7"/>
<path id="_1176" class="st0" d="M143.4,202.2l-0.5,1.3"/>
<path id="_1177" class="st0" d="M141.8,205.2l-0.8,2"/>
<path id="_1178" class="st0" d="M141.1,207.5l0.9-2.2"/>
<path id="_1179" class="st0" d="M141.2,207.6l0.9-2.3l0.1,0.1"/>
<path id="_1180" class="st0" d="M133.9,216.8c-0.1,0.2-0.3,0.4-0.5,0.3s-0.2-0.5-0.2-0.7c0-0.3,0.2-0.6,0.5-0.9
	c0.2-0.1,0.4,0,0.4,0.2c0.1,0.3,0,0.6-0.1,0.8"/>
<path id="_1181" class="st0" d="M133.9,216.5L133.9,216.5c-0.1,0-0.2,0.1-0.2,0.1c0,0,0,0,0,0.1l0.1,0.1"/>
<path id="_1182" class="st0" d="M134.1,217.7l-1-0.4"/>
<path id="_1183" class="st0" d="M134.5,215.5l-0.9-0.4"/>
<path id="_1184" class="st0" d="M132.1,231.7l-1.6-0.6"/>
<path id="_1185" class="st0" d="M134.1,226.7l-3.4-1.3"/>
<path id="_1186" class="st0" d="M116,219.6c1.3-0.6,2.5-1.6,3.4-2.7l0,0"/>
<path id="_1187" class="st0" d="M121.6,216c0.5-0.2,0.9-0.5,1.2-0.9c1.2-1.6,2.1-3.3,2.7-5.2c0.3-0.9,0.6-1.8,0.9-2.6"/>
<path id="_1188" class="st0" d="M126.4,207.3l0.9-2.4"/>
<path id="_1189" class="st0" d="M127.1,204.9l0.7-1.7"/>
<path id="_1190" class="st0" d="M115.7,219.5l0.2,0.1l-0.2,0.6l-0.2-0.1"/>
<path id="_1191" class="st0" d="M115.5,219.4c-0.5-1.3-0.8-2.7-0.7-4.2V215"/>
<path id="_1192" class="st0" d="M115.7,219.5l-0.2-0.1l-0.2,0.5l0.2,0.1"/>
<path id="_1193" class="st0" d="M120.3,215.7l-5.4-2.1"/>
<path id="_1194" class="st0" d="M118.9,217.4l-4.1-1.6"/>
<path id="_1195" class="st0" d="M120,216.1l-5.2-2"/>
<path id="_1196" class="st0" d="M121.6,216l-3.9-1.5"/>
<path id="_1197" class="st0" d="M122.1,215.8l-4.2-1.6"/>
<path id="_1198" class="st0" d="M124.2,213l-5.2-2"/>
<path id="_1199" class="st0" d="M126.4,207.3l-5.2-2"/>
<path id="_1200" class="st0" d="M119.4,211.1l2.2-5.7"/>
<path id="_1201" class="st0" d="M127.3,204.9l-4.3-1.7"/>
<path id="_1202" class="st0" d="M121.8,205.5l1.1-2.9"/>
<path id="_1203" class="st0" d="M126.5,207l-4.6-1.8"/>
<path id="_1204" class="st0" d="M122.9,202.6l0.2-0.4l0.1-0.5l0.1-0.5l0.1-0.4l0.2-0.8v-0.2v-0.3v-0.3V199v-0.1l0,0"/>
<path id="_1205" class="st0" d="M122.3,204.4l0.3-0.1"/>
<path id="_1206" class="st0" d="M122.6,204.2l0.6-1.4l0.2-0.7l0.2-0.7l0.2-0.7l0.1-0.7l0.1-0.7v-0.4v-0.2v-0.1l-0.1-0.1"/>
<path id="_1207" class="st0" d="M121.8,215.4l-2-0.8"/>
<path id="_1208" class="st0" d="M123.5,213.1l-2-0.8"/>
<path id="_1209" class="st0" d="M122,215.4c0.6-0.6,1.2-1.3,1.6-2.1"/>
<path id="_1210" class="st0" d="M119.8,214.4l1.4-2"/>
<path id="_1211" class="st0" d="M121.8,215.4h0.2"/>
<path id="_1212" class="st0" d="M123.6,213.3v-0.1l-0.1-0.1"/>
<path id="_1213" class="st0" d="M119.8,214.4v0.1l0.1,0.1"/>
<path id="_1214" class="st0" d="M121.4,212.3L121.4,212.3l-0.2,0.1"/>
<path id="_1215" class="st0" d="M120.3,215.7l0.1-0.2"/>
<path id="_1216" class="st0" d="M127.3,204.3l-4.2-1.3"/>
<path id="_1217" class="st0" d="M125.6,203.7l1.9-6.1"/>
<path id="_1218" class="st0" d="M126.9,202.8l0.4-1.4l0.4-1.3l0.2-0.7l0.2-0.7l0.2-0.7l0.2-0.8l0.1-0.8v-0.8v-0.4v-0.4l-0.1-0.4
	l-0.1-0.4l-0.1-0.4l-0.1-0.4l-0.2-0.4l-0.2-0.4l-0.2-0.3l-0.3-0.3l-0.3-0.2l-0.4-0.2"/>
<path id="_1219" class="st0" d="M128.3,198l-3.7-1.4"/>
<path id="_1220" class="st0" d="M125.7,203.5l-0.7-0.3l0.1-0.2l0.7,0.3"/>
<path id="_1221" class="st0" d="M126.6,200.7l-0.7-0.3l0.1-0.2l0.7,0.3"/>
<path id="_1222" class="st0" d="M127.4,198.1l-0.7-0.3l0.1-0.2l0.7,0.3"/>
<path id="_1223" class="st0" d="M126.9,194.9l0.3-0.9l-1.2-0.5l-0.3,0.9L126.9,194.9z"/>
<path id="_1224" class="st0" d="M113.8,213c-0.3-0.5-0.4-1.1-0.3-1.6c0.2-2,0.8-4,1.7-5.9c0.3-0.7,0.6-1.5,0.9-2.2"/>
<path id="_1225" class="st0" d="M116,203.3l0.9-2.3"/>
<path id="_1226" class="st0" d="M117.1,201l0.8-2.3"/>
<path id="_1227" class="st0" d="M113.8,213l3.9,1.5"/>
<path id="_1228" class="st0" d="M113.5,212.5l4.3,1.6"/>
<path id="_1229" class="st0" d="M113.8,209l5.2,2"/>
<path id="_1230" class="st0" d="M116,203.3l5.2,2"/>
<path id="_1231" class="st0" d="M118.6,210.8l2.2-5.7"/>
<path id="_1232" class="st0" d="M117,200.9l4.3,1.7"/>
<path id="_1233" class="st0" d="M120.6,205.1l1.1-2.9"/>
<path id="_1234" class="st0" d="M116.1,203l4.6,1.8"/>
<path id="_1235" class="st0" d="M121.7,202.1l0.2-0.4l0.2-0.4l0.2-0.4l0.2-0.4l0.4-0.7l0.1-0.2l0.2-0.2l0.2-0.3l0.1-0.1l0,0l0,0"/>
<path id="_1236" class="st0" d="M121.1,203.9l-0.2-0.3"/>
<path id="_1237" class="st0" d="M120.9,203.6l0.5-1.4l0.3-0.7l0.3-0.6l0.4-0.6l0.4-0.6l0.4-0.6l0.3-0.3l0.2-0.1h0.1h0.1"/>
<path id="_1238" class="st0" d="M113.9,212.4l2,0.8"/>
<path id="_1239" class="st0" d="M114.3,209.6l2,0.8"/>
<path id="_1240" class="st0" d="M113.8,212.2c-0.1-0.9,0-1.7,0.2-2.6"/>
<path id="_1241" class="st0" d="M116.1,213l0.3-2.5"/>
<path id="_1242" class="st0" d="M113.8,212.2l0.1,0.1"/>
<path id="_1243" class="st0" d="M114.3,209.6h-0.1l-0.1,0.1"/>
<path id="_1244" class="st0" d="M115.9,213.1h0.1l0.1-0.1"/>
<path id="_1245" class="st0" d="M116.4,210.5v-0.1l-0.1-0.1"/>
<path id="_1246" class="st0" d="M114.9,213.7l0.1-0.2"/>
<path id="_1247" class="st0" d="M117.4,200.4l4,1.9"/>
<path id="_1248" class="st0" d="M119,201.2l2.7-5.8"/>
<path id="_1249" class="st0" d="M120.9,195.1l3.7,1.4"/>
<path id="_1250" class="st0" d="M119.1,200.9l0.7,0.3l0.1-0.2l-0.7-0.3"/>
<path id="_1251" class="st0" d="M120.3,198.3l0.7,0.3l0.1-0.2l-0.7-0.3"/>
<path id="_1252" class="st0" d="M121.4,195.8l0.7,0.3l0.1-0.2l-0.7-0.3"/>
<path id="_1253" class="st0" d="M124,193.8l0.3-0.9l1.2,0.5l-0.3,0.9L124,193.8z"/>
<path id="_1254" class="st0" d="M126.2,195.2l-0.2-0.1l-0.3,0.1l-0.2,0.1l-0.1,0.2v0.2v0.3l0.2,0.2l0.2,0.1h0.3l0.2-0.1l0.2-0.2
	l0.1-0.2v-0.3l-0.1-0.2l-0.1-0.2L126.2,195.2z"/>
<path id="_1255" class="st0" d="M125.8,196.2L125.8,196.2L125.8,196.2l-0.1,0.1l0,0h0.1V196.2L125.8,196.2L125.8,196.2z"/>
<path id="_1256" class="st0" d="M125.7,195.3L125.7,195.3L125.7,195.3l-0.1,0.1h0.1h0.1l0.1-0.1v-0.1L125.7,195.3z"/>
<path id="_1257" class="st0" d="M126.5,195.6L126.5,195.6L126.5,195.6l-0.1,0.1h0.1h0.1l0.1-0.1v-0.1H126.5z"/>
<path id="_1258" class="st0" d="M133.9,177l0.8-6.1"/>
<path id="_1259" class="st0" d="M130.5,176.2l3.8-5.4"/>
<path id="_1260" class="st0" d="M134.7,170.9v-0.1l-0.1-0.1h-0.1h-0.1l-0.1,0.1"/>
<path id="_1261" class="st0" d="M133.2,176.9l-2.5-1"/>
<path id="_1262" class="st0" d="M117.1,199.7l-0.2,0.5l-0.1,0.5v0.5"/>
<path id="_1263" class="st0" d="M117.4,199.9l-0.2,0.5l-0.1,0.5"/>
<path id="_1264" class="st0" d="M117.4,199.9v-0.1l-0.1-0.1h-0.1l-0.1,0.1"/>
<path id="_1265" class="st0" d="M135.7,206.2l-8.8-3.4"/>
<path id="_1266" class="st0" d="M126.9,202.8h-0.2h-0.2l-0.2,0.1l-0.2,0.1"/>
<path id="_1267" class="st0" d="M127.7,175.5l15.1,3.7"/>
<path id="_1268" class="st0" d="M141.4,188.7l-16.3-6.3"/>
<path id="_1269" class="st0" d="M127.7,175.5l-8.4,21.8"/>
<path id="_1270" class="st0" d="M119.3,197.3l-0.5-0.2"/>
<path id="_1271" class="st0" d="M118.8,197.1l-0.6,1.7"/>
<path id="_1272" class="st0" d="M136.7,200.7l-8.3-3.2"/>
<path id="_1273" class="st0" d="M127.7,175.5l-18.4-3"/>
<path id="_1274" class="st0" d="M118.4,198.9l-0.8-0.5"/>
<path id="_1275" class="st0" d="M118.4,198.9L118.4,198.9l0.1,0.2v0.1v0.1"/>
<path id="_1276" class="st0" d="M126.9,175.4l-8.9,23.4"/>
<path id="_1277" class="st0" d="M77.6,170.3c-1.1,1.1-1.4,2.7-0.8,4.1c0.3,0.8,0.9,1.4,1.6,1.8"/>
<path id="_1278" class="st0" d="M81.2,168.4c-1.4,0.3-2.6,1-3.6,2"/>
<path id="_1279" class="st0" d="M78.2,176.1l3-7.8"/>
<path id="_1280" class="st0" d="M125.2,179.7l-34.3-7.6"/>
<path id="_1281" class="st0" d="M80.8,169.9l0.6-1.6"/>
<path id="_1282" class="st0" d="M84,168.3c-0.8-0.1-1.7-0.1-2.5,0"/>
<path id="_1283" class="st0" d="M106.7,179.4l2.7-6.9"/>
<path id="_1284" class="st0" d="M107.7,175.9l1.3-3.4"/>
<path id="_1285" class="st0" d="M109,172.4l-25-4.1"/>
<path id="_1286" class="st0" d="M119.6,194.6l-29.2-14"/>
<path id="_1287" class="st0" d="M89.6,182.6l0.9-2.3"/>
<path id="_1288" class="st0" d="M90.5,180.3l-11.7-5.7"/>
<path id="_1289" class="st0" d="M96.9,173.5l1.1-2.9"/>
<path id="_1290" class="st0" d="M80.3,170.6l23.1,7"/>
<path id="_1291" class="st0" d="M103.4,177.6l-1.5,3.9"/>
<path id="_1292" class="st0" d="M96.7,183.7l1.4-3.6"/>
<path id="_1293" class="st0" d="M98.1,180.1l23.5,9.1"/>
<path id="_1294" class="st0" d="M140.4,191.3l-16.3-6.3"/>
<path id="_1295" class="st0" d="M141.4,188.7l-6.6,17.1"/>
<path id="_1296" class="st0" d="M141.4,188.7l0.4-1.1l0.3-1.1l0.3-1.2l0.2-1.2l0.1-1.2l0.1-1.2v-1.2v-1.2"/>
<path id="_1297" class="st0" d="M142.9,179.2c0.4,0.1,0.8,0.1,1.2,0.1c0.6-0.1,1.1-0.3,1.6-0.5c0.5-0.3,0.9-0.6,1.3-1
	c0.1-0.1,0.3-0.3,0.4-0.4"/>
<path id="_1298" class="st0" d="M139.5,205.5l-4-1.6"/>
<path id="_1299" class="st0" d="M138.2,196.9l0.9,0.3"/>
<path id="_1300" class="st0" d="M141,189.5l6.4,2.5"/>
<path id="_1301" class="st0" d="M142.1,189.6l5.5,2.1"/>
<path id="_1302" class="st0" d="M142.7,183.3l1.7,0.7"/>
<path id="_1303" class="st0" d="M142.7,182.9l-15.5-6"/>
<path id="_1304" class="st0" d="M122.4,189.5l16.3,6.3"/>
<path id="_1305" class="st0" d="M118.7,199.6l0.6-1.3l0.6-1.3l0.3-0.6l0.3-0.7l0.4-0.7l0.4-0.7l0.4-0.7l0.5-0.6l0.3-0.3l0.3-0.3
	l0.3-0.3l0.3-0.3l0.4-0.2l0.4-0.2l0.4-0.2l0.4-0.1l0.4-0.1h0.4l0.4,0.1l0.4,0.1"/>
<path id="_1306" class="st0" d="M123.3,184.7l-1.8-0.6"/>
<path id="_1307" class="st0" d="M118.6,186.8c-0.2,0.6,0.1,1.2,0.6,1.4s1.2-0.1,1.4-0.6"/>
<path id="_1308" class="st0" d="M121.5,183.6c0-0.3-0.2-0.5-0.5-0.5c-0.1,0-0.2,0.1-0.3,0.1"/>
<path id="_1309" class="st0" d="M120.6,187.6c0.6-1.2,1-2.6,0.9-4"/>
<path id="_1310" class="st0" d="M120.6,183.2c-1,1-1.7,2.2-2,3.6"/>
<path id="_1311" class="st0" d="M120.2,183.7l-17-5.4"/>
<path id="_1314" class="st0" d="M111.8,195.1l1.4-3.5"/>
<path id="_1315" class="st0" d="M114,189.7c0-0.2,0.2-0.4,0.1-0.5l-0.8-0.3c0,0.2-0.2,0.4-0.1,0.5L114,189.7z"/>
<path id="_1316" class="st0" d="M109.5,187.8l0.2-0.5l-0.9-0.3l-0.2,0.5L109.5,187.8z"/>
<path id="_1317" class="st0" d="M107.1,185.9c-0.2,0-0.3,0-0.5,0c-0.2,0-0.3,0.1-0.4,0.3c-0.1,0.1-0.1,0.2-0.1,0.2
	c0,0.1-0.1,0.2-0.1,0.2c0,0.1,0,0.2,0,0.3c0,0.1,0.1,0.2,0.1,0.2c0,0.1,0.1,0.1,0.2,0.2c0.1,0.1,0.1,0.1,0.2,0.1
	c0.1,0,0.2,0.1,0.3,0.1h0.3c0.1,0,0.2-0.1,0.2-0.1c0.1,0,0.1-0.1,0.2-0.2c0.1-0.1,0.1-0.1,0.1-0.2c0-0.1,0-0.2,0.1-0.3
	c0-0.1,0-0.2,0-0.2c0-0.1-0.1-0.2-0.1-0.2c0-0.1-0.1-0.1-0.2-0.2C107.2,186,107.2,186,107.1,185.9L107.1,185.9z"/>
<path id="_1318" class="st0" d="M106.9,186.4c0,0-0.1,0-0.1,0c0,0-0.1,0-0.1,0.1c0,0-0.1,0.1-0.1,0.1c0,0,0,0.1,0,0.1
	c0,0,0,0.1,0.1,0.1c0,0,0.1,0.1,0.1,0.1h0.1c0,0,0.1,0,0.1-0.1c0,0,0.1-0.1,0.1-0.1c0,0,0-0.1,0-0.1c0,0,0-0.1,0-0.1
	C107,186.4,106.9,186.4,106.9,186.4z"/>
<path id="_1319" class="st0" d="M105,176.4C105,176.4,105,176.4,105,176.4l0.1-0.1h0.1h0.1h0.2h0.4h0.2l0.2,0.1l0.2,0.1l0.2,0.1
	l0.1,0.1l0.1,0.1l0.1,0.1c0,0,0,0.1,0.1,0.1c0,0,0,0.1,0,0.1c0,0,0,0,0,0.1l-0.1,0.1l-0.1,0.1h-0.1h-0.2h-0.3H106h-0.2l-0.2-0.1
	l-0.2-0.1l-0.2-0.1l-0.1-0.1c0,0-0.1-0.1-0.1-0.1c0,0-0.1-0.1-0.1-0.1c0,0,0-0.1,0-0.1C105,176.5,105,176.4,105,176.4L105,176.4z"/>
<path id="_1320" class="st0" d="M80.7,169.6c-1.7-0.3-3.4,0.8-3.7,2.6c-0.1,0.6,0,1.2,0.2,1.8c0.3,0.6,0.7,1.1,1.2,1.4"/>
<path id="_1321" class="st0" d="M84,175.6l0.4-1.1l-0.8-0.3l-0.4,1.1L84,175.6z"/>
<path id="_1322" class="st0" d="M91.3,172.2c-0.1,0.3-0.3,0.5-0.5,0.6c-0.1,0.1-0.2,0.1-0.4,0.2c-0.1,0-0.2,0-0.2-0.1
	c-0.1-0.1-0.2-0.2-0.2-0.4c0-0.1,0-0.3,0-0.4c0-0.1,0-0.1,0-0.2"/>
<path id="_1323" class="st0" d="M90.6,172.7l0.3-0.9l-0.2-0.1l-0.4,0.9L90.6,172.7z"/>
<path id="_1324" class="st0" d="M90.6,172.1l-10-2.2"/>
<path id="_1325" class="st0" d="M110.8,179.2c0,0-0.1,0-0.1,0c0,0-0.1,0.1-0.1,0.1c0,0,0,0.1,0,0.1c0,0,0.1,0.1,0.1,0.1
	c0,0,0.1,0,0.1,0c0.1,0,0.1-0.1,0.1-0.2c0,0,0,0,0,0C110.9,179.2,110.9,179.2,110.8,179.2z"/>
<path id="_1326" class="st0" d="M105.6,176.4L105.6,176.4h-0.1v0.1v0.1h0.1L105.6,176.4L105.6,176.4L105.6,176.4z"/>
<path id="_1327" class="st0" d="M129.3,185.7L129.3,185.7L129.3,185.7l0.2-0.1h0.3h0.2l0.2,0.1l0.2,0.1l0.2,0.1l0.2,0.1l0.2,0.1
	l0.1,0.1l0.1,0.1l0.1,0.1l0.1,0.1v0.1v0.1l-0.1,0.1h-0.1H131h-0.1h-0.2h-0.2l-0.2-0.1l-0.2-0.1l-0.2-0.1l-0.2-0.1l-0.1-0.1l-0.1-0.1
	l-0.1-0.1l-0.1-0.1v-0.1L129.3,185.7L129.3,185.7z"/>
<path id="_1328" class="st0" d="M130,185.8L130,185.8l-0.1,0.1v0.1l0.1,0.1h0.1l0.1-0.1L130,185.8L130,185.8z"/>
<path id="_1329" class="st0" d="M133,187.1L133,187.1L133,187.1l0.2-0.1h0.3h0.2h0.2l0.2,0.1l0.2,0.1l0.2,0.1l0.2,0.1l0.1,0.1
	l0.1,0.1l0.1,0.1v0.1v0.1v0.1l-0.1,0.1h-0.1h-0.3h-0.2h-0.2l-0.2-0.1l-0.2-0.1l-0.2-0.1l-0.2-0.1l-0.1-0.1l-0.1-0.1l-0.1-0.1
	l-0.1-0.1L133,187.1L133,187.1L133,187.1z"/>
<path id="_1330" class="st0" d="M133.6,187.2L133.6,187.2l-0.1,0.1v0.1l0,0h0.1L133.6,187.2L133.6,187.2L133.6,187.2z"/>
<path id="_1331" class="st0" d="M136.4,196l-0.3-0.1h-0.3l-0.2,0.1l-0.2,0.2l-0.1,0.2l-0.1,0.2v0.3l0.1,0.2l0.2,0.2l0.2,0.1l0.3,0.1
	h0.2l0.2-0.1l0.2-0.2l0.1-0.2v-0.2v-0.3l-0.1-0.2l-0.2-0.2L136.4,196z"/>
<path id="_1332" class="st0" d="M136.1,196.5H136l-0.1,0.1l-0.1,0.1v0.1l0.1,0.1l0.1,0.1h0.1h0.1l0.1-0.1v-0.1l-0.1-0.1L136.1,196.5
	z"/>
<path id="_1333" class="st0" d="M137.4,187.9l-0.3-0.1h-0.3l-0.2,0.1l-0.2,0.2l-0.1,0.2l-0.1,0.2v0.3l0.1,0.2l0.2,0.2l0.2,0.1
	l0.2,0.1h0.3l0.2-0.1l0.2-0.2l0.1-0.2l0.1-0.3v-0.2l-0.1-0.2l-0.2-0.2L137.4,187.9z"/>
<path id="_1334" class="st0" d="M142.5,204.5l-3.4-1.3"/>
<path id="_1335" class="st0" d="M155.6,170.7l-4.5-1.7"/>
<path id="_1338" class="st0" d="M136.5,208.5l1.2-3.7"/>
<path id="_1339" class="st0" d="M137.7,204.8l1.4-1.6"/>
<path id="_1340" class="st0" d="M139.1,203.2l5.1-12.4"/>
<path id="_1341" class="st0" d="M136.2,209.1l0.7,0.3"/>
<path id="_1342" class="st0" d="M147.4,192l-1.1-0.4l-1.2-0.2"/>
<path id="_1343" class="st0" d="M145.1,191.4c-0.1,0-0.2,0-0.4,0c-0.1,0-0.2,0-0.4,0.1c-0.1,0-0.2,0.1-0.3,0.2
	c-0.1,0.1-0.2,0.2-0.2,0.3c-0.1,0.1-0.1,0.2-0.2,0.3"/>
<path id="_1344" class="st0" d="M145.4,196.4c-0.4,0-0.7,0.2-0.9,0.5c-0.1,0.2-0.1,0.5,0,0.7c0.2,0.4,0.7,0.6,1.2,0.4
	c0.1-0.1,0.3-0.2,0.4-0.3c0.1-0.2,0.2-0.5,0.1-0.7c-0.1-0.3-0.3-0.5-0.5-0.5C145.6,196.4,145.5,196.4,145.4,196.4L145.4,196.4z"/>
<path id="_1345" class="st0" d="M150.4,170.5c0.2,0.4-0.1,0.9-0.2,1.2c-0.3,0.9-0.7,1.7-1.3,2.5c-0.1,0.1-0.2,0.3-0.4,0.3"/>
<path id="_1346" class="st0" d="M148.4,185.2l-0.9-0.3l1.6-4.1l2.3,0.9"/>
<path id="_1347" class="st0" d="M149.6,186.4l-1.4-0.6l0.2-0.6"/>
<path id="_1348" class="st0" d="M148.4,185.2l1.1-1.3l0.9,0.3"/>
<path id="_1349" class="st0" d="M151.4,181.7l-1,2.6"/>
<path id="_1350" class="st0" d="M148.3,184.9l-0.4-0.1l1.4-3.6l1.8,0.7"/>
<path id="_1351" class="st0" d="M148.3,184.9l1.1-1.3l0.9,0.3"/>
<path id="_1352" class="st0" d="M148.7,185.3l0.9-1l0.7,0.3"/>
<path id="_1353" class="st0" d="M149.7,186.1l-1.2-0.4l0.1-0.4"/>
<path id="_1354" class="st0" d="M151.1,181.9l-0.8,2.1"/>
<path id="_1355" class="st0" d="M161.4,149.3l-1.1-0.8"/>
<path id="_1356" class="st0" d="M160.2,148.4l-1.5,2.8"/>
<path id="_1357" class="st0" d="M158.8,151.3l-13.3-10.1"/>
<path id="_1358" class="st0" d="M145.4,141.2l1.7-4.5"/>
<path id="_1359" class="st0" d="M147.2,136.8l-0.4-0.1"/>
<path id="_1360" class="st0" d="M145.4,141.2L145,141"/>
<path id="_1361" class="st2" d="M169.4,135.1l-0.2-0.1"/>
<path id="_1362" class="st2" d="M169.5,134.7h-0.1"/>
<path id="_1363" class="st0" d="M158.9,152.4c0.5-0.1,0.9-0.4,1.2-0.9l0.1-0.2"/>
<path id="_1364" class="st0" d="M160.2,151.3l1.2-2"/>
<path id="_1365" class="st0" d="M158.9,152.4l0.1-0.1v-0.2V152v-0.2v-0.2l-0.1-0.1l-0.1-0.1l-0.1-0.1"/>
<path id="_1366" class="st0" d="M160.6,148.7l2.9-6.1"/>
<path id="_1367" class="st0" d="M161.2,149.1l2.9-6.4"/>
<path id="_1368" class="st0" d="M164.1,142.8l-16-5.9"/>
<path id="_1369" class="st0" d="M148.1,136.8l0.6-1.6"/>
<path id="_1370" class="st0" d="M148.8,135.2l1.3-2.9"/>
<path id="_1371" class="st0" d="M164,142.7c0.7-1.6,1.5-3,2.6-4.4c0.8-1.1,1.8-2.2,2.7-3.3"/>
<path id="_1372" class="st2" d="M169.3,135.1l0.2-0.4"/>
<path id="_1373" class="st2" d="M169.2,135l-2.7,0.3"/>
<path id="_1374" class="st0" d="M166.5,135.3l-2.8,7.3"/>
<path id="_1375" class="st0" d="M163.5,142.6l2.8-7.3"/>
<path id="_1376" class="st0" d="M166.3,135.3c-5.2-2-10.7-2.6-16.2-3"/>
<path id="_1377" class="st0" d="M148.1,136.8l-0.2-0.1"/>
<path id="_1378" class="st0" d="M147.9,136.8l0.7-1.7"/>
<path id="_1379" class="st0" d="M148.6,135.1l1.2-2.5"/>
<path id="_1380" class="st0" d="M147.3,135.2l2.4-2.7"/>
<path id="_1381" class="st0" d="M147,134.5l1.6-4.3"/>
<path id="_1382" class="st0" d="M144,142.4L144,142.4C144,142.4,144,142.4,144,142.4c0-0.1,0-0.1,0-0.2V142c0-0.1,0-0.3,0-0.4
	l0.1-0.4l0.1-0.4c0.1-0.3,0.1-0.5,0.2-0.8s0.2-0.5,0.3-0.8c0.2-0.5,0.4-1.1,0.6-1.6s0.4-1,0.6-1.6s0.4-1,0.6-1.5
	c0.1-0.2,0.2-0.5,0.3-0.7l0.3-0.7l0.3-0.7c0.1-0.2,0.2-0.5,0.4-0.7s0.3-0.5,0.4-0.7s0.1-0.3,0.2-0.4l0.2-0.4"/>
<path id="_1383" class="st0" d="M144,142.4L144,142.4L144,142.4c0.1,0,0.1,0,0.1-0.1l0.1-0.1l0.2-0.3l0.2-0.3
	c0.1-0.1,0.1-0.2,0.2-0.3c0.1-0.2,0.2-0.5,0.4-0.7c0.1-0.2,0.2-0.5,0.3-0.7c0.2-0.5,0.4-1,0.6-1.6s0.4-1,0.6-1.6s0.4-1,0.5-1.6
	l0.2-0.8l0.2-0.8l0.2-0.8c0.1-0.3,0.1-0.5,0.2-0.8s0.1-0.6,0.2-0.8s0.1-0.3,0.1-0.4l0.1-0.5"/>
<path id="_1384" class="st0" d="M148.6,135l-0.8-0.3"/>
<path id="_1385" class="st0" d="M143.9,141.7l2.8-7.1"/>
<path id="_1386" class="st0" d="M147,134.7l-0.3-0.1"/>
<path id="_1387" class="st0" d="M145.8,136.1l0.9-1.5"/>
<path id="_1388" class="st0" d="M146.7,134.6L146.7,134.6c0.1-0.1,0.1-0.1,0.1-0.1h0.1h0.1"/>
<path id="_1389" class="st0" d="M144.5,141.9l2.8-7.1"/>
<path id="_1390" class="st0" d="M147,134.7l0.3,0.1"/>
<path id="_1391" class="st0" d="M146.9,136.5l0.4-1.7"/>
<path id="_1392" class="st0" d="M147.2,134.8L147.2,134.8c0-0.1,0-0.1,0-0.2l-0.1-0.1h-0.1"/>
<path id="_1393" class="st0" d="M161.2,147.4l-14.8-8.6"/>
<path id="_1394" class="st0" d="M165.8,136.7l-3.6-1.4l0.5-1.2"/>
<path id="_1395" class="st0" d="M157.5,139.3l0.1,0.1l0.2-0.6l-0.4-0.2l-0.2,0.6l0.1,0.1"/>
<path id="_1396" class="st0" d="M157.2,140.2l0.3-0.9"/>
<path id="_1397" class="st0" d="M156.9,140.1l0.4-0.9"/>
<path id="_1398" class="st0" d="M157,138.5c0,0-0.1,0-0.1,0c0,0-0.1,0-0.1,0.1c0,0-0.1,0.1-0.1,0.1c0,0,0,0.1,0,0.1c0,0,0,0.1,0,0.1
	c0,0,0.1,0.1,0.1,0.1c0,0,0.1,0,0.1,0c0,0,0.1,0,0.1-0.1c0,0,0.1-0.1,0.1-0.1c0,0,0-0.1,0-0.1c0,0,0-0.1,0-0.1
	C157.1,138.6,157,138.5,157,138.5z"/>
<path id="_1399" class="st0" d="M161,140c0,0-0.1,0-0.1,0c0,0-0.1,0-0.1,0.1c0,0-0.1,0.1-0.1,0.1c0,0,0,0.1,0,0.1
	c0,0.1,0.1,0.2,0.2,0.2c0,0,0.1,0,0.1,0c0,0,0.1,0,0.1-0.1c0,0,0.1-0.1,0.1-0.1c0,0,0-0.1,0-0.1c0-0.1,0-0.1-0.1-0.1
	C161.1,140.1,161,140,161,140z"/>
<path id="_1400" class="st0" d="M114,208.5l0.2,0.1l0.1-0.2l-0.2-0.1"/>
<path id="_1401" class="st0" d="M115.8,203.9l0.2,0.1l0.1-0.2l-0.2-0.1"/>
<path id="_1402" class="st0" d="M122.6,203.4l-1.2-0.5"/>
<path id="_1403" class="st0" d="M127.2,205.3l0.3-0.4l0.3-0.4l0.2-0.4"/>
<path id="_1404" class="st0" d="M127.2,204.7l0.3-0.4l0.2-0.5"/>
<path id="_1405" class="st0" d="M128,204v-0.1l-0.1-0.1h-0.1l-0.1,0.1"/>
<path id="_1406" class="st0" d="M124.4,212.5l-0.2-0.1l0.1-0.2l0.2,0.1"/>
<path id="_1407" class="st0" d="M126.2,207.9l-0.2-0.1l0.1-0.2l0.2,0.1"/>
<path id="_1408" class="st0" d="M83.7,175.2l0.2-0.6l-0.2-0.1l-0.2,0.6L83.7,175.2z"/>
<path id="_1409" class="st0" d="M145.7,181.3l0.5,0.2l0.4-0.9l-0.5-0.2"/>
<path id="_1410" class="st0" d="M146,180.6c0.1-0.3,0.6-0.9,0.9-0.6c0.1,0.5,0,1-0.2,1.3c-0.2,0.3-0.5,0.8-0.9,0.5
	C145.6,181.5,145.8,181,146,180.6L146,180.6z"/>
<path id="_1421" class="st0" d="M163.2,151.2l-2.4-0.9"/>
<path id="_1422" class="st0" d="M165.9,144l-2.1-0.8"/>
<path id="_1423" class="st0" d="M126.9,204.8l-0.8,2.1"/>
<path id="_1424" class="st0" d="M125.8,204.4l-0.8,2.1"/>
<path id="_1425" class="st0" d="M124.1,203.7l-0.8,2.1"/>
<path id="_1426" class="st0" d="M120.1,202.2l-0.8,2.1"/>
<path id="_1427" class="st0" d="M118.4,201.5l-0.8,2.1"/>
<path id="_1428" class="st0" d="M117.3,201.1l-0.8,2.1"/>
<path id="_1429" class="st0" d="M137.3,218.2h-0.1c-0.1,0-0.1,0.1-0.2,0.1c0,0,0,0.1,0,0.1c0,0,0,0.1,0,0.1l0.1,0.1"/>
<path id="_1431" class="st0" d="M117.1,197.8l-3.7-2.1"/>
<path id="_1432" class="st0" d="M117.6,198.5l-0.1-0.3l-0.2-0.2l-0.2-0.2"/>
<path id="_1433" class="st0" d="M113.4,195.7l-0.4-0.2h-0.5"/>
<path id="_1434" class="st0" d="M112.4,195.5l-34-19.3"/>
<path id="_1435" class="st0" d="M134.6,218.5l-0.6-1.1"/>
<path id="_1436" class="st0" d="M134.8,218l-0.8-0.8"/>
<path id="_1437" class="st0" d="M135,217.6l-0.9-0.5"/>
<path id="_1438" class="st0" d="M119.3,216.8c1.9,0.8,3.9,1.5,5.9,2.1c0.9,0.3,1.8,0.6,2.8,0.8c0.3-0.1-0.3-0.3-0.4-0.4
	c-1.5-0.9-3.1-1.8-4.8-2.6c-0.8-0.3-1.6-0.5-2.4-0.5c-0.2-0.1-0.5-0.1-0.7-0.2"/>
<path id="_1439" class="st0" d="M119.3,216.8L119.3,216.8L119.3,216.8v-0.2v-0.1v-0.1v-0.1v-0.1v-0.1v-0.1l0.1-0.1l0,0l0,0l0,0l0,0
	l0,0"/>
<path id="_1440" class="st0" d="M120,216.1l0.3-0.4"/>
<path id="_1441" class="st0" d="M114.9,215h0.1l0,0l0,0v-0.1v-0.1v-0.1v-0.1v-0.1v-0.3l0,0l0,0l0,0l0,0"/>
<path id="_1442" class="st0" d="M114.8,214.2v-0.5"/>
<path id="_1443" class="st0" d="M120.8,216.6c0,0.1,0.1,0.3,0.2,0.4c0.2,0.2,0.5,0.4,0.7,0.5c0.4,0.2,0.9,0.4,1.4,0.6
	c0.3,0.1,0.6,0.2,0.9,0.3"/>
<path id="_1444" class="st0" d="M133,219l-1-0.4"/>
<path id="_1445" class="st0" d="M114.9,215.1c-2.8-1-5.5-2.2-8.2-3.5c-0.1,0-0.3-0.2-0.2-0.3c1.9,0.4,3.8,0.8,5.7,1.4
	c0.8,0.3,1.5,0.7,2.1,1.3c0.2,0.1,0.4,0.2,0.7,0.3"/>
<path id="_1448" class="st0" d="M130.8,224.9l1,0.4"/>
<path id="_1449" class="st0" d="M132.1,223.1l-0.9-0.4"/>
<path id="_1450" class="st0" d="M131.8,225.3l0.3-2.2"/>
<path id="_1451" class="st0" d="M130.4,228.7l0.4,0.1"/>
<path id="_1452" class="st0" d="M130.6,231.1l0.2-2.2"/>
<path id="path5873" class="st0" d="M80.6,169.9l0.6-1.5"/>
<path id="path5875" class="st0" d="M108,176l1.3-3.5"/>
<path id="path5888" class="st0" d="M126.9,175.4l-1.7,4.4"/>
<path id="path5899" class="st0" d="M120.6,205.1l1.2,0.5"/>
<path id="path5939" class="st0" d="M168.5,144.5l15.5,6.2"/>
<path id="path5941" class="st0" d="M163.7,142.6l-15.6-5.8"/>
<path id="path5973" class="st0" d="M157.4,219.2l1.1,0.4"/>
<path id="path6007" class="st0" d="M187.4,206.6l1.3-3.5"/>
<path id="path6017" class="st0" d="M211.8,220.4l0.6-1.5"/>
<path id="path6019" class="st0" d="M173.8,193.5l-1.7,4.3"/>
<path class="st3" d="M74.9,1c77,19,139,39,95.8,131.5"/>
<path class="st3" d="M130.9,237c-33,88-85,17-130,102"/>
</svg>
