<svg xmlns="http://www.w3.org/2000/svg" viewBox="0 0 615.69 568.35"><defs><style>.cls-1,.cls-2,.cls-3,.cls-4{fill:none;stroke:#ff6300;stroke-width:0.5px;}.cls-2,.cls-3{stroke-linejoin:round;}.cls-3,.cls-4{stroke-linecap:round;}</style></defs><title>Asset 11101</title><g id="Layer_2" data-name="Layer 2"><g id="svg2"><g id="g5174"><path id="path2989" class="cls-1" d="M295.61,23.48C297.89,14,303.07.25,307.84.25s10,13.74,12.24,23.23Z"/><path id="path3759-5" class="cls-1" d="M295.5,23.85c-8.73,17.76-13.34,37.41-15.71,52.36-1.77,11.11-2.48,27.84-3.32,41.74"/><path id="path3761" class="cls-2" d="M276.43,118.09h3v44.68h-3Z"/><path id="path3765" class="cls-1" d="M296,489.57,212.7,514c-8.78,2.57-12.74,15.21-12.29,25.22.7,15.63,18,24.64,31.56,25.31l73.13,3.6-4.38-25.79h3"/><path id="path3767" class="cls-2" d="M277,105.12l-5.78,15.78h-6.64l-4.29,6.56C171.32,142.86,77.12,167,11.82,185.9c-6.89,2-11.76,9.88-11.56,20.47.23,12.85,4.26,26.12,11.56,36.4C32.73,272.22,90.34,279,128.28,282c44.8,3.54,89.36,3.56,119.32.23,19.73-2.2,25.44,7.44,32.34,20.07"/><path id="path3790-8" class="cls-2" d="M276.33,120.07l-2.74,5.14,2.74,1.71L273.59,132l2.74,1.76-2.74,5.09,2.74,1.77-2.74,5.14,2.74,1.71-2.74,5.15,2.74,1.71-2.74,5.08,2.74,1.77"/><path id="path3792-6" class="cls-1" d="M260.2,127.54a36.45,36.45,0,0,1,5.06,18.83V260.8"/><path id="path3794-9" class="cls-1" d="M198.85,138.71V284.18"/><path id="path3796" class="cls-1" d="M128.15,281.76V155.12"/><path id="path3798-7" class="cls-1" d="M12.21,185.82v57"/><path id="path3802-7" class="cls-1" d="M264.28,137.71,198.66,149.2"/><path id="path3804-7" class="cls-1" d="M198.77,146.1l-186.61,43"/><path id="path3806-1" class="cls-1" d="M270.58,288.3V260.45l-142.12,5.84L12.34,242.89"/><path id="path3808-1" class="cls-1" d="M265.39,254.26l-137,5.63L12.32,239"/><path id="path3810" class="cls-1" d="M90,277.38v-6.17l38.05,4.38"/><path id="path3812-2" class="cls-1" d="M120.33,273.09c.11-1.75.3-4.34,1.16-4.34s1,2.59,1.15,4.34Z"/><path id="path3816-1" class="cls-1" d="M121.49,273.24v5.11"/><path id="rect3818" class="cls-3" d="M183.82,225h7.41a2.22,2.22,0,0,1,2.18,2.26v13.1a2.22,2.22,0,0,1-2.18,2.26h-7.41a2.22,2.22,0,0,1-2.18-2.26v-13.1A2.22,2.22,0,0,1,183.82,225Z"/><path id="rect3820" class="cls-3" d="M203.26,225h7.42a2.21,2.21,0,0,1,2.17,2.26v13.1a2.21,2.21,0,0,1-2.17,2.26h-7.42a2.21,2.21,0,0,1-2.17-2.26v-13.1A2.21,2.21,0,0,1,203.26,225Z"/><path id="rect3822" class="cls-3" d="M226.24,218.69h5.43a2.22,2.22,0,0,1,2.18,2.26v11.44a2.23,2.23,0,0,1-2.18,2.27h-5.43a2.22,2.22,0,0,1-2.17-2.27V221A2.21,2.21,0,0,1,226.24,218.69Z"/><path id="rect3824" class="cls-3" d="M216.19,201.79h4.43a2.22,2.22,0,0,1,2.18,2.26v6.36a2.22,2.22,0,0,1-2.18,2.26h-4.43a2.22,2.22,0,0,1-2.18-2.26v-6.36A2.22,2.22,0,0,1,216.19,201.79Z"/><path id="path3826-0" class="cls-3" d="M253.68,201.51a4.26,4.26,0,1,1-4.26-4.25A4.25,4.25,0,0,1,253.68,201.51Z"/><path id="path3828-3" class="cls-1" d="M6.78,193.21a4.83,4.83,0,0,1,0,3.55,1.39,1.39,0,0,1-2.37,0c-.68-1.52,1-3.24,1.26-3.45.45-.36.8-.42,1.11-.1Z"/><path id="path3830-2" class="cls-1" d="M160.32,147.52v7.33M172.07,152v-7.14"/><path id="path3834-6" class="cls-1" d="M64,171.12l.85-65.61h.76l.85,65.61"/><path id="path3838-3" class="cls-1" d="M64.19,162.93h1.94"/><path id="path3840-0" class="cls-1" d="M301.13,526.55H212.38"/><path id="path3842-3" class="cls-1" d="M212.38,514.3v29.5h-11"/><path id="path3844-7" class="cls-1" d="M212.38,520.62l84-23.32"/><path id="path3846-3" class="cls-1" d="M303.44,559.87l-37.56-1.82V566"/><path id="path3848-2" class="cls-1" d="M290.19,559.18V534.75H261.26v8.55h-5.13v-8.75l-44,4.5"/><path id="path3850" class="cls-1" d="M300.13,542h-9.75"/><path id="path3854-5" class="cls-1" d="M303.42,512.21c-.38-11.73.34-31.28,4.42-31.28s4.81,19.55,4.43,31.28c-.51,15.61-2.14,27.31-4.43,42.07C305.56,539.52,303.92,527.82,303.42,512.21Z"/><path id="path3858-8" class="cls-1" d="M280.88,324.56h25.76"/><path id="path3864-1" class="cls-1" d="M279.55,153.53h56.58"/><path id="path3866" class="cls-1" d="M279.55,133h56.58"/><path id="path3870-6" class="cls-1" d="M217.5,13.7H398.18"/><path id="path3874-8" class="cls-1" d="M287.07,45.52h17.76c-3.2-5.37-6.56-10.69-9.47-17.89-2,1.84-3.7,6.14-4.9,8.06"/><path id="path3876-0" class="cls-1" d="M285.83,49.94H303c-8.21,5.49-16.82,14-21,22.8h-1.41"/><path id="path3880-4" class="cls-1" d="M302,124.8V101l3.08-2.37V75.8H281.88V99.68l3.81,3.81V125.3"/><path id="path3882-0" class="cls-1" d="M285.76,103.37h16.06"/><rect id="rect3884" class="cls-4" x="285.63" y="78.68" width="13.19" height="20.13"/><path id="path3888-6" class="cls-1" d="M282.19,100h-4.87"/><path id="path3890-3" class="cls-1" d="M281.82,76.09H280"/><rect id="rect3892" class="cls-4" x="283.63" y="170.49" width="1.69" height="3.81" rx="0.75" ry="0.75"/><path id="rect3894" class="cls-4" d="M286.32,211.49h2.31c.41,0,.75.51.75,1.13v7.56c0,.62-.34,1.12-.75,1.12h-2.31c-.42,0-.75-.5-.75-1.12v-7.56C285.57,212,285.9,211.49,286.32,211.49Z"/><path id="rect3896" class="cls-4" d="M286.51,287.05h3.37c.41,0,.75.51.75,1.13v13.25c0,.62-.34,1.12-.75,1.12h-3.37c-.42,0-.75-.5-.75-1.12V288.18C285.76,287.56,286.09,287.05,286.51,287.05Z"/><path id="path3900" class="cls-1" d="M299.51,278V264.3h16.67V278Z"/><path id="path3906-7" class="cls-1" d="M297.16,292.34a19.84,19.84,0,0,0,21.36,0"/><path id="path3910-5" class="cls-1" d="M306.57,298.13c-2.31.84-3.09,3.78-3.5,6.28h-3.56v-8.1a19.7,19.7,0,0,0,16.67,0v8.1h-3.56c-.41-2.5-1.2-5.44-3.5-6.28"/><path id="path3912-9" class="cls-1" d="M306.38,325.27V306.13c0-2.94.46-5.33,1.46-5.33s1.44,2.39,1.47,5.33v19.14Z"/><path id="path3916-6" class="cls-1" d="M320.19,23.85c8.73,17.76,13.33,37.41,15.71,52.36,1.76,11.11,2.48,27.84,3.32,41.74"/><path id="path3918-2" class="cls-2" d="M339.26,118.09h-3v44.68h3Z"/><path id="path3920-6" class="cls-1" d="M339.1,162.93c0,54.32-2.15,112-4.27,161.5-3.66,85.58-14,166.8-27,242.87-13-76.07-23.32-157.29-27-242.87-2.12-49.5-4.28-107.18-4.28-161.5"/><path id="path3922-3" class="cls-1" d="M319.65,489.57,403,514c8.78,2.57,12.74,15.21,12.29,25.22-.7,15.63-18,24.64-31.56,25.31l-73.12,3.6L315,542.3h-3"/><path id="path3924-5" class="cls-2" d="M338.71,105.12l5.78,15.78h6.64l4.3,6.56c88.94,15.4,183.13,39.58,248.44,58.44,6.89,2,11.75,9.88,11.56,20.47-.24,12.85-4.26,26.12-11.56,36.4C583,272.22,525.34,279,487.41,282c-44.8,3.54-89.36,3.56-119.32.23-19.73-2.2-25.45,7.44-32.35,20.07"/><path id="path3926-0" class="cls-2" d="M339.36,120.07l2.73,5.14-2.73,1.71,2.73,5.09-2.73,1.76,2.73,5.09-2.73,1.77,2.73,5.14-2.73,1.71,2.73,5.15-2.73,1.71,2.73,5.08-2.73,1.77"/><path id="path3928-8" class="cls-1" d="M355.49,127.54a36.36,36.36,0,0,0-5.06,18.83V260.8"/><path id="path3930" class="cls-1" d="M416.84,138.71V284.18"/><path id="path3932" class="cls-1" d="M487.54,281.76V155.12"/><path id="path3934-8" class="cls-1" d="M603.48,185.82v57"/><path id="path3936-0" class="cls-1" d="M603.56,219.34,338.47,186.76H277.21L12.13,219.34"/><path id="path3938-1" class="cls-1" d="M351.4,137.71,417,149.2"/><path id="path3940" class="cls-1" d="M416.92,146.1l186.61,43"/><path id="path3942" class="cls-1" d="M345.1,288.3V260.45l142.13,5.84,116.12-23.4"/><path id="path3944-1" class="cls-1" d="M350.3,254.26l137,5.63,116-20.93"/><path id="path3946-8" class="cls-1" d="M525.66,277.38v-6.17l-38,4.38"/><path id="path3948-4" class="cls-1" d="M495.35,273.09c-.11-1.75-.29-4.34-1.15-4.34s-1.05,2.59-1.16,4.34Z"/><path id="path3950-3" class="cls-1" d="M494.2,273.24v5.11"/><path id="rect3952" class="cls-3" d="M431.87,225h-7.42a2.21,2.21,0,0,0-2.17,2.26v13.1a2.21,2.21,0,0,0,2.17,2.26h7.42a2.21,2.21,0,0,0,2.17-2.26v-13.1A2.21,2.21,0,0,0,431.87,225Z"/><path id="rect3954" class="cls-3" d="M412.42,225H405a2.22,2.22,0,0,0-2.18,2.26v13.1a2.22,2.22,0,0,0,2.18,2.26h7.41a2.22,2.22,0,0,0,2.18-2.26v-13.1A2.22,2.22,0,0,0,412.42,225Z"/><path id="rect3956" class="cls-3" d="M389.44,218.69H384a2.22,2.22,0,0,0-2.18,2.26v11.44a2.22,2.22,0,0,0,2.18,2.27h5.42a2.23,2.23,0,0,0,2.18-2.27V221A2.22,2.22,0,0,0,389.44,218.69Z"/><path id="rect3958" class="cls-3" d="M399.5,201.79h-4.44a2.21,2.21,0,0,0-2.17,2.26v6.36a2.21,2.21,0,0,0,2.17,2.26h4.44a2.21,2.21,0,0,0,2.17-2.26v-6.36A2.21,2.21,0,0,0,399.5,201.79Z"/><path id="path3960-4" class="cls-3" d="M362,201.51a4.26,4.26,0,1,0,4.25-4.25A4.25,4.25,0,0,0,362,201.51Z"/><path id="path3962-3" class="cls-1" d="M608.91,193.21c-.47.5-.45,2.95,0,3.55a1.38,1.38,0,0,0,2.36,0c.69-1.52-1-3.24-1.25-3.45-.45-.36-.8-.42-1.11-.1Z"/><path id="path3970-8" class="cls-1" d="M314.56,526.55h88.75"/><path id="path3972-6" class="cls-1" d="M403.31,514.3v29.5h11"/><path id="path3974-9" class="cls-1" d="M403.31,520.62l-84-23.32"/><path id="path3976-7" class="cls-1" d="M312.24,559.87l37.57-1.82V566"/><path id="path3978" class="cls-1" d="M325.49,559.18V534.75h28.94v8.55h5.13v-8.75l44,4.5"/><path id="path3980-0" class="cls-1" d="M315.56,542h9.75"/><path id="path3982-7" class="cls-1" d="M322.06,469.55H293.63"/><path id="path3986-5" class="cls-1" d="M311.38,526.44H304.3"/><path id="path3988-0" class="cls-1" d="M334.81,324.56H309.05"/><path id="path3990" class="cls-1" d="M337.28,253.49H278.4"/><path id="path3992" class="cls-1" d="M336.31,158.12H279.38"/><path id="path3998" class="cls-1" d="M316.33,11.22h-17"/><path id="path4002" class="cls-1" d="M318.1,26.25H297.58c3.69,7.54,7.94,15.12,10.26,17.68C310.16,41.37,314.42,33.79,318.1,26.25Z"/><path id="path4004" class="cls-1" d="M328.62,45.52H310.85c3.21-5.37,6.56-10.69,9.48-17.89,2,1.84,3.7,6.14,4.9,8.06"/><path id="path4006" class="cls-1" d="M329.86,49.94H312.71c8.2,5.49,16.81,14,21,22.8h1.41"/><path id="path4008" class="cls-1" d="M311.31,72.74l-2-21.7c8.82,5.7,16.17,12.61,21,21.65H285.31c4.85-9,12.21-15.95,21-21.65l-2,21.7"/><path id="path4010" class="cls-1" d="M313.68,124.8V101l-3.09-2.37V75.8h23.22V99.68L330,103.49V125.3"/><path id="path4012" class="cls-1" d="M329.93,103.37H313.87"/><rect id="rect4014" class="cls-4" x="316.87" y="78.68" width="13.19" height="20.13"/><path id="path4016" class="cls-1" d="M333.49,100h4.88"/><path id="path4018" class="cls-1" d="M333.87,76.09h1.78"/><rect id="rect4020" class="cls-4" x="330.37" y="170.49" width="1.69" height="3.81" rx="0.75" ry="0.75"/><path id="rect4024" class="cls-4" d="M329.18,287.05h-3.37c-.42,0-.75.51-.75,1.13v13.25c0,.62.33,1.12.75,1.12h3.37c.41,0,.75-.5.75-1.12V288.18C329.93,287.56,329.59,287.05,329.18,287.05Z"/><path id="path4026" class="cls-1" d="M309.34,306.93h9.34V261.8H297v45.13h9.34"/><path id="path4030" class="cls-1" d="M316.18,290.93V280.8H299.51v10.13a20.72,20.72,0,0,0,16.67,0Z"/><path id="path4164" class="cls-4" d="M310,345.87c0,1.79-.79,3.25-1.75,3.25s-1.75-1.46-1.75-3.25.78-3.25,1.75-3.25S310,344.07,310,345.87Z"/><path id="path4166" class="cls-1" d="M307.84,553V480.43"/></g></g></g></svg>