<svg xmlns="http://www.w3.org/2000/svg" viewBox="0 0 213.96 339.44"><defs><style>.cls-1,.cls-2,.cls-3{fill:none;}.cls-1,.cls-2{stroke:#000;stroke-linejoin:round;stroke-width:0.5px;}.cls-1{stroke-linecap:round;}.cls-3{stroke:#201600;stroke-width:2px;stroke-dasharray:5;}</style></defs><title>Asset 2</title><g id="Layer_2" data-name="Layer 2"><g id="Layer_1-2" data-name="Layer 1"><g id="g6023"><path id="_4" data-name="4" class="cls-1" d="M160.16,172.51l5.42-17.67"/><path id="_63" data-name="63" class="cls-1" d="M135.84,222.39l1.23-3.21"/><path id="_64" data-name="64" class="cls-1" d="M135.69,222.41l2.45-.45"/><path id="_65" data-name="65" class="cls-1" d="M138.14,222l1-2.66"/><path id="_67" data-name="67" class="cls-2" d="M138.14,222l2.49-2.56"/><path id="_68" data-name="68" class="cls-1" d="M137,219l2.12.12"/><path id="_69" data-name="69" class="cls-1" d="M137.07,219.18l2.1.12"/><path id="_75" data-name="75" class="cls-1" d="M137.34,218.13l1.85.71"/><path id="_76" data-name="76" class="cls-1" d="M137.44,217.87l3.58,1.38"/><path id="_77" data-name="77" class="cls-2" d="M140.78,219.16l3-7.82"/><path id="_78" data-name="78" class="cls-1" d="M139.69,222l2-2.3"/><path id="_79" data-name="79" class="cls-1" d="M141.66,219.66l2.81-8.06"/><path id="_80" data-name="80" class="cls-1" d="M138.63,221.45l1-2.46"/><path id="_81" data-name="81" class="cls-1" d="M139.58,219l1.34.52"/><path id="_82" data-name="82" class="cls-1" d="M139.13,219.12a.14.14,0,0,0,.06-.28"/><path id="_83" data-name="83" class="cls-1" d="M137.54,217.62l2.24.86"/><path id="_84" data-name="84" class="cls-1" d="M137.6,217.46l2,.76"/><path id="_85" data-name="85" class="cls-1" d="M140.44,210.28l3.28,1.27"/><path id="_86" data-name="86" class="cls-1" d="M140.52,210.07l3.28,1.27"/><path id="_87" data-name="87" class="cls-1" d="M140.36,210.51l1.83.71"/><path id="_88" data-name="88" class="cls-1" d="M139.78,218.48l1.35-3.51"/><path id="_89" data-name="89" class="cls-1" d="M140,218.36l2-5.08"/><path id="_90" data-name="90" class="cls-1" d="M139.58,218.22l1.2-3.11"/><path id="_91" data-name="91" class="cls-1" d="M138.8,214.35l2,.76"/><path id="_92" data-name="92" class="cls-1" d="M138.89,214.11l2.24.86"/><path id="_93" data-name="93" class="cls-1" d="M139,213.87l1.9.73"/><path id="_94" data-name="94" class="cls-1" d="M141.15,214.49l1.16-3"/><path id="_95" data-name="95" class="cls-1" d="M142.88,211.48l.75.29"/><path id="_96" data-name="96" class="cls-1" d="M141,215.91l.94.36"/><path id="_97" data-name="97" class="cls-1" d="M141,215.76l.94.36"/><path id="_98" data-name="98" class="cls-1" d="M142.23,213.17l.75.29"/><path id="_99" data-name="99" class="cls-1" d="M142.33,212.91l.75.29"/><path id="_100" data-name="100" class="cls-1" d="M142.21,212.65l.41-1.05"/><path id="_101" data-name="101" class="cls-1" d="M142.23,213.17a.21.21,0,0,0-.26.11"/><path id="_102" data-name="102" class="cls-1" d="M142.21,212.65a.24.24,0,0,0,.12.26"/><path id="_103" data-name="103" class="cls-1" d="M142.88,211.48a.21.21,0,0,0-.26.12"/><path id="_104" data-name="104" class="cls-1" d="M140.89,214.6a.23.23,0,0,0,.26-.11"/><path id="_105" data-name="105" class="cls-1" d="M142.31,211.48a.33.33,0,0,0,0-.14s0-.06-.07-.09l-.05,0"/><path id="_106" data-name="106" class="cls-1" d="M140.13,218.62l.75.29"/><path id="_107" data-name="107" class="cls-1" d="M140,218.36a.21.21,0,0,0,.12.26"/><path id="_108" data-name="108" class="cls-1" d="M143.05,210.77a3.16,3.16,0,0,0,1.29-2.69,3.24,3.24,0,0,0-.79-2,3.39,3.39,0,0,0-1.15-.83"/><path id="_109" data-name="109" class="cls-1" d="M143.8,211.34,142,209.85"/><path id="_110" data-name="110" class="cls-1" d="M141.47,207.8a2,2,0,0,0-.11.73,1.7,1.7,0,0,0,.45,1.13l.18.19"/><path id="_111" data-name="111" class="cls-1" d="M141.47,207.8l.13-.34"/><path id="_112" data-name="112" class="cls-1" d="M141.6,207.46v-.1l-.07-.07"/><path id="_113" data-name="113" class="cls-1" d="M144.07,209.25l-2.7-1.05"/><path id="_114" data-name="114" class="cls-1" d="M143,210.7a3.09,3.09,0,0,0,1.22-2,3.13,3.13,0,0,0-.86-2.7,3.22,3.22,0,0,0-1-.65"/><path id="_115" data-name="115" class="cls-1" d="M144.05,207.18l-2.54.82"/><path id="_116" data-name="116" class="cls-1" d="M142,209.81l-.59-1.33"/><path id="_117" data-name="117" class="cls-1" d="M141.52,208.26l.85,1.92"/><path id="_118" data-name="118" class="cls-1" d="M141.42,208l2.72,1"/><path id="_119" data-name="119" class="cls-1" d="M141.49,207.75,144,207"/><path id="_120" data-name="120" class="cls-1" d="M140,211.26l.07,0"/><path id="_121" data-name="121" class="cls-1" d="M140.77,209.24l.06,0"/><path id="_122" data-name="122" class="cls-1" d="M140.06,211.29l.77-2"/><path id="_123" data-name="123" class="cls-1" d="M141.48,207.79l-.76,2-.06,0"/><path id="_151" data-name="151" class="cls-1" d="M143.48,202.21l.14.06.15-.4-.13-.05"/><path id="_152" data-name="152" class="cls-1" d="M142.84,203.89l.13.05.16-.4-.14,0"/><path id="_153" data-name="153" class="cls-1" d="M142.93,203.92l-.6,1.54"/><path id="_154" data-name="154" class="cls-1" d="M144.3,200.09l.09,0-.66,1.72"/><path id="_155" data-name="155" class="cls-1" d="M143.57,202.25l-.49,1.28"/><path id="_156" data-name="156" class="cls-1" d="M142.76,205.59l-.77,2"/><path id="_157" data-name="157" class="cls-1" d="M141.7,207.68l.85-2.21"/><path id="_158" data-name="158" class="cls-1" d="M141.5,207.75l.88-2.27-.14,0"/><path id="_161" data-name="161" class="cls-2" d="M140.75,219.44c0,.08,0,.16,0,.23a.47.47,0,0,0,0,.17.26.26,0,0,0,.11.12.21.21,0,0,0,.11,0,.27.27,0,0,0,.2,0,.42.42,0,0,0,.14-.09c0-.06.12-.1.14-.17a2.14,2.14,0,0,0,.13-.19,1.51,1.51,0,0,1,.09-.18c0-.06,0-.13.07-.2a1.6,1.6,0,0,0,.05-.21c0-.07,0-.13,0-.2a.49.49,0,0,0-.06-.17.31.31,0,0,0-.1-.15h-.1l-.11,0c-.06,0-.11.09-.18.12a1.07,1.07,0,0,1-.18.19.8.8,0,0,0-.13.19.33.33,0,0,0-.07.13.41.41,0,0,1-.05.09"/><path id="_162" data-name="162" class="cls-1" d="M140.92,219.51H141l.08-.08v-.1l-.08-.08"/><path id="_166" data-name="166" class="cls-1" d="M140.06,220l1,.38"/><path id="_167" data-name="167" class="cls-1" d="M141.19,218.1l.89.35"/><path id="_170" data-name="170" class="cls-1" d="M132.12,231.68l1.61.62"/><path id="_171" data-name="171" class="cls-1" d="M134.05,226.66,137.4,228"/><path id="_172" data-name="172" class="cls-1" d="M152.21,233.53l0-.13,0-.14-.05-.13,0-.13,0-.13-.05-.13,0-.14,0-.13,0-.13,0-.14,0-.13,0-.14,0-.13,0-.14,0-.13,0-.14v-.55l0-.14v-1.53"/><path id="_173" data-name="173" class="cls-1" d="M150.49,227.16c-.21-.14-.19-.46-.27-.68a8.67,8.67,0,0,1,.56-4.06c.55-1.7,1.24-3.34,1.94-5"/><path id="_174" data-name="174" class="cls-1" d="M152.72,217.44l.95-2.34"/><path id="_175" data-name="175" class="cls-1" d="M153.86,215.16l.65-1.74"/><path id="_176" data-name="176" class="cls-1" d="M152.46,233.62l-.25-.09-.21.54.25.1"/><path id="_177" data-name="177" class="cls-1" d="M152.7,233.72l.12-.07.12-.07.13-.06.12-.07.12-.07.12-.07.12-.07.12-.07.11-.07.13-.08.11-.08.11-.07.12-.08.11-.08.12-.09.11-.08,0,0,.06,0,.06,0,0,0,.06,0,0-.06.05,0,.06,0,.1-.1.11-.09.1-.1.1-.09.09-.1.1-.1.09-.11.1-.1.09-.11.1-.1.08-.11.09-.1"/><path id="_178" data-name="178" class="cls-1" d="M152.46,233.62l.24.1-.21.54-.24-.09"/><path id="_179" data-name="179" class="cls-1" d="M151.6,227.83l5.38,2.08"/><path id="_180" data-name="180" class="cls-1" d="M151.47,230l4.13,1.59"/><path id="_181" data-name="181" class="cls-1" d="M151.55,228.32l5.14,2"/><path id="_182" data-name="182" class="cls-1" d="M150.49,227.16l3.88,1.5"/><path id="_183" data-name="183" class="cls-1" d="M150.26,226.65l4.25,1.64"/><path id="_184" data-name="184" class="cls-1" d="M150.56,223.15l5.17,2"/><path id="_185" data-name="185" class="cls-1" d="M152.72,217.44l5.2,2"/><path id="_186" data-name="186" class="cls-1" d="M155.34,225l2.2-5.7"/><path id="_187" data-name="187" class="cls-1" d="M153.67,215.1l4.3,1.66"/><path id="_188" data-name="188" class="cls-1" d="M157.32,219.22l1.12-2.92"/><path id="_189" data-name="189" class="cls-1" d="M152.83,217.16l4.6,1.78"/><path id="_190" data-name="190" class="cls-1" d="M158.44,216.3a7.65,7.65,0,0,1,.59-1.18c.17-.33.38-.63.57-1l.51-.83c.08-.08.12-.22.23-.25s0,0,0,0"/><path id="_191" data-name="191" class="cls-1" d="M157.77,218.06l-.14-.33"/><path id="_192" data-name="192" class="cls-1" d="M157.63,217.73c.23-.6.42-1.22.66-1.82a10.09,10.09,0,0,1,.52-1c.18-.32.38-.63.57-.94a5.33,5.33,0,0,1,.86-1.14c.08,0,.18-.14.27-.1h0"/><path id="_193" data-name="193" class="cls-1" d="M150.65,226.52l2,.76"/><path id="_194" data-name="194" class="cls-1" d="M151,223.71l2.05.79"/><path id="_195" data-name="195" class="cls-1" d="M150.55,226.38a7.4,7.4,0,0,1,.23-2.56"/><path id="_196" data-name="196" class="cls-1" d="M152.83,227.14l.31-2.47"/><path id="_197" data-name="197" class="cls-1" d="M150.55,226.38l.1.14"/><path id="_198" data-name="198" class="cls-1" d="M151,223.71a.16.16,0,0,0-.2.11"/><path id="_199" data-name="199" class="cls-1" d="M152.62,227.28a.18.18,0,0,0,.21-.14"/><path id="_200" data-name="200" class="cls-1" d="M153.14,224.67a.16.16,0,0,0-.11-.17"/><path id="_201" data-name="201" class="cls-1" d="M151.6,227.83l.08-.21"/><path id="_202" data-name="202" class="cls-1" d="M154.07,214.57l4,1.85"/><path id="_203" data-name="203" class="cls-1" d="M155.7,215.32l2.67-5.78"/><path id="_204" data-name="204" class="cls-1" d="M155.37,213.75a45,45,0,0,1,2.9-5.66,6.89,6.89,0,0,1,3.17-2.68,2.67,2.67,0,0,1,2.24.2,3.32,3.32,0,0,1,1.54,2.39,11.67,11.67,0,0,1-.56,5.61c-.32,1.11-.68,2.22-1,3.33"/><path id="_205" data-name="205" class="cls-1" d="M157.57,209.23l3.74,1.44"/><path id="_206" data-name="206" class="cls-1" d="M155.81,215.08l.72.27.07-.18-.71-.27"/><path id="_207" data-name="207" class="cls-1" d="M157,212.47l.73.28.07-.17-.72-.28"/><path id="_208" data-name="208" class="cls-1" d="M158.15,210l.71.27.07-.17-.7-.27"/><path id="_209" data-name="209" class="cls-1" d="M160.68,207.94l.34-.88,1.25.48-.34.89Z"/><path id="_210" data-name="210" class="cls-1" d="M158.26,230.16c.22,0,.4-.18.58-.28a8.11,8.11,0,0,0,2.25-3.14c.79-1.72,1.42-3.5,2-5.28"/><path id="_211" data-name="211" class="cls-1" d="M163.13,221.46l.86-2.38"/><path id="_212" data-name="212" class="cls-1" d="M163.82,219l.9-2.26"/><path id="_213" data-name="213" class="cls-1" d="M158.26,230.16l-3.89-1.5"/><path id="_214" data-name="214" class="cls-1" d="M158.77,229.93l-4.26-1.64"/><path id="_215" data-name="215" class="cls-1" d="M160.9,227.14l-5.17-2"/><path id="_216" data-name="216" class="cls-1" d="M163.13,221.46l-5.21-2"/><path id="_217" data-name="217" class="cls-1" d="M156.12,225.3l2.19-5.7"/><path id="_218" data-name="218" class="cls-1" d="M164,219.08l-4.3-1.65"/><path id="_219" data-name="219" class="cls-1" d="M158.53,219.68l1.13-2.91"/><path id="_220" data-name="220" class="cls-1" d="M163.23,221.18l-4.59-1.78"/><path id="_221" data-name="221" class="cls-1" d="M159.66,216.77a5.94,5.94,0,0,0,.18-.6,8.72,8.72,0,0,0,.24-1c.07-.26.11-.54.17-.81s.1-.62.16-.93c0-.11.07-.26,0-.34"/><path id="_222" data-name="222" class="cls-1" d="M159,218.53l.32-.15"/><path id="_223" data-name="223" class="cls-1" d="M159.3,218.38c.21-.56.47-1.09.67-1.65a9.71,9.71,0,0,0,.42-1.49c.09-.43.16-.87.24-1.31a2.77,2.77,0,0,0,0-1.11.32.32,0,0,0-.12-.14"/><path id="_224" data-name="224" class="cls-1" d="M158.57,229.57l-2-.76"/><path id="_225" data-name="225" class="cls-1" d="M160.19,227.27l-2-.79"/><path id="_226" data-name="226" class="cls-1" d="M158.73,229.54a7.63,7.63,0,0,0,1.56-2"/><path id="_227" data-name="227" class="cls-1" d="M156.53,228.57l1.43-2"/><path id="_228" data-name="228" class="cls-1" d="M158.57,229.57l.16,0"/><path id="_229" data-name="229" class="cls-1" d="M160.29,227.49a.16.16,0,0,0-.1-.22"/><path id="_230" data-name="230" class="cls-1" d="M156.53,228.57a.17.17,0,0,0,.07.24"/><path id="_231" data-name="231" class="cls-1" d="M158.15,226.48a.16.16,0,0,0-.19.05"/><path id="_232" data-name="232" class="cls-1" d="M157,229.91l.08-.21"/><path id="_233" data-name="233" class="cls-1" d="M164.05,218.42l-4.22-1.32"/><path id="_234" data-name="234" class="cls-1" d="M162.35,217.89l1.9-6.08"/><path id="_235" data-name="235" class="cls-1" d="M165.05,212.12l-3.74-1.45"/><path id="_236" data-name="236" class="cls-1" d="M162.43,217.63l-.72-.28.07-.18.71.27"/><path id="_237" data-name="237" class="cls-1" d="M163.28,214.89l-.72-.28.07-.17.71.27"/><path id="_238" data-name="238" class="cls-1" d="M164.1,212.29l-.72-.28.07-.17.71.28"/><path id="_239" data-name="239" class="cls-1" d="M163.61,209.08l.35-.89-1.25-.48-.35.88Z"/><path id="_240" data-name="240" class="cls-1" d="M161,208.64a.75.75,0,0,0-.26,0,1,1,0,0,0-.25.06.66.66,0,0,0-.21.15.55.55,0,0,0-.14.23.53.53,0,0,0-.05.25.58.58,0,0,0,.06.26.6.6,0,0,0,.14.21.62.62,0,0,0,.23.14.74.74,0,0,0,.25.05.58.58,0,0,0,.26-.06.66.66,0,0,0,.22-.15.83.83,0,0,0,.14-.22.57.57,0,0,0,0-.26.66.66,0,0,0-.05-.25.89.89,0,0,0-.16-.22A.64.64,0,0,0,161,208.64Z"/><path id="_241" data-name="241" class="cls-1" d="M160.63,209.63h-.08a.12.12,0,0,0-.06.06.14.14,0,0,0,0,.09.15.15,0,0,0,.06.05h.08a.12.12,0,0,0,.06-.06.1.1,0,0,0,0-.09A.12.12,0,0,0,160.63,209.63Z"/><path id="_242" data-name="242" class="cls-1" d="M161.3,209.09a.1.1,0,0,0-.09,0,.12.12,0,0,0-.05.05.11.11,0,0,0,0,.08.12.12,0,0,0,.06.06.11.11,0,0,0,.08,0,.12.12,0,0,0,.06-.06.11.11,0,0,0,0-.08A.09.09,0,0,0,161.3,209.09Z"/><path id="_243" data-name="243" class="cls-1" d="M160.5,208.78a.14.14,0,0,0-.09,0,.12.12,0,0,0,0,.05.11.11,0,0,0,0,.08.12.12,0,0,0,.06.06.11.11,0,0,0,.08,0,.18.18,0,0,0,.05-.07.09.09,0,0,0,0-.07S160.53,208.79,160.5,208.78Z"/><path id="_244" data-name="244" class="cls-1" d="M167.5,190l3.5-5.06"/><path id="_245" data-name="245" class="cls-1" d="M170.56,191.64l.86-6.55"/><path id="_246" data-name="246" class="cls-1" d="M171.42,185.09l0-.12-.07-.1-.11,0-.13,0-.09.07"/><path id="_247" data-name="247" class="cls-1" d="M168,190.28l2.59,1"/><path id="_248" data-name="248" class="cls-1" d="M163.87,219.42s.24-.24.35-.38a3,3,0,0,0,.29-.43,4.52,4.52,0,0,0,.22-.48"/><path id="_249" data-name="249" class="cls-1" d="M163.86,218.9a3.7,3.7,0,0,0,.29-.41,3.38,3.38,0,0,0,.21-.46"/><path id="_250" data-name="250" class="cls-1" d="M164.73,218.13a.45.45,0,0,0,0-.14.24.24,0,0,0-.11-.09.22.22,0,0,0-.14,0,.4.4,0,0,0-.1.12"/><path id="_298" data-name="298" class="cls-1" d="M146.58,210.36l8.79,3.39"/><path id="_299" data-name="299" class="cls-1" d="M155.37,213.75l.07,0a.53.53,0,0,0,.1.06.13.13,0,0,0,.07.06s.06.06.08.09,0,0,.06.08l0,.07s0,.08,0,.12a.31.31,0,0,1,0,.1h0"/><path id="_300" data-name="300" class="cls-1" d="M173.09,193l-13.7-7.39"/><path id="_301" data-name="301" class="cls-1" d="M154.16,193.6l16.28,6.28"/><path id="_302" data-name="302" class="cls-1" d="M173.09,193l-8.42,21.82"/><path id="_303" data-name="303" class="cls-1" d="M164.67,214.82l.5.19"/><path id="_304" data-name="304" class="cls-1" d="M165.17,215l-.64,1.66"/><path id="_305" data-name="305" class="cls-1" d="M149.5,205.68l8.28,3.19"/><path id="_306" data-name="306" class="cls-1" d="M173.09,193l15.67,10.12"/><path id="_307" data-name="307" class="cls-1" d="M164.25,216.6l.91.21"/><path id="_308" data-name="308" class="cls-1" d="M164.25,216.6a.54.54,0,0,0-.46.23"/><path id="_309" data-name="309" class="cls-1" d="M173.83,193.47l-9.11,23.28"/><path id="_310" data-name="310" class="cls-1" d="M209.13,226.68a3.77,3.77,0,0,0,4-1.72,3.69,3.69,0,0,0,.54-2.13"/><path id="_311" data-name="311" class="cls-1" d="M213.7,222.83a7.34,7.34,0,0,0-1.34-3.88"/><path id="_312" data-name="312" class="cls-1" d="M209.36,226.72l3-7.77"/><path id="_313" data-name="313" class="cls-1" d="M172.12,197.84l30.56,17.44"/><path id="_314" data-name="314" class="cls-1" d="M211.6,220.37l.62-1.62"/><path id="_315" data-name="315" class="cls-1" d="M212.22,218.75a7.48,7.48,0,0,0-1.85-1.7"/><path id="_316" data-name="316" class="cls-1" d="M186.09,210.05l2.67-6.93"/><path id="_317" data-name="317" class="cls-1" d="M187.71,206.74l1.33-3.45"/><path id="_318" data-name="318" class="cls-1" d="M189,203.29l21.33,13.76"/><path id="_319" data-name="319" class="cls-1" d="M166.32,212.65l31,9.23"/><path id="_320" data-name="320" class="cls-1" d="M196.56,223.86l.9-2.32"/><path id="_321" data-name="321" class="cls-1" d="M197.46,221.54,210,225.15"/><path id="_322" data-name="322" class="cls-1" d="M197.33,212.23l1.1-2.87"/><path id="_323" data-name="323" class="cls-1" d="M211.48,221.22l-21.81-10.3"/><path id="_324" data-name="324" class="cls-1" d="M189.67,210.92l-1.51,3.92"/><path id="_325" data-name="325" class="cls-1" d="M190.57,219.87,192,216.3"/><path id="_326" data-name="326" class="cls-1" d="M192,216.3l-23.51-9.07"/><path id="_327" data-name="327" class="cls-1" d="M153.16,196.21l16.27,6.28"/><path id="_328" data-name="328" class="cls-1" d="M154.16,193.6l-6.61,17.14"/><path id="_329" data-name="329" class="cls-1" d="M154.16,193.6a23.28,23.28,0,0,1,3-5.29,29.21,29.21,0,0,1,2.27-2.7"/><path id="_330" data-name="330" class="cls-1" d="M159.39,185.61a2.84,2.84,0,0,1-.85-.69"/><path id="_331" data-name="331" class="cls-1" d="M144.22,207.36l4,1.55"/><path id="_332" data-name="332" class="cls-1" d="M151,201.8l-.87-.33"/><path id="_333" data-name="333" class="cls-1" d="M153.82,194.48l-6.4-2.47"/><path id="_334" data-name="334" class="cls-1" d="M153,193.77l-5.47-2.11"/><path id="_335" data-name="335" class="cls-1" d="M156.78,188.77l-1.73-.66"/><path id="_336" data-name="336" class="cls-1" d="M157.05,188.41l15.51,6"/><path id="_337" data-name="337" class="cls-1" d="M167.71,207l-16.28-6.28"/><path id="_339" data-name="339" class="cls-1" d="M170.18,202.78l1.77.8"/><path id="_340" data-name="340" class="cls-1" d="M170.3,206.77a1,1,0,0,0,1.87.86l.07-.11"/><path id="_341" data-name="341" class="cls-1" d="M173.15,203.5a.48.48,0,0,0-.82-.32"/><path id="_342" data-name="342" class="cls-1" d="M172.33,203.18a8,8,0,0,0-2,3.59"/><path id="_343" data-name="343" class="cls-1" d="M172.24,207.52a7.82,7.82,0,0,0,.91-4"/><path id="_344" data-name="344" class="cls-1" d="M173.16,204.13l16.26,7.44"/><path id="_345" data-name="345" class="cls-1" d="M175.53,219.13a2.52,2.52,0,0,0-.6-.94,2.37,2.37,0,0,0-3.3,0,.6.6,0,0,1-.08.08"/><path id="_346" data-name="346" class="cls-1" d="M175.1,219a2.09,2.09,0,0,0-.77-.87,2,2,0,0,0-1.14-.3,2,2,0,0,0-1.18.43l0,0"/><path id="_347" data-name="347" class="cls-1" d="M171.75,218.05l1.31-3.39"/><path id="_348" data-name="348" class="cls-1" d="M173.76,212.76l.19-.49.86.33-.19.49Z"/><path id="_349" data-name="349" class="cls-1" d="M178.38,214.36l.19-.48.86.33-.19.48Z"/><path id="_350" data-name="350" class="cls-1" d="M181.43,214.54a.75.75,0,0,0-.26,0,.76.76,0,0,0-.26,0,.86.86,0,0,0-.24.11.61.61,0,0,0-.19.17,1,1,0,0,0-.13.23,1.14,1.14,0,0,0-.06.25,1.09,1.09,0,0,0,0,.26.66.66,0,0,0,.11.24.79.79,0,0,0,.17.2.76.76,0,0,0,.23.13,1,1,0,0,0,.25.06.75.75,0,0,0,.26,0,1,1,0,0,0,.24-.1.81.81,0,0,0,.19-.18.64.64,0,0,0,.14-.22,1.09,1.09,0,0,0,.05-.26,1.15,1.15,0,0,0,0-.26,1.22,1.22,0,0,0-.1-.24,1.07,1.07,0,0,0-.18-.19A1,1,0,0,0,181.43,214.54Z"/><path id="_351" data-name="351" class="cls-1" d="M181.22,215.08a.2.2,0,0,0-.13,0,.21.21,0,0,0-.13.05.31.31,0,0,0-.09.11.38.38,0,0,0,0,.15.27.27,0,0,0,.06.12.28.28,0,0,0,.11.08.36.36,0,0,0,.14,0,.31.31,0,0,0,.13-.06.26.26,0,0,0,.07-.11.23.23,0,0,0,0-.14.21.21,0,0,0,0-.13A.24.24,0,0,0,181.22,215.08Z"/><path id="_352" data-name="352" class="cls-1" d="M189.38,208.92a.15.15,0,0,0,0-.17.67.67,0,0,0-.16-.25,1.06,1.06,0,0,0-.15-.15s-.11-.08-.17-.13l-.2-.13a1.18,1.18,0,0,1-.19-.11.58.58,0,0,1-.18-.08c-.06,0-.13,0-.19-.06a1.42,1.42,0,0,0-.2,0,.62.62,0,0,0-.27,0,.14.14,0,0,0-.12.1.16.16,0,0,0,0,.15.57.57,0,0,0,.13.21.87.87,0,0,0,.16.17,2,2,0,0,0,.16.14l.29.18.2.1.34.13.2,0a.65.65,0,0,0,.24,0s.1,0,.11-.09Z"/><path id="_353" data-name="353" class="cls-1" d="M209.63,226a3.18,3.18,0,0,0,3.17-1.31,3.12,3.12,0,0,0-.17-3.81,3.07,3.07,0,0,0-.76-.68"/><path id="_354" data-name="354" class="cls-1" d="M205.46,222.42l.42-1.07.84.33-.41,1.07Z"/><path id="_355" data-name="355" class="cls-1" d="M202.28,215.06c-.14.37-.22.94.15,1.2s.75-.28.92-.6"/><path id="_356" data-name="356" class="cls-1" d="M202.45,215.88l.36-.93.22.08-.36.93Z"/><path id="_357" data-name="357" class="cls-1" d="M202.89,215.4l8.88,5.07"/><path id="_358" data-name="358" class="cls-1" d="M183.14,207.06a.15.15,0,0,0-.13,0,.13.13,0,0,0-.1.09.17.17,0,0,0,0,.14.15.15,0,0,0,.09.1.17.17,0,0,0,.14,0,.15.15,0,0,0,.09-.1.15.15,0,0,0,0-.13A.18.18,0,0,0,183.14,207.06Z"/><path id="_359" data-name="359" class="cls-1" d="M188.89,208.53s-.06,0-.08,0a.09.09,0,0,0-.06.06.11.11,0,0,0,0,.08.12.12,0,0,0,.06.06.14.14,0,0,0,.09,0,.18.18,0,0,0,0-.07.11.11,0,0,0,0-.08A.1.1,0,0,0,188.89,208.53Z"/><path id="_360" data-name="360" class="cls-1" d="M165.07,199.46c0-.2-.17-.36-.32-.46a2.51,2.51,0,0,0-1.22-.45c-.15,0-.42,0-.43.21s.29.39.48.52a2.84,2.84,0,0,0,1,.33C164.76,199.61,165,199.63,165.07,199.46Z"/><path id="_361" data-name="361" class="cls-1" d="M164.54,199.14h-.08a.12.12,0,0,0-.06.06.14.14,0,0,0,0,.09.15.15,0,0,0,.06.05h.09a.1.1,0,0,0,0-.06.11.11,0,0,0,0-.08A.09.09,0,0,0,164.54,199.14Z"/><path id="_362" data-name="362" class="cls-1" d="M161.46,198.07c0-.21-.17-.36-.32-.47a2.58,2.58,0,0,0-1.22-.44c-.16,0-.42,0-.44.21s.34.42.57.56a2.56,2.56,0,0,0,1.08.29C161.25,198.2,161.41,198.19,161.46,198.07Z"/><path id="_363" data-name="363" class="cls-1" d="M160.93,197.75h-.08a.09.09,0,0,0-.06.06.11.11,0,0,0,0,.08.12.12,0,0,0,.06.06.11.11,0,0,0,.08,0,.12.12,0,0,0,.06-.06.14.14,0,0,0,0-.09A.15.15,0,0,0,160.93,197.75Z"/><path id="_364" data-name="364" class="cls-1" d="M153,202.38a.84.84,0,1,0,.53.68.82.82,0,0,0-.53-.68Z"/><path id="_365" data-name="365" class="cls-1" d="M152.76,202.91a.27.27,0,0,0-.36.29.27.27,0,0,0,.44.15A.26.26,0,0,0,152.76,202.91Z"/><path id="_366" data-name="366" class="cls-1" d="M157.64,195.69a.84.84,0,1,0,.36.28A1,1,0,0,0,157.64,195.69Z"/><path id="_454" data-name="454" class="cls-1" d="M142.69,204.57l3.38,1.3"/><path id="_455" data-name="455" class="cls-1" d="M155.63,170.74l4.53,1.75"/><path id="_458" data-name="458" class="cls-1" d="M144.47,211.6l1.57-3.54"/><path id="_459" data-name="459" class="cls-1" d="M146,208.06l0-2.19"/><path id="_460" data-name="460" class="cls-1" d="M146.07,205.87l4.54-12.63"/><path id="_461" data-name="461" class="cls-1" d="M144.27,212.18l-.69-.26"/><path id="_467" data-name="467" class="cls-1" d="M149.53,193.14l-1-.64-1.1-.5"/><path id="_468" data-name="468" class="cls-1" d="M150.05,194.8a2.53,2.53,0,0,0,.08-.37,1.56,1.56,0,0,0,0-.37,1.42,1.42,0,0,0-.11-.35,1.23,1.23,0,0,0-.19-.31,2.43,2.43,0,0,0-.28-.26"/><path id="_475" data-name="475" class="cls-1" d="M159.68,174.07c-.17,0-.24.21-.34.32a9.75,9.75,0,0,0-1,2.68,2.65,2.65,0,0,0-.08,1.15s0,0,0,.07"/><path id="_476" data-name="476" class="cls-1" d="M151.24,186.31l.86.33,1.57-4.07-2.27-.88"/><path id="_477" data-name="477" class="cls-1" d="M149.6,186.36l1.41.54.23-.59"/><path id="_478" data-name="478" class="cls-1" d="M151.24,186.31l0-1.68-.87-.33"/><path id="_479" data-name="479" class="cls-1" d="M151.4,181.69l-1,2.61"/><path id="_480" data-name="480" class="cls-1" d="M151.57,186.15l.38.14,1.37-3.57-1.78-.69"/><path id="_481" data-name="481" class="cls-1" d="M151.57,186.15l0-1.74-.85-.33"/><path id="_482" data-name="482" class="cls-1" d="M151,186.19l0-1.4-.72-.27"/><path id="_483" data-name="483" class="cls-1" d="M149.7,186.11l1.16.45.15-.37"/><path id="_484" data-name="484" class="cls-1" d="M151.54,182l-.79,2.05"/><path id="_485" data-name="485" class="cls-1" d="M165.8,151l1.39.12"/><path id="_486" data-name="486" class="cls-1" d="M167.19,151.1l-.79,3.12"/><path id="_487" data-name="487" class="cls-1" d="M166.4,154.22,183,155.7"/><path id="_488" data-name="488" class="cls-1" d="M183,155.7l1.72-4.46"/><path id="_489" data-name="489" class="cls-1" d="M184.72,151.24l.35.13"/><path id="_490" data-name="490" class="cls-1" d="M183,155.7l.46.18"/><path id="_491" data-name="491" class="cls-1" d="M169.38,135.1l.16.06"/><path id="_492" data-name="492" class="cls-1" d="M169.54,134.67l.11.05"/><path id="_493" data-name="493" class="cls-1" d="M165.53,155a1.31,1.31,0,0,1-.28-.65,3,3,0,0,1,.06-1.08"/><path id="_494" data-name="494" class="cls-1" d="M165.31,153.25l.49-2.27"/><path id="_495" data-name="495" class="cls-1" d="M165.53,155v-.1l0,0,0,0,0,0,0,0v0l0,0,0,0,0,0,0,0,0,0,0,0,0,0,0,0,0,0,0,0,0,0,0,0,0,0,0,0h0l0,0h.29"/><path id="_496" data-name="496" class="cls-1" d="M166.74,151.07l2-6.49"/><path id="_497" data-name="497" class="cls-1" d="M166,151l2.1-6.66"/><path id="_498" data-name="498" class="cls-1" d="M168.13,144.34,184,150.68"/><path id="_499" data-name="499" class="cls-1" d="M184,150.68l.63-1.65"/><path id="_500" data-name="500" class="cls-1" d="M184.6,149l1-3.06"/><path id="_501" data-name="501" class="cls-1" d="M168.26,144.39a20.05,20.05,0,0,0,1-4.47c.18-1.58.24-3.17.3-4.76"/><path id="_502" data-name="502" class="cls-1" d="M169.48,135.14l.17-.42"/><path id="_503" data-name="503" class="cls-1" d="M169.54,135.16l1.84,2"/><path id="_504" data-name="504" class="cls-1" d="M171.38,137.17l-2.84,7.34"/><path id="_505" data-name="505" class="cls-1" d="M168.73,144.58l2.81-7.28"/><path id="_506" data-name="506" class="cls-1" d="M171.54,137.3c5.16,2,9.66,5.32,14,8.67"/><path id="_507" data-name="507" class="cls-1" d="M184,150.68l.19.07"/><path id="_508" data-name="508" class="cls-1" d="M184.16,150.75l.66-1.71"/><path id="_509" data-name="509" class="cls-1" d="M184.82,149l.84-2.66"/><path id="_510" data-name="510" class="cls-1" d="M185.63,150l0-3.65"/><path id="_511" data-name="511" class="cls-1" d="M186.34,149.67l1.65-4.28"/><path id="_512" data-name="512" class="cls-1" d="M183.31,157.54c.12,0,.2-.15.29-.22a14.21,14.21,0,0,0,1.69-3.29,61.48,61.48,0,0,0,2.23-6.5c.18-.71.35-1.42.47-2.14"/><path id="_513" data-name="513" class="cls-1" d="M183.31,157.54c-.12-.1,0-.31-.07-.45a16.1,16.1,0,0,1,1-3.72,52.54,52.54,0,0,1,3.14-7c.18-.32.37-.64.56-1"/><path id="_514" data-name="514" class="cls-1" d="M184.83,149l.81.31"/><path id="_515" data-name="515" class="cls-1" d="M183.78,157.09l2.75-7.13"/><path id="_516" data-name="516" class="cls-1" d="M186.27,149.86l.26.1"/><path id="_517" data-name="517" class="cls-1" d="M186.19,151.7l.34-1.74"/><path id="_518" data-name="518" class="cls-1" d="M186.53,150s0,0,0-.05a.09.09,0,0,0,0,0,.11.11,0,0,0,0-.05l0-.06s0,0-.06-.06l-.05,0h0"/><path id="_519" data-name="519" class="cls-1" d="M183.27,156.89l2.75-7.13"/><path id="_520" data-name="520" class="cls-1" d="M186.27,149.86l-.25-.1"/><path id="_521" data-name="521" class="cls-1" d="M185.11,151.28l.91-1.52"/><path id="_522" data-name="522" class="cls-1" d="M186,149.76v0s0,0,.05,0l0,0h.1s.05,0,.08,0l0,0"/><path id="_523" data-name="523" class="cls-1" d="M167.15,149.74l16.77,3.58"/><path id="_524" data-name="524" class="cls-1" d="M171,138.73l3.64,1.41.47-1.22"/><path id="_525" data-name="525" class="cls-1" d="M175.35,146.16l-.14-.06.22-.56.43.17-.21.56-.11,0"/><path id="_526" data-name="526" class="cls-1" d="M175,147.08l.39-.92"/><path id="_527" data-name="527" class="cls-1" d="M175.25,147.19l.29-1"/><path id="_528" data-name="528" class="cls-1" d="M176.26,146h-.12L176,146l-.08.1v.13l.06.12.09.07.13,0,.12-.05.08-.11v-.13l0-.11Z"/><path id="_529" data-name="529" class="cls-1" d="M172.3,144.3h-.14l-.14.06-.09.11v.15l.06.13.11.09h.15l.14-.05.09-.12v-.14l-.06-.14Z"/><path id="_573" data-name="573" class="cls-1" d="M161.11,226.7l-.2-.07.1-.26.22.09"/><path id="_574" data-name="574" class="cls-1" d="M162.92,222.07l-.22-.08.09-.25.21.09"/><path id="_575" data-name="575" class="cls-1" d="M158.14,217.08l1.22.47"/><path id="_576" data-name="576" class="cls-1" d="M153.77,213.9s-.12.33-.16.5a4.34,4.34,0,0,0-.08.52c0,.17,0,.52,0,.52"/><path id="_577" data-name="577" class="cls-1" d="M154.1,214.07s-.11.32-.15.49-.06.49-.06.49"/><path id="_578" data-name="578" class="cls-1" d="M154.1,214.07a.44.44,0,0,0,0-.15.24.24,0,0,0-.1-.1.23.23,0,0,0-.14,0s-.11.09-.11.09"/><path id="_579" data-name="579" class="cls-1" d="M150.69,222.69l.2.07.1-.25-.22-.09"/><path id="_580" data-name="580" class="cls-1" d="M152.46,218l.22.08.1-.24-.21-.08"/><path id="_581" data-name="581" class="cls-1" d="M205.93,222.35l.21-.56.19.07-.22.56Z"/><path id="_582" data-name="582" class="cls-1" d="M155.89,185.21l-.52-.2.36-.92.51.19"/><path id="_583" data-name="583" class="cls-1" d="M156.19,184.51a1.32,1.32,0,0,0,0-.92c-.1-.2-.38-.14-.5,0a2.17,2.17,0,0,0-.57,1.49c0,.21.1.54.37.5a1.19,1.19,0,0,0,.61-.71"/><path id="_592" data-name="592" class="cls-1" d="M160.43,185l-2.1-.1"/><path id="_593" data-name="593" class="cls-1" d="M160.44,184.77l-2.09-.1"/><path id="_594" data-name="594" class="cls-1" d="M160.43,185h0v0h0v0h0v0h0v0h0v0h0v0h-.07v0h0v0h0v0h0v0h0v0h0v0h0Z"/><path id="_595" data-name="595" class="cls-1" d="M158.33,185l-2.63-.12"/><path id="_596" data-name="596" class="cls-1" d="M158.35,184.61l-2.63-.13"/><path id="_597" data-name="597" class="cls-1" d="M158.35,184.67h0v0h0v0h0v0h0v0h0v0h0v0h0"/><path id="_598" data-name="598" class="cls-1" d="M158.4,184.67h0v0h-.07v0h0v0h0v.06h0v0h0v0h0v0h0v0h0v0h.09v0h0"/><path id="_599" data-name="599" class="cls-1" d="M158.29,184.61a5.35,5.35,0,0,1-.91-3.34"/><path id="_600" data-name="600" class="cls-1" d="M155.72,184.48h-.06v0h0v.14h0v.06h0v0h0"/><path id="_601" data-name="601" class="cls-1" d="M156.29,184.51l.25-.75.26-.75.25-.74.25-.75.25-.75.24-.75.24-.74.25-.75.24-.75.24-.75.23-.76.24-.75.23-.75.24-.75.23-.76.23-.75"/><path id="_612" data-name="612" class="cls-1" d="M163.18,151.17l2.38.92"/><path id="_613" data-name="613" class="cls-1" d="M165.94,144l2.05.79"/><path id="_617" data-name="617" class="cls-1" d="M154,215.24l-.8,2.07"/><path id="_618" data-name="618" class="cls-1" d="M155.15,215.67l-.8,2.08"/><path id="_619" data-name="619" class="cls-1" d="M156.84,216.33l-.8,2.07"/><path id="_620" data-name="620" class="cls-1" d="M160.83,217.86l-.8,2.08"/><path id="_621" data-name="621" class="cls-1" d="M162.51,218.51l-.8,2.08"/><path id="_622" data-name="622" class="cls-1" d="M163.64,219l-.8,2.07"/><path id="_683" data-name="683" class="cls-1" d="M137.17,218.57a.31.31,0,0,0,.11,0,.18.18,0,0,0,.1,0,.2.2,0,0,0,.07-.09.2.2,0,0,0,0-.11.3.3,0,0,0,0-.1l-.09-.07"/><path id="_684" data-name="684" class="cls-1" d="M137.33,218.17l47.2-63.81"/><path id="_809" data-name="809" class="cls-1" d="M129.59,230.83l.55.21"/><path id="_810" data-name="810" class="cls-1" d="M130.14,231l.3-.79"/><path id="_811" data-name="811" class="cls-1" d="M129.59,230.83l.83-2.15"/><path id="_814" data-name="814" class="cls-1" d="M130,231l-.23.61-.24-.09.24-.61"/><path id="_876" data-name="876" class="cls-1" d="M166,216.7l4.12.93"/><path id="_877" data-name="877" class="cls-1" d="M166,216.7a1.34,1.34,0,0,0-.86.11"/><path id="_878" data-name="878" class="cls-1" d="M171,218.11a2,2,0,0,0-.77-.47h-.05"/><path id="_879" data-name="879" class="cls-1" d="M171,218.11l38.17,8.57"/><path id="_940" data-name="940" class="cls-1" d="M139.11,220.22l1.16-.45"/><path id="_941" data-name="941" class="cls-1" d="M139.29,219.74l1.06-.06"/><path id="_942" data-name="942" class="cls-1" d="M139.46,219.3l1,.27"/><path id="_968" data-name="968" class="cls-1" d="M151.62,229.21a62.64,62.64,0,0,1-8.3-3.56c-.14-.05-.17-.26,0-.19a42.32,42.32,0,0,1,6,1.5,6.77,6.77,0,0,1,1.85,1.18,4.46,4.46,0,0,0,.63.28"/><path id="_969" data-name="969" class="cls-1" d="M151.59,229.2h.12l0,0h0l0,0h0l0,0,0,0v0l0,0V229l0,0v-.4h0v0h0l0,0h0v0h0"/><path id="_970" data-name="970" class="cls-1" d="M151.55,228.32v-.12l0-.13,0-.12v-.12"/><path id="_971" data-name="971" class="cls-1" d="M156.06,230.93h0l0,0h0v-.26l0,0v0l0,0v-.05l0,0v0l0,0h0l0,0,0,0,0,0,0,0,0,0v0h0l0,0h.15"/><path id="_972" data-name="972" class="cls-1" d="M156.69,230.31l.07-.1.08-.11.07-.09.07-.1"/><path id="_973" data-name="973" class="cls-1" d="M157,230.57c0,.13.06.25.15.33a1.84,1.84,0,0,0,.38.31l.37.22c.16.1.34.17.51.27s.45.21.69.3.53.21.79.32c.11,0,.21.08.32.1"/><path id="_975" data-name="975" class="cls-1" d="M139.94,221.67l1.06.41"/><path id="_976" data-name="976" class="cls-1" d="M156,230.92a65.62,65.62,0,0,0,8.5,2.93c.13.06.36-.06.16-.14a49.69,49.69,0,0,0-5.12-2.79,5.94,5.94,0,0,0-2.42-.48,3.77,3.77,0,0,1-.72-.23"/><path id="_1114" data-name="1114" class="cls-1" d="M151.09,169a403.32,403.32,0,0,0-16.89,41.63c-1.87,6.17-3.67,12.5-3.79,19,.11,1.22-.12,3.46,1.55,3.63,1.41-.12,2.52-1.73,3.23-2.43,4.15-5,7.14-11,9.87-16.93,4.11-9.5,7.73-19.23,11.1-29"/><path id="_1115" data-name="1115" class="cls-1" d="M151.09,169l7.84-16.73"/><path id="_1116" data-name="1116" class="cls-1" d="M135.6,222.29l1.24-3.2"/><path id="_1117" data-name="1117" class="cls-1" d="M135.69,222.41l-1.51-2"/><path id="_1118" data-name="1118" class="cls-1" d="M134.18,220.43l1-2.66"/><path id="_1119" data-name="1119" class="cls-1" d="M133,219.39a3.12,3.12,0,0,0,.14,1.55,3.45,3.45,0,0,0,1.07,1.27,2.06,2.06,0,0,1,.62.92c.08.22.11.54.38.62s.53-.27.81-.36a3.87,3.87,0,0,1,1.44-.15,2.74,2.74,0,0,0,1.13-.25,2.79,2.79,0,0,0,.75-.62c.11-.14.22-.27.32-.41"/><path id="_1120" data-name="1120" class="cls-2" d="M134.18,220.43l-.12-3.57"/><path id="_1121" data-name="1121" class="cls-1" d="M137,219l-1.65-1.34"/><path id="_1122" data-name="1122" class="cls-1" d="M136.84,219.09l-1.64-1.32"/><path id="_1123" data-name="1123" class="cls-1" d="M137.34,218.13l-1.84-.71"/><path id="_1124" data-name="1124" class="cls-1" d="M137.44,217.87l-3.58-1.38"/><path id="_1125" data-name="1125" class="cls-2" d="M134.1,216.59l3-7.83"/><path id="_1126" data-name="1126" class="cls-1" d="M133,219.39l.09-3"/><path id="_1127" data-name="1127" class="cls-1" d="M133.12,216.36l3.34-7.86"/><path id="_1128" data-name="1128" class="cls-1" d="M134.16,219.73l1-2.47"/><path id="_1129" data-name="1129" class="cls-1" d="M135.11,217.26l-1.34-.51"/><path id="_1130" data-name="1130" class="cls-1" d="M135.5,217.42c-.15,0-.27.14-.14.24"/><path id="_1131" data-name="1131" class="cls-1" d="M137.54,217.62l-2.24-.86"/><path id="_1132" data-name="1132" class="cls-1" d="M137.6,217.46l-2-.76"/><path id="_1133" data-name="1133" class="cls-1" d="M140.33,210.24,137,209"/><path id="_1134" data-name="1134" class="cls-1" d="M140.41,210l-3.29-1.27"/><path id="_1135" data-name="1135" class="cls-1" d="M140.24,210.46l-1.84-.71"/><path id="_1136" data-name="1136" class="cls-1" d="M135.3,216.76l1.36-3.52"/><path id="_1137" data-name="1137" class="cls-1" d="M135.22,216.51l2-5.07"/><path id="_1138" data-name="1138" class="cls-1" d="M135.64,216.7l1.2-3.11"/><path id="_1139" data-name="1139" class="cls-1" d="M138.8,214.35l-2-.76"/><path id="_1140" data-name="1140" class="cls-1" d="M138.89,214.11l-2.23-.87"/><path id="_1141" data-name="1141" class="cls-1" d="M139,213.87l-1.9-.73"/><path id="_1142" data-name="1142" class="cls-1" d="M137,212.88l1.16-3"/><path id="_1143" data-name="1143" class="cls-1" d="M137.71,209.49l-.76-.3"/><path id="_1144" data-name="1144" class="cls-1" d="M136.16,214.06l-.95-.36"/><path id="_1145" data-name="1145" class="cls-1" d="M136.22,213.91l-.95-.37"/><path id="_1146" data-name="1146" class="cls-1" d="M137.06,211.17l-.76-.29"/><path id="_1147" data-name="1147" class="cls-1" d="M137.16,210.92l-.76-.29"/><path id="_1148" data-name="1148" class="cls-1" d="M137.42,210.8l.41-1.05"/><path id="_1149" data-name="1149" class="cls-1" d="M137.18,211.44a.22.22,0,0,0-.12-.27"/><path id="_1150" data-name="1150" class="cls-1" d="M137.16,210.92a.23.23,0,0,0,.26-.12"/><path id="_1151" data-name="1151" class="cls-1" d="M137.83,209.75a.21.21,0,0,0-.12-.26"/><path id="_1152" data-name="1152" class="cls-1" d="M137,212.88a.2.2,0,0,0,.11.26"/><path id="_1153" data-name="1153" class="cls-1" d="M138.4,209.75h-.16l-.1.11"/><path id="_1154" data-name="1154" class="cls-1" d="M135,216.62l-.76-.29"/><path id="_1155" data-name="1155" class="cls-1" d="M135,216.62a.32.32,0,0,0,.14,0,.24.24,0,0,0,.08-.06l0-.06"/><path id="_1156" data-name="1156" class="cls-1" d="M142.22,205.22a3.22,3.22,0,0,0-2.56.21A3.12,3.12,0,0,0,138,208a3.31,3.31,0,0,0,.05.83"/><path id="_1157" data-name="1157" class="cls-1" d="M137.12,208.76l2.34.11"/><path id="_1158" data-name="1158" class="cls-1" d="M139.46,208.87a2.15,2.15,0,0,0,.75-.13,1.76,1.76,0,0,0,.92-.86l.09-.18"/><path id="_1159" data-name="1159" class="cls-1" d="M141.22,207.7l.13-.34"/><path id="_1160" data-name="1160" class="cls-1" d="M141.53,207.29h-.11l-.07.07"/><path id="_1161" data-name="1161" class="cls-1" d="M138.34,207l2.69,1"/><path id="_1162" data-name="1162" class="cls-1" d="M142.18,205.32a3,3,0,0,0-1.92,0,3,3,0,0,0-2.1,3.55"/><path id="_1163" data-name="1163" class="cls-1" d="M139.72,205.51l1.34,2.31"/><path id="_1164" data-name="1164" class="cls-1" d="M139.53,208.88l1.33-.59"/><path id="_1165" data-name="1165" class="cls-1" d="M140.87,208l-1.92.85"/><path id="_1166" data-name="1166" class="cls-1" d="M141.15,207.86l-2.72-1.05"/><path id="_1167" data-name="1167" class="cls-1" d="M141.24,207.65,140,205.4"/><path id="_1168" data-name="1168" class="cls-1" d="M140,211.26l-.05,0"/><path id="_1169" data-name="1169" class="cls-1" d="M140.77,209.24l-.05,0"/><path id="_1170" data-name="1170" class="cls-1" d="M139.94,211.24l.78-2"/><path id="_1171" data-name="1171" class="cls-1" d="M141.22,207.69l-.75,2,.07,0"/><path id="_1172" data-name="1172" class="cls-1" d="M143.48,202.21l-.13-.05.15-.4.14.06"/><path id="_1173" data-name="1173" class="cls-1" d="M142.84,203.89l-.14,0,.15-.4.14.05"/><path id="_1174" data-name="1174" class="cls-1" d="M142.75,203.86l-.6,1.53"/><path id="_1175" data-name="1175" class="cls-1" d="M144.3,200.09l-.09,0-.66,1.72"/><path id="_1176" data-name="1176" class="cls-1" d="M143.39,202.18l-.49,1.28"/><path id="_1177" data-name="1177" class="cls-1" d="M141.75,205.2l-.77,2"/><path id="_1178" data-name="1178" class="cls-1" d="M141.13,207.47l.86-2.21"/><path id="_1179" data-name="1179" class="cls-1" d="M141.23,207.64l.88-2.26.13.05"/><path id="_1180" data-name="1180" class="cls-1" d="M133.94,216.81c-.12.17-.3.41-.53.28s-.21-.48-.16-.72a1.22,1.22,0,0,1,.49-.85c.19-.15.37,0,.4.23a1.2,1.2,0,0,1-.07.81"/><path id="_1181" data-name="1181" class="cls-1" d="M133.86,216.49h-.09a.14.14,0,0,0-.09.14.08.08,0,0,0,0,.07l.06.05"/><path id="_1182" data-name="1182" class="cls-1" d="M134.08,217.68l-1-.38"/><path id="_1183" data-name="1183" class="cls-1" d="M134.51,215.53l-.89-.35"/><path id="_1184" data-name="1184" class="cls-1" d="M132.12,231.68l-1.62-.62"/><path id="_1185" data-name="1185" class="cls-1" d="M134.05,226.66l-3.35-1.29"/><path id="_1186" data-name="1186" class="cls-1" d="M116,219.55a10.27,10.27,0,0,0,3.44-2.69l0,0"/><path id="_1187" data-name="1187" class="cls-1" d="M121.55,216a2.63,2.63,0,0,0,1.21-.86,17,17,0,0,0,2.72-5.21c.32-.88.63-1.76.94-2.64"/><path id="_1188" data-name="1188" class="cls-1" d="M126.42,207.29l.86-2.37"/><path id="_1189" data-name="1189" class="cls-1" d="M127.11,204.85l.69-1.74"/><path id="_1190" data-name="1190" class="cls-1" d="M115.74,219.46l.24.09-.21.55-.24-.1"/><path id="_1191" data-name="1191" class="cls-1" d="M115.49,219.37a10.56,10.56,0,0,1-.73-4.16V215"/><path id="_1192" data-name="1192" class="cls-1" d="M115.74,219.46l-.25-.09-.21.54.25.09"/><path id="_1193" data-name="1193" class="cls-1" d="M120.26,215.74l-5.38-2.07"/><path id="_1194" data-name="1194" class="cls-1" d="M118.9,217.45l-4.14-1.59"/><path id="_1195" data-name="1195" class="cls-1" d="M120,216.14l-5.15-2"/><path id="_1196" data-name="1196" class="cls-1" d="M121.55,216l-3.9-1.5"/><path id="_1197" data-name="1197" class="cls-1" d="M122.05,215.77l-4.25-1.65"/><path id="_1198" data-name="1198" class="cls-1" d="M124.19,213,119,211"/><path id="_1199" data-name="1199" class="cls-1" d="M126.42,207.29l-5.21-2"/><path id="_1200" data-name="1200" class="cls-1" d="M119.4,211.13l2.2-5.69"/><path id="_1201" data-name="1201" class="cls-1" d="M127.28,204.92l-4.3-1.66"/><path id="_1202" data-name="1202" class="cls-1" d="M121.81,205.52l1.13-2.92"/><path id="_1203" data-name="1203" class="cls-1" d="M126.51,207l-4.59-1.77"/><path id="_1204" data-name="1204" class="cls-1" d="M122.94,202.6l.15-.45.13-.47.11-.46.08-.43.15-.81,0-.23,0-.27,0-.31V199l0-.07,0,0"/><path id="_1205" data-name="1205" class="cls-1" d="M122.26,204.36l.32-.15"/><path id="_1206" data-name="1206" class="cls-1" d="M122.58,204.21l.58-1.37.25-.69.19-.71.15-.72.12-.72.11-.73v-.4l0-.21,0-.08-.07-.06"/><path id="_1207" data-name="1207" class="cls-1" d="M121.85,215.41l-2-.76"/><path id="_1208" data-name="1208" class="cls-1" d="M123.49,213.1l-2-.79"/><path id="_1209" data-name="1209" class="cls-1" d="M122,215.38a7.64,7.64,0,0,0,1.55-2.06"/><path id="_1210" data-name="1210" class="cls-1" d="M119.81,214.4l1.44-2"/><path id="_1211" data-name="1211" class="cls-1" d="M121.85,215.41l.17,0"/><path id="_1212" data-name="1212" class="cls-1" d="M123.57,213.32v-.13l-.09-.09"/><path id="_1213" data-name="1213" class="cls-1" d="M119.81,214.4l0,.14.09.11"/><path id="_1214" data-name="1214" class="cls-1" d="M121.44,212.31h-.1l-.09.06"/><path id="_1215" data-name="1215" class="cls-1" d="M120.26,215.74l.08-.21"/><path id="_1216" data-name="1216" class="cls-1" d="M127.34,204.26l-4.23-1.33"/><path id="_1217" data-name="1217" class="cls-1" d="M125.63,203.72l1.92-6.07"/><path id="_1218" data-name="1218" class="cls-1" d="M126.93,202.78l.43-1.39.42-1.34.19-.7.19-.71.18-.74.16-.77.12-.79,0-.82v-.41l0-.42-.06-.43-.07-.42-.11-.43-.14-.41-.19-.39-.21-.35-.25-.33-.3-.27-.35-.22-.36-.17"/><path id="_1219" data-name="1219" class="cls-1" d="M128.33,198l-3.74-1.44"/><path id="_1220" data-name="1220" class="cls-1" d="M125.72,203.47l-.72-.28.07-.18.7.27"/><path id="_1221" data-name="1221" class="cls-1" d="M126.58,200.73l-.73-.28.07-.17.71.27"/><path id="_1222" data-name="1222" class="cls-1" d="M127.39,198.13l-.71-.28.06-.17.71.27"/><path id="_1223" data-name="1223" class="cls-1" d="M126.9,194.91l.34-.89-1.25-.48-.34.89Z"/><path id="_1224" data-name="1224" class="cls-1" d="M113.77,213a2.76,2.76,0,0,1-.33-1.61,18.62,18.62,0,0,1,1.65-5.91c.3-.74.61-1.47.92-2.2"/><path id="_1225" data-name="1225" class="cls-1" d="M116,203.28l.95-2.34"/><path id="_1226" data-name="1226" class="cls-1" d="M117.14,201l.85-2.28"/><path id="_1227" data-name="1227" class="cls-1" d="M113.77,213l3.88,1.5"/><path id="_1228" data-name="1228" class="cls-1" d="M113.54,212.48l4.26,1.64"/><path id="_1229" data-name="1229" class="cls-1" d="M113.84,209l5.17,2"/><path id="_1230" data-name="1230" class="cls-1" d="M116,203.28l5.2,2"/><path id="_1231" data-name="1231" class="cls-1" d="M118.62,210.83l2.2-5.7"/><path id="_1232" data-name="1232" class="cls-1" d="M117,200.94l4.3,1.66"/><path id="_1233" data-name="1233" class="cls-1" d="M120.61,205.05l1.12-2.91"/><path id="_1234" data-name="1234" class="cls-1" d="M116.12,203l4.6,1.77"/><path id="_1235" data-name="1235" class="cls-1" d="M121.73,202.14l.19-.44.22-.43.24-.41.22-.38.42-.71.13-.2.15-.23.17-.26.09-.12,0,0h0"/><path id="_1236" data-name="1236" class="cls-1" d="M121.06,203.89l-.15-.32"/><path id="_1237" data-name="1237" class="cls-1" d="M120.91,203.57l.5-1.4.28-.68.34-.65.37-.64.39-.62.42-.61.27-.29.16-.14.09,0h.09"/><path id="_1238" data-name="1238" class="cls-1" d="M113.93,212.35l2,.76"/><path id="_1239" data-name="1239" class="cls-1" d="M114.28,209.55l2,.79"/><path id="_1240" data-name="1240" class="cls-1" d="M113.84,212.22a7.13,7.13,0,0,1,.23-2.56"/><path id="_1241" data-name="1241" class="cls-1" d="M116.12,213l.31-2.47"/><path id="_1242" data-name="1242" class="cls-1" d="M113.84,212.22l.09.13"/><path id="_1243" data-name="1243" class="cls-1" d="M114.28,209.55h-.13l-.08.11"/><path id="_1244" data-name="1244" class="cls-1" d="M115.9,213.11l.14,0,.08-.11"/><path id="_1245" data-name="1245" class="cls-1" d="M116.43,210.51l0-.11-.08-.06"/><path id="_1246" data-name="1246" class="cls-1" d="M114.88,213.67l.08-.21"/><path id="_1247" data-name="1247" class="cls-1" d="M117.36,200.41l4,1.85"/><path id="_1248" data-name="1248" class="cls-1" d="M119,201.16l2.67-5.79"/><path id="_1249" data-name="1249" class="cls-1" d="M120.86,195.07l3.73,1.44"/><path id="_1250" data-name="1250" class="cls-1" d="M119.1,200.91l.71.28.07-.18-.7-.28"/><path id="_1251" data-name="1251" class="cls-1" d="M120.3,198.31l.72.28.07-.18-.72-.27"/><path id="_1252" data-name="1252" class="cls-1" d="M121.44,195.83l.72.28.06-.17-.7-.28"/><path id="_1253" data-name="1253" class="cls-1" d="M124,193.78l.34-.89,1.25.49-.34.88Z"/><path id="_1254" data-name="1254" class="cls-1" d="M126.18,195.21l-.25-.05-.27.06-.21.14-.14.23,0,.25,0,.26.16.22.22.14.26,0,.25-.05.22-.16.14-.22,0-.26-.06-.25-.14-.22Z"/><path id="_1255" data-name="1255" class="cls-1" d="M125.8,196.19h-.08l0,.06v.08l0,0h.08l.06-.06v-.08Z"/><path id="_1256" data-name="1256" class="cls-1" d="M125.67,195.34h-.09l0,.05v.09l.06,0h.08l.06-.06v-.07Z"/><path id="_1257" data-name="1257" class="cls-1" d="M126.47,195.65h-.08l0,.05v.09l.07,0h.07l.06-.06v-.08Z"/><path id="_1258" data-name="1258" class="cls-1" d="M133.9,177l.8-6.11"/><path id="_1259" data-name="1259" class="cls-1" d="M130.53,176.2l3.77-5.44"/><path id="_1260" data-name="1260" class="cls-1" d="M134.7,170.92l0-.11-.06-.1-.12,0-.12,0-.08.07"/><path id="_1261" data-name="1261" class="cls-1" d="M133.23,176.87l-2.5-1"/><path id="_1262" data-name="1262" class="cls-1" d="M117.05,199.74l-.15.5-.08.51v.52"/><path id="_1263" data-name="1263" class="cls-1" d="M117.39,199.91l-.15.48-.06.5"/><path id="_1264" data-name="1264" class="cls-1" d="M117.39,199.91l0-.15-.11-.1-.14,0-.11.1"/><path id="_1265" data-name="1265" class="cls-1" d="M135.71,206.17l-8.78-3.39"/><path id="_1266" data-name="1266" class="cls-1" d="M126.93,202.78l-.19,0h-.21l-.2.07-.15.12"/><path id="_1267" data-name="1267" class="cls-1" d="M127.74,175.51l15.11,3.72"/><path id="_1268" data-name="1268" class="cls-1" d="M141.36,188.66l-16.27-6.28"/><path id="_1269" data-name="1269" class="cls-1" d="M127.74,175.51l-8.42,21.82"/><path id="_1270" data-name="1270" class="cls-1" d="M119.32,197.33l-.5-.2"/><path id="_1271" data-name="1271" class="cls-1" d="M118.82,197.13l-.64,1.66"/><path id="_1272" data-name="1272" class="cls-1" d="M136.7,200.74l-8.27-3.19"/><path id="_1273" data-name="1273" class="cls-1" d="M127.74,175.51l-18.41-3"/><path id="_1274" data-name="1274" class="cls-1" d="M118.44,198.93l-.82-.46"/><path id="_1275" data-name="1275" class="cls-1" d="M118.44,198.93l.09.09.06.11,0,.14v.14"/><path id="_1276" data-name="1276" class="cls-1" d="M126.87,175.36,118,198.72"/><path id="_1277" data-name="1277" class="cls-1" d="M77.61,170.33a3.73,3.73,0,0,0-.79,4.12,3.65,3.65,0,0,0,1.6,1.8"/><path id="_1278" data-name="1278" class="cls-1" d="M81.21,168.36a7.32,7.32,0,0,0-3.6,2"/><path id="_1279" data-name="1279" class="cls-1" d="M78.21,176.13l3-7.77"/><path id="_1280" data-name="1280" class="cls-1" d="M125.2,179.74l-34.35-7.6"/><path id="_1281" data-name="1281" class="cls-1" d="M80.83,169.92l.62-1.62"/><path id="_1282" data-name="1282" class="cls-1" d="M84,168.29a7.35,7.35,0,0,0-2.52,0"/><path id="_1283" data-name="1283" class="cls-1" d="M106.66,179.4l2.67-6.93"/><path id="_1284" data-name="1284" class="cls-1" d="M107.68,175.86l1.33-3.45"/><path id="_1285" data-name="1285" class="cls-1" d="M109,172.41l-25-4.12"/><path id="_1286" data-name="1286" class="cls-1" d="M119.55,194.61l-29.17-14"/><path id="_1287" data-name="1287" class="cls-1" d="M89.62,182.6l.89-2.32"/><path id="_1288" data-name="1288" class="cls-1" d="M90.51,180.28l-11.69-5.73"/><path id="_1289" data-name="1289" class="cls-1" d="M96.87,173.47,98,170.6"/><path id="_1290" data-name="1290" class="cls-1" d="M80.34,170.62l23.08,7"/><path id="_1291" data-name="1291" class="cls-1" d="M103.42,177.64l-1.51,3.93"/><path id="_1292" data-name="1292" class="cls-1" d="M96.74,183.67l1.38-3.57"/><path id="_1293" data-name="1293" class="cls-1" d="M98.12,180.1l23.5,9.07"/><path id="_1294" data-name="1294" class="cls-1" d="M140.35,191.27,124.08,185"/><path id="_1295" data-name="1295" class="cls-1" d="M141.36,188.66l-6.61,17.13"/><path id="_1296" data-name="1296" class="cls-1" d="M141.36,188.66l.39-1.13.33-1.15.27-1.17.21-1.19.15-1.19.1-1.2,0-1.2v-1.2"/><path id="_1297" data-name="1297" class="cls-1" d="M142.85,179.23a2.72,2.72,0,0,0,1.17.05,5,5,0,0,0,1.59-.53,6,6,0,0,0,1.27-1,5,5,0,0,0,.37-.42"/><path id="_1298" data-name="1298" class="cls-1" d="M139.48,205.53l-4-1.56"/><path id="_1299" data-name="1299" class="cls-1" d="M138.19,196.86l.87.34"/><path id="_1300" data-name="1300" class="cls-1" d="M141,189.54l6.4,2.47"/><path id="_1301" data-name="1301" class="cls-1" d="M142.09,189.56l5.46,2.1"/><path id="_1302" data-name="1302" class="cls-1" d="M142.66,183.32l1.73.67"/><path id="_1303" data-name="1303" class="cls-1" d="M142.7,182.87l-15.49-6"/><path id="_1304" data-name="1304" class="cls-1" d="M122.36,189.46l16.27,6.27"/><path id="_1305" data-name="1305" class="cls-1" d="M118.66,199.59l.6-1.32.61-1.27.31-.65.34-.66.36-.67.41-.67.44-.67.51-.64.28-.31.3-.29.33-.28.34-.26.36-.24.39-.21.39-.17.4-.12.41-.07h.4l.4.07.37.11"/><path id="_1306" data-name="1306" class="cls-1" d="M123.32,184.7l-1.85-.59"/><path id="_1307" data-name="1307" class="cls-1" d="M118.61,186.83a1,1,0,0,0,2,.75"/><path id="_1308" data-name="1308" class="cls-1" d="M121.46,183.55a.48.48,0,0,0-.82-.31"/><path id="_1309" data-name="1309" class="cls-1" d="M120.56,187.58a7.92,7.92,0,0,0,.9-4"/><path id="_1310" data-name="1310" class="cls-1" d="M120.64,183.24a8,8,0,0,0-2,3.59"/><path id="_1311" data-name="1311" class="cls-1" d="M120.21,183.7l-17-5.4"/><path id="_1314" data-name="1314" class="cls-1" d="M111.85,195.1l1.36-3.53"/><path id="_1315" data-name="1315" class="cls-1" d="M114,189.7c0-.16.24-.42.12-.52l-.81-.31c0,.16-.24.41-.12.51Z"/><path id="_1316" data-name="1316" class="cls-1" d="M109.48,187.78l.19-.48-.87-.34-.19.48Z"/><path id="_1317" data-name="1317" class="cls-1" d="M107.09,185.86a.94.94,0,0,0-.51,0,.87.87,0,0,0-.43.28.7.7,0,0,0-.13.24.94.94,0,0,0-.06.24,1.09,1.09,0,0,0,0,.26.87.87,0,0,0,.1.24.7.7,0,0,0,.18.2.61.61,0,0,0,.22.13.76.76,0,0,0,.26.06l.26,0a1.28,1.28,0,0,0,.24-.11.81.81,0,0,0,.19-.18.8.8,0,0,0,.13-.22.75.75,0,0,0,.05-.26.71.71,0,0,0,0-.25.66.66,0,0,0-.11-.24.65.65,0,0,0-.17-.2,1.71,1.71,0,0,0-.23-.13Z"/><path id="_1318" data-name="1318" class="cls-1" d="M106.88,186.4a.19.19,0,0,0-.13,0,.27.27,0,0,0-.12.06.2.2,0,0,0-.09.11.32.32,0,0,0,0,.14.27.27,0,0,0,.06.12.2.2,0,0,0,.1.08l.14,0a.31.31,0,0,0,.13-.06.44.44,0,0,0,.08-.11.22.22,0,0,0,0-.14.21.21,0,0,0,0-.13A.24.24,0,0,0,106.88,186.4Z"/><path id="_1319" data-name="1319" class="cls-1" d="M105,176.36s0,0,0-.06l.07-.07.11,0,.13,0,.16,0h.37l.19,0,.2.05.19.05.17.08.14.08.13.07.09.09a.47.47,0,0,1,.06.09.19.19,0,0,1,0,.08.17.17,0,0,1,0,.07l-.06.06-.09.05-.12,0-.15,0h-.35l-.2,0-.19,0-.19-.05-.18-.07-.16-.07-.14-.08a.43.43,0,0,1-.1-.09.6.6,0,0,1-.08-.08.2.2,0,0,1,0-.08s0-.06,0-.08Z"/><path id="_1320" data-name="1320" class="cls-1" d="M80.72,169.63A3.17,3.17,0,0,0,77.25,174a3.14,3.14,0,0,0,1.23,1.42"/><path id="_1321" data-name="1321" class="cls-1" d="M84,175.56l.41-1.07-.83-.32-.41,1.07Z"/><path id="_1322" data-name="1322" class="cls-1" d="M91.3,172.24a1.68,1.68,0,0,1-.46.65,1,1,0,0,1-.36.16.49.49,0,0,1-.23-.08.64.64,0,0,1-.2-.39,1.19,1.19,0,0,1,0-.42c0-.06,0-.12,0-.19"/><path id="_1323" data-name="1323" class="cls-1" d="M90.62,172.73l.35-.93-.21-.08-.36.93Z"/><path id="_1324" data-name="1324" class="cls-1" d="M90.61,172.09l-10-2.21"/><path id="_1325" data-name="1325" class="cls-1" d="M110.85,179.17a.17.17,0,0,0-.14,0,.15.15,0,0,0-.09.1.19.19,0,0,0,0,.13.24.24,0,0,0,.1.1.17.17,0,0,0,.14,0,.16.16,0,0,0,.09-.23A.18.18,0,0,0,110.85,179.17Z"/><path id="_1326" data-name="1326" class="cls-1" d="M105.6,176.39h-.07l-.07,0v.09l0,.05h.09l.06-.06v-.08Z"/><path id="_1327" data-name="1327" class="cls-1" d="M129.33,185.67l0-.06.08,0,.11,0h.3l.17,0,.18.05.2.07.18.07.17.08.16.1.14.1.11.1.07.1.05.09v.08l0,.07-.07.06-.09,0-.13,0h-.14l-.17,0-.18,0-.19-.05-.18-.07-.19-.08-.16-.09-.15-.1-.13-.1-.1-.1-.06-.09,0-.09v-.08Z"/><path id="_1328" data-name="1328" class="cls-1" d="M130,185.8h-.08l-.06.06v.08l.07.06H130l.06-.05v-.09Z"/><path id="_1329" data-name="1329" class="cls-1" d="M133,187.07l0-.07.08,0,.11,0h.3l.18,0,.18,0,.19.06.18.07.18.09.16.09.13.11.11.09.08.1,0,.09v.08l0,.07-.06.06-.1,0h-.27l-.17,0-.18,0-.19-.06-.18-.07-.19-.08-.16-.08-.15-.1-.13-.1-.09-.1-.06-.1,0-.08v-.08Z"/><path id="_1330" data-name="1330" class="cls-1" d="M133.56,187.19h-.08l-.06.06v.09l0,0h.08l.07-.06v-.09Z"/><path id="_1331" data-name="1331" class="cls-1" d="M136.35,196l-.26-.06-.26,0-.24.11-.19.17-.13.23-.06.25,0,.26.1.24.18.19.23.13.26.06.25,0,.24-.1.2-.17.13-.23,0-.25,0-.27-.1-.23-.17-.2Z"/><path id="_1332" data-name="1332" class="cls-1" d="M136.15,196.5l-.14,0-.13.06-.07.11,0,.14.06.12.12.08.13,0,.13,0,.08-.12,0-.14-.06-.12Z"/><path id="_1333" data-name="1333" class="cls-1" d="M137.38,187.87l-.26-.05-.26,0-.24.11-.19.16-.13.23-.05.25,0,.26.11.24.17.19.24.13.24.06.26,0,.24-.1.19-.18.13-.22.06-.26,0-.25-.1-.24-.18-.19Z"/><path id="_1334" data-name="1334" class="cls-1" d="M142.46,204.48l-3.35-1.29"/><path id="_1335" data-name="1335" class="cls-1" d="M155.63,170.74,151.1,169"/><path id="_1338" data-name="1338" class="cls-1" d="M136.46,208.5l1.21-3.67"/><path id="_1339" data-name="1339" class="cls-1" d="M137.67,204.83l1.44-1.64"/><path id="_1340" data-name="1340" class="cls-1" d="M139.11,203.19l5.12-12.41"/><path id="_1341" data-name="1341" class="cls-1" d="M136.21,209.07l.68.27"/><path id="_1342" data-name="1342" class="cls-1" d="M147.42,192l-1.14-.36-1.19-.21"/><path id="_1343" data-name="1343" class="cls-1" d="M145.09,191.43a2.44,2.44,0,0,0-.36,0,1.07,1.07,0,0,0-.36.1,1.32,1.32,0,0,0-.33.18,1.6,1.6,0,0,0-.25.27,2.44,2.44,0,0,0-.19.32"/><path id="_1344" data-name="1344" class="cls-1" d="M145.43,196.41a.87.87,0,0,0-.85.54.85.85,0,0,0,0,.73.88.88,0,0,0,1.54.07.91.91,0,0,0,.09-.74.85.85,0,0,0-.54-.54,1,1,0,0,0-.25-.06Z"/><path id="_1345" data-name="1345" class="cls-1" d="M150.39,170.49c.17.39-.1.86-.2,1.25a9.66,9.66,0,0,1-1.29,2.49c-.1.11-.19.28-.36.27"/><path id="_1346" data-name="1346" class="cls-1" d="M148.42,185.22l-.86-.33,1.58-4.07,2.26.87"/><path id="_1347" data-name="1347" class="cls-1" d="M149.6,186.36l-1.4-.55.22-.59"/><path id="_1348" data-name="1348" class="cls-1" d="M148.42,185.22l1.11-1.26.86.34"/><path id="_1349" data-name="1349" class="cls-1" d="M151.4,181.69l-1,2.61"/><path id="_1350" data-name="1350" class="cls-1" d="M148.29,184.88l-.38-.15,1.37-3.57,1.79.69"/><path id="_1351" data-name="1351" class="cls-1" d="M148.29,184.88l1.14-1.31.85.33"/><path id="_1352" data-name="1352" class="cls-1" d="M148.68,185.29l.92-1,.71.28"/><path id="_1353" data-name="1353" class="cls-1" d="M149.7,186.11l-1.16-.45.14-.37"/><path id="_1354" data-name="1354" class="cls-1" d="M151.07,181.85l-.79,2.05"/><path id="_1355" data-name="1355" class="cls-1" d="M161.36,149.27l-1.11-.84"/><path id="_1356" data-name="1356" class="cls-1" d="M160.25,148.43l-1.5,2.84"/><path id="_1357" data-name="1357" class="cls-1" d="M158.75,151.27l-13.3-10.05"/><path id="_1358" data-name="1358" class="cls-1" d="M145.45,141.22l1.72-4.47"/><path id="_1359" data-name="1359" class="cls-1" d="M147.17,136.75l-.35-.13"/><path id="_1360" data-name="1360" class="cls-1" d="M145.45,141.22,145,141"/><path id="_1361" data-name="1361" class="cls-1" d="M169.38,135.1l-.17-.06"/><path id="_1362" data-name="1362" class="cls-1" d="M169.54,134.67l-.11,0"/><path id="_1363" data-name="1363" class="cls-1" d="M158.88,152.41a1.81,1.81,0,0,0,1.17-.89l.15-.24"/><path id="_1364" data-name="1364" class="cls-1" d="M160.2,151.28l1.16-2"/><path id="_1365" data-name="1365" class="cls-1" d="M158.88,152.41l.05-.13,0-.16,0-.16v-.16l0-.16-.05-.15-.08-.12-.09-.1"/><path id="_1366" data-name="1366" class="cls-1" d="M160.61,148.7l2.88-6.14"/><path id="_1367" data-name="1367" class="cls-1" d="M161.18,149.13l2.91-6.35"/><path id="_1368" data-name="1368" class="cls-1" d="M164.09,142.78l-16-5.94"/><path id="_1369" data-name="1369" class="cls-1" d="M148.11,136.84l.64-1.64"/><path id="_1370" data-name="1370" class="cls-1" d="M148.75,135.2l1.34-2.91"/><path id="_1371" data-name="1371" class="cls-1" d="M164,142.73a20.09,20.09,0,0,1,2.58-4.38c.83-1.15,1.75-2.23,2.66-3.31"/><path id="_1372" data-name="1372" class="cls-1" d="M169.27,135.06l.16-.43"/><path id="_1373" data-name="1373" class="cls-1" d="M169.21,135l-2.7.26"/><path id="_1374" data-name="1374" class="cls-1" d="M166.51,135.3l-2.83,7.33"/><path id="_1375" data-name="1375" class="cls-1" d="M163.49,142.56l2.81-7.28"/><path id="_1376" data-name="1376" class="cls-1" d="M166.3,135.28c-5.17-2-10.73-2.56-16.21-3"/><path id="_1377" data-name="1377" class="cls-1" d="M148.11,136.84l-.2-.07"/><path id="_1378" data-name="1378" class="cls-1" d="M147.91,136.77l.66-1.72"/><path id="_1379" data-name="1379" class="cls-1" d="M148.57,135.05l1.18-2.53"/><path id="_1380" data-name="1380" class="cls-1" d="M147.3,135.24l2.45-2.72"/><path id="_1381" data-name="1381" class="cls-1" d="M147,134.5l1.65-4.28"/><path id="_1382" data-name="1382" class="cls-1" d="M144,142.37a.08.08,0,0,1,0,0s0,0,0-.05,0-.08,0-.11V142a2.34,2.34,0,0,1,0-.38l.06-.39.09-.38c.07-.26.14-.51.22-.77s.17-.51.26-.77c.18-.53.37-1.06.57-1.58s.41-1,.62-1.56.42-1,.64-1.51c.1-.25.21-.5.32-.74l.34-.72.33-.7c.12-.23.24-.47.37-.7s.28-.49.42-.73.15-.27.23-.41l.25-.41"/><path id="_1383" data-name="1383" class="cls-1" d="M144,142.37H144l.05,0a.27.27,0,0,0,.08-.07l.14-.15.23-.31.21-.33a3.72,3.72,0,0,0,.19-.34,8,8,0,0,0,.35-.72c.12-.24.23-.49.33-.74.22-.52.44-1,.64-1.56s.41-1,.6-1.57.36-1,.54-1.55l.25-.76.24-.75.21-.75c.07-.26.14-.51.2-.77s.13-.55.19-.82.07-.3.1-.45l.09-.48"/><path id="_1384" data-name="1384" class="cls-1" d="M148.58,135l-.8-.31"/><path id="_1385" data-name="1385" class="cls-1" d="M143.93,141.71l2.75-7.12"/><path id="_1386" data-name="1386" class="cls-1" d="M147,134.69l-.27-.1"/><path id="_1387" data-name="1387" class="cls-1" d="M145.78,136.11l.9-1.52"/><path id="_1388" data-name="1388" class="cls-1" d="M146.68,134.59l.06-.07a.19.19,0,0,1,.09,0l.1,0,.09,0"/><path id="_1389" data-name="1389" class="cls-1" d="M144.46,141.92l2.75-7.13"/><path id="_1390" data-name="1390" class="cls-1" d="M147,134.69l.26.1"/><path id="_1391" data-name="1391" class="cls-1" d="M146.85,136.52l.36-1.73"/><path id="_1392" data-name="1392" class="cls-1" d="M147.21,134.79v-.08a.19.19,0,0,0,0-.09l-.06-.08-.09,0"/><path id="_1393" data-name="1393" class="cls-1" d="M161.2,147.44l-14.83-8.61"/><path id="_1394" data-name="1394" class="cls-1" d="M165.75,136.71l-3.65-1.41.47-1.21"/><path id="_1395" data-name="1395" class="cls-1" d="M157.52,139.28l.14.05.22-.56-.44-.17-.21.56.1.05"/><path id="_1396" data-name="1396" class="cls-1" d="M157.2,140.23l.32-.95"/><path id="_1397" data-name="1397" class="cls-1" d="M156.9,140.11l.43-.9"/><path id="_1398" data-name="1398" class="cls-1" d="M157,138.52a.2.2,0,0,0-.13,0,.31.31,0,0,0-.12.05.41.41,0,0,0-.07.11.51.51,0,0,0,0,.13.37.37,0,0,0,0,.11.26.26,0,0,0,.11.07.2.2,0,0,0,.13,0,.22.22,0,0,0,.11-.05.26.26,0,0,0,.07-.11.19.19,0,0,0,0-.13.16.16,0,0,0,0-.11A.23.23,0,0,0,157,138.52Z"/><path id="_1399" data-name="1399" class="cls-1" d="M161,140a.38.38,0,0,0-.15,0,.31.31,0,0,0-.13.06.25.25,0,0,0-.08.12.25.25,0,0,0,0,.15.31.31,0,0,0,.18.21.22.22,0,0,0,.14,0,.19.19,0,0,0,.13-.05.27.27,0,0,0,.09-.12.23.23,0,0,0,0-.14.25.25,0,0,0-.06-.14A.31.31,0,0,0,161,140Z"/><path id="_1400" data-name="1400" class="cls-1" d="M114,208.52l.2.08.1-.25-.22-.09"/><path id="_1401" data-name="1401" class="cls-1" d="M115.75,203.88l.22.08.1-.24-.22-.09"/><path id="_1402" data-name="1402" class="cls-1" d="M122.64,203.38l-1.21-.46"/><path id="_1403" data-name="1403" class="cls-1" d="M127.16,205.26l.34-.39.3-.43L128,204"/><path id="_1404" data-name="1404" class="cls-1" d="M127.15,204.74l.28-.41.22-.46"/><path id="_1405" data-name="1405" class="cls-1" d="M128,204l0-.14-.12-.09h-.14l-.09.12"/><path id="_1406" data-name="1406" class="cls-1" d="M124.4,212.54l-.21-.08.1-.25.22.08"/><path id="_1407" data-name="1407" class="cls-1" d="M126.21,207.91l-.23-.09.1-.24.21.08"/><path id="_1408" data-name="1408" class="cls-1" d="M83.7,175.2l.22-.56-.19-.08-.22.56Z"/><path id="_1409" data-name="1409" class="cls-1" d="M145.71,181.28l.52.2.35-.92-.5-.2"/><path id="_1410" data-name="1410" class="cls-1" d="M146,180.56c.14-.31.59-.9.94-.55a1.62,1.62,0,0,1-.24,1.34c-.16.27-.5.77-.86.53-.27-.42,0-.92.16-1.32Z"/><path id="_1421" data-name="1421" class="cls-1" d="M163.18,151.17l-2.39-.92"/><path id="_1422" data-name="1422" class="cls-1" d="M165.94,144l-2.05-.79"/><path id="_1423" data-name="1423" class="cls-1" d="M126.93,204.79l-.81,2.07"/><path id="_1424" data-name="1424" class="cls-1" d="M125.8,204.35l-.8,2.08"/><path id="_1425" data-name="1425" class="cls-1" d="M124.11,203.7l-.8,2.07"/><path id="_1426" data-name="1426" class="cls-1" d="M120.12,202.16l-.8,2.08"/><path id="_1427" data-name="1427" class="cls-1" d="M118.44,201.51l-.8,2.08"/><path id="_1428" data-name="1428" class="cls-1" d="M117.31,201.07l-.8,2.08"/><path id="_1429" data-name="1429" class="cls-1" d="M137.33,218.17h-.11a.26.26,0,0,0-.17.14.2.2,0,0,0,0,.11.21.21,0,0,0,0,.1l.09.06"/><path id="_1430" data-name="1430" class="cls-1" d="M137.33,218.17l7.88-79"/><path id="_1431" data-name="1431" class="cls-1" d="M117.06,197.81l-3.67-2.07"/><path id="_1432" data-name="1432" class="cls-1" d="M117.62,198.47l-.13-.26-.2-.22-.23-.18"/><path id="_1433" data-name="1433" class="cls-1" d="M113.39,195.74l-.45-.17-.49,0"/><path id="_1434" data-name="1434" class="cls-1" d="M112.45,195.54l-34-19.29"/><path id="_1435" data-name="1435" class="cls-1" d="M134.63,218.5l-.56-1.12"/><path id="_1436" data-name="1436" class="cls-1" d="M134.82,218l-.75-.76"/><path id="_1437" data-name="1437" class="cls-1" d="M135,217.57l-.92-.47"/><path id="_1438" data-name="1438" class="cls-1" d="M119.32,216.75a56.52,56.52,0,0,0,5.87,2.15c.92.28,1.82.61,2.76.8.32-.1-.26-.3-.36-.4a46.18,46.18,0,0,0-4.75-2.55,6.69,6.69,0,0,0-2.38-.48,4.71,4.71,0,0,1-.73-.22"/><path id="_1439" data-name="1439" class="cls-1" d="M119.35,216.76h0l0,0v-.16l0-.06v-.07l0-.07,0-.07,0-.07,0-.05.06-.06,0,0,0,0,0,0h0l0,0"/><path id="_1440" data-name="1440" class="cls-1" d="M120,216.14l.28-.4"/><path id="_1441" data-name="1441" class="cls-1" d="M114.88,215H115l0,0,0,0,0-.05,0-.06,0-.06,0-.07,0-.08v-.29l0,0,0,0,0,0,0,0"/><path id="_1442" data-name="1442" class="cls-1" d="M114.83,214.16l0-.49"/><path id="_1443" data-name="1443" class="cls-1" d="M120.81,216.6a.4.4,0,0,0,.18.35,3.93,3.93,0,0,0,.74.52c.45.24.92.45,1.39.65.3.12.6.22.91.32"/><path id="_1444" data-name="1444" class="cls-1" d="M133,219,132,218.6"/><path id="_1445" data-name="1445" class="cls-1" d="M114.9,215.05a65.86,65.86,0,0,1-8.2-3.51c-.09,0-.32-.22-.15-.26a52,52,0,0,1,5.73,1.39,6.18,6.18,0,0,1,2.12,1.27,3.47,3.47,0,0,0,.68.31"/><path id="_1448" data-name="1448" class="cls-1" d="M130.76,224.88l1,.38"/><path id="_1449" data-name="1449" class="cls-1" d="M132.06,223.06l-.93-.36"/><path id="_1450" data-name="1450" class="cls-1" d="M131.75,225.26l.31-2.2"/><path id="_1451" data-name="1451" class="cls-1" d="M130.42,228.71l.39.15"/><path id="_1452" data-name="1452" class="cls-1" d="M130.64,231.11l.17-2.25"/><path id="path8163" class="cls-1" d="M145.72,180.78l-3.84-6.94"/><path id="path5873" class="cls-1" d="M80.62,169.89l.59-1.53"/><path id="path5875" class="cls-1" d="M108,176l1.35-3.49"/><path id="path5888" class="cls-1" d="M126.87,175.36l-1.66,4.38"/><path id="path5899" class="cls-1" d="M120.59,205.05l1.2.46"/><path id="path5939" class="cls-1" d="M168.53,144.5,184,150.68"/><path id="path5941" class="cls-1" d="M163.69,142.63l-15.58-5.79"/><path id="path5973" class="cls-1" d="M157.35,219.23l1.14.44"/><path id="path6007" class="cls-1" d="M187.42,206.59l1.34-3.47"/><path id="path6017" class="cls-1" d="M211.79,220.43l.57-1.48"/><path id="path6019" class="cls-1" d="M173.83,193.47l-1.7,4.33"/></g><path class="cls-3" d="M74.88,1c77,19,139,39,95.75,131.52"/><path class="cls-3" d="M130.88,237c-33,88-85,17-130,102"/></g></g></svg>