<svg xmlns="http://www.w3.org/2000/svg" viewBox="0 0 933.83 722.78"><defs><style>.cls-1{opacity:0.1;}.cls-2{fill:#fff;}.cls-14,.cls-3{fill:#020608;}.cls-4{fill:#e18e91;}.cls-5{fill:#f0ccda;}.cls-6{fill:#fae79f;}.cls-7{fill:#211c1d;}.cls-8{fill:#e18f83;}.cls-9{fill:#58595b;}.cls-10,.cls-16{fill:#6fbfdc;}.cls-11{fill:#f2c9a0;}.cls-12{fill:#d66d5c;}.cls-13{fill:#bdbfc1;opacity:0.5;}.cls-14{opacity:0.66;}.cls-15{fill:#dbdee2;}.cls-16{stroke:#201600;stroke-miterlimit:10;}.cls-17{fill:#fbe492;}.cls-18{fill:#dcc77f;}.cls-19{fill:#556c48;}.cls-20{fill:#628052;}.cls-21{fill:#668454;}.cls-22{fill:#59714b;}</style></defs><title>Asset 17</title><g id="Layer_2" data-name="Layer 2"><g id="Слой_1" data-name="Слой 1"><g class="cls-1"><polygon class="cls-2" points="389.23 294.25 389.23 275.82 357.26 275.82 357.26 294.25 357.26 312.69 389.23 312.69 389.23 294.25"/><path class="cls-3" d="M390.73,314.19h-35V274.33h35Zm-32-3h29V277.33h-29Z"/><rect class="cls-2" x="381.41" y="272.52" width="7.82" height="44.04"/><path class="cls-3" d="M390.73,318.06H379.91V271h10.82Zm-7.82-3h4.82V274h-4.82Z"/><path class="cls-4" d="M516.32,309.86V278.65a12.88,12.88,0,0,0-12.88-12.87H389.23v57H503.44A12.88,12.88,0,0,0,516.32,309.86Z"/><path class="cls-3" d="M503.44,324.24H387.73v-60H503.44a14.39,14.39,0,0,1,14.38,14.37v31.21A14.4,14.4,0,0,1,503.44,324.24Zm-112.71-3H503.44a11.39,11.39,0,0,0,11.38-11.38V278.65a11.38,11.38,0,0,0-11.38-11.37H390.73Z"/><rect class="cls-2" x="414.78" y="284.52" width="78.07" height="17.38"/><path class="cls-3" d="M494.36,303.4H413.28V283h81.08Zm-78.08-3h75.08V286H416.28Z"/><rect class="cls-5" x="267.31" y="367.34" width="265.43" height="40.27"/><path class="cls-3" d="M534.24,409.1H265.81V365.84H534.24Zm-265.43-3H531.24V368.84H268.81Z"/><rect class="cls-5" x="334.74" y="435.49" width="129.31" height="46.17"/><path class="cls-3" d="M465.56,483.15H333.24V434H465.56Zm-129.32-3H462.56V437H336.24Z"/><rect class="cls-2" x="355.65" y="451.16" width="89.07" height="14.89"/><path class="cls-3" d="M446.22,467.55H354.15V449.66h92.07Zm-89.07-3h86.07V452.66H357.15Z"/><path class="cls-3" d="M578.46,484.73h-26.2L565.36,462Zm-21-3h15.81l-7.91-13.68Z"/><path class="cls-3" d="M335.57,283.11H309.38l13.09-22.69Zm-21-3h15.81l-7.91-13.69Z"/><path class="cls-3" d="M799.14,382.61h-26.2L786,359.92Zm-21-3H794L786,365.92Z"/><path class="cls-3" d="M866.78,414.49a10.16,10.16,0,1,1,10.16-10.16A10.17,10.17,0,0,1,866.78,414.49Zm0-15.31a5.16,5.16,0,1,0,5.16,5.15A5.16,5.16,0,0,0,866.78,399.18Z"/><path class="cls-3" d="M553.77,284a10.16,10.16,0,1,1,10.16-10.16A10.17,10.17,0,0,1,553.77,284Zm0-15.32a5.16,5.16,0,1,0,5.16,5.16A5.17,5.17,0,0,0,553.77,268.66Z"/><path class="cls-3" d="M268.06,343.17A10.16,10.16,0,1,1,278.22,333,10.17,10.17,0,0,1,268.06,343.17Zm0-15.32a5.16,5.16,0,1,0,5.16,5.16A5.16,5.16,0,0,0,268.06,327.85Z"/><rect class="cls-3" x="825.9" y="487.03" width="5" height="5"/><path class="cls-3" d="M830.9,478.61h-5v-8.42h5Zm0-16.84h-5v-8.42h5Z"/><polygon class="cls-3" points="830.9 444.93 825.9 444.93 825.9 442.43 823.4 442.43 823.4 437.43 830.9 437.43 830.9 444.93"/><path class="cls-3" d="M814.53,442.43h-8.88v-5h8.88Zm-17.75,0H787.9v-5h8.88Zm-17.75,0h-8.87v-5H779Z"/><polygon class="cls-3" points="758.78 444.93 753.78 444.93 753.78 437.43 761.28 437.43 761.28 442.43 758.78 442.43 758.78 444.93"/><rect class="cls-3" x="753.78" y="453.58" width="5" height="8.65"/><polygon class="cls-3" points="758.78 478.38 751.28 478.38 751.28 473.38 753.78 473.38 753.78 470.88 758.78 470.88 758.78 478.38"/><path class="cls-3" d="M740.66,478.38H730v-5h10.62Zm-21.25,0H708.79v-5h10.62Zm-21.25,0H687.54v-5h10.62Zm-21.24,0H666.29v-5h10.63Z"/><polygon class="cls-3" points="655.67 478.38 648.17 478.38 648.17 470.88 653.17 470.88 653.17 473.38 655.67 473.38 655.67 478.38"/><rect class="cls-3" x="648.17" y="455.12" width="5" height="5"/><rect class="cls-3" x="648.17" y="301.46" width="5" height="5"/><rect class="cls-3" x="648.17" y="289.31" width="5" height="6.07"/><polygon class="cls-3" points="653.17 283.24 648.17 283.24 648.17 275.74 655.67 275.74 655.67 280.74 653.17 280.74 653.17 283.24"/><path class="cls-3" d="M758.06,280.74H747.82v-5h10.24Zm-20.48,0H727.34v-5h10.24Zm-20.48,0H706.86v-5H717.1Zm-20.48,0H686.38v-5h10.24Zm-20.47,0H665.91v-5h10.24Z"/><polygon class="cls-3" points="775.8 283.24 770.8 283.24 770.8 280.74 768.3 280.74 768.3 275.74 775.8 275.74 775.8 283.24"/><rect class="cls-3" x="770.8" y="294.74" width="5" height="11.5"/><polygon class="cls-3" points="778.3 325.24 770.8 325.24 770.8 317.74 775.8 317.74 775.8 320.24 778.3 320.24 778.3 325.24"/><rect class="cls-3" x="787.91" y="320.24" width="9.61" height="5"/><rect class="cls-3" x="807.14" y="320.24" width="5" height="5"/><rect class="cls-3" x="583.71" y="339.13" width="5" height="5"/><path class="cls-3" d="M573.57,344.13H563.42v-5h10.15Zm-20.3,0H543.12v-5h10.15Zm-20.29,0H522.83v-5H533Zm-20.3,0H502.53v-5h10.15Zm-20.29,0H482.24v-5h10.15Zm-20.3,0H461.94v-5h10.15Zm-20.3,0H441.65v-5h10.14Zm-20.29,0H421.35v-5H431.5Z"/><polygon class="cls-3" points="408.7 346.63 403.7 346.63 403.7 339.13 411.2 339.13 411.2 344.13 408.7 344.13 408.7 346.63"/><rect class="cls-3" x="403.7" y="357.04" width="5" height="5"/><path class="cls-3" d="M348.17,188.49v16.12h-5V188.49Zm0,32.24v16.13h-5V220.73Zm0,32.25V269.1h-5V253Zm0,32.25v16.12h-5V285.23Zm0,32.24v16.12h-5V317.47Zm0,32.25v16.12h-5V349.72Z"/><path class="cls-6" d="M415.76,35.38H550.34l12.93-11.14L550.34,12.1H387.27A94.56,94.56,0,0,1,415.76,35.38Z"/><path class="cls-7" d="M550.34,36.46H415.76a1.09,1.09,0,0,1-.83-.4,93,93,0,0,0-28.17-23,1.09,1.09,0,0,1,.51-2H550.34a1.05,1.05,0,0,1,.73.29L564,23.45a1.09,1.09,0,0,1,.34.81,1.1,1.1,0,0,1-.37.8L551,36.19A1.1,1.1,0,0,1,550.34,36.46ZM416.27,34.3H549.94l11.72-10.09-11.75-11H391.38A95.1,95.1,0,0,1,416.27,34.3Z"/><path class="cls-8" d="M620.11,72.08,633,60.18,620.11,48.79H425a93.56,93.56,0,0,1,9.42,23.29Z"/><path class="cls-3" d="M620.11,73.15H434.41a1.07,1.07,0,0,1-1-.81,93.06,93.06,0,0,0-9.31-23,1.07,1.07,0,0,1,.93-1.61H620.11a1.09,1.09,0,0,1,.71.26l12.94,11.39a1,1,0,0,1,.36.79,1.07,1.07,0,0,1-.34.81l-12.94,11.9A1.09,1.09,0,0,1,620.11,73.15ZM435.25,71H619.69l11.74-10.81L619.7,49.87H426.83A95,95,0,0,1,435.25,71Z"/><path class="cls-9" d="M436.36,108.77h55.09l12.93-11.94L491.45,85.49H436.8a94.05,94.05,0,0,1-.44,23.28Z"/><path class="cls-3" d="M491.45,109.85H436.36a1.09,1.09,0,0,1-.82-.37,1.12,1.12,0,0,1-.25-.86,92.7,92.7,0,0,0,1-13.22,95.36,95.36,0,0,0-.52-9.8,1.1,1.1,0,0,1,.27-.83,1.09,1.09,0,0,1,.8-.36h54.65a1.1,1.1,0,0,1,.71.27L505.1,96a1.05,1.05,0,0,1,.36.8,1,1,0,0,1-.34.8l-12.94,11.94A1.05,1.05,0,0,1,491.45,109.85Zm-53.85-2.16H491l11.74-10.84L491,86.57H438c.27,3,.41,5.92.41,8.83A96.52,96.52,0,0,1,437.6,107.69Z"/><rect class="cls-3" x="394.93" y="170.78" width="4.05" height="5"/><rect class="cls-3" x="404.98" y="170.78" width="6" height="5"/><polygon class="cls-3" points="423.05 168.28 423.05 175.78 416.99 175.78 416.99 170.78 419.01 170.78 419.01 168.28 423.05 168.28"/><rect class="cls-3" x="419.01" y="152.04" width="4.05" height="8.12"/><polygon class="cls-3" points="425.08 136.42 425.08 141.42 423.05 141.42 423.05 143.92 419.01 143.92 419.01 136.42 425.08 136.42"/><path class="cls-3" d="M742.58,136.42v5h-7.93v-5Zm-15.87,0v5h-7.94v-5Zm-15.88,0v5H702.9v-5Zm-15.87,0v5H687v-5Zm-15.88,0v5h-7.93v-5Zm-15.87,0v5h-7.94v-5Zm-15.88,0v5h-7.94v-5Zm-15.87,0v5h-7.94v-5Zm-15.88,0v5h-7.94v-5Zm-15.87,0v5h-7.94v-5Zm-15.88,0v5h-7.94v-5Zm-15.88,0v5H560v-5Zm-15.87,0v5h-7.94v-5Zm-15.88,0v5h-7.93v-5Zm-15.87,0v5h-7.94v-5Zm-15.88,0v5h-7.93v-5Zm-15.87,0v5h-7.94v-5Zm-15.88,0v5h-7.94v-5Zm-15.87,0v5h-7.94v-5Zm-15.88,0v5H433v-5Z"/><rect class="cls-3" x="750.52" y="136.42" width="4.05" height="5"/><path class="cls-3" d="M299.3,98.45a1,1,0,0,1-.72-.28,1.07,1.07,0,0,1-.36-.84l1.45-41a1.06,1.06,0,0,1,1-1l6.29-.66a1.07,1.07,0,0,1,.91.34,1.11,1.11,0,0,1,.26.94,33.67,33.67,0,0,0,18.15,36.85,1.07,1.07,0,0,1,.59,1.14,1.09,1.09,0,0,1-.92.9l-26.46,3.64Zm2.49-41.12-1.37,38.8,22-3a35.75,35.75,0,0,1-16.69-36.18Z"/><path class="cls-10" d="M336,106.6h18.54a55.65,55.65,0,0,1,55.64,55.13,94.36,94.36,0,1,0-129.68,4.33l-.15-3.81A55.65,55.65,0,0,1,336,106.6ZM300.74,56.36a40.94,40.94,0,0,1,77.59-8.09l8.94,39.85H364.8a34.67,34.67,0,0,1-39,5.61L299.3,97.37Z"/><path class="cls-3" d="M280.45,167.14a1.12,1.12,0,0,1-.71-.27,95.43,95.43,0,1,1,131.16-4.38,1.08,1.08,0,0,1-1.85-.75,54.73,54.73,0,0,0-54.56-54.06H336a54.63,54.63,0,0,0-54.58,54.57l.16,3.76a1.06,1.06,0,0,1-.61,1A1.12,1.12,0,0,1,280.45,167.14ZM343,2.16a93.26,93.26,0,0,0-63.74,161.36l0-1.22A56.81,56.81,0,0,1,336,105.52h18.54a56.91,56.91,0,0,1,56.64,53.62A93.27,93.27,0,0,0,343,2.16ZM299.3,98.45a1,1,0,0,1-.72-.28,1.07,1.07,0,0,1-.36-.84l1.45-41a42,42,0,0,1,79.65-8.49l9,40.06a1.07,1.07,0,0,1-1.05,1.31h-22a35.81,35.81,0,0,1-24,9.25,35.45,35.45,0,0,1-15.62-3.61l-26.14,3.6Zm26.46-5.8a1.13,1.13,0,0,1,.48.11,33.59,33.59,0,0,0,37.83-5.43,1.05,1.05,0,0,1,.73-.29h21.12L377.28,48.5a39.88,39.88,0,0,0-75.48,8.08l-1.38,39.55,25.2-3.47Z"/><path class="cls-3" d="M387.27,89.2H364.8a1.07,1.07,0,0,1-1-.69,1.08,1.08,0,0,1,.27-1.18A33.87,33.87,0,0,0,375,62.51a33.45,33.45,0,0,0-2.75-13.29,1.07,1.07,0,0,1,.06-1,1.08,1.08,0,0,1,.82-.53l5.1-.53a1.07,1.07,0,0,1,1.16.84l8.94,39.86a1.07,1.07,0,0,1-1.05,1.31ZM367.42,87h18.5l-8.43-37.6-2.72.28a35.54,35.54,0,0,1,2.38,12.79A36,36,0,0,1,367.42,87Z"/><path class="cls-11" d="M373.23,48.79,307,55.7a34.86,34.86,0,1,0,66.2-6.91Z"/><path class="cls-3" d="M341.21,98.45a36,36,0,0,1-35.94-35.94,36.72,36.72,0,0,1,.7-7,1.08,1.08,0,0,1,.95-.86l66.2-6.91a1.06,1.06,0,0,1,1.1.65,36,36,0,0,1-33,50.08ZM307.94,56.69a34,34,0,0,0-.51,5.82A33.78,33.78,0,1,0,372.54,50Z"/><path class="cls-3" d="M300.74,57.44a1.09,1.09,0,0,1-.8-.36,1.07,1.07,0,0,1-.25-.94,42,42,0,0,1,79.63-8.31,1.06,1.06,0,0,1-.06,1,1.11,1.11,0,0,1-.82.53l-77.58,8.09Zm40.1-32.61a40,40,0,0,0-38.71,30.3l74.59-7.78A39.87,39.87,0,0,0,340.84,24.83Z"/><path class="cls-12" d="M336,106.6l10.18,83.12a94.49,94.49,0,0,0,20.54-2.92l-12.18-80.2Z"/><path class="cls-3" d="M346.13,190.79a1.08,1.08,0,0,1-1.07-.94l-10.18-83.12a1,1,0,0,1,.26-.84,1.08,1.08,0,0,1,.81-.37h18.54a1.08,1.08,0,0,1,1.07.92l12.18,80.2a1.08,1.08,0,0,1-.8,1.21,95.72,95.72,0,0,1-20.77,2.94Zm-9-83.11,9.91,80.92A93.07,93.07,0,0,0,365.46,186l-11.89-78.31Z"/><path class="cls-8" d="M346.13,189.72,336,106.6a55.65,55.65,0,0,0-55.65,55.65l.15,3.81A94,94,0,0,0,343,189.79C344.06,189.79,345.09,189.75,346.13,189.72Zm-26-46.74v16.43H305.91V143h14.21Z"/><path class="cls-3" d="M343,190.87a95.32,95.32,0,0,1-63.27-24,1.08,1.08,0,0,1-.36-.77l-.16-3.8A56.81,56.81,0,0,1,336,105.52a1.09,1.09,0,0,1,1.07,1l10.18,83.12a1.06,1.06,0,0,1-.25.83,1.07,1.07,0,0,1-.78.37l-.6,0C344.72,190.84,343.87,190.87,343,190.87Zm-61.5-25.32A93.19,93.19,0,0,0,343,188.72c.64,0,1.27,0,1.91,0l-9.93-81a54.64,54.64,0,0,0-53.62,54.56Zm38.61-5.07H305.91a1.07,1.07,0,0,1-1.08-1.07V144.06H299.3a1.08,1.08,0,1,1,0-2.16h27.05a1.08,1.08,0,1,1,0,2.16H321.2v15.35A1.07,1.07,0,0,1,320.12,160.48ZM307,158.33H319V144.06H307Z"/><path class="cls-8" d="M354.49,106.6l12.18,80.2a94.24,94.24,0,0,0,43.46-25.07A55.65,55.65,0,0,0,354.49,106.6Z"/><path class="cls-3" d="M366.67,187.88a1.07,1.07,0,0,1-.59-.18,1.12,1.12,0,0,1-.47-.74l-12.18-80.2a1,1,0,0,1,.25-.86,1.06,1.06,0,0,1,.81-.38,56.9,56.9,0,0,1,56.72,56.2,1.09,1.09,0,0,1-.31.77,95.45,95.45,0,0,1-44,25.36A1.18,1.18,0,0,1,366.67,187.88Zm-10.92-80.19,11.81,77.76a93.21,93.21,0,0,0,41.49-24.16A54.75,54.75,0,0,0,355.75,107.69Z"/><rect class="cls-6" x="305.91" y="142.98" width="14.21" height="16.43"/><path class="cls-7" d="M320.12,160.48H305.91a1.07,1.07,0,0,1-1.08-1.07V143a1.08,1.08,0,0,1,1.08-1.08h14.21A1.08,1.08,0,0,1,321.2,143v16.43A1.07,1.07,0,0,1,320.12,160.48ZM307,158.33H319V144.06H307Z"/><path class="cls-3" d="M482.24,173.68a10.16,10.16,0,1,1,10.16-10.16A10.17,10.17,0,0,1,482.24,173.68Zm0-15.32a5.16,5.16,0,1,0,5.16,5.16A5.17,5.17,0,0,0,482.24,158.36Z"/><path class="cls-13" d="M884.91,310.45a36.37,36.37,0,0,0-2.48-4.21l5.12-11.41a45.72,45.72,0,0,0-18.12-12l-8.53,9.15a34.45,34.45,0,0,0-9.73-.62l-7.32-10.15a46.06,46.06,0,0,0-10.33,3.67,45.29,45.29,0,0,0-9.16,6l3.66,12a35.18,35.18,0,0,0-5.39,8.12l-12.44,1.27a45.48,45.48,0,0,0-1.38,21.71L821,336.73a37,37,0,0,0,1.85,4.52,34.52,34.52,0,0,0,2.49,4.21l-5.14,11.41a45.59,45.59,0,0,0,18.14,12l8.52-9.14a35.22,35.22,0,0,0,9.73.62l7.32,10.14a45.47,45.47,0,0,0,19.48-9.67l-3.66-12a34.63,34.63,0,0,0,5.41-8.12l12.43-1.27A45.77,45.77,0,0,0,899,317.78L886.77,315A38.77,38.77,0,0,0,884.91,310.45Zm-21.12,35.37a22.29,22.29,0,1,1,10.06-29.88A22.27,22.27,0,0,1,863.79,345.82Z"/><path class="cls-14" d="M863.91,372.22a1.69,1.69,0,0,1-1.38-.7l-6.77-9.39a36.59,36.59,0,0,1-8.29-.52l-7.89,8.45a1.68,1.68,0,0,1-1.82.44A47.62,47.62,0,0,1,819,358a1.71,1.71,0,0,1-.3-1.85l4.75-10.56a36.26,36.26,0,0,1-2.07-3.62,37.65,37.65,0,0,1-1.63-3.83l-11.28-2.6a1.72,1.72,0,0,1-1.29-1.36,47.48,47.48,0,0,1,1.44-22.52A1.74,1.74,0,0,1,810,310.5l11.5-1.17a36.25,36.25,0,0,1,4.61-6.92l-3.39-11.07a1.7,1.7,0,0,1,.52-1.79,47.41,47.41,0,0,1,20.21-10,1.69,1.69,0,0,1,1.75.66l6.77,9.38a36.66,36.66,0,0,1,8.31.53l7.89-8.46a1.69,1.69,0,0,1,1.82-.43,47.5,47.5,0,0,1,18.8,12.48,1.72,1.72,0,0,1,.29,1.85l-4.74,10.55a36.25,36.25,0,0,1,2.07,3.62,37.78,37.78,0,0,1,1.63,3.82l11.27,2.61a1.7,1.7,0,0,1,1.3,1.36A47.61,47.61,0,0,1,899.19,340a1.69,1.69,0,0,1-1.45,1.18l-11.5,1.17a36.66,36.66,0,0,1-4.6,6.94L885,360.36a1.69,1.69,0,0,1-.53,1.79,47.26,47.26,0,0,1-20.21,10A1.61,1.61,0,0,1,863.91,372.22Zm-7.32-13.54a1.7,1.7,0,0,1,1.38.7l6.65,9.23a43.74,43.74,0,0,0,16.82-8.35l-3.33-10.87a1.7,1.7,0,0,1,.36-1.63A33.26,33.26,0,0,0,883.6,340a1.7,1.7,0,0,1,1.36-1l11.31-1.15a44.32,44.32,0,0,0,1.19-18.75l-11.07-2.55a1.72,1.72,0,0,1-1.23-1.12,36.85,36.85,0,0,0-1.78-4.31,32.35,32.35,0,0,0-2.36-4,1.72,1.72,0,0,1-.14-1.66l4.66-10.37a44.28,44.28,0,0,0-15.64-10.39l-7.76,8.32a1.69,1.69,0,0,1-1.59.5,33,33,0,0,0-9.26-.59,1.69,1.69,0,0,1-1.5-.7l-6.65-9.22a44.39,44.39,0,0,0-8.86,3.27,43.33,43.33,0,0,0-8,5.08l3.33,10.87a1.7,1.7,0,0,1-.36,1.63,33.11,33.11,0,0,0-5.13,7.73,1.71,1.71,0,0,1-1.36.95l-11.3,1.15a43.8,43.8,0,0,0-1.2,18.74l11.08,2.56a1.7,1.7,0,0,1,1.23,1.12,33.92,33.92,0,0,0,1.77,4.3,32.61,32.61,0,0,0,2.36,4,1.73,1.73,0,0,1,.15,1.66l-4.67,10.37a43.94,43.94,0,0,0,15.65,10.38l7.75-8.31a1.71,1.71,0,0,1,1.59-.51,32.63,32.63,0,0,0,9.25.59Zm-2.7-8.83a24,24,0,1,1,10.65-2.5A23.86,23.86,0,0,1,853.89,349.85Zm0-44.6A20.6,20.6,0,1,0,863,344.3a20.6,20.6,0,0,0-9.17-39.05Z"/><path class="cls-15" d="M844,305.88a22.29,22.29,0,1,0,29.88,10.06A22.28,22.28,0,0,0,844,305.88Z"/><path class="cls-15" d="M853.89,349.85h0a24,24,0,1,1,10.65-2.5A23.86,23.86,0,0,1,853.89,349.85Zm0-44.6A20.6,20.6,0,1,0,863,344.3a20.6,20.6,0,0,0-9.17-39.05Z"/><path class="cls-3" d="M593,201.14h-26.2l13.1-22.69Zm-21-3h15.8l-7.9-13.69Z"/><path class="cls-3" d="M732.51,118.93h-26.2l13.1-22.69Zm-21-3h15.81l-7.91-13.69Z"/><path class="cls-3" d="M724.93,180.94a10.16,10.16,0,1,1,10.16-10.16A10.17,10.17,0,0,1,724.93,180.94Zm0-15.32a5.16,5.16,0,1,0,5.16,5.16A5.17,5.17,0,0,0,724.93,165.62Z"/><path class="cls-3" d="M673.92,251.21a10.16,10.16,0,1,1,10.16-10.16A10.17,10.17,0,0,1,673.92,251.21Zm0-15.32a5.16,5.16,0,1,0,5.16,5.16A5.17,5.17,0,0,0,673.92,235.89Z"/><path class="cls-3" d="M439.93,229h-26.2l13.1-22.69Zm-21-3h15.8l-7.9-13.69Z"/><rect class="cls-3" x="175.91" y="274.99" width="5" height="5"/><rect class="cls-3" x="175.91" y="262.84" width="5" height="6.07"/><polygon class="cls-3" points="180.91 256.77 175.91 256.77 175.91 249.27 183.41 249.27 183.41 254.27 180.91 254.27 180.91 256.77"/><path class="cls-3" d="M285.8,254.27H275.57v-5H285.8Zm-20.47,0H255.09v-5h10.24Zm-20.48,0H234.61v-5h10.24Zm-20.48,0H214.13v-5h10.24Zm-20.48,0H193.65v-5h10.24Z"/><polygon class="cls-3" points="303.55 256.77 298.55 256.77 298.55 254.27 296.05 254.27 296.05 249.27 303.55 249.27 303.55 256.77"/><rect class="cls-3" x="298.54" y="268.27" width="5" height="11.5"/><polygon class="cls-3" points="306.05 298.76 298.55 298.76 298.55 291.26 303.55 291.26 303.55 293.76 306.05 293.76 306.05 298.76"/><rect class="cls-3" x="315.66" y="293.77" width="9.61" height="5"/><rect class="cls-3" x="334.89" y="293.77" width="5" height="5"/><polygon class="cls-16" points="191.97 298.63 169.17 285.59 181.44 267.37 191.97 298.63"/><path class="cls-16" d="M192,299.71a1,1,0,0,1-.53-.14l-22.8-13.05a1.06,1.06,0,0,1-.36-1.53l12.27-18.23a1,1,0,0,1,1-.46,1.06,1.06,0,0,1,.88.72l10.44,31a1.1,1.1,0,0,1,.19.61,1.08,1.08,0,0,1-1.08,1.08Zm-21.26-14.48L190,296.29l-8.92-26.51Z"/><polygon class="cls-16" points="224.84 202.88 191.97 251.72 3.82 191.03 224.84 202.88"/><path class="cls-16" d="M192,252.8a1.26,1.26,0,0,1-.33-.05L3.48,192.05a1.08,1.08,0,0,1,.39-2.1l221,11.86a1.08,1.08,0,0,1,.9.59,1.07,1.07,0,0,1-.07,1.09l-32.86,48.83A1.09,1.09,0,0,1,192,252.8ZM12,192.55l179.49,57.89,31.35-46.58Z"/><polygon class="cls-16" points="191.97 251.72 191.97 298.63 181.44 267.37 3.82 191.03 191.97 251.72"/><path class="cls-16" d="M192,299.71a1.08,1.08,0,0,1-1-.73l-10.38-30.81L3.39,192a1.08,1.08,0,0,1,.76-2L192.3,250.69a1.08,1.08,0,0,1,.75,1v46.91a1.08,1.08,0,0,1-.91,1.07ZM25.33,199.1l156.54,67.28a1,1,0,0,1,.59.64l8.43,25V252.51Z"/><polygon class="cls-16" points="181.44 267.37 169.17 285.59 149.37 315.01 3.82 191.03 181.44 267.37"/><path class="cls-16" d="M149.37,316.09a1,1,0,0,1-.7-.26L3.12,191.85a1.08,1.08,0,0,1-.22-1.39A1.06,1.06,0,0,1,4.24,190l177.63,76.34a1,1,0,0,1,.6.68,1.08,1.08,0,0,1-.13.91l-32.08,47.65a1.07,1.07,0,0,1-.74.46ZM10,194.84l139.2,118.57,30.67-45.57Z"/><path class="cls-3" d="M708.54,231.43v10.23H702.9V231.43Zm0,20.47v10.24H702.9V251.9Zm0,20.48v10.24H702.9V272.38Zm0,20.48V303.1H702.9V292.86Zm0,20.48v10.24H702.9V313.34Z"/><polygon class="cls-3" points="711.37 213.69 711.37 218.69 708.54 218.69 708.54 221.19 702.9 221.19 702.9 213.69 711.37 213.69"/><rect class="cls-3" x="744.69" y="213.69" width="12.99" height="5"/><polygon class="cls-3" points="779.14 211.19 779.14 218.69 770.67 218.69 770.67 213.69 773.49 213.69 773.49 211.19 779.14 211.19"/><rect class="cls-3" x="773.49" y="191.96" width="5.65" height="9.61"/><rect class="cls-3" x="773.49" y="177.34" width="5.65" height="5"/><rect class="cls-3" x="732.07" y="213.69" width="5.65" height="5"/><rect class="cls-3" x="718.34" y="213.69" width="6.86" height="5"/><path class="cls-17" d="M758.14,125.33v10.88h37.62V125.33c.37-12.25,6.07-21.29,10.9-25.51a47.68,47.68,0,1,0-59.42,0C754.41,105.14,757.77,113.07,758.14,125.33Z"/><path class="cls-3" d="M795.76,137H758.14a.79.79,0,0,1-.79-.79V125.33c-.36-12-3.63-19.72-10.58-24.88a48.46,48.46,0,1,1,60.38,0c-4.88,4.25-10.24,13-10.61,24.91v10.86A.78.78,0,0,1,795.76,137Zm-36.83-1.57h36v-10.1c.38-12.39,6-21.6,11.17-26.1a46.89,46.89,0,1,0-58.41,0c7.35,5.46,10.81,13.52,11.2,26.1Z"/><path class="cls-2" d="M777,136.21V62.33"/><path class="cls-3" d="M777,137a.79.79,0,0,1-.79-.79V62.33a.79.79,0,1,1,1.58,0v73.88A.79.79,0,0,1,777,137Z"/><line class="cls-2" x1="757.64" y1="78.38" x2="796.27" y2="78.38"/><path class="cls-3" d="M796.27,79.17H757.64a.79.79,0,1,1,0-1.57h38.63a.79.79,0,0,1,0,1.57Z"/><polygon class="cls-18" points="792.47 78.39 776.95 105.26 761.44 78.39 792.47 78.39"/><path class="cls-3" d="M777,106.05a.79.79,0,0,1-.68-.39L760.76,78.78a.79.79,0,0,1,.68-1.18h31a.79.79,0,0,1,.68,1.18l-15.52,26.88A.79.79,0,0,1,777,106.05ZM762.8,79.17,777,103.69,791.1,79.17Z"/><rect class="cls-2" x="753.96" y="136.21" width="45.99" height="9.7"/><path class="cls-3" d="M799.94,146.7H754a.79.79,0,0,1-.79-.79v-9.7a.78.78,0,0,1,.79-.78h46a.78.78,0,0,1,.79.78v9.7A.79.79,0,0,1,799.94,146.7Zm-45.2-1.57h44.42V137H754.74Z"/><path class="cls-2" d="M777,182a6.29,6.29,0,0,0,6.29-6.28H770.66A6.29,6.29,0,0,0,777,182Z"/><path class="cls-3" d="M777,182.79a7.08,7.08,0,0,1-7.07-7.07.78.78,0,0,1,.78-.79h12.58a.79.79,0,0,1,.79.79A7.08,7.08,0,0,1,777,182.79Zm-5.45-6.29a5.51,5.51,0,0,0,10.9,0Z"/><path class="cls-2" d="M757.67,145.91v18a15.52,15.52,0,0,0,5.46,11.82h27.64a15.52,15.52,0,0,0,5.46-11.82v-18Z"/><path class="cls-3" d="M790.77,176.5H763.13a.78.78,0,0,1-.51-.19,16.29,16.29,0,0,1-5.74-12.41v-18a.79.79,0,0,1,.79-.78h38.56a.79.79,0,0,1,.79.78v18a16.29,16.29,0,0,1-5.74,12.41A.78.78,0,0,1,790.77,176.5Zm-27.34-1.57h27.05a14.74,14.74,0,0,0,5-11V146.7h-37v17.2A14.71,14.71,0,0,0,763.43,174.93Z"/><path class="cls-3" d="M799.27,155.34h-.07l-44.63-3.65a.78.78,0,0,1-.72-.85.79.79,0,0,1,.85-.72l44.63,3.66a.77.77,0,0,1,.72.84A.79.79,0,0,1,799.27,155.34Z"/><path class="cls-3" d="M799.27,163.43h-.07l-44.63-3.66a.77.77,0,0,1-.72-.85.8.8,0,0,1,.85-.72l44.63,3.66a.77.77,0,0,1,.72.85A.78.78,0,0,1,799.27,163.43Z"/><g id="mug"><path class="cls-5" d="M713.74,342.91V309.68H595.35V450.17H713.74V417c19.42,0,39.27-4.41,39.27-37S733.16,342.91,713.74,342.91Zm0,60.74V356.21c16.23,0,25.63,3.88,25.63,23.72S730,403.65,713.74,403.65Z"/><path class="cls-3" d="M715.24,451.67H593.85V308.18H715.24v33.24c8.33.09,18.47,1.07,26.28,6.54,8.74,6.12,13,16.58,13,32,0,33.24-20.66,38.27-39.27,38.51Zm-118.39-3H712.24V415.45h1.5c19.62,0,37.77-4.31,37.77-35.52s-18.15-35.52-37.77-35.52h-1.5V311.18H596.85Zm116.89-43.52h-1.5V354.71h1.5c16.75,0,27.13,4.22,27.13,25.22S730.49,405.15,713.74,405.15Zm1.5-47.43v44.41c19-.38,22.63-8.15,22.63-22.2C737.87,361.85,729.93,358,715.24,357.72Z"/></g><rect class="cls-3" x="221.97" y="612.04" width="5" height="3.56"/><rect class="cls-3" x="221.97" y="601.47" width="5" height="5.29"/><polygon class="cls-3" points="219.47 590.83 226.97 590.83 226.97 596.18 221.97 596.18 221.97 594.4 219.47 594.4 219.47 590.83"/><rect class="cls-3" x="203.23" y="590.83" width="8.12" height="3.56"/><polygon class="cls-3" points="187.61 589.05 192.61 589.05 192.61 590.83 195.11 590.83 195.11 594.4 187.61 594.4 187.61 589.05"/><path class="cls-3" d="M187.61,309.35h5v7h-5Zm0,14h5v7h-5Zm0,14h5v7h-5Zm0,14h5v7h-5Zm0,14h5v7h-5Zm0,14h5v7h-5Zm0,14h5v7h-5Zm0,14h5v7h-5Zm0,14h5v7h-5Zm0,14h5v7h-5Zm0,14h5v7h-5Zm0,14h5v7h-5Zm0,14h5v7h-5Zm0,14h5v7h-5Zm0,14h5v7h-5Zm0,14h5v7h-5Zm0,14h5v7h-5Zm0,14h5v7h-5Zm0,14h5v7h-5Zm0,14h5v7h-5Z"/><rect class="cls-3" x="187.61" y="298.79" width="5" height="3.56"/><rect class="cls-3" x="649.17" y="595.3" width="5" height="5"/><path class="cls-3" d="M639,600.3H628.87v-5H639Zm-20.3,0H608.58v-5h10.14Zm-20.29,0H588.28v-5h10.15Zm-20.3,0H568v-5h10.14Zm-20.29,0H547.69v-5h10.15Zm-20.3,0H527.39v-5h10.15Zm-20.29,0H507.1v-5h10.15Zm-20.3,0H486.8v-5H497Z"/><polygon class="cls-3" points="474.15 602.8 469.15 602.8 469.15 595.3 476.65 595.3 476.65 600.3 474.15 600.3 474.15 602.8"/><rect class="cls-3" x="469.15" y="613.21" width="5" height="5"/><path class="cls-19" d="M651.08,591.15v90.14h169.2V591.15Zm161.46,45.07v24.6a12.73,12.73,0,0,0-12.72,12.72H671.54a12.72,12.72,0,0,0-12.71-12.72V611.61a12.72,12.72,0,0,0,12.71-12.72H799.82a12.72,12.72,0,0,0,12.72,12.72Z"/><path class="cls-3" d="M820.28,682.36H651.08a1.08,1.08,0,0,1-1.08-1.07V591.15a1.09,1.09,0,0,1,1.08-1.08h169.2a1.08,1.08,0,0,1,1.08,1.08v90.14A1.07,1.07,0,0,1,820.28,682.36Zm-168.12-2.15h167v-88h-167Zm147.66-5.59H671.54a1.08,1.08,0,0,1-1.08-1.08,11.65,11.65,0,0,0-11.63-11.64,1.08,1.08,0,0,1-1.08-1.08V611.61a1.08,1.08,0,0,1,1.08-1.08,11.65,11.65,0,0,0,11.63-11.64,1.08,1.08,0,0,1,1.08-1.07H799.82a1.07,1.07,0,0,1,1.08,1.07,11.65,11.65,0,0,0,11.64,11.64,1.08,1.08,0,0,1,1.08,1.08v49.21a1.08,1.08,0,0,1-1.08,1.08,11.65,11.65,0,0,0-11.64,11.64A1.08,1.08,0,0,1,799.82,674.62Zm-127.24-2.16H798.79a13.8,13.8,0,0,1,12.67-12.67V612.65A13.82,13.82,0,0,1,798.79,600H672.58a13.83,13.83,0,0,1-12.68,12.68v47.14A13.82,13.82,0,0,1,672.58,672.46Z"/><path class="cls-20" d="M788.53,646.72a10.51,10.51,0,0,1-10.5-10.5H764.44a28.76,28.76,0,0,1-57.52,0H693.34a10.51,10.51,0,0,1-21,0h-13.5v24.6a12.72,12.72,0,0,1,12.71,12.72H799.82a12.73,12.73,0,0,1,12.72-12.72v-24.6H799A10.51,10.51,0,0,1,788.53,646.72Z"/><path class="cls-3" d="M799.82,674.62H671.54a1.08,1.08,0,0,1-1.08-1.08,11.65,11.65,0,0,0-11.63-11.64,1.08,1.08,0,0,1-1.08-1.08v-24.6a1.08,1.08,0,0,1,1.08-1.08h13.5a1.08,1.08,0,0,1,1.07,1.08,9.43,9.43,0,0,0,18.86,0,1.08,1.08,0,0,1,1.08-1.08h13.58a1.08,1.08,0,0,1,1.08,1.08,27.68,27.68,0,0,0,55.36,0,1.08,1.08,0,0,1,1.08-1.08H778a1.09,1.09,0,0,1,1.08,1.08,9.43,9.43,0,0,0,18.85,0,1.08,1.08,0,0,1,1.08-1.08h13.5a1.08,1.08,0,0,1,1.08,1.08v24.6a1.08,1.08,0,0,1-1.08,1.08,11.65,11.65,0,0,0-11.64,11.64A1.08,1.08,0,0,1,799.82,674.62Zm-127.24-2.16H798.79a13.8,13.8,0,0,1,12.67-12.67V637.3H800.07a11.59,11.59,0,0,1-23.07,0H765.5a29.84,29.84,0,0,1-59.64,0H694.37a11.59,11.59,0,0,1-23.07,0H659.9v22.49A13.82,13.82,0,0,1,672.58,672.46Z"/><path class="cls-21" d="M799.82,598.89H671.54a12.72,12.72,0,0,1-12.71,12.72v24.61h13.5a10.51,10.51,0,1,1,21,0h13.58a28.76,28.76,0,0,1,57.52,0H778a10.51,10.51,0,1,1,21,0h13.5V611.61A12.72,12.72,0,0,1,799.82,598.89Z"/><path class="cls-3" d="M812.54,637.3H799a1.08,1.08,0,0,1-1.08-1.08,9.43,9.43,0,1,0-18.85,0A1.08,1.08,0,0,1,778,637.3H764.44a1.08,1.08,0,0,1-1.08-1.08,27.68,27.68,0,0,0-55.36,0,1.08,1.08,0,0,1-1.08,1.08H693.34a1.08,1.08,0,0,1-1.08-1.08,9.43,9.43,0,1,0-18.86,0,1.07,1.07,0,0,1-1.07,1.08h-13.5a1.08,1.08,0,0,1-1.08-1.08V611.61a1.08,1.08,0,0,1,1.08-1.08,11.65,11.65,0,0,0,11.63-11.64,1.08,1.08,0,0,1,1.08-1.07H799.82a1.07,1.07,0,0,1,1.08,1.07,11.65,11.65,0,0,0,11.64,11.64,1.08,1.08,0,0,1,1.08,1.08v24.61A1.08,1.08,0,0,1,812.54,637.3Zm-12.47-2.16h11.39V612.65A13.82,13.82,0,0,1,798.79,600H672.58a13.83,13.83,0,0,1-12.68,12.68v22.49h11.4a11.58,11.58,0,0,1,23.07,0h11.49a29.84,29.84,0,0,1,59.64,0H777a11.58,11.58,0,0,1,23.07,0Z"/><path class="cls-19" d="M735.68,665a28.75,28.75,0,1,0-28.76-28.75A28.76,28.76,0,0,0,735.68,665Zm0-50.78a22,22,0,1,1-22,22A22,22,0,0,1,735.68,614.19Z"/><path class="cls-3" d="M735.68,666.05a29.83,29.83,0,1,1,29.83-29.83A29.87,29.87,0,0,1,735.68,666.05Zm0-57.5a27.67,27.67,0,1,0,27.68,27.67A27.71,27.71,0,0,0,735.68,608.55Zm0,50.77a23.11,23.11,0,1,1,23.1-23.1A23.12,23.12,0,0,1,735.68,659.32Zm0-44.05a21,21,0,1,0,21,21A21,21,0,0,0,735.68,615.27Z"/><path class="cls-19" d="M682.83,646.72a10.51,10.51,0,1,0-10.5-10.5A10.51,10.51,0,0,0,682.83,646.72Z"/><path class="cls-3" d="M682.83,647.8a11.59,11.59,0,1,1,11.59-11.58A11.59,11.59,0,0,1,682.83,647.8Zm0-21a9.43,9.43,0,1,0,9.43,9.43A9.45,9.45,0,0,0,682.83,626.79Z"/><path class="cls-19" d="M788.53,646.72a10.51,10.51,0,1,0-10.5-10.5A10.51,10.51,0,0,0,788.53,646.72Z"/><path class="cls-3" d="M788.53,647.8a11.59,11.59,0,1,1,11.59-11.58A11.59,11.59,0,0,1,788.53,647.8Zm0-21a9.43,9.43,0,1,0,9.43,9.43A9.44,9.44,0,0,0,788.53,626.79Z"/><path class="cls-21" d="M735.68,658.24a22,22,0,1,0-22-22A22,22,0,0,0,735.68,658.24Z"/><path class="cls-3" d="M735.68,659.32a23.11,23.11,0,1,1,23.1-23.1A23.12,23.12,0,0,1,735.68,659.32Zm0-44.05a21,21,0,1,0,21,21A21,21,0,0,0,735.68,615.27Z"/><path class="cls-19" d="M860.14,528.26,797.59,664.6l72.63,33.31,62.54-136.33Zm-3.55,155.85L836.76,675l-19.82-9.1A11.27,11.27,0,0,0,811.4,651l47.42-103.36a11.26,11.26,0,0,0,14.94-5.54l19.83,9.09,19.83,9.1A11.26,11.26,0,0,0,919,575.2L871.54,678.57A11.27,11.27,0,0,0,856.59,684.11Z"/><path class="cls-3" d="M870.22,699a1.14,1.14,0,0,1-.45-.1l-72.62-33.31a1.06,1.06,0,0,1-.53-1.43l62.54-136.33a1.08,1.08,0,0,1,.6-.57,1.13,1.13,0,0,1,.83,0l72.62,33.32a1.09,1.09,0,0,1,.53,1.43L871.2,698.36A1.11,1.11,0,0,1,870.22,699ZM799,664.07l70.67,32.41,61.64-134.37-70.66-32.42Zm57.57,21.12a1,1,0,0,1-.44-.1L816.49,666.9a1.08,1.08,0,0,1-.56-.61,1.06,1.06,0,0,1,0-.82A10.2,10.2,0,0,0,811,652a1.11,1.11,0,0,1-.57-.6,1.13,1.13,0,0,1,0-.83l47.42-103.36a1,1,0,0,1,.6-.56,1.09,1.09,0,0,1,.83,0,10,10,0,0,0,4.24.93,10.22,10.22,0,0,0,9.27-5.94,1.06,1.06,0,0,1,1.43-.53l39.65,18.19a1.05,1.05,0,0,1,.57.6,1.14,1.14,0,0,1,0,.83,10.19,10.19,0,0,0,5,13.51,1.08,1.08,0,0,1,.53,1.43L872.52,679a1.07,1.07,0,0,1-1.43.53,10.19,10.19,0,0,0-13.52,5A1.07,1.07,0,0,1,856.59,685.19Zm-38.26-19.82,37.78,17.33a12.39,12.39,0,0,1,10.74-6.24,12.15,12.15,0,0,1,4.14.72l46.56-101.49A12.35,12.35,0,0,1,912,560.8l-37.78-17.32a12.41,12.41,0,0,1-10.74,6.24,12.15,12.15,0,0,1-4.14-.72L812.81,650.48a12.35,12.35,0,0,1,5.52,14.89Z"/><path class="cls-20" d="M837.18,651.79a9.32,9.32,0,0,1,12.35-4.59l5-10.94a25.49,25.49,0,0,1,21.26-46.34l5-10.95A9.31,9.31,0,0,1,888.59,562l5-10.88-19.83-9.09a11.26,11.26,0,0,1-14.94,5.54L811.4,651a11.27,11.27,0,0,1,5.54,14.95l19.82,9.1,5-10.89A9.29,9.29,0,0,1,837.18,651.79Z"/><path class="cls-3" d="M836.76,676.09a1.2,1.2,0,0,1-.45-.09l-19.82-9.1a1.08,1.08,0,0,1-.56-.61,1.06,1.06,0,0,1,0-.82A10.2,10.2,0,0,0,811,652a1.11,1.11,0,0,1-.57-.6,1.13,1.13,0,0,1,0-.83l47.42-103.36a1,1,0,0,1,.6-.56,1.09,1.09,0,0,1,.83,0,10,10,0,0,0,4.24.93,10.22,10.22,0,0,0,9.27-5.94,1.06,1.06,0,0,1,1.43-.53L894,550.18a1.08,1.08,0,0,1,.56.61,1.06,1.06,0,0,1,0,.82l-5,10.88a1.08,1.08,0,0,1-1.43.53,8.11,8.11,0,0,0-3.42-.75,8.26,8.26,0,0,0-7.49,4.8,8.23,8.23,0,0,0,4,10.92,1.07,1.07,0,0,1,.53,1.43l-5,11a1,1,0,0,1-.6.56,1.11,1.11,0,0,1-.82,0,24.24,24.24,0,0,0-10.16-2.23A24.42,24.42,0,0,0,855,635.28a1.06,1.06,0,0,1,.53,1.42l-5,10.95a1.08,1.08,0,0,1-1.43.53,8.24,8.24,0,0,0-10.92,4.05,8.23,8.23,0,0,0,4.05,10.92,1.08,1.08,0,0,1,.56.61,1.06,1.06,0,0,1,0,.82l-5,10.89A1.08,1.08,0,0,1,836.76,676.09Zm-18.43-10.72,17.9,8.22,4.12-9a10.39,10.39,0,0,1-4.15-13.28A10.38,10.38,0,0,1,849,645.82l4.16-9.06a26.57,26.57,0,0,1,12.07-50.25,26.22,26.22,0,0,1,10.07,2l4.15-9.06A10.39,10.39,0,0,1,888,560.66l4.12-9-17.91-8.21a12.41,12.41,0,0,1-10.74,6.24,12.15,12.15,0,0,1-4.14-.72L812.81,650.48a12.35,12.35,0,0,1,5.52,14.89Z"/><path class="cls-21" d="M913.42,560.26l-19.83-9.1-5,10.88A9.31,9.31,0,1,1,880.82,579l-5,10.95a25.49,25.49,0,0,1-21.26,46.34l-5,10.94a9.31,9.31,0,0,1-7.77,16.93l-5,10.89,19.83,9.09a11.27,11.27,0,0,1,14.95-5.54L919,575.2A11.26,11.26,0,0,1,913.42,560.26Z"/><path class="cls-3" d="M856.59,685.19a1,1,0,0,1-.44-.1L836.31,676a1.08,1.08,0,0,1-.56-.61,1.06,1.06,0,0,1,0-.82l5-10.89a1.08,1.08,0,0,1,1.43-.53,8.17,8.17,0,0,0,3.43.76,8.24,8.24,0,0,0,3.44-15.73,1.08,1.08,0,0,1-.53-1.43l5-10.94a1.11,1.11,0,0,1,.6-.57,1.13,1.13,0,0,1,.83,0,24.41,24.41,0,0,0,20.36-44.38,1.08,1.08,0,0,1-.53-1.43l5-11a1.08,1.08,0,0,1,.61-.56,1.06,1.06,0,0,1,.82,0,8.16,8.16,0,0,0,3.43.75,8.27,8.27,0,0,0,7.5-4.8A8.25,8.25,0,0,0,888.15,563a1.07,1.07,0,0,1-.54-1.43l5-10.88a1.08,1.08,0,0,1,1.43-.53l19.82,9.1a1.05,1.05,0,0,1,.57.6,1.14,1.14,0,0,1,0,.83,10.19,10.19,0,0,0,5,13.51,1.08,1.08,0,0,1,.53,1.43L872.52,679a1.07,1.07,0,0,1-1.43.53,10.19,10.19,0,0,0-13.52,5A1.07,1.07,0,0,1,856.59,685.19Zm-18.4-10.7,17.92,8.21a12.39,12.39,0,0,1,10.74-6.24,12.15,12.15,0,0,1,4.14.72l46.56-101.49A12.35,12.35,0,0,1,912,560.8l-17.91-8.21-4.12,9a10.41,10.41,0,0,1,4.16,13.28,10.39,10.39,0,0,1-12.78,5.51l-4.16,9.06a26.57,26.57,0,0,1-22.13,48.26l-4.16,9.05a10.39,10.39,0,0,1-5.29,19.34,10.16,10.16,0,0,1-3.33-.55Z"/><path class="cls-19" d="M842,602.46a25.49,25.49,0,1,0,33.8-12.54A25.49,25.49,0,0,0,842,602.46Zm31.31-7.12A19.52,19.52,0,1,1,847.43,605,19.52,19.52,0,0,1,873.32,595.34Z"/><path class="cls-3" d="M865.16,639.66h0a26.2,26.2,0,0,1-11.06-2.43,26.57,26.57,0,0,1,11.1-50.72,26.27,26.27,0,0,1,11,2.43,26.57,26.57,0,0,1-11.09,50.72Zm0-51a24.42,24.42,0,1,0,10.16,2.23A24.24,24.24,0,0,0,865.2,588.67Zm0,45a20.6,20.6,0,0,1-18.72-29.19,20.68,20.68,0,0,1,18.74-12,20.61,20.61,0,0,1,18.71,29.2A20.63,20.63,0,0,1,865.17,633.69Zm0-39.05a18.44,18.44,0,0,0-7.7,35.21,18.28,18.28,0,0,0,7.68,1.69,18.5,18.5,0,0,0,16.77-10.76,18.44,18.44,0,0,0-16.75-26.14Z"/><path class="cls-19" d="M837.18,651.79a9.31,9.31,0,1,0,12.35-4.59A9.29,9.29,0,0,0,837.18,651.79Z"/><path class="cls-3" d="M845.64,666.06h0a10.39,10.39,0,0,1-9.44-14.73,10.39,10.39,0,1,1,9.44,14.73Zm0-18.63a8.24,8.24,0,0,0-7.73,11.1,8.28,8.28,0,0,0,7.72,5.38,8.24,8.24,0,1,0,0-16.48Z"/><path class="cls-19" d="M876.25,566.62A9.31,9.31,0,1,0,888.59,562,9.32,9.32,0,0,0,876.25,566.62Z"/><path class="cls-3" d="M884.7,580.9h0a10.38,10.38,0,1,1,9.46-6.06A10.44,10.44,0,0,1,884.7,580.9Zm0-18.63a8.26,8.26,0,0,0-7.49,4.8,8.23,8.23,0,0,0,7.47,11.67h0a8.27,8.27,0,0,0,7.5-4.8,8.23,8.23,0,0,0-7.48-11.67Z"/><path class="cls-21" d="M847.43,605a19.52,19.52,0,1,0,25.89-9.61A19.51,19.51,0,0,0,847.43,605Z"/><path class="cls-3" d="M865.17,633.69h0a20.6,20.6,0,0,1-18.72-29.19,20.68,20.68,0,0,1,18.74-12,20.61,20.61,0,0,1,18.71,29.2A20.63,20.63,0,0,1,865.17,633.69Zm0-39.05a18.44,18.44,0,0,0-7.7,35.21,18.28,18.28,0,0,0,7.68,1.69h0a18.5,18.5,0,0,0,16.77-10.76,18.44,18.44,0,0,0-16.75-26.14Z"/><path class="cls-22" d="M746.47,521.07v169.2h90.12V521.07Zm82.38,148.74a12.73,12.73,0,0,0-12.72,12.72h-49.2a12.73,12.73,0,0,0-12.72-12.72V541.53a12.73,12.73,0,0,0,12.72-12.72h49.2a12.73,12.73,0,0,0,12.72,12.72Z"/><path class="cls-3" d="M836.59,691.35H746.47a1.08,1.08,0,0,1-1.08-1.08V521.07a1.08,1.08,0,0,1,1.08-1.08h90.12a1.08,1.08,0,0,1,1.08,1.08v169.2A1.08,1.08,0,0,1,836.59,691.35Zm-89-2.16h88v-167h-88Zm68.58-5.58h-49.2a1.08,1.08,0,0,1-1.08-1.08,11.65,11.65,0,0,0-11.64-11.64,1.08,1.08,0,0,1-1.08-1.08V541.53a1.08,1.08,0,0,1,1.08-1.08,11.65,11.65,0,0,0,11.64-11.64,1.08,1.08,0,0,1,1.08-1.08h49.2a1.08,1.08,0,0,1,1.08,1.08,11.65,11.65,0,0,0,11.64,11.64,1.08,1.08,0,0,1,1.08,1.08V669.81a1.08,1.08,0,0,1-1.08,1.08,11.65,11.65,0,0,0-11.64,11.64A1.08,1.08,0,0,1,816.13,683.61ZM768,681.45H815.1a13.81,13.81,0,0,1,12.67-12.67V542.56a13.8,13.8,0,0,1-12.67-12.68H768a13.8,13.8,0,0,1-12.67,12.68V668.78A13.8,13.8,0,0,1,768,681.45Z"/><path class="cls-21" d="M781,658.52A10.51,10.51,0,0,1,791.53,648V634.43a28.76,28.76,0,0,1,0-57.52V563.33a10.51,10.51,0,0,1,0-21v-13.5h-24.6a12.73,12.73,0,0,1-12.72,12.72V669.81a12.73,12.73,0,0,1,12.72,12.72h24.6V669A10.51,10.51,0,0,1,781,658.52Z"/><path class="cls-3" d="M791.53,683.61h-24.6a1.08,1.08,0,0,1-1.08-1.08,11.65,11.65,0,0,0-11.64-11.64,1.08,1.08,0,0,1-1.08-1.08V541.53a1.08,1.08,0,0,1,1.08-1.08,11.65,11.65,0,0,0,11.64-11.64,1.08,1.08,0,0,1,1.08-1.08h24.6a1.08,1.08,0,0,1,1.08,1.08v13.5a1.08,1.08,0,0,1-1.08,1.08,9.43,9.43,0,0,0,0,18.86,1.08,1.08,0,0,1,1.08,1.08v13.58a1.08,1.08,0,0,1-1.08,1.08,27.68,27.68,0,1,0,0,55.36,1.08,1.08,0,0,1,1.08,1.08V648a1.08,1.08,0,0,1-1.08,1.08,9.43,9.43,0,0,0,0,18.86,1.08,1.08,0,0,1,1.08,1.08v13.5A1.08,1.08,0,0,1,791.53,683.61ZM768,681.45h22.49v-11.4a11.58,11.58,0,0,1,0-23.06V635.48a29.83,29.83,0,0,1,0-59.63v-11.5a11.59,11.59,0,0,1,0-23.07v-11.4H768a13.8,13.8,0,0,1-12.67,12.68V668.78A13.8,13.8,0,0,1,768,681.45Z"/><path class="cls-21" d="M816.13,528.81h-24.6v13.5a10.51,10.51,0,0,1,0,21v13.58a28.76,28.76,0,0,1,0,57.52V648a10.51,10.51,0,0,1,0,21v13.5h24.6a12.73,12.73,0,0,1,12.72-12.72V541.53A12.73,12.73,0,0,1,816.13,528.81Z"/><path class="cls-3" d="M816.13,683.61h-24.6a1.09,1.09,0,0,1-1.08-1.08V669a1.08,1.08,0,0,1,1.08-1.08,9.43,9.43,0,1,0,0-18.86,1.08,1.08,0,0,1-1.08-1.08V634.43a1.08,1.08,0,0,1,1.08-1.08,27.68,27.68,0,0,0,0-55.36,1.08,1.08,0,0,1-1.08-1.08V563.33a1.08,1.08,0,0,1,1.08-1.08,9.43,9.43,0,1,0,0-18.86,1.08,1.08,0,0,1-1.08-1.08v-13.5a1.08,1.08,0,0,1,1.08-1.08h24.6a1.08,1.08,0,0,1,1.08,1.08,11.65,11.65,0,0,0,11.64,11.64,1.08,1.08,0,0,1,1.08,1.08V669.81a1.08,1.08,0,0,1-1.08,1.08,11.65,11.65,0,0,0-11.64,11.64A1.08,1.08,0,0,1,816.13,683.61Zm-23.52-2.16H815.1a13.81,13.81,0,0,1,12.67-12.67V542.56a13.8,13.8,0,0,1-12.67-12.68H792.61v11.4a11.59,11.59,0,0,1,0,23.07v11.5a29.83,29.83,0,0,1,0,59.63V647a11.58,11.58,0,0,1,0,23.06Z"/><path class="cls-19" d="M762.78,605.67a28.75,28.75,0,1,0,28.75-28.76A28.76,28.76,0,0,0,762.78,605.67Zm28.75-22a22,22,0,1,1-22,22A22,22,0,0,1,791.53,583.64Z"/><path class="cls-3" d="M791.53,635.5a29.83,29.83,0,1,1,29.83-29.83A29.86,29.86,0,0,1,791.53,635.5Zm0-57.51a27.68,27.68,0,1,0,27.67,27.68A27.71,27.71,0,0,0,791.53,578Zm0,50.78a23.1,23.1,0,1,1,23.1-23.1A23.12,23.12,0,0,1,791.53,628.77Zm0-44a21,21,0,1,0,21,20.95A21,21,0,0,0,791.53,584.72Z"/><path class="cls-19" d="M781,658.52A10.51,10.51,0,1,0,791.53,648,10.51,10.51,0,0,0,781,658.52Z"/><path class="cls-3" d="M791.53,670.1a11.58,11.58,0,1,1,11.58-11.58A11.59,11.59,0,0,1,791.53,670.1Zm0-21a9.43,9.43,0,1,0,9.43,9.43A9.43,9.43,0,0,0,791.53,649.09Z"/><path class="cls-19" d="M781,552.82a10.51,10.51,0,1,0,10.5-10.51A10.51,10.51,0,0,0,781,552.82Z"/><path class="cls-3" d="M791.53,564.4a11.59,11.59,0,1,1,11.58-11.58A11.59,11.59,0,0,1,791.53,564.4Zm0-21a9.43,9.43,0,1,0,9.43,9.43A9.43,9.43,0,0,0,791.53,543.39Z"/><path class="cls-21" d="M791.53,627.69a22,22,0,1,0-22-22A22,22,0,0,0,791.53,627.69Z"/><path class="cls-3" d="M791.53,628.77a23.1,23.1,0,1,1,23.1-23.1A23.12,23.12,0,0,1,791.53,628.77Zm0-44a21,21,0,1,0,21,20.95A21,21,0,0,0,791.53,584.72Z"/><path class="cls-3" d="M735.68,581.48h-21.5a1.08,1.08,0,1,1,0-2.16h20.43V558.89a1.08,1.08,0,1,1,2.15,0V580.4A1.08,1.08,0,0,1,735.68,581.48Z"/><path class="cls-3" d="M876.33,714.94a1.14,1.14,0,0,1-.45-.1l-19.62-9a1.08,1.08,0,1,1,.9-2l18.63,8.55,25.68-56a1.08,1.08,0,1,1,2,.9L877.3,714.31a1,1,0,0,1-.6.56A1.21,1.21,0,0,1,876.33,714.94Z"/><path class="cls-3" d="M757.71,702.88h-22a1.07,1.07,0,0,1-1.07-1.08V691a1.08,1.08,0,1,1,2.15,0v9.7h21a1.08,1.08,0,0,1,0,2.16Z"/><path class="cls-3" d="M850.84,524.8a1,1,0,0,1-.45-.1,1.08,1.08,0,0,1-.53-1.43l4.5-9.82a1,1,0,0,1,.6-.56,1.06,1.06,0,0,1,.82,0l15.27,7a1.08,1.08,0,0,1-.9,2l-14.28-6.55-4,8.84A1.1,1.1,0,0,1,850.84,524.8Z"/><rect class="cls-3" x="419.25" y="438.52" width="5" height="5"/><path class="cls-3" d="M410.83,438.52v5h-8.42v-5Zm-16.84,0v5h-8.41v-5Z"/><polygon class="cls-3" points="377.16 438.52 377.16 443.52 374.66 443.52 374.66 446.02 369.66 446.02 369.66 438.52 377.16 438.52"/><path class="cls-3" d="M374.66,454.89v8.88h-5v-8.88Zm0,17.75v8.87h-5v-8.87Zm0,17.75v8.87h-5v-8.87Z"/><polygon class="cls-3" points="377.16 510.64 377.16 515.64 369.66 515.64 369.66 508.14 374.66 508.14 374.66 510.64 377.16 510.64"/><rect class="cls-3" x="385.81" y="510.64" width="8.65" height="5"/><polygon class="cls-3" points="410.61 510.64 410.61 518.14 405.61 518.14 405.61 515.64 403.11 515.64 403.11 510.64 410.61 510.64"/><path class="cls-3" d="M410.61,528.76v10.62h-5V528.76Zm0,21.25v10.62h-5V550Zm0,21.25v10.62h-5V571.26Zm0,21.24v10.63h-5V592.5Z"/><polygon class="cls-3" points="410.61 613.75 410.61 621.25 403.11 621.25 403.11 616.25 405.61 616.25 405.61 613.75 410.61 613.75"/><rect class="cls-3" x="387.35" y="616.25" width="5" height="5"/><rect class="cls-4" x="275.25" y="407.6" width="249.55" height="158.24"/><path class="cls-3" d="M526.3,567.35H273.75V406.1H526.3Zm-249.55-3H523.3V409.1H276.75Z"/><path class="cls-8" d="M257.26,639.66a13.25,13.25,0,1,1,13.24,13.25A13.25,13.25,0,0,1,257.26,639.66Z"/><path class="cls-8" d="M186.89,627.3l.79.32Z"/><path class="cls-8" d="M189.16,628.42c.17.11.36.2.54.32C189.52,628.62,189.33,628.53,189.16,628.42Z"/><path class="cls-8" d="M184.61,626.66c.26,0,.5.11.76.16C185.11,626.77,184.87,626.7,184.61,626.66Z"/><path class="cls-8" d="M185.37,652.49l-.76.17Z"/><path class="cls-8" d="M189.7,650.57c-.18.13-.37.22-.54.32C189.33,650.79,189.52,650.7,189.7,650.57Z"/><path class="cls-8" d="M191.8,648.77l-2.08,1.79A13.18,13.18,0,0,0,191.8,648.77Z"/><path class="cls-8" d="M187.68,651.7c-.26.12-.53.21-.79.32C187.15,651.91,187.42,651.82,187.68,651.7Z"/><path class="cls-8" d="M192.73,631.69a12.88,12.88,0,0,0-3-2.93l2.09,1.82A13.88,13.88,0,0,1,192.73,631.69Z"/><path class="cls-8" d="M192.53,647.89c.2-.25.41-.48.59-.73h0C192.94,647.42,192.73,647.64,192.53,647.89Z"/><path class="cls-8" d="M223.92,652.66l-.75-.17Z"/><path class="cls-8" d="M216.74,630.55l2.07-1.79A13,13,0,0,0,216.74,630.55Z"/><path class="cls-8" d="M216,631.43c-.19.25-.42.47-.59.73h0C215.59,631.9,215.81,631.68,216,631.43Z"/><path class="cls-8" d="M221.65,652c-.27-.11-.54-.2-.8-.32C221.11,651.82,221.38,651.91,221.65,652Z"/><path class="cls-8" d="M220.85,627.62l.8-.32Z"/><path class="cls-8" d="M223.17,626.82c.25-.05.49-.12.75-.16C223.66,626.7,223.42,626.77,223.17,626.82Z"/><path class="cls-8" d="M215.8,647.63a12.88,12.88,0,0,0,3,2.93l-2.1-1.83A14,14,0,0,1,215.8,647.63Z"/><path class="cls-8" d="M218.83,628.74c.17-.12.36-.21.55-.32C219.19,628.53,219,628.62,218.83,628.74Z"/><path class="cls-8" d="M219.38,650.89a3.76,3.76,0,0,1-.55-.32A3.76,3.76,0,0,0,219.38,650.89Z"/><path class="cls-8" d="M182.21,652.91a12.6,12.6,0,0,0,2.4-.25l.76-.17c.51-.13,1-.29,1.52-.47.26-.11.53-.2.79-.32a14.17,14.17,0,0,0,1.48-.81c.17-.1.36-.19.54-.32h0l2.08-1.79h0c.27-.27.48-.58.73-.87s.41-.47.59-.73h0a15.56,15.56,0,0,1,22.35.07c.1.14.23.26.33.4a14,14,0,0,0,.91,1.1l2.1,1.83h0a3.76,3.76,0,0,0,.55.32,12.26,12.26,0,0,0,1.47.81c.26.12.53.21.8.32a14.91,14.91,0,0,0,1.52.47l.75.17a12.69,12.69,0,0,0,2.4.25,13.25,13.25,0,1,0,0-26.5,12.69,12.69,0,0,0-2.4.25c-.26,0-.5.11-.75.16-.52.14-1,.3-1.52.48l-.8.32a12.2,12.2,0,0,0-1.47.8c-.19.11-.38.2-.55.32h0l0,0-2.07,1.79h0c-.26.27-.49.58-.73.87s-.41.47-.59.73h0a15.57,15.57,0,0,1-22.35-.07c-.1-.14-.23-.26-.33-.4a13.88,13.88,0,0,0-.92-1.11l-2.09-1.82,0,0h0c-.18-.12-.37-.21-.54-.32a14.08,14.08,0,0,0-1.48-.8l-.79-.32c-.5-.18-1-.34-1.52-.48-.26-.05-.5-.12-.76-.16a12.6,12.6,0,0,0-2.4-.25,13.25,13.25,0,0,0,0,26.5Z"/><path class="cls-8" d="M231.06,627.3c.28.1.54.21.8.32C231.6,627.51,231.34,627.4,231.06,627.3Z"/><path class="cls-8" d="M233.34,628.42c.18.11.37.2.55.32C233.71,628.62,233.52,628.53,233.34,628.42Z"/><path class="cls-8" d="M228.8,626.66c.25,0,.5.11.75.16C229.3,626.77,229.05,626.7,228.8,626.66Z"/><path class="cls-8" d="M229.55,652.49l-.75.17Z"/><path class="cls-8" d="M233.89,650.57a5.21,5.21,0,0,1-.55.32A5.21,5.21,0,0,0,233.89,650.57Z"/><path class="cls-8" d="M236,648.77l-2.08,1.79A13.18,13.18,0,0,0,236,648.77Z"/><path class="cls-8" d="M231.86,651.7c-.26.12-.52.21-.8.32C231.34,651.91,231.6,651.82,231.86,651.7Z"/><path class="cls-8" d="M236.91,631.69a12.88,12.88,0,0,0-3-2.93l2.1,1.82A13.76,13.76,0,0,1,236.91,631.69Z"/><path class="cls-8" d="M236.71,647.89c.19-.25.41-.48.59-.73h0C237.12,647.42,236.9,647.64,236.71,647.89Z"/><path class="cls-8" d="M268.1,652.66l-.75-.17Z"/><path class="cls-8" d="M260.91,630.55l2.09-1.79A13.18,13.18,0,0,0,260.91,630.55Z"/><path class="cls-8" d="M260.19,631.43c-.2.25-.42.47-.6.73h0C259.77,631.9,260,631.68,260.19,631.43Z"/><path class="cls-8" d="M265.83,652c-.27-.11-.54-.2-.79-.32C265.29,651.82,265.56,651.91,265.83,652Z"/><path class="cls-8" d="M265,627.62l.79-.32Z"/><path class="cls-8" d="M267.35,626.82c.24-.05.5-.12.75-.16C267.85,626.7,267.6,626.77,267.35,626.82Z"/><path class="cls-8" d="M260,647.63a13.12,13.12,0,0,0,3,2.93l-2.11-1.83A14,14,0,0,1,260,647.63Z"/><path class="cls-8" d="M263,628.74c.17-.12.36-.21.55-.32C263.37,628.53,263.18,628.62,263,628.74Z"/><path class="cls-8" d="M263.56,650.89a3.76,3.76,0,0,1-.55-.32A3.76,3.76,0,0,0,263.56,650.89Z"/><path class="cls-8" d="M209.56,649.53a7.07,7.07,0,0,1,.8.33A7.07,7.07,0,0,0,209.56,649.53Z"/><path class="cls-8" d="M211.83,650.65c.18.11.37.2.54.32C212.2,650.85,212,650.76,211.83,650.65Z"/><path class="cls-8" d="M207.29,648.89c.25,0,.5.11.75.17C207.79,649,207.55,648.93,207.29,648.89Z"/><path class="cls-8" d="M208,674.73c-.25.06-.5.12-.75.16C207.55,674.85,207.79,674.79,208,674.73Z"/><path class="cls-8" d="M212.37,672.81c-.17.12-.36.21-.54.32C212,673,212.2,672.93,212.37,672.81Z"/><path class="cls-8" d="M214.48,671l-2.09,1.8A13.87,13.87,0,0,0,214.48,671Z"/><path class="cls-8" d="M210.36,673.93c-.26.12-.52.22-.8.32C209.84,674.15,210.1,674.05,210.36,673.93Z"/><path class="cls-8" d="M215.41,653.92a12.93,12.93,0,0,0-3-2.93l2.11,1.83A13.61,13.61,0,0,1,215.41,653.92Z"/><path class="cls-8" d="M215.2,670.12c.2-.25.42-.48.6-.73h0C215.62,669.65,215.4,669.87,215.2,670.12Z"/><path class="cls-8" d="M246.6,674.89c-.26,0-.5-.1-.76-.16C246.1,674.79,246.34,674.85,246.6,674.89Z"/><path class="cls-8" d="M239.41,652.78l2.08-1.79A14.15,14.15,0,0,0,239.41,652.78Z"/><path class="cls-8" d="M238.69,653.67a8.3,8.3,0,0,0-.6.73h0A8.17,8.17,0,0,1,238.69,653.67Z"/><path class="cls-8" d="M244.33,674.25c-.28-.1-.54-.2-.8-.32C243.79,674.05,244.05,674.15,244.33,674.25Z"/><path class="cls-8" d="M243.53,649.86a7.07,7.07,0,0,1,.8-.33A7.07,7.07,0,0,0,243.53,649.86Z"/><path class="cls-8" d="M245.84,649.06c.26-.06.5-.13.76-.17C246.34,648.93,246.1,649,245.84,649.06Z"/><path class="cls-8" d="M238.48,669.86a13.12,13.12,0,0,0,3,2.94l-2.1-1.84A12.07,12.07,0,0,1,238.48,669.86Z"/><path class="cls-8" d="M241.51,651c.17-.12.36-.21.54-.32C241.87,650.76,241.68,650.85,241.51,651Z"/><path class="cls-8" d="M242.05,673.13c-.18-.11-.37-.2-.54-.32C241.68,672.93,241.87,673,242.05,673.13Z"/><path class="cls-8" d="M204.88,675.14a12.62,12.62,0,0,0,2.41-.25c.25,0,.5-.1.75-.16.52-.14,1-.3,1.52-.48.28-.1.54-.2.8-.32a14.82,14.82,0,0,0,1.47-.8c.18-.11.37-.2.54-.32h0l2.09-1.8h0c.26-.27.48-.58.72-.87s.42-.47.6-.73h0a15.55,15.55,0,0,1,22.34.07c.1.15.23.26.34.4a12.07,12.07,0,0,0,.91,1.1l2.1,1.84h0c.17.12.36.21.54.32a16.21,16.21,0,0,0,1.48.8c.26.12.52.22.8.32.49.18,1,.34,1.51.48.26.06.5.12.76.16a12.69,12.69,0,0,0,2.4.25,13.25,13.25,0,0,0,0-26.5,12.69,12.69,0,0,0-2.4.25c-.26,0-.5.11-.76.17-.51.14-1,.29-1.51.47a7.07,7.07,0,0,0-.8.33,14,14,0,0,0-1.48.79c-.18.11-.37.2-.54.32h0v0l-2.08,1.79h0c-.26.28-.49.58-.72.88a8.17,8.17,0,0,0-.6.72h0a15.56,15.56,0,0,1-22.34-.08c-.11-.14-.24-.26-.34-.4a13.61,13.61,0,0,0-.91-1.1L212.39,651v0h0c-.17-.12-.36-.21-.54-.32a13,13,0,0,0-1.47-.79,7.07,7.07,0,0,0-.8-.33c-.49-.18-1-.33-1.52-.47-.25-.06-.5-.13-.75-.17a12.62,12.62,0,0,0-2.41-.25,13.25,13.25,0,0,0,0,26.5Z"/><path class="cls-8" d="M209.56,605.07c.28.1.54.2.8.32C210.1,605.27,209.84,605.17,209.56,605.07Z"/><path class="cls-8" d="M211.83,606.19a5.89,5.89,0,0,1,.54.32A5.89,5.89,0,0,0,211.83,606.19Z"/><path class="cls-8" d="M207.29,604.42l.75.17Z"/><path class="cls-8" d="M208,630.26l-.75.17Z"/><path class="cls-8" d="M212.37,628.34a4.25,4.25,0,0,1-.54.32A4.25,4.25,0,0,0,212.37,628.34Z"/><path class="cls-8" d="M214.48,626.53l-2.09,1.8A12.81,12.81,0,0,0,214.48,626.53Z"/><path class="cls-8" d="M210.36,629.47l-.8.32Z"/><path class="cls-8" d="M215.41,609.46a13.16,13.16,0,0,0-3-2.94l2.11,1.83A12.21,12.21,0,0,1,215.41,609.46Z"/><path class="cls-8" d="M215.2,625.65c.2-.24.42-.47.6-.73h0C215.62,625.18,215.4,625.41,215.2,625.65Z"/><path class="cls-8" d="M246.6,630.43l-.76-.17Z"/><path class="cls-8" d="M239.41,608.32l2.08-1.8A14.21,14.21,0,0,0,239.41,608.32Z"/><path class="cls-8" d="M238.69,609.2a8,8,0,0,0-.6.73h0A8,8,0,0,1,238.69,609.2Z"/><path class="cls-8" d="M244.33,629.79l-.8-.32Z"/><path class="cls-8" d="M243.53,605.39c.26-.12.52-.22.8-.32C244.05,605.17,243.79,605.27,243.53,605.39Z"/><path class="cls-8" d="M245.84,604.59l.76-.17Z"/><path class="cls-8" d="M238.48,625.4a13.08,13.08,0,0,0,3,2.93l-2.1-1.83C239.06,626.15,238.77,625.77,238.48,625.4Z"/><path class="cls-8" d="M241.51,606.51a5.89,5.89,0,0,1,.54-.32A5.89,5.89,0,0,0,241.51,606.51Z"/><path class="cls-8" d="M242.05,628.66a4.25,4.25,0,0,1-.54-.32A4.25,4.25,0,0,0,242.05,628.66Z"/><path class="cls-8" d="M204.88,630.68a12.62,12.62,0,0,0,2.41-.25l.75-.17c.52-.14,1-.29,1.52-.47l.8-.32a13.08,13.08,0,0,0,1.47-.81,4.25,4.25,0,0,0,.54-.32h0l2.09-1.8h0c.26-.28.48-.59.72-.88s.42-.47.6-.73h0a15.57,15.57,0,0,1,22.34.07c.1.15.23.27.34.41.29.37.58.75.91,1.1l2.1,1.83h0a4.25,4.25,0,0,0,.54.32,14.17,14.17,0,0,0,1.48.81l.8.32c.49.18,1,.33,1.51.47l.76.17a12.6,12.6,0,0,0,2.4.25,13.25,13.25,0,0,0,0-26.5,13.47,13.47,0,0,0-2.4.24l-.76.17a15.59,15.59,0,0,0-1.51.48c-.28.1-.54.2-.8.32a12.45,12.45,0,0,0-1.48.8,5.89,5.89,0,0,0-.54.32h0l-2.08,1.8h0c-.26.27-.49.58-.72.87a8,8,0,0,0-.6.73h0a15.56,15.56,0,0,1-22.34-.07c-.11-.15-.24-.26-.34-.4a12.21,12.21,0,0,0-.91-1.11l-2.11-1.83h0a5.89,5.89,0,0,0-.54-.32,11.6,11.6,0,0,0-1.47-.8c-.26-.12-.52-.22-.8-.32a14.19,14.19,0,0,0-1.52-.48l-.75-.17a13.49,13.49,0,0,0-2.41-.24,13.25,13.25,0,0,0,0,26.5Z"/><path class="cls-8" d="M299,616.21h3.63v45.33H299Z"/><path class="cls-8" d="M319,638.88a23.25,23.25,0,0,1,43.44-11.56l-3.09,1.73a19.65,19.65,0,1,0,0,19.65l3.09,1.73A23.25,23.25,0,0,1,319,638.88Z"/><path class="cls-8" d="M399.55,650.59H378.4l-3.86,10.95h-4l16.39-45.33h4l16.39,45.33H403.4Zm-1.21-3.48L389,620.52l-9.36,26.59Z"/><path class="cls-8" d="M455.76,616.21v45.33h-3.18l-29.31-38.91v38.91h-3.62V616.21h3.17l29.31,38.91V616.21Z"/><path class="cls-8" d="M530,616.21l-13.22,45.33h-8.31l-10.05-36.26-9.9,36.26h-8.23l-13.37-45.33h7.85l9.82,34.15,9.67-34.15h8.39l9.74,34.3,9.9-34.3Z"/><path class="cls-8" d="M547.93,622.94v12.54H564v6.8H547.93v12.54h18.58v6.72h-26V616.21h26v6.73Z"/><path class="cls-8" d="M613.81,649.38c0,7.48-5.74,12.16-12.92,12.16H581.4V616.21h17.83c7.25,0,13.07,4.84,13.07,12.32a10.56,10.56,0,0,1-6,10A11,11,0,0,1,613.81,649.38ZM598.4,623.09h-9.67v12.54h9.67a6.42,6.42,0,0,0,6.49-6.35A6.24,6.24,0,0,0,598.4,623.09Zm8,25.38a6.43,6.43,0,0,0-6.57-6.35h-11.1v12.55h11.1A6.31,6.31,0,0,0,606.4,648.47Z"/><path class="cls-3" d="M313.91,602.5h-26.2l13.1-22.69Zm-21-3h15.81l-7.9-13.69Z"/><path class="cls-3" d="M719.41,574.5a10.16,10.16,0,1,1,10.16-10.15A10.17,10.17,0,0,1,719.41,574.5Zm0-15.31a5.16,5.16,0,1,0,5.16,5.16A5.17,5.17,0,0,0,719.41,559.19Z"/><path class="cls-3" d="M437.7,598.83a10.16,10.16,0,1,1,10.16-10.16A10.17,10.17,0,0,1,437.7,598.83Zm0-15.32a5.16,5.16,0,1,0,5.16,5.16A5.17,5.17,0,0,0,437.7,583.51Z"/><path class="cls-3" d="M247,471.48H220.8l13.09-22.69Zm-21-3H241.8l-7.91-13.69Z"/><path class="cls-3" d="M805.55,722.78h-26.2l13.1-22.69Zm-21-3h15.81l-7.91-13.68Z"/><path class="cls-3" d="M563.42,392.93a10.16,10.16,0,1,1,10.16-10.16A10.17,10.17,0,0,1,563.42,392.93Zm0-15.32a5.16,5.16,0,1,0,5.16,5.16A5.16,5.16,0,0,0,563.42,377.61Z"/><path class="cls-3" d="M794.78,472.39a10.16,10.16,0,1,1,10.16-10.16A10.17,10.17,0,0,1,794.78,472.39Zm0-15.32a5.16,5.16,0,1,0,5.16,5.16A5.17,5.17,0,0,0,794.78,457.07Z"/><path class="cls-3" d="M916.62,524.17H890.43l13.09-22.69Zm-21-3h15.81l-7.91-13.69Z"/></g></g></g></svg>