<svg xmlns="http://www.w3.org/2000/svg" viewBox="0 0 369 349"><defs><style>.cls-1,.cls-9{fill:#f1f2f1;}.cls-2{fill:#6d6d70;}.cls-3{fill:#fff;}.cls-3,.cls-5,.cls-7,.cls-9{stroke:#242122;stroke-linejoin:round;stroke-width:6px;}.cls-4{fill:#bbbcbf;}.cls-5{fill:#6595cc;}.cls-6{fill:#5f8ab9;}.cls-7{fill:none;}.cls-8{fill:#6578b0;}.cls-10{fill:#e6e6e7;}.cls-11{font-size:36px;fill:#201600;font-family:Arial-BoldMT, Arial;font-weight:700;}.cls-12{letter-spacing:-0.02em;}</style></defs><title>Asset 6</title><g id="Layer_2" data-name="Layer 2"><g id="Слой_1" data-name="Слой 1"><rect class="cls-1" x="158" y="283" width="75" height="50"/><path class="cls-2" d="M366,72.74C366,62.5,358.1,53,347.42,53H42.53C31.85,53,22,62.5,22,72.74V227H366Z"/><path class="cls-3" d="M22,227v39.29C22,276.53,31.85,283,42.53,283H347.42c10.68,0,18.58-6.47,18.58-16.71V227Z"/><path class="cls-4" d="M206.94,254.74a12,12,0,1,1-12-12A12,12,0,0,1,206.94,254.74Z"/><rect class="cls-3" x="144" y="333" width="101" height="13"/><rect class="cls-5" x="44" y="75" width="300" height="152"/><rect class="cls-6" x="66" y="94" width="259" height="40"/><rect class="cls-6" x="66" y="144" width="171" height="33"/><rect class="cls-6" x="253" y="144" width="71" height="33"/><rect class="cls-6" x="66" y="188" width="258" height="16"/><line class="cls-7" x1="253" y1="147" x2="311" y2="147"/><line class="cls-7" x1="253" y1="160" x2="299" y2="160"/><line class="cls-7" x1="253" y1="173" x2="270" y2="173"/><rect class="cls-8" x="59" y="89" width="114" height="13"/><rect class="cls-9" x="59" y="102" width="114" height="118"/><line class="cls-7" x1="65" y1="95" x2="72" y2="95"/><line class="cls-7" x1="76" y1="95" x2="85" y2="95"/><line class="cls-7" x1="90" y1="95" x2="96" y2="95"/><rect class="cls-10" x="67" y="109" width="14" height="103"/><rect class="cls-10" x="91" y="109" width="73" height="103"/><line class="cls-7" x1="85" y1="109" x2="85" y2="212"/><line class="cls-7" x1="71" y1="116" x2="76" y2="116"/><line class="cls-7" x1="71" y1="127" x2="76" y2="127"/><line class="cls-7" x1="71" y1="136" x2="76" y2="136"/><line class="cls-7" x1="71" y1="147" x2="76" y2="147"/><line class="cls-7" x1="71" y1="156" x2="76" y2="156"/><line class="cls-7" x1="71" y1="166" x2="76" y2="166"/><line class="cls-7" x1="71" y1="176" x2="76" y2="176"/><line class="cls-7" x1="71" y1="186" x2="76" y2="186"/><line class="cls-7" x1="71" y1="196" x2="76" y2="196"/><line class="cls-7" x1="71" y1="206" x2="76" y2="206"/><rect class="cls-4" x="96" y="115" width="63" height="4"/><rect class="cls-4" x="96" y="122" width="21" height="5"/><rect class="cls-4" x="122" y="122" width="7" height="5"/><rect class="cls-4" x="134" y="122" width="7" height="5"/><rect class="cls-4" x="137" y="147" width="8" height="3"/><rect class="cls-4" x="150" y="147" width="9" height="3"/><rect class="cls-4" x="96" y="130" width="63" height="5"/><rect class="cls-4" x="104" y="138" width="55" height="5"/><rect class="cls-4" x="96" y="147" width="35" height="3"/><rect class="cls-4" x="96" y="189" width="63" height="4"/><rect class="cls-4" x="96" y="196" width="45" height="5"/><rect class="cls-4" x="121" y="204" width="38" height="5"/><rect class="cls-4" x="138" y="181" width="21" height="4"/><rect class="cls-4" x="126" y="181" width="7" height="4"/><rect class="cls-4" x="96" y="204" width="21" height="5"/><rect class="cls-4" x="114" y="181" width="7" height="4"/><rect class="cls-4" x="110" y="157" width="9" height="4"/><rect class="cls-4" x="96" y="157" width="8" height="4"/><rect class="cls-4" x="96" y="173" width="63" height="4"/><rect class="cls-4" x="96" y="165" width="54" height="3"/><rect class="cls-4" x="123" y="157" width="36" height="4"/><rect class="cls-4" x="146" y="196" width="13" height="5"/><polygon class="cls-10" points="0 0 110 0 110 68 54.45 68 54.45 94 25.19 68 0 68 0 0"/><polygon class="cls-10" points="327 1 226 1 226 69 277 69 277 95 304.87 69 327 69 327 1"/><text class="cls-11" transform="translate(239.9 47.6)">CSS</text><text class="cls-11" transform="translate(6 46.83)">HTM<tspan class="cls-12" x="77.98" y="0">L</tspan></text></g></g></svg>