<svg xmlns="http://www.w3.org/2000/svg" viewBox="0 0 384 351.66"><defs><style>.cls-1,.cls-10{fill:#f1f2f1;}.cls-2{fill:#6d6d70;}.cls-15,.cls-3{fill:#fff;}.cls-10,.cls-11,.cls-13,.cls-3,.cls-5,.cls-8,.cls-9{stroke:#242122;stroke-linejoin:round;}.cls-10,.cls-11,.cls-3,.cls-5,.cls-8{stroke-width:6px;}.cls-4{fill:#bbbcbf;}.cls-5{fill:#6595cc;}.cls-6{fill:#5f8ab9;}.cls-7{fill:#88898b;}.cls-13,.cls-8{fill:none;}.cls-9{fill:#929396;}.cls-13,.cls-9{stroke-width:5.86px;}.cls-11,.cls-12{fill:#ebc74f;}.cls-14{fill:#d1d2d3;}</style></defs><title>Asset 9</title><g id="Layer_2" data-name="Layer 2"><g id="Слой_1" data-name="Слой 1"><rect class="cls-1" x="154.51" y="285.66" width="75" height="50"/><path class="cls-2" d="M362.51,75.4c0-10.23-7.89-19.74-18.58-19.74H39.05c-10.69,0-20.54,9.51-20.54,19.74V229.66h344Z"/><path class="cls-3" d="M18.51,229.66V269c0,10.24,9.85,16.7,20.54,16.7H343.93c10.69,0,18.58-6.46,18.58-16.7v-39.3Z"/><path class="cls-4" d="M203.46,257.4a12,12,0,1,1-12-12A12,12,0,0,1,203.46,257.4Z"/><rect class="cls-3" x="140.51" y="335.66" width="101" height="13"/><rect class="cls-5" x="40.51" y="77.66" width="300" height="152"/><rect class="cls-6" x="62.51" y="96.66" width="259" height="40"/><rect class="cls-6" x="62.51" y="146.66" width="171" height="33"/><rect class="cls-6" x="249.51" y="146.66" width="71" height="33"/><rect class="cls-6" x="62.51" y="190.66" width="258" height="16"/><path class="cls-7" d="M188.44,82h10.88c0-23,19.73-39.37,19.73-39.37L188.44.25,157.82,42.7S177.56,59,177.56,82Z"/><line class="cls-8" x1="188.16" x2="188.16" y2="38"/><path class="cls-9" d="M195.51,47.47c0,4.55-3.1,8.23-6.92,8.23s-6.92-3.68-6.92-8.23,3.1-8.22,6.92-8.22S195.51,42.93,195.51,47.47Z"/><rect class="cls-10" x="171.9" y="209.41" width="32.98" height="15.78"/><polygon class="cls-11" points="204.88 97.31 202.44 97.31 202.44 84.86 174.34 84.86 174.34 97.31 171.9 97.31 171.9 209.41 204.88 209.41 204.88 97.31"/><line class="cls-8" x1="179.34" y1="74.93" x2="197.84" y2="74.93"/><rect class="cls-10" x="242" y="104.32" width="139" height="34"/><rect class="cls-1" x="242" y="150.32" width="73" height="48"/><rect class="cls-12" x="327" y="150.32" width="54" height="48"/><line class="cls-8" x1="249" y1="159.32" x2="283" y2="159.32"/><line class="cls-8" x1="249" y1="173.32" x2="306" y2="173.32"/><line class="cls-8" x1="249" y1="188.32" x2="306" y2="188.32"/><line class="cls-8" x1="293" y1="125.32" x2="302" y2="125.32"/><line class="cls-8" x1="306" y1="125.32" x2="315" y2="125.32"/><line class="cls-8" x1="321" y1="125.32" x2="330" y2="125.32"/><line class="cls-13" x1="333.08" y1="155.48" x2="374.94" y2="193.1"/><line class="cls-13" x1="335.2" y1="195.22" x2="372.82" y2="153.36"/><rect class="cls-3" x="3" y="104.16" width="129" height="99"/><rect class="cls-14" x="14.63" y="116.41" width="106.8" height="76.55"/><polyline class="cls-13" points="13.8 166.49 58.15 144.26 101.53 168.38"/><polyline class="cls-13" points="82.97 158.06 99.07 144.26 121.12 158.06"/><path class="cls-15" d="M87.31,130.77a10.05,10.05,0,1,1-10-9.69A9.88,9.88,0,0,1,87.31,130.77Z"/></g></g></svg>