<svg xmlns="http://www.w3.org/2000/svg" viewBox="0 0 389 274"><defs><style>.cls-1,.cls-3{fill:#fff;}.cls-2{fill:#6d6d70;}.cls-10,.cls-11,.cls-12,.cls-3,.cls-5,.cls-7{stroke:#242122;stroke-linejoin:round;}.cls-10,.cls-12,.cls-3,.cls-5,.cls-7{stroke-width:6px;}.cls-4{fill:#bbbcbf;}.cls-5{fill:#6595cc;}.cls-6{fill:#5f8ab9;}.cls-7,.cls-8{fill:#f1f2f1;}.cls-9{fill:#ebc74f;}.cls-10,.cls-11{fill:none;}.cls-11{stroke-width:5.86px;}.cls-12{fill:#d1d2d3;}</style></defs><title>Asset 4</title><g id="Layer_2" data-name="Layer 2"><g id="Слой_1" data-name="Слой 1"><rect class="cls-1" x="166" y="213" width="69" height="45"/><path class="cls-2" d="M360,18.25C360,8.76,352,0,342.12,0H59.51C49.6,0,40,8.76,40,18.25V162H360Z"/><path class="cls-3" d="M40,162v35.66C40,207.15,49.6,213,59.51,213H342.12C352,213,360,207.15,360,197.66V162Z"/><path class="cls-4" d="M211.91,187a11.09,11.09,0,1,1-11.09-11.09A11.1,11.1,0,0,1,211.91,187Z"/><rect class="cls-3" x="153" y="258" width="94" height="13"/><rect class="cls-5" x="61" y="19" width="278" height="143"/><rect class="cls-6" x="80" y="39" width="242" height="36"/><rect class="cls-6" x="80" y="84" width="160" height="31"/><rect class="cls-6" x="256" y="84" width="64" height="31"/><rect class="cls-6" x="80" y="125" width="240" height="15"/><rect class="cls-7" x="247" y="41" width="139" height="34"/><rect class="cls-8" x="247" y="87" width="73" height="48"/><rect class="cls-9" x="332" y="87" width="54" height="48"/><line class="cls-10" x1="254" y1="96" x2="288" y2="96"/><line class="cls-10" x1="254" y1="110" x2="311" y2="110"/><line class="cls-10" x1="254" y1="125" x2="311" y2="125"/><line class="cls-10" x1="298" y1="62" x2="307" y2="62"/><line class="cls-10" x1="311" y1="62" x2="320" y2="62"/><line class="cls-10" x1="326" y1="62" x2="335" y2="62"/><line class="cls-11" x1="338.08" y1="92.16" x2="379.94" y2="129.78"/><line class="cls-11" x1="340.2" y1="131.9" x2="377.82" y2="90.04"/><path class="cls-3" d="M190,107.79v-24c0-2.21-2-4.77-4.24-4.77h-24c-2.21,0-5.74,2.56-5.74,4.77V86H69v19h87v2.79c0,2.21,3.53,4.21,5.74,4.21h24A4.39,4.39,0,0,0,190,107.79Z"/><rect class="cls-9" y="79" width="53" height="33"/><rect class="cls-12" x="53" y="69" width="16" height="53"/><line class="cls-10" x1="37" y1="93" x2="37" y2="79"/><line class="cls-10" x1="23" y1="93" x2="23" y2="79"/></g></g></svg>