<svg xmlns="http://www.w3.org/2000/svg" viewBox="0 0 448.04 348.3"><defs><style>.cls-1{fill:none;stroke-width:5.86px;stroke-dasharray:10.26 10.26;}.cls-1,.cls-4,.cls-6{stroke:#242122;stroke-linejoin:round;}.cls-2{fill:#f1f2f1;}.cls-3{fill:#6d6d70;}.cls-11,.cls-4,.cls-9{fill:#fff;}.cls-4,.cls-6{stroke-width:6px;}.cls-5{fill:#bbbcbf;}.cls-6{fill:#6595cc;}.cls-7{fill:#72b55f;}.cls-8{fill:#5f8ab9;}.cls-10{fill:#020608;}.cls-11{font-size:36px;font-family:Arial-BoldMT, Arial;font-weight:700;}</style></defs><title>Asset 5</title><g id="Layer_2" data-name="Layer 2"><g id="Слой_1" data-name="Слой 1"><path class="cls-1" d="M445.11,61.73a58.8,58.8,0,1,1-58.8-58.8A58.81,58.81,0,0,1,445.11,61.73Z"/><rect class="cls-2" x="187.81" y="282.3" width="75" height="50"/><path class="cls-3" d="M395.81,72c0-10.24-7.9-19.74-18.59-19.74H72.34C61.65,52.3,51.81,61.8,51.81,72V226.3h344Z"/><path class="cls-4" d="M51.81,226.3v39.29c0,10.24,9.84,16.71,20.53,16.71H377.22c10.69,0,18.59-6.47,18.59-16.71V226.3Z"/><path class="cls-5" d="M236.75,254a12,12,0,1,1-12-12A12,12,0,0,1,236.75,254Z"/><rect class="cls-4" x="173.81" y="332.3" width="101" height="13"/><rect class="cls-6" x="73.81" y="74.3" width="300" height="152"/><rect class="cls-7" x="95.81" y="93.3" width="259" height="40"/><rect class="cls-8" x="95.81" y="143.3" width="171" height="33"/><rect class="cls-8" x="282.81" y="143.3" width="71" height="33"/><rect class="cls-8" x="95.81" y="187.3" width="258" height="16"/><path class="cls-9" d="M83.47,222.63a36.61,36.61,0,0,0-2.64-4.48L86.28,206A48.52,48.52,0,0,0,67,193.22l-9.08,9.72a36.86,36.86,0,0,0-10.34-.66L39.82,191.5a49.15,49.15,0,0,0-11,3.89,48.34,48.34,0,0,0-9.74,6.39L23,214.5a37.23,37.23,0,0,0-5.74,8.64L4,224.48a48.36,48.36,0,0,0-1.48,23.08l13,3a36.58,36.58,0,0,0,2,4.81,35.6,35.6,0,0,0,2.64,4.48L14.68,272A48.6,48.6,0,0,0,34,284.77L43,275.05a37,37,0,0,0,10.35.66l7.77,10.78a48.32,48.32,0,0,0,20.72-10.28L78,263.49a36.55,36.55,0,0,0,5.74-8.63l13.22-1.35a48.52,48.52,0,0,0,1.47-23.09l-13-3A38.83,38.83,0,0,0,83.47,222.63ZM61,260.23a23.7,23.7,0,1,1,10.71-31.77A23.68,23.68,0,0,1,61,260.23Z"/><path class="cls-10" d="M61.14,288.3a1.79,1.79,0,0,1-1.46-.75l-7.19-10a39,39,0,0,1-8.83-.56l-8.38,9a1.79,1.79,0,0,1-1.93.47,50.57,50.57,0,0,1-20-13.27,1.79,1.79,0,0,1-.32-2l5-11.22a38.88,38.88,0,0,1-2.2-3.85,38,38,0,0,1-1.73-4.07l-12-2.77a1.82,1.82,0,0,1-1.37-1.45,50.58,50.58,0,0,1,1.53-23.94,1.83,1.83,0,0,1,1.54-1.26l12.23-1.24a38.09,38.09,0,0,1,4.9-7.37l-3.61-11.76a1.82,1.82,0,0,1,.56-1.91A51,51,0,0,1,28,193.77a51.54,51.54,0,0,1,11.38-4,1.81,1.81,0,0,1,1.86.71l7.2,10a38.33,38.33,0,0,1,8.83.57l8.39-9a1.79,1.79,0,0,1,1.93-.47,50.78,50.78,0,0,1,20,13.27,1.82,1.82,0,0,1,.31,2l-5,11.22a38.75,38.75,0,0,1,2.2,3.84,40.39,40.39,0,0,1,1.73,4.07l12,2.77a1.78,1.78,0,0,1,1.37,1.44,50.61,50.61,0,0,1-1.52,24,1.83,1.83,0,0,1-1.54,1.26l-12.23,1.24a38.71,38.71,0,0,1-4.9,7.37l3.6,11.76a1.81,1.81,0,0,1-.56,1.91,50.16,50.16,0,0,1-21.49,10.67A2.58,2.58,0,0,1,61.14,288.3Zm-7.77-14.4a1.83,1.83,0,0,1,1.47.75l7.06,9.8A46.35,46.35,0,0,0,71.32,281a47.26,47.26,0,0,0,8.46-5.4L76.25,264a1.79,1.79,0,0,1,.37-1.73,34.74,34.74,0,0,0,5.46-8.21,1.8,1.8,0,0,1,1.45-1l12-1.22a47.1,47.1,0,0,0,1.27-19.93L85,229.19a1.8,1.8,0,0,1-1.3-1.18,39.16,39.16,0,0,0-1.89-4.59,36.08,36.08,0,0,0-2.51-4.26,1.79,1.79,0,0,1-.15-1.75l5-11a47.05,47.05,0,0,0-16.63-11l-8.25,8.85a1.78,1.78,0,0,1-1.69.53,35.2,35.2,0,0,0-9.84-.63,1.8,1.8,0,0,1-1.6-.74l-7.07-9.8a46.74,46.74,0,0,0-17.88,8.87L24.72,214a1.79,1.79,0,0,1-.38,1.73,35.43,35.43,0,0,0-5.46,8.22,1.8,1.8,0,0,1-1.44,1l-12,1.23a46.72,46.72,0,0,0-1.27,19.92l11.78,2.72A1.81,1.81,0,0,1,17.24,250a35.5,35.5,0,0,0,1.88,4.57,33.46,33.46,0,0,0,2.51,4.26,1.83,1.83,0,0,1,.15,1.77l-5,11a46.93,46.93,0,0,0,16.64,11l8.24-8.84a1.79,1.79,0,0,1,1.69-.54,35.32,35.32,0,0,0,9.84.63Zm-2.87-9.39a25.52,25.52,0,1,1,11.32-2.66A25.35,25.35,0,0,1,50.5,264.51Zm0-47.42a21.91,21.91,0,1,0,9.75,41.52,21.9,21.9,0,0,0-9.75-41.52Z"/><path class="cls-9" d="M39.94,217.76a23.7,23.7,0,1,0,31.78,10.7A23.7,23.7,0,0,0,39.94,217.76Z"/><path class="cls-10" d="M50.5,264.51h0a25.52,25.52,0,1,1,11.32-2.66A25.35,25.35,0,0,1,50.5,264.51Zm0-47.42a21.91,21.91,0,1,0,9.75,41.52,21.9,21.9,0,0,0-9.75-41.52Z"/><text class="cls-11" transform="translate(156.78 125.64)">DOMAIN</text></g></g></svg>