<svg xmlns="http://www.w3.org/2000/svg" viewBox="0 0 67.21 98.09"><defs><style>.cls-1{stroke:#6595cc;fill:none;}</style></defs><title>1Asset 2</title><g id="Layer_2" data-name="Layer 2"><g id="Слой_1" data-name="Слой 1"><path class="cls-1" d="M66.89,17.84A4.72,4.72,0,0,0,65.5,14.6L52.13,1.36a4.7,4.7,0,0,0-6.65,0L1.36,46A4.71,4.71,0,0,0,0,49.29a4.77,4.77,0,0,0,1.4,3.32L46,96.72a4.68,4.68,0,0,0,6.65,0L65.85,83.32a4.71,4.71,0,0,0,0-6.65L38,49.1,65.53,21.24a4.69,4.69,0,0,0,1.36-3.4Z"/></g></g></svg>