<svg version="1.1" id="Calque_1" xmlns="http://www.w3.org/2000/svg" xmlns:xlink="http://www.w3.org/1999/xlink" x="0px" y="0px"
	 width="512px" height="512px" viewBox="0 0 512 512" enable-background="new 0 0 512 512" xml:space="preserve">
<g>
	<g id="calendar_1_" fill="#ff6300">
		<path d="M468.344,48H399V16c0-8.848-7.152-16-16-16s-16,7.152-16,16v32h-96V16c0-8.848-7.168-16-16-16
			s-16,7.152-16,16v32h-96V16c0-8.848-7.168-16-16-16s-16,7.152-16,16v32H41.672C18.104,48-1,67.088-1,90.656v378.672
			C-1,492.896,18.104,512,41.672,512h426.672C491.912,512,511,492.896,511,469.328V90.656C511,67.088,491.912,48,468.344,48z
			 M479,469.328c0,5.888-4.784,10.672-10.656,10.672H41.672C35.784,480,31,475.216,31,469.328V90.656C31,84.784,35.784,80,41.672,80
			H111v32c0,8.848,7.168,16,16,16s16-7.152,16-16V80h96v32c0,8.848,7.168,16,16,16s16-7.152,16-16V80h96v32c0,8.848,7.152,16,16,16
			s16-7.152,16-16V80h69.344C474.216,80,479,84.784,479,90.656V469.328z"/>
		<rect x="111" y="192" width="64" height="48"/>
		<rect x="111" y="272" width="64" height="48"/>
		<rect x="111" y="352" width="64" height="48"/>
		<rect x="223" y="352" width="64" height="48"/>
		<rect x="223" y="272" width="64" height="48"/>
		<rect x="223" y="192" width="64" height="48"/>
		<rect x="335" y="352" width="64" height="48"/>
		<rect x="335" y="272" width="64" height="48"/>
		<rect x="335" y="192" width="64" height="48"/>
	</g>
</g>
</svg>
