<svg xmlns="http://www.w3.org/2000/svg" viewBox="0 0 46.36 29.05"><defs><style>.cls-1{fill:none;}.cls-2{fill:#fff;}</style></defs><title>Asset 1</title><g id="Layer_2" data-name="Layer 2"><g id="Слой_1" data-name="Слой 1"><line class="cls-1" x1="3.14" y1="5.32" x2="20.64" y2="22.03"/><path class="cls-2" d="M.67,10.82h0a3.33,3.33,0,0,1,4.66-.66L22.45,23a3.33,3.33,0,0,1,.66,4.66h0a3.34,3.34,0,0,1-4.67.66L1.33,15.49A3.33,3.33,0,0,1,.67,10.82Z"/><path class="cls-2" d="M45.39,1h0a3.32,3.32,0,0,1,0,4.7L23,28.07a3.33,3.33,0,0,1-4.71,0h0a3.33,3.33,0,0,1,0-4.71L40.68,1A3.31,3.31,0,0,1,45.39,1Z"/></g></g></svg>