<svg xmlns="http://www.w3.org/2000/svg" viewBox="0 0 1500.48 861.53"><defs><style>.cls-1{fill:#bdbfc1;opacity:0.5;}.cls-2,.cls-9{fill:#020608;}.cls-2{opacity:0.66;}.cls-3{fill:#dbdee2;}.cls-4{opacity:0.8;}.cls-5,.cls-6{fill:#c4c4c4;}.cls-13,.cls-14,.cls-6{stroke:#242122;stroke-linejoin:round;}.cls-6{stroke-width:5.86px;}.cls-7{opacity:0.7;}.cls-8{fill:#fbe492;}.cls-10{fill:#fff;}.cls-11{fill:#dcc77f;}.cls-12{opacity:0.6;}.cls-13{fill:#d1d2d3;}.cls-13,.cls-14{stroke-width:6px;}.cls-14{fill:none;}.cls-15{fill:#a6a7aa;}.cls-16{fill:#374963;}.cls-17{fill:#425776;}.cls-18{fill:#c2536d;}.cls-19{fill:#e4e47d;}</style></defs><title>Asset 12</title><g id="Layer_2" data-name="Layer 2"><g id="Слой_1" data-name="Слой 1"><path class="cls-1" d="M570.16,99.28a35.12,35.12,0,0,0-2.48-4.22l5.13-11.41a45.66,45.66,0,0,0-18.12-12l-8.54,9.14a34.77,34.77,0,0,0-9.73-.62L529.1,70a46,46,0,0,0-10.32,3.66,45.44,45.44,0,0,0-9.16,6l3.66,12a34.91,34.91,0,0,0-5.4,8.12L495.45,101a45.6,45.6,0,0,0-1.39,21.71l12.2,2.82a34,34,0,0,0,4.33,8.73l-5.13,11.42a45.84,45.84,0,0,0,18.13,12l8.53-9.15a34.45,34.45,0,0,0,9.73.62l7.31,10.15a45.74,45.74,0,0,0,19.49-9.67l-3.66-12a35,35,0,0,0,5.4-8.13l12.43-1.27a45.6,45.6,0,0,0,1.39-21.71L572,103.79A36.32,36.32,0,0,0,570.16,99.28ZM549,134.65a22.3,22.3,0,1,1,10.07-29.89A22.29,22.29,0,0,1,549,134.65Z"/><path class="cls-2" d="M549.16,161.05a1.71,1.71,0,0,1-1.38-.71L541,151a36.64,36.64,0,0,1-8.3-.53l-7.89,8.46a1.68,1.68,0,0,1-1.81.43,47.55,47.55,0,0,1-18.81-12.47,1.7,1.7,0,0,1-.3-1.85l4.75-10.55A36,36,0,0,1,505,127l-11.28-2.6a1.72,1.72,0,0,1-1.29-1.36,47.48,47.48,0,0,1,1.44-22.52,1.69,1.69,0,0,1,1.45-1.18l11.5-1.17a36.27,36.27,0,0,1,4.6-6.93L508,80.17a1.71,1.71,0,0,1,.53-1.8,47,47,0,0,1,9.5-6.23,47.89,47.89,0,0,1,10.71-3.8,1.7,1.7,0,0,1,1.75.66l6.77,9.38a36.53,36.53,0,0,1,8.3.53l7.89-8.45a1.7,1.7,0,0,1,1.82-.44,47.61,47.61,0,0,1,18.8,12.48,1.7,1.7,0,0,1,.3,1.85L569.62,94.9a38.33,38.33,0,0,1,2.07,3.62,39.31,39.31,0,0,1,1.63,3.83l11.27,2.6a1.72,1.72,0,0,1,1.29,1.36,47.6,47.6,0,0,1-1.43,22.52A1.72,1.72,0,0,1,583,130l-11.5,1.17a37,37,0,0,1-4.61,6.93l3.38,11.06a1.68,1.68,0,0,1-.53,1.79,47.11,47.11,0,0,1-20.21,10A1.5,1.5,0,0,1,549.16,161.05Zm-7.31-13.55a1.7,1.7,0,0,1,1.38.71l6.65,9.22a44,44,0,0,0,16.81-8.34l-3.32-10.88a1.68,1.68,0,0,1,.35-1.62,33.15,33.15,0,0,0,5.14-7.73,1.68,1.68,0,0,1,1.36-1l11.3-1.15a44.12,44.12,0,0,0,1.2-18.74l-11.08-2.56a1.7,1.7,0,0,1-1.23-1.11A32.33,32.33,0,0,0,566.28,96a1.68,1.68,0,0,1-.15-1.65L570.79,84a44.12,44.12,0,0,0-15.64-10.38l-7.76,8.31a1.68,1.68,0,0,1-1.59.5,33.28,33.28,0,0,0-9.25-.59,1.69,1.69,0,0,1-1.51-.7l-6.65-9.22a45.25,45.25,0,0,0-8.86,3.27,44.57,44.57,0,0,0-8,5.08l3.34,10.88a1.73,1.73,0,0,1-.36,1.63,33.09,33.09,0,0,0-5.14,7.72,1.67,1.67,0,0,1-1.36,1l-11.3,1.16a44.07,44.07,0,0,0-1.2,18.73l11.09,2.56a1.73,1.73,0,0,1,1.23,1.12,33.3,33.3,0,0,0,1.76,4.3,33.93,33.93,0,0,0,2.36,4,1.67,1.67,0,0,1,.15,1.66l-4.67,10.38a44.38,44.38,0,0,0,15.65,10.38l7.76-8.32a1.69,1.69,0,0,1,1.58-.5,33.07,33.07,0,0,0,9.26.59Zm-2.7-8.83a24,24,0,1,1,10.65-2.5A23.84,23.84,0,0,1,539.15,138.67Zm0-44.6a20.6,20.6,0,1,0,9.17,39.05,20.6,20.6,0,0,0-9.17-39.05Z"/><path class="cls-3" d="M529.22,94.7a22.3,22.3,0,1,0,29.89,10.06A22.3,22.3,0,0,0,529.22,94.7Z"/><path class="cls-3" d="M539.15,138.67h0a24,24,0,1,1,10.65-2.5A23.84,23.84,0,0,1,539.15,138.67Zm0-44.6a20.6,20.6,0,1,0,9.17,39.05,20.6,20.6,0,0,0-9.17-39.05Z"/><g class="cls-4"><polygon class="cls-5" points="446.85 225.34 563.35 225 563.51 280.92 504.68 281.09 504.74 302.33 472.53 281.18 447.01 281.25 446.85 225.34"/><polyline class="cls-6" points="524.37 264.26 540.09 252.99 524.31 241.81"/><polyline class="cls-6" points="480.27 241.94 464.55 253.21 480.33 264.39"/><line class="cls-6" x1="513.23" y1="238.86" x2="494.12" y2="267.68"/></g><g class="cls-7"><path class="cls-8" d="M677.4,216l-4,10.14,35,13.75,4-10.13c4.83-11.27,13.43-17.6,19.47-19.76a47.67,47.67,0,1,0-55.31-21.73C681.31,195.85,681.54,204.46,677.4,216Z"/><path class="cls-9" d="M708.15,240.62l-35-13.75a.79.79,0,0,1-.45-1l4-10.13c4.06-11.34,3.83-19.68-.76-27a48.46,48.46,0,1,1,56.21,22.06c-6.09,2.18-14.3,8.41-19,19.32l-4,10.1A.78.78,0,0,1,708.15,240.62Zm-33.71-14.93L708,238.87l3.69-9.4c4.88-11.4,13.49-17.91,19.93-20.21a46.89,46.89,0,1,0-54.36-21.38c4.85,7.77,5.13,16.53.88,28.39Z"/><path class="cls-10" d="M690.93,233l27-68.77"/><path class="cls-9" d="M690.65,233.74a.78.78,0,0,1-.45-1l27-68.77a.79.79,0,1,1,1.46.58l-27,68.77A.79.79,0,0,1,690.65,233.74Z"/><line class="cls-10" x1="694.09" y1="172.12" x2="730.05" y2="186.24"/><path class="cls-9" d="M729.77,187l-36-14.13a.77.77,0,0,1-.45-1,.79.79,0,0,1,1-.45l36,14.12a.79.79,0,1,1-.57,1.47Z"/><polygon class="cls-11" points="726.51 184.86 702.25 204.2 697.63 173.52 726.51 184.86"/><path class="cls-9" d="M702,204.94a.8.8,0,0,1-.49-.62l-4.62-30.69a.8.8,0,0,1,.29-.73.81.81,0,0,1,.78-.12l28.88,11.35a.77.77,0,0,1,.49.61.78.78,0,0,1-.29.73l-24.26,19.35A.81.81,0,0,1,702,204.94Zm-3.35-30.19,4.21,28L725,185.09Z"/><rect class="cls-10" x="684.31" y="214.53" width="9.7" height="45.99" transform="translate(216.17 792.18) rotate(-68.56)"/><path class="cls-9" d="M708.5,251.18l-42.8-16.81a.79.79,0,0,1-.45-1l3.55-9a.79.79,0,0,1,1-.44l42.8,16.8a.79.79,0,0,1,.45,1l-3.55,9A.78.78,0,0,1,708.5,251.18Zm-41.49-18,41.34,16.24,3-7.57L670,225.63Z"/><path class="cls-10" d="M674.2,275.63a6.29,6.29,0,0,0,8.15-3.55l-11.71-4.6A6.28,6.28,0,0,0,674.2,275.63Z"/><path class="cls-9" d="M673.91,276.37a7.09,7.09,0,0,1-4-9.18.79.79,0,0,1,1-.44l11.71,4.6a.79.79,0,0,1,.44,1A7.09,7.09,0,0,1,673.91,276.37Zm-2.77-7.85a5.5,5.5,0,0,0,10.14,4Z"/><path class="cls-10" d="M669.44,235l-6.57,16.74a15.53,15.53,0,0,0,.76,13l7,2.75,11.71,4.6,7,2.75a15.49,15.49,0,0,0,9.4-9l6.57-16.74Z"/><path class="cls-9" d="M689.07,275.56l-25.73-10.1a.82.82,0,0,1-.4-.36,16.3,16.3,0,0,1-.8-13.66l6.57-16.73a.79.79,0,0,1,1-.45l35.89,14.1a.78.78,0,0,1,.45,1l-6.58,16.74a16.26,16.26,0,0,1-9.87,9.46A.75.75,0,0,1,689.07,275.56Zm-24.88-11.45L689.37,274a14.73,14.73,0,0,0,8.66-8.45l6.29-16L669.89,236l-6.29,16A14.79,14.79,0,0,0,664.19,264.11Z"/><path class="cls-9" d="M704.72,259l-.06,0-40.21-19.72a.78.78,0,0,1-.36-1.05.79.79,0,0,1,1-.36l40.21,19.72a.79.79,0,0,1-.63,1.44Z"/><path class="cls-9" d="M701.76,266.5l-.06,0-40.21-19.72a.78.78,0,0,1-.36-1,.8.8,0,0,1,1-.36l40.21,19.72a.78.78,0,0,1-.63,1.43Z"/></g><g class="cls-12"><rect class="cls-13" x="486.37" y="337.29" width="144" height="36" transform="translate(-101.89 400.7) rotate(-36.4)"/><polyline class="cls-14" points="616.91 313.37 628.18 305.06 656.66 343.69 587.45 394.73 634.33 458.31"/><rect class="cls-15" x="621.8" y="431.83" width="29" height="60" transform="translate(-149.91 467.75) rotate(-36.4)"/><line class="cls-14" x1="616.32" y1="459.17" x2="630.81" y2="448.48"/><line class="cls-14" x1="624.04" y1="469.63" x2="638.53" y2="458.95"/><line class="cls-14" x1="632.94" y1="481.7" x2="647.43" y2="471.02"/><line class="cls-14" x1="544.94" y1="358.98" x2="553.79" y2="352.45"/><line class="cls-14" x1="560.23" y1="347.71" x2="604.5" y2="315.07"/></g><line class="cls-14" x1="923.12" y1="443.05" x2="923.12" y2="462.05"/><g class="cls-7"><path class="cls-8" d="M392.27,505.35l10.52-2.76-9.54-36.39L382.72,469c-11.94,2.75-22.13-.47-27.43-4.07a47.68,47.68,0,1,0,15.06,57.48C373.68,514.08,380.5,508.82,392.27,505.35Z"/><path class="cls-9" d="M394,466l9.55,36.39a.79.79,0,0,1-.57,1l-10.52,2.76c-11.56,3.41-18.16,8.51-21.39,16.55a48.45,48.45,0,1,1-15.32-58.4c5.35,3.63,15.22,6.59,26.79,3.94l10.5-2.76A.79.79,0,0,1,394,466Zm7.82,36-9.14-34.87-9.77,2.56c-12.08,2.78-22.42-.34-28.07-4.18a46.89,46.89,0,1,0,14.79,56.51c3.41-8.5,10.32-13.89,22.4-17.46Z"/><path class="cls-10" d="M398,484.39l-71.47,18.75"/><path class="cls-9" d="M398.78,484.19a.79.79,0,0,1-.56,1L326.75,503.9a.79.79,0,0,1-.4-1.53l71.47-18.74A.79.79,0,0,1,398.78,484.19Z"/><line class="cls-10" x1="346.98" y1="517.75" x2="337.18" y2="480.38"/><path class="cls-9" d="M337.94,480.18l9.8,37.37a.78.78,0,1,1-1.52.39l-9.8-37.36a.79.79,0,1,1,1.52-.4Z"/><polygon class="cls-11" points="338.15 484.05 368.08 492.24 346.02 514.07 338.15 484.05"/><path class="cls-9" d="M368.85,492a.79.79,0,0,1-.21.76l-22.06,21.83a.8.8,0,0,1-.77.19.77.77,0,0,1-.55-.55l-7.87-30a.79.79,0,0,1,1-.95l29.93,8.19A.8.8,0,0,1,368.85,492Zm-22.41,20.51,20.12-19.91-27.3-7.47Z"/><rect class="cls-10" x="397.86" y="460.17" width="9.7" height="45.99" transform="translate(-109.39 117.96) rotate(-14.69)"/><path class="cls-9" d="M402.33,459.49,414,504a.79.79,0,0,1-.56,1l-9.38,2.46a.79.79,0,0,1-1-.56l-11.66-44.48a.79.79,0,0,1,.56-1l9.38-2.46A.79.79,0,0,1,402.33,459.49Zm9.95,44.12-11.27-43-7.86,2.06,11.27,43Z"/><path class="cls-10" d="M442.32,472.78a6.3,6.3,0,0,0-7.68-4.49l3.19,12.16A6.28,6.28,0,0,0,442.32,472.78Z"/><path class="cls-9" d="M443.08,472.58a7.09,7.09,0,0,1-5.05,8.64.79.79,0,0,1-1-.57l-3.19-12.16a.79.79,0,0,1,.56-1A7.08,7.08,0,0,1,443.08,472.58Zm-4.71,6.86a5.5,5.5,0,0,0-2.76-10.54Z"/><path class="cls-10" d="M412.29,500.58l17.4-4.56a15.51,15.51,0,0,0,10.05-8.28l-1.91-7.29-3.19-12.16L432.73,461a15.53,15.53,0,0,0-12.82-2.28l-17.4,4.56Z"/><path class="cls-9" d="M433.49,460.8l7,26.74a.78.78,0,0,1-.05.54,16.32,16.32,0,0,1-10.56,8.7l-17.4,4.56a.79.79,0,0,1-1-.56l-9.78-37.3a.79.79,0,0,1,.56-1l17.4-4.56a16.29,16.29,0,0,1,13.46,2.4A.78.78,0,0,1,433.49,460.8Zm5.41,26.85L432,461.49a14.73,14.73,0,0,0-11.93-2l-16.64,4.36,9.39,35.78,16.63-4.36A14.74,14.74,0,0,0,438.9,487.65Z"/><path class="cls-9" d="M410.86,458s0,.05,0,.07l7.79,44.1a.79.79,0,0,1-1.55.27l-7.79-44.1a.79.79,0,0,1,1.54-.34Z"/><path class="cls-9" d="M418.69,455.9s0,0,0,.06l7.79,44.11a.79.79,0,0,1-1.55.27l-7.79-44.1a.79.79,0,0,1,1.54-.34Z"/></g><path class="cls-1" d="M581.78,519.13a36.5,36.5,0,0,0-2.48-4.22l5.12-11.4a45.51,45.51,0,0,0-18.12-12l-8.53,9.14A34.79,34.79,0,0,0,548,500l-7.32-10.14a45.74,45.74,0,0,0-19.49,9.67l3.67,12a34.7,34.7,0,0,0-5.4,8.12l-12.44,1.26a45.48,45.48,0,0,0-1.38,21.71l12.19,2.82a34.41,34.41,0,0,0,1.86,4.52,32.66,32.66,0,0,0,2.48,4.22l-5.14,11.41a45.7,45.7,0,0,0,18.14,12l8.53-9.15a34.38,34.38,0,0,0,9.72.62l7.32,10.15a45.77,45.77,0,0,0,19.48-9.67l-3.65-12a34.76,34.76,0,0,0,5.4-8.13l12.43-1.26a45.78,45.78,0,0,0,1.38-21.72l-12.18-2.81A37.39,37.39,0,0,0,581.78,519.13ZM560.66,554.5a22.3,22.3,0,1,1,10.07-29.89A22.28,22.28,0,0,1,560.66,554.5Z"/><path class="cls-2" d="M560.78,580.9a1.7,1.7,0,0,1-1.38-.71l-6.76-9.38a36.64,36.64,0,0,1-8.3-.53l-7.89,8.46a1.7,1.7,0,0,1-1.82.44,47.75,47.75,0,0,1-18.81-12.48,1.7,1.7,0,0,1-.3-1.85l4.75-10.55a35.61,35.61,0,0,1-3.7-7.45l-11.28-2.61a1.7,1.7,0,0,1-1.29-1.36,47.48,47.48,0,0,1,1.44-22.52,1.71,1.71,0,0,1,1.45-1.18l11.5-1.17a36.32,36.32,0,0,1,4.61-6.93L519.61,500a1.72,1.72,0,0,1,.52-1.8,47.71,47.71,0,0,1,20.21-10,1.71,1.71,0,0,1,1.76.66l6.77,9.38a36,36,0,0,1,8.3.54l7.89-8.46a1.7,1.7,0,0,1,1.82-.44,47.61,47.61,0,0,1,18.8,12.48,1.72,1.72,0,0,1,.29,1.85l-4.74,10.56a36.13,36.13,0,0,1,2.07,3.61,38.94,38.94,0,0,1,1.63,3.83l11.27,2.6a1.71,1.71,0,0,1,1.3,1.36,47.6,47.6,0,0,1-1.44,22.52,1.7,1.7,0,0,1-1.45,1.19L583.11,551a36.59,36.59,0,0,1-4.6,6.93L581.89,569a1.71,1.71,0,0,1-.53,1.8,47.26,47.26,0,0,1-20.21,10A2.33,2.33,0,0,1,560.78,580.9Zm-7.32-13.55a1.68,1.68,0,0,1,1.38.71l6.65,9.22a43.69,43.69,0,0,0,8.86-3.26,44.41,44.41,0,0,0,8-5.08L575,558.06a1.69,1.69,0,0,1,.36-1.62,33.11,33.11,0,0,0,5.13-7.73,1.72,1.72,0,0,1,1.36-1l11.31-1.15a44.27,44.27,0,0,0,1.19-18.74l-11.07-2.56a1.69,1.69,0,0,1-1.23-1.11,35.47,35.47,0,0,0-1.78-4.31,32.45,32.45,0,0,0-2.36-4,1.7,1.7,0,0,1-.14-1.65l4.66-10.38a44.12,44.12,0,0,0-15.64-10.38L559,501.77a1.67,1.67,0,0,1-1.59.51,33,33,0,0,0-9.26-.6,1.66,1.66,0,0,1-1.5-.7L540,491.77a44.36,44.36,0,0,0-8.86,3.26,43.87,43.87,0,0,0-8,5.08L526.52,511a1.7,1.7,0,0,1-.36,1.63,33,33,0,0,0-5.13,7.72,1.72,1.72,0,0,1-1.36,1l-11.3,1.15a43.76,43.76,0,0,0-1.2,18.73l11.08,2.57a1.69,1.69,0,0,1,1.23,1.11,33.47,33.47,0,0,0,1.77,4.31,32.5,32.5,0,0,0,2.36,4,1.73,1.73,0,0,1,.15,1.66l-4.67,10.38a44.29,44.29,0,0,0,15.65,10.38l7.75-8.32a1.71,1.71,0,0,1,1.59-.5,33,33,0,0,0,9.25.59Zm-2.69-8.82A24,24,0,1,1,561.41,556,23.86,23.86,0,0,1,550.77,558.53Zm0-44.61a20.6,20.6,0,1,0,18.47,11.45A20.53,20.53,0,0,0,550.73,513.92Z"/><path class="cls-3" d="M540.84,514.55a22.3,22.3,0,1,0,29.89,10.06A22.3,22.3,0,0,0,540.84,514.55Z"/><path class="cls-3" d="M550.77,558.53h0A24,24,0,1,1,561.41,556,23.86,23.86,0,0,1,550.77,558.53Zm0-44.61a20.6,20.6,0,1,0,18.47,11.45A20.53,20.53,0,0,0,550.73,513.92Z"/><path class="cls-1" d="M333.42,305.64a36.5,36.5,0,0,0-2.48-4.22L336.06,290a45.6,45.6,0,0,0-18.12-12l-8.53,9.14a34.79,34.79,0,0,0-9.73-.62l-7.32-10.14A45.74,45.74,0,0,0,272.87,286l3.67,12a35,35,0,0,0-5.4,8.13l-12.44,1.26a45.48,45.48,0,0,0-1.38,21.71l12.19,2.82a34.41,34.41,0,0,0,1.86,4.52,32.66,32.66,0,0,0,2.48,4.22l-5.14,11.41a45.7,45.7,0,0,0,18.14,12l8.53-9.15a34.38,34.38,0,0,0,9.72.62l7.32,10.15A45.77,45.77,0,0,0,331.9,356l-3.65-12a34.76,34.76,0,0,0,5.4-8.13l12.43-1.26A45.78,45.78,0,0,0,347.46,313l-12.18-2.81A37.39,37.39,0,0,0,333.42,305.64ZM312.3,341a22.3,22.3,0,1,1,10.07-29.89A22.28,22.28,0,0,1,312.3,341Z"/><path class="cls-2" d="M312.42,367.41a1.7,1.7,0,0,1-1.38-.71l-6.76-9.38a36.64,36.64,0,0,1-8.3-.53l-7.89,8.46a1.7,1.7,0,0,1-1.82.44,47.75,47.75,0,0,1-18.81-12.48,1.72,1.72,0,0,1-.3-1.85l4.75-10.55a35.61,35.61,0,0,1-3.7-7.45l-11.28-2.61a1.7,1.7,0,0,1-1.29-1.36,47.48,47.48,0,0,1,1.44-22.52,1.71,1.71,0,0,1,1.45-1.18l11.5-1.17a36.32,36.32,0,0,1,4.61-6.93l-3.39-11.06a1.72,1.72,0,0,1,.52-1.8,47.71,47.71,0,0,1,20.21-10,1.71,1.71,0,0,1,1.76.66l6.77,9.38a36,36,0,0,1,8.3.54l7.89-8.46a1.7,1.7,0,0,1,1.82-.44,47.61,47.61,0,0,1,18.8,12.48,1.72,1.72,0,0,1,.29,1.85l-4.74,10.55a37.41,37.41,0,0,1,2.07,3.62,38,38,0,0,1,1.63,3.83l11.28,2.6a1.72,1.72,0,0,1,1.29,1.36,47.6,47.6,0,0,1-1.44,22.52,1.7,1.7,0,0,1-1.45,1.19l-11.5,1.17a36.59,36.59,0,0,1-4.6,6.93l3.38,11.06a1.68,1.68,0,0,1-.53,1.79,47.42,47.42,0,0,1-9.5,6.25,48.16,48.16,0,0,1-10.71,3.79A2.33,2.33,0,0,1,312.42,367.41Zm-7.32-13.55a1.68,1.68,0,0,1,1.38.71l6.65,9.22A43.91,43.91,0,0,0,330,355.45l-3.33-10.88A1.69,1.69,0,0,1,327,343a33.11,33.11,0,0,0,5.13-7.73,1.72,1.72,0,0,1,1.36-1l11.31-1.15A44.27,44.27,0,0,0,346,314.37l-11.07-2.56a1.69,1.69,0,0,1-1.23-1.11,35.47,35.47,0,0,0-1.78-4.31,32.45,32.45,0,0,0-2.36-4,1.7,1.7,0,0,1-.14-1.65l4.66-10.38A44.12,44.12,0,0,0,318.41,280l-7.76,8.31a1.67,1.67,0,0,1-1.59.51,33,33,0,0,0-9.26-.6,1.66,1.66,0,0,1-1.5-.7l-6.65-9.21a44.36,44.36,0,0,0-8.86,3.26,43.87,43.87,0,0,0-8,5.08l3.33,10.88a1.7,1.7,0,0,1-.36,1.63,33,33,0,0,0-5.13,7.72,1.72,1.72,0,0,1-1.36,1L260,309a43.76,43.76,0,0,0-1.2,18.73l11.08,2.57a1.69,1.69,0,0,1,1.23,1.11,32.48,32.48,0,0,0,4.13,8.31,1.73,1.73,0,0,1,.15,1.66l-4.67,10.38a44.29,44.29,0,0,0,15.65,10.38l7.75-8.32a1.71,1.71,0,0,1,1.59-.5,33,33,0,0,0,9.25.59ZM302.41,345a24,24,0,1,1,10.64-2.5A23.85,23.85,0,0,1,302.41,345Zm0-44.6a20.6,20.6,0,1,0,18.47,11.45A20.53,20.53,0,0,0,302.37,300.43Z"/><path class="cls-3" d="M292.48,301.06a22.3,22.3,0,1,0,29.89,10.06A22.3,22.3,0,0,0,292.48,301.06Z"/><path class="cls-3" d="M302.41,345h0a24,24,0,1,1,10.64-2.5A23.85,23.85,0,0,1,302.41,345Zm0-44.6a20.6,20.6,0,1,0,18.47,11.45A20.53,20.53,0,0,0,302.37,300.43Z"/><g class="cls-4"><polygon class="cls-5" points="773.99 303.91 866.13 232.62 900.35 276.85 853.82 312.85 866.82 329.65 828.39 332.52 808.2 348.14 773.99 303.91"/><polyline class="cls-6" points="859.17 287.5 864.76 268.99 845.43 269.75"/><polyline class="cls-6" points="810.6 296.7 805.01 315.21 824.33 314.45"/><line class="cls-6" x1="834.85" y1="274.16" x2="837.27" y2="308.66"/></g><path class="cls-1" d="M333.41,100.61a34.23,34.23,0,0,0-2.48-4.21L336.06,85a45.58,45.58,0,0,0-18.12-12L309.4,82.1a34.4,34.4,0,0,0-9.73-.63l-7.32-10.14A46.2,46.2,0,0,0,282,75a45.37,45.37,0,0,0-9.15,6l3.66,12a34.7,34.7,0,0,0-5.4,8.12l-12.43,1.26a45.53,45.53,0,0,0-1.39,21.72l12.19,2.81a34.41,34.41,0,0,0,1.86,4.52,35.12,35.12,0,0,0,2.48,4.22L268.71,147a45.63,45.63,0,0,0,18.13,12l8.53-9.15a34.82,34.82,0,0,0,9.73.63l7.31,10.14A45.44,45.44,0,0,0,331.9,151l-3.66-12a34.76,34.76,0,0,0,5.4-8.13l12.43-1.26a45.78,45.78,0,0,0,1.39-21.72l-12.19-2.81A35.83,35.83,0,0,0,333.41,100.61ZM312.29,136a22.3,22.3,0,1,1,10.07-29.88A22.28,22.28,0,0,1,312.29,136Z"/><path class="cls-2" d="M312.41,162.38a1.71,1.71,0,0,1-1.38-.71l-6.76-9.38a36.64,36.64,0,0,1-8.3-.53l-7.89,8.46a1.69,1.69,0,0,1-1.82.44,47.61,47.61,0,0,1-18.8-12.48,1.7,1.7,0,0,1-.3-1.85l4.75-10.55a35.61,35.61,0,0,1-3.7-7.45l-11.28-2.61a1.69,1.69,0,0,1-1.29-1.35,47.4,47.4,0,0,1,1.44-22.53,1.69,1.69,0,0,1,1.45-1.18L270,99.49a36.8,36.8,0,0,1,4.61-6.93L271.24,81.5a1.68,1.68,0,0,1,.53-1.79,47.08,47.08,0,0,1,9.5-6.24A47.89,47.89,0,0,1,292,69.67a1.69,1.69,0,0,1,1.75.67l6.77,9.38a35.42,35.42,0,0,1,8.3.53l7.89-8.46a1.7,1.7,0,0,1,1.82-.44,47.63,47.63,0,0,1,18.8,12.49,1.68,1.68,0,0,1,.3,1.84l-4.74,10.56a38.2,38.2,0,0,1,2.07,3.61,41.43,41.43,0,0,1,1.62,3.83l11.28,2.61a1.69,1.69,0,0,1,1.29,1.35,47.6,47.6,0,0,1-1.43,22.52,1.72,1.72,0,0,1-1.45,1.19l-11.5,1.17a36.64,36.64,0,0,1-4.61,6.93l3.38,11.06a1.71,1.71,0,0,1-.53,1.8,47.26,47.26,0,0,1-20.21,10A1.5,1.5,0,0,1,312.41,162.38Zm-7.31-13.54a1.71,1.71,0,0,1,1.38.7l6.64,9.22a43.91,43.91,0,0,0,16.82-8.34l-3.32-10.88a1.68,1.68,0,0,1,.35-1.62,33.15,33.15,0,0,0,5.14-7.73,1.7,1.7,0,0,1,1.36-1l11.3-1.15a44.11,44.11,0,0,0,1.2-18.74l-11.08-2.56a1.69,1.69,0,0,1-1.23-1.11,34.51,34.51,0,0,0-1.77-4.31,35.17,35.17,0,0,0-2.36-4,1.68,1.68,0,0,1-.15-1.65L334,85.33A44.14,44.14,0,0,0,318.4,74.94l-7.76,8.31a1.67,1.67,0,0,1-1.59.51,32.91,32.91,0,0,0-9.25-.59,1.72,1.72,0,0,1-1.51-.7l-6.65-9.22a44.29,44.29,0,0,0-16.82,8.34l3.33,10.88a1.7,1.7,0,0,1-.35,1.63,33.09,33.09,0,0,0-5.14,7.72,1.68,1.68,0,0,1-1.36,1L260,103.93a44.11,44.11,0,0,0-1.2,18.74l11.09,2.56a1.67,1.67,0,0,1,1.22,1.11,35,35,0,0,0,1.77,4.31,32.5,32.5,0,0,0,2.36,4,1.7,1.7,0,0,1,.15,1.66l-4.67,10.38a44.25,44.25,0,0,0,15.65,10.38l7.76-8.31a1.67,1.67,0,0,1,1.58-.51,33.07,33.07,0,0,0,9.26.59ZM302.4,140a24,24,0,1,1,10.65-2.51A23.83,23.83,0,0,1,302.4,140Zm0-44.61a20.6,20.6,0,1,0,18.47,11.45A20.49,20.49,0,0,0,302.37,95.4Z"/><path class="cls-3" d="M292.47,96a22.3,22.3,0,1,0,29.89,10.07A22.3,22.3,0,0,0,292.47,96Z"/><path class="cls-3" d="M302.4,140h0a24,24,0,1,1,10.65-2.51A23.83,23.83,0,0,1,302.4,140Zm0-44.61a20.6,20.6,0,1,0,18.47,11.45A20.49,20.49,0,0,0,302.37,95.4Z"/><g class="cls-7"><path class="cls-8" d="M925.43,439.62l-9.53-5.27-18.19,32.93,9.52,5.26c10.54,6.26,15.7,15.61,17.06,21.88a47.68,47.68,0,1,0,28.74-52C944.9,446.12,936.34,445.22,925.43,439.62Z"/><path class="cls-9" d="M897,466.9,915.21,434a.79.79,0,0,1,1.07-.3l9.53,5.26c10.71,5.5,19,6.36,26.89,2.77a48.45,48.45,0,1,1-29.19,52.85c-1.37-6.32-6.47-15.28-16.68-21.33l-9.5-5.25A.79.79,0,0,1,897,466.9Zm19.19-31.48L898.78,467l8.83,4.89c10.67,6.32,16,15.71,17.45,22.39a46.89,46.89,0,1,0,28.27-51.11c-8.34,3.8-17.06,2.93-28.26-2.82Z"/><path class="cls-10" d="M906.8,450.82l64.68,35.73"/><path class="cls-9" d="M906.11,450.44a.79.79,0,0,1,1.07-.31l64.68,35.73a.79.79,0,0,1,.3,1.07.78.78,0,0,1-1.06.31l-64.68-35.73A.79.79,0,0,1,906.11,450.44Z"/><line class="cls-10" x1="966.76" y1="461.88" x2="948.08" y2="495.69"/><path class="cls-9" d="M947.39,495.31l18.68-33.81a.79.79,0,1,1,1.38.76l-18.68,33.81a.79.79,0,0,1-1.38-.76Z"/><polygon class="cls-11" points="949.91 492.36 933.89 465.79 964.92 465.2 949.91 492.36"/><path class="cls-9" d="M933.2,465.41a.81.81,0,0,1,.68-.41l31-.58a.76.76,0,0,1,.69.38.78.78,0,0,1,0,.78l-15,27.16a.78.78,0,0,1-1.36,0l-16-26.58A.8.8,0,0,1,933.2,465.41Zm30.37.61-28.3.53,14.62,24.24Z"/><rect class="cls-10" x="879.56" y="443.62" width="45.99" height="9.7" transform="translate(73.54 1021.6) rotate(-61.08)"/><path class="cls-9" d="M886.51,465.87l22.23-40.25a.79.79,0,0,1,1.07-.31L918.3,430a.79.79,0,0,1,.31,1.07l-22.24,40.26a.79.79,0,0,1-1.07.3l-8.49-4.69A.78.78,0,0,1,886.51,465.87Zm23.23-38.8L888.26,466l7.11,3.93L916.85,431Z"/><path class="cls-10" d="M866.72,428.67a6.3,6.3,0,0,0,2.46,8.55l6.09-11A6.3,6.3,0,0,0,866.72,428.67Z"/><path class="cls-9" d="M866,428.29a7.1,7.1,0,0,1,9.62-2.77.79.79,0,0,1,.31,1.07l-6.09,11a.79.79,0,0,1-1.07.31A7.1,7.1,0,0,1,866,428.29Zm8.14-1.72a5.5,5.5,0,0,0-5.27,9.53Z"/><path class="cls-10" d="M907.64,429.25l-15.74-8.69a15.52,15.52,0,0,0-13-.94l-3.64,6.59-6.09,11-3.64,6.59a15.56,15.56,0,0,0,7.71,10.5L889,463Z"/><path class="cls-9" d="M864.86,443.43l13.36-24.19a.85.85,0,0,1,.41-.36,16.35,16.35,0,0,1,13.65,1l15.74,8.7a.77.77,0,0,1,.3,1.06l-18.64,33.75a.79.79,0,0,1-1.07.31L872.87,455a16.35,16.35,0,0,1-8.1-11A.79.79,0,0,1,864.86,443.43Zm14.6-23.17-13.09,23.67a14.76,14.76,0,0,0,7.26,9.69l15,8.32,17.89-32.38-15.05-8.32A14.75,14.75,0,0,0,879.46,420.26Z"/><path class="cls-9" d="M879.27,461.11a.21.21,0,0,1,0-.06l24.78-37.3a.79.79,0,0,1,1.09-.22.8.8,0,0,1,.22,1.09l-24.79,37.3a.78.78,0,0,1-1.34-.81Z"/><path class="cls-9" d="M872.19,457.19l0-.05L897,419.84a.78.78,0,0,1,1.09-.22.81.81,0,0,1,.22,1.09L873.53,458a.79.79,0,0,1-1.34-.82Z"/></g><path class="cls-1" d="M805,493a35.54,35.54,0,0,0-2.48-4.21l5.12-11.41a45.51,45.51,0,0,0-18.12-12L781,474.44a34.43,34.43,0,0,0-9.73-.63L764,463.67a45.74,45.74,0,0,0-19.49,9.67l3.67,12a34.7,34.7,0,0,0-5.4,8.12l-12.44,1.26a45.65,45.65,0,0,0-1.38,21.72l12.19,2.81a34.41,34.41,0,0,0,1.86,4.52,32.66,32.66,0,0,0,2.48,4.22l-5.14,11.41a45.66,45.66,0,0,0,18.14,12l8.53-9.15a34.42,34.42,0,0,0,9.73.62L784,553a45.47,45.47,0,0,0,19.48-9.67l-3.65-12a34.76,34.76,0,0,0,5.4-8.13L817.68,522a45.65,45.65,0,0,0,1.38-21.72l-12.18-2.81A37.39,37.39,0,0,0,805,493ZM783.9,528.32A22.3,22.3,0,1,1,794,498.44,22.28,22.28,0,0,1,783.9,528.32Z"/><path class="cls-2" d="M784,554.72a1.7,1.7,0,0,1-1.38-.71l-6.76-9.38a36.64,36.64,0,0,1-8.3-.53l-7.89,8.46a1.7,1.7,0,0,1-1.82.44,47.64,47.64,0,0,1-18.81-12.48,1.72,1.72,0,0,1-.3-1.85l4.75-10.55a35.61,35.61,0,0,1-3.7-7.45l-11.28-2.61a1.68,1.68,0,0,1-1.28-1.35,47.4,47.4,0,0,1,1.43-22.53,1.71,1.71,0,0,1,1.45-1.18l11.5-1.17a36.8,36.8,0,0,1,4.61-6.93l-3.39-11.06a1.68,1.68,0,0,1,.53-1.79,47.08,47.08,0,0,1,9.5-6.24,47.81,47.81,0,0,1,10.7-3.8,1.7,1.7,0,0,1,1.76.67l6.77,9.38a35.46,35.46,0,0,1,8.3.53l7.89-8.46a1.7,1.7,0,0,1,1.82-.44,47.63,47.63,0,0,1,18.8,12.49,1.68,1.68,0,0,1,.29,1.84l-4.74,10.56a36.13,36.13,0,0,1,2.07,3.61,38.94,38.94,0,0,1,1.63,3.83l11.28,2.6a1.72,1.72,0,0,1,1.29,1.36,47.6,47.6,0,0,1-1.44,22.52,1.7,1.7,0,0,1-1.45,1.19l-11.5,1.17a36.12,36.12,0,0,1-4.6,6.93l3.38,11.06a1.71,1.71,0,0,1-.53,1.8,47.26,47.26,0,0,1-20.21,10A1.55,1.55,0,0,1,784,554.72Zm-7.31-13.54a1.73,1.73,0,0,1,1.38.7l6.64,9.22a43.91,43.91,0,0,0,16.82-8.34l-3.33-10.88a1.69,1.69,0,0,1,.36-1.62,33.11,33.11,0,0,0,5.13-7.73,1.72,1.72,0,0,1,1.36-1l11.31-1.15a44.27,44.27,0,0,0,1.19-18.74l-11.07-2.56a1.69,1.69,0,0,1-1.23-1.11,36.15,36.15,0,0,0-1.78-4.31,32.45,32.45,0,0,0-2.36-4A1.7,1.7,0,0,1,801,488l4.66-10.37A44.14,44.14,0,0,0,790,467.28l-7.76,8.31a1.67,1.67,0,0,1-1.59.51,32.93,32.93,0,0,0-9.25-.59,1.72,1.72,0,0,1-1.51-.7l-6.65-9.22a43.78,43.78,0,0,0-8.86,3.27,43.28,43.28,0,0,0-8,5.07l3.33,10.88a1.7,1.7,0,0,1-.36,1.63,33,33,0,0,0-5.13,7.72,1.7,1.7,0,0,1-1.36,1l-11.3,1.15a44,44,0,0,0-1.2,18.74l11.08,2.56a1.69,1.69,0,0,1,1.23,1.11,33.47,33.47,0,0,0,1.77,4.31,32.5,32.5,0,0,0,2.36,4,1.73,1.73,0,0,1,.15,1.66L742.33,539A44.25,44.25,0,0,0,758,549.41l7.75-8.31a1.69,1.69,0,0,1,1.59-.51,33,33,0,0,0,9.25.59Zm-2.7-8.83a24,24,0,1,1,10.64-2.51A23.86,23.86,0,0,1,774,532.35Zm0-44.61a20.6,20.6,0,1,0,18.47,11.45A20.53,20.53,0,0,0,774,487.74Z"/><path class="cls-3" d="M764.08,488.37A22.3,22.3,0,1,0,794,498.44,22.3,22.3,0,0,0,764.08,488.37Z"/><path class="cls-3" d="M774,532.35h0a24,24,0,1,1,10.64-2.51A23.86,23.86,0,0,1,774,532.35Zm0-44.61a20.6,20.6,0,1,0,18.47,11.45A20.53,20.53,0,0,0,774,487.74Z"/><g class="cls-12"><rect class="cls-13" x="471.45" y="687.56" width="36" height="144" transform="translate(-308.23 335.07) rotate(-29.18)"/><polyline class="cls-14" points="523.69 822.91 530.51 835.13 488.61 858.53 446.67 783.45 377.7 821.97"/><rect class="cls-15" x="343.96" y="808.99" width="60" height="29" transform="translate(-354.06 286.87) rotate(-29.18)"/><line class="cls-14" x1="379.12" y1="804" x2="387.89" y2="819.71"/><line class="cls-14" x1="367.77" y1="810.34" x2="376.54" y2="826.05"/><line class="cls-14" x1="354.67" y1="817.65" x2="363.45" y2="833.37"/><line class="cls-14" x1="487.48" y1="745.77" x2="492.84" y2="755.37"/><line class="cls-14" x1="496.74" y1="762.36" x2="523.56" y2="810.38"/></g><g class="cls-4"><polygon class="cls-5" points="641.93 723.73 548.05 654.73 581.17 609.68 628.57 644.51 641.15 627.4 654.48 663.55 675.04 678.67 641.93 723.73"/><polyline class="cls-6" points="602.73 646.34 583.39 646.06 589.44 664.43"/><polyline class="cls-6" points="624.93 690.51 644.26 690.79 638.22 672.42"/><line class="cls-6" x1="596.59" y1="673.39" x2="629.09" y2="661.57"/></g><path class="cls-1" d="M836,739.42a35.54,35.54,0,0,0-2.48-4.21l5.12-11.41a45.51,45.51,0,0,0-18.12-12L812,720.91a34.43,34.43,0,0,0-9.73-.63L795,710.14a45.74,45.74,0,0,0-19.49,9.67l3.67,12a34.7,34.7,0,0,0-5.4,8.12l-12.43,1.26a45.53,45.53,0,0,0-1.39,21.72l12.19,2.81a34.41,34.41,0,0,0,1.86,4.52,32.66,32.66,0,0,0,2.48,4.22l-5.14,11.41a45.66,45.66,0,0,0,18.14,12l8.53-9.14a35.17,35.17,0,0,0,9.73.62L815,799.49a45.47,45.47,0,0,0,19.48-9.67l-3.65-12a34.76,34.76,0,0,0,5.4-8.13l12.43-1.26a45.65,45.65,0,0,0,1.38-21.72l-12.18-2.81A37.39,37.39,0,0,0,836,739.42Zm-21.12,35.37A22.3,22.3,0,1,1,825,744.91,22.28,22.28,0,0,1,814.92,774.79Z"/><path class="cls-2" d="M815,801.19a1.7,1.7,0,0,1-1.38-.71l-6.76-9.38a36.64,36.64,0,0,1-8.3-.53L790.71,799a1.7,1.7,0,0,1-1.82.44A47.64,47.64,0,0,1,770.08,787a1.72,1.72,0,0,1-.3-1.85l4.75-10.55a35.61,35.61,0,0,1-3.7-7.45l-11.28-2.61a1.67,1.67,0,0,1-1.28-1.35,47.27,47.27,0,0,1,1.44-22.53,1.69,1.69,0,0,1,1.44-1.18l11.5-1.17a36.8,36.8,0,0,1,4.61-6.93l-3.39-11.06a1.68,1.68,0,0,1,.53-1.79,47.08,47.08,0,0,1,9.5-6.24,48,48,0,0,1,10.7-3.8,1.7,1.7,0,0,1,1.76.67l6.77,9.38a35.46,35.46,0,0,1,8.3.53l7.89-8.46a1.7,1.7,0,0,1,1.82-.44,47.63,47.63,0,0,1,18.8,12.49,1.68,1.68,0,0,1,.29,1.84l-4.74,10.56a36.13,36.13,0,0,1,2.07,3.61,38.94,38.94,0,0,1,1.63,3.83l11.28,2.61a1.69,1.69,0,0,1,1.29,1.35A47.65,47.65,0,0,1,850.32,769a1.7,1.7,0,0,1-1.45,1.18l-11.5,1.17a36.12,36.12,0,0,1-4.6,6.93l3.38,11.06a1.71,1.71,0,0,1-.53,1.8,47.26,47.26,0,0,1-20.21,10A1.55,1.55,0,0,1,815,801.19Zm-7.31-13.54a1.73,1.73,0,0,1,1.38.7l6.64,9.22a43.91,43.91,0,0,0,16.82-8.34l-3.33-10.88a1.69,1.69,0,0,1,.36-1.62,33.11,33.11,0,0,0,5.13-7.73,1.72,1.72,0,0,1,1.36-1l11.31-1.15a44.27,44.27,0,0,0,1.19-18.74l-11.07-2.56a1.69,1.69,0,0,1-1.23-1.11,36.15,36.15,0,0,0-1.78-4.31,32.45,32.45,0,0,0-2.36-4,1.7,1.7,0,0,1-.14-1.65l4.66-10.37A44.14,44.14,0,0,0,821,713.75l-7.76,8.31a1.67,1.67,0,0,1-1.59.51,32.93,32.93,0,0,0-9.25-.59,1.72,1.72,0,0,1-1.51-.7l-6.65-9.22a44.29,44.29,0,0,0-16.82,8.34l3.33,10.88a1.68,1.68,0,0,1-.36,1.63,33,33,0,0,0-5.13,7.72,1.7,1.7,0,0,1-1.36,1l-11.3,1.15a44,44,0,0,0-1.2,18.74L772.51,764a1.69,1.69,0,0,1,1.23,1.11,33.47,33.47,0,0,0,1.77,4.31,32.5,32.5,0,0,0,2.36,4,1.73,1.73,0,0,1,.15,1.66l-4.67,10.38A44.25,44.25,0,0,0,789,795.88l7.75-8.31a1.69,1.69,0,0,1,1.59-.51,33,33,0,0,0,9.25.59Zm-2.7-8.83a24,24,0,1,1,10.64-2.51A23.86,23.86,0,0,1,805,778.82Zm0-44.61a20.6,20.6,0,1,0,18.47,11.45A20.53,20.53,0,0,0,805,734.21Z"/><path class="cls-3" d="M795.1,734.84A22.3,22.3,0,1,0,825,744.91,22.3,22.3,0,0,0,795.1,734.84Z"/><path class="cls-3" d="M805,778.82h0a24,24,0,1,1,10.64-2.51A23.86,23.86,0,0,1,805,778.82Zm0-44.61a20.6,20.6,0,1,0,18.47,11.45A20.53,20.53,0,0,0,805,734.21Z"/><g class="cls-4"><polygon class="cls-5" points="109.41 481.11 181.33 389.46 225.32 423.98 189 470.26 205.71 483.37 169.15 495.55 153.4 515.63 109.41 481.11"/><polyline class="cls-6" points="187.99 444.38 188.88 425.06 170.33 430.52"/><polyline class="cls-6" points="143.14 465.17 142.25 484.49 160.8 479.03"/><line class="cls-6" x1="161.15" y1="437.39" x2="171.93" y2="470.24"/></g><g class="cls-4"><polygon class="cls-5" points="1030.35 681.14 916.41 705.44 904.75 650.75 962.28 638.48 957.85 617.71 993.72 631.78 1018.69 626.46 1030.35 681.14"/><polyline class="cls-6" points="946.48 659 933.41 673.27 951.16 680.96"/><polyline class="cls-6" points="994.23 671.77 1007.29 657.51 989.55 649.82"/><line class="cls-6" x1="962.61" y1="681.57" x2="975.38" y2="649.43"/></g><g class="cls-12"><rect class="cls-13" x="1128.53" y="607.14" width="36" height="144" transform="translate(-128.92 293.14) rotate(-13.8)"/><polyline class="cls-14" points="1130.33 608.99 1126.99 595.39 1173.6 583.94 1194.12 667.46 1270.84 648.61"/><rect class="cls-15" x="1244.84" y="633.64" width="60" height="29" transform="translate(-117.82 322.86) rotate(-13.8)"/><line class="cls-14" x1="1264.71" y1="665.56" x2="1260.41" y2="648.08"/><line class="cls-14" x1="1277.33" y1="662.46" x2="1273.04" y2="644.98"/><line class="cls-14" x1="1291.9" y1="658.88" x2="1287.6" y2="641.4"/><line class="cls-14" x1="1144.78" y1="692.96" x2="1142.16" y2="682.28"/><line class="cls-14" x1="1140.25" y1="674.51" x2="1127.13" y2="621.1"/></g><path class="cls-1" d="M1076.93,316a35,35,0,0,0-2.48-4.21l5.13-11.41a45.69,45.69,0,0,0-18.12-12l-8.54,9.15a34.4,34.4,0,0,0-9.73-.63l-7.32-10.14a46.7,46.7,0,0,0-10.33,3.66,45,45,0,0,0-9.15,6l3.66,12a34.7,34.7,0,0,0-5.4,8.12l-12.43,1.26a45.53,45.53,0,0,0-1.39,21.72l12.19,2.82a34.9,34.9,0,0,0,4.34,8.73l-5.13,11.41a45.63,45.63,0,0,0,18.13,12l8.53-9.14a35.17,35.17,0,0,0,9.73.62l7.31,10.14a45.44,45.44,0,0,0,19.49-9.67l-3.66-12a34.91,34.91,0,0,0,5.4-8.12l12.43-1.27a45.77,45.77,0,0,0,1.39-21.72l-12.19-2.81A35.83,35.83,0,0,0,1076.93,316Zm-21.12,35.37a22.3,22.3,0,1,1,10.07-29.88A22.28,22.28,0,0,1,1055.81,351.36Z"/><path class="cls-2" d="M1055.93,377.76a1.73,1.73,0,0,1-1.38-.7l-6.76-9.39a36.64,36.64,0,0,1-8.3-.53l-7.89,8.46a1.69,1.69,0,0,1-1.82.44,47.61,47.61,0,0,1-18.8-12.48,1.7,1.7,0,0,1-.3-1.85l4.75-10.55a36.35,36.35,0,0,1-2.08-3.62,37.61,37.61,0,0,1-1.62-3.83l-11.28-2.61a1.69,1.69,0,0,1-1.29-1.35,47.4,47.4,0,0,1,1.44-22.53,1.7,1.7,0,0,1,1.45-1.18l11.49-1.17a36.8,36.8,0,0,1,4.61-6.93l-3.39-11.06a1.68,1.68,0,0,1,.53-1.79,47.43,47.43,0,0,1,20.21-10,1.69,1.69,0,0,1,1.75.67l6.77,9.38a36.53,36.53,0,0,1,8.3.53l7.89-8.46a1.72,1.72,0,0,1,1.82-.44,47.63,47.63,0,0,1,18.8,12.49,1.69,1.69,0,0,1,.3,1.84l-4.74,10.56a37.12,37.12,0,0,1,2.07,3.62,40.13,40.13,0,0,1,1.62,3.82l11.28,2.61a1.69,1.69,0,0,1,1.29,1.35,47.65,47.65,0,0,1-1.43,22.53,1.71,1.71,0,0,1-1.45,1.18l-11.5,1.17a36.64,36.64,0,0,1-4.61,6.93l3.38,11.06a1.71,1.71,0,0,1-.53,1.8,47.26,47.26,0,0,1-20.21,10A1.5,1.5,0,0,1,1055.93,377.76Zm-7.31-13.54a1.71,1.71,0,0,1,1.38.7l6.64,9.22a43.53,43.53,0,0,0,16.82-8.34l-3.32-10.87a1.69,1.69,0,0,1,.35-1.63,33.15,33.15,0,0,0,5.14-7.73,1.69,1.69,0,0,1,1.36-.95l11.3-1.16a44.27,44.27,0,0,0,1.2-18.74l-11.08-2.56a1.69,1.69,0,0,1-1.23-1.11,32.76,32.76,0,0,0-4.13-8.32,1.68,1.68,0,0,1-.15-1.65l4.66-10.37a44.14,44.14,0,0,0-15.64-10.39l-7.76,8.32a1.68,1.68,0,0,1-1.59.5,32.91,32.91,0,0,0-9.25-.59,1.72,1.72,0,0,1-1.51-.7l-6.65-9.22a44.29,44.29,0,0,0-16.82,8.34l3.33,10.88a1.69,1.69,0,0,1-.35,1.63,33.09,33.09,0,0,0-5.14,7.72,1.68,1.68,0,0,1-1.36,1l-11.3,1.15a44.11,44.11,0,0,0-1.2,18.74l11.09,2.56a1.67,1.67,0,0,1,1.22,1.11,35,35,0,0,0,1.77,4.31,31.77,31.77,0,0,0,2.36,4,1.72,1.72,0,0,1,.15,1.67l-4.67,10.37a44.25,44.25,0,0,0,15.65,10.38l7.76-8.31a1.67,1.67,0,0,1,1.58-.51,33.07,33.07,0,0,0,9.26.59Zm-2.7-8.83a24,24,0,1,1,10.65-2.51A23.83,23.83,0,0,1,1045.92,355.39Zm0-44.6a20.6,20.6,0,1,0,9.17,39,20.6,20.6,0,0,0-9.17-39Z"/><path class="cls-3" d="M1036,311.41a22.3,22.3,0,1,0,29.89,10.07A22.3,22.3,0,0,0,1036,311.41Z"/><path class="cls-3" d="M1045.92,355.39h0a24,24,0,1,1,10.65-2.51A23.83,23.83,0,0,1,1045.92,355.39Zm0-44.6a20.6,20.6,0,1,0,9.17,39,20.6,20.6,0,0,0-9.17-39Z"/><g class="cls-7"><path class="cls-16" d="M826.32,35.48a13.25,13.25,0,1,1,13.25,13.25A13.25,13.25,0,0,1,826.32,35.48Z"/><path class="cls-16" d="M756,23.12l.79.32Z"/><path class="cls-16" d="M758.22,24.24c.18.11.37.2.54.32C758.59,24.44,758.4,24.35,758.22,24.24Z"/><path class="cls-16" d="M753.68,22.48c.25,0,.5.11.75.16C754.18,22.59,753.93,22.52,753.68,22.48Z"/><path class="cls-16" d="M754.43,48.31l-.75.17Z"/><path class="cls-16" d="M758.76,46.39a6,6,0,0,1-.54.33A6,6,0,0,0,758.76,46.39Z"/><path class="cls-16" d="M760.86,44.59l-2.08,1.79A12.75,12.75,0,0,0,760.86,44.59Z"/><path class="cls-16" d="M756.74,47.52c-.26.12-.52.21-.79.32C756.22,47.73,756.48,47.64,756.74,47.52Z"/><path class="cls-16" d="M761.79,27.51a12.88,12.88,0,0,0-3-2.93l2.1,1.82A13.76,13.76,0,0,1,761.79,27.51Z"/><path class="cls-16" d="M761.59,43.71c.2-.25.42-.48.59-.73h0C762,43.24,761.79,43.46,761.59,43.71Z"/><path class="cls-16" d="M793,48.48l-.75-.17Z"/><path class="cls-16" d="M785.8,26.37l2.08-1.79A12.68,12.68,0,0,0,785.8,26.37Z"/><path class="cls-16" d="M785.07,27.25c-.2.25-.42.47-.6.73h0C784.65,27.72,784.87,27.5,785.07,27.25Z"/><path class="cls-16" d="M790.71,47.84c-.27-.11-.54-.2-.79-.32C790.17,47.64,790.44,47.73,790.71,47.84Z"/><path class="cls-16" d="M789.92,23.44l.79-.32Z"/><path class="cls-16" d="M792.23,22.64c.25-.05.5-.12.75-.16C792.73,22.52,792.48,22.59,792.23,22.64Z"/><path class="cls-16" d="M784.86,43.45a13.12,13.12,0,0,0,3,2.93l-2.11-1.83A14,14,0,0,1,784.86,43.45Z"/><path class="cls-16" d="M787.89,24.56c.18-.12.36-.21.55-.32C788.25,24.35,788.07,24.44,787.89,24.56Z"/><path class="cls-16" d="M788.44,46.72a6.16,6.16,0,0,1-.55-.33A6.16,6.16,0,0,0,788.44,46.72Z"/><path class="cls-16" d="M751.27,48.73a12.7,12.7,0,0,0,2.41-.25l.75-.17a15.73,15.73,0,0,0,1.52-.47c.27-.11.53-.2.79-.32a15,15,0,0,0,1.48-.8,6,6,0,0,0,.54-.33h0l2.08-1.79h0c.27-.27.48-.58.73-.87s.42-.47.59-.73h0a15.57,15.57,0,0,1,22.36.07c.09.14.22.26.32.4a14,14,0,0,0,.91,1.1l2.11,1.83h0a6.16,6.16,0,0,0,.55.33,13.93,13.93,0,0,0,1.48.8c.25.12.52.21.79.32a14.91,14.91,0,0,0,1.52.47l.75.17a12.69,12.69,0,0,0,2.4.25,13.25,13.25,0,1,0,0-26.5,12.69,12.69,0,0,0-2.4.25c-.25,0-.5.11-.75.16-.52.14-1,.3-1.52.48l-.79.32a12.34,12.34,0,0,0-1.48.8c-.19.11-.37.2-.55.32h0v0l-2.08,1.79h0c-.26.27-.48.58-.72.87s-.42.47-.59.73h0a15.56,15.56,0,0,1-22.34-.07c-.1-.14-.23-.26-.34-.4a13.76,13.76,0,0,0-.91-1.11l-2.1-1.82,0,0h0c-.17-.12-.36-.21-.54-.32a13.15,13.15,0,0,0-1.48-.8l-.79-.32c-.49-.18-1-.34-1.52-.48-.25-.05-.5-.12-.75-.16a12.7,12.7,0,0,0-2.41-.25,13.25,13.25,0,0,0,0,26.5Z"/><path class="cls-16" d="M800.13,23.12l.8.32Z"/><path class="cls-16" d="M802.4,24.24c.18.11.37.2.55.32C802.77,24.44,802.58,24.35,802.4,24.24Z"/><path class="cls-16" d="M797.86,22.48c.25,0,.5.11.75.16C798.36,22.59,798.11,22.52,797.86,22.48Z"/><path class="cls-16" d="M798.61,48.31l-.75.17Z"/><path class="cls-16" d="M803,46.39c-.18.13-.37.22-.55.33C802.58,46.61,802.77,46.52,803,46.39Z"/><path class="cls-16" d="M805,44.59,803,46.38A13.18,13.18,0,0,0,805,44.59Z"/><path class="cls-16" d="M800.93,47.52c-.27.12-.53.21-.8.32C800.4,47.73,800.66,47.64,800.93,47.52Z"/><path class="cls-16" d="M806,27.51a13.12,13.12,0,0,0-3-2.93l2.1,1.82C805.39,26.75,805.68,27.13,806,27.51Z"/><path class="cls-16" d="M805.77,43.71c.2-.25.42-.48.6-.73h0C806.19,43.24,806,43.46,805.77,43.71Z"/><path class="cls-16" d="M837.17,48.48l-.75-.17Z"/><path class="cls-16" d="M830,26.37l2.08-1.79A12.68,12.68,0,0,0,830,26.37Z"/><path class="cls-16" d="M829.25,27.25c-.2.25-.42.47-.6.73h0C828.84,27.72,829.05,27.5,829.25,27.25Z"/><path class="cls-16" d="M834.89,47.84c-.27-.11-.54-.2-.79-.32C834.35,47.64,834.62,47.73,834.89,47.84Z"/><path class="cls-16" d="M834.1,23.44l.79-.32Z"/><path class="cls-16" d="M836.42,22.64c.24-.05.5-.12.75-.16C836.92,22.52,836.67,22.59,836.42,22.64Z"/><path class="cls-16" d="M829.05,43.45a12.88,12.88,0,0,0,3,2.93L830,44.55A13.88,13.88,0,0,1,829.05,43.45Z"/><path class="cls-16" d="M832.08,24.56c.17-.12.36-.21.55-.32C832.44,24.35,832.25,24.44,832.08,24.56Z"/><path class="cls-16" d="M832.63,46.72a5,5,0,0,1-.55-.33A5,5,0,0,0,832.63,46.72Z"/><path class="cls-16" d="M778.63,45.35a7.92,7.92,0,0,1,.8.33A7.92,7.92,0,0,0,778.63,45.35Z"/><path class="cls-16" d="M780.9,46.47c.18.11.37.2.54.32C781.27,46.67,781.08,46.58,780.9,46.47Z"/><path class="cls-16" d="M776.35,44.71l.76.17Z"/><path class="cls-16" d="M777.11,70.55l-.76.17Z"/><path class="cls-16" d="M781.44,68.63a5.89,5.89,0,0,1-.54.32A5.89,5.89,0,0,0,781.44,68.63Z"/><path class="cls-16" d="M783.54,66.82l-2.09,1.8A13.32,13.32,0,0,0,783.54,66.82Z"/><path class="cls-16" d="M779.43,69.75c-.26.12-.53.22-.8.32C778.9,70,779.17,69.87,779.43,69.75Z"/><path class="cls-16" d="M784.47,49.74a12.93,12.93,0,0,0-3-2.93l2.12,1.83C783.89,49,784.18,49.37,784.47,49.74Z"/><path class="cls-16" d="M784.27,65.94c.2-.25.42-.48.59-.73h0C784.69,65.47,784.47,65.69,784.27,65.94Z"/><path class="cls-16" d="M815.66,70.72l-.75-.17Z"/><path class="cls-16" d="M808.48,48.6l2.08-1.79A13.65,13.65,0,0,0,808.48,48.6Z"/><path class="cls-16" d="M807.75,49.49c-.2.24-.42.47-.6.73h0C807.33,50,807.55,49.73,807.75,49.49Z"/><path class="cls-16" d="M813.39,70.07c-.27-.1-.54-.2-.8-.32C812.85,69.87,813.12,70,813.39,70.07Z"/><path class="cls-16" d="M812.59,45.68a7.92,7.92,0,0,1,.8-.33A7.92,7.92,0,0,0,812.59,45.68Z"/><path class="cls-16" d="M814.91,44.88l.75-.17Z"/><path class="cls-16" d="M807.55,65.68a13.12,13.12,0,0,0,3,2.94l-2.11-1.83C808.13,66.44,807.84,66.06,807.55,65.68Z"/><path class="cls-16" d="M810.57,46.79c.18-.12.37-.21.55-.32C810.94,46.58,810.75,46.67,810.57,46.79Z"/><path class="cls-16" d="M811.12,69c-.18-.1-.37-.2-.55-.32C810.75,68.75,810.94,68.85,811.12,69Z"/><path class="cls-16" d="M774,71a13.47,13.47,0,0,0,2.4-.24l.76-.17c.52-.14,1-.3,1.52-.48.27-.1.54-.2.8-.32a16,16,0,0,0,1.47-.8,5.89,5.89,0,0,0,.54-.32h0l2.09-1.8h0c.27-.27.49-.58.73-.87s.42-.47.59-.73h0a15.55,15.55,0,0,1,22.34.07c.11.15.24.27.35.4.29.38.58.76.9,1.11l2.11,1.83h0c.18.12.37.22.55.32a14.82,14.82,0,0,0,1.47.8c.26.12.53.22.8.32.5.18,1,.34,1.52.48l.75.17a13.65,13.65,0,0,0,2.4.24,13.25,13.25,0,1,0,0-26.5,12.77,12.77,0,0,0-2.4.25l-.75.17c-.52.14-1,.29-1.52.47a7.92,7.92,0,0,0-.8.33,13,13,0,0,0-1.47.79c-.18.11-.37.2-.55.32h0v0l-2.08,1.79h0c-.26.28-.49.58-.73.88s-.42.46-.6.72h0a15.56,15.56,0,0,1-22.34-.08c-.1-.14-.23-.26-.34-.4-.29-.37-.58-.75-.9-1.1l-2.12-1.83v0h0c-.17-.12-.36-.21-.54-.32a13.86,13.86,0,0,0-1.47-.79,7.92,7.92,0,0,0-.8-.33c-.5-.18-1-.33-1.52-.47l-.76-.17a12.6,12.6,0,0,0-2.4-.25A13.25,13.25,0,0,0,774,71Z"/><path class="cls-16" d="M778.63.89c.27.1.54.2.8.32C779.17,1.09,778.9,1,778.63.89Z"/><path class="cls-16" d="M780.9,2c.18.11.37.2.54.32C781.27,2.21,781.08,2.12,780.9,2Z"/><path class="cls-16" d="M776.35.25c.25,0,.51.1.76.16C776.85.35,776.61.29,776.35.25Z"/><path class="cls-16" d="M777.11,26.08l-.76.17Z"/><path class="cls-16" d="M781.44,24.16a4.25,4.25,0,0,1-.54.32A4.25,4.25,0,0,0,781.44,24.16Z"/><path class="cls-16" d="M783.54,22.35l-2.09,1.8A12.81,12.81,0,0,0,783.54,22.35Z"/><path class="cls-16" d="M779.43,25.29l-.8.32Z"/><path class="cls-16" d="M784.47,5.28a13,13,0,0,0-3-2.94l2.12,1.83C783.89,4.52,784.18,4.9,784.47,5.28Z"/><path class="cls-16" d="M784.27,21.47a8.19,8.19,0,0,0,.59-.73h0A7,7,0,0,1,784.27,21.47Z"/><path class="cls-16" d="M815.66,26.25l-.75-.17Z"/><path class="cls-16" d="M808.48,4.14l2.08-1.8A13.71,13.71,0,0,0,808.48,4.14Z"/><path class="cls-16" d="M807.75,5c-.2.25-.42.47-.6.73h0C807.33,5.49,807.55,5.27,807.75,5Z"/><path class="cls-16" d="M813.39,25.61l-.8-.32Z"/><path class="cls-16" d="M812.59,1.21c.26-.12.53-.22.8-.32C813.12,1,812.85,1.09,812.59,1.21Z"/><path class="cls-16" d="M814.91.41c.25-.06.49-.12.75-.16C815.4.29,815.16.35,814.91.41Z"/><path class="cls-16" d="M807.55,21.22a13.08,13.08,0,0,0,3,2.93l-2.11-1.83C808.13,22,807.84,21.59,807.55,21.22Z"/><path class="cls-16" d="M810.57,2.33c.18-.12.37-.21.55-.32C810.94,2.12,810.75,2.21,810.57,2.33Z"/><path class="cls-16" d="M811.12,24.48a5.21,5.21,0,0,1-.55-.32A5.21,5.21,0,0,0,811.12,24.48Z"/><path class="cls-16" d="M774,26.5a12.6,12.6,0,0,0,2.4-.25l.76-.17c.52-.14,1-.29,1.52-.47l.8-.32a14,14,0,0,0,1.47-.81,4.25,4.25,0,0,0,.54-.32h0l2.09-1.8h0c.27-.28.49-.59.73-.88a7,7,0,0,0,.59-.73h0a15.57,15.57,0,0,1,22.34.07c.11.15.24.27.35.41.29.37.58.76.9,1.1l2.11,1.83h0a5.21,5.21,0,0,0,.55.32,13.08,13.08,0,0,0,1.47.81l.8.32c.5.18,1,.33,1.52.47l.75.17a12.69,12.69,0,0,0,2.4.25,13.25,13.25,0,0,0,0-26.5,12.69,12.69,0,0,0-2.4.25c-.26,0-.5.1-.75.16a15.78,15.78,0,0,0-1.52.48c-.27.1-.54.2-.8.32a11.6,11.6,0,0,0-1.47.8c-.18.11-.37.2-.55.32h0l-2.08,1.8h0c-.26.27-.49.58-.73.87s-.42.47-.6.73h0a15.56,15.56,0,0,1-22.34-.07c-.1-.15-.23-.26-.34-.4-.29-.38-.58-.76-.9-1.11l-2.12-1.83h0c-.17-.12-.36-.21-.54-.32a12.33,12.33,0,0,0-1.47-.8c-.26-.12-.53-.22-.8-.32a15.78,15.78,0,0,0-1.52-.48c-.25-.06-.51-.12-.76-.16A12.6,12.6,0,0,0,774,0a13.25,13.25,0,0,0,0,26.5Z"/></g><g class="cls-7"><path class="cls-17" d="M868.06,12h3.62V57.36h-3.62Z"/><path class="cls-17" d="M888.08,34.7a23.25,23.25,0,0,1,43.44-11.56l-3.1,1.74a19.64,19.64,0,1,0,0,19.64l3.1,1.73A23.25,23.25,0,0,1,888.08,34.7Z"/><path class="cls-17" d="M968.61,46.41H947.46l-3.85,11h-4L956,12h4l16.39,45.33h-3.92Zm-1.2-3.48L958,16.34l-9.37,26.59Z"/><path class="cls-17" d="M1024.82,12V57.36h-3.17L992.34,18.45V57.36h-3.63V12h3.17l29.32,38.91V12Z"/><path class="cls-17" d="M1099,12l-13.22,45.33h-8.31l-10-36.26-9.89,36.26h-8.24L1035.93,12h7.86l9.82,34.15L1063.28,12h8.38l9.75,34.3L1091.3,12Z"/><path class="cls-17" d="M1117,18.76V31.3h16.1v6.8H1117V50.64h18.59v6.72h-26V12h26v6.73Z"/><path class="cls-17" d="M1182.87,45.2c0,7.48-5.74,12.16-12.92,12.16h-19.49V12h17.83c7.25,0,13.07,4.84,13.07,12.32a10.55,10.55,0,0,1-6,10A11,11,0,0,1,1182.87,45.2Zm-15.41-26.29h-9.67V31.45h9.67a6.42,6.42,0,0,0,6.5-6.35A6.25,6.25,0,0,0,1167.46,18.91Zm8,25.38a6.44,6.44,0,0,0-6.58-6.35h-11.1V50.49h11.1A6.32,6.32,0,0,0,1175.47,44.29Z"/></g><g class="cls-7"><path class="cls-18" d="M88.3,626.14a13.25,13.25,0,1,1,13.24,13.25A13.25,13.25,0,0,1,88.3,626.14Z"/><path class="cls-18" d="M17.93,613.78l.79.32Z"/><path class="cls-18" d="M20.2,614.9c.17.11.37.2.54.32C20.57,615.1,20.37,615,20.2,614.9Z"/><path class="cls-18" d="M15.66,613.14c.25,0,.5.11.75.17C16.16,613.25,15.91,613.18,15.66,613.14Z"/><path class="cls-18" d="M16.41,639l-.75.17Z"/><path class="cls-18" d="M20.74,637.06c-.17.12-.37.21-.54.32C20.37,637.27,20.57,637.18,20.74,637.06Z"/><path class="cls-18" d="M22.84,635.25,20.76,637A13.18,13.18,0,0,0,22.84,635.25Z"/><path class="cls-18" d="M18.72,638.18c-.26.12-.52.21-.79.32C18.2,638.39,18.46,638.3,18.72,638.18Z"/><path class="cls-18" d="M23.77,618.17a12.88,12.88,0,0,0-3-2.93l2.1,1.82A13.76,13.76,0,0,1,23.77,618.17Z"/><path class="cls-18" d="M23.57,634.37c.2-.25.42-.48.59-.73h0C24,633.9,23.77,634.12,23.57,634.37Z"/><path class="cls-18" d="M55,639.14l-.75-.17Z"/><path class="cls-18" d="M47.78,617l2.08-1.79A12.68,12.68,0,0,0,47.78,617Z"/><path class="cls-18" d="M47.05,617.92c-.2.24-.42.46-.6.72h0C46.63,618.38,46.85,618.16,47.05,617.92Z"/><path class="cls-18" d="M52.69,638.5c-.27-.11-.54-.2-.79-.32C52.15,638.3,52.42,638.39,52.69,638.5Z"/><path class="cls-18" d="M51.9,614.1l.79-.32Z"/><path class="cls-18" d="M54.21,613.31c.25-.06.49-.13.75-.17C54.7,613.18,54.46,613.25,54.21,613.31Z"/><path class="cls-18" d="M46.84,634.11a13.12,13.12,0,0,0,3,2.93l-2.11-1.83A14,14,0,0,1,46.84,634.11Z"/><path class="cls-18" d="M49.87,615.22c.17-.12.36-.21.55-.32C50.23,615,50,615.1,49.87,615.22Z"/><path class="cls-18" d="M50.42,637.38c-.19-.11-.38-.2-.55-.32C50,637.18,50.23,637.27,50.42,637.38Z"/><path class="cls-18" d="M13.25,639.39a12.79,12.79,0,0,0,2.41-.25l.75-.17a15.73,15.73,0,0,0,1.52-.47c.27-.11.53-.2.79-.32a15,15,0,0,0,1.48-.8c.17-.11.37-.2.54-.32h0l0,0,2.08-1.79h0c.27-.27.48-.58.73-.87s.42-.47.59-.73h0a15.56,15.56,0,0,1,22.35.07c.1.14.23.26.33.4a14,14,0,0,0,.91,1.1L49.86,637v0h0c.17.12.36.21.55.32a13.93,13.93,0,0,0,1.48.8c.25.12.52.21.79.32a14.91,14.91,0,0,0,1.52.47l.75.17a12.69,12.69,0,0,0,2.4.25,13.25,13.25,0,1,0,0-26.5,12.69,12.69,0,0,0-2.4.25c-.26,0-.5.11-.75.17a14.91,14.91,0,0,0-1.52.47l-.79.32a13.93,13.93,0,0,0-1.48.8c-.19.11-.38.2-.55.32h0v0L47.78,617h0c-.26.27-.48.58-.72.88s-.42.46-.6.72h0a15.57,15.57,0,0,1-22.35-.07c-.09-.14-.22-.26-.33-.4a13.76,13.76,0,0,0-.91-1.11l-2.1-1.82,0,0h0c-.17-.12-.37-.21-.54-.32a15,15,0,0,0-1.48-.8l-.79-.32a15.73,15.73,0,0,0-1.52-.47c-.25-.06-.5-.13-.75-.17a12.79,12.79,0,0,0-2.41-.25,13.25,13.25,0,0,0,0,26.5Z"/><path class="cls-18" d="M62.11,613.78l.8.32Z"/><path class="cls-18" d="M64.38,614.9c.18.11.37.2.55.32C64.75,615.1,64.56,615,64.38,614.9Z"/><path class="cls-18" d="M59.84,613.14c.25,0,.5.11.75.17C60.34,613.25,60.09,613.18,59.84,613.14Z"/><path class="cls-18" d="M60.59,639l-.75.17Z"/><path class="cls-18" d="M64.93,637.06c-.18.12-.37.21-.55.32C64.56,637.27,64.75,637.18,64.93,637.06Z"/><path class="cls-18" d="M67,635.25,64.94,637A13.18,13.18,0,0,0,67,635.25Z"/><path class="cls-18" d="M62.91,638.18c-.27.12-.53.21-.8.32C62.38,638.39,62.64,638.3,62.91,638.18Z"/><path class="cls-18" d="M68,618.17a13.12,13.12,0,0,0-3-2.93l2.1,1.82C67.37,617.41,67.66,617.79,68,618.17Z"/><path class="cls-18" d="M67.75,634.37c.2-.25.42-.48.6-.73h0C68.17,633.9,68,634.12,67.75,634.37Z"/><path class="cls-18" d="M99.15,639.14,98.4,639Z"/><path class="cls-18" d="M92,617,94,615.24A12.68,12.68,0,0,0,92,617Z"/><path class="cls-18" d="M91.23,617.92c-.2.24-.42.46-.6.72h0C90.82,618.38,91,618.16,91.23,617.92Z"/><path class="cls-18" d="M96.87,638.5c-.27-.11-.54-.2-.79-.32C96.33,638.3,96.6,638.39,96.87,638.5Z"/><path class="cls-18" d="M96.08,614.1l.79-.32Z"/><path class="cls-18" d="M98.4,613.31c.24-.06.49-.13.75-.17C98.89,613.18,98.65,613.25,98.4,613.31Z"/><path class="cls-18" d="M91,634.11A12.88,12.88,0,0,0,94,637l-2.11-1.83A13.88,13.88,0,0,1,91,634.11Z"/><path class="cls-18" d="M94.06,615.22c.16-.12.36-.21.54-.32C94.42,615,94.22,615.1,94.06,615.22Z"/><path class="cls-18" d="M94.6,637.38c-.18-.11-.38-.2-.54-.32C94.22,637.18,94.42,637.27,94.6,637.38Z"/><path class="cls-18" d="M40.61,636a7.92,7.92,0,0,1,.8.33A7.92,7.92,0,0,0,40.61,636Z"/><path class="cls-18" d="M42.87,637.13c.19.11.38.2.55.32C43.25,637.33,43.06,637.24,42.87,637.13Z"/><path class="cls-18" d="M38.33,635.37l.76.17Z"/><path class="cls-18" d="M39.09,661.21l-.76.17Z"/><path class="cls-18" d="M43.42,659.29a4.94,4.94,0,0,1-.55.32A4.94,4.94,0,0,0,43.42,659.29Z"/><path class="cls-18" d="M45.52,657.48l-2.09,1.8A13.32,13.32,0,0,0,45.52,657.48Z"/><path class="cls-18" d="M41.41,660.41c-.26.12-.53.22-.8.33C40.88,660.63,41.15,660.53,41.41,660.41Z"/><path class="cls-18" d="M46.45,640.4a12.93,12.93,0,0,0-3-2.93l2.11,1.83C45.87,639.65,46.16,640,46.45,640.4Z"/><path class="cls-18" d="M46.25,656.6c.2-.25.42-.47.59-.73h0C46.67,656.13,46.45,656.35,46.25,656.6Z"/><path class="cls-18" d="M77.64,661.38l-.75-.17Z"/><path class="cls-18" d="M70.45,639.26l2.08-1.79A14.68,14.68,0,0,0,70.45,639.26Z"/><path class="cls-18" d="M69.73,640.15c-.2.24-.42.47-.6.73h0C69.31,640.61,69.53,640.39,69.73,640.15Z"/><path class="cls-18" d="M75.37,660.74c-.28-.11-.54-.21-.8-.33C74.83,660.53,75.09,660.63,75.37,660.74Z"/><path class="cls-18" d="M74.57,636.34a7.07,7.07,0,0,1,.8-.33A7.07,7.07,0,0,0,74.57,636.34Z"/><path class="cls-18" d="M76.89,635.54l.75-.17Z"/><path class="cls-18" d="M69.52,656.34a13.53,13.53,0,0,0,3,2.94l-2.1-1.83C70.11,657.1,69.82,656.72,69.52,656.34Z"/><path class="cls-18" d="M72.55,637.45c.18-.12.37-.21.55-.32C72.92,637.24,72.73,637.33,72.55,637.45Z"/><path class="cls-18" d="M73.1,659.61c-.18-.1-.37-.2-.55-.32C72.73,659.41,72.92,659.51,73.1,659.61Z"/><path class="cls-18" d="M35.92,661.62a13.49,13.49,0,0,0,2.41-.24l.76-.17c.52-.14,1-.3,1.52-.47.27-.11.54-.21.8-.33a14.66,14.66,0,0,0,1.46-.8,4.94,4.94,0,0,0,.55-.32h0l2.09-1.8h0c.27-.27.49-.58.73-.87s.42-.47.59-.73h0a15.56,15.56,0,0,1,22.34.07c.11.15.24.27.34.4.3.38.59.76.91,1.11l2.1,1.83h0c.18.12.37.22.55.32a14.82,14.82,0,0,0,1.47.8c.26.12.52.22.8.33.49.17,1,.33,1.52.47l.75.17a13.65,13.65,0,0,0,2.4.24,13.25,13.25,0,1,0,0-26.49,12.77,12.77,0,0,0-2.4.24l-.75.17c-.52.14-1,.29-1.52.47a7.07,7.07,0,0,0-.8.33,13,13,0,0,0-1.47.79c-.18.11-.37.2-.55.32h0l0,0-2.08,1.79h0c-.26.28-.48.58-.72.88s-.42.46-.6.72h0a15.56,15.56,0,0,1-22.34-.08c-.1-.14-.23-.26-.34-.4-.29-.37-.58-.75-.91-1.1l-2.11-1.83v0h0c-.17-.12-.36-.21-.55-.32a12.81,12.81,0,0,0-1.46-.79,7.92,7.92,0,0,0-.8-.33c-.5-.18-1-.33-1.52-.47l-.76-.17a12.62,12.62,0,0,0-2.41-.24,13.25,13.25,0,0,0,0,26.49Z"/><path class="cls-18" d="M40.61,591.55c.27.1.54.2.8.32C41.15,591.75,40.88,591.65,40.61,591.55Z"/><path class="cls-18" d="M42.87,592.67c.19.11.38.2.55.32C43.25,592.87,43.06,592.78,42.87,592.67Z"/><path class="cls-18" d="M38.33,590.91c.25,0,.51.1.76.16C38.83,591,38.59,591,38.33,590.91Z"/><path class="cls-18" d="M39.09,616.74l-.76.17Z"/><path class="cls-18" d="M43.42,614.82a3.76,3.76,0,0,1-.55.32A3.76,3.76,0,0,0,43.42,614.82Z"/><path class="cls-18" d="M45.52,613l-2.09,1.8A12.81,12.81,0,0,0,45.52,613Z"/><path class="cls-18" d="M41.41,616l-.8.32Z"/><path class="cls-18" d="M46.45,595.94a13,13,0,0,0-3-2.94l2.11,1.83A13.76,13.76,0,0,1,46.45,595.94Z"/><path class="cls-18" d="M46.25,612.13c.2-.24.42-.47.59-.72h0A8.06,8.06,0,0,1,46.25,612.13Z"/><path class="cls-18" d="M77.64,616.91l-.75-.17Z"/><path class="cls-18" d="M70.45,594.8l2.08-1.8A14.76,14.76,0,0,0,70.45,594.8Z"/><path class="cls-18" d="M69.73,595.68c-.21.25-.42.47-.6.73h0C69.31,596.15,69.52,595.93,69.73,595.68Z"/><path class="cls-18" d="M75.37,616.27l-.8-.32Z"/><path class="cls-18" d="M74.57,591.87c.26-.12.52-.22.8-.32C75.09,591.65,74.83,591.75,74.57,591.87Z"/><path class="cls-18" d="M76.89,591.07c.25-.06.49-.12.75-.16C77.38,591,77.14,591,76.89,591.07Z"/><path class="cls-18" d="M69.52,611.88a13.49,13.49,0,0,0,3,2.93L70.43,613C70.11,612.64,69.82,612.25,69.52,611.88Z"/><path class="cls-18" d="M72.55,593c.18-.12.37-.21.55-.32C72.92,592.78,72.73,592.87,72.55,593Z"/><path class="cls-18" d="M73.1,615.14a5.21,5.21,0,0,1-.55-.32A5.21,5.21,0,0,0,73.1,615.14Z"/><path class="cls-18" d="M35.92,617.16a12.62,12.62,0,0,0,2.41-.25l.76-.17a15.73,15.73,0,0,0,1.52-.47l.8-.32a12.94,12.94,0,0,0,1.46-.81,3.76,3.76,0,0,0,.55-.32h0l2.09-1.8h0c.27-.28.49-.59.73-.88a8.06,8.06,0,0,0,.59-.72h0a15.56,15.56,0,0,1,22.34.06c.11.15.24.27.34.41.3.37.59.76.91,1.1l2.1,1.83h0a5.21,5.21,0,0,0,.55.32,13.08,13.08,0,0,0,1.47.81l.8.32a14.91,14.91,0,0,0,1.52.47l.75.17a12.69,12.69,0,0,0,2.4.25,13.25,13.25,0,0,0,0-26.5,12.69,12.69,0,0,0-2.4.25c-.26,0-.5.1-.75.16a14.94,14.94,0,0,0-1.52.48c-.28.1-.54.2-.8.32a11.6,11.6,0,0,0-1.47.8c-.18.11-.37.2-.55.32h0l-2.08,1.8h0c-.26.27-.48.58-.72.87s-.42.47-.6.73h0a15.56,15.56,0,0,1-22.34-.07c-.1-.15-.23-.26-.34-.4a13.76,13.76,0,0,0-.91-1.11L43.43,593h0c-.17-.12-.36-.21-.55-.32a11.48,11.48,0,0,0-1.46-.8c-.26-.12-.53-.22-.8-.32a15.78,15.78,0,0,0-1.52-.48c-.25-.06-.51-.12-.76-.16a12.62,12.62,0,0,0-2.41-.25,13.25,13.25,0,0,0,0,26.5Z"/><path class="cls-18" d="M130,602.69h3.62V648H130Z"/><path class="cls-18" d="M150.06,625.36A23.25,23.25,0,0,1,193.5,613.8l-3.1,1.74a19.64,19.64,0,1,0,0,19.64l3.1,1.73a23.25,23.25,0,0,1-43.44-11.55Z"/><path class="cls-18" d="M230.59,637.07H209.44L205.59,648h-4L218,602.69h4L238.37,648h-3.92Zm-1.21-3.48L220,607l-9.37,26.59Z"/><path class="cls-18" d="M286.8,602.69V648h-3.17l-29.31-38.91V648h-3.63V602.69h3.17l29.31,38.91V602.69Z"/><path class="cls-18" d="M361,602.69,347.77,648h-8.31l-10-36.26L319.52,648h-8.24l-13.37-45.33h7.86l9.82,34.15,9.67-34.15h8.38l9.75,34.3,9.89-34.3Z"/><path class="cls-18" d="M379,609.42V622h16.09v6.8H379V641.3h18.59V648h-26V602.69h26v6.73Z"/><path class="cls-18" d="M444.85,635.86c0,7.48-5.74,12.16-12.92,12.16H412.44V602.69h17.83c7.25,0,13.07,4.84,13.07,12.32a10.55,10.55,0,0,1-6,10A11,11,0,0,1,444.85,635.86Zm-15.41-26.29h-9.67v12.54h9.67a6.42,6.42,0,0,0,6.5-6.35A6.25,6.25,0,0,0,429.44,609.57Zm8,25.38a6.43,6.43,0,0,0-6.58-6.34h-11.1v12.54h11.1A6.32,6.32,0,0,0,437.45,635Z"/></g><g class="cls-7"><path class="cls-19" d="M1143.93,483a13.25,13.25,0,1,1,13.24,13.25A13.24,13.24,0,0,1,1143.93,483Z"/><path class="cls-19" d="M1073.56,470.61c.27.11.53.21.79.33C1074.09,470.82,1073.83,470.72,1073.56,470.61Z"/><path class="cls-19" d="M1075.83,471.73c.17.11.37.2.54.32C1076.2,471.93,1076,471.84,1075.83,471.73Z"/><path class="cls-19" d="M1071.29,470l.75.17Z"/><path class="cls-19" d="M1072,495.8l-.75.18Z"/><path class="cls-19" d="M1076.37,493.89c-.17.12-.37.21-.54.32C1076,494.1,1076.2,494,1076.37,493.89Z"/><path class="cls-19" d="M1078.47,492.08l-2.08,1.8A13.25,13.25,0,0,0,1078.47,492.08Z"/><path class="cls-19" d="M1074.35,495c-.26.12-.52.22-.79.32C1073.83,495.23,1074.09,495.13,1074.35,495Z"/><path class="cls-19" d="M1079.4,475a13.08,13.08,0,0,0-3-2.93l2.1,1.83A13.61,13.61,0,0,1,1079.4,475Z"/><path class="cls-19" d="M1079.2,491.2c.2-.25.42-.47.59-.73h0C1079.62,490.73,1079.4,491,1079.2,491.2Z"/><path class="cls-19" d="M1110.59,496c-.26-.05-.5-.11-.75-.18C1110.09,495.87,1110.33,495.93,1110.59,496Z"/><path class="cls-19" d="M1103.41,473.86l2.08-1.79A13.18,13.18,0,0,0,1103.41,473.86Z"/><path class="cls-19" d="M1102.68,474.75c-.2.25-.42.47-.6.73h0C1102.26,475.21,1102.48,475,1102.68,474.75Z"/><path class="cls-19" d="M1108.32,495.33c-.27-.1-.54-.2-.79-.32C1107.78,495.13,1108.05,495.23,1108.32,495.33Z"/><path class="cls-19" d="M1107.53,470.94c.25-.12.52-.22.79-.33C1108.05,470.72,1107.78,470.82,1107.53,470.94Z"/><path class="cls-19" d="M1109.84,470.14l.75-.17Z"/><path class="cls-19" d="M1102.47,490.94a13,13,0,0,0,3,2.94l-2.11-1.83C1103.05,491.7,1102.77,491.32,1102.47,490.94Z"/><path class="cls-19" d="M1105.5,472.05c.17-.12.36-.21.55-.32C1105.86,471.84,1105.67,471.93,1105.5,472.05Z"/><path class="cls-19" d="M1106.05,494.21c-.19-.11-.38-.2-.55-.32C1105.67,494,1105.86,494.1,1106.05,494.21Z"/><path class="cls-19" d="M1068.88,496.22a13.67,13.67,0,0,0,2.41-.24l.75-.18c.51-.13,1-.29,1.52-.47.27-.1.53-.2.79-.32a14.08,14.08,0,0,0,1.48-.8c.17-.11.37-.2.54-.32h0l2.08-1.8h0c.27-.27.48-.58.73-.87s.42-.47.59-.73h0a15.57,15.57,0,0,1,22.35.07c.1.15.23.27.33.4.3.38.58.76.91,1.11l2.11,1.83h0c.17.12.36.21.55.32a12.34,12.34,0,0,0,1.48.8c.25.12.52.22.79.32a14.91,14.91,0,0,0,1.52.47c.25.07.49.13.75.18a13.56,13.56,0,0,0,2.4.24,13.25,13.25,0,1,0,0-26.49,12.68,12.68,0,0,0-2.4.24l-.75.17c-.52.14-1,.29-1.52.47-.27.11-.54.21-.79.33a12.28,12.28,0,0,0-1.48.79c-.19.11-.38.2-.55.32h0v0l-2.08,1.79h0c-.26.28-.48.58-.72.88s-.42.46-.6.72h0a15.57,15.57,0,0,1-22.35-.08c-.1-.14-.22-.26-.33-.4a13.61,13.61,0,0,0-.91-1.1l-2.1-1.83,0,0h0c-.17-.12-.37-.21-.54-.32a14,14,0,0,0-1.48-.79c-.26-.12-.52-.22-.79-.33-.5-.18-1-.33-1.52-.47l-.75-.17a12.79,12.79,0,0,0-2.41-.24,13.25,13.25,0,1,0,0,26.49Z"/><path class="cls-19" d="M1117.74,470.61c.27.11.53.21.79.33C1118.27,470.82,1118,470.72,1117.74,470.61Z"/><path class="cls-19" d="M1120,471.73c.18.11.37.2.55.32C1120.38,471.93,1120.19,471.84,1120,471.73Z"/><path class="cls-19" d="M1115.47,470l.75.17Z"/><path class="cls-19" d="M1116.22,495.8l-.75.18Z"/><path class="cls-19" d="M1120.56,493.89c-.18.12-.37.21-.55.32C1120.19,494.1,1120.38,494,1120.56,493.89Z"/><path class="cls-19" d="M1122.65,492.08l-2.08,1.8A13.25,13.25,0,0,0,1122.65,492.08Z"/><path class="cls-19" d="M1118.53,495c-.26.12-.52.22-.79.32C1118,495.23,1118.27,495.13,1118.53,495Z"/><path class="cls-19" d="M1123.59,475a13.32,13.32,0,0,0-3-2.93l2.1,1.83C1123,474.25,1123.29,474.62,1123.59,475Z"/><path class="cls-19" d="M1123.38,491.2c.2-.25.41-.47.6-.73h0C1123.79,490.73,1123.58,491,1123.38,491.2Z"/><path class="cls-19" d="M1154.77,496l-.75-.18Z"/><path class="cls-19" d="M1147.59,473.86l2.08-1.79A13.18,13.18,0,0,0,1147.59,473.86Z"/><path class="cls-19" d="M1146.86,474.75c-.2.25-.42.47-.6.73h0C1146.44,475.21,1146.66,475,1146.86,474.75Z"/><path class="cls-19" d="M1152.5,495.33c-.27-.1-.54-.2-.79-.32C1152,495.13,1152.23,495.23,1152.5,495.33Z"/><path class="cls-19" d="M1151.71,470.94c.25-.12.52-.22.79-.33C1152.23,470.72,1152,470.82,1151.71,470.94Z"/><path class="cls-19" d="M1154,470.14l.75-.17Z"/><path class="cls-19" d="M1146.66,490.94a13.12,13.12,0,0,0,3,2.94l-2.11-1.83C1147.24,491.7,1147,491.32,1146.66,490.94Z"/><path class="cls-19" d="M1149.69,472.05c.16-.12.36-.21.54-.32C1150.05,471.84,1149.85,471.93,1149.69,472.05Z"/><path class="cls-19" d="M1150.23,494.21c-.18-.11-.38-.2-.54-.32C1149.85,494,1150.05,494.1,1150.23,494.21Z"/><path class="cls-19" d="M1096.24,492.84l.8.33Z"/><path class="cls-19" d="M1098.5,494a4,4,0,0,1,.54.31A4,4,0,0,0,1098.5,494Z"/><path class="cls-19" d="M1094,492.2l.76.17Z"/><path class="cls-19" d="M1094.72,518l-.76.17Z"/><path class="cls-19" d="M1099,516.12a3.2,3.2,0,0,1-.54.32A3.2,3.2,0,0,0,1099,516.12Z"/><path class="cls-19" d="M1101.15,514.31l-2.09,1.8A12.81,12.81,0,0,0,1101.15,514.31Z"/><path class="cls-19" d="M1097,517.24l-.8.33Z"/><path class="cls-19" d="M1102.08,497.24a12.77,12.77,0,0,0-3-2.94l2.11,1.83A13.76,13.76,0,0,1,1102.08,497.24Z"/><path class="cls-19" d="M1101.88,513.43c.19-.25.42-.47.59-.73h0C1102.3,513,1102.07,513.18,1101.88,513.43Z"/><path class="cls-19" d="M1133.27,518.21l-.75-.17Z"/><path class="cls-19" d="M1126.08,496.09l2.08-1.79A14.77,14.77,0,0,0,1126.08,496.09Z"/><path class="cls-19" d="M1125.36,497c-.2.25-.42.47-.6.73h0C1124.94,497.44,1125.16,497.23,1125.36,497Z"/><path class="cls-19" d="M1131,517.57c-.28-.11-.54-.21-.8-.33C1130.46,517.36,1130.72,517.46,1131,517.57Z"/><path class="cls-19" d="M1130.2,493.17c.26-.12.52-.22.8-.33C1130.72,493,1130.46,493.05,1130.2,493.17Z"/><path class="cls-19" d="M1132.52,492.37l.75-.17Z"/><path class="cls-19" d="M1125.15,513.18a13.28,13.28,0,0,0,3,2.93l-2.1-1.83C1125.73,513.93,1125.44,513.55,1125.15,513.18Z"/><path class="cls-19" d="M1128.18,494.28c.18-.12.37-.21.54-.31C1128.55,494.07,1128.36,494.16,1128.18,494.28Z"/><path class="cls-19" d="M1128.72,516.44c-.17-.1-.36-.19-.54-.32C1128.36,516.25,1128.55,516.34,1128.72,516.44Z"/><path class="cls-19" d="M1091.55,518.46a12.62,12.62,0,0,0,2.41-.25l.76-.17c.52-.14,1-.3,1.52-.47l.8-.33a11.48,11.48,0,0,0,1.46-.8,3.2,3.2,0,0,0,.54-.32h0l2.09-1.8h0c.26-.28.48-.59.73-.88s.42-.47.59-.73h0a15.56,15.56,0,0,1,22.34.07c.11.15.23.27.34.41.29.37.58.75.91,1.1l2.1,1.83h0c.18.13.37.22.54.32a12.45,12.45,0,0,0,1.48.8c.26.12.52.22.8.33.49.17,1,.33,1.52.47l.75.17a12.77,12.77,0,0,0,2.4.25,13.25,13.25,0,0,0,0-26.5,13.65,13.65,0,0,0-2.4.24l-.75.17c-.52.14-1,.29-1.52.47-.28.11-.54.21-.8.33a12.45,12.45,0,0,0-1.48.8c-.17.1-.36.19-.54.31h0l0,0-2.08,1.79h0c-.26.28-.48.59-.72.88s-.42.46-.6.72h0a15.56,15.56,0,0,1-22.34-.07,4.47,4.47,0,0,0-.34-.4,13.76,13.76,0,0,0-.91-1.11l-2.11-1.83v0h0a4,4,0,0,0-.54-.31,11.48,11.48,0,0,0-1.46-.8l-.8-.33c-.5-.18-1-.33-1.52-.47l-.76-.17a13.49,13.49,0,0,0-2.41-.24,13.25,13.25,0,0,0,0,26.5Z"/><path class="cls-19" d="M1096.24,448.38l.8.32Z"/><path class="cls-19" d="M1098.5,449.5a5.5,5.5,0,0,1,.54.32A5.5,5.5,0,0,0,1098.5,449.5Z"/><path class="cls-19" d="M1094,447.74c.25,0,.5.11.76.17C1094.46,447.85,1094.22,447.78,1094,447.74Z"/><path class="cls-19" d="M1094.72,473.57c-.26.07-.51.12-.76.17C1094.22,473.69,1094.46,473.64,1094.72,473.57Z"/><path class="cls-19" d="M1099,471.66a5.5,5.5,0,0,1-.54.32A5.5,5.5,0,0,0,1099,471.66Z"/><path class="cls-19" d="M1101.15,469.85l-2.09,1.8A13.87,13.87,0,0,0,1101.15,469.85Z"/><path class="cls-19" d="M1097,472.78c-.27.12-.53.22-.8.32C1096.51,473,1096.77,472.9,1097,472.78Z"/><path class="cls-19" d="M1102.08,452.77a12.73,12.73,0,0,0-3-2.93l2.11,1.82A13.76,13.76,0,0,1,1102.08,452.77Z"/><path class="cls-19" d="M1101.88,469c.19-.24.42-.47.59-.72h0C1102.3,468.5,1102.07,468.72,1101.88,469Z"/><path class="cls-19" d="M1133.27,473.74c-.26-.05-.5-.1-.75-.17C1132.77,473.64,1133,473.69,1133.27,473.74Z"/><path class="cls-19" d="M1126.08,451.63l2.08-1.79A13.57,13.57,0,0,0,1126.08,451.63Z"/><path class="cls-19" d="M1125.36,452.52a8.3,8.3,0,0,0-.6.73h0A8.17,8.17,0,0,1,1125.36,452.52Z"/><path class="cls-19" d="M1131,473.1c-.28-.1-.54-.2-.8-.32C1130.46,472.9,1130.72,473,1131,473.1Z"/><path class="cls-19" d="M1130.2,448.7c.26-.11.52-.22.8-.32C1130.72,448.48,1130.46,448.59,1130.2,448.7Z"/><path class="cls-19" d="M1132.52,447.91c.25-.06.49-.13.75-.17C1133,447.78,1132.77,447.85,1132.52,447.91Z"/><path class="cls-19" d="M1125.15,468.71a13.32,13.32,0,0,0,3,2.94l-2.1-1.84A12.07,12.07,0,0,1,1125.15,468.71Z"/><path class="cls-19" d="M1128.18,449.82c.18-.12.37-.21.54-.32C1128.55,449.61,1128.36,449.7,1128.18,449.82Z"/><path class="cls-19" d="M1128.72,472c-.17-.11-.36-.2-.54-.32C1128.36,471.78,1128.55,471.87,1128.72,472Z"/><path class="cls-19" d="M1091.55,474a12.62,12.62,0,0,0,2.41-.25c.25-.05.5-.1.76-.17a15.73,15.73,0,0,0,1.52-.47c.27-.1.53-.2.8-.32a14.66,14.66,0,0,0,1.46-.8,5.5,5.5,0,0,0,.54-.32h0l2.09-1.8h0c.26-.27.48-.58.73-.88s.42-.46.59-.72h0a15.55,15.55,0,0,1,22.34.07c.11.14.23.26.34.4a12.07,12.07,0,0,0,.91,1.1l2.1,1.84h0c.18.12.37.21.54.32a16.21,16.21,0,0,0,1.48.8c.26.12.52.22.8.32a14.91,14.91,0,0,0,1.52.47c.25.07.49.12.75.17a12.69,12.69,0,0,0,2.4.25,13.25,13.25,0,0,0,0-26.5,12.69,12.69,0,0,0-2.4.25c-.26,0-.5.11-.75.17a14.91,14.91,0,0,0-1.52.47c-.28.1-.54.21-.8.32a16.21,16.21,0,0,0-1.48.8c-.17.11-.36.2-.54.32h0l0,0-2.08,1.79h0c-.26.28-.48.58-.72.88a8.17,8.17,0,0,0-.6.72h0a15.57,15.57,0,0,1-22.34-.07,4.62,4.62,0,0,0-.34-.41,13.76,13.76,0,0,0-.91-1.11l-2.11-1.82v0h0a5.5,5.5,0,0,0-.54-.32,14.66,14.66,0,0,0-1.46-.8l-.8-.32a15.73,15.73,0,0,0-1.52-.47c-.26-.06-.51-.13-.76-.17a12.62,12.62,0,0,0-2.41-.25,13.25,13.25,0,0,0,0,26.5Z"/><path class="cls-19" d="M1185.67,459.53h3.62v45.32h-3.62Z"/><path class="cls-19" d="M1205.69,482.19a23.25,23.25,0,0,1,43.44-11.56l-3.1,1.74a19.64,19.64,0,1,0,0,19.64l3.1,1.74a23.25,23.25,0,0,1-43.44-11.56Z"/><path class="cls-19" d="M1286.22,493.9h-21.15l-3.85,11h-4l16.4-45.32h4L1294,504.85h-3.93Zm-1.21-3.48-9.36-26.59-9.37,26.59Z"/><path class="cls-19" d="M1342.43,459.53v45.32h-3.17L1309.94,466v38.9h-3.62V459.53h3.17l29.31,38.9v-38.9Z"/><path class="cls-19" d="M1416.62,459.53l-13.22,45.32h-8.31l-10-36.26-9.9,36.26h-8.23l-13.37-45.32h7.86l9.82,34.14,9.67-34.14h8.38l9.75,34.29,9.89-34.29Z"/><path class="cls-19" d="M1434.6,466.25v12.54h16.09v6.8H1434.6v12.54h18.59v6.72h-26V459.53h26v6.72Z"/><path class="cls-19" d="M1500.48,492.69c0,7.48-5.74,12.16-12.92,12.16h-19.49V459.53h17.83c7.25,0,13.07,4.83,13.07,12.31a10.56,10.56,0,0,1-6,10.05A11,11,0,0,1,1500.48,492.69Zm-15.41-26.29h-9.67v12.54h9.67a6.41,6.41,0,0,0,6.49-6.34A6.24,6.24,0,0,0,1485.07,466.4Zm8,25.38a6.43,6.43,0,0,0-6.58-6.34h-11.1V498h11.1A6.32,6.32,0,0,0,1493.08,491.78Z"/></g><path class="cls-1" d="M1471.22,582.55a35.12,35.12,0,0,0-2.48-4.22l5.13-11.41a45.66,45.66,0,0,0-18.12-12l-8.54,9.14a34.4,34.4,0,0,0-9.73-.62l-7.32-10.14a46.2,46.2,0,0,0-10.33,3.66,45.37,45.37,0,0,0-9.15,6l3.66,12a34.91,34.91,0,0,0-5.4,8.12l-12.43,1.27a45.48,45.48,0,0,0-1.39,21.71l12.19,2.82a35.57,35.57,0,0,0,1.86,4.52,35,35,0,0,0,2.48,4.21L1406.52,629a45.84,45.84,0,0,0,18.13,12l8.53-9.15a34.45,34.45,0,0,0,9.73.62l7.31,10.15a45.74,45.74,0,0,0,19.49-9.67l-3.66-12a34.91,34.91,0,0,0,5.4-8.12l12.43-1.27a45.73,45.73,0,0,0,1.39-21.71l-12.19-2.82A36.32,36.32,0,0,0,1471.22,582.55Zm-21.12,35.37A22.3,22.3,0,1,1,1460.17,588,22.29,22.29,0,0,1,1450.1,617.92Z"/><path class="cls-2" d="M1450.22,644.31a1.7,1.7,0,0,1-1.38-.7l-6.76-9.38a36.64,36.64,0,0,1-8.3-.53l-7.89,8.45a1.67,1.67,0,0,1-1.82.44,47.59,47.59,0,0,1-18.8-12.47,1.7,1.7,0,0,1-.3-1.85l4.75-10.55a36,36,0,0,1-3.7-7.46l-11.28-2.6a1.72,1.72,0,0,1-1.29-1.36,47.35,47.35,0,0,1,1.44-22.52,1.69,1.69,0,0,1,1.45-1.18l11.49-1.17a36.8,36.8,0,0,1,4.61-6.93l-3.39-11.06a1.71,1.71,0,0,1,.53-1.8,47,47,0,0,1,9.5-6.23,47.89,47.89,0,0,1,10.71-3.8,1.7,1.7,0,0,1,1.75.66l6.77,9.38a36.53,36.53,0,0,1,8.3.53l7.89-8.45a1.7,1.7,0,0,1,1.82-.44,47.61,47.61,0,0,1,18.8,12.48,1.7,1.7,0,0,1,.3,1.85l-4.74,10.55a38.33,38.33,0,0,1,2.07,3.62,39.24,39.24,0,0,1,1.62,3.83l11.28,2.6a1.7,1.7,0,0,1,1.29,1.36,47.6,47.6,0,0,1-1.43,22.52,1.71,1.71,0,0,1-1.45,1.18l-11.5,1.18a37,37,0,0,1-4.61,6.93l3.38,11.06a1.69,1.69,0,0,1-.53,1.79,47.26,47.26,0,0,1-20.21,10A1.5,1.5,0,0,1,1450.22,644.31Zm-7.31-13.54a1.7,1.7,0,0,1,1.38.71l6.64,9.22a44.07,44.07,0,0,0,8.86-3.26,44.62,44.62,0,0,0,8-5.08l-3.32-10.88a1.71,1.71,0,0,1,.35-1.63,32.88,32.88,0,0,0,5.14-7.72,1.68,1.68,0,0,1,1.36-1l11.3-1.15a44.16,44.16,0,0,0,1.2-18.75l-11.08-2.55a1.7,1.7,0,0,1-1.23-1.11,34.65,34.65,0,0,0-1.77-4.32,36,36,0,0,0-2.36-4,1.7,1.7,0,0,1-.15-1.66l4.66-10.37a44.12,44.12,0,0,0-15.64-10.38l-7.76,8.31a1.68,1.68,0,0,1-1.59.5,33.28,33.28,0,0,0-9.25-.59,1.69,1.69,0,0,1-1.51-.7l-6.65-9.22a45.25,45.25,0,0,0-8.86,3.27,44.21,44.21,0,0,0-8,5.08L1416,574.4a1.69,1.69,0,0,1-.35,1.63,33.36,33.36,0,0,0-5.14,7.73,1.69,1.69,0,0,1-1.36,1l-11.3,1.15a44.12,44.12,0,0,0-1.2,18.74l11.09,2.56a1.7,1.7,0,0,1,1.22,1.12,34.81,34.81,0,0,0,1.77,4.3,32.61,32.61,0,0,0,2.36,4,1.67,1.67,0,0,1,.15,1.66l-4.67,10.38A44.38,44.38,0,0,0,1424.18,639l7.76-8.32a1.69,1.69,0,0,1,1.58-.5,33.45,33.45,0,0,0,9.26.59Zm-2.7-8.83a24,24,0,1,1,10.65-2.5A23.84,23.84,0,0,1,1440.21,621.94Zm0-44.6a20.6,20.6,0,1,0,9.17,39,20.6,20.6,0,0,0-9.17-39Z"/><path class="cls-3" d="M1430.28,578A22.3,22.3,0,1,0,1460.17,588,22.29,22.29,0,0,0,1430.28,578Z"/><path class="cls-3" d="M1440.21,621.94h0a24,24,0,1,1,10.65-2.5A23.84,23.84,0,0,1,1440.21,621.94Zm0-44.6a20.6,20.6,0,1,0,9.17,39,20.6,20.6,0,0,0-9.17-39Z"/><g class="cls-4"><polygon class="cls-5" points="1180.81 294.55 1296.58 307.57 1290.33 363.14 1231.87 356.56 1229.49 377.67 1199.92 352.97 1174.56 350.12 1180.81 294.55"/><polyline class="cls-6" points="1253.36 342.1 1270.26 332.71 1255.87 319.79"/><polyline class="cls-6" points="1212.1 314.87 1195.19 324.26 1209.59 337.18"/><line class="cls-6" x1="1245.2" y1="315.59" x2="1222.91" y2="342.03"/></g><path class="cls-1" d="M1029.45,142a34.36,34.36,0,0,0-2.48-4.22l5.13-11.41a45.76,45.76,0,0,0-18.13-12l-8.53,9.15a34.4,34.4,0,0,0-9.73-.62l-7.32-10.15a46.23,46.23,0,0,0-10.33,3.67,45.29,45.29,0,0,0-9.16,6l3.67,12a34.91,34.91,0,0,0-5.4,8.12l-12.43,1.27a45.48,45.48,0,0,0-1.39,21.71l12.19,2.82a35.57,35.57,0,0,0,1.86,4.52,33.23,33.23,0,0,0,2.48,4.21l-5.13,11.42a45.71,45.71,0,0,0,18.13,12l8.53-9.14a34.42,34.42,0,0,0,9.73.62l7.31,10.14a45.44,45.44,0,0,0,19.49-9.67l-3.66-12a34.91,34.91,0,0,0,5.4-8.12l12.43-1.27a45.73,45.73,0,0,0,1.39-21.71l-12.19-2.82A36.32,36.32,0,0,0,1029.45,142Zm-21.12,35.36a22.29,22.29,0,1,1,10.07-29.88A22.27,22.27,0,0,1,1008.33,177.4Z"/><path class="cls-2" d="M1008.45,203.8a1.69,1.69,0,0,1-1.38-.7l-6.76-9.39a36.64,36.64,0,0,1-8.3-.52l-7.89,8.45a1.67,1.67,0,0,1-1.82.44,47.59,47.59,0,0,1-18.8-12.47,1.7,1.7,0,0,1-.3-1.85l4.74-10.55a39.79,39.79,0,0,1-2.07-3.63,37.61,37.61,0,0,1-1.62-3.83L953,167.15a1.7,1.7,0,0,1-1.29-1.36,47.22,47.22,0,0,1,1.44-22.52,1.69,1.69,0,0,1,1.45-1.18l11.49-1.17a36.48,36.48,0,0,1,4.61-6.93l-3.39-11.06a1.71,1.71,0,0,1,.53-1.8,47,47,0,0,1,9.5-6.23A47.89,47.89,0,0,1,988,111.1a1.7,1.7,0,0,1,1.75.66l6.77,9.38a36.53,36.53,0,0,1,8.3.53l7.89-8.46a1.72,1.72,0,0,1,1.82-.43,47.61,47.61,0,0,1,18.8,12.48,1.7,1.7,0,0,1,.3,1.85l-4.74,10.55a38.33,38.33,0,0,1,2.07,3.62,39.24,39.24,0,0,1,1.62,3.83l11.28,2.6a1.7,1.7,0,0,1,1.29,1.36,47.6,47.6,0,0,1-1.44,22.52,1.69,1.69,0,0,1-1.44,1.18l-11.5,1.18a37,37,0,0,1-4.61,6.93l3.38,11.06a1.69,1.69,0,0,1-.53,1.79,46.67,46.67,0,0,1-9.5,6.24,47.66,47.66,0,0,1-10.71,3.79A1.55,1.55,0,0,1,1008.45,203.8Zm-7.31-13.54a1.7,1.7,0,0,1,1.38.71l6.64,9.22a43.91,43.91,0,0,0,16.82-8.34L1022.65,181a1.73,1.73,0,0,1,.36-1.63,32.54,32.54,0,0,0,5.13-7.72,1.71,1.71,0,0,1,1.37-1l11.3-1.15a44.32,44.32,0,0,0,1.2-18.75l-11.08-2.55a1.7,1.7,0,0,1-1.23-1.11,32.33,32.33,0,0,0-4.13-8.32,1.7,1.7,0,0,1-.15-1.66l4.66-10.37a44.28,44.28,0,0,0-15.64-10.39l-7.76,8.32a1.68,1.68,0,0,1-1.59.5,33.28,33.28,0,0,0-9.25-.59,1.69,1.69,0,0,1-1.51-.7l-6.65-9.22a44.39,44.39,0,0,0-8.86,3.27,43.67,43.67,0,0,0-8,5.08l3.33,10.87a1.69,1.69,0,0,1-.35,1.63,32.84,32.84,0,0,0-5.14,7.73,1.69,1.69,0,0,1-1.36.95L956,145.35a44.11,44.11,0,0,0-1.2,18.74l11.09,2.56a1.68,1.68,0,0,1,1.22,1.12,34.81,34.81,0,0,0,1.77,4.3,32.61,32.61,0,0,0,2.36,4,1.7,1.7,0,0,1,.15,1.66l-4.67,10.38a44.38,44.38,0,0,0,15.65,10.38l7.76-8.32a1.7,1.7,0,0,1,1.58-.51,33,33,0,0,0,9.25.6Zm-2.7-8.83a24,24,0,1,1,10.65-2.5A23.84,23.84,0,0,1,998.44,181.43Zm0-44.6a20.6,20.6,0,1,0,9.16,39,20.6,20.6,0,0,0-9.16-39Z"/><path class="cls-3" d="M988.51,137.46a22.29,22.29,0,1,0,29.89,10.06A22.28,22.28,0,0,0,988.51,137.46Z"/><path class="cls-3" d="M998.44,181.43h0a24,24,0,1,1,10.65-2.5A23.84,23.84,0,0,1,998.44,181.43Zm0-44.6a20.6,20.6,0,1,0,9.16,39,20.6,20.6,0,0,0-9.16-39Z"/></g></g></svg>