<svg xmlns="http://www.w3.org/2000/svg" viewBox="0 0 1499.81 856.5"><defs><style>.cls-1{opacity:0.4;}.cls-2{fill:#bdbfc1;opacity:0.5;}.cls-10,.cls-3{fill:#020608;}.cls-3{opacity:0.66;}.cls-4{fill:#dbdee2;}.cls-5{opacity:0.8;}.cls-6,.cls-7{fill:#c4c4c4;}.cls-14,.cls-15,.cls-7{stroke:#242122;stroke-linejoin:round;}.cls-7{stroke-width:5.86px;}.cls-8{opacity:0.7;}.cls-9{fill:#fbe492;}.cls-11{fill:#fff;}.cls-12{fill:#dcc77f;}.cls-13{opacity:0.6;}.cls-14{fill:#d1d2d3;}.cls-14,.cls-15{stroke-width:6px;}.cls-15{fill:none;}.cls-16{fill:#a6a7aa;}.cls-17{fill:#374963;}.cls-18{fill:#425776;}.cls-19{fill:#c2536d;}</style></defs><title>Asset 13</title><g id="Layer_2" data-name="Layer 2"><g id="Слой_1" data-name="Слой 1"><g class="cls-1"><path class="cls-2" d="M570.22,70.37a34.29,34.29,0,0,0-2.49-4.21l5.13-11.41a45.51,45.51,0,0,0-18.12-12l-8.54,9.15a34.4,34.4,0,0,0-9.73-.63l-7.31-10.14a45.74,45.74,0,0,0-19.49,9.67l3.66,12a34.7,34.7,0,0,0-5.4,8.12L495.5,72.11a45.53,45.53,0,0,0-1.38,21.72l12.19,2.81a35.77,35.77,0,0,0,1.85,4.52,35.12,35.12,0,0,0,2.48,4.22l-5.13,11.41a45.63,45.63,0,0,0,18.13,12l8.53-9.15a34.45,34.45,0,0,0,9.73.62l7.31,10.15a45.44,45.44,0,0,0,19.49-9.67l-3.66-12a34.14,34.14,0,0,0,5.4-8.13l12.44-1.26a45.78,45.78,0,0,0,1.38-21.72l-12.18-2.81A39.08,39.08,0,0,0,570.22,70.37Zm-21.13,35.37a22.3,22.3,0,1,1,10.07-29.88A22.29,22.29,0,0,1,549.09,105.74Z"/><path class="cls-3" d="M549.21,132.14a1.69,1.69,0,0,1-1.37-.71l-6.77-9.38a36.68,36.68,0,0,1-8.3-.53L524.89,130a1.7,1.7,0,0,1-1.82.44,47.57,47.57,0,0,1-18.81-12.48,1.7,1.7,0,0,1-.3-1.85l4.75-10.55a35.43,35.43,0,0,1-2.07-3.62A37.65,37.65,0,0,1,505,98.09l-11.28-2.61a1.7,1.7,0,0,1-1.29-1.35,47.53,47.53,0,0,1,1.44-22.53,1.7,1.7,0,0,1,1.45-1.18l11.5-1.17a36.75,36.75,0,0,1,4.6-6.93l-3.38-11.06a1.68,1.68,0,0,1,.52-1.79,47.36,47.36,0,0,1,9.5-6.24,47.89,47.89,0,0,1,10.71-3.8,1.68,1.68,0,0,1,1.75.67l6.77,9.38a35.42,35.42,0,0,1,8.3.53l7.9-8.46a1.7,1.7,0,0,1,1.82-.44A47.53,47.53,0,0,1,574.11,53.6a1.68,1.68,0,0,1,.3,1.84L569.67,66a36.13,36.13,0,0,1,2.07,3.61,41.52,41.52,0,0,1,1.63,3.83L584.64,76a1.7,1.7,0,0,1,1.29,1.36,47.6,47.6,0,0,1-1.43,22.52,1.7,1.7,0,0,1-1.45,1.19l-11.5,1.17a36.16,36.16,0,0,1-4.61,6.93l3.39,11.06a1.72,1.72,0,0,1-.53,1.8,47.26,47.26,0,0,1-20.21,10A2.45,2.45,0,0,1,549.21,132.14ZM541.9,118.6a1.7,1.7,0,0,1,1.38.7l6.65,9.22a43.91,43.91,0,0,0,8.86-3.26,43.45,43.45,0,0,0,8-5.08l-3.32-10.88a1.71,1.71,0,0,1,.35-1.62,32.84,32.84,0,0,0,5.14-7.73,1.72,1.72,0,0,1,1.36-1l11.31-1.15a44.27,44.27,0,0,0,1.19-18.74l-11.08-2.56a1.67,1.67,0,0,1-1.22-1.11,35.47,35.47,0,0,0-1.78-4.31,33.75,33.75,0,0,0-2.36-4,1.71,1.71,0,0,1-.15-1.65l4.67-10.37A44.1,44.1,0,0,0,555.21,44.7L547.45,53a1.67,1.67,0,0,1-1.59.51,33,33,0,0,0-9.26-.59,1.7,1.7,0,0,1-1.5-.7L528.44,43a44,44,0,0,0-8.86,3.27,43.54,43.54,0,0,0-8,5.07L515,62.23a1.7,1.7,0,0,1-.36,1.63,33,33,0,0,0-5.13,7.72,1.7,1.7,0,0,1-1.36,1L496.8,73.69a44.11,44.11,0,0,0-1.2,18.74L506.69,95a1.69,1.69,0,0,1,1.23,1.11,32.1,32.1,0,0,0,1.77,4.31,31.28,31.28,0,0,0,2.36,4,1.7,1.7,0,0,1,.14,1.66l-4.66,10.38a44.07,44.07,0,0,0,15.65,10.38l7.75-8.31a1.69,1.69,0,0,1,1.59-.51,33,33,0,0,0,9.25.59Zm-2.7-8.83a24,24,0,1,1,10.65-2.51A23.86,23.86,0,0,1,539.2,109.77Zm0-44.61a20.6,20.6,0,1,0,18.47,11.45A20.49,20.49,0,0,0,539.17,65.16Z"/><path class="cls-4" d="M529.28,65.79a22.3,22.3,0,1,0,29.88,10.07A22.3,22.3,0,0,0,529.28,65.79Z"/><path class="cls-4" d="M539.2,109.77h0a24,24,0,1,1,10.65-2.51A23.86,23.86,0,0,1,539.2,109.77Zm0-44.61a20.6,20.6,0,1,0,18.47,11.45A20.49,20.49,0,0,0,539.17,65.16Z"/><g class="cls-5"><polygon class="cls-6" points="446.9 196.43 563.4 196.1 563.56 252.01 504.74 252.18 504.8 273.42 472.59 252.27 447.06 252.35 446.9 196.43"/><polyline class="cls-7" points="524.43 235.35 540.14 224.08 524.36 212.9"/><polyline class="cls-7" points="480.32 213.03 464.6 224.3 480.38 235.48"/><line class="cls-7" x1="513.28" y1="209.95" x2="494.17" y2="238.77"/></g><g class="cls-8"><path class="cls-9" d="M677.46,187.1l-4,10.13,35,13.75,4-10.13c4.83-11.27,13.43-17.6,19.47-19.76a47.67,47.67,0,1,0-55.31-21.72C681.36,166.94,681.59,175.55,677.46,187.1Z"/><path class="cls-10" d="M708.2,211.71l-35-13.75a.79.79,0,0,1-.44-1l4-10.13c4.06-11.34,3.83-19.68-.75-27a48.46,48.46,0,1,1,56.2,22.06c-6.09,2.18-14.3,8.41-19,19.32l-4,10.11A.78.78,0,0,1,708.2,211.71Zm-33.7-14.93L708.05,210l3.69-9.4c4.88-11.39,13.5-17.91,19.93-20.21A46.89,46.89,0,1,0,677.31,159c4.86,7.77,5.13,16.54.89,28.39Z"/><path class="cls-11" d="M691,204.11l27-68.78"/><path class="cls-10" d="M690.7,204.84a.79.79,0,0,1-.44-1l27-68.78a.79.79,0,0,1,1.47.58l-27,68.77A.79.79,0,0,1,690.7,204.84Z"/><line class="cls-11" x1="694.15" y1="143.22" x2="730.11" y2="157.34"/><path class="cls-10" d="M729.82,158.07l-36-14.12a.79.79,0,0,1-.44-1,.78.78,0,0,1,1-.45l35.95,14.13a.77.77,0,0,1,.45,1A.79.79,0,0,1,729.82,158.07Z"/><polygon class="cls-12" points="726.57 155.95 702.3 175.3 697.68 144.61 726.57 155.95"/><path class="cls-10" d="M702,176a.79.79,0,0,1-.49-.62l-4.61-30.68a.77.77,0,0,1,1.06-.85l28.88,11.34a.79.79,0,0,1,.49.61.76.76,0,0,1-.29.74l-24.26,19.34A.79.79,0,0,1,702,176Zm-3.35-30.19,4.21,28L725,156.19Z"/><rect class="cls-11" x="684.37" y="185.63" width="9.7" height="45.99" transform="translate(243.11 773.88) rotate(-68.56)"/><path class="cls-10" d="M708.56,222.27l-42.81-16.81a.79.79,0,0,1-.44-1l3.54-9a.79.79,0,0,1,1-.44l42.81,16.81a.79.79,0,0,1,.44,1l-3.54,9A.79.79,0,0,1,708.56,222.27Zm-41.5-18,41.34,16.24,3-7.57L670,196.72Z"/><path class="cls-11" d="M674.25,246.73a6.29,6.29,0,0,0,8.15-3.56l-11.71-4.6A6.3,6.3,0,0,0,674.25,246.73Z"/><path class="cls-10" d="M674,247.46a7.09,7.09,0,0,1-4-9.17.79.79,0,0,1,1-.45l11.71,4.6a.79.79,0,0,1,.44,1A7.09,7.09,0,0,1,674,247.46Zm-2.77-7.85a5.5,5.5,0,0,0,10.14,4Z"/><path class="cls-11" d="M669.5,206.09l-6.58,16.73a15.53,15.53,0,0,0,.76,13l7,2.75,11.71,4.6,7,2.76a15.51,15.51,0,0,0,9.4-9l6.58-16.74Z"/><path class="cls-10" d="M689.12,246.66,663.4,236.55a.73.73,0,0,1-.41-.36,16.35,16.35,0,0,1-.8-13.65l6.57-16.74a.79.79,0,0,1,1-.45l35.89,14.1a.78.78,0,0,1,.45,1l-6.57,16.74a16.36,16.36,0,0,1-9.88,9.46A.8.8,0,0,1,689.12,246.66ZM664.25,235.2l25.17,9.89a14.75,14.75,0,0,0,8.66-8.46l6.29-16L669.94,207.1l-6.29,16A14.75,14.75,0,0,0,664.25,235.2Z"/><path class="cls-10" d="M704.77,230.06l-.06,0L664.5,210.32a.78.78,0,1,1,.69-1.41l40.21,19.72a.78.78,0,0,1-.63,1.43Z"/><path class="cls-10" d="M701.81,237.6l-.06,0-40.21-19.72a.78.78,0,0,1-.36-1,.8.8,0,0,1,1.05-.36l40.22,19.72a.77.77,0,0,1,.35,1.05A.79.79,0,0,1,701.81,237.6Z"/></g><g class="cls-13"><rect class="cls-14" x="486.42" y="308.38" width="144" height="36" transform="translate(-84.73 395.09) rotate(-36.4)"/><polyline class="cls-15" points="616.96 284.46 628.23 276.15 656.72 314.78 587.5 365.82 634.38 429.41"/><rect class="cls-16" x="621.86" y="402.92" width="29" height="60" transform="translate(-132.75 462.14) rotate(-36.4)"/><line class="cls-15" x1="616.38" y1="430.26" x2="630.86" y2="419.58"/><line class="cls-15" x1="624.09" y1="440.72" x2="638.58" y2="430.04"/><line class="cls-15" x1="632.99" y1="452.8" x2="647.48" y2="442.11"/><line class="cls-15" x1="544.99" y1="330.08" x2="553.84" y2="323.55"/><line class="cls-15" x1="560.28" y1="318.8" x2="604.55" y2="286.16"/></g><line class="cls-15" x1="923.18" y1="414.14" x2="923.18" y2="433.14"/><g class="cls-8"><path class="cls-9" d="M392.32,476.44l10.53-2.76-9.54-36.39-10.53,2.76c-11.95,2.75-22.13-.46-27.44-4.07a47.67,47.67,0,1,0,15.07,57.48C373.74,485.17,380.56,479.91,392.32,476.44Z"/><path class="cls-10" d="M394.07,437.09l9.54,36.39a.79.79,0,0,1-.56,1l-10.53,2.76c-11.55,3.41-18.15,8.52-21.38,16.55a48.46,48.46,0,1,1-15.33-58.4c5.35,3.64,15.22,6.6,26.79,3.94l10.51-2.76A.79.79,0,0,1,394.07,437.09Zm7.82,36-9.15-34.87L383,440.82c-12.09,2.77-22.43-.35-28.08-4.19a46.89,46.89,0,1,0,14.79,56.51c3.41-8.5,10.33-13.89,22.41-17.45Z"/><path class="cls-11" d="M398.08,455.49l-71.47,18.74"/><path class="cls-10" d="M398.84,455.29a.79.79,0,0,1-.56,1L326.8,475a.78.78,0,0,1-.39-1.52l71.47-18.74A.78.78,0,0,1,398.84,455.29Z"/><line class="cls-11" x1="347.04" y1="488.84" x2="337.24" y2="451.47"/><path class="cls-10" d="M338,451.27l9.8,37.37a.79.79,0,0,1-1.53.4l-9.79-37.37a.79.79,0,1,1,1.52-.4Z"/><polygon class="cls-12" points="338.2 455.15 368.14 463.34 346.08 485.16 338.2 455.15"/><path class="cls-10" d="M368.9,463.14a.77.77,0,0,1-.21.75l-22.06,21.83a.79.79,0,0,1-.76.2.83.83,0,0,1-.56-.56l-7.87-30a.79.79,0,0,1,.21-.76.77.77,0,0,1,.76-.2l29.94,8.19A.78.78,0,0,1,368.9,463.14Zm-22.41,20.5,20.13-19.9-27.31-7.48Z"/><rect class="cls-11" x="397.92" y="431.26" width="9.7" height="45.99" transform="translate(-102.06 117.03) rotate(-14.69)"/><path class="cls-10" d="M402.38,430.58l11.67,44.49a.79.79,0,0,1-.56,1l-9.38,2.46a.79.79,0,0,1-1-.56l-11.67-44.49a.79.79,0,0,1,.56-1l9.38-2.46A.79.79,0,0,1,402.38,430.58Zm9.95,44.13-11.27-43-7.86,2.06,11.27,43Z"/><path class="cls-11" d="M442.37,443.87a6.29,6.29,0,0,0-7.68-4.49l3.19,12.17A6.29,6.29,0,0,0,442.37,443.87Z"/><path class="cls-10" d="M443.13,443.67a7.09,7.09,0,0,1-5.05,8.64.79.79,0,0,1-1-.56l-3.19-12.17a.79.79,0,0,1,.56-1A7.09,7.09,0,0,1,443.13,443.67Zm-4.7,6.86A5.5,5.5,0,0,0,435.66,440Z"/><path class="cls-11" d="M412.35,471.67l17.39-4.56a15.51,15.51,0,0,0,10.05-8.28l-1.91-7.28-3.19-12.17-1.91-7.28A15.5,15.5,0,0,0,420,429.81l-17.39,4.57Z"/><path class="cls-10" d="M433.54,431.9l7,26.73a.8.8,0,0,1-.05.55,16.33,16.33,0,0,1-10.56,8.69l-17.39,4.56a.79.79,0,0,1-1-.56l-9.78-37.29a.78.78,0,0,1,.56-1l17.39-4.57a16.36,16.36,0,0,1,13.47,2.4A.84.84,0,0,1,433.54,431.9ZM439,458.75l-6.87-26.17a14.77,14.77,0,0,0-11.93-2l-16.63,4.37,9.38,35.77,16.63-4.36A14.75,14.75,0,0,0,439,458.75Z"/><path class="cls-10" d="M410.91,429a.2.2,0,0,1,0,.07l7.79,44.1a.78.78,0,0,1-.64.91.8.8,0,0,1-.91-.63l-7.78-44.11a.78.78,0,0,1,1.53-.34Z"/><path class="cls-10" d="M418.74,427a.17.17,0,0,1,0,.07l7.79,44.1a.78.78,0,0,1-.64.91.8.8,0,0,1-.91-.64l-7.78-44.1a.78.78,0,0,1,1.53-.34Z"/></g><path class="cls-2" d="M581.83,490.22a35,35,0,0,0-2.48-4.21l5.13-11.41a45.65,45.65,0,0,0-18.13-12l-8.53,9.15a34.4,34.4,0,0,0-9.73-.63l-7.32-10.14a46.7,46.7,0,0,0-10.33,3.66,45.76,45.76,0,0,0-9.16,6l3.67,12a34.7,34.7,0,0,0-5.4,8.12L507.12,492a45.53,45.53,0,0,0-1.39,21.72l12.19,2.82a35.57,35.57,0,0,0,1.86,4.52,33.23,33.23,0,0,0,2.48,4.21l-5.13,11.41a45.63,45.63,0,0,0,18.13,12l8.53-9.14a35.17,35.17,0,0,0,9.73.62l7.31,10.14a45.44,45.44,0,0,0,19.49-9.67l-3.66-12a34.91,34.91,0,0,0,5.4-8.12l12.43-1.27a45.77,45.77,0,0,0,1.39-21.72l-12.19-2.81A36.46,36.46,0,0,0,581.83,490.22Zm-21.12,35.37a22.3,22.3,0,1,1,10.07-29.88A22.28,22.28,0,0,1,560.71,525.59Z"/><path class="cls-3" d="M560.83,552a1.71,1.71,0,0,1-1.38-.7l-6.76-9.39a36.64,36.64,0,0,1-8.3-.53l-7.89,8.46a1.69,1.69,0,0,1-1.82.44,47.61,47.61,0,0,1-18.8-12.48,1.68,1.68,0,0,1-.3-1.85l4.74-10.55a38.33,38.33,0,0,1-2.07-3.62,37.61,37.61,0,0,1-1.62-3.83l-11.28-2.61a1.68,1.68,0,0,1-1.29-1.35,47.27,47.27,0,0,1,1.44-22.53,1.7,1.7,0,0,1,1.45-1.18l11.49-1.17a36.41,36.41,0,0,1,4.61-6.92l-3.39-11.07a1.69,1.69,0,0,1,.53-1.79,47.51,47.51,0,0,1,9.5-6.24,48.4,48.4,0,0,1,10.71-3.8,1.69,1.69,0,0,1,1.75.67l6.77,9.38a36.53,36.53,0,0,1,8.3.53l7.89-8.46a1.72,1.72,0,0,1,1.82-.44,47.63,47.63,0,0,1,18.8,12.49,1.69,1.69,0,0,1,.3,1.84l-4.74,10.56a37.12,37.12,0,0,1,2.07,3.62,40.13,40.13,0,0,1,1.62,3.82l11.28,2.61a1.69,1.69,0,0,1,1.29,1.35,47.65,47.65,0,0,1-1.44,22.53,1.69,1.69,0,0,1-1.45,1.18l-11.5,1.17a36.12,36.12,0,0,1-4.6,6.93l3.38,11.07a1.69,1.69,0,0,1-.53,1.79,47.26,47.26,0,0,1-20.21,10A1.55,1.55,0,0,1,560.83,552Zm-7.31-13.54a1.71,1.71,0,0,1,1.38.7l6.64,9.22a43.66,43.66,0,0,0,8.86-3.25,44.11,44.11,0,0,0,8-5.09L575,529.16a1.72,1.72,0,0,1,.36-1.63,33.26,33.26,0,0,0,5.13-7.72,1.71,1.71,0,0,1,1.37-1l11.3-1.16a44.27,44.27,0,0,0,1.2-18.74l-11.08-2.56a1.69,1.69,0,0,1-1.23-1.11,36.79,36.79,0,0,0-1.77-4.31,35.17,35.17,0,0,0-2.36-4,1.68,1.68,0,0,1-.15-1.65l4.66-10.37a44.14,44.14,0,0,0-15.64-10.39l-7.76,8.32a1.68,1.68,0,0,1-1.59.5,32.93,32.93,0,0,0-9.25-.59,1.69,1.69,0,0,1-1.51-.7l-6.65-9.22a44.29,44.29,0,0,0-16.82,8.34l3.33,10.88a1.69,1.69,0,0,1-.35,1.63,32.78,32.78,0,0,0-5.14,7.72,1.68,1.68,0,0,1-1.36,1l-11.3,1.15a44.11,44.11,0,0,0-1.2,18.74l11.09,2.56a1.67,1.67,0,0,1,1.22,1.12,35.46,35.46,0,0,0,1.77,4.3,32.61,32.61,0,0,0,2.36,4,1.7,1.7,0,0,1,.15,1.66l-4.67,10.37a44.25,44.25,0,0,0,15.65,10.38l7.75-8.31a1.7,1.7,0,0,1,1.59-.51,33,33,0,0,0,9.25.59Zm-2.7-8.83a24,24,0,1,1,10.65-2.51A23.83,23.83,0,0,1,550.82,529.62Zm0-44.6A20.6,20.6,0,1,0,560,524.07,20.6,20.6,0,0,0,550.79,485Z"/><path class="cls-4" d="M540.89,485.64a22.3,22.3,0,1,0,29.89,10.07A22.3,22.3,0,0,0,540.89,485.64Z"/><path class="cls-4" d="M550.82,529.62h0a24,24,0,1,1,10.65-2.51A23.83,23.83,0,0,1,550.82,529.62Zm0-44.6A20.6,20.6,0,1,0,560,524.07,20.6,20.6,0,0,0,550.79,485Z"/><path class="cls-2" d="M353,262.7a34.23,34.23,0,0,0-2.48-4.21l5.13-11.41a45.55,45.55,0,0,0-18.13-12L329,244.19a34.4,34.4,0,0,0-9.73-.63l-7.32-10.14a46.2,46.2,0,0,0-10.33,3.66,45.72,45.72,0,0,0-9.16,6l3.67,12a34.7,34.7,0,0,0-5.4,8.12l-12.43,1.26a45.53,45.53,0,0,0-1.39,21.72L289.06,289a34.41,34.41,0,0,0,1.86,4.52,32.66,32.66,0,0,0,2.48,4.22l-5.13,11.41a45.63,45.63,0,0,0,18.13,12l8.53-9.15a34.8,34.8,0,0,0,9.73.63L332,322.77a45.44,45.44,0,0,0,19.49-9.67l-3.66-12a34.76,34.76,0,0,0,5.4-8.13l12.43-1.26A45.78,45.78,0,0,0,367,270l-12.19-2.81A35.83,35.83,0,0,0,353,262.7Zm-21.12,35.37a22.3,22.3,0,1,1,10.07-29.88A22.28,22.28,0,0,1,331.85,298.07Z"/><path class="cls-3" d="M332,324.47a1.7,1.7,0,0,1-1.38-.71l-6.76-9.38a36.64,36.64,0,0,1-8.3-.53l-7.89,8.46a1.69,1.69,0,0,1-1.82.44A47.61,47.61,0,0,1,287,310.27a1.7,1.7,0,0,1-.3-1.85l4.74-10.55a39.63,39.63,0,0,1-2.07-3.62,37.61,37.61,0,0,1-1.62-3.83l-11.28-2.61a1.68,1.68,0,0,1-1.29-1.35,47.27,47.27,0,0,1,1.44-22.53,1.69,1.69,0,0,1,1.45-1.18l11.49-1.17a36.8,36.8,0,0,1,4.61-6.93l-3.39-11.06a1.68,1.68,0,0,1,.53-1.79,47.08,47.08,0,0,1,9.5-6.24,47.89,47.89,0,0,1,10.71-3.8,1.69,1.69,0,0,1,1.75.67l6.77,9.38a35.42,35.42,0,0,1,8.3.53l7.89-8.46a1.7,1.7,0,0,1,1.82-.44,47.63,47.63,0,0,1,18.8,12.49,1.68,1.68,0,0,1,.3,1.84l-4.74,10.56a38.2,38.2,0,0,1,2.07,3.61,41.43,41.43,0,0,1,1.62,3.83l11.28,2.61a1.69,1.69,0,0,1,1.29,1.35,47.6,47.6,0,0,1-1.44,22.52,1.7,1.7,0,0,1-1.44,1.19l-11.5,1.17a36.64,36.64,0,0,1-4.61,6.93l3.38,11.06a1.71,1.71,0,0,1-.53,1.8,47.52,47.52,0,0,1-9.5,6.24,48.16,48.16,0,0,1-10.71,3.79A1.55,1.55,0,0,1,332,324.47Zm-7.31-13.54a1.71,1.71,0,0,1,1.38.7l6.64,9.22a43.91,43.91,0,0,0,16.82-8.34l-3.33-10.88a1.71,1.71,0,0,1,.36-1.62,32.8,32.8,0,0,0,5.13-7.73,1.73,1.73,0,0,1,1.37-1l11.3-1.15a44.27,44.27,0,0,0,1.2-18.74l-11.08-2.56a1.69,1.69,0,0,1-1.23-1.11,36.09,36.09,0,0,0-1.77-4.31,35.17,35.17,0,0,0-2.36-4,1.68,1.68,0,0,1-.15-1.65l4.66-10.37A44.14,44.14,0,0,0,338,237l-7.76,8.31a1.67,1.67,0,0,1-1.59.51,32.91,32.91,0,0,0-9.25-.59,1.72,1.72,0,0,1-1.51-.7l-6.65-9.22a44.29,44.29,0,0,0-16.82,8.34l3.33,10.88a1.7,1.7,0,0,1-.35,1.63,32.78,32.78,0,0,0-5.14,7.72,1.68,1.68,0,0,1-1.36,1L279.56,266a44.11,44.11,0,0,0-1.2,18.74l11.09,2.56a1.67,1.67,0,0,1,1.22,1.11,35,35,0,0,0,1.77,4.31,32.5,32.5,0,0,0,2.36,4,1.7,1.7,0,0,1,.15,1.66l-4.67,10.38a44.25,44.25,0,0,0,15.65,10.38l7.75-8.31a1.7,1.7,0,0,1,1.59-.51,33,33,0,0,0,9.25.59ZM322,302.1a24,24,0,1,1,10.65-2.51A23.83,23.83,0,0,1,322,302.1Zm0-44.61a20.6,20.6,0,1,0,18.46,11.45A20.46,20.46,0,0,0,321.93,257.49Z"/><path class="cls-4" d="M312,258.12a22.3,22.3,0,1,0,29.89,10.07A22.3,22.3,0,0,0,312,258.12Z"/><path class="cls-4" d="M322,302.1h0a24,24,0,1,1,10.65-2.51A23.83,23.83,0,0,1,322,302.1Zm0-44.61a20.6,20.6,0,1,0,18.46,11.45A20.46,20.46,0,0,0,321.93,257.49Z"/><g class="cls-5"><polygon class="cls-6" points="774.04 275 866.19 203.72 900.4 247.94 853.87 283.94 866.87 300.74 828.44 303.61 808.26 319.23 774.04 275"/><polyline class="cls-7" points="859.22 258.6 864.81 240.08 845.49 240.84"/><polyline class="cls-7" points="810.65 267.79 805.06 286.3 824.39 285.55"/><line class="cls-7" x1="834.9" y1="245.25" x2="837.33" y2="279.75"/></g><path class="cls-2" d="M333.47,71.7A35.05,35.05,0,0,0,331,67.49l5.13-11.41A45.79,45.79,0,0,0,318,44l-8.54,9.15a34.4,34.4,0,0,0-9.73-.63l-7.31-10.14a45.88,45.88,0,0,0-10.33,3.67,45.29,45.29,0,0,0-9.16,6l3.66,12a34.91,34.91,0,0,0-5.4,8.12l-12.43,1.27a45.6,45.6,0,0,0-1.39,21.71L269.56,98a37,37,0,0,0,1.85,4.52,35.79,35.79,0,0,0,2.48,4.21l-5.13,11.41a45.63,45.63,0,0,0,18.13,12l8.53-9.14a35.2,35.2,0,0,0,9.73.62l7.31,10.14A45.44,45.44,0,0,0,332,122.1l-3.66-12a34.59,34.59,0,0,0,5.4-8.12l12.44-1.27A45.77,45.77,0,0,0,347.51,79l-12.18-2.81A40.59,40.59,0,0,0,333.47,71.7Zm-21.13,35.37a22.29,22.29,0,1,1,10.07-29.88A22.28,22.28,0,0,1,312.34,107.07Z"/><path class="cls-3" d="M312.46,133.47a1.7,1.7,0,0,1-1.38-.7l-6.76-9.39a36.08,36.08,0,0,1-8.3-.53l-7.88,8.46a1.68,1.68,0,0,1-1.82.44,47.57,47.57,0,0,1-18.81-12.48,1.69,1.69,0,0,1-.3-1.84L272,106.87a34.39,34.39,0,0,1-2.07-3.62,35.53,35.53,0,0,1-1.63-3.83L257,96.81a1.69,1.69,0,0,1-1.29-1.35,47.48,47.48,0,0,1,1.44-22.52,1.7,1.7,0,0,1,1.45-1.19l11.5-1.17a36.2,36.2,0,0,1,4.6-6.92l-3.39-11.07a1.71,1.71,0,0,1,.53-1.79,47.79,47.79,0,0,1,9.5-6.24A48.4,48.4,0,0,1,292,40.76a1.72,1.72,0,0,1,1.75.67l6.77,9.38a36.53,36.53,0,0,1,8.3.53l7.9-8.46a1.7,1.7,0,0,1,1.81-.44,47.49,47.49,0,0,1,18.8,12.49,1.7,1.7,0,0,1,.3,1.85l-4.74,10.55A36.25,36.25,0,0,1,335,71a40.2,40.2,0,0,1,1.63,3.82l11.27,2.61a1.68,1.68,0,0,1,1.29,1.36,47.61,47.61,0,0,1-1.43,22.52,1.7,1.7,0,0,1-1.45,1.18l-11.5,1.17a36.55,36.55,0,0,1-4.61,6.94l3.38,11.06a1.68,1.68,0,0,1-.52,1.79,47.26,47.26,0,0,1-20.21,10A1.64,1.64,0,0,1,312.46,133.47Zm-7.31-13.54a1.7,1.7,0,0,1,1.38.7l6.65,9.23A44.52,44.52,0,0,0,322,126.6a44,44,0,0,0,7.95-5.09l-3.32-10.87A1.7,1.7,0,0,1,327,109a33,33,0,0,0,5.14-7.72,1.68,1.68,0,0,1,1.36-1l11.3-1.15A44.17,44.17,0,0,0,346,80.43l-11.08-2.55a1.7,1.7,0,0,1-1.22-1.12,36.85,36.85,0,0,0-1.78-4.31,32.88,32.88,0,0,0-2.36-4,1.73,1.73,0,0,1-.15-1.66l4.67-10.37A44.23,44.23,0,0,0,318.46,46l-7.76,8.32a1.7,1.7,0,0,1-1.6.5,32.88,32.88,0,0,0-9.25-.59,1.67,1.67,0,0,1-1.5-.7l-6.66-9.22a44,44,0,0,0-16.81,8.35l3.33,10.87a1.7,1.7,0,0,1-.36,1.63,33.46,33.46,0,0,0-5.14,7.73,1.69,1.69,0,0,1-1.36,1L260.05,75a44.11,44.11,0,0,0-1.2,18.74l11.09,2.56a1.7,1.7,0,0,1,1.23,1.12,32.51,32.51,0,0,0,1.77,4.3,31.39,31.39,0,0,0,2.36,4,1.7,1.7,0,0,1,.14,1.66l-4.66,10.37a44.07,44.07,0,0,0,15.65,10.38l7.75-8.31a1.7,1.7,0,0,1,1.58-.51,32.7,32.7,0,0,0,9.26.59Zm-2.7-8.83a24,24,0,1,1,10.65-2.51A23.85,23.85,0,0,1,302.45,111.1Zm0-44.6a20.6,20.6,0,1,0,9.17,39.05,20.6,20.6,0,0,0-9.17-39Z"/><path class="cls-4" d="M292.52,67.13a22.29,22.29,0,1,0,29.89,10.06A22.29,22.29,0,0,0,292.52,67.13Z"/><path class="cls-4" d="M302.45,111.1h0a24,24,0,1,1,10.65-2.51A23.85,23.85,0,0,1,302.45,111.1Zm0-44.6a20.6,20.6,0,1,0,9.17,39.05,20.6,20.6,0,0,0-9.17-39Z"/><g class="cls-8"><path class="cls-9" d="M925.48,410.71,916,405.45l-18.19,32.92,9.53,5.27c10.54,6.25,15.69,15.6,17.05,21.87a47.68,47.68,0,1,0,28.74-52C945,417.21,936.39,416.31,925.48,410.71Z"/><path class="cls-10" d="M897.07,438l18.19-32.92a.79.79,0,0,1,1.07-.31l9.53,5.26c10.71,5.5,19,6.36,26.9,2.77a48.45,48.45,0,1,1-29.2,52.85c-1.36-6.32-6.47-15.27-16.67-21.33l-9.51-5.25A.79.79,0,0,1,897.07,438Zm19.19-31.48-17.43,31.56,8.84,4.88c10.66,6.32,16,15.71,17.44,22.39a46.89,46.89,0,1,0,28.27-51.11c-8.33,3.8-17.06,2.93-28.26-2.82Z"/><path class="cls-11" d="M906.86,421.91l64.67,35.73"/><path class="cls-10" d="M906.17,421.53a.79.79,0,0,1,1.07-.31L971.91,457a.79.79,0,0,1-.76,1.38L906.47,422.6A.79.79,0,0,1,906.17,421.53Z"/><line class="cls-11" x1="966.82" y1="432.97" x2="948.13" y2="466.79"/><path class="cls-10" d="M947.44,466.41l18.69-33.82a.78.78,0,1,1,1.37.76l-18.68,33.82a.79.79,0,0,1-1.38-.76Z"/><polygon class="cls-12" points="949.97 463.46 933.95 436.88 964.97 436.3 949.97 463.46"/><path class="cls-10" d="M933.26,436.5a.78.78,0,0,1,.67-.41l31-.58a.81.81,0,0,1,.69.38.8.8,0,0,1,0,.79l-15,27.16a.8.8,0,0,1-.68.4.79.79,0,0,1-.69-.38l-16-26.58A.78.78,0,0,1,933.26,436.5Zm30.37.61-28.31.53,14.62,24.24Z"/><rect class="cls-11" x="879.62" y="414.72" width="45.99" height="9.7" transform="translate(98.87 1006.72) rotate(-61.08)"/><path class="cls-10" d="M886.56,437l22.24-40.25a.79.79,0,0,1,1.07-.31l8.48,4.69a.78.78,0,0,1,.31,1.07l-22.24,40.25a.78.78,0,0,1-1.06.31L886.87,438A.79.79,0,0,1,886.56,437Zm23.23-38.81L888.31,437l7.12,3.93,21.48-38.88Z"/><path class="cls-11" d="M866.77,399.77a6.29,6.29,0,0,0,2.47,8.54l6.08-11A6.3,6.3,0,0,0,866.77,399.77Z"/><path class="cls-10" d="M866.09,399.39a7.07,7.07,0,0,1,9.61-2.77.78.78,0,0,1,.31,1.06l-6.08,11a.79.79,0,0,1-1.07.31A7.07,7.07,0,0,1,866.09,399.39Zm8.14-1.73A5.51,5.51,0,0,0,869,407.2Z"/><path class="cls-11" d="M907.69,400.35,892,391.65a15.52,15.52,0,0,0-13-.94l-3.64,6.59-6.08,11-3.64,6.6a15.5,15.5,0,0,0,7.7,10.49L889,434.1Z"/><path class="cls-10" d="M864.91,414.53l13.36-24.2a.77.77,0,0,1,.42-.35,16.29,16.29,0,0,1,13.64,1l15.74,8.7a.79.79,0,0,1,.31,1.07l-18.65,33.75a.79.79,0,0,1-1.07.3l-15.74-8.69a16.31,16.31,0,0,1-8.09-11A.75.75,0,0,1,864.91,414.53Zm14.6-23.18L866.43,415a14.76,14.76,0,0,0,7.25,9.68L888.73,433l17.89-32.38-15-8.31A14.75,14.75,0,0,0,879.51,391.35Z"/><path class="cls-10" d="M879.32,432.2l0-.06,24.78-37.3a.79.79,0,0,1,1.31.87L880.67,433a.79.79,0,0,1-1.35-.81Z"/><path class="cls-10" d="M872.24,428.29l0-.06,24.79-37.3a.79.79,0,0,1,1.09-.22.8.8,0,0,1,.22,1.09l-24.79,37.3a.78.78,0,0,1-1.34-.81Z"/></g><path class="cls-2" d="M805.07,464a35,35,0,0,0-2.48-4.21l5.13-11.41a45.69,45.69,0,0,0-18.12-12l-8.54,9.15a34.4,34.4,0,0,0-9.73-.63L764,434.76a46.23,46.23,0,0,0-10.33,3.67,45.29,45.29,0,0,0-9.16,6l3.67,12a34.91,34.91,0,0,0-5.4,8.12l-12.43,1.27A45.48,45.48,0,0,0,729,487.5l12.19,2.82a34.45,34.45,0,0,0,4.34,8.73l-5.13,11.41a45.63,45.63,0,0,0,18.13,12l8.53-9.14a35.17,35.17,0,0,0,9.73.62l7.31,10.14a45.44,45.44,0,0,0,19.49-9.67l-3.66-12a34.91,34.91,0,0,0,5.4-8.12l12.43-1.27a45.77,45.77,0,0,0,1.39-21.72l-12.19-2.81A37.1,37.1,0,0,0,805.07,464ZM784,499.41A22.29,22.29,0,1,1,794,469.53,22.28,22.28,0,0,1,784,499.41Z"/><path class="cls-3" d="M784.07,525.81a1.71,1.71,0,0,1-1.38-.7l-6.76-9.39a36.08,36.08,0,0,1-8.3-.53l-7.89,8.46a1.67,1.67,0,0,1-1.82.44,47.61,47.61,0,0,1-18.8-12.48,1.69,1.69,0,0,1-.3-1.84l4.74-10.56a38.33,38.33,0,0,1-2.07-3.62,37.61,37.61,0,0,1-1.62-3.83l-11.28-2.61a1.69,1.69,0,0,1-1.29-1.35,47.35,47.35,0,0,1,1.44-22.52,1.7,1.7,0,0,1,1.45-1.19l11.49-1.17a36.72,36.72,0,0,1,4.61-6.92l-3.39-11.07a1.69,1.69,0,0,1,.53-1.79,47.51,47.51,0,0,1,9.5-6.24,48.4,48.4,0,0,1,10.71-3.8,1.73,1.73,0,0,1,1.75.67l6.77,9.38a36.53,36.53,0,0,1,8.3.53l7.89-8.46a1.72,1.72,0,0,1,1.82-.44A47.63,47.63,0,0,1,809,447.27a1.7,1.7,0,0,1,.3,1.85l-4.74,10.55a38.33,38.33,0,0,1,2.07,3.62,40.13,40.13,0,0,1,1.62,3.82l11.28,2.61a1.69,1.69,0,0,1,1.29,1.36,47.49,47.49,0,0,1-1.44,22.52,1.69,1.69,0,0,1-1.44,1.18L806.41,496a37,37,0,0,1-4.61,6.94L805.18,514a1.69,1.69,0,0,1-.53,1.79,47.26,47.26,0,0,1-20.21,10A1.55,1.55,0,0,1,784.07,525.81Zm-7.31-13.54a1.71,1.71,0,0,1,1.38.7l6.64,9.23a43.74,43.74,0,0,0,16.82-8.35L798.27,503a1.73,1.73,0,0,1,.36-1.63,32.94,32.94,0,0,0,5.13-7.72,1.71,1.71,0,0,1,1.37-1l11.3-1.15a44.33,44.33,0,0,0,1.2-18.75l-11.08-2.55a1.72,1.72,0,0,1-1.23-1.12,36.79,36.79,0,0,0-1.77-4.31,34.22,34.22,0,0,0-2.36-4,1.7,1.7,0,0,1-.15-1.66l4.66-10.37a44.14,44.14,0,0,0-15.64-10.39l-7.76,8.32a1.68,1.68,0,0,1-1.59.5,32.91,32.91,0,0,0-9.25-.59,1.69,1.69,0,0,1-1.51-.7l-6.65-9.22A44.12,44.12,0,0,0,746.48,445l3.33,10.87a1.69,1.69,0,0,1-.35,1.63,33.15,33.15,0,0,0-5.14,7.73,1.69,1.69,0,0,1-1.36.95l-11.3,1.15a44.11,44.11,0,0,0-1.2,18.74l11.09,2.56a1.68,1.68,0,0,1,1.22,1.12,35.46,35.46,0,0,0,1.77,4.3,32.61,32.61,0,0,0,2.36,4,1.7,1.7,0,0,1,.15,1.66l-4.67,10.37A44.25,44.25,0,0,0,758,520.5l7.76-8.31a1.7,1.7,0,0,1,1.58-.51,32.7,32.7,0,0,0,9.26.59Zm-2.7-8.83a24,24,0,1,1,10.65-2.51A23.84,23.84,0,0,1,774.06,503.44Zm0-44.6a20.6,20.6,0,1,0,9.16,39.05A20.59,20.59,0,0,0,774,458.84Z"/><path class="cls-4" d="M764.13,459.47A22.29,22.29,0,1,0,794,469.53,22.28,22.28,0,0,0,764.13,459.47Z"/><path class="cls-4" d="M774.06,503.44h0a24,24,0,1,1,10.65-2.51A23.84,23.84,0,0,1,774.06,503.44Zm0-44.6a20.6,20.6,0,1,0,9.16,39.05A20.59,20.59,0,0,0,774,458.84Z"/><g class="cls-13"><rect class="cls-14" x="471.51" y="658.65" width="36" height="144" transform="translate(-294.13 331.43) rotate(-29.18)"/><polyline class="cls-15" points="523.74 794 530.57 806.22 488.66 829.63 446.73 754.54 377.75 793.07"/><rect class="cls-16" x="344.02" y="780.08" width="60" height="29" transform="translate(-339.96 283.23) rotate(-29.18)"/><line class="cls-15" x1="379.17" y1="775.09" x2="387.95" y2="790.81"/><line class="cls-15" x1="367.82" y1="781.43" x2="376.6" y2="797.15"/><line class="cls-15" x1="354.72" y1="788.75" x2="363.5" y2="804.46"/><line class="cls-15" x1="487.53" y1="716.86" x2="492.9" y2="726.47"/><line class="cls-15" x1="496.8" y1="733.45" x2="523.61" y2="781.47"/></g><g class="cls-5"><polygon class="cls-6" points="641.98 694.82 548.11 625.83 581.22 580.77 628.62 615.61 641.2 598.49 654.53 634.65 675.1 649.76 641.98 694.82"/><polyline class="cls-7" points="602.79 617.43 583.45 617.15 589.49 635.52"/><polyline class="cls-7" points="624.98 661.61 644.32 661.89 638.27 643.51"/><line class="cls-7" x1="596.64" y1="644.48" x2="629.14" y2="632.67"/></g><path class="cls-2" d="M836.09,710.51a35,35,0,0,0-2.48-4.21l5.13-11.41a45.79,45.79,0,0,0-18.12-12L812.08,692a34.4,34.4,0,0,0-9.73-.63L795,681.23a46.23,46.23,0,0,0-10.33,3.67,45,45,0,0,0-9.15,6l3.66,12a34.91,34.91,0,0,0-5.4,8.12l-12.43,1.27A45.48,45.48,0,0,0,760,734l12.19,2.82a34.45,34.45,0,0,0,4.34,8.73l-5.13,11.41a45.63,45.63,0,0,0,18.13,12l8.53-9.14a35.17,35.17,0,0,0,9.73.62l7.31,10.14a45.44,45.44,0,0,0,19.49-9.67l-3.66-12a34.91,34.91,0,0,0,5.4-8.12l12.43-1.27a45.77,45.77,0,0,0,1.39-21.72L838,715A37.1,37.1,0,0,0,836.09,710.51ZM815,745.88A22.29,22.29,0,1,1,825,716,22.27,22.27,0,0,1,815,745.88Z"/><path class="cls-3" d="M815.09,772.28a1.7,1.7,0,0,1-1.38-.7L807,762.19a36.08,36.08,0,0,1-8.3-.53l-7.89,8.46a1.67,1.67,0,0,1-1.82.44,47.61,47.61,0,0,1-18.8-12.48,1.69,1.69,0,0,1-.3-1.84l4.75-10.56a36.35,36.35,0,0,1-2.08-3.62,37.61,37.61,0,0,1-1.62-3.83l-11.28-2.61a1.69,1.69,0,0,1-1.29-1.35,47.35,47.35,0,0,1,1.44-22.52,1.7,1.7,0,0,1,1.45-1.19l11.49-1.17a36.72,36.72,0,0,1,4.61-6.92l-3.39-11.07a1.69,1.69,0,0,1,.53-1.79,47.51,47.51,0,0,1,9.5-6.24,48.91,48.91,0,0,1,10.71-3.8,1.73,1.73,0,0,1,1.75.67l6.77,9.38a36.53,36.53,0,0,1,8.3.53l7.89-8.46a1.72,1.72,0,0,1,1.82-.44A47.63,47.63,0,0,1,840,693.74a1.7,1.7,0,0,1,.3,1.85l-4.74,10.55a38.33,38.33,0,0,1,2.07,3.62,40.13,40.13,0,0,1,1.62,3.82l11.28,2.61a1.69,1.69,0,0,1,1.29,1.36,47.61,47.61,0,0,1-1.43,22.52,1.71,1.71,0,0,1-1.45,1.18l-11.5,1.17a37,37,0,0,1-4.61,6.94l3.38,11.06a1.69,1.69,0,0,1-.53,1.79,47.26,47.26,0,0,1-20.21,10A1.5,1.5,0,0,1,815.09,772.28Zm-7.31-13.54a1.71,1.71,0,0,1,1.38.7l6.64,9.23a43.74,43.74,0,0,0,16.82-8.35l-3.32-10.87a1.7,1.7,0,0,1,.35-1.63,33.3,33.3,0,0,0,5.14-7.72,1.68,1.68,0,0,1,1.36-1l11.3-1.15a44.33,44.33,0,0,0,1.2-18.75l-11.08-2.55a1.72,1.72,0,0,1-1.23-1.12,36.79,36.79,0,0,0-1.77-4.31,34.22,34.22,0,0,0-2.36-4,1.7,1.7,0,0,1-.15-1.66l4.66-10.37a44.14,44.14,0,0,0-15.64-10.39l-7.76,8.32a1.68,1.68,0,0,1-1.59.5,32.91,32.91,0,0,0-9.25-.59,1.69,1.69,0,0,1-1.51-.7l-6.65-9.22a44.12,44.12,0,0,0-16.82,8.35l3.33,10.87a1.69,1.69,0,0,1-.35,1.63,33.15,33.15,0,0,0-5.14,7.73,1.69,1.69,0,0,1-1.36.95l-11.3,1.15a44.11,44.11,0,0,0-1.2,18.74l11.09,2.56a1.68,1.68,0,0,1,1.22,1.12,35.46,35.46,0,0,0,1.77,4.3,32.61,32.61,0,0,0,2.36,4,1.7,1.7,0,0,1,.15,1.66l-4.67,10.37A44.25,44.25,0,0,0,789.05,767l7.76-8.31a1.7,1.7,0,0,1,1.58-.51,32.7,32.7,0,0,0,9.26.59Zm-2.7-8.83a24,24,0,1,1,10.65-2.51A23.84,23.84,0,0,1,805.08,749.91Zm0-44.6a20.6,20.6,0,1,0,9.17,39.05,20.6,20.6,0,0,0-9.17-39.05Z"/><path class="cls-4" d="M795.15,705.94A22.29,22.29,0,1,0,825,716,22.28,22.28,0,0,0,795.15,705.94Z"/><path class="cls-4" d="M805.08,749.91h0a24,24,0,1,1,10.65-2.51A23.84,23.84,0,0,1,805.08,749.91Zm0-44.6a20.6,20.6,0,1,0,9.17,39.05,20.6,20.6,0,0,0-9.17-39.05Z"/><g class="cls-5"><polygon class="cls-6" points="109.46 452.21 181.38 360.56 225.37 395.07 189.05 441.35 205.76 454.47 169.21 466.65 153.45 486.73 109.46 452.21"/><polyline class="cls-7" points="188.04 415.47 188.94 396.15 170.38 401.61"/><polyline class="cls-7" points="143.19 436.26 142.3 455.58 160.85 450.12"/><line class="cls-7" x1="161.2" y1="408.48" x2="171.99" y2="441.34"/></g><g class="cls-5"><polygon class="cls-6" points="1030.4 652.24 916.46 676.53 904.8 621.85 962.34 609.58 957.9 588.8 993.78 602.87 1018.74 597.55 1030.4 652.24"/><polyline class="cls-7" points="946.53 630.1 933.47 644.36 951.21 652.05"/><polyline class="cls-7" points="994.28 642.87 1007.35 628.61 989.6 620.91"/><line class="cls-7" x1="962.66" y1="652.66" x2="975.43" y2="620.52"/></g><g class="cls-13"><rect class="cls-14" x="1128.59" y="578.24" width="36" height="144" transform="translate(-122.02 292.32) rotate(-13.8)"/><polyline class="cls-15" points="1130.38 580.08 1127.04 566.48 1173.65 555.03 1194.17 638.55 1270.89 619.7"/><rect class="cls-16" x="1244.89" y="604.73" width="60" height="29" transform="translate(-110.92 322.04) rotate(-13.8)"/><line class="cls-15" x1="1264.76" y1="636.65" x2="1260.46" y2="619.17"/><line class="cls-15" x1="1277.38" y1="633.55" x2="1273.09" y2="616.07"/><line class="cls-15" x1="1291.95" y1="629.97" x2="1287.66" y2="612.49"/><line class="cls-15" x1="1144.83" y1="664.06" x2="1142.21" y2="653.37"/><line class="cls-15" x1="1140.3" y1="645.6" x2="1127.18" y2="592.19"/></g><path class="cls-2" d="M1077,287.08a35.05,35.05,0,0,0-2.49-4.21l5.13-11.41a45.79,45.79,0,0,0-18.12-12l-8.54,9.15a34.4,34.4,0,0,0-9.73-.62l-7.31-10.15a45.88,45.88,0,0,0-10.33,3.67,45.29,45.29,0,0,0-9.16,6l3.66,12a34.91,34.91,0,0,0-5.4,8.12l-12.43,1.27a45.6,45.6,0,0,0-1.39,21.71l12.2,2.82a34,34,0,0,0,4.33,8.73l-5.13,11.41a45.63,45.63,0,0,0,18.13,12l8.53-9.14a34.45,34.45,0,0,0,9.73.62l7.31,10.14a45.44,45.44,0,0,0,19.49-9.67l-3.66-12a34.59,34.59,0,0,0,5.4-8.12l12.44-1.27a45.76,45.76,0,0,0,1.38-21.72l-12.18-2.81A40.59,40.59,0,0,0,1077,287.08Zm-21.13,35.37a22.29,22.29,0,1,1,10.07-29.88A22.28,22.28,0,0,1,1055.86,322.45Z"/><path class="cls-3" d="M1056,348.85a1.7,1.7,0,0,1-1.38-.7l-6.76-9.39a36.64,36.64,0,0,1-8.3-.52l-7.88,8.45a1.68,1.68,0,0,1-1.82.44A47.55,47.55,0,0,1,1011,334.66a1.7,1.7,0,0,1-.3-1.85l4.75-10.56a34.39,34.39,0,0,1-2.07-3.62,35.53,35.53,0,0,1-1.63-3.83l-11.28-2.6a1.72,1.72,0,0,1-1.29-1.36,47.48,47.48,0,0,1,1.44-22.52,1.69,1.69,0,0,1,1.45-1.18l11.5-1.17a36,36,0,0,1,4.6-6.93L1014.81,268a1.7,1.7,0,0,1,.53-1.8,47.31,47.31,0,0,1,9.5-6.23,47.89,47.89,0,0,1,10.71-3.8,1.69,1.69,0,0,1,1.75.66l6.77,9.38a36.53,36.53,0,0,1,8.3.53l7.9-8.46a1.7,1.7,0,0,1,1.81-.43,47.47,47.47,0,0,1,18.8,12.48,1.7,1.7,0,0,1,.3,1.85l-4.74,10.55a36.25,36.25,0,0,1,2.07,3.62,39.31,39.31,0,0,1,1.63,3.83l11.27,2.6a1.69,1.69,0,0,1,1.29,1.36,47.6,47.6,0,0,1-1.43,22.52,1.7,1.7,0,0,1-1.45,1.18l-11.5,1.17a36.24,36.24,0,0,1-4.61,6.94l3.38,11.06a1.68,1.68,0,0,1-.52,1.79,47.26,47.26,0,0,1-20.21,10A1.64,1.64,0,0,1,1056,348.85Zm-7.31-13.54a1.68,1.68,0,0,1,1.38.71l6.65,9.22a43.77,43.77,0,0,0,16.81-8.34L1070.19,326a1.7,1.7,0,0,1,.35-1.63,32.78,32.78,0,0,0,5.14-7.72,1.68,1.68,0,0,1,1.36-1l11.3-1.15a44.16,44.16,0,0,0,1.2-18.75l-11.08-2.55a1.74,1.74,0,0,1-1.23-1.11,32.33,32.33,0,0,0-4.13-8.32,1.73,1.73,0,0,1-.15-1.66l4.66-10.37A44.33,44.33,0,0,0,1062,261.41l-7.76,8.32a1.7,1.7,0,0,1-1.6.5,33.28,33.28,0,0,0-9.25-.59,1.67,1.67,0,0,1-1.5-.7l-6.66-9.22a44.62,44.62,0,0,0-8.86,3.27,43.59,43.59,0,0,0-7.95,5.08l3.33,10.87a1.7,1.7,0,0,1-.36,1.63,33.46,33.46,0,0,0-5.14,7.73,1.69,1.69,0,0,1-1.36.95l-11.3,1.15a44.11,44.11,0,0,0-1.2,18.74l11.09,2.56a1.7,1.7,0,0,1,1.23,1.12,32,32,0,0,0,1.77,4.3,32.53,32.53,0,0,0,2.35,4,1.67,1.67,0,0,1,.15,1.66l-4.66,10.37A44.09,44.09,0,0,0,1030,343.55l7.75-8.32a1.7,1.7,0,0,1,1.58-.51,33.08,33.08,0,0,0,9.26.6Zm-2.7-8.83a24,24,0,1,1,10.65-2.5A23.85,23.85,0,0,1,1046,326.48Zm0-44.6a20.6,20.6,0,1,0,9.17,39.05,20.6,20.6,0,0,0-9.17-39.05Z"/><path class="cls-4" d="M1036,282.51a22.29,22.29,0,1,0,29.89,10.06A22.29,22.29,0,0,0,1036,282.51Z"/><path class="cls-4" d="M1046,326.48h0a24,24,0,1,1,10.65-2.5A23.85,23.85,0,0,1,1046,326.48Zm0-44.6a20.6,20.6,0,1,0,9.17,39.05,20.6,20.6,0,0,0-9.17-39.05Z"/><g class="cls-8"><path class="cls-17" d="M1143.26,445.25a13.25,13.25,0,1,1,13.24,13.25A13.25,13.25,0,0,1,1143.26,445.25Z"/><path class="cls-17" d="M1072.89,432.88c.27.11.53.21.79.33C1073.42,433.09,1073.16,433,1072.89,432.88Z"/><path class="cls-17" d="M1075.16,434c.17.11.37.2.54.32C1075.53,434.21,1075.33,434.12,1075.16,434Z"/><path class="cls-17" d="M1070.62,432.24l.75.17Z"/><path class="cls-17" d="M1071.37,458.08l-.75.17Z"/><path class="cls-17" d="M1075.7,456.16c-.17.12-.37.22-.54.32C1075.33,456.38,1075.53,456.28,1075.7,456.16Z"/><path class="cls-17" d="M1077.8,454.35l-2.08,1.8A12.74,12.74,0,0,0,1077.8,454.35Z"/><path class="cls-17" d="M1073.68,457.28c-.26.12-.52.22-.79.32C1073.16,457.5,1073.42,457.4,1073.68,457.28Z"/><path class="cls-17" d="M1078.73,437.28a13.12,13.12,0,0,0-3-2.94l2.1,1.83A12.21,12.21,0,0,1,1078.73,437.28Z"/><path class="cls-17" d="M1078.53,453.47c.2-.24.41-.47.59-.73h0C1078.94,453,1078.73,453.23,1078.53,453.47Z"/><path class="cls-17" d="M1109.92,458.25l-.75-.17Z"/><path class="cls-17" d="M1102.74,436.14l2.08-1.8A13.25,13.25,0,0,0,1102.74,436.14Z"/><path class="cls-17" d="M1102,437c-.19.25-.41.47-.59.73h0C1101.59,437.49,1101.81,437.27,1102,437Z"/><path class="cls-17" d="M1107.65,457.6c-.27-.1-.54-.2-.79-.32C1107.11,457.4,1107.38,457.5,1107.65,457.6Z"/><path class="cls-17" d="M1106.86,433.21c.25-.12.52-.22.79-.33C1107.38,433,1107.11,433.09,1106.86,433.21Z"/><path class="cls-17" d="M1109.17,432.41l.75-.17Z"/><path class="cls-17" d="M1101.8,453.22a12.93,12.93,0,0,0,3,2.93l-2.11-1.83C1102.38,454,1102.1,453.6,1101.8,453.22Z"/><path class="cls-17" d="M1104.83,434.33c.17-.12.36-.21.55-.32C1105.19,434.12,1105,434.21,1104.83,434.33Z"/><path class="cls-17" d="M1105.38,456.48a4.94,4.94,0,0,1-.55-.32A4.94,4.94,0,0,0,1105.38,456.48Z"/><path class="cls-17" d="M1068.21,458.5a12.79,12.79,0,0,0,2.41-.25l.75-.17c.51-.14,1-.29,1.52-.48.27-.1.53-.2.79-.32a12.45,12.45,0,0,0,1.48-.8c.17-.1.37-.2.54-.32h0l2.08-1.8h0c.27-.28.48-.59.73-.88s.41-.47.59-.73h0a15.58,15.58,0,0,1,22.35.07c.1.15.23.27.33.41.3.38.58.75.91,1.1l2.11,1.83h0a4.94,4.94,0,0,0,.55.32,10.49,10.49,0,0,0,1.48.8c.25.12.52.22.79.32a14.94,14.94,0,0,0,1.52.48l.75.17a12.69,12.69,0,0,0,2.4.25,13.25,13.25,0,1,0,0-26.5,13.56,13.56,0,0,0-2.4.24l-.75.17c-.52.14-1,.29-1.52.47-.27.11-.54.21-.79.33a10.49,10.49,0,0,0-1.48.8c-.19.11-.38.2-.55.32h0l-2.08,1.8h0c-.26.27-.48.58-.73.87s-.41.47-.59.73h0a15.57,15.57,0,0,1-22.35-.07c-.1-.15-.22-.26-.33-.4a12.21,12.21,0,0,0-.91-1.11l-2.1-1.83h0c-.17-.12-.37-.21-.54-.32a12.45,12.45,0,0,0-1.48-.8c-.26-.12-.52-.22-.79-.33-.5-.18-1-.33-1.52-.47l-.75-.17a13.67,13.67,0,0,0-2.41-.24,13.25,13.25,0,0,0,0,26.5Z"/><path class="cls-17" d="M1117.06,432.88c.28.11.54.21.8.33C1117.6,433.09,1117.34,433,1117.06,432.88Z"/><path class="cls-17" d="M1119.34,434c.18.11.37.2.55.32C1119.71,434.21,1119.52,434.12,1119.34,434Z"/><path class="cls-17" d="M1114.8,432.24l.75.17Z"/><path class="cls-17" d="M1115.55,458.08l-.75.17Z"/><path class="cls-17" d="M1119.89,456.16c-.18.12-.37.22-.55.32C1119.52,456.38,1119.71,456.28,1119.89,456.16Z"/><path class="cls-17" d="M1122,454.35l-2.08,1.8A12.74,12.74,0,0,0,1122,454.35Z"/><path class="cls-17" d="M1117.86,457.28c-.26.12-.52.22-.8.32C1117.34,457.5,1117.6,457.4,1117.86,457.28Z"/><path class="cls-17" d="M1122.92,437.28a13.37,13.37,0,0,0-3-2.94l2.1,1.83A14.26,14.26,0,0,1,1122.92,437.28Z"/><path class="cls-17" d="M1122.71,453.47c.2-.24.41-.47.6-.73h0C1123.12,453,1122.91,453.23,1122.71,453.47Z"/><path class="cls-17" d="M1154.1,458.25l-.75-.17Z"/><path class="cls-17" d="M1146.92,436.14l2.08-1.8A13.25,13.25,0,0,0,1146.92,436.14Z"/><path class="cls-17" d="M1146.19,437c-.2.25-.42.47-.6.73h0C1145.77,437.49,1146,437.27,1146.19,437Z"/><path class="cls-17" d="M1151.83,457.6c-.27-.1-.54-.2-.79-.32C1151.29,457.4,1151.56,457.5,1151.83,457.6Z"/><path class="cls-17" d="M1151,433.21c.25-.12.52-.22.79-.33C1151.56,433,1151.29,433.09,1151,433.21Z"/><path class="cls-17" d="M1153.35,432.41l.75-.17Z"/><path class="cls-17" d="M1146,453.22a13.08,13.08,0,0,0,3,2.93l-2.11-1.83C1146.57,454,1146.28,453.6,1146,453.22Z"/><path class="cls-17" d="M1149,434.33a5.5,5.5,0,0,1,.54-.32A5.5,5.5,0,0,0,1149,434.33Z"/><path class="cls-17" d="M1149.56,456.48a4,4,0,0,1-.54-.32A4,4,0,0,0,1149.56,456.48Z"/><path class="cls-17" d="M1095.57,455.12c.27.1.53.2.79.32C1096.1,455.32,1095.84,455.22,1095.57,455.12Z"/><path class="cls-17" d="M1097.83,456.24c.18.11.38.2.54.32C1098.21,456.44,1098,456.35,1097.83,456.24Z"/><path class="cls-17" d="M1093.29,454.48c.25,0,.5.1.75.16C1093.79,454.58,1093.55,454.52,1093.29,454.48Z"/><path class="cls-17" d="M1094,480.31l-.75.17Z"/><path class="cls-17" d="M1098.37,478.39a3.65,3.65,0,0,1-.54.32A3.65,3.65,0,0,0,1098.37,478.39Z"/><path class="cls-17" d="M1100.48,476.59l-2.09,1.79A13.26,13.26,0,0,0,1100.48,476.59Z"/><path class="cls-17" d="M1096.36,479.52l-.79.32Z"/><path class="cls-17" d="M1101.41,459.51a12.73,12.73,0,0,0-3-2.93l2.11,1.82A13.76,13.76,0,0,1,1101.41,459.51Z"/><path class="cls-17" d="M1101.21,475.71c.19-.25.41-.48.59-.74h0C1101.62,475.24,1101.4,475.46,1101.21,475.71Z"/><path class="cls-17" d="M1132.6,480.48l-.75-.17Z"/><path class="cls-17" d="M1125.41,458.37l2.08-1.79A14.15,14.15,0,0,0,1125.41,458.37Z"/><path class="cls-17" d="M1124.69,459.25c-.2.25-.42.47-.6.73h0C1124.27,459.72,1124.49,459.5,1124.69,459.25Z"/><path class="cls-17" d="M1130.33,479.84l-.8-.32Z"/><path class="cls-17" d="M1129.53,455.44c.26-.12.52-.22.8-.32C1130.05,455.22,1129.79,455.32,1129.53,455.44Z"/><path class="cls-17" d="M1131.85,454.64c.25-.06.49-.12.75-.16C1132.34,454.52,1132.1,454.58,1131.85,454.64Z"/><path class="cls-17" d="M1124.48,475.45a12.88,12.88,0,0,0,3,2.93l-2.1-1.83A12.07,12.07,0,0,1,1124.48,475.45Z"/><path class="cls-17" d="M1127.51,456.56c.17-.12.37-.21.54-.32C1127.88,456.35,1127.68,456.44,1127.51,456.56Z"/><path class="cls-17" d="M1128.05,478.71a5.09,5.09,0,0,1-.54-.32A5.09,5.09,0,0,0,1128.05,478.71Z"/><path class="cls-17" d="M1090.88,480.73a12.62,12.62,0,0,0,2.41-.25l.75-.17a15.1,15.1,0,0,0,1.53-.47l.79-.32a13.08,13.08,0,0,0,1.47-.81,3.65,3.65,0,0,0,.54-.32h0l2.09-1.79h0c.26-.27.48-.59.73-.87s.41-.47.59-.74h0a15.57,15.57,0,0,1,22.34.07c.11.15.23.27.34.41a12.07,12.07,0,0,0,.91,1.1l2.1,1.83h0a5.09,5.09,0,0,0,.54.32,14.17,14.17,0,0,0,1.48.81l.8.32a14.91,14.91,0,0,0,1.52.47l.75.17a12.69,12.69,0,0,0,2.4.25,13.25,13.25,0,0,0,0-26.5,12.69,12.69,0,0,0-2.4.25c-.26,0-.5.1-.75.16a14.94,14.94,0,0,0-1.52.48c-.28.1-.54.2-.8.32a12.45,12.45,0,0,0-1.48.8c-.17.11-.37.2-.54.32h0l0,0-2.08,1.79h0c-.26.27-.48.58-.72.87s-.42.47-.6.73h0a15.56,15.56,0,0,1-22.34-.07c-.11-.14-.23-.26-.34-.4a13.76,13.76,0,0,0-.91-1.11l-2.11-1.82v0h0c-.16-.12-.36-.21-.54-.32a11.6,11.6,0,0,0-1.47-.8c-.26-.12-.52-.22-.79-.32a15.13,15.13,0,0,0-1.53-.48c-.25-.06-.5-.12-.75-.16a12.62,12.62,0,0,0-2.41-.25,13.25,13.25,0,0,0,0,26.5Z"/><path class="cls-17" d="M1095.57,410.65c.27.11.53.21.79.33C1096.1,410.86,1095.84,410.76,1095.57,410.65Z"/><path class="cls-17" d="M1097.83,411.77c.18.11.38.2.54.32C1098.21,412,1098,411.88,1097.83,411.77Z"/><path class="cls-17" d="M1093.29,410l.75.17Z"/><path class="cls-17" d="M1094,435.85l-.75.17Z"/><path class="cls-17" d="M1098.37,433.93a4.8,4.8,0,0,1-.54.32A4.8,4.8,0,0,0,1098.37,433.93Z"/><path class="cls-17" d="M1100.48,432.12l-2.09,1.8A12.81,12.81,0,0,0,1100.48,432.12Z"/><path class="cls-17" d="M1096.36,435.05c-.26.12-.52.22-.79.32C1095.84,435.27,1096.1,435.17,1096.36,435.05Z"/><path class="cls-17" d="M1101.41,415.05a12.77,12.77,0,0,0-3-2.94l2.11,1.83A12.21,12.21,0,0,1,1101.41,415.05Z"/><path class="cls-17" d="M1101.21,431.24c.19-.25.41-.47.59-.73h0C1101.62,430.77,1101.4,431,1101.21,431.24Z"/><path class="cls-17" d="M1132.6,436l-.75-.17Z"/><path class="cls-17" d="M1125.41,413.9l2.08-1.79A14.15,14.15,0,0,0,1125.41,413.9Z"/><path class="cls-17" d="M1124.69,414.79c-.21.25-.42.47-.6.73h0C1124.27,415.25,1124.48,415,1124.69,414.79Z"/><path class="cls-17" d="M1130.33,435.37c-.28-.1-.54-.2-.8-.32C1129.79,435.17,1130.05,435.27,1130.33,435.37Z"/><path class="cls-17" d="M1129.53,411c.26-.12.52-.22.8-.33C1130.05,410.76,1129.79,410.86,1129.53,411Z"/><path class="cls-17" d="M1131.85,410.18l.75-.17Z"/><path class="cls-17" d="M1124.48,431a12.92,12.92,0,0,0,3,2.94l-2.1-1.83A13.76,13.76,0,0,1,1124.48,431Z"/><path class="cls-17" d="M1127.51,412.09c.17-.12.37-.21.54-.32C1127.88,411.88,1127.68,412,1127.51,412.09Z"/><path class="cls-17" d="M1128.05,434.25c-.17-.1-.37-.2-.54-.32C1127.68,434.05,1127.88,434.15,1128.05,434.25Z"/><path class="cls-17" d="M1090.88,436.26a12.62,12.62,0,0,0,2.41-.24l.75-.17c.53-.14,1-.3,1.53-.48.27-.1.53-.2.79-.32a11.6,11.6,0,0,0,1.47-.8,4.8,4.8,0,0,0,.54-.32h0l2.09-1.8h0c.26-.28.48-.59.73-.88s.41-.47.59-.73h0a15.57,15.57,0,0,1,22.34.07c.11.15.23.27.34.4a13.76,13.76,0,0,0,.91,1.11l2.1,1.83h0c.17.12.37.22.54.32a12.45,12.45,0,0,0,1.48.8c.26.12.52.22.8.32.49.18,1,.34,1.52.48l.75.17a12.6,12.6,0,0,0,2.4.24,13.25,13.25,0,1,0,0-26.49,13.47,13.47,0,0,0-2.4.24l-.75.17a14.91,14.91,0,0,0-1.52.47c-.28.11-.54.21-.8.33a14,14,0,0,0-1.48.79c-.17.11-.37.2-.54.32h0l0,0-2.08,1.79h0c-.26.28-.48.58-.72.88s-.42.46-.6.72h0a15.57,15.57,0,0,1-22.34-.07c-.11-.15-.23-.27-.34-.4a12.21,12.21,0,0,0-.91-1.11l-2.11-1.83v0h0c-.16-.12-.36-.21-.54-.32a13,13,0,0,0-1.47-.79c-.26-.12-.52-.22-.79-.33a15.1,15.1,0,0,0-1.53-.47l-.75-.17a13.49,13.49,0,0,0-2.41-.24,13.25,13.25,0,0,0,0,26.49Z"/></g><g class="cls-8"><path class="cls-18" d="M1185,421.8h3.62v45.33H1185Z"/><path class="cls-18" d="M1205,444.46a23.25,23.25,0,0,1,43.43-11.56l-3.09,1.74a19.65,19.65,0,1,0,0,19.64l3.09,1.74A23.25,23.25,0,0,1,1205,444.46Z"/><path class="cls-18" d="M1285.55,456.17H1264.4l-3.86,11h-4l16.39-45.33h4l16.39,45.33h-3.93Zm-1.21-3.47L1275,426.11l-9.36,26.59Z"/><path class="cls-18" d="M1341.76,421.8v45.33h-3.17l-29.32-38.91v38.91h-3.62V421.8h3.17l29.31,38.91V421.8Z"/><path class="cls-18" d="M1416,421.8l-13.22,45.33h-8.31l-10.05-36.27-9.9,36.27h-8.23l-13.37-45.33h7.85l9.82,34.15,9.67-34.15h8.39l9.75,34.3,9.89-34.3Z"/><path class="cls-18" d="M1433.93,428.52v12.54H1450v6.8h-16.09V460.4h18.59v6.73h-26V421.8h26v6.72Z"/><path class="cls-18" d="M1499.81,455c0,7.48-5.74,12.17-12.92,12.17H1467.4V421.8h17.83c7.25,0,13.07,4.83,13.07,12.31a10.55,10.55,0,0,1-6,10.05A11,11,0,0,1,1499.81,455Zm-15.41-26.29h-9.67v12.54h9.67a6.41,6.41,0,0,0,6.49-6.34A6.24,6.24,0,0,0,1484.4,428.67Zm8,25.39a6.43,6.43,0,0,0-6.57-6.35h-11.1v12.54h11.1A6.3,6.3,0,0,0,1492.4,454.06Z"/></g><g class="cls-8"><path class="cls-19" d="M37.22,715.34a13.25,13.25,0,1,1,13.69-12.8A13.25,13.25,0,0,1,37.22,715.34Z"/><path class="cls-19" d="M22.51,785.25c.11-.26.23-.52.35-.78C22.74,784.73,22.62,785,22.51,785.25Z"/><path class="cls-19" d="M23.71,783c.11-.17.21-.36.34-.53C23.92,782.66,23.82,782.85,23.71,783Z"/><path class="cls-19" d="M21.79,787.5c.06-.25.13-.49.2-.75C21.92,787,21.85,787.25,21.79,787.5Z"/><path class="cls-19" d="M47.64,787.61c0,.26.1.51.14.76C47.74,788.12,47.69,787.87,47.64,787.61Z"/><path class="cls-19" d="M45.87,783.22c.12.18.2.38.3.55C46.07,783.6,46,783.4,45.87,783.22Z"/><path class="cls-19" d="M44.13,781.06l1.73,2.14A13.28,13.28,0,0,0,44.13,781.06Z"/><path class="cls-19" d="M46.92,785.28c.11.26.2.53.3.8C47.12,785.81,47,785.54,46.92,785.28Z"/><path class="cls-19" d="M27.1,779.56a13.13,13.13,0,0,0-3,2.91l1.9-2A12.33,12.33,0,0,1,27.1,779.56Z"/><path class="cls-19" d="M43.28,780.3c-.24-.2-.46-.43-.71-.61h0C42.82,779.87,43,780.1,43.28,780.3Z"/><path class="cls-19" d="M49.1,749.09c-.06.26-.12.5-.2.74C49,749.59,49,749.35,49.1,749.09Z"/><path class="cls-19" d="M26.76,755.53,25,753.39A12.7,12.7,0,0,0,26.76,755.53Z"/><path class="cls-19" d="M27.62,756.29a8.29,8.29,0,0,0,.71.62h0C28.07,756.72,27.86,756.5,27.62,756.29Z"/><path class="cls-19" d="M48.38,751.34c-.11.27-.22.53-.35.78C48.16,751.87,48.27,751.61,48.38,751.34Z"/><path class="cls-19" d="M24,751.32c-.11-.26-.2-.53-.3-.81C23.77,750.79,23.86,751.06,24,751.32Z"/><path class="cls-19" d="M23.25,749c-.05-.24-.1-.49-.14-.75C23.15,748.48,23.2,748.72,23.25,749Z"/><path class="cls-19" d="M43.8,757a12.93,12.93,0,0,0,3-2.92l-1.9,2A14.08,14.08,0,0,1,43.8,757Z"/><path class="cls-19" d="M25,753.38c-.11-.18-.2-.37-.3-.56C24.82,753,24.91,753.2,25,753.38Z"/><path class="cls-19" d="M47.18,753.57a6.1,6.1,0,0,1-.34.54A6.1,6.1,0,0,0,47.18,753.57Z"/><path class="cls-19" d="M48,790.78a12.06,12.06,0,0,0-.17-2.41c0-.25-.09-.5-.14-.76-.12-.51-.26-1-.42-1.53-.1-.27-.19-.54-.3-.8a14.14,14.14,0,0,0-.75-1.51c-.1-.17-.18-.37-.3-.55h0v0l-1.73-2.14h0c-.27-.27-.57-.5-.85-.76s-.46-.43-.71-.61h0a15.58,15.58,0,0,1,.81-22.34c.15-.09.28-.22.42-.31a14.08,14.08,0,0,0,1.13-.87l1.9-2h0a6.1,6.1,0,0,0,.34-.54,12.24,12.24,0,0,0,.85-1.45c.13-.25.24-.51.35-.78a14.91,14.91,0,0,0,.52-1.51c.08-.24.14-.48.2-.74a12.62,12.62,0,0,0,.33-2.39A13.25,13.25,0,1,0,23,745.81a12.85,12.85,0,0,0,.16,2.41c0,.26.09.51.14.75.12.53.26,1,.42,1.54.1.28.19.55.3.81a13.12,13.12,0,0,0,.75,1.5c.1.19.19.38.3.56h0l1.72,2.14h0c.27.26.56.5.85.75s.45.43.7.62h0a15.56,15.56,0,0,1-.82,22.33c-.15.1-.27.22-.41.32a12.33,12.33,0,0,0-1.14.88l-1.9,2v0h0c-.13.17-.23.36-.34.53a14.08,14.08,0,0,0-.85,1.45c-.12.26-.24.52-.35.78-.2.49-.37,1-.52,1.5-.07.26-.14.5-.2.75a13.47,13.47,0,0,0-.32,2.4,13.25,13.25,0,1,0,26.48.88Z"/><path class="cls-19" d="M24,741.1c.11-.27.23-.53.35-.79C24.22,740.57,24.1,740.83,24,741.1Z"/><path class="cls-19" d="M25.19,738.86c.11-.17.21-.36.34-.53C25.4,738.5,25.3,738.69,25.19,738.86Z"/><path class="cls-19" d="M23.27,743.34c.06-.25.13-.49.2-.74C23.4,742.85,23.33,743.09,23.27,743.34Z"/><path class="cls-19" d="M49.12,743.46c.05.25.1.5.14.75C49.22,744,49.17,743.71,49.12,743.46Z"/><path class="cls-19" d="M47.35,739.06c.12.18.2.38.3.56C47.55,739.44,47.47,739.24,47.35,739.06Z"/><path class="cls-19" d="M45.61,736.91l1.73,2.14A13.28,13.28,0,0,0,45.61,736.91Z"/><path class="cls-19" d="M48.4,741.12c.11.26.2.53.29.81C48.6,741.65,48.51,741.38,48.4,741.12Z"/><path class="cls-19" d="M28.58,735.4a13.17,13.17,0,0,0-3,2.92l1.9-2A12.33,12.33,0,0,1,28.58,735.4Z"/><path class="cls-19" d="M44.76,736.15c-.24-.21-.46-.43-.71-.62h0C44.3,735.72,44.52,735.94,44.76,736.15Z"/><path class="cls-19" d="M50.58,704.93c-.06.25-.12.51-.2.75C50.46,705.43,50.52,705.18,50.58,704.93Z"/><path class="cls-19" d="M28.24,711.37l-1.72-2.14A12.7,12.7,0,0,0,28.24,711.37Z"/><path class="cls-19" d="M29.1,712.13c.24.21.45.44.71.63h0C29.55,712.56,29.34,712.34,29.1,712.13Z"/><path class="cls-19" d="M49.86,707.19c-.11.26-.22.53-.35.77C49.64,707.72,49.75,707.45,49.86,707.19Z"/><path class="cls-19" d="M25.45,707.16c-.11-.26-.2-.53-.3-.8C25.25,706.63,25.34,706.9,25.45,707.16Z"/><path class="cls-19" d="M24.73,704.82c-.05-.25-.1-.51-.14-.76C24.63,704.31,24.68,704.56,24.73,704.82Z"/><path class="cls-19" d="M45.28,712.88a12.93,12.93,0,0,0,3-2.92l-1.9,2A14.08,14.08,0,0,1,45.28,712.88Z"/><path class="cls-19" d="M26.5,709.22c-.11-.18-.2-.37-.3-.56C26.3,708.85,26.39,709,26.5,709.22Z"/><path class="cls-19" d="M48.66,709.41a4.93,4.93,0,0,1-.34.54A4.93,4.93,0,0,0,48.66,709.41Z"/><path class="cls-19" d="M45.49,763.33c.11-.27.22-.53.35-.79C45.71,762.8,45.6,763.06,45.49,763.33Z"/><path class="cls-19" d="M46.69,761.1c.11-.17.21-.36.33-.53C46.9,760.74,46.8,760.93,46.69,761.1Z"/><path class="cls-19" d="M44.77,765.58c.06-.25.13-.49.2-.74C44.9,765.09,44.83,765.33,44.77,765.58Z"/><path class="cls-19" d="M70.62,765.7c0,.25.1.5.14.75C70.72,766.2,70.67,766,70.62,765.7Z"/><path class="cls-19" d="M68.85,761.31a4.83,4.83,0,0,1,.3.55A4.83,4.83,0,0,0,68.85,761.31Z"/><path class="cls-19" d="M67.11,759.14l1.73,2.15A13.36,13.36,0,0,0,67.11,759.14Z"/><path class="cls-19" d="M69.9,763.35c.11.27.2.53.3.81C70.1,763.88,70,763.62,69.9,763.35Z"/><path class="cls-19" d="M50.08,757.64a13,13,0,0,0-3,2.92l1.9-2A13.72,13.72,0,0,1,50.08,757.64Z"/><path class="cls-19" d="M66.26,758.38c-.25-.2-.46-.43-.72-.62h0C65.8,758,66,758.18,66.26,758.38Z"/><path class="cls-19" d="M72.08,727.17c-.06.26-.12.5-.19.75C72,727.67,72,727.43,72.08,727.17Z"/><path class="cls-19" d="M49.74,733.61,48,731.47A13.56,13.56,0,0,0,49.74,733.61Z"/><path class="cls-19" d="M50.6,734.36c.24.21.45.44.71.63h0C51.05,734.8,50.84,734.57,50.6,734.36Z"/><path class="cls-19" d="M71.36,729.42c-.11.27-.22.53-.35.78C71.14,730,71.25,729.69,71.36,729.42Z"/><path class="cls-19" d="M47,729.4c-.11-.26-.2-.53-.3-.81C46.75,728.87,46.84,729.14,47,729.4Z"/><path class="cls-19" d="M46.23,727.06c0-.26-.1-.5-.14-.76C46.13,726.56,46.18,726.8,46.23,727.06Z"/><path class="cls-19" d="M66.78,735.11a12.89,12.89,0,0,0,3-2.91l-1.9,2A12.1,12.1,0,0,1,66.78,735.11Z"/><path class="cls-19" d="M48,731.45a5.86,5.86,0,0,1-.3-.55A5.86,5.86,0,0,0,48,731.45Z"/><path class="cls-19" d="M70.16,731.65a4.79,4.79,0,0,1-.34.53A4.79,4.79,0,0,0,70.16,731.65Z"/><path class="cls-19" d="M70.93,768.87a12.06,12.06,0,0,0-.17-2.42c0-.25-.09-.5-.14-.75-.12-.53-.26-1-.42-1.54-.1-.28-.19-.54-.3-.81a13,13,0,0,0-.75-1.49,4.83,4.83,0,0,0-.3-.55h0l-1.73-2.15h0c-.27-.27-.57-.5-.85-.76s-.46-.43-.72-.62h0a15.55,15.55,0,0,1,.82-22.32c.15-.1.28-.22.42-.33a12.1,12.1,0,0,0,1.13-.87l1.9-2h0a4.79,4.79,0,0,0,.34-.53A12.24,12.24,0,0,0,71,730.2c.13-.25.24-.51.35-.78.2-.49.37-1,.53-1.5.07-.25.13-.49.19-.75a12.62,12.62,0,0,0,.33-2.39,13.25,13.25,0,1,0-26.48-.89,12.85,12.85,0,0,0,.16,2.41c0,.26.09.5.14.76q.18.78.42,1.53c.1.28.19.55.3.81a14,14,0,0,0,.75,1.5,5.86,5.86,0,0,0,.3.55h0l1.72,2.14h0c.27.27.56.51.85.75s.45.44.7.63h0a15.55,15.55,0,0,1-.82,22.32c-.15.1-.27.23-.41.33a13.72,13.72,0,0,0-1.14.87l-1.9,2h0c-.12.17-.22.36-.33.53a13.94,13.94,0,0,0-.85,1.44c-.13.26-.24.52-.35.79a14.91,14.91,0,0,0-.52,1.51c-.07.25-.14.49-.2.74a13.47,13.47,0,0,0-.32,2.4,13.25,13.25,0,0,0,26.48.89Z"/><path class="cls-19" d="M1.05,761.84c.11-.27.23-.53.35-.78C1.28,761.31,1.16,761.57,1.05,761.84Z"/><path class="cls-19" d="M2.25,759.61c.11-.17.21-.36.34-.53C2.46,759.25,2.36,759.44,2.25,759.61Z"/><path class="cls-19" d="M.33,764.09c.06-.24.13-.49.2-.74C.46,763.6.39,763.84.33,764.09Z"/><path class="cls-19" d="M26.18,764.21c.05.25.1.5.14.76C26.28,764.71,26.23,764.46,26.18,764.21Z"/><path class="cls-19" d="M24.41,759.82c.11.17.2.36.3.55C24.61,760.18,24.52,760,24.41,759.82Z"/><path class="cls-19" d="M22.67,757.65l1.73,2.15A13.81,13.81,0,0,0,22.67,757.65Z"/><path class="cls-19" d="M25.46,761.86c.11.27.2.54.3.81C25.66,762.4,25.57,762.13,25.46,761.86Z"/><path class="cls-19" d="M5.64,756.15a13,13,0,0,0-3,2.92L4.5,757A12.24,12.24,0,0,1,5.64,756.15Z"/><path class="cls-19" d="M21.81,756.89c-.23-.2-.45-.43-.7-.61h0C21.36,756.46,21.58,756.69,21.81,756.89Z"/><path class="cls-19" d="M27.64,725.68c-.06.26-.12.5-.2.75C27.52,726.18,27.58,725.94,27.64,725.68Z"/><path class="cls-19" d="M5.3,732.12,3.58,730A13.56,13.56,0,0,0,5.3,732.12Z"/><path class="cls-19" d="M6.16,732.87a8.42,8.42,0,0,0,.71.63h0C6.61,733.31,6.4,733.09,6.16,732.87Z"/><path class="cls-19" d="M26.92,727.93c-.11.27-.22.53-.35.78C26.7,728.46,26.81,728.2,26.92,727.93Z"/><path class="cls-19" d="M2.51,727.91c-.11-.26-.2-.53-.3-.81C2.31,727.38,2.4,727.65,2.51,727.91Z"/><path class="cls-19" d="M1.79,725.57c-.05-.26-.1-.5-.14-.76C1.69,725.07,1.74,725.31,1.79,725.57Z"/><path class="cls-19" d="M22.34,733.62a12.89,12.89,0,0,0,3-2.91l-1.9,2A13.57,13.57,0,0,1,22.34,733.62Z"/><path class="cls-19" d="M3.56,730a5.86,5.86,0,0,1-.3-.55A5.86,5.86,0,0,0,3.56,730Z"/><path class="cls-19" d="M25.72,730.16a4.79,4.79,0,0,1-.34.53A4.79,4.79,0,0,0,25.72,730.16Z"/><path class="cls-19" d="M26.49,767.38a11.9,11.9,0,0,0-.17-2.41c0-.26-.09-.51-.14-.76-.12-.53-.26-1-.42-1.54-.1-.27-.19-.54-.3-.81a13.84,13.84,0,0,0-.75-1.49c-.1-.19-.19-.38-.3-.55h0l-1.73-2.15h0c-.27-.27-.57-.5-.86-.76s-.45-.43-.7-.61h0A15.56,15.56,0,0,1,21.92,734c.15-.1.28-.22.42-.33a13.57,13.57,0,0,0,1.13-.87l1.9-2h0a4.79,4.79,0,0,0,.34-.53,12.24,12.24,0,0,0,.85-1.45c.13-.25.24-.51.35-.78a15.63,15.63,0,0,0,.52-1.5c.08-.25.14-.49.2-.75A13.23,13.23,0,1,0,1.49,722.4a12.74,12.74,0,0,0,.16,2.41c0,.26.09.5.14.76q.18.78.42,1.53c.1.28.19.55.3.81a14,14,0,0,0,.75,1.5,5.86,5.86,0,0,0,.3.55h0l1.72,2.14h0a10.12,10.12,0,0,0,.85.75c.24.22.45.44.7.63h0a15.55,15.55,0,0,1-.82,22.32c-.15.1-.27.23-.41.33A12.24,12.24,0,0,0,4.5,757l-1.9,2.05h0c-.13.17-.23.36-.34.53a13.09,13.09,0,0,0-.85,1.45c-.12.25-.24.51-.35.78a14.91,14.91,0,0,0-.52,1.51c-.07.25-.14.5-.2.74a13.47,13.47,0,0,0-.32,2.4,13.25,13.25,0,0,0,26.48.89Z"/><path class="cls-19" d="M15.19,672.84l.12-3.63,45.3,1.52-.12,3.62Z"/><path class="cls-19" d="M38.51,653.59a23.25,23.25,0,0,1-10.1-43.8L30,612.94a19.65,19.65,0,1,0,19.63.66l1.84-3a23.25,23.25,0,0,1-13,43Z"/><path class="cls-19" d="M52.91,573.49l-.71,21.14L63,598.85l-.14,4L18.13,585l.14-4,45.85-14.86L64,570Zm-3.51,1.09-26.9,8.47,26.27,10.26Z"/><path class="cls-19" d="M20.44,516.16l45.3,1.52-.11,3.17-39.86,28,38.88,1.31-.12,3.62-45.3-1.52.1-3.17,39.87-28-38.88-1.3Z"/><path class="cls-19" d="M22.92,442l44.86,14.74-.28,8.3-36.58,8.83L66.83,485l-.27,8.23L20.81,505.06l.26-7.85,34.46-8.67-33.8-10.81.22-6.65.06-1.73,34.6-8.59-33.95-11Z"/><path class="cls-19" d="M30.24,424.27l12.54.42.54-16.09,6.79.23-.54,16.08,12.54.42.62-18.57,6.72.23-.87,26-45.3-1.52.87-26,6.72.22Z"/><path class="cls-19" d="M58.88,359.31c7.47.25,12,6.15,11.72,13.32L70,392.11l-45.3-1.52.59-17.82c.25-7.25,5.27-12.9,12.75-12.65a10.57,10.57,0,0,1,9.84,6.38A11,11,0,0,1,58.88,359.31ZM32.09,373.83l-.33,9.67,12.54.42.32-9.67a6.42,6.42,0,0,0-6.13-6.7A6.24,6.24,0,0,0,32.09,373.83Zm25.63-7.15A6.43,6.43,0,0,0,51.16,373l-.37,11.1,12.53.42.37-11.1A6.31,6.31,0,0,0,57.72,366.68Z"/></g><path class="cls-2" d="M1471.28,553.64a35.18,35.18,0,0,0-2.49-4.22l5.13-11.4a45.58,45.58,0,0,0-18.12-12l-8.54,9.14a34.77,34.77,0,0,0-9.73-.62l-7.31-10.14a45.74,45.74,0,0,0-19.49,9.67l3.66,12a34.7,34.7,0,0,0-5.4,8.12l-12.43,1.26a45.61,45.61,0,0,0-1.39,21.71l12.2,2.82a35.77,35.77,0,0,0,1.85,4.52,35.12,35.12,0,0,0,2.48,4.22l-5.13,11.41a45.73,45.73,0,0,0,18.13,12l8.53-9.15a34.45,34.45,0,0,0,9.73.62l7.31,10.15a45.74,45.74,0,0,0,19.49-9.67l-3.66-12a34.45,34.45,0,0,0,5.4-8.13l12.44-1.26a45.78,45.78,0,0,0,1.38-21.72l-12.18-2.81A39.08,39.08,0,0,0,1471.28,553.64ZM1450.15,589a22.3,22.3,0,1,1,10.07-29.89A22.29,22.29,0,0,1,1450.15,589Z"/><path class="cls-3" d="M1450.27,615.41a1.71,1.71,0,0,1-1.38-.71l-6.76-9.38a36.64,36.64,0,0,1-8.3-.53l-7.88,8.46a1.7,1.7,0,0,1-1.82.44,47.68,47.68,0,0,1-18.81-12.48,1.7,1.7,0,0,1-.3-1.85l4.75-10.55a35.61,35.61,0,0,1-3.7-7.45l-11.28-2.61a1.7,1.7,0,0,1-1.29-1.36,47.48,47.48,0,0,1,1.44-22.52,1.69,1.69,0,0,1,1.45-1.18l11.5-1.17a36.27,36.27,0,0,1,4.6-6.93l-3.39-11.06a1.72,1.72,0,0,1,.53-1.8,47.31,47.31,0,0,1,9.5-6.23,47.89,47.89,0,0,1,10.71-3.8,1.69,1.69,0,0,1,1.75.66l6.77,9.38a36,36,0,0,1,8.3.54l7.9-8.46a1.68,1.68,0,0,1,1.81-.44,47.47,47.47,0,0,1,18.8,12.48,1.7,1.7,0,0,1,.3,1.85l-4.74,10.56a36.13,36.13,0,0,1,2.07,3.61,41.52,41.52,0,0,1,1.63,3.83l11.27,2.6a1.7,1.7,0,0,1,1.29,1.36,47.6,47.6,0,0,1-1.43,22.52,1.71,1.71,0,0,1-1.45,1.19l-11.5,1.17a36.16,36.16,0,0,1-4.61,6.93l3.38,11.06a1.7,1.7,0,0,1-.52,1.8,47.26,47.26,0,0,1-20.21,10A2.45,2.45,0,0,1,1450.27,615.41ZM1443,601.86a1.68,1.68,0,0,1,1.38.71l6.65,9.22a43.77,43.77,0,0,0,16.81-8.34l-3.32-10.88a1.68,1.68,0,0,1,.35-1.62,32.84,32.84,0,0,0,5.14-7.73,1.7,1.7,0,0,1,1.36-1l11.3-1.15a44.11,44.11,0,0,0,1.2-18.74l-11.08-2.56a1.67,1.67,0,0,1-1.22-1.11,35.47,35.47,0,0,0-1.78-4.31,33.75,33.75,0,0,0-2.36-4,1.71,1.71,0,0,1-.15-1.65l4.67-10.38A44.21,44.21,0,0,0,1456.27,528l-7.76,8.31a1.68,1.68,0,0,1-1.6.51,32.88,32.88,0,0,0-9.25-.6,1.64,1.64,0,0,1-1.5-.7l-6.66-9.21a44.59,44.59,0,0,0-8.86,3.26,44.14,44.14,0,0,0-8,5.08L1416,545.5a1.7,1.7,0,0,1-.36,1.63,33.4,33.4,0,0,0-5.14,7.72,1.7,1.7,0,0,1-1.36,1l-11.3,1.15a44.08,44.08,0,0,0-1.2,18.73l11.09,2.57a1.69,1.69,0,0,1,1.23,1.11,32.1,32.1,0,0,0,1.77,4.31,31.28,31.28,0,0,0,2.36,4,1.7,1.7,0,0,1,.14,1.66l-4.66,10.38a44.2,44.2,0,0,0,15.65,10.38l7.75-8.32a1.69,1.69,0,0,1,1.58-.5,33.07,33.07,0,0,0,9.26.59Zm-2.7-8.82a24,24,0,1,1,10.65-2.51A23.85,23.85,0,0,1,1440.26,593Zm0-44.61a20.6,20.6,0,1,0,18.47,11.45A20.49,20.49,0,0,0,1440.23,548.43Z"/><path class="cls-4" d="M1430.33,549.06a22.3,22.3,0,1,0,29.89,10.06A22.3,22.3,0,0,0,1430.33,549.06Z"/><path class="cls-4" d="M1440.26,593h0a24,24,0,1,1,10.65-2.51A23.85,23.85,0,0,1,1440.26,593Zm0-44.61a20.6,20.6,0,1,0,18.47,11.45A20.49,20.49,0,0,0,1440.23,548.43Z"/><g class="cls-5"><polygon class="cls-6" points="1180.86 265.64 1296.63 278.67 1290.38 334.23 1231.92 327.66 1229.55 348.76 1199.97 324.06 1174.61 321.21 1180.86 265.64"/><polyline class="cls-7" points="1253.41 313.2 1270.31 303.8 1255.92 290.89"/><polyline class="cls-7" points="1212.15 285.96 1195.25 295.36 1209.64 308.27"/><line class="cls-7" x1="1245.25" y1="286.68" x2="1222.96" y2="313.13"/></g><path class="cls-2" d="M1029.51,113.13a36.56,36.56,0,0,0-2.49-4.22l5.13-11.41a45.66,45.66,0,0,0-18.12-12l-8.54,9.14a34.77,34.77,0,0,0-9.73-.62l-7.32-10.14A45.77,45.77,0,0,0,969,93.52l3.66,12a35,35,0,0,0-5.4,8.13l-12.43,1.26a45.61,45.61,0,0,0-1.39,21.71l12.2,2.82a34,34,0,0,0,4.33,8.73l-5.13,11.42a45.73,45.73,0,0,0,18.13,12l8.53-9.15a34.45,34.45,0,0,0,9.73.62l7.31,10.15a45.74,45.74,0,0,0,19.49-9.67l-3.66-12a34.65,34.65,0,0,0,5.4-8.13l12.44-1.27a45.73,45.73,0,0,0,1.38-21.71l-12.19-2.82A37.85,37.85,0,0,0,1029.51,113.13Zm-21.13,35.37a22.3,22.3,0,1,1,10.07-29.89A22.28,22.28,0,0,1,1008.38,148.5Z"/><path class="cls-3" d="M1008.5,174.9a1.71,1.71,0,0,1-1.38-.71l-6.76-9.38a36.64,36.64,0,0,1-8.3-.53l-7.89,8.46a1.68,1.68,0,0,1-1.81.44,47.68,47.68,0,0,1-18.81-12.48,1.7,1.7,0,0,1-.3-1.85L968,148.3a35.36,35.36,0,0,1-3.7-7.46L953,138.24a1.7,1.7,0,0,1-1.29-1.36,47.48,47.48,0,0,1,1.44-22.52,1.69,1.69,0,0,1,1.45-1.18l11.5-1.17a36.27,36.27,0,0,1,4.6-6.93L967.33,94a1.71,1.71,0,0,1,.53-1.8,47.31,47.31,0,0,1,9.5-6.23,47.89,47.89,0,0,1,10.71-3.8,1.7,1.7,0,0,1,1.75.66l6.77,9.38a36.53,36.53,0,0,1,8.3.53l7.89-8.45a1.7,1.7,0,0,1,1.82-.44,47.47,47.47,0,0,1,18.8,12.48,1.7,1.7,0,0,1,.3,1.85L1029,108.75a38.33,38.33,0,0,1,2.07,3.62,39.31,39.31,0,0,1,1.63,3.83l11.27,2.6a1.72,1.72,0,0,1,1.29,1.36,47.6,47.6,0,0,1-1.43,22.52,1.71,1.71,0,0,1-1.45,1.19l-11.5,1.17a37,37,0,0,1-4.61,6.93l3.38,11.06a1.7,1.7,0,0,1-.52,1.79,47.12,47.12,0,0,1-20.21,10A2.45,2.45,0,0,1,1008.5,174.9Zm-7.31-13.55a1.68,1.68,0,0,1,1.38.71l6.65,9.22a44,44,0,0,0,16.81-8.34l-3.32-10.88a1.68,1.68,0,0,1,.35-1.62,32.84,32.84,0,0,0,5.14-7.73,1.68,1.68,0,0,1,1.36-1l11.3-1.15a44.11,44.11,0,0,0,1.2-18.74L1031,119.3a1.7,1.7,0,0,1-1.23-1.11,32.76,32.76,0,0,0-4.13-8.32,1.71,1.71,0,0,1-.15-1.65l4.66-10.38a44.12,44.12,0,0,0-15.64-10.38l-7.76,8.31a1.67,1.67,0,0,1-1.59.51,32.91,32.91,0,0,0-9.25-.6,1.67,1.67,0,0,1-1.51-.7l-6.65-9.22A45.25,45.25,0,0,0,978.87,89a44.14,44.14,0,0,0-8,5.08L974.25,105a1.73,1.73,0,0,1-.36,1.63,33.4,33.4,0,0,0-5.14,7.72,1.7,1.7,0,0,1-1.36,1l-11.3,1.15a44.07,44.07,0,0,0-1.2,18.73L966,137.75a1.7,1.7,0,0,1,1.23,1.11,34,34,0,0,0,1.76,4.31,34.63,34.63,0,0,0,2.36,4,1.67,1.67,0,0,1,.15,1.66l-4.66,10.38a44.2,44.2,0,0,0,15.65,10.38l7.75-8.32a1.69,1.69,0,0,1,1.58-.5,33.07,33.07,0,0,0,9.26.59Zm-2.7-8.83a24,24,0,1,1,10.65-2.5A23.84,23.84,0,0,1,998.49,152.52Zm0-44.6a20.6,20.6,0,1,0,18.47,11.45A20.49,20.49,0,0,0,998.46,107.92Z"/><path class="cls-4" d="M988.56,108.55a22.3,22.3,0,1,0,29.89,10.06A22.3,22.3,0,0,0,988.56,108.55Z"/><path class="cls-4" d="M998.49,152.52h0a24,24,0,1,1,10.65-2.5A23.84,23.84,0,0,1,998.49,152.52Zm0-44.6a20.6,20.6,0,1,0,18.47,11.45A20.49,20.49,0,0,0,998.46,107.92Z"/><g class="cls-8"><path class="cls-9" d="M1209.56,131.2l8.53-6.76L1194.72,95l-8.53,6.77c-9.84,7.31-20.45,8.46-26.76,7.3a47.67,47.67,0,1,0,36.91,46.56C1196.05,146.67,1200.18,139.11,1209.56,131.2Z"/><path class="cls-10" d="M1195.33,94.48,1218.7,124a.79.79,0,0,1-.13,1.11l-8.53,6.76c-9.2,7.77-13.19,15.09-12.92,23.75a48.46,48.46,0,1,1-37.51-47.31c6.36,1.18,16.59-.08,26.11-7.17l8.51-6.74A.78.78,0,0,1,1195.33,94.48ZM1217,124.32l-22.39-28.25-7.92,6.27c-9.94,7.4-20.66,8.7-27.38,7.46a46.89,46.89,0,1,0,36.26,45.79c-.29-9.15,3.87-16.87,13.5-25Z"/><path class="cls-11" d="M1206.4,109.7l-57.9,45.9"/><path class="cls-10" d="M1207,109.21a.79.79,0,0,1-.13,1.11l-57.9,45.9a.79.79,0,0,1-1.11-.13.78.78,0,0,1,.13-1.1l57.9-45.9A.79.79,0,0,1,1207,109.21Z"/><line class="cls-11" x1="1173.08" y1="160.76" x2="1149.08" y2="130.49"/><path class="cls-10" d="M1149.7,130l24,30.28a.78.78,0,0,1-.13,1.1.79.79,0,0,1-1.11-.13l-24-30.27a.79.79,0,0,1,1.24-1Z"/><polygon class="cls-12" points="1151.45 133.47 1182.15 128.93 1170.72 157.78 1151.45 133.47"/><path class="cls-10" d="M1182.76,128.44a.79.79,0,0,1,.12.78l-11.43,28.85a.78.78,0,0,1-1.34.2L1150.83,134a.78.78,0,0,1-.11-.78.77.77,0,0,1,.61-.49l30.7-4.54A.78.78,0,0,1,1182.76,128.44Zm-12.27,27.79,10.42-26.32-28,4.14Z"/><rect class="cls-11" x="1205.35" y="83.69" width="9.7" height="45.99" transform="matrix(0.78, -0.62, 0.62, 0.78, 195.57, 774.9)"/><path class="cls-10" d="M1200.33,85.17l28.57,36a.78.78,0,0,1-.13,1.1l-7.6,6a.78.78,0,0,1-1.1-.13l-28.57-36a.78.78,0,0,1,.13-1.1l7.6-6A.78.78,0,0,1,1200.33,85.17Zm26.85,36.4-27.59-34.81-6.37,5,27.59,34.81Z"/><path class="cls-11" d="M1242.28,81.25a6.29,6.29,0,0,0-8.83-1l7.81,9.86A6.29,6.29,0,0,0,1242.28,81.25Z"/><path class="cls-10" d="M1242.9,80.77a7.09,7.09,0,0,1-1.15,9.94.79.79,0,0,1-1.11-.13l-7.81-9.86a.78.78,0,0,1,.13-1.1A7.08,7.08,0,0,1,1242.9,80.77Zm-1.55,8.17a5.5,5.5,0,0,0-6.76-8.54Z"/><path class="cls-11" d="M1226,118.78l14.09-11.17A15.49,15.49,0,0,0,1245.94,96l-4.68-5.9-7.81-9.86-4.68-5.9a15.51,15.51,0,0,0-12.65,3.07L1202,88.57Z"/><path class="cls-10" d="M1229.39,73.84l17.17,21.66a.8.8,0,0,1,.16.52,16.31,16.31,0,0,1-6.16,12.21l-14.1,11.17a.78.78,0,0,1-1.1-.13l-23.95-30.21a.79.79,0,0,1,.12-1.11l14.1-11.17a16.3,16.3,0,0,1,13.29-3.22A.88.88,0,0,1,1229.39,73.84Zm15.75,22.41-16.8-21.2a14.78,14.78,0,0,0-11.74,3L1203.13,88.7l23,29L1239.58,107A14.75,14.75,0,0,0,1245.14,96.25Z"/><path class="cls-10" d="M1207.52,80.33l0,.06,24.86,37.25a.78.78,0,0,1-.22,1.08.8.8,0,0,1-1.09-.21l-24.86-37.25a.79.79,0,0,1,.22-1.09A.78.78,0,0,1,1207.52,80.33Z"/><path class="cls-10" d="M1213.86,75.3l0,.06,24.86,37.25a.78.78,0,0,1-.21,1.09.8.8,0,0,1-1.09-.22l-24.87-37.25a.79.79,0,0,1,1.27-.93Z"/></g><g class="cls-5"><polygon class="cls-6" points="835.46 20.47 932.28 85.26 901.18 131.73 852.29 99.02 840.48 116.67 825.57 81.14 804.36 66.94 835.46 20.47"/><polyline class="cls-7" points="878.02 96.05 897.36 95.48 890.51 77.39"/><polyline class="cls-7" points="853.9 52.9 834.57 53.47 841.42 71.56"/><line class="cls-7" x1="882.97" y1="68.76" x2="851.02" y2="82"/></g><path class="cls-2" d="M353,609.42a35.18,35.18,0,0,0-2.49-4.22l5.13-11.41a45.66,45.66,0,0,0-18.12-12L329,590.9a34.77,34.77,0,0,0-9.73-.62l-7.31-10.14a45.74,45.74,0,0,0-19.49,9.67l3.66,12a35.12,35.12,0,0,0-5.4,8.12l-12.43,1.27a45.61,45.61,0,0,0-1.39,21.71l12.2,2.82a36.39,36.39,0,0,0,1.85,4.52,35,35,0,0,0,2.48,4.21l-5.13,11.42a45.84,45.84,0,0,0,18.13,12l8.53-9.15a34.45,34.45,0,0,0,9.73.62L332,669.49a45.74,45.74,0,0,0,19.49-9.67l-3.66-12a34.65,34.65,0,0,0,5.4-8.13l12.44-1.27A45.73,45.73,0,0,0,367,616.75l-12.18-2.82A39.67,39.67,0,0,0,353,609.42Zm-21.13,35.37a22.3,22.3,0,1,1,10.07-29.89A22.29,22.29,0,0,1,331.84,644.79Z"/><path class="cls-3" d="M332,671.19a1.71,1.71,0,0,1-1.38-.71l-6.76-9.38a36.64,36.64,0,0,1-8.3-.53L307.64,669a1.72,1.72,0,0,1-1.82.44A47.68,47.68,0,0,1,287,657a1.7,1.7,0,0,1-.3-1.85l4.75-10.55a35.36,35.36,0,0,1-3.7-7.46l-11.28-2.6a1.72,1.72,0,0,1-1.29-1.36,47.48,47.48,0,0,1,1.44-22.52,1.69,1.69,0,0,1,1.45-1.18l11.5-1.17a36.27,36.27,0,0,1,4.6-6.93l-3.39-11.06a1.72,1.72,0,0,1,.53-1.8,47.31,47.31,0,0,1,9.5-6.23,47.89,47.89,0,0,1,10.71-3.8,1.69,1.69,0,0,1,1.75.66l6.77,9.38a36.53,36.53,0,0,1,8.3.53l7.9-8.45a1.68,1.68,0,0,1,1.81-.44,47.47,47.47,0,0,1,18.8,12.48,1.7,1.7,0,0,1,.3,1.85L352.42,605a36.25,36.25,0,0,1,2.07,3.62,39.31,39.31,0,0,1,1.63,3.83l11.27,2.6a1.7,1.7,0,0,1,1.29,1.36A47.6,47.6,0,0,1,367.25,639a1.71,1.71,0,0,1-1.45,1.19l-11.5,1.17a36.48,36.48,0,0,1-4.61,6.93l3.38,11.06a1.68,1.68,0,0,1-.52,1.79,47.26,47.26,0,0,1-20.21,10A1.65,1.65,0,0,1,332,671.19Zm-7.31-13.55a1.68,1.68,0,0,1,1.38.71l6.65,9.22a44.52,44.52,0,0,0,8.86-3.26,44,44,0,0,0,7.95-5.08l-3.32-10.88a1.68,1.68,0,0,1,.35-1.62,32.84,32.84,0,0,0,5.14-7.73,1.68,1.68,0,0,1,1.36-1l11.3-1.15a44.11,44.11,0,0,0,1.2-18.74l-11.08-2.56a1.67,1.67,0,0,1-1.22-1.11,36.29,36.29,0,0,0-1.78-4.32,34.47,34.47,0,0,0-2.36-4,1.71,1.71,0,0,1-.15-1.65l4.67-10.38A44.21,44.21,0,0,0,338,583.75l-7.76,8.31a1.7,1.7,0,0,1-1.6.5,33.26,33.26,0,0,0-9.25-.59,1.67,1.67,0,0,1-1.5-.7l-6.66-9.22a45.25,45.25,0,0,0-8.86,3.27,44.14,44.14,0,0,0-7.95,5.08l3.33,10.88a1.71,1.71,0,0,1-.36,1.63,33.4,33.4,0,0,0-5.14,7.72,1.7,1.7,0,0,1-1.36,1l-11.3,1.15a44.07,44.07,0,0,0-1.2,18.73L289.44,634a1.72,1.72,0,0,1,1.23,1.12,32,32,0,0,0,1.77,4.3,31.39,31.39,0,0,0,2.36,4,1.7,1.7,0,0,1,.14,1.66l-4.66,10.38a44.2,44.2,0,0,0,15.65,10.38l7.75-8.32a1.69,1.69,0,0,1,1.58-.5,33.07,33.07,0,0,0,9.26.59Zm-2.7-8.83a24,24,0,1,1,10.65-2.5A23.85,23.85,0,0,1,322,648.81Zm0-44.6a20.61,20.61,0,1,0,9.17,39.06,20.6,20.6,0,0,0-9.17-39.06Z"/><path class="cls-4" d="M312,604.84a22.3,22.3,0,1,0,29.89,10.06A22.3,22.3,0,0,0,312,604.84Z"/><path class="cls-4" d="M322,648.81h0a24,24,0,1,1,10.65-2.5A23.85,23.85,0,0,1,322,648.81Zm0-44.6a20.61,20.61,0,1,0,9.17,39.06,20.6,20.6,0,0,0-9.17-39.06Z"/><path class="cls-2" d="M1427.19,275.49a35,35,0,0,0-2.48-4.21l5.13-11.41a45.69,45.69,0,0,0-18.12-12l-8.54,9.15a34.4,34.4,0,0,0-9.73-.63l-7.32-10.14a46,46,0,0,0-10.32,3.67,45,45,0,0,0-9.16,6l3.66,12a34.7,34.7,0,0,0-5.4,8.12l-12.43,1.26a45.53,45.53,0,0,0-1.39,21.72l12.19,2.82a37.1,37.1,0,0,0,1.86,4.52,35.79,35.79,0,0,0,2.48,4.21l-5.13,11.41a45.63,45.63,0,0,0,18.13,12l8.53-9.14a35.2,35.2,0,0,0,9.73.62l7.31,10.14a46.31,46.31,0,0,0,10.33-3.65,45.48,45.48,0,0,0,9.16-6l-3.66-12a34.91,34.91,0,0,0,5.4-8.12l12.43-1.27a45.77,45.77,0,0,0,1.39-21.72L1429.05,280A36.46,36.46,0,0,0,1427.19,275.49Zm-21.12,35.37A22.29,22.29,0,1,1,1416.14,281,22.28,22.28,0,0,1,1406.07,310.86Z"/><path class="cls-3" d="M1406.19,337.26a1.73,1.73,0,0,1-1.38-.7l-6.76-9.39a36.64,36.64,0,0,1-8.3-.53l-7.89,8.46a1.68,1.68,0,0,1-1.81.44,47.57,47.57,0,0,1-18.81-12.48,1.7,1.7,0,0,1-.3-1.85l4.75-10.55a34.39,34.39,0,0,1-2.07-3.62,35.53,35.53,0,0,1-1.63-3.83l-11.28-2.61a1.69,1.69,0,0,1-1.29-1.35,47.4,47.4,0,0,1,1.44-22.53,1.7,1.7,0,0,1,1.45-1.18l11.5-1.17a35.89,35.89,0,0,1,4.6-6.92L1365,256.38a1.69,1.69,0,0,1,.53-1.79,47.51,47.51,0,0,1,9.5-6.24,48.4,48.4,0,0,1,10.71-3.8,1.69,1.69,0,0,1,1.75.67l6.77,9.38a36.53,36.53,0,0,1,8.3.53l7.89-8.46a1.72,1.72,0,0,1,1.82-.44,47.63,47.63,0,0,1,18.8,12.49,1.69,1.69,0,0,1,.3,1.84l-4.74,10.56a37.12,37.12,0,0,1,2.07,3.62c.6,1.24,1.15,2.52,1.63,3.82l11.27,2.61a1.69,1.69,0,0,1,1.29,1.35,47.65,47.65,0,0,1-1.43,22.53,1.71,1.71,0,0,1-1.45,1.18l-11.5,1.17a37,37,0,0,1-4.61,6.94l3.38,11.06a1.69,1.69,0,0,1-.53,1.79,47.26,47.26,0,0,1-20.21,10A1.5,1.5,0,0,1,1406.19,337.26Zm-7.31-13.54a1.71,1.71,0,0,1,1.38.7l6.64,9.22a43.44,43.44,0,0,0,8.86-3.25,44.11,44.11,0,0,0,8-5.09l-3.32-10.87a1.69,1.69,0,0,1,.35-1.63,33.3,33.3,0,0,0,5.14-7.72,1.68,1.68,0,0,1,1.36-1l11.3-1.16a44.11,44.11,0,0,0,1.2-18.74l-11.08-2.56a1.7,1.7,0,0,1-1.23-1.11,35.14,35.14,0,0,0-1.77-4.31,33.75,33.75,0,0,0-2.36-4,1.68,1.68,0,0,1-.15-1.65l4.66-10.37a44.14,44.14,0,0,0-15.64-10.39l-7.76,8.32a1.68,1.68,0,0,1-1.59.5,32.91,32.91,0,0,0-9.25-.59,1.69,1.69,0,0,1-1.51-.7l-6.65-9.22a44.29,44.29,0,0,0-16.82,8.34l3.34,10.88a1.72,1.72,0,0,1-.36,1.63,33.09,33.09,0,0,0-5.14,7.72,1.68,1.68,0,0,1-1.36,1l-11.3,1.15a44.11,44.11,0,0,0-1.2,18.74l11.09,2.56a1.72,1.72,0,0,1,1.23,1.12,32.44,32.44,0,0,0,4.12,8.31,1.67,1.67,0,0,1,.15,1.66l-4.67,10.37A44.25,44.25,0,0,0,1380.15,332l7.76-8.31a1.67,1.67,0,0,1,1.58-.51,33.07,33.07,0,0,0,9.26.59Zm-2.7-8.83a24,24,0,1,1,10.65-2.51A23.83,23.83,0,0,1,1396.18,314.89Zm0-44.6a20.6,20.6,0,1,0,9.17,39,20.6,20.6,0,0,0-9.17-39Z"/><path class="cls-4" d="M1386.25,270.92A22.29,22.29,0,1,0,1416.14,281,22.29,22.29,0,0,0,1386.25,270.92Z"/><path class="cls-4" d="M1396.18,314.89h0a24,24,0,1,1,10.65-2.51A23.83,23.83,0,0,1,1396.18,314.89Zm0-44.6a20.6,20.6,0,1,0,9.17,39,20.6,20.6,0,0,0-9.17-39Z"/><g class="cls-5"><polygon class="cls-6" points="79.48 53.2 183.13 0 208.66 49.75 156.32 76.61 166.03 95.51 127.72 91.29 105.02 102.94 79.48 53.2"/><polyline class="cls-7" points="166.23 52.67 175.11 35.5 155.98 32.7"/><polyline class="cls-7" points="116.79 52.81 107.91 69.99 127.04 72.79"/><line class="cls-7" x1="144.76" y1="35.1" x2="140.83" y2="69.46"/></g><g class="cls-8"><path class="cls-9" d="M144.08,219.58l-9.06,6,20.88,31.29,9-6c10.4-6.49,21.08-6.77,27.27-5.09a47.68,47.68,0,1,0-33-49.43C158.8,205.27,154.07,212.47,144.08,219.58Z"/><path class="cls-10" d="M155.25,257.35l-20.88-31.29a.78.78,0,0,1,.22-1.09l9-6c9.81-7,14.39-14,14.82-22.61A48.46,48.46,0,1,1,192,246.54c-6.24-1.7-16.54-1.28-26.61,5l-9,6A.78.78,0,0,1,155.25,257.35Zm-19.14-31.51,20,30,8.4-5.61c10.52-6.56,21.31-7,27.9-5.19A46.89,46.89,0,1,0,160,196.42c-.46,9.15-5.24,16.5-15.5,23.8Z"/><path class="cls-11" d="M145.46,241.27l61.46-41"/><path class="cls-10" d="M144.81,241.71a.78.78,0,0,1,.22-1.09l61.46-41a.79.79,0,1,1,.87,1.31l-61.46,41A.79.79,0,0,1,144.81,241.71Z"/><line class="cls-11" x1="182.85" y1="193.11" x2="204.29" y2="225.25"/><path class="cls-10" d="M203.64,225.68l-21.45-32.13a.79.79,0,0,1,.22-1.09.78.78,0,0,1,1.09.21l21.44,32.14a.78.78,0,0,1-.21,1.09A.79.79,0,0,1,203.64,225.68Z"/><polygon class="cls-12" points="202.18 222.09 171.21 224.09 184.95 196.27 202.18 222.09"/><path class="cls-10" d="M170.55,224.53a.8.8,0,0,1-.05-.78l13.75-27.82a.77.77,0,0,1,.65-.44.78.78,0,0,1,.71.35l17.22,25.81a.79.79,0,0,1-.6,1.22l-31,2A.78.78,0,0,1,170.55,224.53Zm14.51-26.69-12.54,25.38,28.25-1.83Z"/><rect class="cls-11" x="136.58" y="220.97" width="9.7" height="45.99" transform="matrix(0.83, -0.56, 0.56, 0.83, -111.62, 119.52)"/><path class="cls-10" d="M149.5,266.22,124,228a.78.78,0,0,1,.22-1.09l8.06-5.39a.79.79,0,0,1,1.09.22L158.88,260a.79.79,0,0,1-.22,1.09l-8.07,5.39A.79.79,0,0,1,149.5,266.22Zm-23.78-38.47,24.65,36.94,6.76-4.51-24.65-36.94Z"/><path class="cls-11" d="M107.37,266.69a6.28,6.28,0,0,0,8.72,1.74l-7-10.46A6.28,6.28,0,0,0,107.37,266.69Z"/><path class="cls-10" d="M106.72,267.12a7.07,7.07,0,0,1,2-9.81.79.79,0,0,1,1.09.22l7,10.46a.79.79,0,0,1-.22,1.09A7.07,7.07,0,0,1,106.72,267.12Zm2.21-8a5.51,5.51,0,0,0,6,9.07Z"/><path class="cls-11" d="M126.69,230.62l-15,10a15.53,15.53,0,0,0-6.8,11.1l4.18,6.27,7,10.46,4.18,6.26a15.49,15.49,0,0,0,12.87-2l15-10Z"/><path class="cls-10" d="M119.62,275.13l-15.34-23a.78.78,0,0,1-.13-.53A16.33,16.33,0,0,1,111.3,240l15-10a.79.79,0,0,1,1.09.22l21.4,32.08a.79.79,0,0,1-.22,1.09l-15,10a16.32,16.32,0,0,1-13.51,2.12A.75.75,0,0,1,119.62,275.13Zm-13.87-23.62,15,22.5a14.77,14.77,0,0,0,11.94-2l14.3-9.54-20.52-30.77-14.31,9.54A14.76,14.76,0,0,0,105.75,251.51Z"/><path class="cls-10" d="M141.94,270.45l0-.05-21.73-39.16a.79.79,0,0,1,.3-1.07.8.8,0,0,1,1.07.3l21.73,39.16a.79.79,0,0,1-1.34.82Z"/><path class="cls-10" d="M135.21,275l0-.06-21.74-39.16a.79.79,0,0,1,.31-1.07.8.8,0,0,1,1.07.31l21.73,39.16a.79.79,0,0,1-1.34.82Z"/></g><path class="cls-2" d="M201.45,781.75a35,35,0,0,0-2.48-4.21l5.13-11.41a45.69,45.69,0,0,0-18.12-12l-8.54,9.15a34.4,34.4,0,0,0-9.73-.63l-7.32-10.14a46.23,46.23,0,0,0-10.33,3.67,45.29,45.29,0,0,0-9.16,6l3.67,12a34.7,34.7,0,0,0-5.4,8.12l-12.43,1.26a45.53,45.53,0,0,0-1.39,21.72L137.54,808a34.45,34.45,0,0,0,4.34,8.73l-5.13,11.41a45.63,45.63,0,0,0,18.13,12l8.53-9.14a35.17,35.17,0,0,0,9.73.62l7.31,10.14a46.31,46.31,0,0,0,10.33-3.65,45.48,45.48,0,0,0,9.16-6l-3.66-12a34.91,34.91,0,0,0,5.4-8.12l12.43-1.27a45.77,45.77,0,0,0,1.39-21.72l-12.19-2.81A36.46,36.46,0,0,0,201.45,781.75Zm-21.12,35.37a22.29,22.29,0,1,1,10.07-29.88A22.28,22.28,0,0,1,180.33,817.12Z"/><path class="cls-3" d="M180.45,843.52a1.73,1.73,0,0,1-1.38-.7l-6.76-9.39a36.08,36.08,0,0,1-8.3-.53l-7.89,8.46a1.69,1.69,0,0,1-1.82.44,47.61,47.61,0,0,1-18.8-12.48,1.69,1.69,0,0,1-.3-1.84l4.74-10.56a38.33,38.33,0,0,1-2.07-3.62,37.61,37.61,0,0,1-1.62-3.83L125,806.86a1.69,1.69,0,0,1-1.29-1.35A47.4,47.4,0,0,1,125.12,783a1.7,1.7,0,0,1,1.45-1.18l11.49-1.17a36.72,36.72,0,0,1,4.61-6.92l-3.39-11.07a1.69,1.69,0,0,1,.53-1.79,47.51,47.51,0,0,1,9.5-6.24,48.4,48.4,0,0,1,10.71-3.8,1.69,1.69,0,0,1,1.75.67l6.77,9.38a36.53,36.53,0,0,1,8.3.53l7.89-8.46a1.72,1.72,0,0,1,1.82-.44A47.63,47.63,0,0,1,205.35,765a1.69,1.69,0,0,1,.3,1.84l-4.74,10.56A37.12,37.12,0,0,1,203,781a40.13,40.13,0,0,1,1.62,3.82l11.28,2.61a1.69,1.69,0,0,1,1.29,1.35,47.53,47.53,0,0,1-1.44,22.53,1.69,1.69,0,0,1-1.44,1.18l-11.5,1.17a37,37,0,0,1-4.61,6.94l3.38,11.06a1.69,1.69,0,0,1-.53,1.79,47.26,47.26,0,0,1-20.21,10A1.55,1.55,0,0,1,180.45,843.52ZM173.14,830a1.71,1.71,0,0,1,1.38.7l6.64,9.22a43.44,43.44,0,0,0,8.86-3.25,44.11,44.11,0,0,0,8-5.09l-3.33-10.87a1.72,1.72,0,0,1,.36-1.63,33.3,33.3,0,0,0,5.14-7.72,1.68,1.68,0,0,1,1.36-1l11.3-1.15a44.33,44.33,0,0,0,1.2-18.75l-11.08-2.56a1.69,1.69,0,0,1-1.23-1.11,36.79,36.79,0,0,0-1.77-4.31,35.17,35.17,0,0,0-2.36-4,1.68,1.68,0,0,1-.15-1.65l4.66-10.37a44.14,44.14,0,0,0-15.64-10.39l-7.76,8.32a1.68,1.68,0,0,1-1.59.5,32.91,32.91,0,0,0-9.25-.59,1.69,1.69,0,0,1-1.51-.7l-6.65-9.22a44.29,44.29,0,0,0-16.82,8.34l3.33,10.88a1.69,1.69,0,0,1-.35,1.63A33.09,33.09,0,0,0,140.7,783a1.68,1.68,0,0,1-1.36,1L128,785.07a44.11,44.11,0,0,0-1.2,18.74l11.09,2.56a1.68,1.68,0,0,1,1.22,1.12,35.46,35.46,0,0,0,1.77,4.3,32.61,32.61,0,0,0,2.36,4,1.7,1.7,0,0,1,.15,1.66l-4.67,10.37a44.25,44.25,0,0,0,15.65,10.38l7.76-8.31a1.67,1.67,0,0,1,1.58-.51A32.7,32.7,0,0,0,173,830Zm-2.7-8.83a24,24,0,1,1,10.65-2.51A23.83,23.83,0,0,1,170.44,821.15Zm0-44.6a20.6,20.6,0,1,0,9.16,39.05,20.59,20.59,0,0,0-9.16-39.05Z"/><path class="cls-4" d="M160.51,777.18a22.29,22.29,0,1,0,29.89,10.06A22.28,22.28,0,0,0,160.51,777.18Z"/><path class="cls-4" d="M170.44,821.15h0a24,24,0,1,1,10.65-2.51A23.83,23.83,0,0,1,170.44,821.15Zm0-44.6a20.6,20.6,0,1,0,9.16,39.05,20.59,20.59,0,0,0-9.16-39.05Z"/><g class="cls-5"><polygon class="cls-6" points="112.76 588.01 229.26 587.67 229.42 643.59 170.59 643.76 170.66 665 138.45 643.85 112.92 643.92 112.76 588.01"/><polyline class="cls-7" points="190.28 626.93 206 615.66 190.22 604.48"/><polyline class="cls-7" points="146.18 604.61 130.46 615.88 146.24 627.06"/><line class="cls-7" x1="179.14" y1="601.53" x2="160.03" y2="630.35"/></g><g class="cls-8"><path class="cls-9" d="M1013,792.94l9.42-5.45-18.82-32.57-9.42,5.45c-10.8,5.8-21.47,5.39-27.54,3.32a47.68,47.68,0,1,0,29.72,51.45C997.4,806.27,1002.59,799.39,1013,792.94Z"/><path class="cls-10" d="M1004.3,754.53l18.82,32.57a.78.78,0,0,1-.28,1.07l-9.43,5.45c-10.24,6.34-15.26,13-16.25,21.61A48.46,48.46,0,1,1,967,763c6.12,2.09,16.42,2.33,26.87-3.29l9.41-5.43A.78.78,0,0,1,1004.3,754.53Zm17.07,32.67-18-31.2-8.74,5c-10.92,5.87-21.72,5.59-28.18,3.39A46.89,46.89,0,1,0,995.61,815c1-9.1,6.29-16.12,17-22.75Z"/><path class="cls-11" d="M1013,771.2l-64,37"/><path class="cls-10" d="M1013.71,770.81a.77.77,0,0,1-.29,1.07l-64,37a.78.78,0,0,1-1.07-.28.79.79,0,0,1,.28-1.08l64-37A.79.79,0,0,1,1013.71,770.81Z"/><line class="cls-11" x1="972.62" y1="816.86" x2="953.29" y2="783.41"/><path class="cls-10" d="M954,783l19.33,33.45a.78.78,0,0,1-.28,1.07.79.79,0,0,1-1.08-.28l-19.33-33.45A.79.79,0,1,1,954,783Z"/><polygon class="cls-12" points="955.2 786.71 986.23 786.69 970.72 813.57 955.2 786.71"/><path class="cls-10" d="M986.91,786.3a.78.78,0,0,1,0,.78L971.41,814a.79.79,0,0,1-.69.4.78.78,0,0,1-.68-.4L954.52,787.1a.79.79,0,0,1,.68-1.18l31,0A.78.78,0,0,1,986.91,786.3ZM970.72,812l14.15-24.52H956.56Z"/><rect class="cls-11" x="1012.38" y="745.78" width="9.7" height="45.99" transform="translate(-248.17 612.13) rotate(-30.02)"/><path class="cls-10" d="M1010.6,746.05l23,39.82a.78.78,0,0,1-.28,1.07l-8.4,4.85a.79.79,0,0,1-1.08-.28l-23-39.82a.8.8,0,0,1,.29-1.08l8.4-4.85A.78.78,0,0,1,1010.6,746.05ZM1031.86,786l-22.23-38.45-7,4.06L1024.82,790Z"/><path class="cls-11" d="M1052.68,748.29a6.31,6.31,0,0,0-8.6-2.3l6.3,10.89A6.3,6.3,0,0,0,1052.68,748.29Z"/><path class="cls-10" d="M1053.36,747.9a7.08,7.08,0,0,1-2.59,9.66.78.78,0,0,1-1.07-.28l-6.3-10.89a.8.8,0,0,1,.29-1.08A7.09,7.09,0,0,1,1053.36,747.9Zm-2.72,7.86a5.5,5.5,0,0,0-5.45-9.43Z"/><path class="cls-11" d="M1031.07,783l15.57-9a15.53,15.53,0,0,0,7.51-10.65l-3.77-6.52-6.3-10.89-3.76-6.52a15.52,15.52,0,0,0-13,1.19l-15.57,9Z"/><path class="cls-10" d="M1041,739.08,1054.83,763a.83.83,0,0,1,.09.54,16.37,16.37,0,0,1-7.88,11.18l-15.57,9a.79.79,0,0,1-1.08-.28l-19.29-33.39a.78.78,0,0,1,.29-1.07l15.57-9a16.34,16.34,0,0,1,13.62-1.25A.84.84,0,0,1,1041,739.08Zm12.32,24.46-13.54-23.42a14.77,14.77,0,0,0-12,1.22L1012.85,750l18.51,32,14.89-8.6A14.78,14.78,0,0,0,1053.32,763.54Z"/><path class="cls-10" d="M1018.42,742.31l0,.06,19.17,40.48a.79.79,0,0,1-1.42.67L1017,743a.77.77,0,0,1,.37-1A.79.79,0,0,1,1018.42,742.31Z"/><path class="cls-10" d="M1025.43,738.26l0,.06,19.16,40.48a.77.77,0,0,1-.37,1,.8.8,0,0,1-1-.37L1024,739a.77.77,0,0,1,.37-1A.79.79,0,0,1,1025.43,738.26Z"/></g><path class="cls-2" d="M1246.1,793.57a35.12,35.12,0,0,0-2.48-4.22l5.13-11.41a45.66,45.66,0,0,0-18.12-12l-8.54,9.14a34.4,34.4,0,0,0-9.73-.62L1205,764.29a46.2,46.2,0,0,0-10.33,3.66,45.72,45.72,0,0,0-9.16,6l3.67,12a34.91,34.91,0,0,0-5.4,8.12l-12.43,1.27A45.48,45.48,0,0,0,1170,817l12.19,2.82a35.57,35.57,0,0,0,1.86,4.52,35,35,0,0,0,2.48,4.21L1181.4,840a45.84,45.84,0,0,0,18.13,12l8.53-9.15a34.42,34.42,0,0,0,9.73.62l7.31,10.15a45.74,45.74,0,0,0,19.49-9.67l-3.66-12a34.91,34.91,0,0,0,5.4-8.12l12.43-1.27a45.73,45.73,0,0,0,1.39-21.71L1248,798.08A36.32,36.32,0,0,0,1246.1,793.57ZM1225,828.94a22.3,22.3,0,1,1,10.07-29.89A22.29,22.29,0,0,1,1225,828.94Z"/><path class="cls-3" d="M1225.1,855.33a1.69,1.69,0,0,1-1.38-.7l-6.76-9.38a36.64,36.64,0,0,1-8.3-.53l-7.89,8.45a1.67,1.67,0,0,1-1.82.44,47.59,47.59,0,0,1-18.8-12.47,1.7,1.7,0,0,1-.3-1.85l4.74-10.55a39.79,39.79,0,0,1-2.07-3.63,37.61,37.61,0,0,1-1.62-3.83l-11.28-2.6a1.72,1.72,0,0,1-1.29-1.36,47.35,47.35,0,0,1,1.44-22.52,1.69,1.69,0,0,1,1.45-1.18l11.49-1.17a36.8,36.8,0,0,1,4.61-6.93l-3.39-11.06a1.71,1.71,0,0,1,.53-1.8,47,47,0,0,1,9.5-6.23,47.89,47.89,0,0,1,10.71-3.8,1.7,1.7,0,0,1,1.75.66l6.77,9.38a36.53,36.53,0,0,1,8.3.53l7.89-8.45a1.7,1.7,0,0,1,1.82-.44,47.61,47.61,0,0,1,18.8,12.48,1.7,1.7,0,0,1,.3,1.85l-4.74,10.55a38.33,38.33,0,0,1,2.07,3.62,39.24,39.24,0,0,1,1.62,3.83l11.28,2.6a1.7,1.7,0,0,1,1.29,1.36,47.48,47.48,0,0,1-1.44,22.52,1.69,1.69,0,0,1-1.44,1.18l-11.5,1.18a37,37,0,0,1-4.61,6.93l3.38,11.06a1.69,1.69,0,0,1-.53,1.79,46.67,46.67,0,0,1-9.5,6.24,47.17,47.17,0,0,1-10.71,3.79A1.55,1.55,0,0,1,1225.1,855.33Zm-7.31-13.54a1.7,1.7,0,0,1,1.38.71l6.64,9.22a44.07,44.07,0,0,0,8.86-3.26,44.62,44.62,0,0,0,8-5.08l-3.33-10.88a1.73,1.73,0,0,1,.36-1.63,32.54,32.54,0,0,0,5.13-7.72,1.71,1.71,0,0,1,1.37-1l11.3-1.15a44.32,44.32,0,0,0,1.2-18.75l-11.08-2.55a1.7,1.7,0,0,1-1.23-1.11,32.33,32.33,0,0,0-4.13-8.32,1.7,1.7,0,0,1-.15-1.66l4.66-10.37a44.28,44.28,0,0,0-15.64-10.39l-7.76,8.32a1.68,1.68,0,0,1-1.59.5,33.28,33.28,0,0,0-9.25-.59,1.69,1.69,0,0,1-1.51-.7l-6.65-9.22a45.25,45.25,0,0,0-8.86,3.27,44.21,44.21,0,0,0-8,5.08l3.33,10.87a1.69,1.69,0,0,1-.35,1.63,33.36,33.36,0,0,0-5.14,7.73,1.69,1.69,0,0,1-1.36,1l-11.3,1.15a44.12,44.12,0,0,0-1.2,18.74l11.09,2.56a1.68,1.68,0,0,1,1.22,1.12,34.81,34.81,0,0,0,1.77,4.3,32.61,32.61,0,0,0,2.36,4,1.7,1.7,0,0,1,.15,1.66l-4.67,10.38A44.38,44.38,0,0,0,1199.06,850l7.76-8.32a1.69,1.69,0,0,1,1.58-.5,33.45,33.45,0,0,0,9.26.59Zm-2.7-8.83a24,24,0,1,1,10.65-2.5A23.84,23.84,0,0,1,1215.09,833Zm0-44.6a20.6,20.6,0,1,0,9.16,39,20.6,20.6,0,0,0-9.16-39Z"/><path class="cls-4" d="M1205.16,789a22.3,22.3,0,1,0,29.89,10.06A22.29,22.29,0,0,0,1205.16,789Z"/><path class="cls-4" d="M1215.09,833h0a24,24,0,1,1,10.65-2.5A23.84,23.84,0,0,1,1215.09,833Zm0-44.6a20.6,20.6,0,1,0,9.16,39,20.6,20.6,0,0,0-9.16-39Z"/><g class="cls-5"><polygon class="cls-6" points="1473.15 811.83 1366.56 764.83 1389.12 713.66 1442.94 737.39 1451.51 717.96 1472.36 750.37 1495.71 760.66 1473.15 811.83"/><polyline class="cls-7" points="1418.12 744.78 1399.17 748.7 1409.06 765.32"/><polyline class="cls-7" points="1449.36 783.09 1468.3 779.17 1458.41 762.55"/><line class="cls-7" x1="1417.98" y1="772.52" x2="1447.15" y2="753.94"/></g><path class="cls-2" d="M709.28,790.07a35.12,35.12,0,0,0-2.48-4.22l5.13-11.4a45.58,45.58,0,0,0-18.12-12l-8.54,9.14a34.77,34.77,0,0,0-9.73-.62l-7.32-10.14a46,46,0,0,0-10.32,3.66,45.44,45.44,0,0,0-9.16,6l3.66,12a34.7,34.7,0,0,0-5.4,8.12l-12.43,1.26a45.61,45.61,0,0,0-1.39,21.71l12.2,2.82a34.34,34.34,0,0,0,1.85,4.52,35.12,35.12,0,0,0,2.48,4.22l-5.13,11.41a45.73,45.73,0,0,0,18.13,12l8.53-9.15A34.45,34.45,0,0,0,681,840l7.31,10.15a45.74,45.74,0,0,0,19.49-9.67l-3.66-12a34.76,34.76,0,0,0,5.4-8.13l12.43-1.26a45.65,45.65,0,0,0,1.39-21.72l-12.19-2.81A35.83,35.83,0,0,0,709.28,790.07Zm-21.12,35.37a22.3,22.3,0,1,1,10.07-29.89A22.28,22.28,0,0,1,688.16,825.44Z"/><path class="cls-3" d="M688.28,851.84a1.71,1.71,0,0,1-1.38-.71l-6.76-9.38a36.64,36.64,0,0,1-8.3-.53L664,849.68a1.68,1.68,0,0,1-1.81.44,47.57,47.57,0,0,1-18.81-12.48,1.7,1.7,0,0,1-.3-1.85l4.75-10.55a35.61,35.61,0,0,1-3.7-7.45l-11.28-2.61a1.7,1.7,0,0,1-1.29-1.35A47.52,47.52,0,0,1,633,791.3a1.69,1.69,0,0,1,1.45-1.18L645.9,789a36.27,36.27,0,0,1,4.6-6.93L647.11,771a1.68,1.68,0,0,1,.53-1.79,47.36,47.36,0,0,1,9.5-6.24,47.89,47.89,0,0,1,10.71-3.8,1.69,1.69,0,0,1,1.75.67l6.77,9.38a35.42,35.42,0,0,1,8.3.53l7.89-8.46a1.7,1.7,0,0,1,1.82-.44,47.38,47.38,0,0,1,18.8,12.49,1.68,1.68,0,0,1,.3,1.84l-4.74,10.56a38.2,38.2,0,0,1,2.07,3.61,41.52,41.52,0,0,1,1.63,3.83l11.27,2.6A1.72,1.72,0,0,1,725,797.1a47.6,47.6,0,0,1-1.43,22.52,1.72,1.72,0,0,1-1.45,1.19L710.62,822a36.64,36.64,0,0,1-4.61,6.93L709.39,840a1.71,1.71,0,0,1-.53,1.8,47.11,47.11,0,0,1-20.21,10A2.21,2.21,0,0,1,688.28,851.84ZM681,838.3a1.69,1.69,0,0,1,1.38.7l6.65,9.22a43.6,43.6,0,0,0,8.85-3.26,44.06,44.06,0,0,0,8-5.08L702.49,829a1.68,1.68,0,0,1,.35-1.62,33.15,33.15,0,0,0,5.14-7.73,1.7,1.7,0,0,1,1.36-1l11.3-1.15a44.11,44.11,0,0,0,1.2-18.74l-11.08-2.56a1.7,1.7,0,0,1-1.23-1.11,32.76,32.76,0,0,0-4.13-8.32,1.68,1.68,0,0,1-.15-1.65l4.66-10.37a44,44,0,0,0-15.64-10.39l-7.76,8.31a1.67,1.67,0,0,1-1.59.51,32.91,32.91,0,0,0-9.25-.59,1.72,1.72,0,0,1-1.51-.7l-6.65-9.22a43.91,43.91,0,0,0-16.82,8.34L654,781.93a1.73,1.73,0,0,1-.36,1.63,33.09,33.09,0,0,0-5.14,7.72,1.7,1.7,0,0,1-1.36,1l-11.3,1.15a44.11,44.11,0,0,0-1.2,18.74l11.09,2.56A1.7,1.7,0,0,1,647,815.8a33.45,33.45,0,0,0,1.76,4.31,33.81,33.81,0,0,0,2.36,4,1.67,1.67,0,0,1,.15,1.66l-4.67,10.38a44.38,44.38,0,0,0,15.65,10.38l7.76-8.31a1.67,1.67,0,0,1,1.58-.51,33.07,33.07,0,0,0,9.26.59Zm-2.7-8.83A24,24,0,1,1,688.92,827,23.83,23.83,0,0,1,678.27,829.47Zm0-44.61a20.6,20.6,0,1,0,18.47,11.45A20.49,20.49,0,0,0,678.24,784.86Z"/><path class="cls-4" d="M668.34,785.49a22.3,22.3,0,1,0,29.89,10.06A22.3,22.3,0,0,0,668.34,785.49Z"/><path class="cls-4" d="M678.27,829.47h0A24,24,0,1,1,688.92,827,23.83,23.83,0,0,1,678.27,829.47Zm0-44.61a20.6,20.6,0,1,0,18.47,11.45A20.49,20.49,0,0,0,678.24,784.86Z"/><g class="cls-5"><polygon class="cls-6" points="1290.67 145.19 1381.48 72.21 1416.51 115.79 1370.65 152.64 1383.96 169.2 1345.6 172.78 1325.7 188.77 1290.67 145.19"/><polyline class="cls-7" points="1375.53 127.21 1380.78 108.59 1361.47 109.71"/><polyline class="cls-7" points="1327.14 137.3 1321.9 155.91 1341.2 154.8"/><line class="cls-7" x1="1350.97" y1="114.32" x2="1354.03" y2="148.76"/></g></g></g></g></svg>