<svg xmlns="http://www.w3.org/2000/svg" viewBox="0 0 1481.36 856.5"><defs><style>.cls-1{opacity:0.1;}.cls-2{fill:#bdbfc1;opacity:0.5;}.cls-10,.cls-3{fill:#020608;}.cls-3{opacity:0.66;}.cls-4{fill:#dbdee2;}.cls-5{opacity:0.8;}.cls-6,.cls-7{fill:#c4c4c4;}.cls-14,.cls-15,.cls-7{stroke:#242122;stroke-linejoin:round;}.cls-7{stroke-width:5.86px;}.cls-8{opacity:0.7;}.cls-9{fill:#fbe492;}.cls-11{fill:#fff;}.cls-12{fill:#dcc77f;}.cls-13{opacity:0.6;}.cls-14{fill:#d1d2d3;}.cls-14,.cls-15{stroke-width:6px;}.cls-15{fill:none;}.cls-16{fill:#a6a7aa;}.cls-17{fill:#374963;}.cls-18{fill:#425776;}</style></defs><title>Asset 16</title><g id="Layer_2" data-name="Layer 2"><g id="Слой_1" data-name="Слой 1"><g class="cls-1"><path class="cls-2" d="M551.76,70.37a34.23,34.23,0,0,0-2.48-4.21l5.13-11.41a45.58,45.58,0,0,0-18.12-12l-8.54,9.15a34.4,34.4,0,0,0-9.73-.63L510.7,41.09a46,46,0,0,0-10.32,3.66,45.44,45.44,0,0,0-9.16,6l3.66,12a34.7,34.7,0,0,0-5.4,8.12l-12.43,1.26a45.65,45.65,0,0,0-1.39,21.72l12.19,2.81a35.83,35.83,0,0,0,1.86,4.52,35.12,35.12,0,0,0,2.48,4.22l-5.13,11.41a45.63,45.63,0,0,0,18.13,12l8.53-9.15a34.45,34.45,0,0,0,9.73.62l7.31,10.15a45.44,45.44,0,0,0,19.49-9.67l-3.66-12a34.76,34.76,0,0,0,5.4-8.13l12.43-1.26a45.65,45.65,0,0,0,1.39-21.72l-12.19-2.81A35.83,35.83,0,0,0,551.76,70.37Zm-21.12,35.37a22.3,22.3,0,1,1,10.07-29.88A22.28,22.28,0,0,1,530.64,105.74Z"/><path class="cls-3" d="M530.76,132.14a1.71,1.71,0,0,1-1.38-.71l-6.76-9.38a36.64,36.64,0,0,1-8.3-.53L506.43,130a1.68,1.68,0,0,1-1.81.44,47.57,47.57,0,0,1-18.81-12.48,1.7,1.7,0,0,1-.3-1.85l4.75-10.55a35.61,35.61,0,0,1-3.7-7.45l-11.28-2.61A1.7,1.7,0,0,1,474,94.13a47.4,47.4,0,0,1,1.44-22.53,1.69,1.69,0,0,1,1.45-1.18l11.5-1.17a36.27,36.27,0,0,1,4.6-6.93l-3.39-11.06a1.68,1.68,0,0,1,.53-1.79,47.08,47.08,0,0,1,9.5-6.24,47.89,47.89,0,0,1,10.71-3.8,1.69,1.69,0,0,1,1.75.67l6.77,9.38a35.42,35.42,0,0,1,8.3.53L535,41.55a1.7,1.7,0,0,1,1.82-.44,47.63,47.63,0,0,1,18.8,12.49,1.68,1.68,0,0,1,.3,1.84L551.22,66a38.2,38.2,0,0,1,2.07,3.61c.6,1.25,1.15,2.53,1.63,3.83L566.19,76a1.72,1.72,0,0,1,1.29,1.36,47.6,47.6,0,0,1-1.43,22.52,1.72,1.72,0,0,1-1.45,1.19l-11.5,1.17a36.64,36.64,0,0,1-4.61,6.93l3.38,11.06a1.71,1.71,0,0,1-.53,1.8,47.11,47.11,0,0,1-20.21,10A2.21,2.21,0,0,1,530.76,132.14Zm-7.31-13.54a1.71,1.71,0,0,1,1.38.7l6.64,9.22a43.91,43.91,0,0,0,16.82-8.34L545,109.3a1.68,1.68,0,0,1,.35-1.62,33.15,33.15,0,0,0,5.14-7.73,1.7,1.7,0,0,1,1.36-1l11.3-1.15a44.11,44.11,0,0,0,1.2-18.74l-11.08-2.56A1.7,1.7,0,0,1,552,75.43a32.76,32.76,0,0,0-4.13-8.32,1.68,1.68,0,0,1-.15-1.65l4.66-10.37A44,44,0,0,0,536.75,44.7L529,53a1.67,1.67,0,0,1-1.59.51,32.91,32.91,0,0,0-9.25-.59,1.72,1.72,0,0,1-1.51-.7L510,43a44.29,44.29,0,0,0-16.82,8.34l3.34,10.88a1.73,1.73,0,0,1-.36,1.63A33.09,33.09,0,0,0,491,71.58a1.68,1.68,0,0,1-1.36,1l-11.3,1.15a44.11,44.11,0,0,0-1.2,18.74L488.24,95a1.7,1.7,0,0,1,1.23,1.11,33.45,33.45,0,0,0,1.76,4.31,33.81,33.81,0,0,0,2.36,4,1.67,1.67,0,0,1,.15,1.66l-4.67,10.38a44.25,44.25,0,0,0,15.65,10.38l7.76-8.31a1.67,1.67,0,0,1,1.58-.51,33.07,33.07,0,0,0,9.26.59Zm-2.7-8.83a24,24,0,1,1,10.65-2.51A23.83,23.83,0,0,1,520.75,109.77Zm0-44.61a20.6,20.6,0,1,0,18.47,11.45A20.49,20.49,0,0,0,520.72,65.16Z"/><path class="cls-4" d="M510.82,65.79a22.3,22.3,0,1,0,29.89,10.07A22.3,22.3,0,0,0,510.82,65.79Z"/><path class="cls-4" d="M520.75,109.77h0a24,24,0,1,1,10.65-2.51A23.83,23.83,0,0,1,520.75,109.77Zm0-44.61a20.6,20.6,0,1,0,18.47,11.45A20.49,20.49,0,0,0,520.72,65.16Z"/><g class="cls-5"><polygon class="cls-6" points="428.45 196.43 544.95 196.1 545.11 252.01 486.28 252.18 486.34 273.42 454.13 252.27 428.61 252.35 428.45 196.43"/><polyline class="cls-7" points="505.97 235.35 521.69 224.08 505.91 212.9"/><polyline class="cls-7" points="461.87 213.03 446.15 224.3 461.93 235.48"/><line class="cls-7" x1="494.83" y1="209.95" x2="475.72" y2="238.77"/></g><g class="cls-8"><path class="cls-9" d="M659,187.1l-4,10.13L690,211l4-10.13c4.82-11.27,13.43-17.6,19.47-19.76a47.67,47.67,0,1,0-55.31-21.72C662.91,166.94,663.14,175.55,659,187.1Z"/><path class="cls-10" d="M689.75,211.71l-35-13.75a.78.78,0,0,1-.45-1l4-10.13c4.06-11.34,3.83-19.68-.76-27a48.46,48.46,0,1,1,56.21,22.06c-6.09,2.18-14.31,8.41-19,19.32l-4,10.11A.79.79,0,0,1,689.75,211.71ZM656,196.78,689.59,210l3.7-9.4c4.88-11.39,13.49-17.91,19.93-20.21A46.89,46.89,0,1,0,658.86,159c4.85,7.77,5.13,16.54.88,28.39Z"/><path class="cls-11" d="M672.53,204.11l27-68.78"/><path class="cls-10" d="M672.25,204.84a.79.79,0,0,1-.45-1l27-68.78a.79.79,0,1,1,1.46.58l-27,68.77A.79.79,0,0,1,672.25,204.84Z"/><line class="cls-11" x1="675.69" y1="143.22" x2="711.65" y2="157.34"/><path class="cls-10" d="M711.37,158.07l-36-14.12a.79.79,0,1,1,.57-1.47l36,14.13a.78.78,0,1,1-.57,1.46Z"/><polygon class="cls-12" points="708.11 155.95 683.85 175.3 679.23 144.61 708.11 155.95"/><path class="cls-10" d="M683.56,176a.79.79,0,0,1-.49-.62l-4.62-30.68a.81.81,0,0,1,.29-.74.78.78,0,0,1,.78-.11l28.88,11.34a.79.79,0,0,1,.49.61.81.81,0,0,1-.29.74l-24.26,19.34A.79.79,0,0,1,683.56,176Zm-3.35-30.19,4.21,28,22.14-17.64Z"/><rect class="cls-11" x="665.91" y="185.63" width="9.7" height="45.99" transform="translate(231.4 756.71) rotate(-68.56)"/><path class="cls-10" d="M690.1,222.27l-42.8-16.81a.79.79,0,0,1-.45-1l3.55-9a.79.79,0,0,1,1-.44l42.8,16.81a.78.78,0,0,1,.45,1l-3.55,9A.79.79,0,0,1,690.1,222.27Zm-41.49-18L690,220.52l3-7.57-41.34-16.23Z"/><path class="cls-11" d="M655.8,246.73a6.29,6.29,0,0,0,8.15-3.56l-11.71-4.6A6.29,6.29,0,0,0,655.8,246.73Z"/><path class="cls-10" d="M655.51,247.46a7.08,7.08,0,0,1-4-9.17.78.78,0,0,1,1-.45l11.71,4.6a.79.79,0,0,1,.44,1A7.09,7.09,0,0,1,655.51,247.46Zm-2.77-7.85a5.5,5.5,0,0,0,10.14,4Z"/><path class="cls-11" d="M651,206.09l-6.57,16.73a15.53,15.53,0,0,0,.76,13l7,2.75,11.71,4.6,7,2.76a15.51,15.51,0,0,0,9.4-9l6.57-16.74Z"/><path class="cls-10" d="M670.67,246.66l-25.73-10.11a.74.74,0,0,1-.4-.36,16.27,16.27,0,0,1-.8-13.65l6.57-16.74a.79.79,0,0,1,1-.45l35.89,14.1a.79.79,0,0,1,.45,1l-6.58,16.74a16.32,16.32,0,0,1-9.87,9.46A.8.8,0,0,1,670.67,246.66ZM645.79,235.2,671,245.09a14.75,14.75,0,0,0,8.66-8.46l6.29-16L651.49,207.1l-6.29,16A14.79,14.79,0,0,0,645.79,235.2Z"/><path class="cls-10" d="M686.32,230.06l-.06,0-40.21-19.72a.8.8,0,0,1-.36-1.06.79.79,0,0,1,1-.35L687,228.63a.78.78,0,0,1-.63,1.43Z"/><path class="cls-10" d="M683.36,237.6l-.06,0-40.21-19.72a.78.78,0,0,1-.36-1,.8.8,0,0,1,1-.36L684,236.16a.79.79,0,0,1-.63,1.44Z"/></g><g class="cls-13"><rect class="cls-14" x="467.97" y="308.38" width="144" height="36" transform="translate(-88.33 384.14) rotate(-36.4)"/><polyline class="cls-15" points="598.51 284.46 609.78 276.15 638.26 314.78 569.05 365.82 615.93 429.41"/><rect class="cls-16" x="603.4" y="402.92" width="29" height="60" transform="translate(-136.35 451.18) rotate(-36.4)"/><line class="cls-15" x1="597.92" y1="430.26" x2="612.41" y2="419.58"/><line class="cls-15" x1="605.64" y1="440.72" x2="620.13" y2="430.04"/><line class="cls-15" x1="614.54" y1="452.8" x2="629.03" y2="442.11"/><line class="cls-15" x1="526.54" y1="330.08" x2="535.39" y2="323.55"/><line class="cls-15" x1="541.83" y1="318.8" x2="586.1" y2="286.16"/></g><line class="cls-15" x1="904.72" y1="414.14" x2="904.72" y2="433.14"/><g class="cls-8"><path class="cls-9" d="M373.87,476.44l10.52-2.76-9.54-36.39-10.53,2.76c-11.94,2.75-22.13-.46-27.43-4.07A47.68,47.68,0,1,0,352,493.46C355.28,485.17,362.1,479.91,373.87,476.44Z"/><path class="cls-10" d="M375.61,437.09l9.54,36.39a.78.78,0,0,1-.56,1l-10.52,2.76c-11.56,3.41-18.16,8.52-21.39,16.55a48.45,48.45,0,1,1-15.32-58.4c5.35,3.64,15.22,6.6,26.79,3.94l10.5-2.76A.79.79,0,0,1,375.61,437.09Zm7.82,36-9.14-34.87-9.77,2.57c-12.08,2.77-22.42-.35-28.07-4.19a46.89,46.89,0,1,0,14.79,56.51c3.41-8.5,10.32-13.89,22.4-17.45Z"/><path class="cls-11" d="M379.62,455.49l-71.47,18.74"/><path class="cls-10" d="M380.38,455.29a.79.79,0,0,1-.56,1L308.35,475a.79.79,0,1,1-.4-1.52l71.47-18.74A.78.78,0,0,1,380.38,455.29Z"/><line class="cls-11" x1="328.58" y1="488.84" x2="318.78" y2="451.47"/><path class="cls-10" d="M319.54,451.27l9.8,37.37a.79.79,0,0,1-1.52.4L318,451.67a.79.79,0,1,1,1.52-.4Z"/><polygon class="cls-12" points="319.75 455.15 349.69 463.34 327.62 485.16 319.75 455.15"/><path class="cls-10" d="M350.45,463.14a.77.77,0,0,1-.21.75l-22.06,21.83a.79.79,0,0,1-1.32-.36l-7.87-30a.79.79,0,0,1,.21-.76.77.77,0,0,1,.76-.2l29.93,8.19A.81.81,0,0,1,350.45,463.14ZM328,483.64l20.12-19.9-27.3-7.48Z"/><rect class="cls-11" x="379.46" y="431.26" width="9.7" height="45.99" transform="translate(-102.66 112.35) rotate(-14.69)"/><path class="cls-10" d="M383.93,430.58l11.67,44.49a.79.79,0,0,1-.56,1l-9.39,2.46a.79.79,0,0,1-1-.56L373,433.44a.79.79,0,0,1,.56-1L383,430A.79.79,0,0,1,383.93,430.58Zm9.95,44.13-11.27-43-7.86,2.06,11.27,43Z"/><path class="cls-11" d="M423.92,443.87a6.3,6.3,0,0,0-7.68-4.49l3.19,12.17A6.29,6.29,0,0,0,423.92,443.87Z"/><path class="cls-10" d="M424.68,443.67a7.09,7.09,0,0,1-5.05,8.64.79.79,0,0,1-1-.56l-3.19-12.17a.79.79,0,0,1,.56-1A7.09,7.09,0,0,1,424.68,443.67ZM420,450.53A5.5,5.5,0,0,0,417.21,440Z"/><path class="cls-11" d="M393.89,471.67l17.4-4.56a15.53,15.53,0,0,0,10-8.28l-1.91-7.28-3.19-12.17-1.91-7.28a15.5,15.5,0,0,0-12.82-2.29l-17.4,4.57Z"/><path class="cls-10" d="M415.09,431.9l7,26.73a.8.8,0,0,1-.05.55,16.33,16.33,0,0,1-10.56,8.69l-17.4,4.56a.79.79,0,0,1-1-.56l-9.78-37.29a.78.78,0,0,1,.56-1l17.4-4.57a16.33,16.33,0,0,1,13.46,2.4A.8.8,0,0,1,415.09,431.9Zm5.41,26.85-6.86-26.17a14.77,14.77,0,0,0-11.93-2l-16.64,4.37,9.39,35.77,16.63-4.36A14.73,14.73,0,0,0,420.5,458.75Z"/><path class="cls-10" d="M392.46,429s0,0,0,.07l7.79,44.1a.79.79,0,0,1-1.55.28l-7.79-44.11a.79.79,0,0,1,1.54-.34Z"/><path class="cls-10" d="M400.29,427s0,.05,0,.07l7.79,44.1a.79.79,0,0,1-1.55.27l-7.79-44.1a.79.79,0,0,1,1.54-.34Z"/></g><path class="cls-2" d="M563.38,490.22A36.37,36.37,0,0,0,560.9,486L566,474.6a45.62,45.62,0,0,0-18.12-12l-8.53,9.15a34.45,34.45,0,0,0-9.73-.63l-7.32-10.14A46.52,46.52,0,0,0,512,464.6a45.76,45.76,0,0,0-9.16,6l3.67,12a34.7,34.7,0,0,0-5.4,8.12L488.66,492a45.53,45.53,0,0,0-1.38,21.72l12.19,2.82a35.57,35.57,0,0,0,1.86,4.52,33.23,33.23,0,0,0,2.48,4.21l-5.14,11.41a45.59,45.59,0,0,0,18.14,12l8.52-9.14a35.22,35.22,0,0,0,9.73.62l7.32,10.14a45.47,45.47,0,0,0,19.48-9.67l-3.65-12a34.91,34.91,0,0,0,5.4-8.12L576,519.27a45.77,45.77,0,0,0,1.38-21.72l-12.18-2.81A38.06,38.06,0,0,0,563.38,490.22Zm-21.12,35.37a22.3,22.3,0,1,1,10.07-29.88A22.28,22.28,0,0,1,542.26,525.59Z"/><path class="cls-3" d="M542.38,552a1.71,1.71,0,0,1-1.38-.7l-6.76-9.39a36.64,36.64,0,0,1-8.3-.53l-7.89,8.46a1.7,1.7,0,0,1-1.82.44,47.64,47.64,0,0,1-18.81-12.48,1.7,1.7,0,0,1-.3-1.85l4.75-10.55a36.26,36.26,0,0,1-2.07-3.62,37.65,37.65,0,0,1-1.63-3.83l-11.28-2.61A1.69,1.69,0,0,1,485.6,514,47.53,47.53,0,0,1,487,491.45a1.73,1.73,0,0,1,1.45-1.18L500,489.1a35.94,35.94,0,0,1,4.61-6.92l-3.39-11.07a1.7,1.7,0,0,1,.52-1.79,47.58,47.58,0,0,1,20.21-10,1.7,1.7,0,0,1,1.76.67l6.76,9.38a36.66,36.66,0,0,1,8.31.53l7.89-8.46a1.71,1.71,0,0,1,1.82-.44,47.63,47.63,0,0,1,18.8,12.49,1.7,1.7,0,0,1,.29,1.84l-4.74,10.56a35.16,35.16,0,0,1,2.07,3.62,37.78,37.78,0,0,1,1.63,3.82l11.27,2.61a1.69,1.69,0,0,1,1.3,1.35,47.65,47.65,0,0,1-1.44,22.53,1.69,1.69,0,0,1-1.45,1.18l-11.5,1.17a36.59,36.59,0,0,1-4.6,6.93l3.38,11.07a1.69,1.69,0,0,1-.53,1.79,47.26,47.26,0,0,1-20.21,10A1.61,1.61,0,0,1,542.38,552Zm-7.32-13.54a1.7,1.7,0,0,1,1.38.7l6.65,9.22a43.66,43.66,0,0,0,8.86-3.25,44.46,44.46,0,0,0,8-5.09l-3.33-10.87a1.7,1.7,0,0,1,.36-1.63,33.26,33.26,0,0,0,5.13-7.72,1.7,1.7,0,0,1,1.36-1l11.31-1.16A44.27,44.27,0,0,0,575.93,499l-11.07-2.56a1.69,1.69,0,0,1-1.23-1.11,36.85,36.85,0,0,0-1.78-4.31,32.45,32.45,0,0,0-2.36-4,1.7,1.7,0,0,1-.14-1.65L564,474.94a44.14,44.14,0,0,0-15.64-10.39l-7.76,8.32a1.69,1.69,0,0,1-1.59.5,33,33,0,0,0-9.26-.59,1.69,1.69,0,0,1-1.5-.7l-6.65-9.22a44.29,44.29,0,0,0-16.82,8.34l3.33,10.88a1.7,1.7,0,0,1-.36,1.63,33,33,0,0,0-5.13,7.72,1.7,1.7,0,0,1-1.36,1L490,493.54a43.8,43.8,0,0,0-1.2,18.74l11.08,2.56a1.68,1.68,0,0,1,1.23,1.12,33.92,33.92,0,0,0,1.77,4.3,32.61,32.61,0,0,0,2.36,4,1.72,1.72,0,0,1,.15,1.66l-4.67,10.37a44.16,44.16,0,0,0,15.65,10.38l7.75-8.31a1.69,1.69,0,0,1,1.59-.51,33,33,0,0,0,9.25.59Zm-2.69-8.83A24,24,0,1,1,543,527.11,23.86,23.86,0,0,1,532.37,529.62Zm0-44.6a20.6,20.6,0,1,0,9.17,39.05A20.6,20.6,0,0,0,532.33,485Z"/><path class="cls-4" d="M522.44,485.64a22.3,22.3,0,1,0,29.89,10.07A22.3,22.3,0,0,0,522.44,485.64Z"/><path class="cls-4" d="M532.37,529.62h0A24,24,0,1,1,543,527.11,23.86,23.86,0,0,1,532.37,529.62Zm0-44.6a20.6,20.6,0,1,0,9.17,39.05A20.6,20.6,0,0,0,532.33,485Z"/><path class="cls-2" d="M334.52,262.7a35.54,35.54,0,0,0-2.48-4.21l5.12-11.41A45.51,45.51,0,0,0,319,235l-8.53,9.15a34.45,34.45,0,0,0-9.73-.63l-7.32-10.14A45.74,45.74,0,0,0,274,243.09l3.67,12a34.7,34.7,0,0,0-5.4,8.12l-12.44,1.26a45.53,45.53,0,0,0-1.38,21.72L270.61,289a34.41,34.41,0,0,0,1.86,4.52,32.66,32.66,0,0,0,2.48,4.22l-5.14,11.41a45.59,45.59,0,0,0,18.14,12l8.53-9.15a34.75,34.75,0,0,0,9.72.63l7.32,10.14A45.47,45.47,0,0,0,333,313.1l-3.65-12a34.76,34.76,0,0,0,5.4-8.13l12.43-1.26A45.78,45.78,0,0,0,348.56,270l-12.18-2.81A37.39,37.39,0,0,0,334.52,262.7ZM313.4,298.07a22.3,22.3,0,1,1,10.07-29.88A22.28,22.28,0,0,1,313.4,298.07Z"/><path class="cls-3" d="M313.52,324.47a1.7,1.7,0,0,1-1.38-.71l-6.76-9.38a36.64,36.64,0,0,1-8.3-.53l-7.89,8.46a1.7,1.7,0,0,1-1.82.44,47.64,47.64,0,0,1-18.81-12.48,1.7,1.7,0,0,1-.3-1.85L273,297.87a35.61,35.61,0,0,1-3.7-7.45L258,287.81a1.69,1.69,0,0,1-1.29-1.35,47.53,47.53,0,0,1,1.44-22.53,1.71,1.71,0,0,1,1.45-1.18l11.5-1.17a36.32,36.32,0,0,1,4.61-6.93l-3.39-11.06a1.7,1.7,0,0,1,.52-1.79,47.58,47.58,0,0,1,20.21-10,1.7,1.7,0,0,1,1.76.67l6.76,9.38a35.51,35.51,0,0,1,8.31.53l7.89-8.46a1.7,1.7,0,0,1,1.82-.44,47.63,47.63,0,0,1,18.8,12.49,1.7,1.7,0,0,1,.29,1.84L334,258.33a36.13,36.13,0,0,1,2.07,3.61,38.94,38.94,0,0,1,1.63,3.83l11.27,2.61a1.69,1.69,0,0,1,1.3,1.35,47.6,47.6,0,0,1-1.44,22.52,1.7,1.7,0,0,1-1.45,1.19l-11.5,1.17a36.59,36.59,0,0,1-4.6,6.93l3.38,11.06a1.71,1.71,0,0,1-.53,1.8,47.26,47.26,0,0,1-20.21,10A1.55,1.55,0,0,1,313.52,324.47Zm-7.32-13.54a1.7,1.7,0,0,1,1.38.7l6.65,9.22a43.91,43.91,0,0,0,16.82-8.34l-3.33-10.88a1.69,1.69,0,0,1,.36-1.62,33.11,33.11,0,0,0,5.13-7.73,1.72,1.72,0,0,1,1.36-1l11.31-1.15a44.27,44.27,0,0,0,1.19-18.74L336,268.87a1.69,1.69,0,0,1-1.23-1.11,36.15,36.15,0,0,0-1.78-4.31,32.45,32.45,0,0,0-2.36-4,1.7,1.7,0,0,1-.14-1.65l4.66-10.37A44.14,44.14,0,0,0,319.51,237l-7.76,8.31a1.67,1.67,0,0,1-1.59.51,33,33,0,0,0-9.26-.59,1.71,1.71,0,0,1-1.5-.7l-6.65-9.22a43.78,43.78,0,0,0-8.86,3.27,43.28,43.28,0,0,0-8,5.07l3.33,10.88a1.7,1.7,0,0,1-.36,1.63,33,33,0,0,0-5.13,7.72,1.7,1.7,0,0,1-1.36,1L261.11,266a43.8,43.8,0,0,0-1.2,18.74L271,287.32a1.69,1.69,0,0,1,1.23,1.11,33.47,33.47,0,0,0,1.77,4.31,32.5,32.5,0,0,0,2.36,4,1.73,1.73,0,0,1,.15,1.66l-4.67,10.38a44.16,44.16,0,0,0,15.65,10.38l7.75-8.31a1.69,1.69,0,0,1,1.59-.51,33,33,0,0,0,9.25.59Zm-2.69-8.83a24,24,0,1,1,10.64-2.51A23.86,23.86,0,0,1,303.51,302.1Zm0-44.61a20.6,20.6,0,1,0,18.47,11.45A20.53,20.53,0,0,0,303.47,257.49Z"/><path class="cls-4" d="M293.58,258.12a22.3,22.3,0,1,0,29.89,10.07A22.3,22.3,0,0,0,293.58,258.12Z"/><path class="cls-4" d="M303.51,302.1h0a24,24,0,1,1,10.64-2.51A23.86,23.86,0,0,1,303.51,302.1Zm0-44.61a20.6,20.6,0,1,0,18.47,11.45A20.53,20.53,0,0,0,303.47,257.49Z"/><g class="cls-5"><polygon class="cls-6" points="755.59 275 847.73 203.72 881.95 247.94 835.42 283.94 848.42 300.74 809.99 303.61 789.8 319.23 755.59 275"/><polyline class="cls-7" points="840.77 258.6 846.36 240.08 827.03 240.84"/><polyline class="cls-7" points="792.2 267.79 786.61 286.3 805.93 285.55"/><line class="cls-7" x1="816.45" y1="245.25" x2="818.87" y2="279.75"/></g><path class="cls-2" d="M315,71.7a35,35,0,0,0-2.48-4.21l5.13-11.41a45.79,45.79,0,0,0-18.12-12L291,53.19a34.4,34.4,0,0,0-9.73-.63L274,42.42a46.23,46.23,0,0,0-10.33,3.67,45,45,0,0,0-9.15,6l3.66,12a34.91,34.91,0,0,0-5.4,8.12L240.3,73.45a45.48,45.48,0,0,0-1.39,21.71L251.1,98a34.45,34.45,0,0,0,4.34,8.73l-5.13,11.41a45.63,45.63,0,0,0,18.13,12L277,121a35.17,35.17,0,0,0,9.73.62L294,131.77a45.44,45.44,0,0,0,19.49-9.67l-3.66-12a34.91,34.91,0,0,0,5.4-8.12l12.43-1.27A45.77,45.77,0,0,0,329.06,79l-12.19-2.81A37.1,37.1,0,0,0,315,71.7Zm-21.12,35.37A22.29,22.29,0,1,1,304,77.19,22.27,22.27,0,0,1,293.89,107.07Z"/><path class="cls-3" d="M294,133.47a1.7,1.7,0,0,1-1.38-.7l-6.76-9.39a36.08,36.08,0,0,1-8.3-.53l-7.89,8.46a1.67,1.67,0,0,1-1.82.44,47.61,47.61,0,0,1-18.8-12.48,1.69,1.69,0,0,1-.3-1.84l4.75-10.56a36.35,36.35,0,0,1-2.08-3.62,37.61,37.61,0,0,1-1.62-3.83l-11.28-2.61a1.69,1.69,0,0,1-1.29-1.35,47.35,47.35,0,0,1,1.44-22.52,1.7,1.7,0,0,1,1.45-1.19l11.49-1.17a36.72,36.72,0,0,1,4.61-6.92l-3.39-11.07a1.69,1.69,0,0,1,.53-1.79,47.51,47.51,0,0,1,9.5-6.24,48.4,48.4,0,0,1,10.71-3.8,1.73,1.73,0,0,1,1.75.67l6.77,9.38a36.53,36.53,0,0,1,8.3.53l7.89-8.46a1.72,1.72,0,0,1,1.82-.44,47.63,47.63,0,0,1,18.8,12.49,1.7,1.7,0,0,1,.3,1.85l-4.74,10.55A38.33,38.33,0,0,1,316.54,71a40.13,40.13,0,0,1,1.62,3.82l11.28,2.61a1.69,1.69,0,0,1,1.29,1.36,47.61,47.61,0,0,1-1.43,22.52,1.71,1.71,0,0,1-1.45,1.18l-11.5,1.17a37,37,0,0,1-4.61,6.94l3.38,11.06a1.69,1.69,0,0,1-.53,1.79,47.26,47.26,0,0,1-20.21,10A1.5,1.5,0,0,1,294,133.47Zm-7.31-13.54a1.71,1.71,0,0,1,1.38.7l6.64,9.23a43.74,43.74,0,0,0,16.82-8.35l-3.32-10.87a1.7,1.7,0,0,1,.35-1.63,33.3,33.3,0,0,0,5.14-7.72,1.68,1.68,0,0,1,1.36-1l11.3-1.15a44.33,44.33,0,0,0,1.2-18.75l-11.08-2.55a1.72,1.72,0,0,1-1.23-1.12,35.14,35.14,0,0,0-1.77-4.31,34.22,34.22,0,0,0-2.36-4,1.7,1.7,0,0,1-.15-1.66l4.66-10.37A44.14,44.14,0,0,0,300,46l-7.76,8.32a1.68,1.68,0,0,1-1.59.5,32.91,32.91,0,0,0-9.25-.59,1.69,1.69,0,0,1-1.51-.7l-6.65-9.22a44.12,44.12,0,0,0-16.82,8.35l3.33,10.87a1.69,1.69,0,0,1-.35,1.63,33.15,33.15,0,0,0-5.14,7.73,1.69,1.69,0,0,1-1.36,1L241.6,75a44.11,44.11,0,0,0-1.2,18.74l11.09,2.56a1.68,1.68,0,0,1,1.22,1.12,35.46,35.46,0,0,0,1.77,4.3,32.61,32.61,0,0,0,2.36,4,1.7,1.7,0,0,1,.15,1.66l-4.67,10.37A44.25,44.25,0,0,0,268,128.16l7.76-8.31a1.7,1.7,0,0,1,1.58-.51,32.7,32.7,0,0,0,9.26.59ZM284,111.1a24,24,0,1,1,10.65-2.51A23.84,23.84,0,0,1,284,111.1Zm0-44.6a20.6,20.6,0,1,0,9.17,39.05,20.6,20.6,0,0,0-9.17-39Z"/><path class="cls-4" d="M274.07,67.13A22.29,22.29,0,1,0,304,77.19,22.28,22.28,0,0,0,274.07,67.13Z"/><path class="cls-4" d="M284,111.1h0a24,24,0,1,1,10.65-2.51A23.84,23.84,0,0,1,284,111.1Zm0-44.6a20.6,20.6,0,1,0,9.17,39.05,20.6,20.6,0,0,0-9.17-39Z"/><g class="cls-8"><path class="cls-9" d="M907,410.71l-9.53-5.26-18.19,32.92,9.52,5.27c10.54,6.25,15.7,15.6,17.06,21.87a47.68,47.68,0,1,0,28.74-52C926.5,417.21,917.94,416.31,907,410.71Z"/><path class="cls-10" d="M878.62,438l18.19-32.92a.79.79,0,0,1,1.07-.31l9.53,5.26c10.71,5.5,19,6.36,26.89,2.77a48.45,48.45,0,1,1-29.19,52.85c-1.37-6.32-6.47-15.27-16.68-21.33l-9.5-5.25A.79.79,0,0,1,878.62,438Zm19.19-31.48-17.43,31.56,8.83,4.88c10.67,6.32,16,15.71,17.45,22.39a46.89,46.89,0,1,0,28.27-51.11c-8.34,3.8-17.06,2.93-28.26-2.82Z"/><path class="cls-11" d="M888.4,421.91l64.67,35.73"/><path class="cls-10" d="M887.71,421.53a.79.79,0,0,1,1.07-.31L953.46,457a.79.79,0,0,1-.77,1.38L888,422.6A.79.79,0,0,1,887.71,421.53Z"/><line class="cls-11" x1="948.36" y1="432.97" x2="929.68" y2="466.79"/><path class="cls-10" d="M929,466.41l18.68-33.82a.79.79,0,0,1,1.38.76l-18.68,33.82a.79.79,0,0,1-1.38-.76Z"/><polygon class="cls-12" points="931.51 463.46 915.49 436.88 946.52 436.3 931.51 463.46"/><path class="cls-10" d="M914.8,436.5a.81.81,0,0,1,.68-.41l31-.58a.78.78,0,0,1,.69.38.8.8,0,0,1,0,.79l-15,27.16a.77.77,0,0,1-.67.4.79.79,0,0,1-.69-.38l-16-26.58A.78.78,0,0,1,914.8,436.5Zm30.37.61-28.3.53,14.62,24.24Z"/><rect class="cls-11" x="861.16" y="414.72" width="45.99" height="9.7" transform="translate(89.34 990.57) rotate(-61.08)"/><path class="cls-10" d="M868.11,437l22.23-40.25a.79.79,0,0,1,1.07-.31l8.49,4.69a.79.79,0,0,1,.31,1.07L878,442.42a.79.79,0,0,1-1.07.31L868.41,438A.79.79,0,0,1,868.11,437Zm23.23-38.81L869.86,437,877,441l21.48-38.88Z"/><path class="cls-11" d="M848.32,399.77a6.29,6.29,0,0,0,2.46,8.54l6.09-11A6.3,6.3,0,0,0,848.32,399.77Z"/><path class="cls-10" d="M847.63,399.39a7.08,7.08,0,0,1,9.62-2.77.78.78,0,0,1,.31,1.06l-6.09,11a.79.79,0,0,1-1.07.31A7.09,7.09,0,0,1,847.63,399.39Zm8.14-1.73a5.51,5.51,0,0,0-5.27,9.54Z"/><path class="cls-11" d="M889.24,400.35l-15.74-8.7a15.52,15.52,0,0,0-13-.94l-3.64,6.59-6.09,11-3.64,6.6a15.54,15.54,0,0,0,7.71,10.49l15.74,8.7Z"/><path class="cls-10" d="M846.46,414.53l13.36-24.2a.78.78,0,0,1,.41-.35,16.31,16.31,0,0,1,13.65,1l15.74,8.7a.79.79,0,0,1,.3,1.07l-18.64,33.75a.79.79,0,0,1-1.07.3l-15.74-8.69a16.35,16.35,0,0,1-8.1-11A.76.76,0,0,1,846.46,414.53Zm14.59-23.18L848,415a14.77,14.77,0,0,0,7.26,9.68l15,8.32,17.89-32.38-15-8.31A14.77,14.77,0,0,0,861.05,391.35Z"/><path class="cls-10" d="M860.87,432.2l0-.06,24.78-37.3a.79.79,0,0,1,1.09-.22.8.8,0,0,1,.22,1.09L862.21,433a.78.78,0,0,1-1.34-.81Z"/><path class="cls-10" d="M853.79,428.29l0-.06,24.79-37.3a.79.79,0,0,1,1.09-.22.81.81,0,0,1,.22,1.09l-24.79,37.3a.78.78,0,0,1-1.34-.81Z"/></g><path class="cls-2" d="M786.62,464a36.37,36.37,0,0,0-2.48-4.21l5.12-11.41a45.62,45.62,0,0,0-18.12-12l-8.53,9.15a34.43,34.43,0,0,0-9.73-.63l-7.32-10.14a46.06,46.06,0,0,0-10.33,3.67,45.29,45.29,0,0,0-9.16,6l3.67,12a34.91,34.91,0,0,0-5.4,8.12l-12.44,1.27a45.6,45.6,0,0,0-1.38,21.71l12.19,2.82a35.57,35.57,0,0,0,1.86,4.52,33.23,33.23,0,0,0,2.48,4.21l-5.14,11.41a45.66,45.66,0,0,0,18.14,12l8.53-9.14a35.17,35.17,0,0,0,9.73.62l7.31,10.14a45.57,45.57,0,0,0,10.32-3.65,44.92,44.92,0,0,0,9.16-6l-3.65-12a34.91,34.91,0,0,0,5.4-8.12l12.43-1.27a45.64,45.64,0,0,0,1.38-21.72l-12.18-2.81A38.77,38.77,0,0,0,786.62,464ZM765.5,499.41a22.29,22.29,0,1,1,10.07-29.88A22.28,22.28,0,0,1,765.5,499.41Z"/><path class="cls-3" d="M765.62,525.81a1.71,1.71,0,0,1-1.38-.7l-6.76-9.39a36.08,36.08,0,0,1-8.3-.53l-7.89,8.46a1.68,1.68,0,0,1-1.82.44,47.64,47.64,0,0,1-18.81-12.48,1.7,1.7,0,0,1-.3-1.84l4.75-10.56a36.26,36.26,0,0,1-2.07-3.62,37.65,37.65,0,0,1-1.63-3.83l-11.28-2.61a1.67,1.67,0,0,1-1.28-1.35,47.35,47.35,0,0,1,1.43-22.52,1.72,1.72,0,0,1,1.45-1.19l11.5-1.17a36.72,36.72,0,0,1,4.61-6.92l-3.39-11.07a1.69,1.69,0,0,1,.53-1.79,47.51,47.51,0,0,1,9.5-6.24,48.32,48.32,0,0,1,10.7-3.8,1.73,1.73,0,0,1,1.76.67l6.77,9.38a36.57,36.57,0,0,1,8.3.53l7.89-8.46a1.72,1.72,0,0,1,1.82-.44,47.63,47.63,0,0,1,18.8,12.49,1.7,1.7,0,0,1,.29,1.85l-4.74,10.55a36.25,36.25,0,0,1,2.07,3.62,37.78,37.78,0,0,1,1.63,3.82l11.28,2.61a1.69,1.69,0,0,1,1.29,1.36,47.62,47.62,0,0,1-1.44,22.52,1.69,1.69,0,0,1-1.45,1.18L788,496a37,37,0,0,1-4.6,6.94L786.73,514a1.69,1.69,0,0,1-.53,1.79,47.26,47.26,0,0,1-20.21,10A1.55,1.55,0,0,1,765.62,525.81Zm-7.31-13.54a1.7,1.7,0,0,1,1.37.7l6.65,9.23a43.74,43.74,0,0,0,16.82-8.35L779.82,503a1.7,1.7,0,0,1,.36-1.63,33.26,33.26,0,0,0,5.13-7.72,1.7,1.7,0,0,1,1.36-1L798,491.52a44.33,44.33,0,0,0,1.19-18.75l-11.07-2.55a1.72,1.72,0,0,1-1.23-1.12,36.85,36.85,0,0,0-1.78-4.31,31.63,31.63,0,0,0-2.36-4,1.72,1.72,0,0,1-.14-1.66l4.66-10.37a44.14,44.14,0,0,0-15.64-10.39l-7.76,8.32a1.69,1.69,0,0,1-1.59.5,32.93,32.93,0,0,0-9.25-.59,1.69,1.69,0,0,1-1.51-.7l-6.65-9.22A43.78,43.78,0,0,0,736,440a43.33,43.33,0,0,0-8,5.08l3.33,10.87a1.7,1.7,0,0,1-.36,1.63,33.11,33.11,0,0,0-5.13,7.73,1.71,1.71,0,0,1-1.36.95l-11.3,1.15A44,44,0,0,0,712,486.1l11.08,2.56a1.7,1.7,0,0,1,1.23,1.12,33.92,33.92,0,0,0,1.77,4.3,32.61,32.61,0,0,0,2.36,4,1.73,1.73,0,0,1,.15,1.66l-4.67,10.37a44.16,44.16,0,0,0,15.65,10.38l7.75-8.31a1.71,1.71,0,0,1,1.59-.51,32.63,32.63,0,0,0,9.25.59Zm-2.7-8.83a24,24,0,1,1,10.64-2.51A23.87,23.87,0,0,1,755.61,503.44Zm0-44.6a20.6,20.6,0,1,0,9.17,39.05,20.6,20.6,0,0,0-9.17-39.05Z"/><path class="cls-4" d="M745.68,459.47a22.29,22.29,0,1,0,29.89,10.06A22.28,22.28,0,0,0,745.68,459.47Z"/><path class="cls-4" d="M755.61,503.44h0a24,24,0,1,1,10.64-2.51A23.87,23.87,0,0,1,755.61,503.44Zm0-44.6a20.6,20.6,0,1,0,9.17,39.05,20.6,20.6,0,0,0-9.17-39.05Z"/><g class="cls-13"><rect class="cls-14" x="453.05" y="658.65" width="36" height="144" transform="translate(-296.47 322.43) rotate(-29.18)"/><polyline class="cls-15" points="505.29 794 512.11 806.22 470.21 829.63 428.27 754.54 359.3 793.07"/><rect class="cls-16" x="325.56" y="780.08" width="60" height="29" transform="translate(-342.3 274.23) rotate(-29.18)"/><line class="cls-15" x1="360.72" y1="775.09" x2="369.49" y2="790.81"/><line class="cls-15" x1="349.37" y1="781.43" x2="358.14" y2="797.15"/><line class="cls-15" x1="336.27" y1="788.75" x2="345.05" y2="804.46"/><line class="cls-15" x1="469.08" y1="716.86" x2="474.44" y2="726.47"/><line class="cls-15" x1="478.34" y1="733.45" x2="505.16" y2="781.47"/></g><g class="cls-5"><polygon class="cls-6" points="623.53 694.82 529.65 625.83 562.77 580.77 610.17 615.61 622.75 598.49 636.08 634.65 656.64 649.76 623.53 694.82"/><polyline class="cls-7" points="584.33 617.43 564.99 617.15 571.04 635.52"/><polyline class="cls-7" points="606.53 661.61 625.86 661.89 619.82 643.51"/><line class="cls-7" x1="578.19" y1="644.48" x2="610.69" y2="632.67"/></g><path class="cls-2" d="M817.64,710.51a36.37,36.37,0,0,0-2.48-4.21l5.12-11.41a45.72,45.72,0,0,0-18.12-12L793.63,692a34.43,34.43,0,0,0-9.73-.63l-7.32-10.14a46.06,46.06,0,0,0-10.33,3.67,45.29,45.29,0,0,0-9.16,6l3.67,12a34.91,34.91,0,0,0-5.4,8.12l-12.43,1.27A45.48,45.48,0,0,0,741.54,734l12.19,2.82a35.57,35.57,0,0,0,1.86,4.52,33.23,33.23,0,0,0,2.48,4.21l-5.14,11.41a45.66,45.66,0,0,0,18.14,12l8.53-9.14a35.17,35.17,0,0,0,9.73.62l7.31,10.14A45.57,45.57,0,0,0,807,766.93a44.92,44.92,0,0,0,9.16-6l-3.65-12a34.91,34.91,0,0,0,5.4-8.12l12.43-1.27a45.64,45.64,0,0,0,1.38-21.72L819.5,715A38.77,38.77,0,0,0,817.64,710.51Zm-21.12,35.37A22.29,22.29,0,1,1,806.59,716,22.27,22.27,0,0,1,796.52,745.88Z"/><path class="cls-3" d="M796.64,772.28a1.69,1.69,0,0,1-1.38-.7l-6.76-9.39a36.08,36.08,0,0,1-8.3-.53l-7.89,8.46a1.68,1.68,0,0,1-1.82.44,47.64,47.64,0,0,1-18.81-12.48,1.7,1.7,0,0,1-.3-1.84l4.75-10.56a36.26,36.26,0,0,1-2.07-3.62,37.65,37.65,0,0,1-1.63-3.83l-11.28-2.61a1.67,1.67,0,0,1-1.28-1.35,47.35,47.35,0,0,1,1.43-22.52,1.72,1.72,0,0,1,1.45-1.19l11.5-1.17a36.72,36.72,0,0,1,4.61-6.92l-3.39-11.07a1.69,1.69,0,0,1,.53-1.79,47.51,47.51,0,0,1,9.5-6.24,48.83,48.83,0,0,1,10.7-3.8,1.73,1.73,0,0,1,1.76.67l6.77,9.38a36.57,36.57,0,0,1,8.3.53l7.89-8.46a1.72,1.72,0,0,1,1.82-.44,47.63,47.63,0,0,1,18.8,12.49,1.7,1.7,0,0,1,.29,1.85l-4.74,10.55a36.25,36.25,0,0,1,2.07,3.62,37.78,37.78,0,0,1,1.63,3.82l11.28,2.61a1.69,1.69,0,0,1,1.29,1.36,47.61,47.61,0,0,1-1.44,22.52,1.69,1.69,0,0,1-1.45,1.18L819,742.42a36.5,36.5,0,0,1-4.6,6.94l3.38,11.06a1.69,1.69,0,0,1-.53,1.79,47.26,47.26,0,0,1-20.21,10A1.55,1.55,0,0,1,796.64,772.28Zm-7.31-13.54a1.73,1.73,0,0,1,1.38.7l6.64,9.23a43.74,43.74,0,0,0,16.82-8.35l-3.33-10.87a1.7,1.7,0,0,1,.36-1.63,33.26,33.26,0,0,0,5.13-7.72,1.7,1.7,0,0,1,1.36-1L829,738a44.33,44.33,0,0,0,1.19-18.75l-11.07-2.55a1.72,1.72,0,0,1-1.23-1.12,36.85,36.85,0,0,0-1.78-4.31,31.63,31.63,0,0,0-2.36-4,1.72,1.72,0,0,1-.14-1.66l4.66-10.37a44.14,44.14,0,0,0-15.64-10.39l-7.76,8.32a1.68,1.68,0,0,1-1.59.5,32.93,32.93,0,0,0-9.25-.59,1.69,1.69,0,0,1-1.51-.7l-6.65-9.22a43.78,43.78,0,0,0-8.86,3.27,43.33,43.33,0,0,0-8,5.08l3.33,10.87A1.7,1.7,0,0,1,762,704a33.11,33.11,0,0,0-5.13,7.73,1.71,1.71,0,0,1-1.36.95l-11.3,1.15a44,44,0,0,0-1.2,18.74l11.08,2.56a1.7,1.7,0,0,1,1.23,1.12,33.92,33.92,0,0,0,1.77,4.3,32.61,32.61,0,0,0,2.36,4,1.73,1.73,0,0,1,.15,1.66L755,756.59A44.25,44.25,0,0,0,770.6,767l7.75-8.31a1.71,1.71,0,0,1,1.59-.51,32.63,32.63,0,0,0,9.25.59Zm-2.7-8.83a24,24,0,1,1,10.64-2.51A23.87,23.87,0,0,1,786.63,749.91Zm0-44.6a20.6,20.6,0,1,0,9.17,39.05,20.6,20.6,0,0,0-9.17-39.05Z"/><path class="cls-4" d="M776.7,705.94A22.29,22.29,0,1,0,806.59,716,22.28,22.28,0,0,0,776.7,705.94Z"/><path class="cls-4" d="M786.63,749.91h0a24,24,0,1,1,10.64-2.51A23.87,23.87,0,0,1,786.63,749.91Zm0-44.6a20.6,20.6,0,1,0,9.17,39.05,20.6,20.6,0,0,0-9.17-39.05Z"/><g class="cls-5"><polygon class="cls-6" points="91.01 452.21 162.93 360.56 206.92 395.07 170.6 441.35 187.31 454.47 150.75 466.65 135 486.73 91.01 452.21"/><polyline class="cls-7" points="169.59 415.47 170.48 396.15 151.93 401.61"/><polyline class="cls-7" points="124.74 436.26 123.85 455.58 142.4 450.12"/><line class="cls-7" x1="142.75" y1="408.48" x2="153.53" y2="441.34"/></g><g class="cls-5"><polygon class="cls-6" points="1011.95 652.24 898.01 676.53 886.35 621.85 943.88 609.58 939.45 588.8 975.32 602.87 1000.29 597.55 1011.95 652.24"/><polyline class="cls-7" points="928.08 630.1 915.01 644.36 932.76 652.05"/><polyline class="cls-7" points="975.83 642.87 988.89 628.61 971.15 620.91"/><line class="cls-7" x1="944.21" y1="652.66" x2="956.98" y2="620.52"/></g><g class="cls-13"><rect class="cls-14" x="1110.13" y="578.24" width="36" height="144" transform="translate(-122.55 287.92) rotate(-13.8)"/><polyline class="cls-15" points="1111.93 580.08 1108.59 566.48 1155.2 555.03 1175.72 638.55 1252.44 619.7"/><rect class="cls-16" x="1226.44" y="604.73" width="60" height="29" transform="translate(-111.45 317.63) rotate(-13.8)"/><line class="cls-15" x1="1246.31" y1="636.65" x2="1242.01" y2="619.17"/><line class="cls-15" x1="1258.93" y1="633.55" x2="1254.64" y2="616.07"/><line class="cls-15" x1="1273.5" y1="629.97" x2="1269.2" y2="612.49"/><line class="cls-15" x1="1126.38" y1="664.06" x2="1123.76" y2="653.37"/><line class="cls-15" x1="1121.85" y1="645.6" x2="1108.73" y2="592.19"/></g><path class="cls-2" d="M1058.53,287.08a35,35,0,0,0-2.48-4.21l5.13-11.41a45.79,45.79,0,0,0-18.12-12l-8.54,9.15a34.4,34.4,0,0,0-9.73-.62l-7.32-10.15a46.23,46.23,0,0,0-10.33,3.67,45.29,45.29,0,0,0-9.16,6l3.67,12a34.91,34.91,0,0,0-5.4,8.12l-12.43,1.27a45.48,45.48,0,0,0-1.39,21.71l12.19,2.82a34.45,34.45,0,0,0,4.34,8.73l-5.13,11.41a45.63,45.63,0,0,0,18.13,12l8.53-9.14a34.42,34.42,0,0,0,9.73.62l7.31,10.14a45.44,45.44,0,0,0,19.49-9.67l-3.66-12a34.91,34.91,0,0,0,5.4-8.12l12.43-1.27a45.76,45.76,0,0,0,1.39-21.72l-12.19-2.81A37.1,37.1,0,0,0,1058.53,287.08Zm-21.12,35.37a22.29,22.29,0,1,1,10.07-29.88A22.27,22.27,0,0,1,1037.41,322.45Z"/><path class="cls-3" d="M1037.53,348.85a1.7,1.7,0,0,1-1.38-.7l-6.76-9.39a36.64,36.64,0,0,1-8.3-.52l-7.89,8.45a1.67,1.67,0,0,1-1.82.44,47.59,47.59,0,0,1-18.8-12.47,1.7,1.7,0,0,1-.3-1.85L997,322.25a36.35,36.35,0,0,1-2.08-3.62,37.61,37.61,0,0,1-1.62-3.83l-11.28-2.6a1.72,1.72,0,0,1-1.29-1.36,47.35,47.35,0,0,1,1.44-22.52,1.69,1.69,0,0,1,1.45-1.18L995.14,286a36.48,36.48,0,0,1,4.61-6.93L996.36,268a1.7,1.7,0,0,1,.53-1.8,47,47,0,0,1,9.5-6.23,47.89,47.89,0,0,1,10.71-3.8,1.7,1.7,0,0,1,1.75.66l6.77,9.38a36.53,36.53,0,0,1,8.3.53l7.89-8.46a1.72,1.72,0,0,1,1.82-.43,47.61,47.61,0,0,1,18.8,12.48,1.7,1.7,0,0,1,.3,1.85L1058,282.71a38.33,38.33,0,0,1,2.07,3.62,39.24,39.24,0,0,1,1.62,3.83l11.28,2.6a1.7,1.7,0,0,1,1.29,1.36,47.6,47.6,0,0,1-1.43,22.52,1.71,1.71,0,0,1-1.45,1.18l-11.5,1.17a36.71,36.71,0,0,1-4.61,6.94l3.38,11.06a1.69,1.69,0,0,1-.53,1.79,47.09,47.09,0,0,1-9.5,6.24,47.66,47.66,0,0,1-10.71,3.79A1.55,1.55,0,0,1,1037.53,348.85Zm-7.31-13.54a1.7,1.7,0,0,1,1.38.71l6.64,9.22a44.07,44.07,0,0,0,8.86-3.26,44.62,44.62,0,0,0,8-5.08L1051.73,326a1.73,1.73,0,0,1,.36-1.63,33.09,33.09,0,0,0,5.14-7.72,1.68,1.68,0,0,1,1.36-1l11.3-1.15a44.32,44.32,0,0,0,1.2-18.75L1060,293.26a1.72,1.72,0,0,1-1.23-1.11,32.33,32.33,0,0,0-4.13-8.32,1.7,1.7,0,0,1-.15-1.66l4.66-10.37a44.28,44.28,0,0,0-15.64-10.39l-7.76,8.32a1.68,1.68,0,0,1-1.59.5,33.28,33.28,0,0,0-9.25-.59,1.69,1.69,0,0,1-1.51-.7l-6.65-9.22a44.62,44.62,0,0,0-8.86,3.27,43.67,43.67,0,0,0-8,5.08l3.33,10.87a1.69,1.69,0,0,1-.35,1.63,33.15,33.15,0,0,0-5.14,7.73,1.69,1.69,0,0,1-1.36.95l-11.3,1.15a44.11,44.11,0,0,0-1.2,18.74L995,311.7a1.68,1.68,0,0,1,1.22,1.12,34.81,34.81,0,0,0,1.77,4.3,32.61,32.61,0,0,0,2.36,4,1.7,1.7,0,0,1,.15,1.66l-4.67,10.37a44.27,44.27,0,0,0,15.65,10.39l7.76-8.32a1.7,1.7,0,0,1,1.58-.51,33.08,33.08,0,0,0,9.26.6Zm-2.7-8.83a24,24,0,1,1,10.65-2.5A23.84,23.84,0,0,1,1027.52,326.48Zm0-44.6a20.6,20.6,0,1,0,9.16,39.05,20.59,20.59,0,0,0-9.16-39.05Z"/><path class="cls-4" d="M1017.59,282.51a22.29,22.29,0,1,0,29.89,10.06A22.28,22.28,0,0,0,1017.59,282.51Z"/><path class="cls-4" d="M1027.52,326.48h0a24,24,0,1,1,10.65-2.5A23.84,23.84,0,0,1,1027.52,326.48Zm0-44.6a20.6,20.6,0,1,0,9.16,39.05,20.59,20.59,0,0,0-9.16-39.05Z"/><g class="cls-8"><path class="cls-17" d="M1124.8,445.25a13.25,13.25,0,1,1,13.25,13.25A13.25,13.25,0,0,1,1124.8,445.25Z"/><path class="cls-17" d="M1054.43,432.88c.27.11.54.21.8.33C1055,433.09,1054.7,433,1054.43,432.88Z"/><path class="cls-17" d="M1056.71,434c.17.11.36.2.54.32C1057.07,434.21,1056.88,434.12,1056.71,434Z"/><path class="cls-17" d="M1052.16,432.24l.76.17Z"/><path class="cls-17" d="M1052.92,458.08l-.76.17Z"/><path class="cls-17" d="M1057.25,456.16c-.18.12-.37.22-.54.32C1056.88,456.38,1057.07,456.28,1057.25,456.16Z"/><path class="cls-17" d="M1059.35,454.35l-2.08,1.8A12.74,12.74,0,0,0,1059.35,454.35Z"/><path class="cls-17" d="M1055.23,457.28c-.26.12-.53.22-.8.32C1054.7,457.5,1055,457.4,1055.23,457.28Z"/><path class="cls-17" d="M1060.28,437.28a13.12,13.12,0,0,0-3-2.94l2.09,1.83A14.26,14.26,0,0,1,1060.28,437.28Z"/><path class="cls-17" d="M1060.08,453.47c.19-.24.41-.47.59-.73h0C1060.49,453,1060.27,453.23,1060.08,453.47Z"/><path class="cls-17" d="M1091.47,458.25l-.75-.17Z"/><path class="cls-17" d="M1084.29,436.14l2.07-1.8A13.17,13.17,0,0,0,1084.29,436.14Z"/><path class="cls-17" d="M1083.55,437c-.2.25-.42.47-.6.73h0C1083.14,437.49,1083.35,437.27,1083.55,437Z"/><path class="cls-17" d="M1089.19,457.6c-.27-.1-.54-.2-.79-.32C1088.65,457.4,1088.92,457.5,1089.19,457.6Z"/><path class="cls-17" d="M1088.4,433.21c.25-.12.52-.22.79-.33C1088.92,433,1088.65,433.09,1088.4,433.21Z"/><path class="cls-17" d="M1090.72,432.41l.75-.17Z"/><path class="cls-17" d="M1083.35,453.22a13.08,13.08,0,0,0,3,2.93l-2.1-1.83A11.8,11.8,0,0,1,1083.35,453.22Z"/><path class="cls-17" d="M1086.38,434.33c.17-.12.36-.21.54-.32C1086.74,434.12,1086.55,434.21,1086.38,434.33Z"/><path class="cls-17" d="M1086.92,456.48a5.89,5.89,0,0,1-.54-.32A5.89,5.89,0,0,0,1086.92,456.48Z"/><path class="cls-17" d="M1049.76,458.5a12.6,12.6,0,0,0,2.4-.25l.76-.17a15.59,15.59,0,0,0,1.51-.48c.27-.1.54-.2.8-.32a12.45,12.45,0,0,0,1.48-.8c.17-.1.36-.2.54-.32h0l2.08-1.8h0c.26-.28.48-.59.73-.88s.41-.47.59-.73h0a15.58,15.58,0,0,1,22.35.07c.1.15.23.27.33.41a11.8,11.8,0,0,0,.91,1.1l2.1,1.83h0a5.89,5.89,0,0,0,.54.32,11.07,11.07,0,0,0,1.48.8c.25.12.52.22.79.32a15.13,15.13,0,0,0,1.53.48l.75.17a12.69,12.69,0,0,0,2.4.25,13.25,13.25,0,0,0,0-26.5,13.56,13.56,0,0,0-2.4.24l-.75.17c-.53.14-1,.29-1.53.47-.27.11-.54.21-.79.33a11.07,11.07,0,0,0-1.48.8c-.18.11-.37.2-.54.32h0l-2.07,1.8h0c-.25.27-.48.58-.72.87s-.41.47-.59.73h0a15.56,15.56,0,0,1-22.34-.07c-.1-.15-.23-.26-.33-.4a14.26,14.26,0,0,0-.92-1.11l-2.09-1.83h0c-.18-.12-.37-.21-.54-.32a12.45,12.45,0,0,0-1.48-.8c-.26-.12-.53-.22-.8-.33-.49-.18-1-.33-1.51-.47l-.76-.17a13.47,13.47,0,0,0-2.4-.24,13.25,13.25,0,1,0,0,26.5Z"/><path class="cls-17" d="M1098.61,432.88c.28.11.54.21.8.33C1099.15,433.09,1098.89,433,1098.61,432.88Z"/><path class="cls-17" d="M1100.89,434c.17.11.37.2.54.32C1101.26,434.21,1101.06,434.12,1100.89,434Z"/><path class="cls-17" d="M1096.35,432.24l.75.17Z"/><path class="cls-17" d="M1097.1,458.08l-.75.17Z"/><path class="cls-17" d="M1101.43,456.16c-.17.12-.37.22-.54.32C1101.06,456.38,1101.26,456.28,1101.43,456.16Z"/><path class="cls-17" d="M1103.53,454.35l-2.09,1.8A12.41,12.41,0,0,0,1103.53,454.35Z"/><path class="cls-17" d="M1099.41,457.28c-.26.12-.52.22-.8.32C1098.89,457.5,1099.15,457.4,1099.41,457.28Z"/><path class="cls-17" d="M1104.46,437.28a13,13,0,0,0-3-2.94l2.11,1.83A12.21,12.21,0,0,1,1104.46,437.28Z"/><path class="cls-17" d="M1104.26,453.47c.19-.24.41-.47.59-.73h0C1104.67,453,1104.45,453.23,1104.26,453.47Z"/><path class="cls-17" d="M1135.65,458.25l-.75-.17Z"/><path class="cls-17" d="M1128.46,436.14l2.09-1.8A12.88,12.88,0,0,0,1128.46,436.14Z"/><path class="cls-17" d="M1127.73,437c-.19.25-.41.47-.6.73h0C1127.32,437.49,1127.54,437.27,1127.73,437Z"/><path class="cls-17" d="M1133.37,457.6c-.26-.1-.53-.2-.78-.32C1132.84,457.4,1133.11,457.5,1133.37,457.6Z"/><path class="cls-17" d="M1132.59,433.21c.25-.12.52-.22.78-.33C1133.11,433,1132.84,433.09,1132.59,433.21Z"/><path class="cls-17" d="M1134.9,432.41l.75-.17Z"/><path class="cls-17" d="M1127.53,453.22a12.93,12.93,0,0,0,3,2.93l-2.11-1.83A13.61,13.61,0,0,1,1127.53,453.22Z"/><path class="cls-17" d="M1130.56,434.33c.17-.12.36-.21.55-.32C1130.92,434.12,1130.73,434.21,1130.56,434.33Z"/><path class="cls-17" d="M1131.11,456.48a4.94,4.94,0,0,1-.55-.32A4.94,4.94,0,0,0,1131.11,456.48Z"/><path class="cls-17" d="M1077.11,455.12c.27.1.54.2.8.32C1077.65,455.32,1077.38,455.22,1077.11,455.12Z"/><path class="cls-17" d="M1079.38,456.24c.18.11.37.2.54.32C1079.75,456.44,1079.56,456.35,1079.38,456.24Z"/><path class="cls-17" d="M1074.84,454.48c.25,0,.5.1.75.16C1075.34,454.58,1075.09,454.52,1074.84,454.48Z"/><path class="cls-17" d="M1075.59,480.31l-.75.17Z"/><path class="cls-17" d="M1079.92,478.39a4.25,4.25,0,0,1-.54.32A4.25,4.25,0,0,0,1079.92,478.39Z"/><path class="cls-17" d="M1082,476.59l-2.08,1.79A13.18,13.18,0,0,0,1082,476.59Z"/><path class="cls-17" d="M1077.91,479.52l-.8.32Z"/><path class="cls-17" d="M1083,459.51a12.69,12.69,0,0,0-3-2.93l2.11,1.82A13.63,13.63,0,0,1,1083,459.51Z"/><path class="cls-17" d="M1082.75,475.71c.2-.25.42-.48.6-.74h0C1083.17,475.24,1083,475.46,1082.75,475.71Z"/><path class="cls-17" d="M1114.15,480.48l-.76-.17Z"/><path class="cls-17" d="M1107,458.37l2.08-1.79A14.15,14.15,0,0,0,1107,458.37Z"/><path class="cls-17" d="M1106.24,459.25a8,8,0,0,0-.6.73h0A8,8,0,0,1,1106.24,459.25Z"/><path class="cls-17" d="M1111.88,479.84c-.28-.11-.55-.21-.8-.32C1111.33,479.63,1111.6,479.73,1111.88,479.84Z"/><path class="cls-17" d="M1111.08,455.44a8.33,8.33,0,0,1,.8-.32A8.33,8.33,0,0,0,1111.08,455.44Z"/><path class="cls-17" d="M1113.39,454.64c.25-.06.5-.12.76-.16C1113.89,454.52,1113.64,454.58,1113.39,454.64Z"/><path class="cls-17" d="M1106,475.45a12.88,12.88,0,0,0,3,2.93l-2.1-1.83A12.07,12.07,0,0,1,1106,475.45Z"/><path class="cls-17" d="M1109.06,456.56c.17-.12.36-.21.54-.32C1109.42,456.35,1109.23,456.44,1109.06,456.56Z"/><path class="cls-17" d="M1109.6,478.71a4.25,4.25,0,0,1-.54-.32A4.25,4.25,0,0,0,1109.6,478.71Z"/><path class="cls-17" d="M1072.43,480.73a12.7,12.7,0,0,0,2.41-.25l.75-.17a14.91,14.91,0,0,0,1.52-.47l.8-.32a13.08,13.08,0,0,0,1.47-.81,4.25,4.25,0,0,0,.54-.32h0l2.08-1.79h0c.27-.27.49-.59.73-.87s.42-.47.6-.74h0a15.57,15.57,0,0,1,22.34.07c.1.15.23.27.34.41a12.07,12.07,0,0,0,.91,1.1l2.1,1.83h0a4.25,4.25,0,0,0,.54.32,14.17,14.17,0,0,0,1.48.81c.25.11.52.21.8.32a14.72,14.72,0,0,0,1.51.47l.76.17a12.6,12.6,0,0,0,2.4.25,13.25,13.25,0,0,0,0-26.5,12.6,12.6,0,0,0-2.4.25c-.26,0-.51.1-.76.16a14.76,14.76,0,0,0-1.51.48,8.33,8.33,0,0,0-.8.32,12.45,12.45,0,0,0-1.48.8c-.18.11-.37.2-.54.32h0v0l-2.08,1.79h0c-.26.27-.49.58-.72.87a8,8,0,0,0-.6.73h0a15.56,15.56,0,0,1-22.34-.07c-.11-.14-.24-.26-.35-.4a13.63,13.63,0,0,0-.9-1.11l-2.11-1.82v0h0c-.17-.12-.36-.21-.54-.32a11.6,11.6,0,0,0-1.47-.8c-.26-.12-.53-.22-.8-.32a14.94,14.94,0,0,0-1.52-.48c-.25-.06-.5-.12-.75-.16a12.7,12.7,0,0,0-2.41-.25,13.25,13.25,0,0,0,0,26.5Z"/><path class="cls-17" d="M1077.11,410.65c.27.11.54.21.8.33C1077.65,410.86,1077.38,410.76,1077.11,410.65Z"/><path class="cls-17" d="M1079.38,411.77c.18.11.37.2.54.32C1079.75,412,1079.56,411.88,1079.38,411.77Z"/><path class="cls-17" d="M1074.84,410l.75.17Z"/><path class="cls-17" d="M1075.59,435.85l-.75.17Z"/><path class="cls-17" d="M1079.92,433.93a5.89,5.89,0,0,1-.54.32A5.89,5.89,0,0,0,1079.92,433.93Z"/><path class="cls-17" d="M1082,432.12l-2.08,1.8A12.74,12.74,0,0,0,1082,432.12Z"/><path class="cls-17" d="M1077.91,435.05c-.26.12-.53.22-.8.32C1077.38,435.27,1077.65,435.17,1077.91,435.05Z"/><path class="cls-17" d="M1083,415.05a12.92,12.92,0,0,0-3-2.94l2.11,1.83A12.11,12.11,0,0,1,1083,415.05Z"/><path class="cls-17" d="M1082.75,431.24c.2-.25.42-.47.6-.73h0C1083.17,430.77,1083,431,1082.75,431.24Z"/><path class="cls-17" d="M1114.15,436l-.76-.17Z"/><path class="cls-17" d="M1107,413.9l2.08-1.79A14.15,14.15,0,0,0,1107,413.9Z"/><path class="cls-17" d="M1106.24,414.79a8,8,0,0,0-.6.73h0A7.89,7.89,0,0,1,1106.24,414.79Z"/><path class="cls-17" d="M1111.88,435.37a8.33,8.33,0,0,1-.8-.32A8.33,8.33,0,0,0,1111.88,435.37Z"/><path class="cls-17" d="M1111.08,411c.25-.12.52-.22.8-.33C1111.6,410.76,1111.33,410.86,1111.08,411Z"/><path class="cls-17" d="M1113.39,410.18l.76-.17Z"/><path class="cls-17" d="M1106,431a12.92,12.92,0,0,0,3,2.94l-2.1-1.83A13.76,13.76,0,0,1,1106,431Z"/><path class="cls-17" d="M1109.06,412.09c.17-.12.36-.21.54-.32C1109.42,411.88,1109.23,412,1109.06,412.09Z"/><path class="cls-17" d="M1109.6,434.25a5.89,5.89,0,0,1-.54-.32A5.89,5.89,0,0,0,1109.6,434.25Z"/><path class="cls-17" d="M1072.43,436.26a12.71,12.71,0,0,0,2.41-.24l.75-.17c.52-.14,1-.3,1.52-.48.27-.1.54-.2.8-.32a11.6,11.6,0,0,0,1.47-.8,5.89,5.89,0,0,0,.54-.32h0l2.08-1.8h0c.27-.28.49-.59.73-.88s.42-.47.6-.73h0a15.57,15.57,0,0,1,22.34.07,4.47,4.47,0,0,0,.34.4,13.76,13.76,0,0,0,.91,1.11l2.1,1.83h0a5.89,5.89,0,0,0,.54.32,12.45,12.45,0,0,0,1.48.8,8.33,8.33,0,0,0,.8.32c.49.18,1,.34,1.51.48l.76.17a12.52,12.52,0,0,0,2.4.24,13.25,13.25,0,1,0-2.4-26.25l-.76.17a14.72,14.72,0,0,0-1.51.47c-.28.11-.55.21-.8.33a14,14,0,0,0-1.48.79c-.18.11-.37.2-.54.32h0v0L1107,413.9h0c-.26.28-.49.58-.72.88a7.89,7.89,0,0,0-.6.72h0a15.57,15.57,0,0,1-22.34-.07c-.11-.15-.24-.27-.35-.4a12.11,12.11,0,0,0-.9-1.11l-2.11-1.83v0h0c-.17-.12-.36-.21-.54-.32a13,13,0,0,0-1.47-.79c-.26-.12-.53-.22-.8-.33a14.91,14.91,0,0,0-1.52-.47l-.75-.17a13.58,13.58,0,0,0-2.41-.24,13.25,13.25,0,0,0,0,26.49Z"/></g><g class="cls-8"><path class="cls-18" d="M1166.54,421.8h3.63v45.33h-3.63Z"/><path class="cls-18" d="M1186.56,444.46A23.25,23.25,0,0,1,1230,432.9l-3.1,1.74a19.65,19.65,0,1,0,0,19.64L1230,456a23.25,23.25,0,0,1-43.44-11.56Z"/><path class="cls-18" d="M1267.1,456.17h-21.16l-3.85,11h-4l16.39-45.33h4l16.39,45.33H1271Zm-1.21-3.47-9.37-26.59-9.37,26.59Z"/><path class="cls-18" d="M1323.31,421.8v45.33h-3.18l-29.31-38.91v38.91h-3.63V421.8h3.18l29.31,38.91V421.8Z"/><path class="cls-18" d="M1397.49,421.8l-13.22,45.33H1376l-10-36.27-9.9,36.27h-8.23l-13.38-45.33h7.86l9.82,34.15,9.67-34.15h8.39l9.74,34.3,9.9-34.3Z"/><path class="cls-18" d="M1415.48,428.52v12.54h16.09v6.8h-16.09V460.4h18.58v6.73h-26V421.8h26v6.72Z"/><path class="cls-18" d="M1481.36,455c0,7.48-5.75,12.17-12.92,12.17H1449V421.8h17.82c7.26,0,13.07,4.83,13.07,12.31a10.56,10.56,0,0,1-6,10.05A11,11,0,0,1,1481.36,455Zm-15.42-26.29h-9.67v12.54h9.67a6.42,6.42,0,0,0,6.5-6.34A6.25,6.25,0,0,0,1465.94,428.67Zm8,25.39a6.43,6.43,0,0,0-6.57-6.35h-11.11v12.54h11.11A6.3,6.3,0,0,0,1474,454.06Z"/></g><path class="cls-2" d="M1452.82,553.64a35.12,35.12,0,0,0-2.48-4.22l5.13-11.4a45.58,45.58,0,0,0-18.12-12l-8.54,9.14a34.77,34.77,0,0,0-9.73-.62l-7.32-10.14a46.2,46.2,0,0,0-10.33,3.66,45.37,45.37,0,0,0-9.15,6l3.66,12a34.7,34.7,0,0,0-5.4,8.12l-12.43,1.26a45.49,45.49,0,0,0-1.39,21.71l12.19,2.82a34.41,34.41,0,0,0,1.86,4.52,35.12,35.12,0,0,0,2.48,4.22l-5.13,11.41a45.73,45.73,0,0,0,18.13,12l8.53-9.15a34.42,34.42,0,0,0,9.73.62l7.31,10.15a45.74,45.74,0,0,0,19.49-9.67l-3.66-12a34.76,34.76,0,0,0,5.4-8.13l12.43-1.26a45.78,45.78,0,0,0,1.39-21.72l-12.19-2.81A35.83,35.83,0,0,0,1452.82,553.64ZM1431.7,589a22.3,22.3,0,1,1,10.07-29.89A22.28,22.28,0,0,1,1431.7,589Z"/><path class="cls-3" d="M1431.82,615.41a1.71,1.71,0,0,1-1.38-.71l-6.76-9.38a36.64,36.64,0,0,1-8.3-.53l-7.89,8.46a1.69,1.69,0,0,1-1.82.44,47.72,47.72,0,0,1-18.8-12.48,1.7,1.7,0,0,1-.3-1.85l4.75-10.55a35.61,35.61,0,0,1-3.7-7.45l-11.28-2.61a1.7,1.7,0,0,1-1.29-1.36,47.36,47.36,0,0,1,1.44-22.52,1.69,1.69,0,0,1,1.45-1.18l11.49-1.17a36.8,36.8,0,0,1,4.61-6.93l-3.39-11.06a1.71,1.71,0,0,1,.53-1.8,47,47,0,0,1,9.5-6.23,47.89,47.89,0,0,1,10.71-3.8,1.7,1.7,0,0,1,1.75.66l6.77,9.38a36,36,0,0,1,8.3.54l7.89-8.46a1.7,1.7,0,0,1,1.82-.44,47.61,47.61,0,0,1,18.8,12.48,1.7,1.7,0,0,1,.3,1.85l-4.74,10.56a38.2,38.2,0,0,1,2.07,3.61,41.43,41.43,0,0,1,1.62,3.83l11.28,2.6a1.72,1.72,0,0,1,1.29,1.36,47.6,47.6,0,0,1-1.43,22.52,1.72,1.72,0,0,1-1.45,1.19l-11.5,1.17a36.64,36.64,0,0,1-4.61,6.93l3.38,11.06a1.71,1.71,0,0,1-.53,1.8,47.26,47.26,0,0,1-20.21,10A2.21,2.21,0,0,1,1431.82,615.41Zm-7.31-13.55a1.7,1.7,0,0,1,1.38.71l6.64,9.22a43.47,43.47,0,0,0,8.86-3.26,44.06,44.06,0,0,0,8-5.08L1446,592.57a1.68,1.68,0,0,1,.35-1.62,33.15,33.15,0,0,0,5.14-7.73,1.7,1.7,0,0,1,1.36-1l11.3-1.15a44.27,44.27,0,0,0,1.2-18.74l-11.08-2.56a1.69,1.69,0,0,1-1.23-1.11,33.89,33.89,0,0,0-1.77-4.31,35.17,35.17,0,0,0-2.36-4,1.68,1.68,0,0,1-.15-1.65l4.66-10.38A44.12,44.12,0,0,0,1437.81,528l-7.76,8.31a1.67,1.67,0,0,1-1.59.51,32.91,32.91,0,0,0-9.25-.6,1.67,1.67,0,0,1-1.51-.7l-6.65-9.21a43.91,43.91,0,0,0-16.82,8.34l3.33,10.88a1.7,1.7,0,0,1-.35,1.63,33.09,33.09,0,0,0-5.14,7.72,1.7,1.7,0,0,1-1.36,1l-11.3,1.15a44.08,44.08,0,0,0-1.2,18.73l11.09,2.57a1.67,1.67,0,0,1,1.22,1.11,35,35,0,0,0,1.77,4.31,32.5,32.5,0,0,0,2.36,4,1.7,1.7,0,0,1,.15,1.66l-4.67,10.38a44.38,44.38,0,0,0,15.65,10.38l7.76-8.32a1.69,1.69,0,0,1,1.58-.5,33.07,33.07,0,0,0,9.26.59Zm-2.7-8.82a24,24,0,1,1,10.65-2.51A23.83,23.83,0,0,1,1421.81,593Zm0-44.61a20.6,20.6,0,1,0,18.47,11.45A20.49,20.49,0,0,0,1421.78,548.43Z"/><path class="cls-4" d="M1411.88,549.06a22.3,22.3,0,1,0,29.89,10.06A22.3,22.3,0,0,0,1411.88,549.06Z"/><path class="cls-4" d="M1421.81,593h0a24,24,0,1,1,10.65-2.51A23.83,23.83,0,0,1,1421.81,593Zm0-44.61a20.6,20.6,0,1,0,18.47,11.45A20.49,20.49,0,0,0,1421.78,548.43Z"/><g class="cls-5"><polygon class="cls-6" points="1162.4 265.64 1278.17 278.67 1271.92 334.23 1213.47 327.66 1211.09 348.76 1181.52 324.06 1156.15 321.21 1162.4 265.64"/><polyline class="cls-7" points="1234.95 313.2 1251.86 303.8 1237.46 290.89"/><polyline class="cls-7" points="1193.7 285.96 1176.79 295.36 1191.19 308.27"/><line class="cls-7" x1="1226.8" y1="286.68" x2="1204.51" y2="313.13"/></g><path class="cls-2" d="M1011.05,113.13a35.12,35.12,0,0,0-2.48-4.22l5.13-11.41a45.63,45.63,0,0,0-18.13-12L987,94.61a34.77,34.77,0,0,0-9.73-.62L970,83.85a46.2,46.2,0,0,0-10.33,3.66,45.72,45.72,0,0,0-9.16,6l3.67,12a35,35,0,0,0-5.4,8.13l-12.43,1.26A45.49,45.49,0,0,0,935,136.58l12.19,2.82a35,35,0,0,0,1.86,4.52,32.54,32.54,0,0,0,2.48,4.21l-5.13,11.42a45.73,45.73,0,0,0,18.13,12l8.53-9.15a34.42,34.42,0,0,0,9.73.62l7.31,10.15a45.74,45.74,0,0,0,19.49-9.67l-3.66-12a35,35,0,0,0,5.4-8.13l12.43-1.27a45.73,45.73,0,0,0,1.39-21.71l-12.19-2.82A36.32,36.32,0,0,0,1011.05,113.13ZM989.93,148.5A22.3,22.3,0,1,1,1000,118.61,22.28,22.28,0,0,1,989.93,148.5Z"/><path class="cls-3" d="M990.05,174.9a1.7,1.7,0,0,1-1.38-.71l-6.76-9.38a36.64,36.64,0,0,1-8.3-.53l-7.89,8.46a1.69,1.69,0,0,1-1.82.44,47.72,47.72,0,0,1-18.8-12.48,1.68,1.68,0,0,1-.3-1.85l4.74-10.55a39.63,39.63,0,0,1-2.07-3.62,37.79,37.79,0,0,1-1.62-3.84l-11.28-2.6a1.69,1.69,0,0,1-1.29-1.36,47.23,47.23,0,0,1,1.44-22.52,1.69,1.69,0,0,1,1.45-1.18L947.66,112a36.8,36.8,0,0,1,4.61-6.93L948.88,94a1.71,1.71,0,0,1,.53-1.8,47,47,0,0,1,9.5-6.23,47.89,47.89,0,0,1,10.71-3.8,1.7,1.7,0,0,1,1.75.66l6.77,9.38a36.53,36.53,0,0,1,8.3.53l7.89-8.45a1.7,1.7,0,0,1,1.82-.44A47.61,47.61,0,0,1,1015,96.35a1.7,1.7,0,0,1,.3,1.85l-4.74,10.55a38.33,38.33,0,0,1,2.07,3.62,39.24,39.24,0,0,1,1.62,3.83l11.28,2.6a1.72,1.72,0,0,1,1.29,1.36,47.6,47.6,0,0,1-1.44,22.52,1.7,1.7,0,0,1-1.45,1.19l-11.5,1.17a36.43,36.43,0,0,1-4.6,6.93l3.38,11.06a1.68,1.68,0,0,1-.53,1.79,47.13,47.13,0,0,1-9.5,6.25,48.16,48.16,0,0,1-10.71,3.79A2.33,2.33,0,0,1,990.05,174.9Zm-7.31-13.55a1.7,1.7,0,0,1,1.38.71l6.64,9.22a43.91,43.91,0,0,0,16.82-8.34l-3.33-10.88a1.71,1.71,0,0,1,.36-1.62,33.11,33.11,0,0,0,5.13-7.73,1.71,1.71,0,0,1,1.37-1l11.3-1.15a44.27,44.27,0,0,0,1.2-18.74l-11.08-2.56a1.69,1.69,0,0,1-1.23-1.11,32.76,32.76,0,0,0-4.13-8.32,1.68,1.68,0,0,1-.15-1.65l4.66-10.38A44.12,44.12,0,0,0,996,87.46l-7.76,8.31a1.67,1.67,0,0,1-1.59.51,32.93,32.93,0,0,0-9.25-.6,1.67,1.67,0,0,1-1.51-.7l-6.65-9.22A45,45,0,0,0,960.42,89a43.87,43.87,0,0,0-8,5.08L955.79,105a1.71,1.71,0,0,1-.35,1.63,32.78,32.78,0,0,0-5.14,7.72,1.7,1.7,0,0,1-1.36,1l-11.3,1.15a44.07,44.07,0,0,0-1.2,18.73l11.09,2.57a1.67,1.67,0,0,1,1.22,1.11,35.62,35.62,0,0,0,1.77,4.31,33.26,33.26,0,0,0,2.36,4,1.7,1.7,0,0,1,.15,1.66l-4.67,10.38A44.38,44.38,0,0,0,964,169.59l7.75-8.32a1.72,1.72,0,0,1,1.59-.5,33,33,0,0,0,9.25.59Zm-2.7-8.83a24,24,0,1,1,10.65-2.5A23.83,23.83,0,0,1,980,152.52Zm0-44.6a20.6,20.6,0,1,0,18.46,11.45A20.46,20.46,0,0,0,980,107.92Z"/><path class="cls-4" d="M970.11,108.55A22.3,22.3,0,1,0,1000,118.61,22.3,22.3,0,0,0,970.11,108.55Z"/><path class="cls-4" d="M980,152.52h0a24,24,0,1,1,10.65-2.5A23.83,23.83,0,0,1,980,152.52Zm0-44.6a20.6,20.6,0,1,0,18.46,11.45A20.46,20.46,0,0,0,980,107.92Z"/><g class="cls-8"><path class="cls-9" d="M1191.1,131.2l8.53-6.76L1176.26,95l-8.53,6.77c-9.83,7.31-20.45,8.46-26.75,7.3a47.68,47.68,0,1,0,36.9,46.56C1177.6,146.67,1181.73,139.11,1191.1,131.2Z"/><path class="cls-10" d="M1176.88,94.48,1200.25,124a.79.79,0,0,1-.13,1.11l-8.53,6.76c-9.21,7.77-13.2,15.09-12.92,23.75a48.46,48.46,0,1,1-37.52-47.31c6.37,1.18,16.59-.08,26.11-7.17l8.51-6.74A.79.79,0,0,1,1176.88,94.48Zm21.65,29.84-22.4-28.25-7.91,6.27c-9.94,7.4-20.66,8.7-27.39,7.46a46.89,46.89,0,1,0,36.27,45.79c-.29-9.15,3.87-16.87,13.5-25Z"/><path class="cls-11" d="M1188,109.7l-57.9,45.9"/><path class="cls-10" d="M1188.56,109.21a.78.78,0,0,1-.13,1.11l-57.9,45.9a.78.78,0,0,1-1-1.23l57.9-45.9A.78.78,0,0,1,1188.56,109.21Z"/><line class="cls-11" x1="1154.63" y1="160.76" x2="1130.63" y2="130.49"/><path class="cls-10" d="M1131.24,130l24,30.28a.77.77,0,0,1-.13,1.1.78.78,0,0,1-1.1-.13L1130,131a.79.79,0,0,1,.13-1.11A.78.78,0,0,1,1131.24,130Z"/><polygon class="cls-12" points="1132.99 133.47 1163.69 128.93 1152.27 157.78 1132.99 133.47"/><path class="cls-10" d="M1164.31,128.44a.78.78,0,0,1,.11.78L1153,158.07a.79.79,0,0,1-.62.49.8.8,0,0,1-.73-.29L1132.38,134a.78.78,0,0,1,.5-1.27l30.7-4.54A.79.79,0,0,1,1164.31,128.44ZM1152,156.23l10.42-26.32-28,4.14Z"/><rect class="cls-11" x="1186.9" y="83.69" width="9.7" height="45.99" transform="matrix(0.78, -0.62, 0.62, 0.78, 191.58, 763.43)"/><path class="cls-10" d="M1181.88,85.17l28.57,36a.78.78,0,0,1-.13,1.1l-7.6,6a.79.79,0,0,1-1.11-.13l-28.56-36a.78.78,0,0,1,.12-1.1l7.6-6A.79.79,0,0,1,1181.88,85.17Zm26.85,36.4-27.6-34.81-6.36,5,27.59,34.81Z"/><path class="cls-11" d="M1223.83,81.25a6.3,6.3,0,0,0-8.84-1l7.82,9.86A6.29,6.29,0,0,0,1223.83,81.25Z"/><path class="cls-10" d="M1224.45,80.77a7.09,7.09,0,0,1-1.15,9.94.79.79,0,0,1-1.11-.13l-7.81-9.86a.77.77,0,0,1,.13-1.1A7.08,7.08,0,0,1,1224.45,80.77Zm-1.55,8.17a5.51,5.51,0,0,0-6.77-8.54Z"/><path class="cls-11" d="M1207.52,118.78l14.1-11.17A15.53,15.53,0,0,0,1227.49,96l-4.68-5.9L1215,80.23l-4.67-5.9a15.54,15.54,0,0,0-12.66,3.07l-14.09,11.17Z"/><path class="cls-10" d="M1210.93,73.84,1228.1,95.5a.76.76,0,0,1,.17.52,16.32,16.32,0,0,1-6.17,12.21L1208,119.4a.78.78,0,0,1-1.1-.13l-24-30.21a.79.79,0,0,1,.13-1.11l14.09-11.17a16.33,16.33,0,0,1,13.3-3.22A.82.82,0,0,1,1210.93,73.84Zm15.76,22.41-16.81-21.2a14.76,14.76,0,0,0-11.73,3L1184.67,88.7l23,29L1221.13,107A14.79,14.79,0,0,0,1226.69,96.25Z"/><path class="cls-10" d="M1189.07,80.33l0,.06L1214,117.64a.78.78,0,0,1-.22,1.08.8.8,0,0,1-1.09-.21L1187.8,81.26a.79.79,0,0,1,1.27-.93Z"/><path class="cls-10" d="M1195.41,75.3a.21.21,0,0,0,0,.06l24.86,37.25a.79.79,0,0,1-.22,1.09.8.8,0,0,1-1.09-.22l-24.86-37.25a.79.79,0,0,1,1.27-.93Z"/></g><g class="cls-5"><polygon class="cls-6" points="817 20.47 913.83 85.26 882.73 131.73 833.84 99.02 822.02 116.67 807.12 81.14 785.9 66.94 817 20.47"/><polyline class="cls-7" points="859.57 96.05 878.9 95.48 872.05 77.39"/><polyline class="cls-7" points="835.45 52.9 816.12 53.47 822.97 71.56"/><line class="cls-7" x1="864.51" y1="68.76" x2="832.56" y2="82"/></g><path class="cls-2" d="M334.51,609.42A35.12,35.12,0,0,0,332,605.2l5.13-11.41a45.66,45.66,0,0,0-18.12-12l-8.54,9.14a34.77,34.77,0,0,0-9.73-.62l-7.32-10.14a46.2,46.2,0,0,0-10.33,3.66,45.37,45.37,0,0,0-9.15,6l3.66,12a35.12,35.12,0,0,0-5.4,8.12l-12.43,1.27a45.49,45.49,0,0,0-1.39,21.71l12.19,2.82a34.45,34.45,0,0,0,4.34,8.73l-5.13,11.42a45.84,45.84,0,0,0,18.13,12l8.53-9.15a34.42,34.42,0,0,0,9.73.62l7.31,10.15A45.74,45.74,0,0,0,333,659.82l-3.66-12a35,35,0,0,0,5.4-8.13l12.43-1.27a45.73,45.73,0,0,0,1.39-21.71l-12.19-2.82A36.32,36.32,0,0,0,334.51,609.42Zm-21.12,35.37a22.3,22.3,0,1,1,10.07-29.89A22.28,22.28,0,0,1,313.39,644.79Z"/><path class="cls-3" d="M313.51,671.19a1.71,1.71,0,0,1-1.38-.71l-6.76-9.38a36.64,36.64,0,0,1-8.3-.53L289.18,669a1.71,1.71,0,0,1-1.82.44A47.72,47.72,0,0,1,268.56,657a1.7,1.7,0,0,1-.3-1.85L273,644.59a34.13,34.13,0,0,1-3.7-7.46L258,634.53a1.72,1.72,0,0,1-1.29-1.36,47.35,47.35,0,0,1,1.44-22.52,1.69,1.69,0,0,1,1.45-1.18l11.49-1.17a36.8,36.8,0,0,1,4.61-6.93l-3.39-11.06a1.71,1.71,0,0,1,.53-1.8,47,47,0,0,1,9.5-6.23,47.89,47.89,0,0,1,10.71-3.8,1.7,1.7,0,0,1,1.75.66l6.77,9.38a36.53,36.53,0,0,1,8.3.53l7.89-8.45a1.7,1.7,0,0,1,1.82-.44,47.61,47.61,0,0,1,18.8,12.48,1.7,1.7,0,0,1,.3,1.85L334,605a38.33,38.33,0,0,1,2.07,3.62,39.24,39.24,0,0,1,1.62,3.83l11.28,2.6a1.72,1.72,0,0,1,1.29,1.36A47.6,47.6,0,0,1,348.8,639a1.72,1.72,0,0,1-1.45,1.19l-11.5,1.17a37,37,0,0,1-4.61,6.93l3.38,11.06a1.68,1.68,0,0,1-.53,1.79,46.67,46.67,0,0,1-9.5,6.24,47.17,47.17,0,0,1-10.71,3.79A1.5,1.5,0,0,1,313.51,671.19Zm-7.31-13.55a1.7,1.7,0,0,1,1.38.71l6.64,9.22A43.91,43.91,0,0,0,331,659.23l-3.32-10.88a1.68,1.68,0,0,1,.35-1.62,33.15,33.15,0,0,0,5.14-7.73,1.68,1.68,0,0,1,1.36-1l11.3-1.15a44.27,44.27,0,0,0,1.2-18.74L336,615.59a1.69,1.69,0,0,1-1.23-1.11,34.65,34.65,0,0,0-1.77-4.32,36,36,0,0,0-2.36-4,1.68,1.68,0,0,1-.15-1.65l4.66-10.38a44.12,44.12,0,0,0-15.64-10.38l-7.76,8.31a1.68,1.68,0,0,1-1.59.5,33.28,33.28,0,0,0-9.25-.59,1.69,1.69,0,0,1-1.51-.7l-6.65-9.22a45.25,45.25,0,0,0-8.86,3.27,44.21,44.21,0,0,0-8,5.08l3.33,10.88a1.71,1.71,0,0,1-.35,1.63,33.09,33.09,0,0,0-5.14,7.72,1.7,1.7,0,0,1-1.36,1l-11.3,1.15a44.07,44.07,0,0,0-1.2,18.73L271,634a1.7,1.7,0,0,1,1.22,1.12,34.81,34.81,0,0,0,1.77,4.3,32.61,32.61,0,0,0,2.36,4,1.7,1.7,0,0,1,.15,1.66l-4.67,10.38a44.38,44.38,0,0,0,15.65,10.38l7.76-8.32a1.69,1.69,0,0,1,1.58-.5,33.07,33.07,0,0,0,9.26.59Zm-2.7-8.83a24,24,0,1,1,10.65-2.5A23.84,23.84,0,0,1,303.5,648.81Zm0-44.6a20.61,20.61,0,1,0,9.17,39.06,20.6,20.6,0,0,0-9.17-39.06Z"/><path class="cls-4" d="M293.57,604.84a22.3,22.3,0,1,0,29.89,10.06A22.3,22.3,0,0,0,293.57,604.84Z"/><path class="cls-4" d="M303.5,648.81h0a24,24,0,1,1,10.65-2.5A23.84,23.84,0,0,1,303.5,648.81Zm0-44.6a20.61,20.61,0,1,0,9.17,39.06,20.6,20.6,0,0,0-9.17-39.06Z"/><path class="cls-2" d="M1408.74,275.49a36.37,36.37,0,0,0-2.48-4.21l5.13-11.41a45.65,45.65,0,0,0-18.13-12l-8.53,9.15a34.4,34.4,0,0,0-9.73-.63l-7.32-10.14a46.23,46.23,0,0,0-10.33,3.67,45.29,45.29,0,0,0-9.16,6l3.67,12a34.7,34.7,0,0,0-5.4,8.12L1334,277.23a45.53,45.53,0,0,0-1.39,21.72l12.19,2.82a35.57,35.57,0,0,0,1.86,4.52,33.23,33.23,0,0,0,2.48,4.21L1344,321.91a45.63,45.63,0,0,0,18.13,12l8.53-9.14a35.17,35.17,0,0,0,9.73.62l7.31,10.14a46.06,46.06,0,0,0,10.32-3.65,44.92,44.92,0,0,0,9.16-6l-3.65-12a34.91,34.91,0,0,0,5.4-8.12l12.43-1.27a45.64,45.64,0,0,0,1.38-21.72L1410.6,280A38.06,38.06,0,0,0,1408.74,275.49Zm-21.12,35.37A22.29,22.29,0,1,1,1397.69,281,22.28,22.28,0,0,1,1387.62,310.86Z"/><path class="cls-3" d="M1387.74,337.26a1.71,1.71,0,0,1-1.38-.7l-6.76-9.39a36.64,36.64,0,0,1-8.3-.53l-7.89,8.46a1.7,1.7,0,0,1-1.82.44,47.54,47.54,0,0,1-18.8-12.48,1.7,1.7,0,0,1-.31-1.85l4.75-10.55a36.26,36.26,0,0,1-2.07-3.62,35.48,35.48,0,0,1-1.62-3.83l-11.28-2.61a1.68,1.68,0,0,1-1.29-1.35,47.27,47.27,0,0,1,1.44-22.53,1.7,1.7,0,0,1,1.44-1.18l11.5-1.17a36.41,36.41,0,0,1,4.61-6.92l-3.39-11.07a1.69,1.69,0,0,1,.53-1.79,47.51,47.51,0,0,1,9.5-6.24,48.4,48.4,0,0,1,10.71-3.8,1.69,1.69,0,0,1,1.75.67l6.77,9.38a36.57,36.57,0,0,1,8.3.53l7.89-8.46a1.72,1.72,0,0,1,1.82-.44,47.63,47.63,0,0,1,18.8,12.49,1.7,1.7,0,0,1,.3,1.84l-4.75,10.56a33.41,33.41,0,0,1,2.07,3.62,37.78,37.78,0,0,1,1.63,3.82l11.28,2.61a1.69,1.69,0,0,1,1.29,1.35,47.65,47.65,0,0,1-1.44,22.53,1.69,1.69,0,0,1-1.45,1.18l-11.5,1.17a36.5,36.5,0,0,1-4.6,6.94l3.38,11.06a1.69,1.69,0,0,1-.53,1.79,47.26,47.26,0,0,1-20.21,10A1.55,1.55,0,0,1,1387.74,337.26Zm-7.31-13.54a1.73,1.73,0,0,1,1.38.7l6.64,9.22a43.66,43.66,0,0,0,8.86-3.25,44.46,44.46,0,0,0,8-5.09l-3.33-10.87a1.7,1.7,0,0,1,.36-1.63,33.26,33.26,0,0,0,5.13-7.72,1.71,1.71,0,0,1,1.36-1L1420.1,303a44.44,44.44,0,0,0,1.2-18.74l-11.08-2.56a1.69,1.69,0,0,1-1.23-1.11,35.2,35.2,0,0,0-1.78-4.31,33.64,33.64,0,0,0-2.35-4,1.68,1.68,0,0,1-.15-1.65l4.66-10.37a44.14,44.14,0,0,0-15.64-10.39l-7.76,8.32a1.68,1.68,0,0,1-1.59.5,32.93,32.93,0,0,0-9.25-.59,1.69,1.69,0,0,1-1.51-.7l-6.65-9.22a44.29,44.29,0,0,0-16.82,8.34l3.33,10.88a1.67,1.67,0,0,1-.36,1.63,33,33,0,0,0-5.13,7.72,1.7,1.7,0,0,1-1.36,1l-11.3,1.15a44.11,44.11,0,0,0-1.2,18.74l11.09,2.56a1.68,1.68,0,0,1,1.22,1.12,33.92,33.92,0,0,0,1.77,4.3,32.61,32.61,0,0,0,2.36,4,1.72,1.72,0,0,1,.15,1.66l-4.67,10.37A44.25,44.25,0,0,0,1361.7,332l7.75-8.31a1.7,1.7,0,0,1,1.59-.51,33,33,0,0,0,9.25.59Zm-2.7-8.83a24,24,0,1,1,10.64-2.51A23.86,23.86,0,0,1,1377.73,314.89Zm0-44.6a20.6,20.6,0,1,0,9.17,39,20.6,20.6,0,0,0-9.17-39Z"/><path class="cls-4" d="M1367.8,270.92A22.29,22.29,0,1,0,1397.69,281,22.28,22.28,0,0,0,1367.8,270.92Z"/><path class="cls-4" d="M1377.73,314.89h0a24,24,0,1,1,10.64-2.51A23.86,23.86,0,0,1,1377.73,314.89Zm0-44.6a20.6,20.6,0,1,0,9.17,39,20.6,20.6,0,0,0-9.17-39Z"/><g class="cls-5"><polygon class="cls-6" points="61.03 53.2 164.68 0 190.21 49.75 137.87 76.61 147.57 95.51 109.27 91.29 86.56 102.94 61.03 53.2"/><polyline class="cls-7" points="147.78 52.67 156.66 35.5 137.52 32.7"/><polyline class="cls-7" points="98.34 52.81 89.45 69.99 108.59 72.79"/><line class="cls-7" x1="126.31" y1="35.1" x2="122.37" y2="69.46"/></g><g class="cls-8"><path class="cls-9" d="M125.62,219.58l-9.05,6,20.88,31.29,9.05-6c10.4-6.49,21.08-6.77,27.27-5.09a47.68,47.68,0,1,0-33-49.43C140.35,205.27,135.61,212.47,125.62,219.58Z"/><path class="cls-10" d="M136.79,257.35l-20.88-31.29a.79.79,0,0,1,.22-1.09l9.06-6c9.81-7,14.38-14,14.82-22.61a48.46,48.46,0,1,1,33.52,50.22c-6.25-1.7-16.54-1.28-26.61,5l-9,6A.78.78,0,0,1,136.79,257.35Zm-19.13-31.51,20,30,8.4-5.61c10.52-6.56,21.31-7,27.91-5.19a46.89,46.89,0,1,0-32.39-48.61c-.46,9.15-5.24,16.5-15.5,23.8Z"/><path class="cls-11" d="M127,241.27l61.46-41"/><path class="cls-10" d="M126.35,241.71a.79.79,0,0,1,.22-1.09l61.46-41a.79.79,0,0,1,1.09.22.78.78,0,0,1-.21,1.09l-61.46,41A.8.8,0,0,1,126.35,241.71Z"/><line class="cls-11" x1="164.4" y1="193.11" x2="185.84" y2="225.25"/><path class="cls-10" d="M185.18,225.68l-21.44-32.13a.79.79,0,0,1,.22-1.09.78.78,0,0,1,1.09.21l21.44,32.14a.79.79,0,0,1-1.31.87Z"/><polygon class="cls-12" points="183.72 222.09 152.75 224.09 166.5 196.27 183.72 222.09"/><path class="cls-10" d="M152.1,224.53a.78.78,0,0,1,0-.78l13.75-27.82a.77.77,0,0,1,.65-.44.78.78,0,0,1,.71.35l17.22,25.81a.8.8,0,0,1,.05.78.82.82,0,0,1-.66.44l-31,2A.78.78,0,0,1,152.1,224.53Zm14.5-26.69-12.54,25.38,28.25-1.83Z"/><rect class="cls-11" x="118.13" y="220.97" width="9.7" height="45.99" transform="matrix(0.83, -0.56, 0.56, 0.83, -114.72, 109.28)"/><path class="cls-10" d="M131.05,266.22,105.53,228a.78.78,0,0,1,.21-1.09l8.07-5.39a.79.79,0,0,1,1.09.22L140.43,260a.79.79,0,0,1-.22,1.09l-8.07,5.39A.79.79,0,0,1,131.05,266.22Zm-23.78-38.47,24.65,36.94,6.76-4.51L114,223.24Z"/><path class="cls-11" d="M88.92,266.69a6.28,6.28,0,0,0,8.72,1.74l-7-10.46A6.28,6.28,0,0,0,88.92,266.69Z"/><path class="cls-10" d="M88.26,267.12a7.09,7.09,0,0,1,2-9.81.79.79,0,0,1,1.09.22l7,10.46a.78.78,0,0,1-.21,1.09A7.08,7.08,0,0,1,88.26,267.12Zm2.21-8a5.51,5.51,0,0,0,6,9.07Z"/><path class="cls-11" d="M108.24,230.62l-15,10a15.5,15.5,0,0,0-6.8,11.1L90.66,258l7,10.46,4.18,6.26a15.47,15.47,0,0,0,12.86-2l15-10Z"/><path class="cls-10" d="M101.17,275.13l-15.34-23a.78.78,0,0,1-.13-.53A16.32,16.32,0,0,1,92.84,240l15-10a.79.79,0,0,1,1.09.22l21.41,32.08a.79.79,0,0,1-.22,1.09l-15,10a16.33,16.33,0,0,1-13.51,2.12A.75.75,0,0,1,101.17,275.13ZM87.3,251.51l15,22.5a14.77,14.77,0,0,0,11.94-2l14.3-9.54L108,231.71l-14.3,9.54A14.76,14.76,0,0,0,87.3,251.51Z"/><path class="cls-10" d="M123.49,270.45l0-.05-21.74-39.16a.79.79,0,0,1,.31-1.07.8.8,0,0,1,1.07.3l21.73,39.16a.79.79,0,0,1-.31,1.07A.78.78,0,0,1,123.49,270.45Z"/><path class="cls-10" d="M116.76,275l0-.06L95,235.73a.78.78,0,1,1,1.37-.76l21.74,39.16a.79.79,0,0,1-1.34.82Z"/></g><path class="cls-2" d="M183,781.75a36.37,36.37,0,0,0-2.48-4.21l5.12-11.41a45.62,45.62,0,0,0-18.12-12L159,763.24a34.43,34.43,0,0,0-9.73-.63l-7.32-10.14a46.06,46.06,0,0,0-10.33,3.67,45.29,45.29,0,0,0-9.16,6l3.67,12a34.7,34.7,0,0,0-5.4,8.12l-12.44,1.26a45.65,45.65,0,0,0-1.38,21.72L119.09,808a35.57,35.57,0,0,0,1.86,4.52,33.23,33.23,0,0,0,2.48,4.21l-5.14,11.41a45.66,45.66,0,0,0,18.14,12l8.53-9.14a35.17,35.17,0,0,0,9.73.62L162,841.82a46.06,46.06,0,0,0,10.32-3.65,44.92,44.92,0,0,0,9.16-6l-3.65-12a34.91,34.91,0,0,0,5.4-8.12l12.43-1.27A45.64,45.64,0,0,0,197,789.08l-12.18-2.81A38.06,38.06,0,0,0,183,781.75Zm-21.12,35.37A22.29,22.29,0,1,1,172,787.24,22.28,22.28,0,0,1,161.88,817.12Z"/><path class="cls-3" d="M162,843.52a1.71,1.71,0,0,1-1.38-.7l-6.76-9.39a36.08,36.08,0,0,1-8.3-.53l-7.89,8.46a1.7,1.7,0,0,1-1.82.44A47.64,47.64,0,0,1,117,829.32a1.7,1.7,0,0,1-.3-1.84l4.75-10.56a36.26,36.26,0,0,1-2.07-3.62,37.65,37.65,0,0,1-1.63-3.83l-11.28-2.61a1.67,1.67,0,0,1-1.28-1.35A47.4,47.4,0,0,1,106.66,783a1.73,1.73,0,0,1,1.45-1.18l11.5-1.17a36.72,36.72,0,0,1,4.61-6.92l-3.39-11.07a1.69,1.69,0,0,1,.53-1.79,47.51,47.51,0,0,1,9.5-6.24,48.32,48.32,0,0,1,10.7-3.8,1.7,1.7,0,0,1,1.76.67l6.77,9.38a36.57,36.57,0,0,1,8.3.53l7.89-8.46a1.72,1.72,0,0,1,1.82-.44A47.63,47.63,0,0,1,186.9,765a1.68,1.68,0,0,1,.29,1.84l-4.74,10.56a35.16,35.16,0,0,1,2.07,3.62,37.78,37.78,0,0,1,1.63,3.82l11.28,2.61a1.69,1.69,0,0,1,1.29,1.35,47.65,47.65,0,0,1-1.44,22.53,1.69,1.69,0,0,1-1.45,1.18l-11.5,1.17a37,37,0,0,1-4.6,6.94l3.38,11.06a1.69,1.69,0,0,1-.53,1.79,47.26,47.26,0,0,1-20.21,10A1.55,1.55,0,0,1,162,843.52ZM154.69,830a1.7,1.7,0,0,1,1.37.7l6.65,9.22a43.66,43.66,0,0,0,8.86-3.25,44.46,44.46,0,0,0,8-5.09l-3.33-10.87a1.7,1.7,0,0,1,.36-1.63,33.26,33.26,0,0,0,5.13-7.72,1.7,1.7,0,0,1,1.36-1l11.31-1.15a44.33,44.33,0,0,0,1.19-18.75l-11.07-2.56a1.69,1.69,0,0,1-1.23-1.11,36.85,36.85,0,0,0-1.78-4.31,32.45,32.45,0,0,0-2.36-4,1.7,1.7,0,0,1-.14-1.65l4.66-10.37A44.14,44.14,0,0,0,168,756.08l-7.76,8.32a1.69,1.69,0,0,1-1.59.5,32.93,32.93,0,0,0-9.25-.59,1.69,1.69,0,0,1-1.51-.7l-6.65-9.22a44.29,44.29,0,0,0-16.82,8.34l3.33,10.88a1.7,1.7,0,0,1-.36,1.63,33,33,0,0,0-5.13,7.72,1.7,1.7,0,0,1-1.36,1l-11.3,1.15a44,44,0,0,0-1.2,18.74l11.08,2.56a1.7,1.7,0,0,1,1.23,1.12,33.92,33.92,0,0,0,1.77,4.3,32.61,32.61,0,0,0,2.36,4,1.72,1.72,0,0,1,.15,1.66l-4.67,10.37A44.16,44.16,0,0,0,136,838.21l7.75-8.31a1.69,1.69,0,0,1,1.59-.51,32.63,32.63,0,0,0,9.25.59Zm-2.7-8.83a24,24,0,1,1,10.64-2.51A23.86,23.86,0,0,1,152,821.15Zm0-44.6a20.6,20.6,0,1,0,9.17,39.05A20.6,20.6,0,0,0,152,776.55Z"/><path class="cls-4" d="M142.06,777.18A22.29,22.29,0,1,0,172,787.24,22.28,22.28,0,0,0,142.06,777.18Z"/><path class="cls-4" d="M152,821.15h0a24,24,0,1,1,10.64-2.51A23.86,23.86,0,0,1,152,821.15Zm0-44.6a20.6,20.6,0,1,0,9.17,39.05A20.6,20.6,0,0,0,152,776.55Z"/><g class="cls-5"><polygon class="cls-6" points="94.31 588.01 210.81 587.67 210.97 643.59 152.14 643.76 152.2 665 119.99 643.85 94.47 643.92 94.31 588.01"/><polyline class="cls-7" points="171.83 626.93 187.55 615.66 171.77 604.48"/><polyline class="cls-7" points="127.72 604.61 112.01 615.88 127.79 627.06"/><line class="cls-7" x1="160.69" y1="601.53" x2="141.58" y2="630.35"/></g><g class="cls-8"><path class="cls-9" d="M994.56,792.94l9.43-5.45-18.82-32.57-9.43,5.45c-10.79,5.8-21.46,5.39-27.53,3.32a47.68,47.68,0,1,0,29.72,51.45C979,806.27,984.14,799.39,994.56,792.94Z"/><path class="cls-10" d="M985.85,754.53l18.82,32.57a.78.78,0,0,1-.29,1.07L995,793.62c-10.24,6.34-15.26,13-16.25,21.61A48.46,48.46,0,1,1,948.49,763c6.13,2.09,16.43,2.33,26.88-3.29l9.4-5.43A.79.79,0,0,1,985.85,754.53Zm17.06,32.67-18-31.2-8.74,5c-10.92,5.87-21.72,5.59-28.19,3.39A46.89,46.89,0,1,0,977.15,815c1.05-9.1,6.29-16.12,17-22.75Z"/><path class="cls-11" d="M994.58,771.2l-64,37"/><path class="cls-10" d="M995.26,770.81a.78.78,0,0,1-.29,1.07l-64,37a.79.79,0,1,1-.79-1.36l64-37A.8.8,0,0,1,995.26,770.81Z"/><line class="cls-11" x1="954.17" y1="816.86" x2="934.84" y2="783.41"/><path class="cls-10" d="M935.52,783l19.33,33.45a.77.77,0,0,1-.29,1.07.78.78,0,0,1-1.07-.28l-19.33-33.45a.79.79,0,0,1,.29-1.08A.8.8,0,0,1,935.52,783Z"/><polygon class="cls-12" points="936.75 786.71 967.78 786.69 952.27 813.57 936.75 786.71"/><path class="cls-10" d="M968.46,786.3a.78.78,0,0,1,0,.78L953,814a.78.78,0,0,1-1.36,0L936.07,787.1a.79.79,0,0,1,.68-1.18l31,0A.78.78,0,0,1,968.46,786.3ZM952.27,812l14.15-24.52H938.11Z"/><rect class="cls-11" x="993.93" y="745.78" width="9.7" height="45.99" transform="translate(-250.65 602.89) rotate(-30.02)"/><path class="cls-10" d="M992.15,746.05l23,39.82a.78.78,0,0,1-.29,1.07l-8.39,4.85a.79.79,0,0,1-1.08-.28l-23-39.82a.79.79,0,0,1,.29-1.08l8.4-4.85A.78.78,0,0,1,992.15,746.05ZM1013.4,786l-22.22-38.45-7,4.06L1006.37,790Z"/><path class="cls-11" d="M1034.22,748.29a6.3,6.3,0,0,0-8.59-2.3l6.29,10.89A6.28,6.28,0,0,0,1034.22,748.29Z"/><path class="cls-10" d="M1034.9,747.9a7.06,7.06,0,0,1-2.58,9.66.79.79,0,0,1-1.08-.28L1025,746.39a.79.79,0,0,1,.29-1.08A7.08,7.08,0,0,1,1034.9,747.9Zm-2.72,7.86a5.5,5.5,0,0,0-5.45-9.43Z"/><path class="cls-11" d="M1012.62,783l15.57-9a15.51,15.51,0,0,0,7.5-10.65l-3.77-6.52L1025.63,746l-3.77-6.52a15.5,15.5,0,0,0-13,1.19l-15.57,9Z"/><path class="cls-10" d="M1022.54,739.08,1036.37,763a.78.78,0,0,1,.1.54,16.35,16.35,0,0,1-7.89,11.18l-15.57,9a.78.78,0,0,1-1.07-.28l-19.29-33.39a.78.78,0,0,1,.28-1.07l15.57-9a16.35,16.35,0,0,1,13.62-1.25A.77.77,0,0,1,1022.54,739.08Zm12.33,24.46-13.54-23.42a14.76,14.76,0,0,0-12,1.22L994.4,750l18.51,32,14.89-8.6A14.81,14.81,0,0,0,1034.87,763.54Z"/><path class="cls-10" d="M1000,742.31l0,.06,19.16,40.48a.77.77,0,0,1-.37,1,.8.8,0,0,1-1-.37L998.58,743a.77.77,0,0,1,.37-1A.79.79,0,0,1,1000,742.31Z"/><path class="cls-10" d="M1007,738.26l0,.06,19.17,40.48a.77.77,0,0,1-.37,1,.8.8,0,0,1-1-.37L1005.58,739a.79.79,0,0,1,1.39-.73Z"/></g><path class="cls-2" d="M1227.65,793.57a36.5,36.5,0,0,0-2.48-4.22l5.12-11.41a45.6,45.6,0,0,0-18.12-12l-8.53,9.14a34.42,34.42,0,0,0-9.73-.62l-7.32-10.14A45.74,45.74,0,0,0,1167.1,774l3.67,12a34.91,34.91,0,0,0-5.4,8.12l-12.44,1.27a45.48,45.48,0,0,0-1.38,21.71l12.19,2.82a35.57,35.57,0,0,0,1.86,4.52,32.54,32.54,0,0,0,2.48,4.21L1162.94,840a45.87,45.87,0,0,0,18.14,12l8.53-9.15a34.38,34.38,0,0,0,9.72.62l7.32,10.15a45.77,45.77,0,0,0,19.48-9.67l-3.65-12a34.91,34.91,0,0,0,5.4-8.12l12.43-1.27a45.73,45.73,0,0,0,1.38-21.71l-12.18-2.82A37.93,37.93,0,0,0,1227.65,793.57Zm-21.12,35.37a22.3,22.3,0,1,1,10.07-29.89A22.28,22.28,0,0,1,1206.53,828.94Z"/><path class="cls-3" d="M1206.65,855.33a1.69,1.69,0,0,1-1.38-.7l-6.76-9.38a36.64,36.64,0,0,1-8.3-.53l-7.89,8.45a1.68,1.68,0,0,1-1.82.44,47.62,47.62,0,0,1-18.81-12.47,1.72,1.72,0,0,1-.3-1.85l4.75-10.55a36,36,0,0,1-3.7-7.46l-11.28-2.6a1.69,1.69,0,0,1-1.28-1.36,47.35,47.35,0,0,1,1.43-22.52,1.71,1.71,0,0,1,1.45-1.18l11.5-1.17a36.8,36.8,0,0,1,4.61-6.93l-3.39-11.06a1.72,1.72,0,0,1,.52-1.8,47.71,47.71,0,0,1,20.21-10,1.71,1.71,0,0,1,1.76.66l6.77,9.38a36.57,36.57,0,0,1,8.3.53l7.89-8.45a1.7,1.7,0,0,1,1.82-.44,47.61,47.61,0,0,1,18.8,12.48,1.72,1.72,0,0,1,.29,1.85l-4.74,10.55a36.25,36.25,0,0,1,2.07,3.62,37,37,0,0,1,1.63,3.83l11.28,2.6a1.7,1.7,0,0,1,1.29,1.36,47.6,47.6,0,0,1-1.44,22.52,1.69,1.69,0,0,1-1.45,1.18l-11.5,1.18a36.91,36.91,0,0,1-4.6,6.93l3.38,11.06a1.69,1.69,0,0,1-.53,1.79,47.26,47.26,0,0,1-20.21,10A1.55,1.55,0,0,1,1206.65,855.33Zm-7.32-13.54a1.68,1.68,0,0,1,1.38.71l6.65,9.22a44.29,44.29,0,0,0,8.86-3.26,45,45,0,0,0,8-5.08l-3.33-10.88a1.71,1.71,0,0,1,.36-1.63,32.84,32.84,0,0,0,5.13-7.72,1.7,1.7,0,0,1,1.36-1L1239,821a44.32,44.32,0,0,0,1.19-18.75l-11.07-2.55a1.7,1.7,0,0,1-1.23-1.11,36.29,36.29,0,0,0-1.78-4.32,33.11,33.11,0,0,0-2.36-4,1.72,1.72,0,0,1-.14-1.66l4.66-10.37a44.28,44.28,0,0,0-15.64-10.39l-7.76,8.32a1.69,1.69,0,0,1-1.59.5,33.31,33.31,0,0,0-9.25-.59,1.69,1.69,0,0,1-1.51-.7l-6.65-9.22a45,45,0,0,0-8.86,3.27,43.87,43.87,0,0,0-8,5.08l3.33,10.87a1.7,1.7,0,0,1-.36,1.63,33.32,33.32,0,0,0-5.13,7.73,1.71,1.71,0,0,1-1.36,1l-11.3,1.15a44,44,0,0,0-1.2,18.74l11.08,2.56a1.7,1.7,0,0,1,1.23,1.12,33.33,33.33,0,0,0,1.77,4.3,32.61,32.61,0,0,0,2.36,4,1.73,1.73,0,0,1,.15,1.66L1165,839.65A44.29,44.29,0,0,0,1180.61,850l7.75-8.32a1.71,1.71,0,0,1,1.59-.5,33.38,33.38,0,0,0,9.25.59Zm-2.69-8.83a24,24,0,1,1,10.64-2.5A23.87,23.87,0,0,1,1196.64,833Zm0-44.6a20.6,20.6,0,1,0,9.17,39,20.6,20.6,0,0,0-9.17-39Z"/><path class="cls-4" d="M1186.71,789a22.3,22.3,0,1,0,29.89,10.06A22.29,22.29,0,0,0,1186.71,789Z"/><path class="cls-4" d="M1196.64,833h0a24,24,0,1,1,10.64-2.5A23.87,23.87,0,0,1,1196.64,833Zm0-44.6a20.6,20.6,0,1,0,9.17,39,20.6,20.6,0,0,0-9.17-39Z"/><g class="cls-5"><polygon class="cls-6" points="1454.7 811.83 1348.1 764.83 1370.66 713.66 1424.49 737.39 1433.06 717.96 1453.91 750.37 1477.26 760.66 1454.7 811.83"/><polyline class="cls-7" points="1399.66 744.78 1380.72 748.7 1390.61 765.32"/><polyline class="cls-7" points="1430.9 783.09 1449.84 779.17 1439.96 762.55"/><line class="cls-7" x1="1399.53" y1="772.52" x2="1428.7" y2="753.94"/></g><path class="cls-2" d="M690.83,790.07a35.12,35.12,0,0,0-2.48-4.22l5.13-11.4a45.55,45.55,0,0,0-18.13-12l-8.53,9.14a34.77,34.77,0,0,0-9.73-.62l-7.32-10.14a46.2,46.2,0,0,0-10.33,3.66,45.72,45.72,0,0,0-9.16,6l3.67,12a34.7,34.7,0,0,0-5.4,8.12l-12.43,1.26a45.49,45.49,0,0,0-1.39,21.71l12.19,2.82a34.41,34.41,0,0,0,1.86,4.52,32.66,32.66,0,0,0,2.48,4.22l-5.13,11.41a45.73,45.73,0,0,0,18.13,12l8.53-9.15a34.42,34.42,0,0,0,9.73.62l7.31,10.15a45.62,45.62,0,0,0,19.48-9.67l-3.65-12a34.76,34.76,0,0,0,5.4-8.13l12.43-1.26a45.78,45.78,0,0,0,1.39-21.72l-12.19-2.81A35.83,35.83,0,0,0,690.83,790.07Zm-21.12,35.37a22.3,22.3,0,1,1,10.07-29.89A22.28,22.28,0,0,1,669.71,825.44Z"/><path class="cls-3" d="M669.83,851.84a1.7,1.7,0,0,1-1.38-.71l-6.76-9.38a36.64,36.64,0,0,1-8.3-.53l-7.89,8.46a1.7,1.7,0,0,1-1.82.44,47.54,47.54,0,0,1-18.8-12.48,1.68,1.68,0,0,1-.3-1.85l4.74-10.55a37.42,37.42,0,0,1-2.07-3.62,35.48,35.48,0,0,1-1.62-3.83l-11.28-2.61a1.69,1.69,0,0,1-1.29-1.35,47.26,47.26,0,0,1,1.44-22.53,1.69,1.69,0,0,1,1.44-1.18l11.5-1.17a36.8,36.8,0,0,1,4.61-6.93L628.66,771a1.68,1.68,0,0,1,.53-1.79,47.08,47.08,0,0,1,9.5-6.24,47.89,47.89,0,0,1,10.71-3.8,1.69,1.69,0,0,1,1.75.67l6.77,9.38a35.42,35.42,0,0,1,8.3.53l7.89-8.46a1.7,1.7,0,0,1,1.82-.44,47.53,47.53,0,0,1,18.8,12.49,1.7,1.7,0,0,1,.3,1.84l-4.75,10.56a34.27,34.27,0,0,1,2.07,3.61,38.94,38.94,0,0,1,1.63,3.83l11.28,2.6a1.72,1.72,0,0,1,1.29,1.36,47.6,47.6,0,0,1-1.44,22.52,1.7,1.7,0,0,1-1.45,1.19L692.16,822a36.12,36.12,0,0,1-4.6,6.93L690.94,840a1.71,1.71,0,0,1-.53,1.8,47.26,47.26,0,0,1-20.21,10A2.33,2.33,0,0,1,669.83,851.84Zm-7.31-13.54a1.7,1.7,0,0,1,1.38.7l6.64,9.22A43.69,43.69,0,0,0,679.4,845a44.41,44.41,0,0,0,8-5.08L684,829a1.71,1.71,0,0,1,.36-1.62,33.11,33.11,0,0,0,5.13-7.73,1.73,1.73,0,0,1,1.37-1l11.3-1.15a44.27,44.27,0,0,0,1.2-18.74l-11.08-2.56a1.69,1.69,0,0,1-1.23-1.11,33.66,33.66,0,0,0-4.13-8.32,1.68,1.68,0,0,1-.15-1.65l4.66-10.37a44,44,0,0,0-15.64-10.39l-7.76,8.31a1.67,1.67,0,0,1-1.59.51,32.93,32.93,0,0,0-9.25-.59,1.72,1.72,0,0,1-1.51-.7l-6.65-9.22A44.36,44.36,0,0,0,640.2,766a43.87,43.87,0,0,0-8,5.08l3.33,10.88a1.7,1.7,0,0,1-.35,1.63,32.78,32.78,0,0,0-5.14,7.72,1.72,1.72,0,0,1-1.36,1l-11.3,1.15a44.11,44.11,0,0,0-1.2,18.74l11.09,2.56a1.67,1.67,0,0,1,1.22,1.11,35,35,0,0,0,1.77,4.31,32.5,32.5,0,0,0,2.36,4,1.7,1.7,0,0,1,.15,1.66l-4.67,10.38a44.38,44.38,0,0,0,15.65,10.38l7.75-8.31a1.7,1.7,0,0,1,1.59-.51,33,33,0,0,0,9.25.59Zm-2.7-8.83A24,24,0,1,1,670.47,827,23.86,23.86,0,0,1,659.82,829.47Zm0-44.61a20.6,20.6,0,1,0,18.47,11.45A20.53,20.53,0,0,0,659.78,784.86Z"/><path class="cls-4" d="M649.89,785.49a22.3,22.3,0,1,0,29.89,10.06A22.3,22.3,0,0,0,649.89,785.49Z"/><path class="cls-4" d="M659.82,829.47h0A24,24,0,1,1,670.47,827,23.86,23.86,0,0,1,659.82,829.47Zm0-44.61a20.6,20.6,0,1,0,18.47,11.45A20.53,20.53,0,0,0,659.78,784.86Z"/><g class="cls-5"><polygon class="cls-6" points="1272.22 145.19 1363.03 72.21 1398.06 115.79 1352.2 152.64 1365.51 169.2 1327.14 172.78 1307.25 188.77 1272.22 145.19"/><polyline class="cls-7" points="1357.08 127.21 1362.33 108.59 1343.02 109.71"/><polyline class="cls-7" points="1308.69 137.3 1303.44 155.91 1322.75 154.8"/><line class="cls-7" x1="1332.52" y1="114.32" x2="1335.58" y2="148.76"/></g><path class="cls-17" d="M35.48,677.12a13.25,13.25,0,1,1,13.25-13.25A13.25,13.25,0,0,1,35.48,677.12Z"/><path class="cls-17" d="M23.12,747.49c.1-.27.21-.53.32-.8C23.33,747,23.22,747.22,23.12,747.49Z"/><path class="cls-17" d="M24.24,745.21c.11-.17.2-.36.32-.53C24.44,744.85,24.35,745,24.24,745.21Z"/><path class="cls-17" d="M22.48,749.76c0-.25.11-.5.16-.76C22.59,749.26,22.52,749.51,22.48,749.76Z"/><path class="cls-17" d="M48.31,749c.06.26.12.51.17.76C48.43,749.51,48.37,749.26,48.31,749Z"/><path class="cls-17" d="M46.39,744.68c.13.17.22.36.33.53C46.61,745,46.52,744.85,46.39,744.68Z"/><path class="cls-17" d="M44.59,742.57l1.79,2.09A12.82,12.82,0,0,0,44.59,742.57Z"/><path class="cls-17" d="M47.52,746.69c.12.27.21.53.32.8C47.73,747.22,47.64,747,47.52,746.69Z"/><path class="cls-17" d="M27.51,741.64a12.73,12.73,0,0,0-2.93,3l1.82-2.1C26.75,742.23,27.13,741.94,27.51,741.64Z"/><path class="cls-17" d="M43.71,741.84c-.25-.19-.48-.41-.73-.59h0C43.24,741.43,43.46,741.65,43.71,741.84Z"/><path class="cls-17" d="M48.48,710.45c0,.26-.11.51-.17.75C48.37,711,48.43,710.71,48.48,710.45Z"/><path class="cls-17" d="M26.37,717.64l-1.79-2.08A12.68,12.68,0,0,0,26.37,717.64Z"/><path class="cls-17" d="M27.25,718.37c.25.2.47.42.73.6h0C27.72,718.78,27.5,718.57,27.25,718.37Z"/><path class="cls-17" d="M47.84,712.73c-.11.27-.2.54-.32.79C47.64,713.27,47.73,713,47.84,712.73Z"/><path class="cls-17" d="M23.44,713.52c-.11-.25-.22-.52-.32-.79C23.22,713,23.33,713.27,23.44,713.52Z"/><path class="cls-17" d="M22.64,711.2c-.05-.24-.12-.49-.16-.75C22.52,710.71,22.59,711,22.64,711.2Z"/><path class="cls-17" d="M43.45,718.57a12.88,12.88,0,0,0,2.93-3l-1.83,2.11A12,12,0,0,1,43.45,718.57Z"/><path class="cls-17" d="M24.56,715.54c-.12-.17-.21-.36-.32-.54C24.35,715.18,24.44,715.37,24.56,715.54Z"/><path class="cls-17" d="M46.72,715a6,6,0,0,1-.33.54A6,6,0,0,0,46.72,715Z"/><path class="cls-17" d="M48.73,752.16a12.6,12.6,0,0,0-.25-2.4c0-.25-.11-.5-.17-.76a15.54,15.54,0,0,0-.47-1.51c-.11-.27-.2-.53-.32-.8a16.21,16.21,0,0,0-.8-1.48c-.11-.17-.2-.36-.33-.53h0v0l-1.79-2.09h0c-.27-.26-.58-.48-.87-.73s-.47-.41-.73-.59h0a15.56,15.56,0,0,1,.07-22.35c.14-.1.26-.23.4-.33a12,12,0,0,0,1.1-.9l1.83-2.11v0h0a6,6,0,0,0,.33-.54,13.93,13.93,0,0,0,.8-1.48c.12-.25.21-.52.32-.79a15.1,15.1,0,0,0,.47-1.53c.06-.24.12-.49.17-.75a12.69,12.69,0,0,0,.25-2.4,13.25,13.25,0,0,0-26.5,0,12.69,12.69,0,0,0,.25,2.4c0,.26.11.51.16.75.14.53.3,1,.48,1.53.1.27.21.54.32.79a12.34,12.34,0,0,0,.8,1.48c.11.18.2.37.32.54h0l0,0,1.79,2.08h0c.27.25.58.48.87.72s.47.41.73.59h0a15.56,15.56,0,0,1-.07,22.34c-.14.1-.26.23-.4.33-.38.3-.76.59-1.11.92l-1.82,2.1,0,0h0c-.12.17-.21.36-.32.53a14.08,14.08,0,0,0-.8,1.48c-.11.27-.22.53-.32.8-.18.49-.34,1-.48,1.51-.05.26-.12.51-.16.76a12.6,12.6,0,0,0-.25,2.4,13.25,13.25,0,1,0,26.5,0Z"/><path class="cls-17" d="M23.12,703.31c.1-.28.21-.54.32-.8C23.33,702.77,23.22,703,23.12,703.31Z"/><path class="cls-17" d="M24.24,701c.11-.17.2-.37.32-.54C24.44,700.66,24.35,700.86,24.24,701Z"/><path class="cls-17" d="M22.48,705.57c0-.25.11-.49.16-.74C22.59,705.08,22.52,705.32,22.48,705.57Z"/><path class="cls-17" d="M48.31,704.83c.06.25.12.49.17.74C48.43,705.32,48.37,705.08,48.31,704.83Z"/><path class="cls-17" d="M46.39,700.49c.13.17.22.37.33.54C46.61,700.86,46.52,700.66,46.39,700.49Z"/><path class="cls-17" d="M44.59,698.39l1.79,2.09A12.82,12.82,0,0,0,44.59,698.39Z"/><path class="cls-17" d="M47.52,702.51c.12.26.21.52.32.8C47.73,703,47.64,702.77,47.52,702.51Z"/><path class="cls-17" d="M27.51,697.46a12.92,12.92,0,0,0-2.93,3l1.82-2.11A13.76,13.76,0,0,1,27.51,697.46Z"/><path class="cls-17" d="M43.71,697.66c-.25-.19-.48-.41-.73-.59h0C43.24,697.25,43.46,697.47,43.71,697.66Z"/><path class="cls-17" d="M48.48,666.27c0,.25-.11.51-.17.75C48.37,666.77,48.43,666.52,48.48,666.27Z"/><path class="cls-17" d="M26.37,673.46l-1.79-2.09A12.35,12.35,0,0,0,26.37,673.46Z"/><path class="cls-17" d="M27.25,674.19c.25.19.47.41.73.6h0C27.72,674.6,27.5,674.38,27.25,674.19Z"/><path class="cls-17" d="M47.84,668.55c-.11.26-.2.53-.32.79C47.64,669.08,47.73,668.81,47.84,668.55Z"/><path class="cls-17" d="M23.44,669.34c-.11-.26-.22-.53-.32-.79C23.22,668.81,23.33,669.08,23.44,669.34Z"/><path class="cls-17" d="M22.64,667c-.05-.24-.12-.5-.16-.75C22.52,666.52,22.59,666.77,22.64,667Z"/><path class="cls-17" d="M43.45,674.39a12.73,12.73,0,0,0,2.93-3l-1.83,2.11A12.07,12.07,0,0,1,43.45,674.39Z"/><path class="cls-17" d="M24.56,671.36c-.12-.17-.21-.36-.32-.55C24.35,671,24.44,671.19,24.56,671.36Z"/><path class="cls-17" d="M46.72,670.81a5,5,0,0,1-.33.55A5,5,0,0,0,46.72,670.81Z"/><path class="cls-17" d="M45.35,724.81a7.92,7.92,0,0,1,.33-.8A7.92,7.92,0,0,0,45.35,724.81Z"/><path class="cls-17" d="M46.47,722.54c.11-.18.2-.37.32-.54C46.67,722.17,46.58,722.36,46.47,722.54Z"/><path class="cls-17" d="M44.71,727.08c0-.25.11-.5.17-.75C44.82,726.58,44.76,726.83,44.71,727.08Z"/><path class="cls-17" d="M70.55,726.33c.06.25.12.5.17.75C70.67,726.83,70.61,726.58,70.55,726.33Z"/><path class="cls-17" d="M68.63,722a5.89,5.89,0,0,1,.32.54A5.89,5.89,0,0,0,68.63,722Z"/><path class="cls-17" d="M66.82,719.9l1.8,2.08A13.25,13.25,0,0,0,66.82,719.9Z"/><path class="cls-17" d="M69.75,724c.12.26.22.53.32.8C70,724.54,69.87,724.27,69.75,724Z"/><path class="cls-17" d="M49.74,719a12.88,12.88,0,0,0-2.93,3l1.83-2.11C49,719.54,49.37,719.26,49.74,719Z"/><path class="cls-17" d="M65.94,719.17c-.25-.2-.48-.42-.73-.6h0C65.47,718.75,65.69,719,65.94,719.17Z"/><path class="cls-17" d="M70.72,687.77c0,.27-.11.51-.17.76C70.61,688.28,70.67,688,70.72,687.77Z"/><path class="cls-17" d="M48.6,695l-1.79-2.08A13.65,13.65,0,0,0,48.6,695Z"/><path class="cls-17" d="M49.49,695.68a8.42,8.42,0,0,0,.73.61h0A8.29,8.29,0,0,1,49.49,695.68Z"/><path class="cls-17" d="M70.07,690a8.33,8.33,0,0,1-.32.8A8.33,8.33,0,0,0,70.07,690Z"/><path class="cls-17" d="M45.68,690.84a6.38,6.38,0,0,1-.33-.8A6.38,6.38,0,0,0,45.68,690.84Z"/><path class="cls-17" d="M44.88,688.53c-.06-.25-.12-.49-.17-.76C44.76,688,44.82,688.28,44.88,688.53Z"/><path class="cls-17" d="M65.68,695.89a13.12,13.12,0,0,0,2.94-3L66.79,695C66.44,695.31,66.06,695.6,65.68,695.89Z"/><path class="cls-17" d="M46.79,692.86c-.12-.17-.21-.36-.32-.54C46.58,692.5,46.67,692.69,46.79,692.86Z"/><path class="cls-17" d="M69,692.32a5.89,5.89,0,0,1-.32.54A5.89,5.89,0,0,0,69,692.32Z"/><path class="cls-17" d="M71,729.49a13.58,13.58,0,0,0-.24-2.41c0-.25-.11-.5-.17-.75-.14-.52-.3-1-.48-1.52-.1-.27-.2-.54-.32-.8a14.82,14.82,0,0,0-.8-1.47,5.89,5.89,0,0,0-.32-.54h0l-1.8-2.08h0c-.27-.27-.58-.49-.87-.73s-.47-.42-.73-.6h0a15.55,15.55,0,0,1,.07-22.34,4.47,4.47,0,0,0,.4-.34c.38-.29.76-.58,1.11-.9l1.83-2.11h0a5.89,5.89,0,0,0,.32-.54,16.21,16.21,0,0,0,.8-1.48,8.33,8.33,0,0,0,.32-.8c.18-.49.34-1,.48-1.51.06-.25.12-.49.17-.76a13.45,13.45,0,0,0,.24-2.39,13.25,13.25,0,1,0-26.5,0,12.58,12.58,0,0,0,.25,2.39c0,.27.11.51.17.76.14.52.29,1,.47,1.51a6.38,6.38,0,0,0,.33.8,14,14,0,0,0,.79,1.48c.11.18.2.37.32.54h0L48.6,695h0c.28.26.58.49.88.72a8.29,8.29,0,0,0,.72.61h0a15.56,15.56,0,0,1-.08,22.34c-.14.1-.26.23-.4.34-.37.29-.75.57-1.1.9L46.81,722h0c-.12.17-.21.36-.32.54a13,13,0,0,0-.79,1.47,7.92,7.92,0,0,0-.33.8c-.18.49-.33,1-.47,1.52-.06.25-.12.5-.17.75a12.7,12.7,0,0,0-.25,2.41,13.25,13.25,0,0,0,26.5,0Z"/><path class="cls-17" d="M.89,724.81c.1-.27.2-.54.32-.8C1.09,724.27,1,724.54.89,724.81Z"/><path class="cls-17" d="M2,722.54c.11-.18.2-.37.32-.54C2.21,722.17,2.12,722.36,2,722.54Z"/><path class="cls-17" d="M.25,727.08c0-.25.1-.5.16-.75C.35,726.59.29,726.83.25,727.08Z"/><path class="cls-17" d="M26.08,726.33c.06.25.12.5.17.75C26.2,726.83,26.14,726.59,26.08,726.33Z"/><path class="cls-17" d="M24.16,722a4.25,4.25,0,0,1,.32.54A4.25,4.25,0,0,0,24.16,722Z"/><path class="cls-17" d="M22.35,719.9l1.8,2.08A12.74,12.74,0,0,0,22.35,719.9Z"/><path class="cls-17" d="M25.29,724c.11.26.21.53.32.8C25.5,724.54,25.4,724.27,25.29,724Z"/><path class="cls-17" d="M5.28,719a13.12,13.12,0,0,0-2.94,3l1.83-2.11A13.63,13.63,0,0,1,5.28,719Z"/><path class="cls-17" d="M21.47,719.17c-.24-.2-.47-.42-.73-.6h0A8.63,8.63,0,0,1,21.47,719.17Z"/><path class="cls-17" d="M26.25,687.77c-.05.27-.11.51-.17.76C26.14,688.28,26.2,688,26.25,687.77Z"/><path class="cls-17" d="M4.14,695l-1.8-2.08A13.71,13.71,0,0,0,4.14,695Z"/><path class="cls-17" d="M5,695.68c.25.21.47.43.73.61h0C5.49,696.11,5.27,695.89,5,695.68Z"/><path class="cls-17" d="M25.61,690c-.11.28-.21.55-.32.8C25.4,690.59,25.5,690.32,25.61,690Z"/><path class="cls-17" d="M1.21,690.84a8.33,8.33,0,0,1-.32-.8A8.33,8.33,0,0,0,1.21,690.84Z"/><path class="cls-17" d="M.41,688.53c-.06-.25-.12-.49-.16-.76C.29,688,.35,688.28.41,688.53Z"/><path class="cls-17" d="M21.22,695.89a13.08,13.08,0,0,0,2.93-3L22.32,695C22,695.31,21.59,695.6,21.22,695.89Z"/><path class="cls-17" d="M2.33,692.86c-.12-.17-.21-.36-.32-.54C2.12,692.5,2.21,692.69,2.33,692.86Z"/><path class="cls-17" d="M24.48,692.32a4.25,4.25,0,0,1-.32.54A4.25,4.25,0,0,0,24.48,692.32Z"/><path class="cls-17" d="M26.5,729.49a12.7,12.7,0,0,0-.25-2.41c-.05-.25-.11-.5-.17-.75-.14-.52-.29-1-.47-1.52-.11-.27-.21-.54-.32-.8a13.08,13.08,0,0,0-.81-1.47,4.25,4.25,0,0,0-.32-.54h0l-1.8-2.08h0c-.28-.27-.59-.49-.88-.73a8.63,8.63,0,0,0-.73-.6h0a15.57,15.57,0,0,1,.07-22.34c.15-.1.27-.23.41-.34.37-.29.76-.58,1.1-.9l1.83-2.11h0a4.25,4.25,0,0,0,.32-.54,14.17,14.17,0,0,0,.81-1.48c.11-.25.21-.52.32-.8.18-.49.33-1,.47-1.51.06-.25.12-.49.17-.76a12.5,12.5,0,0,0,.25-2.39,13.25,13.25,0,1,0-26.5,0,12.5,12.5,0,0,0,.25,2.39c0,.27.1.51.16.76A14.76,14.76,0,0,0,.89,690a8.33,8.33,0,0,0,.32.8,12.45,12.45,0,0,0,.8,1.48c.11.18.2.37.32.54h0L4.14,695h0c.27.26.58.49.87.72s.47.43.73.61h0a15.56,15.56,0,0,1-.07,22.34c-.15.1-.26.23-.4.34a13.63,13.63,0,0,0-1.11.9L2.34,722h0c-.12.17-.21.36-.32.54a11.6,11.6,0,0,0-.8,1.47c-.12.26-.22.53-.32.8a14.94,14.94,0,0,0-.48,1.52c-.06.25-.12.5-.16.75A12.7,12.7,0,0,0,0,729.49a13.25,13.25,0,0,0,26.5,0Z"/><path class="cls-17" d="M12,635.38v-3.63H57.36v3.63Z"/><path class="cls-17" d="M34.7,615.36a23.25,23.25,0,0,1-11.56-43.44l1.74,3.1a19.64,19.64,0,1,0,19.64,0l1.73-3.1A23.25,23.25,0,0,1,34.7,615.36Z"/><path class="cls-17" d="M46.41,534.82V556l11,3.85v4L12,547.44v-4L57.36,527V531ZM42.93,536,16.34,545.4l26.59,9.37Z"/><path class="cls-17" d="M12,478.61H57.36v3.18L18.45,511.1H57.36v3.63H12v-3.18l38.91-29.31H12Z"/><path class="cls-17" d="M12,404.43l45.33,13.22V426L21.1,436l36.26,9.9v8.23L12,467.51v-7.86l34.15-9.82L12,440.16v-8.39L46.33,422,12,412.13Z"/><path class="cls-17" d="M18.76,386.44H31.3V370.35h6.8v16.09H50.64V367.86h6.72v26H12v-26h6.73Z"/><path class="cls-17" d="M45.2,320.57c7.48,0,12.16,5.74,12.16,12.91V353H12V335.15c0-7.26,4.84-13.07,12.32-13.07a10.55,10.55,0,0,1,10,6A11,11,0,0,1,45.2,320.57ZM18.91,336v9.67H31.45V336a6.42,6.42,0,0,0-6.35-6.5A6.25,6.25,0,0,0,18.91,336Zm25.38-8A6.43,6.43,0,0,0,38,334.54v11.11H50.49V334.54A6.32,6.32,0,0,0,44.29,328Z"/></g></g></g></svg>