<svg xmlns="http://www.w3.org/2000/svg" viewBox="0 0 100.92 81.64"><defs><style>.cls-1{fill:#dd974c;}</style></defs><title>Asset 7</title><g id="Layer_2" data-name="Layer 2"><g id="Слой_1" data-name="Слой 1"><path class="cls-1" d="M85.87,72.27H33A2.69,2.69,0,0,0,30.27,75v1.66A2.69,2.69,0,0,0,33,79.32H94.79v-7Z"/><circle class="cls-1" cx="27.36" cy="14.92" r="14.92"/><path class="cls-1" d="M63.76,51.52l-34.19,0h-.81v-4l0-3.32A14.36,14.36,0,0,0,14.37,29.84q-.4,0-.81,0l0,0A13.55,13.55,0,0,0,0,43.39V81.64H28.76V65.34l-.38,0h-.05a7,7,0,0,1-5.13-2.25L11.53,50.32A1,1,0,1,1,13,49L24.67,61.71a5.14,5.14,0,0,0,3.7,1.69l1.37,0h34a5.95,5.95,0,0,0,0-11.9Z"/><path class="cls-1" d="M99.12,30.4a2.65,2.65,0,0,0-3.38,1.66L84.44,65H44a2.67,2.67,0,1,0,0,5.33H86.31a2.79,2.79,0,0,0,2.58-1.89l11.89-34.69A2.67,2.67,0,0,0,99.12,30.4Z"/></g></g></svg>