<svg xmlns="http://www.w3.org/2000/svg" viewBox="0 0 128.2 128.2"><defs><style>.cls-1{fill:#e49844;}</style></defs><title>Asset 5</title><g id="Layer_2" data-name="Layer 2"><g id="Слой_1" data-name="Слой 1"><path class="cls-1" d="M40.06,128.2V85.73c-4.8-2.4-8-8-8-13.62v-32c0-5.61,3.21-10.41,8-13.62V24a16,16,0,1,0-16,16H8c-4,0-8,4-8,8V80.13c0,4,4,8,8,8V128.2Z"/><path class="cls-1" d="M120.19,40.06h-16a16,16,0,1,0-16-16v2.4c4.81,3.21,8,8,8,13.62V72.11c0,5.61-3.2,11.22-8,13.62V128.2h32.05V88.14c4,0,8-4,8-8v-32C128.2,44.07,124.19,40.06,120.19,40.06Z"/><path class="cls-1" d="M80.13,16a16,16,0,1,1-16-16A16,16,0,0,1,80.13,16Z"/><path class="cls-1" d="M80.13,32.05h-32c-4,0-8,4-8,8V72.11c0,4,4,8,8,8V128.2H80.13V80.13c4,0,8-4,8-8v-32C88.14,36.06,84.13,32.05,80.13,32.05Z"/></g></g></svg>