<svg xmlns="http://www.w3.org/2000/svg" viewBox="0 0 116.18 116.16"><defs><style>.cls-1{fill:#519b60;}.cls-2{fill:none;}</style></defs><title>Asset 9</title><g id="Layer_2" data-name="Layer 2"><g id="Слой_1" data-name="Слой 1"><path class="cls-1" d="M115.42,48.7a44.13,44.13,0,0,0-5.74-17.31,58.08,58.08,0,1,0,3.52,45.05,59.15,59.15,0,0,0,2.21-8.93,58.26,58.26,0,0,0,.77-9.4A56.28,56.28,0,0,0,115.42,48.7ZM58.08,111.82a53.74,53.74,0,1,1,53.74-53.74A53.74,53.74,0,0,1,58.08,111.82Z"/><line class="cls-2" x1="38.13" y1="46.85" x2="55.63" y2="63.56"/><rect class="cls-1" x="43.55" y="46.74" width="6.66" height="28.07" rx="3.33" ry="3.33" transform="matrix(0.6, -0.8, 0.8, 0.6, -29.87, 61.74)"/><rect class="cls-1" x="63.5" y="36.89" width="6.66" height="38.32" rx="3.33" ry="3.33" transform="translate(59.21 -30.84) rotate(45)"/></g></g></svg>