<svg class="opacity" xmlns="http://www.w3.org/2000/svg" viewBox="0 0 703.4 403.08">
  <style>
    .opacity {
      opacity: 0.1;
    }
  </style>
   <defs>
      <style>.cls-1,.cls-4{fill:#fff;}.cls-2{fill:#211c1d;}.cls-3{fill:#a7a8ab;}.cls-3,.cls-4,.cls-5{stroke:#201600;stroke-miterlimit:10;}.cls-3,.cls-4,.cls-5,.cls-7{stroke-width:2px;}.cls-5,.cls-8{fill:#fbe492;}.cls-6{fill:#020608;}.cls-7{fill:#6595cc;stroke:#242122;stroke-linejoin:round;}.cls-9{fill:#dcc77f;}</style>
   </defs>
   <title>Asset 11</title>
   <g>
      <g>
         <line class="cls-1" x1="494.28" y1="301.56" x2="494.28" y2="313.98"/>
         <path class="cls-2" d="M494.28,315.68a1.7,1.7,0,0,1-1.7-1.7V301.56a1.7,1.7,0,0,1,3.4,0V314A1.7,1.7,0,0,1,494.28,315.68Z"/>
         <path class="cls-3" d="M702.4,289.9V72.18a23.5,23.5,0,0,0-23.5-23.51H309.67a23.5,23.5,0,0,0-23.51,23.51V289.9Z"/>
         <rect class="cls-4" x="286.16" y="289.9" width="416.24" height="35.74"/>
         <rect class="cls-5" x="300.91" y="63.98" width="386.75" height="210.61"/>
         <polygon class="cls-3" points="556.82 380.35 431.73 380.35 439.39 325.64 549.17 325.64 556.82 380.35"/>
         <line class="cls-1" x1="464.9" y1="307.77" x2="523.66" y2="307.77"/>
         <path class="cls-2" d="M523.66,309.47H464.9a1.7,1.7,0,1,1,0-3.39h58.76a1.7,1.7,0,1,1,0,3.39Z"/>
         <path class="cls-4" d="M596.32,398.46c0-.27,0-.51,0-.77a18.44,18.44,0,0,0-18.44-18.44H410.64a18.44,18.44,0,0,0-18.44,18.44c0,.26,0,.5,0,.77Z"/>
         <line class="cls-1" x1="494.29" y1="314.45" x2="494.27" y2="301.1"/>
         <path class="cls-2" d="M496,301.1l0,13.35c0,.21-.76.38-1.7.38s-1.7-.17-1.7-.38l0-13.34c0-.22.76-.39,1.7-.39S496,300.89,496,301.1Z"/>
         <path class="cls-1" d="M417.4,135H85.63a16.93,16.93,0,0,0-16.94,16.94v224.5H434.35V151.93A16.94,16.94,0,0,0,417.4,135Z"/>
         <path class="cls-6" d="M434.35,377.66H68.69a1.23,1.23,0,0,1-1.23-1.23V151.93a18.19,18.19,0,0,1,18.17-18.17H417.4a18.19,18.19,0,0,1,18.18,18.17v224.5A1.23,1.23,0,0,1,434.35,377.66ZM69.92,375.2h363.2V151.93a15.73,15.73,0,0,0-15.72-15.71H85.63a15.72,15.72,0,0,0-15.71,15.71Z"/>
         <rect class="cls-7" x="84.63" y="150.51" width="334.6" height="210.39"/>
         <path class="cls-7" d="M419.23,362.13H84.63a1.23,1.23,0,0,1-1.23-1.23V150.51a1.23,1.23,0,0,1,1.23-1.23h334.6a1.23,1.23,0,0,1,1.23,1.23V360.9A1.23,1.23,0,0,1,419.23,362.13ZM85.86,359.67H418V151.74H85.86Z"/>
         <polygon class="cls-1" points="251.52 376.43 10.14 376.43 10.14 387.98 21.08 401.85 251.52 401.85 481.96 401.85 492.9 387.98 492.9 376.43 251.52 376.43"/>
         <path class="cls-6" d="M482,403.08H21.08a1.26,1.26,0,0,1-1-.47L9.17,388.75a1.26,1.26,0,0,1-.26-.77V376.43a1.23,1.23,0,0,1,1.23-1.23H492.9a1.23,1.23,0,0,1,1.23,1.23V388a1.21,1.21,0,0,1-.27.77l-10.94,13.86A1.24,1.24,0,0,1,482,403.08ZM21.68,400.62H481.36l10.31-13.06v-9.9H11.37v9.9Z"/>
         <line class="cls-1" x1="10.14" y1="387.98" x2="174.57" y2="387.98"/>
         <path class="cls-6" d="M174.57,389.21H10.14a1.23,1.23,0,1,1,0-2.46H174.57a1.23,1.23,0,0,1,0,2.46Z"/>
         <path class="cls-1" d="M194.86,388a4.71,4.71,0,1,1-4.71-4.7A4.71,4.71,0,0,1,194.86,388Z"/>
         <path class="cls-6" d="M190.15,393.92a5.94,5.94,0,1,1,5.94-5.94A5.94,5.94,0,0,1,190.15,393.92Zm0-9.41a3.48,3.48,0,1,0,3.48,3.47A3.48,3.48,0,0,0,190.15,384.51Z"/>
         <path class="cls-1" d="M214,388a4.71,4.71,0,1,1-4.7-4.7A4.7,4.7,0,0,1,214,388Z"/>
         <path class="cls-6" d="M209.33,393.92a5.94,5.94,0,1,1,5.93-5.94A5.94,5.94,0,0,1,209.33,393.92Zm0-9.41A3.48,3.48,0,1,0,212.8,388,3.48,3.48,0,0,0,209.33,384.51Z"/>
         <path class="cls-8" d="M339.79,157.12V172.5h53.15V157.12c.53-17.3,8.57-30.07,15.39-36a67.35,67.35,0,1,0-83.94,0C334.52,128.6,339.27,139.81,339.79,157.12Z"/>
         <path class="cls-6" d="M392.94,173.61H339.79a1.11,1.11,0,0,1-1.11-1.11V157.12c-.51-17-5.12-27.85-14.95-35.15a68.46,68.46,0,1,1,85.3,0c-6.89,6-14.47,18.44-15,35.2V172.5A1.11,1.11,0,0,1,392.94,173.61Zm-52-2.22h50.93V157.12c.53-17.5,8.5-30.51,15.77-36.86a66.24,66.24,0,1,0-82.51,0c10.39,7.71,15.27,19.08,15.81,36.87Z"/>
         <path class="cls-1" d="M366.37,172.5V68.12"/>
         <path class="cls-6" d="M366.37,173.61a1.11,1.11,0,0,1-1.11-1.11V68.12a1.11,1.11,0,0,1,2.22,0V172.5A1.11,1.11,0,0,1,366.37,173.61Z"/>
         <line class="cls-1" x1="339.08" y1="90.8" x2="393.66" y2="90.8"/>
         <path class="cls-6" d="M393.66,91.91H339.08a1.11,1.11,0,0,1,0-2.22h54.58a1.11,1.11,0,1,1,0,2.22Z"/>
         <polygon class="cls-9" points="388.29 90.81 366.37 128.78 344.45 90.81 388.29 90.81"/>
         <path class="cls-6" d="M366.37,129.89a1.12,1.12,0,0,1-1-.56l-21.92-38a1.1,1.1,0,0,1,0-1.11,1.12,1.12,0,0,1,1-.55h43.84a1.12,1.12,0,0,1,1,.55,1.1,1.1,0,0,1,0,1.11l-21.92,38A1.12,1.12,0,0,1,366.37,129.89Zm-20-38,20,34.64,20-34.64Z"/>
         <rect class="cls-1" x="333.89" y="172.5" width="64.97" height="13.7"/>
         <path class="cls-6" d="M398.85,187.31h-65a1.11,1.11,0,0,1-1.11-1.11V172.5a1.11,1.11,0,0,1,1.11-1.11h65A1.11,1.11,0,0,1,400,172.5v13.7A1.11,1.11,0,0,1,398.85,187.31ZM335,185.09h62.74V173.61H335Z"/>
         <path class="cls-1" d="M366.37,237.19a8.88,8.88,0,0,0,8.88-8.89H357.48A8.89,8.89,0,0,0,366.37,237.19Z"/>
         <path class="cls-6" d="M366.37,238.3a10,10,0,0,1-10-10,1.11,1.11,0,0,1,1.11-1.11h17.77a1.11,1.11,0,0,1,1.11,1.11A10,10,0,0,1,366.37,238.3Zm-7.7-8.89a7.77,7.77,0,0,0,15.39,0Z"/>
         <path class="cls-1" d="M339.13,186.2v25.41a21.89,21.89,0,0,0,7.72,16.69h39a21.88,21.88,0,0,0,7.71-16.69V186.2Z"/>
         <path class="cls-6" d="M385.89,229.41h-39a1.14,1.14,0,0,1-.73-.26,23.07,23.07,0,0,1-8.1-17.54V186.2a1.11,1.11,0,0,1,1.11-1.11H393.6a1.12,1.12,0,0,1,1.12,1.11v25.41a23.08,23.08,0,0,1-8.11,17.54A1.1,1.1,0,0,1,385.89,229.41Zm-38.63-2.22h38.22a20.84,20.84,0,0,0,7-15.58v-24.3H340.24v24.3A20.85,20.85,0,0,0,347.26,227.19Z"/>
         <path class="cls-6" d="M397.9,199.51h-.09l-63.06-5.17a1.11,1.11,0,0,1-1-1.19,1.13,1.13,0,0,1,1.2-1L398,197.3a1.11,1.11,0,0,1-.09,2.21Z"/>
         <path class="cls-6" d="M397.9,211h-.09l-63.06-5.16a1.11,1.11,0,1,1,.18-2.21L398,208.73a1.11,1.11,0,0,1-.09,2.22Z"/>
         <path class="cls-1" d="M288.21,255.83a15.56,15.56,0,1,1,15.56,15.56A15.56,15.56,0,0,1,288.21,255.83Z"/>
         <path class="cls-1" d="M205.58,241.31c.32.13.63.25.94.39C206.21,241.56,205.9,241.44,205.58,241.31Z"/>
         <path class="cls-1" d="M208.26,242.63c.2.13.42.24.63.38C208.68,242.87,208.46,242.76,208.26,242.63Z"/>
         <path class="cls-1" d="M202.92,240.56l.88.2Z"/>
         <path class="cls-1" d="M203.8,270.9l-.88.2Z"/>
         <path class="cls-1" d="M208.89,268.65c-.21.14-.43.25-.63.37C208.46,268.9,208.68,268.79,208.89,268.65Z"/>
         <path class="cls-1" d="M211.36,266.52l-2.45,2.11A15,15,0,0,0,211.36,266.52Z"/>
         <path class="cls-1" d="M206.52,270l-.94.37Z"/>
         <path class="cls-1" d="M212.45,246.47a15.2,15.2,0,0,0-3.54-3.44l2.46,2.14C211.76,245.58,212.1,246,212.45,246.47Z"/>
         <path class="cls-1" d="M212.21,265.49c.23-.29.49-.56.7-.86h0C212.7,264.94,212.44,265.2,212.21,265.49Z"/>
         <path class="cls-1" d="M249.07,271.1l-.88-.2Z"/>
         <path class="cls-1" d="M240.64,245.13l2.44-2.1A15.28,15.28,0,0,0,240.64,245.13Z"/>
         <path class="cls-1" d="M239.77,246.17c-.23.29-.49.55-.7.86h0C239.29,246.72,239.54,246.46,239.77,246.17Z"/>
         <path class="cls-1" d="M246.4,270.34c-.32-.12-.63-.24-.93-.37C245.77,270.1,246.08,270.22,246.4,270.34Z"/>
         <path class="cls-1" d="M245.47,241.7c.3-.14.61-.26.93-.39C246.08,241.44,245.77,241.56,245.47,241.7Z"/>
         <path class="cls-1" d="M248.19,240.76l.88-.2Z"/>
         <path class="cls-1" d="M239.54,265.19a15,15,0,0,0,3.54,3.44l-2.48-2.15A14.53,14.53,0,0,1,239.54,265.19Z"/>
         <path class="cls-1" d="M243.09,243c.21-.14.43-.25.65-.38C243.52,242.76,243.3,242.87,243.09,243Z"/>
         <path class="cls-1" d="M243.74,269c-.22-.12-.44-.23-.65-.37C243.3,268.79,243.52,268.9,243.74,269Z"/>
         <path class="cls-1" d="M200.1,271.39a15.41,15.41,0,0,0,2.82-.29l.88-.2c.6-.16,1.21-.35,1.78-.56l.94-.37a17.29,17.29,0,0,0,1.74-1c.2-.12.42-.23.63-.37h0l0,0,2.45-2.11h0c.31-.33.56-.69.85-1s.49-.55.7-.86h0a18.28,18.28,0,0,1,26.24.08c.12.18.27.32.39.48a14.53,14.53,0,0,0,1.06,1.29l2.48,2.15v0h0c.21.14.43.25.65.37a13.68,13.68,0,0,0,1.73,1c.3.13.61.25.93.37.58.21,1.18.4,1.79.56l.88.2a15.56,15.56,0,1,0,0-30.54l-.88.2c-.61.16-1.21.34-1.79.55-.32.13-.63.25-.93.39a13.58,13.58,0,0,0-1.73.93c-.22.13-.44.24-.65.38h0v0l-2.44,2.1h0c-.3.33-.56.69-.85,1s-.48.55-.69.85h0a18.27,18.27,0,0,1-26.23-.09c-.12-.17-.27-.31-.39-.47-.35-.45-.69-.89-1.08-1.3L208.91,243l0,0h0c-.21-.14-.43-.25-.63-.38a17.11,17.11,0,0,0-1.74-.93c-.31-.14-.62-.26-.94-.39-.57-.21-1.18-.39-1.78-.55l-.88-.2a15.41,15.41,0,0,0-2.82-.29,15.56,15.56,0,1,0,0,31.12Z"/>
         <path class="cls-1" d="M257.46,241.31c.32.13.63.25.94.39C258.09,241.56,257.78,241.44,257.46,241.31Z"/>
         <path class="cls-1" d="M260.13,242.63c.21.13.43.24.64.38C260.56,242.87,260.34,242.76,260.13,242.63Z"/>
         <path class="cls-1" d="M254.8,240.56l.88.2Z"/>
         <path class="cls-1" d="M255.68,270.9l-.88.2Z"/>
         <path class="cls-1" d="M260.77,268.65c-.21.14-.43.25-.64.37C260.34,268.9,260.56,268.79,260.77,268.65Z"/>
         <path class="cls-1" d="M263.23,266.52l-2.44,2.11A15.34,15.34,0,0,0,263.23,266.52Z"/>
         <path class="cls-1" d="M258.4,270l-.94.37Z"/>
         <path class="cls-1" d="M264.33,246.47a15.4,15.4,0,0,0-3.54-3.44l2.46,2.14C263.64,245.58,264,246,264.33,246.47Z"/>
         <path class="cls-1" d="M264.09,265.49c.23-.29.48-.56.7-.86h0C264.57,264.94,264.32,265.2,264.09,265.49Z"/>
         <path class="cls-1" d="M301,271.1l-.88-.2Z"/>
         <path class="cls-1" d="M292.51,245.13,295,243A14.93,14.93,0,0,0,292.51,245.13Z"/>
         <path class="cls-1" d="M291.66,246.17c-.23.29-.49.55-.71.86h0C291.17,246.72,291.43,246.46,291.66,246.17Z"/>
         <path class="cls-1" d="M298.28,270.34c-.31-.12-.63-.24-.93-.37C297.65,270.1,298,270.22,298.28,270.34Z"/>
         <path class="cls-1" d="M297.35,241.7c.3-.14.62-.26.93-.39C298,241.44,297.65,241.56,297.35,241.7Z"/>
         <path class="cls-1" d="M300.07,240.76l.88-.2Z"/>
         <path class="cls-1" d="M291.42,265.19a15,15,0,0,0,3.54,3.44l-2.48-2.15A16.52,16.52,0,0,1,291.42,265.19Z"/>
         <path class="cls-1" d="M295,243c.19-.14.42-.25.64-.38C295.4,242.76,295.17,242.87,295,243Z"/>
         <path class="cls-1" d="M295.62,269a5.64,5.64,0,0,1-.64-.37A5.64,5.64,0,0,0,295.62,269Z"/>
         <path class="cls-1" d="M232.22,267.42c.31.12.63.24.93.38C232.85,267.66,232.53,267.54,232.22,267.42Z"/>
         <path class="cls-1" d="M234.88,268.74c.21.13.44.23.63.37C235.32,269,235.09,268.87,234.88,268.74Z"/>
         <path class="cls-1" d="M229.54,266.67c.3.05.59.12.89.19C230.13,266.79,229.84,266.72,229.54,266.67Z"/>
         <path class="cls-1" d="M230.43,297c-.3.07-.59.14-.89.19C229.84,297.15,230.13,297.08,230.43,297Z"/>
         <path class="cls-1" d="M235.51,294.75a5,5,0,0,1-.63.38A5,5,0,0,0,235.51,294.75Z"/>
         <path class="cls-1" d="M238,292.63l-2.45,2.11A15,15,0,0,0,238,292.63Z"/>
         <path class="cls-1" d="M233.15,296.07c-.3.14-.62.25-.93.38C232.53,296.32,232.85,296.21,233.15,296.07Z"/>
         <path class="cls-1" d="M239.07,272.58a14.87,14.87,0,0,0-3.54-3.45l2.48,2.15A14.66,14.66,0,0,1,239.07,272.58Z"/>
         <path class="cls-1" d="M238.84,291.6c.23-.3.49-.56.7-.86h0C239.33,291.05,239.07,291.3,238.84,291.6Z"/>
         <path class="cls-1" d="M275.7,297.2c-.31-.05-.59-.12-.89-.19C275.11,297.08,275.39,297.15,275.7,297.2Z"/>
         <path class="cls-1" d="M267.26,271.24l2.44-2.11A16.87,16.87,0,0,0,267.26,271.24Z"/>
         <path class="cls-1" d="M266.41,272.28c-.24.29-.49.55-.7.85h0C265.92,272.82,266.17,272.57,266.41,272.28Z"/>
         <path class="cls-1" d="M273,296.45c-.32-.13-.63-.24-.93-.38C272.4,296.21,272.71,296.32,273,296.45Z"/>
         <path class="cls-1" d="M272.1,267.8c.3-.14.61-.26.93-.38C272.71,267.54,272.4,267.66,272.1,267.8Z"/>
         <path class="cls-1" d="M274.81,266.86c.3-.07.58-.14.89-.19C275.39,266.72,275.11,266.79,274.81,266.86Z"/>
         <path class="cls-1" d="M266.17,291.29a15.41,15.41,0,0,0,3.53,3.45l-2.47-2.15A16.68,16.68,0,0,1,266.17,291.29Z"/>
         <path class="cls-1" d="M269.73,269.11c.2-.14.42-.24.63-.37C270.15,268.87,269.93,269,269.73,269.11Z"/>
         <path class="cls-1" d="M270.36,295.13a5.85,5.85,0,0,1-.63-.38A5.85,5.85,0,0,0,270.36,295.13Z"/>
         <path class="cls-1" d="M226.72,297.49a14.5,14.5,0,0,0,2.82-.29c.3-.05.59-.12.89-.19.61-.17,1.2-.35,1.79-.56.31-.13.63-.24.93-.38a16.88,16.88,0,0,0,1.73-.94,5,5,0,0,0,.63-.38h0l2.45-2.11h0c.31-.32.57-.69.86-1s.49-.55.7-.86h0a18.26,18.26,0,0,1,26.23.08c.12.17.27.31.4.47a16.68,16.68,0,0,0,1.06,1.3l2.47,2.15h0a5.85,5.85,0,0,0,.63.38,18.17,18.17,0,0,0,1.74.94c.3.14.61.25.93.38.58.21,1.18.39,1.78.56.3.07.58.14.89.19a14.66,14.66,0,0,0,2.82.29,15.56,15.56,0,1,0-2.82-30.82c-.31.05-.59.12-.89.19-.6.17-1.2.35-1.78.56-.32.12-.63.24-.93.38a14.6,14.6,0,0,0-1.74.94c-.21.13-.43.23-.63.37h0l0,0-2.44,2.11h0c-.3.32-.57.68-.85,1s-.49.54-.7.85h0a18.27,18.27,0,0,1-26.24-.08c-.12-.17-.27-.31-.4-.47a14.66,14.66,0,0,0-1.06-1.3l-2.48-2.15v0h0c-.19-.14-.42-.24-.63-.37a13.74,13.74,0,0,0-1.73-.94c-.3-.14-.62-.26-.93-.38-.59-.21-1.18-.39-1.79-.56-.3-.07-.59-.14-.89-.19a15.32,15.32,0,0,0-2.82-.29,15.56,15.56,0,0,0,0,31.11Z"/>
         <path class="cls-1" d="M232.22,215.21c.31.12.63.24.93.38C232.85,215.45,232.53,215.33,232.22,215.21Z"/>
         <path class="cls-1" d="M234.88,216.53a6.5,6.5,0,0,1,.63.37A6.5,6.5,0,0,0,234.88,216.53Z"/>
         <path class="cls-1" d="M229.54,214.46c.3,0,.59.12.89.19C230.13,214.58,229.84,214.51,229.54,214.46Z"/>
         <path class="cls-1" d="M230.43,244.79c-.3.08-.59.15-.89.2C229.84,244.94,230.13,244.87,230.43,244.79Z"/>
         <path class="cls-1" d="M235.51,242.54a5,5,0,0,1-.63.38A5,5,0,0,0,235.51,242.54Z"/>
         <path class="cls-1" d="M238,240.42l-2.45,2.11A15,15,0,0,0,238,240.42Z"/>
         <path class="cls-1" d="M233.15,243.86c-.3.14-.62.25-.93.38C232.53,244.11,232.85,244,233.15,243.86Z"/>
         <path class="cls-1" d="M239.07,220.37a15.06,15.06,0,0,0-3.54-3.45l2.48,2.15A14.66,14.66,0,0,1,239.07,220.37Z"/>
         <path class="cls-1" d="M238.84,239.38c.23-.29.49-.55.7-.85h0C239.33,238.83,239.07,239.09,238.84,239.38Z"/>
         <path class="cls-1" d="M275.7,245a8.82,8.82,0,0,1-.89-.2A8.82,8.82,0,0,0,275.7,245Z"/>
         <path class="cls-1" d="M267.26,219l2.44-2.11A16.28,16.28,0,0,0,267.26,219Z"/>
         <path class="cls-1" d="M266.41,220.07c-.24.29-.49.55-.7.85h0C265.92,220.61,266.17,220.36,266.41,220.07Z"/>
         <path class="cls-1" d="M273,244.24c-.32-.13-.63-.24-.93-.38C272.4,244,272.71,244.11,273,244.24Z"/>
         <path class="cls-1" d="M272.1,215.59c.3-.14.61-.26.93-.38C272.71,215.33,272.4,215.45,272.1,215.59Z"/>
         <path class="cls-1" d="M274.81,214.65c.3-.07.58-.14.89-.19C275.39,214.51,275.11,214.58,274.81,214.65Z"/>
         <path class="cls-1" d="M266.17,239.08a15.41,15.41,0,0,0,3.53,3.45l-2.47-2.15C266.85,240,266.51,239.52,266.17,239.08Z"/>
         <path class="cls-1" d="M269.73,216.9c.2-.14.42-.25.63-.37C270.15,216.65,269.93,216.76,269.73,216.9Z"/>
         <path class="cls-1" d="M270.36,242.92a5.85,5.85,0,0,1-.63-.38A5.85,5.85,0,0,0,270.36,242.92Z"/>
         <path class="cls-1" d="M226.72,245.28a14.5,14.5,0,0,0,2.82-.29c.3-.05.59-.12.89-.2.61-.16,1.2-.34,1.79-.55.31-.13.63-.24.93-.38a16.88,16.88,0,0,0,1.73-.94,5,5,0,0,0,.63-.38h0l2.45-2.11h0c.31-.32.57-.69.86-1s.49-.55.7-.85h0a18.26,18.26,0,0,1,26.23.08c.12.17.27.31.4.47.34.44.68.89,1.06,1.3l2.47,2.15h0a5.85,5.85,0,0,0,.63.38,18.17,18.17,0,0,0,1.74.94c.3.14.61.25.93.38.58.21,1.18.39,1.78.55a8.82,8.82,0,0,0,.89.2,14.5,14.5,0,0,0,2.82.29,15.56,15.56,0,1,0,0-31.11,14.5,14.5,0,0,0-2.82.29c-.31,0-.59.12-.89.19-.6.16-1.2.35-1.78.56-.32.12-.63.24-.93.38a14.6,14.6,0,0,0-1.74.94c-.21.12-.43.23-.63.37h0l0,0L267.26,219h0c-.3.32-.57.68-.85,1s-.49.54-.7.85h0a18.27,18.27,0,0,1-26.24-.08c-.12-.18-.27-.31-.4-.47a14.66,14.66,0,0,0-1.06-1.3l-2.48-2.15v0h0a6.5,6.5,0,0,0-.63-.37,13.74,13.74,0,0,0-1.73-.94c-.3-.14-.62-.26-.93-.38-.59-.21-1.18-.4-1.79-.56-.3-.07-.59-.14-.89-.19a14.5,14.5,0,0,0-2.82-.29,15.56,15.56,0,0,0,0,31.11Z"/>
         <path class="cls-6" d="M88.39,108.17a1.11,1.11,0,0,1-.72.4,50.57,50.57,0,0,0-44.3,56.16,1.08,1.08,0,0,1-2.14.26,52.72,52.72,0,0,1,46.19-58.56,1.08,1.08,0,0,1,1.2.94A1.12,1.12,0,0,1,88.39,108.17Z"/>
         <path class="cls-6" d="M86,87.47a1.1,1.1,0,0,1-.72.41,71.51,71.51,0,0,0-62.56,79.3,1.08,1.08,0,1,1-2.14.25A73.67,73.67,0,0,1,85,85.74a1.07,1.07,0,0,1,1.19.94A1,1,0,0,1,86,87.47Z"/>
         <path class="cls-6" d="M83.6,67.6a1,1,0,0,1-.72.4A91.43,91.43,0,0,0,2.8,169.52a1.08,1.08,0,0,1-2.14.26,93.58,93.58,0,0,1,82-103.92,1.08,1.08,0,0,1,1.2,1A1.11,1.11,0,0,1,83.6,67.6Z"/>
         <line class="cls-1" x1="450.17" y1="386.75" x2="492.58" y2="386.75"/>
         <path class="cls-6" d="M492.58,388H450.17c-.17,0-.32-.55-.32-1.23s.15-1.23.32-1.23h42.41c.18,0,.32.55.32,1.23S492.76,388,492.58,388Z"/>
         <line class="cls-1" x1="255.36" y1="126.56" x2="330.29" y2="126.56"/>
         <path class="cls-6" d="M330.29,127.79H255.36c-.31,0-.56-.55-.56-1.23s.25-1.23.56-1.23h74.93c.31,0,.56.54.56,1.23S330.6,127.79,330.29,127.79Z"/>
         <line class="cls-1" x1="274.35" y1="85.73" x2="302.05" y2="85.73"/>
         <path class="cls-6" d="M302.05,87h-27.7c-.11,0-.21-.55-.21-1.23s.1-1.23.21-1.23h27.7c.11,0,.2.55.2,1.23S302.16,87,302.05,87Z"/>
         <line class="cls-1" x1="404.28" y1="12.88" x2="433.14" y2="12.88"/>
         <path class="cls-6" d="M433.14,14.11H404.28c-.12,0-.21-.55-.21-1.23s.09-1.23.21-1.23h28.86c.12,0,.21.55.21,1.23S433.26,14.11,433.14,14.11Z"/>
         <line class="cls-1" x1="422.36" y1="30.88" x2="461.06" y2="30.88"/>
         <path class="cls-6" d="M461.06,32.11h-38.7c-.16,0-.29-.55-.29-1.23s.13-1.23.29-1.23h38.7c.16,0,.29.55.29,1.23S461.22,32.11,461.06,32.11Z"/>
      </g>
   </g>
</svg>