<svg xmlns="http://www.w3.org/2000/svg" viewBox="0 0 444.85 70.96"><defs><style>.cls-1{fill:#5b7bbb;}.cls-2{fill:#595651;}</style></defs><title>Asset 2</title><g id="Layer_2" data-name="Layer 2"><g id="Layer_1-2" data-name="Layer 1"><path class="cls-1" d="M88.3,35.48a13.25,13.25,0,1,1,13.24,13.25A13.25,13.25,0,0,1,88.3,35.48Z"/><path class="cls-1" d="M17.93,23.12l.79.32Z"/><path class="cls-1" d="M20.2,24.24c.17.11.37.2.54.32C20.57,24.44,20.37,24.35,20.2,24.24Z"/><path class="cls-1" d="M15.66,22.48c.25,0,.5.11.75.16C16.16,22.59,15.91,22.52,15.66,22.48Z"/><path class="cls-1" d="M16.41,48.31l-.75.17Z"/><path class="cls-1" d="M20.74,46.39c-.17.13-.37.22-.54.33C20.37,46.61,20.57,46.52,20.74,46.39Z"/><path class="cls-1" d="M22.84,44.59l-2.08,1.79A13.18,13.18,0,0,0,22.84,44.59Z"/><path class="cls-1" d="M18.72,47.52c-.26.12-.52.21-.79.32C18.2,47.73,18.46,47.64,18.72,47.52Z"/><path class="cls-1" d="M23.77,27.51a12.88,12.88,0,0,0-3-2.93l2.1,1.82A13.76,13.76,0,0,1,23.77,27.51Z"/><path class="cls-1" d="M23.57,43.71c.2-.25.42-.48.59-.73h0C24,43.24,23.77,43.46,23.57,43.71Z"/><path class="cls-1" d="M55,48.48l-.75-.17Z"/><path class="cls-1" d="M47.78,26.37l2.08-1.79A12.68,12.68,0,0,0,47.78,26.37Z"/><path class="cls-1" d="M47.05,27.25c-.2.25-.42.47-.6.73h0C46.63,27.72,46.85,27.5,47.05,27.25Z"/><path class="cls-1" d="M52.69,47.84c-.27-.11-.54-.2-.79-.32C52.15,47.64,52.42,47.73,52.69,47.84Z"/><path class="cls-1" d="M51.9,23.44l.79-.32Z"/><path class="cls-1" d="M54.21,22.64c.25-.05.49-.12.75-.16C54.7,22.52,54.46,22.59,54.21,22.64Z"/><path class="cls-1" d="M46.84,43.45a13.12,13.12,0,0,0,3,2.93l-2.11-1.83A14,14,0,0,1,46.84,43.45Z"/><path class="cls-1" d="M49.87,24.56c.17-.12.36-.21.55-.32C50.23,24.35,50,24.44,49.87,24.56Z"/><path class="cls-1" d="M50.42,46.72a5,5,0,0,1-.55-.33A5,5,0,0,0,50.42,46.72Z"/><path class="cls-1" d="M13.25,48.73a12.79,12.79,0,0,0,2.41-.25l.75-.17a15.73,15.73,0,0,0,1.52-.47c.27-.11.53-.2.79-.32a15,15,0,0,0,1.48-.8c.17-.11.37-.2.54-.33h0l2.08-1.79h0c.27-.27.48-.58.73-.87s.42-.47.59-.73h0a15.56,15.56,0,0,1,22.35.07c.1.14.23.26.33.4a14,14,0,0,0,.91,1.1l2.11,1.83h0a5,5,0,0,0,.55.33,13.93,13.93,0,0,0,1.48.8c.25.12.52.21.79.32a14.91,14.91,0,0,0,1.52.47l.75.17a12.69,12.69,0,0,0,2.4.25,13.25,13.25,0,1,0,0-26.5,12.69,12.69,0,0,0-2.4.25c-.26,0-.5.11-.75.16-.52.14-1,.3-1.52.48l-.79.32a12.34,12.34,0,0,0-1.48.8c-.19.11-.38.2-.55.32h0v0l-2.08,1.79h0c-.26.27-.48.58-.72.87s-.42.47-.6.73h0a15.57,15.57,0,0,1-22.35-.07c-.09-.14-.22-.26-.33-.4a13.76,13.76,0,0,0-.91-1.11l-2.1-1.82,0,0h0c-.17-.12-.37-.21-.54-.32a13.15,13.15,0,0,0-1.48-.8l-.79-.32c-.49-.18-1-.34-1.52-.48-.25-.05-.5-.12-.75-.16a12.79,12.79,0,0,0-2.41-.25,13.25,13.25,0,0,0,0,26.5Z"/><path class="cls-1" d="M62.11,23.12l.8.32Z"/><path class="cls-1" d="M64.38,24.24c.18.11.37.2.55.32C64.75,24.44,64.56,24.35,64.38,24.24Z"/><path class="cls-1" d="M59.84,22.48c.25,0,.5.11.75.16C60.34,22.59,60.09,22.52,59.84,22.48Z"/><path class="cls-1" d="M60.59,48.31l-.75.17Z"/><path class="cls-1" d="M64.93,46.39c-.18.13-.37.22-.55.33C64.56,46.61,64.75,46.52,64.93,46.39Z"/><path class="cls-1" d="M67,44.59l-2.08,1.79A13.18,13.18,0,0,0,67,44.59Z"/><path class="cls-1" d="M62.91,47.52c-.27.12-.53.21-.8.32C62.38,47.73,62.64,47.64,62.91,47.52Z"/><path class="cls-1" d="M68,27.51a13.12,13.12,0,0,0-3-2.93L67,26.4C67.37,26.75,67.66,27.13,68,27.51Z"/><path class="cls-1" d="M67.75,43.71c.2-.25.42-.48.6-.73h0C68.17,43.24,68,43.46,67.75,43.71Z"/><path class="cls-1" d="M99.15,48.48l-.75-.17Z"/><path class="cls-1" d="M92,26.37,94,24.58A12.68,12.68,0,0,0,92,26.37Z"/><path class="cls-1" d="M91.23,27.25c-.2.25-.42.47-.6.73h0C90.82,27.72,91,27.5,91.23,27.25Z"/><path class="cls-1" d="M96.87,47.84c-.27-.11-.54-.2-.79-.32C96.33,47.64,96.6,47.73,96.87,47.84Z"/><path class="cls-1" d="M96.08,23.44l.79-.32Z"/><path class="cls-1" d="M98.4,22.64c.24-.05.49-.12.75-.16C98.89,22.52,98.65,22.59,98.4,22.64Z"/><path class="cls-1" d="M91,43.45a12.88,12.88,0,0,0,3,2.93l-2.11-1.83A13.88,13.88,0,0,1,91,43.45Z"/><path class="cls-1" d="M94.06,24.56c.16-.12.36-.21.54-.32C94.42,24.35,94.22,24.44,94.06,24.56Z"/><path class="cls-1" d="M94.6,46.72a4.86,4.86,0,0,1-.54-.33A4.86,4.86,0,0,0,94.6,46.72Z"/><path class="cls-1" d="M40.61,45.35a7.92,7.92,0,0,1,.8.33A7.92,7.92,0,0,0,40.61,45.35Z"/><path class="cls-1" d="M42.87,46.47c.19.11.38.2.55.32C43.25,46.67,43.06,46.58,42.87,46.47Z"/><path class="cls-1" d="M38.33,44.71l.76.17Z"/><path class="cls-1" d="M39.09,70.55l-.76.17Z"/><path class="cls-1" d="M43.42,68.63a4.94,4.94,0,0,1-.55.32A4.94,4.94,0,0,0,43.42,68.63Z"/><path class="cls-1" d="M45.52,66.82l-2.09,1.8A13.32,13.32,0,0,0,45.52,66.82Z"/><path class="cls-1" d="M41.41,69.75c-.26.12-.53.22-.8.32C40.88,70,41.15,69.87,41.41,69.75Z"/><path class="cls-1" d="M46.45,49.74a12.93,12.93,0,0,0-3-2.93l2.11,1.83C45.87,49,46.16,49.37,46.45,49.74Z"/><path class="cls-1" d="M46.25,65.94c.2-.25.42-.48.59-.73h0C46.67,65.47,46.45,65.69,46.25,65.94Z"/><path class="cls-1" d="M77.64,70.72l-.75-.17Z"/><path class="cls-1" d="M70.45,48.6l2.08-1.79A14.68,14.68,0,0,0,70.45,48.6Z"/><path class="cls-1" d="M69.73,49.49c-.2.24-.42.47-.6.73h0C69.31,50,69.53,49.73,69.73,49.49Z"/><path class="cls-1" d="M75.37,70.07c-.28-.1-.54-.2-.8-.32C74.83,69.87,75.09,70,75.37,70.07Z"/><path class="cls-1" d="M74.57,45.68a7.07,7.07,0,0,1,.8-.33A7.07,7.07,0,0,0,74.57,45.68Z"/><path class="cls-1" d="M76.89,44.88l.75-.17Z"/><path class="cls-1" d="M69.52,65.68a13.53,13.53,0,0,0,3,2.94l-2.1-1.83C70.11,66.44,69.82,66.06,69.52,65.68Z"/><path class="cls-1" d="M72.55,46.79c.18-.12.37-.21.55-.32C72.92,46.58,72.73,46.67,72.55,46.79Z"/><path class="cls-1" d="M73.1,69c-.18-.1-.37-.2-.55-.32C72.73,68.75,72.92,68.85,73.1,69Z"/><path class="cls-1" d="M35.92,71a13.49,13.49,0,0,0,2.41-.24l.76-.17c.52-.14,1-.3,1.52-.48.27-.1.54-.2.8-.32a14.66,14.66,0,0,0,1.46-.8,4.94,4.94,0,0,0,.55-.32h0l2.09-1.8h0c.27-.27.49-.58.73-.87s.42-.47.59-.73h0a15.55,15.55,0,0,1,22.34.07c.11.15.24.27.34.4.3.38.59.76.91,1.11l2.1,1.83h0c.18.12.37.22.55.32a14.82,14.82,0,0,0,1.47.8c.26.12.52.22.8.32.49.18,1,.34,1.52.48l.75.17A13.65,13.65,0,0,0,80,71a13.25,13.25,0,1,0,0-26.5,12.77,12.77,0,0,0-2.4.25l-.75.17c-.52.14-1,.29-1.52.47a7.07,7.07,0,0,0-.8.33,13,13,0,0,0-1.47.79c-.18.11-.37.2-.55.32h0l0,0L70.45,48.6h0c-.26.28-.48.58-.72.88s-.42.46-.6.72h0a15.56,15.56,0,0,1-22.34-.08c-.1-.14-.23-.26-.34-.4-.29-.37-.58-.75-.91-1.1l-2.11-1.83v0h0c-.17-.12-.36-.21-.55-.32a12.81,12.81,0,0,0-1.46-.79,7.92,7.92,0,0,0-.8-.33c-.5-.18-1-.33-1.52-.47l-.76-.17a12.62,12.62,0,0,0-2.41-.25,13.25,13.25,0,0,0,0,26.5Z"/><path class="cls-1" d="M40.61.89c.27.1.54.2.8.32C41.15,1.09,40.88,1,40.61.89Z"/><path class="cls-1" d="M42.87,2c.19.11.38.2.55.32C43.25,2.21,43.06,2.12,42.87,2Z"/><path class="cls-1" d="M38.33.25c.25,0,.51.1.76.16C38.83.35,38.59.29,38.33.25Z"/><path class="cls-1" d="M39.09,26.08l-.76.17Z"/><path class="cls-1" d="M43.42,24.16a3.76,3.76,0,0,1-.55.32A3.76,3.76,0,0,0,43.42,24.16Z"/><path class="cls-1" d="M45.52,22.35l-2.09,1.8A12.81,12.81,0,0,0,45.52,22.35Z"/><path class="cls-1" d="M41.41,25.29l-.8.32Z"/><path class="cls-1" d="M46.45,5.28a13,13,0,0,0-3-2.94l2.11,1.83A13.76,13.76,0,0,1,46.45,5.28Z"/><path class="cls-1" d="M46.25,21.47a8.19,8.19,0,0,0,.59-.73h0A7,7,0,0,1,46.25,21.47Z"/><path class="cls-1" d="M77.64,26.25l-.75-.17Z"/><path class="cls-1" d="M70.45,4.14l2.08-1.8A14.76,14.76,0,0,0,70.45,4.14Z"/><path class="cls-1" d="M69.73,5c-.21.25-.42.47-.6.73h0C69.31,5.49,69.52,5.27,69.73,5Z"/><path class="cls-1" d="M75.37,25.61l-.8-.32Z"/><path class="cls-1" d="M74.57,1.21c.26-.12.52-.22.8-.32C75.09,1,74.83,1.09,74.57,1.21Z"/><path class="cls-1" d="M76.89.41c.25-.06.49-.12.75-.16C77.38.29,77.14.35,76.89.41Z"/><path class="cls-1" d="M69.52,21.22a13.49,13.49,0,0,0,3,2.93l-2.1-1.83C70.11,22,69.82,21.59,69.52,21.22Z"/><path class="cls-1" d="M72.55,2.33c.18-.12.37-.21.55-.32C72.92,2.12,72.73,2.21,72.55,2.33Z"/><path class="cls-1" d="M73.1,24.48a5.21,5.21,0,0,1-.55-.32A5.21,5.21,0,0,0,73.1,24.48Z"/><path class="cls-1" d="M35.92,26.5a12.62,12.62,0,0,0,2.41-.25l.76-.17c.52-.14,1-.29,1.52-.47l.8-.32a12.94,12.94,0,0,0,1.46-.81,3.76,3.76,0,0,0,.55-.32h0l2.09-1.8h0c.27-.28.49-.59.73-.88a7,7,0,0,0,.59-.73h0a15.57,15.57,0,0,1,22.34.07c.11.15.24.27.34.41.3.37.59.76.91,1.1l2.1,1.83h0a5.21,5.21,0,0,0,.55.32,13.08,13.08,0,0,0,1.47.81l.8.32c.49.18,1,.33,1.52.47l.75.17a12.69,12.69,0,0,0,2.4.25A13.25,13.25,0,0,0,80,0a12.69,12.69,0,0,0-2.4.25c-.26,0-.5.1-.75.16a14.94,14.94,0,0,0-1.52.48c-.28.1-.54.2-.8.32A11.6,11.6,0,0,0,73.1,2c-.18.11-.37.2-.55.32h0l-2.08,1.8h0c-.26.27-.48.58-.72.87s-.42.47-.6.73h0a15.56,15.56,0,0,1-22.34-.07c-.1-.15-.23-.26-.34-.4a13.76,13.76,0,0,0-.91-1.11L43.43,2.34h0c-.17-.12-.36-.21-.55-.32a11.48,11.48,0,0,0-1.46-.8c-.26-.12-.53-.22-.8-.32A15.78,15.78,0,0,0,39.09.41c-.25-.06-.51-.12-.76-.16A12.62,12.62,0,0,0,35.92,0a13.25,13.25,0,0,0,0,26.5Z"/><path class="cls-2" d="M130,12h3.62V57.36H130Z"/><path class="cls-2" d="M150.06,34.7A23.25,23.25,0,0,1,193.5,23.14l-3.1,1.74a19.64,19.64,0,1,0,0,19.64l3.1,1.73A23.25,23.25,0,0,1,150.06,34.7Z"/><path class="cls-2" d="M230.59,46.41H209.44l-3.85,11h-4L218,12h4l16.39,45.33h-3.92Zm-1.21-3.48L220,16.34l-9.37,26.59Z"/><path class="cls-2" d="M286.8,12V57.36h-3.17L254.32,18.45V57.36h-3.63V12h3.17l29.31,38.91V12Z"/><path class="cls-2" d="M361,12,347.77,57.36h-8.31l-10-36.26-9.89,36.26h-8.24L297.91,12h7.86l9.82,34.15L325.26,12h8.38l9.75,34.3L353.28,12Z"/><path class="cls-2" d="M379,18.76V31.3h16.09v6.8H379V50.64h18.59v6.72h-26V12h26v6.73Z"/><path class="cls-2" d="M444.85,45.2c0,7.48-5.74,12.16-12.92,12.16H412.44V12h17.83c7.25,0,13.07,4.84,13.07,12.32a10.55,10.55,0,0,1-6,10A11,11,0,0,1,444.85,45.2ZM429.44,18.91h-9.67V31.45h9.67a6.42,6.42,0,0,0,6.5-6.35A6.25,6.25,0,0,0,429.44,18.91Zm8,25.38a6.44,6.44,0,0,0-6.58-6.35h-11.1V50.49h11.1A6.32,6.32,0,0,0,437.45,44.29Z"/></g></g></svg>